%TF.GenerationSoftware,KiCad,Pcbnew,7.0.6*%
%TF.CreationDate,2024-03-18T22:21:06-04:00*%
%TF.ProjectId,Receiver,52656365-6976-4657-922e-6b696361645f,rev?*%
%TF.SameCoordinates,Original*%
%TF.FileFunction,Copper,L2,Inr*%
%TF.FilePolarity,Positive*%
%FSLAX46Y46*%
G04 Gerber Fmt 4.6, Leading zero omitted, Abs format (unit mm)*
G04 Created by KiCad (PCBNEW 7.0.6) date 2024-03-18 22:21:06*
%MOMM*%
%LPD*%
G01*
G04 APERTURE LIST*
G04 Aperture macros list*
%AMRoundRect*
0 Rectangle with rounded corners*
0 $1 Rounding radius*
0 $2 $3 $4 $5 $6 $7 $8 $9 X,Y pos of 4 corners*
0 Add a 4 corners polygon primitive as box body*
4,1,4,$2,$3,$4,$5,$6,$7,$8,$9,$2,$3,0*
0 Add four circle primitives for the rounded corners*
1,1,$1+$1,$2,$3*
1,1,$1+$1,$4,$5*
1,1,$1+$1,$6,$7*
1,1,$1+$1,$8,$9*
0 Add four rect primitives between the rounded corners*
20,1,$1+$1,$2,$3,$4,$5,0*
20,1,$1+$1,$4,$5,$6,$7,0*
20,1,$1+$1,$6,$7,$8,$9,0*
20,1,$1+$1,$8,$9,$2,$3,0*%
G04 Aperture macros list end*
%TA.AperFunction,ComponentPad*%
%ADD10C,3.600000*%
%TD*%
%TA.AperFunction,ComponentPad*%
%ADD11C,1.498600*%
%TD*%
%TA.AperFunction,ComponentPad*%
%ADD12C,1.803400*%
%TD*%
%TA.AperFunction,ComponentPad*%
%ADD13R,1.000000X1.000000*%
%TD*%
%TA.AperFunction,ComponentPad*%
%ADD14O,1.000000X1.000000*%
%TD*%
%TA.AperFunction,ComponentPad*%
%ADD15RoundRect,0.250000X0.625000X-0.350000X0.625000X0.350000X-0.625000X0.350000X-0.625000X-0.350000X0*%
%TD*%
%TA.AperFunction,ComponentPad*%
%ADD16O,1.750000X1.200000*%
%TD*%
%TA.AperFunction,ComponentPad*%
%ADD17O,1.300000X2.300000*%
%TD*%
%TA.AperFunction,ComponentPad*%
%ADD18O,1.300000X2.600000*%
%TD*%
%TA.AperFunction,ViaPad*%
%ADD19C,0.650000*%
%TD*%
%TA.AperFunction,ViaPad*%
%ADD20C,0.450000*%
%TD*%
G04 APERTURE END LIST*
D10*
%TO.N,N/C*%
%TO.C,H1*%
X165500000Y-115500000D03*
%TD*%
%TO.N,N/C*%
%TO.C,H2*%
X165575000Y-84500000D03*
%TD*%
%TO.N,N/C*%
%TO.C,H7*%
X179000000Y-117500000D03*
%TD*%
D11*
%TO.N,GND*%
%TO.C,SW2*%
X154561749Y-114100000D03*
%TO.N,Net-(D3-K)*%
X159061750Y-114100000D03*
D12*
%TO.N,N/C*%
X153306749Y-111609701D03*
X160316750Y-111609701D03*
%TD*%
D10*
%TO.N,N/C*%
%TO.C,H6*%
X179000000Y-82500000D03*
%TD*%
D13*
%TO.N,/ESP_EN*%
%TO.C,J5*%
X127030000Y-83330000D03*
D14*
%TO.N,+3.3V*%
X128300000Y-83330000D03*
%TO.N,/ESP_TX*%
X127030000Y-84600000D03*
%TO.N,GND*%
X128300000Y-84600000D03*
%TO.N,/ESP_RX*%
X127030000Y-85870000D03*
%TO.N,/ESP_IO0*%
X128300000Y-85870000D03*
%TD*%
D10*
%TO.N,N/C*%
%TO.C,H4*%
X134500000Y-84500000D03*
%TD*%
%TO.N,N/C*%
%TO.C,H5*%
X121000000Y-82500000D03*
%TD*%
%TO.N,N/C*%
%TO.C,H3*%
X134500000Y-115500000D03*
%TD*%
D15*
%TO.N,GND*%
%TO.C,J4*%
X179000000Y-92100000D03*
D16*
%TO.N,unconnected-(J4-Pin_2-Pad2)*%
X179000000Y-90100000D03*
%TO.N,/BAT+*%
X179000000Y-88100000D03*
%TD*%
D17*
%TO.N,N/C*%
%TO.C,J1*%
X140280000Y-114525000D03*
D18*
X140280000Y-118350000D03*
D17*
X148920000Y-114525000D03*
D18*
X148920000Y-118350000D03*
%TD*%
D10*
%TO.N,N/C*%
%TO.C,H8*%
X121000000Y-117500000D03*
%TD*%
D15*
%TO.N,/OUT1B*%
%TO.C,J6*%
X180131617Y-103000000D03*
D16*
%TO.N,/OUT1A*%
X180131617Y-101000000D03*
%TO.N,/OUT2A*%
X180131617Y-99000000D03*
%TO.N,/OUT2B*%
X180131617Y-97000000D03*
%TD*%
D19*
%TO.N,/VUSB*%
X140400000Y-91400000D03*
%TO.N,+3.3V*%
X144400000Y-108000000D03*
%TO.N,GND*%
X144400000Y-106900000D03*
X143600000Y-97000000D03*
%TO.N,+3.3V*%
X143600000Y-95200000D03*
%TO.N,/ESP_EN*%
X130900000Y-104700000D03*
X130100000Y-92500000D03*
%TO.N,GND*%
X129800000Y-102600000D03*
X129000000Y-102600000D03*
X128200000Y-102600000D03*
X129700000Y-97400000D03*
X128900000Y-97400000D03*
X128100000Y-97400000D03*
X127400000Y-97800000D03*
X127400000Y-98600000D03*
X127400000Y-99400000D03*
X127400000Y-100200000D03*
X127400000Y-101000000D03*
X127400000Y-101800000D03*
X127400000Y-102600000D03*
X137400000Y-111100000D03*
X125200000Y-110000000D03*
X124400000Y-110000000D03*
X123600000Y-110000000D03*
%TO.N,+3.3V*%
X128200000Y-111400000D03*
X128200000Y-112300000D03*
X128200000Y-113100000D03*
%TO.N,/SCL*%
X144400000Y-101200000D03*
%TO.N,/SDA*%
X147300000Y-100400000D03*
%TO.N,+3.3V*%
X146400000Y-99200000D03*
%TO.N,/VSYS*%
X163300000Y-111100000D03*
X162700000Y-111700000D03*
X162100000Y-112300000D03*
%TO.N,GND*%
X152400000Y-100500000D03*
%TO.N,+3.3V*%
X149000000Y-102100000D03*
X161300000Y-106700000D03*
%TO.N,GND*%
X154100000Y-107500000D03*
%TO.N,+3.3V*%
X168600000Y-112400000D03*
%TO.N,GND*%
X161700000Y-114600000D03*
X168700000Y-108500000D03*
X168700000Y-107800000D03*
%TO.N,/VUSB*%
X180900000Y-108400000D03*
%TO.N,GND*%
X172900000Y-107651500D03*
%TO.N,+3.3V*%
X171800000Y-116800000D03*
X172500000Y-116400000D03*
X172500000Y-115600000D03*
X171800000Y-116000000D03*
X171800000Y-115200000D03*
%TO.N,GND*%
X174400000Y-117700000D03*
X173800000Y-117200000D03*
X174500000Y-116900000D03*
X173900000Y-116400000D03*
X174600000Y-116100000D03*
X174000000Y-115600000D03*
X181100000Y-113600000D03*
%TO.N,/DIR*%
X160600000Y-103100000D03*
%TO.N,/STEP*%
X161200000Y-101200000D03*
%TO.N,/ESP_IO0*%
X137400000Y-99600000D03*
%TO.N,/BC_INT*%
X145500000Y-94600000D03*
%TO.N,/VUSB*%
X139800000Y-90800000D03*
%TO.N,GND*%
X140300000Y-92900000D03*
X139700000Y-92300000D03*
%TO.N,/VUSB*%
X145800000Y-115900000D03*
X141600000Y-116300000D03*
%TO.N,GND*%
X149400000Y-112500000D03*
X139700000Y-112500000D03*
X142800000Y-109100000D03*
X145900000Y-109200000D03*
X167400000Y-102300000D03*
X170581617Y-100000000D03*
X149100000Y-92900000D03*
X176131617Y-102400000D03*
X164750000Y-92400000D03*
X167350000Y-92400000D03*
X146900000Y-96900000D03*
X162881617Y-97200000D03*
X169381617Y-106100000D03*
X176881617Y-102400000D03*
X169681617Y-99100000D03*
X172681617Y-106100000D03*
X148500000Y-93400000D03*
X158103500Y-85800000D03*
X156000000Y-85800000D03*
X171581617Y-106100000D03*
X150400000Y-97200000D03*
X175381617Y-102400000D03*
X176531617Y-103050000D03*
X140800000Y-85800000D03*
X168781617Y-100000000D03*
X176831617Y-97600000D03*
X143900000Y-85800000D03*
X169681617Y-100000000D03*
X159300000Y-85800000D03*
X155600000Y-94300000D03*
X162900000Y-93800000D03*
X163900000Y-92400000D03*
X162881617Y-96100000D03*
X168781617Y-100900000D03*
X173781617Y-106100000D03*
X175981617Y-106100000D03*
X168781617Y-99100000D03*
X170481617Y-106100000D03*
X142800000Y-85800000D03*
X170581617Y-100900000D03*
X141800000Y-85800000D03*
X166500000Y-92400000D03*
X145000000Y-85800000D03*
X176481617Y-98200000D03*
X165650000Y-92400000D03*
X170581617Y-99100000D03*
X162881617Y-95000000D03*
X154800000Y-92300000D03*
X152800000Y-85800000D03*
X169681617Y-100900000D03*
X147900000Y-92900000D03*
X155600000Y-92100000D03*
X162881617Y-98300000D03*
X161581617Y-102500000D03*
X176481617Y-97000000D03*
X176081617Y-97600000D03*
X174881617Y-106100000D03*
X148500000Y-85800000D03*
X153900000Y-85800000D03*
X157000500Y-85800000D03*
X155000000Y-85800000D03*
%TO.N,/STEP*%
X168581617Y-104100000D03*
%TO.N,/DIR*%
X170081617Y-103500000D03*
%TO.N,/BAT+*%
X169200000Y-95600000D03*
X174582114Y-102400000D03*
X172581617Y-103000000D03*
X172981617Y-97550000D03*
X173381617Y-103000000D03*
X173781617Y-97550000D03*
X172981617Y-102400000D03*
X173781617Y-102400000D03*
X174582114Y-97550000D03*
X172581617Y-96950000D03*
X173381617Y-96950000D03*
%TO.N,/STAT*%
X145600000Y-90600000D03*
X155400000Y-97800000D03*
D20*
%TO.N,/BTST1*%
X145900000Y-92100000D03*
%TO.N,/REGN*%
X154300000Y-95000000D03*
X145200000Y-93600000D03*
%TO.N,/BTST2*%
X151303778Y-93084241D03*
%TO.N,/SDRV*%
X157100000Y-91000000D03*
X151400000Y-90500000D03*
D19*
%TO.N,/VSYS*%
X160700000Y-87500000D03*
X160700000Y-88300000D03*
X160700000Y-86700000D03*
X160700000Y-89100000D03*
D20*
%TO.N,/SW2*%
X149000000Y-91700000D03*
X149500000Y-91700000D03*
D19*
X149500000Y-85800000D03*
D20*
X149500000Y-92200000D03*
D19*
X149500000Y-86500000D03*
X149500000Y-87200000D03*
D20*
X149000000Y-92200000D03*
D19*
%TO.N,/SW1*%
X147500000Y-86500000D03*
D20*
X147500000Y-91700000D03*
D19*
X147500000Y-85800000D03*
D20*
X148000000Y-91700000D03*
X147500000Y-92200000D03*
X148000000Y-92200000D03*
D19*
X147500000Y-87200000D03*
%TO.N,+3.3V*%
X161700000Y-104900000D03*
X161681617Y-103500000D03*
D20*
%TO.N,/BC_INT*%
X153800000Y-91900000D03*
D19*
%TO.N,/D-*%
X133300000Y-95400000D03*
X143800000Y-116000000D03*
%TO.N,/D+*%
X144600000Y-116900000D03*
X131600000Y-95400000D03*
%TD*%
%TA.AperFunction,Conductor*%
%TO.N,GND*%
G36*
X180001866Y-79200613D02*
G01*
X180066487Y-79204521D01*
X180273434Y-79217039D01*
X180280867Y-79217943D01*
X180332999Y-79227496D01*
X180546632Y-79266645D01*
X180553881Y-79268433D01*
X180811843Y-79348817D01*
X180818830Y-79351468D01*
X180960398Y-79415182D01*
X181065213Y-79462356D01*
X181071843Y-79465836D01*
X181303052Y-79605607D01*
X181309219Y-79609863D01*
X181421329Y-79697696D01*
X181521899Y-79776487D01*
X181527499Y-79781448D01*
X181718550Y-79972499D01*
X181723512Y-79978100D01*
X181890135Y-80190779D01*
X181894392Y-80196947D01*
X182034163Y-80428156D01*
X182037646Y-80434791D01*
X182148531Y-80681169D01*
X182151185Y-80688165D01*
X182203156Y-80854944D01*
X182231563Y-80946106D01*
X182233357Y-80953382D01*
X182282056Y-81219132D01*
X182282960Y-81226571D01*
X182299387Y-81498132D01*
X182299500Y-81501877D01*
X182299500Y-118498122D01*
X182299387Y-118501867D01*
X182282960Y-118773428D01*
X182282056Y-118780867D01*
X182233357Y-119046617D01*
X182231563Y-119053893D01*
X182161490Y-119278768D01*
X182151189Y-119311824D01*
X182148531Y-119318830D01*
X182037646Y-119565208D01*
X182034163Y-119571843D01*
X181894392Y-119803052D01*
X181890135Y-119809220D01*
X181723512Y-120021899D01*
X181718543Y-120027508D01*
X181527508Y-120218543D01*
X181521899Y-120223512D01*
X181309220Y-120390135D01*
X181303052Y-120394392D01*
X181071843Y-120534163D01*
X181065208Y-120537646D01*
X180818830Y-120648531D01*
X180811828Y-120651187D01*
X180667749Y-120696084D01*
X180553893Y-120731563D01*
X180546617Y-120733357D01*
X180280867Y-120782056D01*
X180273428Y-120782960D01*
X180001867Y-120799387D01*
X179998122Y-120799500D01*
X120001878Y-120799500D01*
X119998133Y-120799387D01*
X119726571Y-120782960D01*
X119719132Y-120782056D01*
X119487070Y-120739530D01*
X119453379Y-120733356D01*
X119446106Y-120731563D01*
X119188165Y-120651185D01*
X119181169Y-120648531D01*
X118934791Y-120537646D01*
X118928156Y-120534163D01*
X118696947Y-120394392D01*
X118690779Y-120390135D01*
X118478100Y-120223512D01*
X118472499Y-120218550D01*
X118281448Y-120027499D01*
X118276487Y-120021899D01*
X118109864Y-119809220D01*
X118105607Y-119803052D01*
X117965836Y-119571843D01*
X117962353Y-119565208D01*
X117934023Y-119502262D01*
X117877320Y-119376271D01*
X117851468Y-119318830D01*
X117848817Y-119311843D01*
X117768433Y-119053881D01*
X117766645Y-119046632D01*
X117717943Y-118780867D01*
X117717039Y-118773428D01*
X117709673Y-118651657D01*
X117700613Y-118501866D01*
X117700500Y-118498122D01*
X117700500Y-117500001D01*
X119044518Y-117500001D01*
X119064422Y-117778299D01*
X119123727Y-118050916D01*
X119123729Y-118050923D01*
X119184266Y-118213230D01*
X119221231Y-118312338D01*
X119221233Y-118312342D01*
X119354940Y-118557207D01*
X119354945Y-118557215D01*
X119522138Y-118780560D01*
X119522154Y-118780578D01*
X119719421Y-118977845D01*
X119719439Y-118977861D01*
X119942784Y-119145054D01*
X119942792Y-119145059D01*
X120187657Y-119278766D01*
X120187661Y-119278768D01*
X120187663Y-119278769D01*
X120449077Y-119376271D01*
X120585391Y-119405924D01*
X120721700Y-119435577D01*
X120721702Y-119435577D01*
X120721706Y-119435578D01*
X120969014Y-119453265D01*
X120999999Y-119455482D01*
X121000000Y-119455482D01*
X121000001Y-119455482D01*
X121027881Y-119453487D01*
X121278294Y-119435578D01*
X121550923Y-119376271D01*
X121812337Y-119278769D01*
X122057213Y-119145056D01*
X122190926Y-119044960D01*
X139479500Y-119044960D01*
X139494630Y-119179249D01*
X139494631Y-119179254D01*
X139554211Y-119349523D01*
X139620790Y-119455482D01*
X139650184Y-119502262D01*
X139777738Y-119629816D01*
X139930478Y-119725789D01*
X140100745Y-119785368D01*
X140100750Y-119785369D01*
X140279996Y-119805565D01*
X140280000Y-119805565D01*
X140280004Y-119805565D01*
X140459249Y-119785369D01*
X140459252Y-119785368D01*
X140459255Y-119785368D01*
X140629522Y-119725789D01*
X140782262Y-119629816D01*
X140909816Y-119502262D01*
X141005789Y-119349522D01*
X141065368Y-119179255D01*
X141080499Y-119044960D01*
X148119500Y-119044960D01*
X148134630Y-119179249D01*
X148134631Y-119179254D01*
X148194211Y-119349523D01*
X148260790Y-119455482D01*
X148290184Y-119502262D01*
X148417738Y-119629816D01*
X148570478Y-119725789D01*
X148740745Y-119785368D01*
X148740750Y-119785369D01*
X148919996Y-119805565D01*
X148920000Y-119805565D01*
X148920004Y-119805565D01*
X149099249Y-119785369D01*
X149099252Y-119785368D01*
X149099255Y-119785368D01*
X149269522Y-119725789D01*
X149422262Y-119629816D01*
X149549816Y-119502262D01*
X149645789Y-119349522D01*
X149705368Y-119179255D01*
X149720500Y-119044954D01*
X149720500Y-117655046D01*
X149705368Y-117520745D01*
X149698109Y-117500001D01*
X177044518Y-117500001D01*
X177064422Y-117778299D01*
X177123727Y-118050916D01*
X177123729Y-118050923D01*
X177184266Y-118213230D01*
X177221231Y-118312338D01*
X177221233Y-118312342D01*
X177354940Y-118557207D01*
X177354945Y-118557215D01*
X177522138Y-118780560D01*
X177522154Y-118780578D01*
X177719421Y-118977845D01*
X177719439Y-118977861D01*
X177942784Y-119145054D01*
X177942792Y-119145059D01*
X178187657Y-119278766D01*
X178187661Y-119278768D01*
X178187663Y-119278769D01*
X178449077Y-119376271D01*
X178585391Y-119405924D01*
X178721700Y-119435577D01*
X178721702Y-119435577D01*
X178721706Y-119435578D01*
X178969014Y-119453265D01*
X178999999Y-119455482D01*
X179000000Y-119455482D01*
X179000001Y-119455482D01*
X179027881Y-119453487D01*
X179278294Y-119435578D01*
X179550923Y-119376271D01*
X179812337Y-119278769D01*
X180057213Y-119145056D01*
X180280568Y-118977855D01*
X180477855Y-118780568D01*
X180645056Y-118557213D01*
X180778769Y-118312337D01*
X180876271Y-118050923D01*
X180935578Y-117778294D01*
X180955482Y-117500000D01*
X180935578Y-117221706D01*
X180922092Y-117159714D01*
X180900340Y-117059721D01*
X180876271Y-116949077D01*
X180778769Y-116687663D01*
X180766209Y-116664662D01*
X180645059Y-116442792D01*
X180645054Y-116442784D01*
X180477861Y-116219439D01*
X180477845Y-116219421D01*
X180280578Y-116022154D01*
X180280560Y-116022138D01*
X180057215Y-115854945D01*
X180057207Y-115854940D01*
X179812342Y-115721233D01*
X179812338Y-115721231D01*
X179705015Y-115681202D01*
X179550923Y-115623729D01*
X179550919Y-115623728D01*
X179550916Y-115623727D01*
X179278299Y-115564422D01*
X179000001Y-115544518D01*
X178999999Y-115544518D01*
X178721700Y-115564422D01*
X178449083Y-115623727D01*
X178449078Y-115623728D01*
X178449077Y-115623729D01*
X178385875Y-115647301D01*
X178187661Y-115721231D01*
X178187657Y-115721233D01*
X177942792Y-115854940D01*
X177942784Y-115854945D01*
X177719439Y-116022138D01*
X177719421Y-116022154D01*
X177522154Y-116219421D01*
X177522138Y-116219439D01*
X177354945Y-116442784D01*
X177354940Y-116442792D01*
X177221233Y-116687657D01*
X177221231Y-116687661D01*
X177123727Y-116949083D01*
X177064422Y-117221700D01*
X177044518Y-117499998D01*
X177044518Y-117500001D01*
X149698109Y-117500001D01*
X149645789Y-117350478D01*
X149637306Y-117336978D01*
X149549815Y-117197737D01*
X149422262Y-117070184D01*
X149269523Y-116974211D01*
X149099254Y-116914631D01*
X149099249Y-116914630D01*
X148920004Y-116894435D01*
X148919996Y-116894435D01*
X148740750Y-116914630D01*
X148740745Y-116914631D01*
X148570476Y-116974211D01*
X148417737Y-117070184D01*
X148290184Y-117197737D01*
X148194211Y-117350476D01*
X148134631Y-117520745D01*
X148134630Y-117520750D01*
X148119500Y-117655039D01*
X148119500Y-119044960D01*
X141080499Y-119044960D01*
X141080500Y-119044954D01*
X141080500Y-117655046D01*
X141065368Y-117520745D01*
X141005789Y-117350478D01*
X140997306Y-117336978D01*
X140909815Y-117197737D01*
X140782262Y-117070184D01*
X140629523Y-116974211D01*
X140459254Y-116914631D01*
X140459249Y-116914630D01*
X140329397Y-116900000D01*
X144119610Y-116900000D01*
X144139068Y-117035337D01*
X144139070Y-117035345D01*
X144195867Y-117159714D01*
X144195872Y-117159721D01*
X144285409Y-117263053D01*
X144285413Y-117263057D01*
X144345979Y-117301979D01*
X144400439Y-117336978D01*
X144446409Y-117350476D01*
X144531632Y-117375500D01*
X144531633Y-117375500D01*
X144668367Y-117375500D01*
X144799561Y-117336978D01*
X144914589Y-117263055D01*
X145004130Y-117159718D01*
X145060931Y-117035342D01*
X145080390Y-116900000D01*
X145060931Y-116764658D01*
X145048290Y-116736978D01*
X145004132Y-116640285D01*
X145004127Y-116640278D01*
X144914590Y-116536946D01*
X144914586Y-116536942D01*
X144799559Y-116463021D01*
X144668368Y-116424500D01*
X144668367Y-116424500D01*
X144531633Y-116424500D01*
X144531632Y-116424500D01*
X144400440Y-116463021D01*
X144285422Y-116536937D01*
X144279906Y-116538556D01*
X144275329Y-116548580D01*
X144195870Y-116640282D01*
X144195867Y-116640285D01*
X144139070Y-116764654D01*
X144139068Y-116764662D01*
X144119610Y-116900000D01*
X140329397Y-116900000D01*
X140280004Y-116894435D01*
X140279996Y-116894435D01*
X140100750Y-116914630D01*
X140100745Y-116914631D01*
X139930476Y-116974211D01*
X139777737Y-117070184D01*
X139650184Y-117197737D01*
X139554211Y-117350476D01*
X139494631Y-117520745D01*
X139494630Y-117520750D01*
X139479500Y-117655039D01*
X139479500Y-119044960D01*
X122190926Y-119044960D01*
X122280568Y-118977855D01*
X122477855Y-118780568D01*
X122645056Y-118557213D01*
X122778769Y-118312337D01*
X122876271Y-118050923D01*
X122935578Y-117778294D01*
X122955482Y-117500000D01*
X122935578Y-117221706D01*
X122922092Y-117159714D01*
X122900340Y-117059721D01*
X122876271Y-116949077D01*
X122778769Y-116687663D01*
X122766209Y-116664662D01*
X122645059Y-116442792D01*
X122645054Y-116442784D01*
X122477861Y-116219439D01*
X122477845Y-116219421D01*
X122280578Y-116022154D01*
X122280560Y-116022138D01*
X122057215Y-115854945D01*
X122057207Y-115854940D01*
X121812342Y-115721233D01*
X121812338Y-115721231D01*
X121705015Y-115681202D01*
X121550923Y-115623729D01*
X121550919Y-115623728D01*
X121550916Y-115623727D01*
X121278299Y-115564422D01*
X121000001Y-115544518D01*
X120999999Y-115544518D01*
X120721700Y-115564422D01*
X120449083Y-115623727D01*
X120449078Y-115623728D01*
X120449077Y-115623729D01*
X120385875Y-115647301D01*
X120187661Y-115721231D01*
X120187657Y-115721233D01*
X119942792Y-115854940D01*
X119942784Y-115854945D01*
X119719439Y-116022138D01*
X119719421Y-116022154D01*
X119522154Y-116219421D01*
X119522138Y-116219439D01*
X119354945Y-116442784D01*
X119354940Y-116442792D01*
X119221233Y-116687657D01*
X119221231Y-116687661D01*
X119123727Y-116949083D01*
X119064422Y-117221700D01*
X119044518Y-117499998D01*
X119044518Y-117500001D01*
X117700500Y-117500001D01*
X117700500Y-115500001D01*
X132544518Y-115500001D01*
X132564422Y-115778299D01*
X132623727Y-116050916D01*
X132623729Y-116050923D01*
X132666148Y-116164654D01*
X132721231Y-116312338D01*
X132721233Y-116312342D01*
X132854940Y-116557207D01*
X132854945Y-116557215D01*
X133022138Y-116780560D01*
X133022154Y-116780578D01*
X133219421Y-116977845D01*
X133219439Y-116977861D01*
X133442784Y-117145054D01*
X133442792Y-117145059D01*
X133687657Y-117278766D01*
X133687661Y-117278768D01*
X133687663Y-117278769D01*
X133949077Y-117376271D01*
X134085391Y-117405924D01*
X134221700Y-117435577D01*
X134221702Y-117435577D01*
X134221706Y-117435578D01*
X134469014Y-117453265D01*
X134499999Y-117455482D01*
X134500000Y-117455482D01*
X134500001Y-117455482D01*
X134527881Y-117453487D01*
X134778294Y-117435578D01*
X135050923Y-117376271D01*
X135312337Y-117278769D01*
X135557213Y-117145056D01*
X135780568Y-116977855D01*
X135977855Y-116780568D01*
X136145056Y-116557213D01*
X136278769Y-116312337D01*
X136283370Y-116300000D01*
X141119610Y-116300000D01*
X141122313Y-116318798D01*
X141139068Y-116435337D01*
X141139070Y-116435345D01*
X141195867Y-116559714D01*
X141195872Y-116559721D01*
X141285409Y-116663053D01*
X141285413Y-116663057D01*
X141323693Y-116687657D01*
X141400439Y-116736978D01*
X141466036Y-116756238D01*
X141531632Y-116775500D01*
X141531633Y-116775500D01*
X141668367Y-116775500D01*
X141799561Y-116736978D01*
X141914589Y-116663055D01*
X142004130Y-116559718D01*
X142060931Y-116435342D01*
X142080390Y-116300000D01*
X142060931Y-116164658D01*
X142008990Y-116050923D01*
X142004132Y-116040285D01*
X142004127Y-116040278D01*
X141969226Y-116000000D01*
X143319610Y-116000000D01*
X143339068Y-116135337D01*
X143339070Y-116135345D01*
X143395867Y-116259714D01*
X143395872Y-116259721D01*
X143485409Y-116363053D01*
X143485413Y-116363057D01*
X143515441Y-116382354D01*
X143600439Y-116436978D01*
X143620223Y-116442787D01*
X143731632Y-116475500D01*
X143731633Y-116475500D01*
X143868367Y-116475500D01*
X143999561Y-116436978D01*
X144114579Y-116363060D01*
X144120093Y-116361442D01*
X144124669Y-116351421D01*
X144204130Y-116259718D01*
X144260931Y-116135342D01*
X144280390Y-116000000D01*
X144266012Y-115899999D01*
X145319610Y-115899999D01*
X145339068Y-116035337D01*
X145339070Y-116035345D01*
X145395867Y-116159714D01*
X145395872Y-116159721D01*
X145485409Y-116263053D01*
X145485413Y-116263057D01*
X145542898Y-116299999D01*
X145600439Y-116336978D01*
X145649617Y-116351418D01*
X145731632Y-116375500D01*
X145731633Y-116375500D01*
X145868367Y-116375500D01*
X145999561Y-116336978D01*
X146114589Y-116263055D01*
X146204130Y-116159718D01*
X146260931Y-116035342D01*
X146280390Y-115900000D01*
X146260931Y-115764658D01*
X146241099Y-115721233D01*
X146204132Y-115640285D01*
X146204127Y-115640278D01*
X146114590Y-115536946D01*
X146114586Y-115536942D01*
X146002113Y-115464662D01*
X145999561Y-115463022D01*
X145999560Y-115463021D01*
X145999559Y-115463021D01*
X145868368Y-115424500D01*
X145868367Y-115424500D01*
X145731633Y-115424500D01*
X145731632Y-115424500D01*
X145600440Y-115463021D01*
X145485413Y-115536942D01*
X145485409Y-115536946D01*
X145395872Y-115640278D01*
X145395867Y-115640285D01*
X145339070Y-115764654D01*
X145339068Y-115764662D01*
X145319610Y-115899999D01*
X144266012Y-115899999D01*
X144260931Y-115864658D01*
X144236138Y-115810369D01*
X144204132Y-115740285D01*
X144204127Y-115740278D01*
X144114590Y-115636946D01*
X144114586Y-115636942D01*
X143999559Y-115563021D01*
X143868368Y-115524500D01*
X143868367Y-115524500D01*
X143731633Y-115524500D01*
X143731632Y-115524500D01*
X143600440Y-115563021D01*
X143485413Y-115636942D01*
X143485409Y-115636946D01*
X143395872Y-115740278D01*
X143395867Y-115740285D01*
X143339070Y-115864654D01*
X143339068Y-115864662D01*
X143319610Y-116000000D01*
X141969226Y-116000000D01*
X141914590Y-115936946D01*
X141914586Y-115936942D01*
X141802113Y-115864662D01*
X141799561Y-115863022D01*
X141799560Y-115863021D01*
X141799559Y-115863021D01*
X141668368Y-115824500D01*
X141668367Y-115824500D01*
X141531633Y-115824500D01*
X141531632Y-115824500D01*
X141400440Y-115863021D01*
X141285413Y-115936942D01*
X141285409Y-115936946D01*
X141195872Y-116040278D01*
X141195867Y-116040285D01*
X141139070Y-116164654D01*
X141139068Y-116164662D01*
X141124692Y-116264654D01*
X141119610Y-116300000D01*
X136283370Y-116300000D01*
X136376271Y-116050923D01*
X136427058Y-115817458D01*
X136435577Y-115778299D01*
X136435577Y-115778298D01*
X136435578Y-115778294D01*
X136455482Y-115500000D01*
X136435578Y-115221706D01*
X136431780Y-115204249D01*
X136402567Y-115069960D01*
X139479500Y-115069960D01*
X139494630Y-115204249D01*
X139494631Y-115204254D01*
X139554211Y-115374523D01*
X139610847Y-115464658D01*
X139650184Y-115527262D01*
X139777738Y-115654816D01*
X139819731Y-115681202D01*
X139913754Y-115740281D01*
X139930478Y-115750789D01*
X140100745Y-115810367D01*
X140100745Y-115810368D01*
X140100750Y-115810369D01*
X140279996Y-115830565D01*
X140280000Y-115830565D01*
X140280004Y-115830565D01*
X140459249Y-115810369D01*
X140459252Y-115810368D01*
X140459255Y-115810368D01*
X140629522Y-115750789D01*
X140782262Y-115654816D01*
X140909816Y-115527262D01*
X141005789Y-115374522D01*
X141065368Y-115204255D01*
X141065848Y-115200000D01*
X141080499Y-115069960D01*
X148119500Y-115069960D01*
X148134630Y-115204249D01*
X148134631Y-115204254D01*
X148194211Y-115374523D01*
X148250847Y-115464658D01*
X148290184Y-115527262D01*
X148417738Y-115654816D01*
X148459731Y-115681202D01*
X148553754Y-115740281D01*
X148570478Y-115750789D01*
X148740745Y-115810367D01*
X148740745Y-115810368D01*
X148740750Y-115810369D01*
X148919996Y-115830565D01*
X148920000Y-115830565D01*
X148920004Y-115830565D01*
X149099249Y-115810369D01*
X149099252Y-115810368D01*
X149099255Y-115810368D01*
X149269522Y-115750789D01*
X149422262Y-115654816D01*
X149549816Y-115527262D01*
X149566945Y-115500001D01*
X163544518Y-115500001D01*
X163564422Y-115778299D01*
X163623727Y-116050916D01*
X163623729Y-116050923D01*
X163666148Y-116164654D01*
X163721231Y-116312338D01*
X163721233Y-116312342D01*
X163854940Y-116557207D01*
X163854945Y-116557215D01*
X164022138Y-116780560D01*
X164022154Y-116780578D01*
X164219421Y-116977845D01*
X164219439Y-116977861D01*
X164442784Y-117145054D01*
X164442792Y-117145059D01*
X164687657Y-117278766D01*
X164687661Y-117278768D01*
X164687663Y-117278769D01*
X164949077Y-117376271D01*
X165085391Y-117405924D01*
X165221700Y-117435577D01*
X165221702Y-117435577D01*
X165221706Y-117435578D01*
X165469014Y-117453265D01*
X165499999Y-117455482D01*
X165500000Y-117455482D01*
X165500001Y-117455482D01*
X165527881Y-117453487D01*
X165778294Y-117435578D01*
X166050923Y-117376271D01*
X166312337Y-117278769D01*
X166557213Y-117145056D01*
X166780568Y-116977855D01*
X166958423Y-116800000D01*
X171319610Y-116800000D01*
X171339068Y-116935337D01*
X171339070Y-116935345D01*
X171395867Y-117059714D01*
X171395872Y-117059721D01*
X171485409Y-117163053D01*
X171485413Y-117163057D01*
X171545979Y-117201979D01*
X171600439Y-117236978D01*
X171666035Y-117256238D01*
X171731632Y-117275500D01*
X171731633Y-117275500D01*
X171868367Y-117275500D01*
X171999561Y-117236978D01*
X172114589Y-117163055D01*
X172204130Y-117059718D01*
X172260577Y-116936116D01*
X172306331Y-116883313D01*
X172373371Y-116863628D01*
X172408305Y-116868651D01*
X172431630Y-116875499D01*
X172431632Y-116875500D01*
X172431633Y-116875500D01*
X172568367Y-116875500D01*
X172699561Y-116836978D01*
X172814589Y-116763055D01*
X172904130Y-116659718D01*
X172960931Y-116535342D01*
X172980390Y-116400000D01*
X172960931Y-116264658D01*
X172940272Y-116219421D01*
X172904132Y-116140285D01*
X172904130Y-116140283D01*
X172904130Y-116140282D01*
X172852935Y-116081199D01*
X172823912Y-116017648D01*
X172833855Y-115948489D01*
X172852933Y-115918802D01*
X172904130Y-115859718D01*
X172960931Y-115735342D01*
X172980390Y-115600000D01*
X172960931Y-115464658D01*
X172942591Y-115424500D01*
X172904132Y-115340285D01*
X172904127Y-115340278D01*
X172814590Y-115236946D01*
X172814586Y-115236942D01*
X172699559Y-115163021D01*
X172568368Y-115124500D01*
X172568367Y-115124500D01*
X172431633Y-115124500D01*
X172431629Y-115124500D01*
X172408302Y-115131349D01*
X172338432Y-115131347D01*
X172279655Y-115093571D01*
X172260577Y-115063883D01*
X172208149Y-114949083D01*
X172204130Y-114940282D01*
X172114589Y-114836945D01*
X172114586Y-114836942D01*
X171999559Y-114763021D01*
X171868368Y-114724500D01*
X171868367Y-114724500D01*
X171731633Y-114724500D01*
X171731632Y-114724500D01*
X171600440Y-114763021D01*
X171485413Y-114836942D01*
X171485409Y-114836946D01*
X171395872Y-114940278D01*
X171395867Y-114940285D01*
X171339070Y-115064654D01*
X171339068Y-115064662D01*
X171319610Y-115200000D01*
X171339068Y-115335337D01*
X171339070Y-115335345D01*
X171395867Y-115459714D01*
X171395870Y-115459718D01*
X171447062Y-115518798D01*
X171476086Y-115582354D01*
X171466142Y-115651513D01*
X171447062Y-115681202D01*
X171395870Y-115740281D01*
X171395867Y-115740285D01*
X171339070Y-115864654D01*
X171339068Y-115864662D01*
X171319610Y-116000000D01*
X171339068Y-116135337D01*
X171339070Y-116135345D01*
X171395867Y-116259714D01*
X171395870Y-116259718D01*
X171447062Y-116318798D01*
X171476086Y-116382354D01*
X171466142Y-116451513D01*
X171447062Y-116481202D01*
X171395870Y-116540281D01*
X171395867Y-116540285D01*
X171339070Y-116664654D01*
X171339068Y-116664662D01*
X171319610Y-116800000D01*
X166958423Y-116800000D01*
X166977855Y-116780568D01*
X167145056Y-116557213D01*
X167278769Y-116312337D01*
X167376271Y-116050923D01*
X167427058Y-115817458D01*
X167435577Y-115778299D01*
X167435577Y-115778298D01*
X167435578Y-115778294D01*
X167455482Y-115500000D01*
X167435578Y-115221706D01*
X167431780Y-115204249D01*
X167376272Y-114949083D01*
X167376271Y-114949077D01*
X167278769Y-114687663D01*
X167248266Y-114631802D01*
X167145059Y-114442792D01*
X167145054Y-114442784D01*
X166977861Y-114219439D01*
X166977845Y-114219421D01*
X166780578Y-114022154D01*
X166780560Y-114022138D01*
X166557215Y-113854945D01*
X166557207Y-113854940D01*
X166312342Y-113721233D01*
X166312338Y-113721231D01*
X166189668Y-113675478D01*
X166050923Y-113623729D01*
X166050919Y-113623728D01*
X166050916Y-113623727D01*
X165778299Y-113564422D01*
X165500001Y-113544518D01*
X165499999Y-113544518D01*
X165221700Y-113564422D01*
X164949083Y-113623727D01*
X164949078Y-113623728D01*
X164949077Y-113623729D01*
X164885875Y-113647301D01*
X164687661Y-113721231D01*
X164687657Y-113721233D01*
X164442792Y-113854940D01*
X164442784Y-113854945D01*
X164219439Y-114022138D01*
X164219421Y-114022154D01*
X164022154Y-114219421D01*
X164022138Y-114219439D01*
X163854945Y-114442784D01*
X163854940Y-114442792D01*
X163721233Y-114687657D01*
X163721231Y-114687661D01*
X163648172Y-114883542D01*
X163627010Y-114940282D01*
X163623727Y-114949083D01*
X163564422Y-115221700D01*
X163544518Y-115499998D01*
X163544518Y-115500001D01*
X149566945Y-115500001D01*
X149645789Y-115374522D01*
X149705368Y-115204255D01*
X149705848Y-115200000D01*
X149720499Y-115069960D01*
X149720500Y-115069956D01*
X149720500Y-114100001D01*
X153307677Y-114100001D01*
X153326728Y-114317761D01*
X153326730Y-114317771D01*
X153383304Y-114528910D01*
X153383308Y-114528919D01*
X153475693Y-114727039D01*
X153519125Y-114789068D01*
X153519126Y-114789069D01*
X154082458Y-114225736D01*
X154106576Y-114307871D01*
X154183577Y-114427688D01*
X154291216Y-114520957D01*
X154420772Y-114580124D01*
X154433366Y-114581934D01*
X153872678Y-115142621D01*
X153872679Y-115142622D01*
X153934709Y-115186055D01*
X154132829Y-115278440D01*
X154132838Y-115278444D01*
X154343977Y-115335018D01*
X154343987Y-115335020D01*
X154561747Y-115354072D01*
X154561751Y-115354072D01*
X154779510Y-115335020D01*
X154779520Y-115335018D01*
X154990659Y-115278444D01*
X154990668Y-115278440D01*
X155188784Y-115186057D01*
X155250818Y-115142621D01*
X154690131Y-114581934D01*
X154702726Y-114580124D01*
X154832282Y-114520957D01*
X154939921Y-114427688D01*
X155016922Y-114307871D01*
X155041038Y-114225737D01*
X155604370Y-114789069D01*
X155647806Y-114727035D01*
X155740189Y-114528919D01*
X155740193Y-114528910D01*
X155796767Y-114317771D01*
X155796769Y-114317761D01*
X155815821Y-114100001D01*
X155815821Y-114100000D01*
X158156994Y-114100000D01*
X158176765Y-114288109D01*
X158176766Y-114288112D01*
X158235211Y-114467991D01*
X158235214Y-114467997D01*
X158329787Y-114631802D01*
X158431136Y-114744362D01*
X158447937Y-114763022D01*
X158456350Y-114772365D01*
X158545233Y-114836942D01*
X158609373Y-114883543D01*
X158756567Y-114949077D01*
X158782165Y-114960474D01*
X158967177Y-114999800D01*
X159156323Y-114999800D01*
X159341335Y-114960474D01*
X159366933Y-114949077D01*
X159514126Y-114883543D01*
X159514126Y-114883542D01*
X159514128Y-114883542D01*
X159667150Y-114772365D01*
X159793713Y-114631802D01*
X159888286Y-114467997D01*
X159946735Y-114288109D01*
X159966506Y-114100000D01*
X159946735Y-113911891D01*
X159888286Y-113732003D01*
X159793713Y-113568198D01*
X159667150Y-113427635D01*
X159616142Y-113390576D01*
X159514126Y-113316456D01*
X159341334Y-113239525D01*
X159156323Y-113200200D01*
X158967177Y-113200200D01*
X158782165Y-113239525D01*
X158782164Y-113239525D01*
X158609373Y-113316456D01*
X158456348Y-113427636D01*
X158329786Y-113568199D01*
X158235214Y-113732002D01*
X158235211Y-113732008D01*
X158183186Y-113892129D01*
X158176765Y-113911891D01*
X158156994Y-114100000D01*
X155815821Y-114100000D01*
X155815821Y-114099998D01*
X155796769Y-113882238D01*
X155796767Y-113882228D01*
X155740193Y-113671089D01*
X155740189Y-113671080D01*
X155647804Y-113472960D01*
X155604371Y-113410930D01*
X155604370Y-113410929D01*
X155041038Y-113974261D01*
X155016922Y-113892129D01*
X154939921Y-113772312D01*
X154832282Y-113679043D01*
X154702726Y-113619876D01*
X154690131Y-113618065D01*
X155250818Y-113057377D01*
X155250817Y-113057376D01*
X155188788Y-113013944D01*
X154990668Y-112921559D01*
X154990659Y-112921555D01*
X154779520Y-112864981D01*
X154779510Y-112864979D01*
X154561751Y-112845928D01*
X154561747Y-112845928D01*
X154343987Y-112864979D01*
X154343977Y-112864981D01*
X154132838Y-112921555D01*
X154132829Y-112921559D01*
X153934713Y-113013942D01*
X153872679Y-113057377D01*
X154433367Y-113618065D01*
X154420772Y-113619876D01*
X154291216Y-113679043D01*
X154183577Y-113772312D01*
X154106576Y-113892129D01*
X154082458Y-113974262D01*
X153519126Y-113410930D01*
X153475691Y-113472964D01*
X153383308Y-113671080D01*
X153383304Y-113671089D01*
X153326730Y-113882228D01*
X153326728Y-113882238D01*
X153307677Y-114099998D01*
X153307677Y-114100001D01*
X149720500Y-114100001D01*
X149720500Y-113980043D01*
X149720499Y-113980039D01*
X149705369Y-113845750D01*
X149705368Y-113845745D01*
X149665568Y-113732003D01*
X149645789Y-113675478D01*
X149549816Y-113522738D01*
X149422262Y-113395184D01*
X149365823Y-113359721D01*
X149269523Y-113299211D01*
X149099254Y-113239631D01*
X149099249Y-113239630D01*
X148920004Y-113219435D01*
X148919996Y-113219435D01*
X148740750Y-113239630D01*
X148740745Y-113239631D01*
X148570476Y-113299211D01*
X148417737Y-113395184D01*
X148290184Y-113522737D01*
X148194211Y-113675476D01*
X148134631Y-113845745D01*
X148134630Y-113845750D01*
X148119500Y-113980039D01*
X148119500Y-115069960D01*
X141080499Y-115069960D01*
X141080500Y-115069956D01*
X141080500Y-113980043D01*
X141080499Y-113980039D01*
X141065369Y-113845750D01*
X141065368Y-113845745D01*
X141025568Y-113732003D01*
X141005789Y-113675478D01*
X140909816Y-113522738D01*
X140782262Y-113395184D01*
X140725823Y-113359721D01*
X140629523Y-113299211D01*
X140459254Y-113239631D01*
X140459249Y-113239630D01*
X140280004Y-113219435D01*
X140279996Y-113219435D01*
X140100750Y-113239630D01*
X140100745Y-113239631D01*
X139930476Y-113299211D01*
X139777737Y-113395184D01*
X139650184Y-113522737D01*
X139554211Y-113675476D01*
X139494631Y-113845745D01*
X139494630Y-113845750D01*
X139479500Y-113980039D01*
X139479500Y-115069960D01*
X136402567Y-115069960D01*
X136376272Y-114949083D01*
X136376271Y-114949077D01*
X136278769Y-114687663D01*
X136248266Y-114631802D01*
X136145059Y-114442792D01*
X136145054Y-114442784D01*
X135977861Y-114219439D01*
X135977845Y-114219421D01*
X135780578Y-114022154D01*
X135780560Y-114022138D01*
X135557215Y-113854945D01*
X135557207Y-113854940D01*
X135312342Y-113721233D01*
X135312338Y-113721231D01*
X135189668Y-113675478D01*
X135050923Y-113623729D01*
X135050919Y-113623728D01*
X135050916Y-113623727D01*
X134778299Y-113564422D01*
X134500001Y-113544518D01*
X134499999Y-113544518D01*
X134221700Y-113564422D01*
X133949083Y-113623727D01*
X133949078Y-113623728D01*
X133949077Y-113623729D01*
X133885875Y-113647301D01*
X133687661Y-113721231D01*
X133687657Y-113721233D01*
X133442792Y-113854940D01*
X133442784Y-113854945D01*
X133219439Y-114022138D01*
X133219421Y-114022154D01*
X133022154Y-114219421D01*
X133022138Y-114219439D01*
X132854945Y-114442784D01*
X132854940Y-114442792D01*
X132721233Y-114687657D01*
X132721231Y-114687661D01*
X132648172Y-114883542D01*
X132627010Y-114940282D01*
X132623727Y-114949083D01*
X132564422Y-115221700D01*
X132544518Y-115499998D01*
X132544518Y-115500001D01*
X117700500Y-115500001D01*
X117700500Y-113099999D01*
X127719610Y-113099999D01*
X127739068Y-113235337D01*
X127739070Y-113235345D01*
X127795867Y-113359714D01*
X127795872Y-113359721D01*
X127885409Y-113463053D01*
X127885413Y-113463057D01*
X127945979Y-113501979D01*
X128000439Y-113536978D01*
X128066035Y-113556238D01*
X128131632Y-113575500D01*
X128131633Y-113575500D01*
X128268367Y-113575500D01*
X128399561Y-113536978D01*
X128514589Y-113463055D01*
X128604130Y-113359718D01*
X128660931Y-113235342D01*
X128680390Y-113100000D01*
X128660931Y-112964658D01*
X128615409Y-112864979D01*
X128604132Y-112840285D01*
X128604130Y-112840283D01*
X128604130Y-112840282D01*
X128552935Y-112781199D01*
X128523912Y-112717648D01*
X128533855Y-112648489D01*
X128552933Y-112618802D01*
X128604130Y-112559718D01*
X128660931Y-112435342D01*
X128680390Y-112300000D01*
X128660931Y-112164658D01*
X128648290Y-112136978D01*
X128604132Y-112040285D01*
X128604130Y-112040283D01*
X128604130Y-112040282D01*
X128514589Y-111936945D01*
X128514585Y-111936942D01*
X128509612Y-111931203D01*
X128480587Y-111867647D01*
X128490531Y-111798489D01*
X128509612Y-111768797D01*
X128514585Y-111763057D01*
X128514589Y-111763055D01*
X128604130Y-111659718D01*
X128626973Y-111609700D01*
X152249458Y-111609700D01*
X152269773Y-111815963D01*
X152269773Y-111815966D01*
X152329940Y-112014312D01*
X152368369Y-112086206D01*
X152427644Y-112197100D01*
X152427646Y-112197102D01*
X152559130Y-112357319D01*
X152611138Y-112400000D01*
X152719350Y-112488806D01*
X152902141Y-112586511D01*
X153100482Y-112646676D01*
X153306749Y-112666992D01*
X153513016Y-112646676D01*
X153711357Y-112586511D01*
X153894148Y-112488806D01*
X154054367Y-112357319D01*
X154185854Y-112197100D01*
X154283559Y-112014309D01*
X154343724Y-111815968D01*
X154364040Y-111609701D01*
X154364040Y-111609700D01*
X159259459Y-111609700D01*
X159279774Y-111815963D01*
X159279774Y-111815966D01*
X159339941Y-112014312D01*
X159378370Y-112086206D01*
X159437645Y-112197100D01*
X159437647Y-112197102D01*
X159569131Y-112357319D01*
X159621139Y-112400000D01*
X159729351Y-112488806D01*
X159912142Y-112586511D01*
X160110483Y-112646676D01*
X160316750Y-112666992D01*
X160523017Y-112646676D01*
X160721358Y-112586511D01*
X160904149Y-112488806D01*
X161064368Y-112357319D01*
X161111408Y-112300000D01*
X161619610Y-112300000D01*
X161639068Y-112435337D01*
X161639070Y-112435345D01*
X161695867Y-112559714D01*
X161695872Y-112559721D01*
X161785409Y-112663053D01*
X161785413Y-112663057D01*
X161815441Y-112682354D01*
X161900439Y-112736978D01*
X161949941Y-112751513D01*
X162031632Y-112775500D01*
X162031633Y-112775500D01*
X162168367Y-112775500D01*
X162299561Y-112736978D01*
X162414589Y-112663055D01*
X162504130Y-112559718D01*
X162560931Y-112435342D01*
X162566012Y-112400000D01*
X168119610Y-112400000D01*
X168139068Y-112535337D01*
X168139070Y-112535345D01*
X168195867Y-112659714D01*
X168195872Y-112659721D01*
X168285409Y-112763053D01*
X168285413Y-112763057D01*
X168313650Y-112781203D01*
X168400439Y-112836978D01*
X168411702Y-112840285D01*
X168531632Y-112875500D01*
X168531633Y-112875500D01*
X168668367Y-112875500D01*
X168799561Y-112836978D01*
X168914589Y-112763055D01*
X169004130Y-112659718D01*
X169060931Y-112535342D01*
X169080390Y-112400000D01*
X169060931Y-112264658D01*
X169026382Y-112189006D01*
X169004132Y-112140285D01*
X169004127Y-112140278D01*
X168914590Y-112036946D01*
X168914586Y-112036942D01*
X168799559Y-111963021D01*
X168668368Y-111924500D01*
X168668367Y-111924500D01*
X168531633Y-111924500D01*
X168531632Y-111924500D01*
X168400440Y-111963021D01*
X168285413Y-112036942D01*
X168285409Y-112036946D01*
X168195872Y-112140278D01*
X168195867Y-112140285D01*
X168139070Y-112264654D01*
X168139068Y-112264662D01*
X168119610Y-112400000D01*
X162566012Y-112400000D01*
X162580390Y-112300000D01*
X162580390Y-112299999D01*
X162580390Y-112299500D01*
X162580530Y-112299020D01*
X162581652Y-112291222D01*
X162582773Y-112291383D01*
X162600075Y-112232461D01*
X162652879Y-112186706D01*
X162704390Y-112175500D01*
X162768367Y-112175500D01*
X162899561Y-112136978D01*
X163014589Y-112063055D01*
X163104130Y-111959718D01*
X163160931Y-111835342D01*
X163180390Y-111700000D01*
X163180390Y-111699999D01*
X163180390Y-111699500D01*
X163180530Y-111699020D01*
X163181652Y-111691222D01*
X163182773Y-111691383D01*
X163200075Y-111632461D01*
X163252879Y-111586706D01*
X163304390Y-111575500D01*
X163368367Y-111575500D01*
X163499561Y-111536978D01*
X163614589Y-111463055D01*
X163704130Y-111359718D01*
X163760931Y-111235342D01*
X163780390Y-111100000D01*
X163760931Y-110964658D01*
X163742591Y-110924500D01*
X163704132Y-110840285D01*
X163704127Y-110840278D01*
X163614590Y-110736946D01*
X163614586Y-110736942D01*
X163499559Y-110663021D01*
X163368368Y-110624500D01*
X163368367Y-110624500D01*
X163231633Y-110624500D01*
X163231632Y-110624500D01*
X163100440Y-110663021D01*
X162985413Y-110736942D01*
X162985409Y-110736946D01*
X162895872Y-110840278D01*
X162895867Y-110840285D01*
X162839070Y-110964654D01*
X162839068Y-110964662D01*
X162819610Y-111100000D01*
X162819610Y-111100500D01*
X162819469Y-111100979D01*
X162818348Y-111108778D01*
X162817226Y-111108616D01*
X162799925Y-111167539D01*
X162747121Y-111213294D01*
X162695610Y-111224500D01*
X162631632Y-111224500D01*
X162500440Y-111263021D01*
X162385413Y-111336942D01*
X162385409Y-111336946D01*
X162295872Y-111440278D01*
X162295867Y-111440285D01*
X162239070Y-111564654D01*
X162239068Y-111564662D01*
X162219610Y-111700000D01*
X162219610Y-111700500D01*
X162219469Y-111700979D01*
X162218348Y-111708778D01*
X162217226Y-111708616D01*
X162199925Y-111767539D01*
X162147121Y-111813294D01*
X162095610Y-111824500D01*
X162031632Y-111824500D01*
X161900440Y-111863021D01*
X161785413Y-111936942D01*
X161785409Y-111936946D01*
X161695872Y-112040278D01*
X161695867Y-112040285D01*
X161639070Y-112164654D01*
X161639068Y-112164662D01*
X161619610Y-112300000D01*
X161111408Y-112300000D01*
X161195855Y-112197100D01*
X161293560Y-112014309D01*
X161353725Y-111815968D01*
X161374041Y-111609701D01*
X161353725Y-111403434D01*
X161293560Y-111205093D01*
X161195855Y-111022302D01*
X161115592Y-110924500D01*
X161064368Y-110862082D01*
X160946445Y-110765307D01*
X160904149Y-110730596D01*
X160793255Y-110671321D01*
X160721361Y-110632892D01*
X160693696Y-110624500D01*
X160523017Y-110572726D01*
X160523015Y-110572725D01*
X160523013Y-110572725D01*
X160345585Y-110555250D01*
X160316750Y-110552410D01*
X160316749Y-110552410D01*
X160110487Y-110572725D01*
X160110484Y-110572725D01*
X159912138Y-110632892D01*
X159776572Y-110705355D01*
X159729351Y-110730596D01*
X159729349Y-110730597D01*
X159729348Y-110730598D01*
X159569131Y-110862082D01*
X159437647Y-111022299D01*
X159339941Y-111205089D01*
X159279774Y-111403435D01*
X159279774Y-111403438D01*
X159259459Y-111609700D01*
X154364040Y-111609700D01*
X154343724Y-111403434D01*
X154283559Y-111205093D01*
X154185854Y-111022302D01*
X154105591Y-110924500D01*
X154054367Y-110862082D01*
X153936444Y-110765307D01*
X153894148Y-110730596D01*
X153783254Y-110671321D01*
X153711360Y-110632892D01*
X153683695Y-110624500D01*
X153513016Y-110572726D01*
X153513014Y-110572725D01*
X153513012Y-110572725D01*
X153335584Y-110555250D01*
X153306749Y-110552410D01*
X153306748Y-110552410D01*
X153100486Y-110572725D01*
X153100483Y-110572725D01*
X152902137Y-110632892D01*
X152766571Y-110705355D01*
X152719350Y-110730596D01*
X152719348Y-110730597D01*
X152719347Y-110730598D01*
X152559130Y-110862082D01*
X152427646Y-111022299D01*
X152329940Y-111205089D01*
X152269773Y-111403435D01*
X152269773Y-111403438D01*
X152249458Y-111609700D01*
X128626973Y-111609700D01*
X128660931Y-111535342D01*
X128680390Y-111400000D01*
X128660931Y-111264658D01*
X128637474Y-111213294D01*
X128604132Y-111140285D01*
X128604127Y-111140278D01*
X128514590Y-111036946D01*
X128514586Y-111036942D01*
X128402113Y-110964662D01*
X128399561Y-110963022D01*
X128399560Y-110963021D01*
X128399559Y-110963021D01*
X128268368Y-110924500D01*
X128268367Y-110924500D01*
X128131633Y-110924500D01*
X128131632Y-110924500D01*
X128000440Y-110963021D01*
X127885413Y-111036942D01*
X127885409Y-111036946D01*
X127795872Y-111140278D01*
X127795867Y-111140285D01*
X127739070Y-111264654D01*
X127739068Y-111264662D01*
X127719610Y-111400000D01*
X127739068Y-111535337D01*
X127739070Y-111535345D01*
X127795867Y-111659714D01*
X127795872Y-111659722D01*
X127890387Y-111768798D01*
X127919412Y-111832353D01*
X127909468Y-111901512D01*
X127890387Y-111931202D01*
X127795872Y-112040277D01*
X127795867Y-112040285D01*
X127739070Y-112164654D01*
X127739068Y-112164662D01*
X127719610Y-112299999D01*
X127739068Y-112435337D01*
X127739070Y-112435345D01*
X127795867Y-112559714D01*
X127795870Y-112559718D01*
X127847062Y-112618798D01*
X127876086Y-112682354D01*
X127866142Y-112751513D01*
X127847062Y-112781202D01*
X127795870Y-112840281D01*
X127795867Y-112840285D01*
X127739070Y-112964654D01*
X127739068Y-112964662D01*
X127719610Y-113099999D01*
X117700500Y-113099999D01*
X117700500Y-112256045D01*
X117720185Y-112189006D01*
X117736819Y-112168364D01*
X119352773Y-110552410D01*
X121905184Y-108000000D01*
X143919610Y-108000000D01*
X143939068Y-108135337D01*
X143939070Y-108135345D01*
X143995867Y-108259714D01*
X143995872Y-108259721D01*
X144085409Y-108363053D01*
X144085413Y-108363057D01*
X144142899Y-108400000D01*
X144200439Y-108436978D01*
X144266035Y-108456238D01*
X144331632Y-108475500D01*
X144331633Y-108475500D01*
X144468367Y-108475500D01*
X144599561Y-108436978D01*
X144657101Y-108400000D01*
X180419610Y-108400000D01*
X180439068Y-108535337D01*
X180439070Y-108535345D01*
X180495867Y-108659714D01*
X180495872Y-108659721D01*
X180585409Y-108763053D01*
X180585413Y-108763057D01*
X180645979Y-108801979D01*
X180700439Y-108836978D01*
X180766035Y-108856238D01*
X180831632Y-108875500D01*
X180831633Y-108875500D01*
X180968367Y-108875500D01*
X181099561Y-108836978D01*
X181214589Y-108763055D01*
X181304130Y-108659718D01*
X181360931Y-108535342D01*
X181380390Y-108400000D01*
X181360931Y-108264658D01*
X181348677Y-108237827D01*
X181304132Y-108140285D01*
X181304127Y-108140278D01*
X181214590Y-108036946D01*
X181214586Y-108036942D01*
X181099559Y-107963021D01*
X180968368Y-107924500D01*
X180968367Y-107924500D01*
X180831633Y-107924500D01*
X180831632Y-107924500D01*
X180700440Y-107963021D01*
X180585413Y-108036942D01*
X180585409Y-108036946D01*
X180495872Y-108140278D01*
X180495867Y-108140285D01*
X180439070Y-108264654D01*
X180439068Y-108264662D01*
X180419610Y-108400000D01*
X144657101Y-108400000D01*
X144714589Y-108363055D01*
X144804130Y-108259718D01*
X144860931Y-108135342D01*
X144880390Y-108000000D01*
X144860931Y-107864658D01*
X144848677Y-107837827D01*
X144804132Y-107740285D01*
X144804127Y-107740278D01*
X144714590Y-107636946D01*
X144714586Y-107636942D01*
X144599559Y-107563021D01*
X144468368Y-107524500D01*
X144468367Y-107524500D01*
X144331633Y-107524500D01*
X144331632Y-107524500D01*
X144200440Y-107563021D01*
X144085413Y-107636942D01*
X144085409Y-107636946D01*
X143995872Y-107740278D01*
X143995867Y-107740285D01*
X143939070Y-107864654D01*
X143939068Y-107864662D01*
X143919610Y-108000000D01*
X121905184Y-108000000D01*
X123205184Y-106700000D01*
X160819610Y-106700000D01*
X160839068Y-106835337D01*
X160839070Y-106835345D01*
X160895867Y-106959714D01*
X160895872Y-106959721D01*
X160985409Y-107063053D01*
X160985413Y-107063057D01*
X161045979Y-107101979D01*
X161100439Y-107136978D01*
X161166035Y-107156238D01*
X161231632Y-107175500D01*
X161231633Y-107175500D01*
X161368367Y-107175500D01*
X161499561Y-107136978D01*
X161614589Y-107063055D01*
X161704130Y-106959718D01*
X161760931Y-106835342D01*
X161780390Y-106700000D01*
X161760931Y-106564658D01*
X161748677Y-106537827D01*
X161704132Y-106440285D01*
X161704127Y-106440278D01*
X161614590Y-106336946D01*
X161614586Y-106336942D01*
X161499559Y-106263021D01*
X161368368Y-106224500D01*
X161368367Y-106224500D01*
X161231633Y-106224500D01*
X161231632Y-106224500D01*
X161100440Y-106263021D01*
X160985413Y-106336942D01*
X160985409Y-106336946D01*
X160895872Y-106440278D01*
X160895867Y-106440285D01*
X160839070Y-106564654D01*
X160839068Y-106564662D01*
X160819610Y-106700000D01*
X123205184Y-106700000D01*
X123267599Y-106637585D01*
X123267599Y-104699999D01*
X130419610Y-104699999D01*
X130439068Y-104835337D01*
X130439070Y-104835345D01*
X130495867Y-104959714D01*
X130495872Y-104959721D01*
X130585409Y-105063053D01*
X130585413Y-105063057D01*
X130645979Y-105101979D01*
X130700439Y-105136978D01*
X130766035Y-105156238D01*
X130831632Y-105175500D01*
X130831633Y-105175500D01*
X130968367Y-105175500D01*
X131099561Y-105136978D01*
X131214589Y-105063055D01*
X131304130Y-104959718D01*
X131331402Y-104900000D01*
X161219610Y-104900000D01*
X161239068Y-105035337D01*
X161239070Y-105035345D01*
X161295867Y-105159714D01*
X161295872Y-105159721D01*
X161385409Y-105263053D01*
X161385413Y-105263057D01*
X161445979Y-105301979D01*
X161500439Y-105336978D01*
X161566035Y-105356238D01*
X161631632Y-105375500D01*
X161631633Y-105375500D01*
X161768367Y-105375500D01*
X161899561Y-105336978D01*
X162014589Y-105263055D01*
X162104130Y-105159718D01*
X162160931Y-105035342D01*
X162180390Y-104900000D01*
X162160931Y-104764658D01*
X162148677Y-104737827D01*
X162104132Y-104640285D01*
X162104127Y-104640278D01*
X162014590Y-104536946D01*
X162014586Y-104536942D01*
X161899559Y-104463021D01*
X161768368Y-104424500D01*
X161768367Y-104424500D01*
X161631633Y-104424500D01*
X161631632Y-104424500D01*
X161500440Y-104463021D01*
X161385413Y-104536942D01*
X161385409Y-104536946D01*
X161295872Y-104640278D01*
X161295867Y-104640285D01*
X161239070Y-104764654D01*
X161239068Y-104764662D01*
X161219610Y-104900000D01*
X131331402Y-104900000D01*
X131360931Y-104835342D01*
X131380390Y-104700000D01*
X131360931Y-104564658D01*
X131348273Y-104536942D01*
X131304132Y-104440285D01*
X131304127Y-104440278D01*
X131214590Y-104336946D01*
X131214586Y-104336942D01*
X131099559Y-104263021D01*
X130968368Y-104224500D01*
X130968367Y-104224500D01*
X130831633Y-104224500D01*
X130831632Y-104224500D01*
X130700440Y-104263021D01*
X130585413Y-104336942D01*
X130585409Y-104336946D01*
X130495872Y-104440278D01*
X130495867Y-104440285D01*
X130439070Y-104564654D01*
X130439068Y-104564662D01*
X130419610Y-104699999D01*
X123267599Y-104699999D01*
X123267599Y-104100000D01*
X168101227Y-104100000D01*
X168120685Y-104235337D01*
X168120687Y-104235345D01*
X168177484Y-104359714D01*
X168177489Y-104359721D01*
X168267026Y-104463053D01*
X168267030Y-104463057D01*
X168327596Y-104501979D01*
X168382056Y-104536978D01*
X168447653Y-104556238D01*
X168513249Y-104575500D01*
X168513250Y-104575500D01*
X168649984Y-104575500D01*
X168781178Y-104536978D01*
X168896206Y-104463055D01*
X168985747Y-104359718D01*
X169042548Y-104235342D01*
X169062007Y-104100000D01*
X169042548Y-103964658D01*
X169029907Y-103936978D01*
X168985749Y-103840285D01*
X168985744Y-103840278D01*
X168896207Y-103736946D01*
X168896203Y-103736942D01*
X168781176Y-103663021D01*
X168649985Y-103624500D01*
X168649984Y-103624500D01*
X168513250Y-103624500D01*
X168513249Y-103624500D01*
X168382057Y-103663021D01*
X168267030Y-103736942D01*
X168267026Y-103736946D01*
X168177489Y-103840278D01*
X168177484Y-103840285D01*
X168120687Y-103964654D01*
X168120685Y-103964662D01*
X168101227Y-104100000D01*
X123267599Y-104100000D01*
X123267599Y-103099999D01*
X160119610Y-103099999D01*
X160139068Y-103235337D01*
X160139070Y-103235345D01*
X160195867Y-103359714D01*
X160195872Y-103359721D01*
X160285409Y-103463053D01*
X160285413Y-103463057D01*
X160342890Y-103499994D01*
X160400439Y-103536978D01*
X160466035Y-103556238D01*
X160531632Y-103575500D01*
X160531633Y-103575500D01*
X160668367Y-103575500D01*
X160799561Y-103536978D01*
X160914589Y-103463055D01*
X160988070Y-103378252D01*
X161046844Y-103340480D01*
X161116713Y-103340479D01*
X161175492Y-103378253D01*
X161204518Y-103441809D01*
X161204518Y-103477100D01*
X161201227Y-103499994D01*
X161201227Y-103499999D01*
X161220685Y-103635337D01*
X161220687Y-103635345D01*
X161277484Y-103759714D01*
X161277489Y-103759721D01*
X161367026Y-103863053D01*
X161367030Y-103863057D01*
X161427596Y-103901979D01*
X161482056Y-103936978D01*
X161547653Y-103956238D01*
X161613249Y-103975500D01*
X161613250Y-103975500D01*
X161749984Y-103975500D01*
X161881178Y-103936978D01*
X161996206Y-103863055D01*
X162085747Y-103759718D01*
X162142548Y-103635342D01*
X162162007Y-103500000D01*
X169601227Y-103500000D01*
X169620685Y-103635337D01*
X169620687Y-103635345D01*
X169677484Y-103759714D01*
X169677489Y-103759721D01*
X169767026Y-103863053D01*
X169767030Y-103863057D01*
X169827596Y-103901979D01*
X169882056Y-103936978D01*
X169947653Y-103956238D01*
X170013249Y-103975500D01*
X170013250Y-103975500D01*
X170149984Y-103975500D01*
X170281178Y-103936978D01*
X170396206Y-103863055D01*
X170485747Y-103759718D01*
X170542548Y-103635342D01*
X170562007Y-103500000D01*
X170542548Y-103364658D01*
X170530294Y-103337827D01*
X170485749Y-103240285D01*
X170485744Y-103240278D01*
X170396207Y-103136946D01*
X170396203Y-103136942D01*
X170281176Y-103063021D01*
X170149985Y-103024500D01*
X170149984Y-103024500D01*
X170013250Y-103024500D01*
X170013249Y-103024500D01*
X169882057Y-103063021D01*
X169767030Y-103136942D01*
X169767026Y-103136946D01*
X169677489Y-103240278D01*
X169677484Y-103240285D01*
X169620687Y-103364654D01*
X169620685Y-103364662D01*
X169601227Y-103500000D01*
X162162007Y-103500000D01*
X162142548Y-103364658D01*
X162130294Y-103337827D01*
X162085749Y-103240285D01*
X162085744Y-103240278D01*
X161996207Y-103136946D01*
X161996203Y-103136942D01*
X161881176Y-103063021D01*
X161749985Y-103024500D01*
X161749984Y-103024500D01*
X161613250Y-103024500D01*
X161613249Y-103024500D01*
X161482057Y-103063021D01*
X161367030Y-103136942D01*
X161367030Y-103136943D01*
X161293549Y-103221745D01*
X161234771Y-103259519D01*
X161164901Y-103259519D01*
X161106123Y-103221745D01*
X161077098Y-103158189D01*
X161077098Y-103122895D01*
X161080390Y-103100000D01*
X161066012Y-103000000D01*
X172101227Y-103000000D01*
X172120685Y-103135337D01*
X172120687Y-103135345D01*
X172177484Y-103259714D01*
X172177489Y-103259721D01*
X172267026Y-103363053D01*
X172267030Y-103363057D01*
X172327596Y-103401979D01*
X172382056Y-103436978D01*
X172447653Y-103456238D01*
X172513249Y-103475500D01*
X172513250Y-103475500D01*
X172649984Y-103475500D01*
X172781178Y-103436978D01*
X172896206Y-103363055D01*
X172896213Y-103363046D01*
X172900411Y-103359410D01*
X172963966Y-103330384D01*
X173033125Y-103340325D01*
X173062823Y-103359410D01*
X173067023Y-103363050D01*
X173067028Y-103363055D01*
X173067033Y-103363058D01*
X173067034Y-103363059D01*
X173088099Y-103376596D01*
X173182056Y-103436978D01*
X173247653Y-103456238D01*
X173313249Y-103475500D01*
X173313250Y-103475500D01*
X173449984Y-103475500D01*
X173581178Y-103436978D01*
X173667478Y-103381517D01*
X179106117Y-103381517D01*
X179114901Y-103436978D01*
X179120971Y-103475304D01*
X179178567Y-103588342D01*
X179178569Y-103588344D01*
X179178571Y-103588347D01*
X179268269Y-103678045D01*
X179268271Y-103678046D01*
X179268275Y-103678050D01*
X179381311Y-103735645D01*
X179381315Y-103735647D01*
X179475092Y-103750499D01*
X179475098Y-103750500D01*
X180788135Y-103750499D01*
X180881921Y-103735646D01*
X180994959Y-103678050D01*
X181084667Y-103588342D01*
X181142263Y-103475304D01*
X181142263Y-103475302D01*
X181142264Y-103475301D01*
X181157116Y-103381524D01*
X181157117Y-103381519D01*
X181157116Y-102618482D01*
X181142263Y-102524696D01*
X181084667Y-102411658D01*
X181084663Y-102411654D01*
X181084662Y-102411652D01*
X180994964Y-102321954D01*
X180994961Y-102321952D01*
X180994959Y-102321950D01*
X180918134Y-102282805D01*
X180881918Y-102264352D01*
X180788141Y-102249500D01*
X179475099Y-102249500D01*
X179394136Y-102262323D01*
X179381313Y-102264354D01*
X179268275Y-102321950D01*
X179268273Y-102321951D01*
X179268274Y-102321951D01*
X179268269Y-102321954D01*
X179178571Y-102411652D01*
X179178568Y-102411657D01*
X179178567Y-102411658D01*
X179159368Y-102449337D01*
X179120969Y-102524698D01*
X179106117Y-102618475D01*
X179106117Y-103381517D01*
X173667478Y-103381517D01*
X173696206Y-103363055D01*
X173785747Y-103259718D01*
X173842548Y-103135342D01*
X173862007Y-103000000D01*
X173859636Y-102983510D01*
X173869577Y-102914354D01*
X173915331Y-102861548D01*
X173947439Y-102846885D01*
X173981175Y-102836979D01*
X173981176Y-102836979D01*
X174096203Y-102763057D01*
X174096203Y-102763056D01*
X174096206Y-102763055D01*
X174096208Y-102763052D01*
X174100659Y-102759196D01*
X174164214Y-102730169D01*
X174233373Y-102740110D01*
X174263067Y-102759192D01*
X174267527Y-102763057D01*
X174328093Y-102801979D01*
X174382553Y-102836978D01*
X174448150Y-102856238D01*
X174513746Y-102875500D01*
X174513747Y-102875500D01*
X174650481Y-102875500D01*
X174781675Y-102836978D01*
X174896703Y-102763055D01*
X174986244Y-102659718D01*
X175043045Y-102535342D01*
X175062504Y-102400000D01*
X175043045Y-102264658D01*
X175029654Y-102235337D01*
X174986246Y-102140285D01*
X174986241Y-102140278D01*
X174896704Y-102036946D01*
X174896700Y-102036942D01*
X174784227Y-101964662D01*
X174781675Y-101963022D01*
X174781674Y-101963021D01*
X174781673Y-101963021D01*
X174650482Y-101924500D01*
X174650481Y-101924500D01*
X174513747Y-101924500D01*
X174513746Y-101924500D01*
X174382554Y-101963021D01*
X174267523Y-102036945D01*
X174263062Y-102040811D01*
X174199505Y-102069832D01*
X174130347Y-102059884D01*
X174100664Y-102040807D01*
X174096207Y-102036945D01*
X173983730Y-101964662D01*
X173981178Y-101963022D01*
X173981177Y-101963021D01*
X173981176Y-101963021D01*
X173849985Y-101924500D01*
X173849984Y-101924500D01*
X173713250Y-101924500D01*
X173713249Y-101924500D01*
X173582057Y-101963021D01*
X173467030Y-102036942D01*
X173462818Y-102040593D01*
X173399261Y-102069616D01*
X173330103Y-102059671D01*
X173300416Y-102040593D01*
X173296203Y-102036942D01*
X173183730Y-101964662D01*
X173181178Y-101963022D01*
X173181177Y-101963021D01*
X173181176Y-101963021D01*
X173049985Y-101924500D01*
X173049984Y-101924500D01*
X172913250Y-101924500D01*
X172913249Y-101924500D01*
X172782057Y-101963021D01*
X172667030Y-102036942D01*
X172667026Y-102036946D01*
X172577489Y-102140278D01*
X172577484Y-102140285D01*
X172520687Y-102264654D01*
X172520685Y-102264662D01*
X172501227Y-102400000D01*
X172503598Y-102416491D01*
X172493654Y-102485649D01*
X172447899Y-102538453D01*
X172415797Y-102553113D01*
X172382061Y-102563019D01*
X172382057Y-102563020D01*
X172267030Y-102636942D01*
X172267026Y-102636946D01*
X172177489Y-102740278D01*
X172177484Y-102740285D01*
X172120687Y-102864654D01*
X172120685Y-102864662D01*
X172101227Y-103000000D01*
X161066012Y-103000000D01*
X161060931Y-102964658D01*
X161020214Y-102875500D01*
X161004132Y-102840285D01*
X161004127Y-102840278D01*
X160914590Y-102736946D01*
X160914586Y-102736942D01*
X160799559Y-102663021D01*
X160668368Y-102624500D01*
X160668367Y-102624500D01*
X160531633Y-102624500D01*
X160531632Y-102624500D01*
X160400440Y-102663021D01*
X160285413Y-102736942D01*
X160285409Y-102736946D01*
X160195872Y-102840278D01*
X160195867Y-102840285D01*
X160139070Y-102964654D01*
X160139068Y-102964662D01*
X160119610Y-103099999D01*
X123267599Y-103099999D01*
X123267599Y-102100000D01*
X148519610Y-102100000D01*
X148539068Y-102235337D01*
X148539070Y-102235345D01*
X148595867Y-102359714D01*
X148595872Y-102359721D01*
X148685409Y-102463053D01*
X148685413Y-102463057D01*
X148720568Y-102485649D01*
X148800439Y-102536978D01*
X148855390Y-102553113D01*
X148931632Y-102575500D01*
X148931633Y-102575500D01*
X149068367Y-102575500D01*
X149199561Y-102536978D01*
X149314589Y-102463055D01*
X149404130Y-102359718D01*
X149460931Y-102235342D01*
X149480390Y-102100000D01*
X149460931Y-101964658D01*
X149442591Y-101924500D01*
X149404132Y-101840285D01*
X149404127Y-101840278D01*
X149314590Y-101736946D01*
X149314586Y-101736942D01*
X149199559Y-101663021D01*
X149068368Y-101624500D01*
X149068367Y-101624500D01*
X148931633Y-101624500D01*
X148931632Y-101624500D01*
X148800440Y-101663021D01*
X148685413Y-101736942D01*
X148685409Y-101736946D01*
X148595872Y-101840278D01*
X148595867Y-101840285D01*
X148539070Y-101964654D01*
X148539068Y-101964662D01*
X148519610Y-102100000D01*
X123267599Y-102100000D01*
X123267599Y-101200000D01*
X143919610Y-101200000D01*
X143939068Y-101335337D01*
X143939070Y-101335345D01*
X143995867Y-101459714D01*
X143995872Y-101459721D01*
X144085409Y-101563053D01*
X144085413Y-101563057D01*
X144145979Y-101601979D01*
X144200439Y-101636978D01*
X144266035Y-101656238D01*
X144331632Y-101675500D01*
X144331633Y-101675500D01*
X144468367Y-101675500D01*
X144599561Y-101636978D01*
X144714589Y-101563055D01*
X144804130Y-101459718D01*
X144808011Y-101451221D01*
X144816383Y-101432887D01*
X144860931Y-101335342D01*
X144880390Y-101200000D01*
X160719610Y-101200000D01*
X160739068Y-101335337D01*
X160739070Y-101335345D01*
X160795867Y-101459714D01*
X160795872Y-101459721D01*
X160885409Y-101563053D01*
X160885413Y-101563057D01*
X160945979Y-101601979D01*
X161000439Y-101636978D01*
X161066035Y-101656238D01*
X161131632Y-101675500D01*
X161131633Y-101675500D01*
X161268367Y-101675500D01*
X161399561Y-101636978D01*
X161514589Y-101563055D01*
X161604130Y-101459718D01*
X161608011Y-101451221D01*
X161616383Y-101432887D01*
X161660931Y-101335342D01*
X161680390Y-101200000D01*
X161660931Y-101064658D01*
X161651466Y-101043933D01*
X179102285Y-101043933D01*
X179117675Y-101131210D01*
X179132752Y-101216711D01*
X179202240Y-101377804D01*
X179202241Y-101377806D01*
X179202243Y-101377809D01*
X179256895Y-101451218D01*
X179307007Y-101518530D01*
X179441403Y-101631302D01*
X179504561Y-101663021D01*
X179598179Y-101710038D01*
X179598180Y-101710038D01*
X179598184Y-101710040D01*
X179768896Y-101750500D01*
X179768899Y-101750500D01*
X180450318Y-101750500D01*
X180450326Y-101750500D01*
X180580872Y-101735241D01*
X180745734Y-101675237D01*
X180892313Y-101578830D01*
X181012709Y-101451218D01*
X181100429Y-101299281D01*
X181150747Y-101131210D01*
X181160948Y-100956065D01*
X181130482Y-100783289D01*
X181060994Y-100622196D01*
X180956227Y-100481470D01*
X180884364Y-100421170D01*
X180821831Y-100368698D01*
X180821829Y-100368697D01*
X180665054Y-100289961D01*
X180665050Y-100289960D01*
X180494338Y-100249500D01*
X179812908Y-100249500D01*
X179708471Y-100261707D01*
X179682360Y-100264759D01*
X179682357Y-100264760D01*
X179517501Y-100324762D01*
X179517497Y-100324764D01*
X179370923Y-100421167D01*
X179370922Y-100421168D01*
X179250527Y-100548778D01*
X179162805Y-100700718D01*
X179112487Y-100868789D01*
X179112486Y-100868794D01*
X179102285Y-101043933D01*
X161651466Y-101043933D01*
X161611338Y-100956065D01*
X161604132Y-100940285D01*
X161604127Y-100940278D01*
X161514590Y-100836946D01*
X161514586Y-100836942D01*
X161399559Y-100763021D01*
X161268368Y-100724500D01*
X161268367Y-100724500D01*
X161131633Y-100724500D01*
X161131632Y-100724500D01*
X161000440Y-100763021D01*
X160885413Y-100836942D01*
X160885409Y-100836946D01*
X160795872Y-100940278D01*
X160795867Y-100940285D01*
X160739070Y-101064654D01*
X160739068Y-101064662D01*
X160719610Y-101200000D01*
X144880390Y-101200000D01*
X144860931Y-101064658D01*
X144811338Y-100956065D01*
X144804132Y-100940285D01*
X144804127Y-100940278D01*
X144714590Y-100836946D01*
X144714586Y-100836942D01*
X144599559Y-100763021D01*
X144468368Y-100724500D01*
X144468367Y-100724500D01*
X144331633Y-100724500D01*
X144331632Y-100724500D01*
X144200440Y-100763021D01*
X144085413Y-100836942D01*
X144085409Y-100836946D01*
X143995872Y-100940278D01*
X143995867Y-100940285D01*
X143939070Y-101064654D01*
X143939068Y-101064662D01*
X143919610Y-101200000D01*
X123267599Y-101200000D01*
X123267599Y-100400000D01*
X146819610Y-100400000D01*
X146839068Y-100535337D01*
X146839070Y-100535345D01*
X146895867Y-100659714D01*
X146895872Y-100659721D01*
X146985409Y-100763053D01*
X146985413Y-100763057D01*
X147016893Y-100783287D01*
X147100439Y-100836978D01*
X147166035Y-100856238D01*
X147231632Y-100875500D01*
X147231633Y-100875500D01*
X147368367Y-100875500D01*
X147499561Y-100836978D01*
X147614589Y-100763055D01*
X147704130Y-100659718D01*
X147760931Y-100535342D01*
X147780390Y-100400000D01*
X147760931Y-100264658D01*
X147748677Y-100237827D01*
X147704132Y-100140285D01*
X147704127Y-100140278D01*
X147614590Y-100036946D01*
X147614586Y-100036942D01*
X147499559Y-99963021D01*
X147368368Y-99924500D01*
X147368367Y-99924500D01*
X147231633Y-99924500D01*
X147231632Y-99924500D01*
X147100440Y-99963021D01*
X146985413Y-100036942D01*
X146985409Y-100036946D01*
X146895872Y-100140278D01*
X146895867Y-100140285D01*
X146839070Y-100264654D01*
X146839068Y-100264662D01*
X146819610Y-100400000D01*
X123267599Y-100400000D01*
X123267599Y-99600000D01*
X136919610Y-99600000D01*
X136939068Y-99735337D01*
X136939070Y-99735345D01*
X136995867Y-99859714D01*
X136995872Y-99859721D01*
X137085409Y-99963053D01*
X137085413Y-99963057D01*
X137145979Y-100001979D01*
X137200439Y-100036978D01*
X137266035Y-100056238D01*
X137331632Y-100075500D01*
X137331633Y-100075500D01*
X137468367Y-100075500D01*
X137599561Y-100036978D01*
X137714589Y-99963055D01*
X137804130Y-99859718D01*
X137860931Y-99735342D01*
X137880390Y-99600000D01*
X137860931Y-99464658D01*
X137848677Y-99437827D01*
X137804132Y-99340285D01*
X137804127Y-99340278D01*
X137714590Y-99236946D01*
X137714586Y-99236942D01*
X137657101Y-99200000D01*
X145919610Y-99200000D01*
X145939068Y-99335337D01*
X145939070Y-99335345D01*
X145995867Y-99459714D01*
X145995872Y-99459721D01*
X146085409Y-99563053D01*
X146085413Y-99563057D01*
X146142899Y-99600000D01*
X146200439Y-99636978D01*
X146266035Y-99656238D01*
X146331632Y-99675500D01*
X146331633Y-99675500D01*
X146468367Y-99675500D01*
X146599561Y-99636978D01*
X146714589Y-99563055D01*
X146804130Y-99459718D01*
X146808011Y-99451221D01*
X146816383Y-99432887D01*
X146860931Y-99335342D01*
X146880390Y-99200000D01*
X146860931Y-99064658D01*
X146851466Y-99043933D01*
X179102285Y-99043933D01*
X179123285Y-99163022D01*
X179132752Y-99216711D01*
X179202240Y-99377804D01*
X179202241Y-99377806D01*
X179202243Y-99377809D01*
X179307007Y-99518529D01*
X179307007Y-99518530D01*
X179441403Y-99631302D01*
X179519105Y-99670325D01*
X179598179Y-99710038D01*
X179598180Y-99710038D01*
X179598184Y-99710040D01*
X179768896Y-99750500D01*
X179768899Y-99750500D01*
X180450318Y-99750500D01*
X180450326Y-99750500D01*
X180580872Y-99735241D01*
X180745734Y-99675237D01*
X180892313Y-99578830D01*
X181012709Y-99451218D01*
X181100429Y-99299281D01*
X181150747Y-99131210D01*
X181160948Y-98956065D01*
X181130482Y-98783289D01*
X181060994Y-98622196D01*
X180956227Y-98481470D01*
X180884364Y-98421170D01*
X180821831Y-98368698D01*
X180821829Y-98368697D01*
X180665054Y-98289961D01*
X180665050Y-98289960D01*
X180494338Y-98249500D01*
X179812908Y-98249500D01*
X179708471Y-98261707D01*
X179682360Y-98264759D01*
X179682357Y-98264760D01*
X179517501Y-98324762D01*
X179517497Y-98324764D01*
X179370923Y-98421167D01*
X179370922Y-98421168D01*
X179250527Y-98548778D01*
X179162805Y-98700718D01*
X179112487Y-98868789D01*
X179112486Y-98868794D01*
X179102285Y-99043933D01*
X146851466Y-99043933D01*
X146811338Y-98956065D01*
X146804132Y-98940285D01*
X146804127Y-98940278D01*
X146714590Y-98836946D01*
X146714586Y-98836942D01*
X146599559Y-98763021D01*
X146468368Y-98724500D01*
X146468367Y-98724500D01*
X146331633Y-98724500D01*
X146331632Y-98724500D01*
X146200440Y-98763021D01*
X146085413Y-98836942D01*
X146085409Y-98836946D01*
X145995872Y-98940278D01*
X145995867Y-98940285D01*
X145939070Y-99064654D01*
X145939068Y-99064662D01*
X145919610Y-99200000D01*
X137657101Y-99200000D01*
X137599559Y-99163021D01*
X137468368Y-99124500D01*
X137468367Y-99124500D01*
X137331633Y-99124500D01*
X137331632Y-99124500D01*
X137200440Y-99163021D01*
X137085413Y-99236942D01*
X137085409Y-99236946D01*
X136995872Y-99340278D01*
X136995867Y-99340285D01*
X136939070Y-99464654D01*
X136939068Y-99464662D01*
X136919610Y-99600000D01*
X123267599Y-99600000D01*
X123267599Y-97800000D01*
X154919610Y-97800000D01*
X154939068Y-97935337D01*
X154939070Y-97935345D01*
X154995867Y-98059714D01*
X154995872Y-98059721D01*
X155085409Y-98163053D01*
X155085413Y-98163057D01*
X155145979Y-98201979D01*
X155200439Y-98236978D01*
X155243085Y-98249500D01*
X155331632Y-98275500D01*
X155331633Y-98275500D01*
X155468367Y-98275500D01*
X155599561Y-98236978D01*
X155714589Y-98163055D01*
X155804130Y-98059718D01*
X155860931Y-97935342D01*
X155880390Y-97800000D01*
X155860931Y-97664658D01*
X155845697Y-97631301D01*
X155804132Y-97540285D01*
X155804127Y-97540278D01*
X155714590Y-97436946D01*
X155714586Y-97436942D01*
X155599559Y-97363021D01*
X155468368Y-97324500D01*
X155468367Y-97324500D01*
X155331633Y-97324500D01*
X155331632Y-97324500D01*
X155200440Y-97363021D01*
X155085413Y-97436942D01*
X155085409Y-97436946D01*
X154995872Y-97540278D01*
X154995867Y-97540285D01*
X154939070Y-97664654D01*
X154939068Y-97664662D01*
X154919610Y-97800000D01*
X123267599Y-97800000D01*
X123267599Y-96949999D01*
X172101227Y-96949999D01*
X172120685Y-97085337D01*
X172120687Y-97085345D01*
X172177484Y-97209714D01*
X172177489Y-97209721D01*
X172267026Y-97313053D01*
X172267030Y-97313057D01*
X172382058Y-97386979D01*
X172415794Y-97396885D01*
X172474573Y-97434659D01*
X172503598Y-97498215D01*
X172503598Y-97533508D01*
X172501227Y-97549999D01*
X172520685Y-97685337D01*
X172520687Y-97685345D01*
X172577484Y-97809714D01*
X172577489Y-97809721D01*
X172667026Y-97913053D01*
X172667030Y-97913057D01*
X172701712Y-97935345D01*
X172782056Y-97986978D01*
X172847653Y-98006238D01*
X172913249Y-98025500D01*
X172913250Y-98025500D01*
X173049984Y-98025500D01*
X173181178Y-97986978D01*
X173296206Y-97913055D01*
X173296213Y-97913046D01*
X173300411Y-97909410D01*
X173363966Y-97880384D01*
X173433125Y-97890325D01*
X173462823Y-97909410D01*
X173467023Y-97913050D01*
X173467028Y-97913055D01*
X173582056Y-97986978D01*
X173647653Y-98006238D01*
X173713249Y-98025500D01*
X173713250Y-98025500D01*
X173849984Y-98025500D01*
X173981178Y-97986978D01*
X174096206Y-97913055D01*
X174096208Y-97913052D01*
X174100659Y-97909196D01*
X174164214Y-97880169D01*
X174233373Y-97890110D01*
X174263067Y-97909192D01*
X174267527Y-97913057D01*
X174302209Y-97935345D01*
X174382553Y-97986978D01*
X174448150Y-98006238D01*
X174513746Y-98025500D01*
X174513747Y-98025500D01*
X174650481Y-98025500D01*
X174781675Y-97986978D01*
X174896703Y-97913055D01*
X174986244Y-97809718D01*
X175043045Y-97685342D01*
X175062504Y-97550000D01*
X175043045Y-97414658D01*
X175026213Y-97377801D01*
X174986246Y-97290285D01*
X174986241Y-97290278D01*
X174896704Y-97186946D01*
X174896700Y-97186942D01*
X174781673Y-97113021D01*
X174650482Y-97074500D01*
X174650481Y-97074500D01*
X174513747Y-97074500D01*
X174513746Y-97074500D01*
X174382554Y-97113021D01*
X174267523Y-97186945D01*
X174263062Y-97190811D01*
X174199505Y-97219832D01*
X174130347Y-97209884D01*
X174100664Y-97190807D01*
X174096207Y-97186945D01*
X173981176Y-97113021D01*
X173947437Y-97103114D01*
X173888659Y-97065339D01*
X173878884Y-97043933D01*
X179102285Y-97043933D01*
X179117675Y-97131210D01*
X179132752Y-97216711D01*
X179202240Y-97377804D01*
X179202241Y-97377806D01*
X179202243Y-97377809D01*
X179256895Y-97451218D01*
X179307007Y-97518530D01*
X179441403Y-97631302D01*
X179507813Y-97664654D01*
X179598179Y-97710038D01*
X179598180Y-97710038D01*
X179598184Y-97710040D01*
X179768896Y-97750500D01*
X179768899Y-97750500D01*
X180450318Y-97750500D01*
X180450326Y-97750500D01*
X180580872Y-97735241D01*
X180745734Y-97675237D01*
X180892313Y-97578830D01*
X181012709Y-97451218D01*
X181100429Y-97299281D01*
X181150747Y-97131210D01*
X181160948Y-96956065D01*
X181130482Y-96783289D01*
X181060994Y-96622196D01*
X181037463Y-96590589D01*
X180956226Y-96481469D01*
X180821831Y-96368698D01*
X180821829Y-96368697D01*
X180665054Y-96289961D01*
X180665050Y-96289960D01*
X180494338Y-96249500D01*
X179812908Y-96249500D01*
X179708471Y-96261707D01*
X179682360Y-96264759D01*
X179682357Y-96264760D01*
X179517501Y-96324762D01*
X179517497Y-96324764D01*
X179370923Y-96421167D01*
X179370922Y-96421168D01*
X179250527Y-96548778D01*
X179162805Y-96700718D01*
X179112487Y-96868789D01*
X179112486Y-96868794D01*
X179102285Y-97043933D01*
X173878884Y-97043933D01*
X173859635Y-97001783D01*
X173859635Y-96966491D01*
X173862007Y-96950000D01*
X173842548Y-96814658D01*
X173828221Y-96783287D01*
X173785749Y-96690285D01*
X173785744Y-96690278D01*
X173696207Y-96586946D01*
X173696203Y-96586942D01*
X173581176Y-96513021D01*
X173449985Y-96474500D01*
X173449984Y-96474500D01*
X173313250Y-96474500D01*
X173313249Y-96474500D01*
X173182057Y-96513021D01*
X173067022Y-96586948D01*
X173062812Y-96590596D01*
X172999255Y-96619617D01*
X172930097Y-96609669D01*
X172900411Y-96590589D01*
X172896203Y-96586942D01*
X172781176Y-96513021D01*
X172649985Y-96474500D01*
X172649984Y-96474500D01*
X172513250Y-96474500D01*
X172513249Y-96474500D01*
X172382057Y-96513021D01*
X172267030Y-96586942D01*
X172267026Y-96586946D01*
X172177489Y-96690278D01*
X172177484Y-96690285D01*
X172120687Y-96814654D01*
X172120685Y-96814662D01*
X172101227Y-96949999D01*
X123267599Y-96949999D01*
X123267599Y-95399999D01*
X131119610Y-95399999D01*
X131139068Y-95535337D01*
X131139070Y-95535345D01*
X131195867Y-95659714D01*
X131195872Y-95659721D01*
X131285409Y-95763053D01*
X131285413Y-95763057D01*
X131345979Y-95801979D01*
X131400439Y-95836978D01*
X131466035Y-95856238D01*
X131531632Y-95875500D01*
X131531633Y-95875500D01*
X131668367Y-95875500D01*
X131799561Y-95836978D01*
X131914589Y-95763055D01*
X132004130Y-95659718D01*
X132060931Y-95535342D01*
X132080390Y-95400000D01*
X132080390Y-95399999D01*
X132819610Y-95399999D01*
X132839068Y-95535337D01*
X132839070Y-95535345D01*
X132895867Y-95659714D01*
X132895872Y-95659721D01*
X132985409Y-95763053D01*
X132985413Y-95763057D01*
X133045979Y-95801979D01*
X133100439Y-95836978D01*
X133166035Y-95856238D01*
X133231632Y-95875500D01*
X133231633Y-95875500D01*
X133368367Y-95875500D01*
X133499561Y-95836978D01*
X133614589Y-95763055D01*
X133704130Y-95659718D01*
X133760931Y-95535342D01*
X133780390Y-95400000D01*
X133760931Y-95264658D01*
X133742119Y-95223465D01*
X133731403Y-95200000D01*
X143119610Y-95200000D01*
X143139068Y-95335337D01*
X143139070Y-95335345D01*
X143195867Y-95459714D01*
X143195872Y-95459721D01*
X143285409Y-95563053D01*
X143285413Y-95563057D01*
X143342899Y-95600000D01*
X143400439Y-95636978D01*
X143466035Y-95656238D01*
X143531632Y-95675500D01*
X143531633Y-95675500D01*
X143668367Y-95675500D01*
X143799561Y-95636978D01*
X143857101Y-95600000D01*
X168719610Y-95600000D01*
X168739068Y-95735337D01*
X168739070Y-95735345D01*
X168795867Y-95859714D01*
X168795872Y-95859721D01*
X168885409Y-95963053D01*
X168885413Y-95963057D01*
X168945979Y-96001979D01*
X169000439Y-96036978D01*
X169066035Y-96056238D01*
X169131632Y-96075500D01*
X169131633Y-96075500D01*
X169268367Y-96075500D01*
X169399561Y-96036978D01*
X169514589Y-95963055D01*
X169604130Y-95859718D01*
X169660931Y-95735342D01*
X169680390Y-95600000D01*
X169660931Y-95464658D01*
X169648677Y-95437827D01*
X169604132Y-95340285D01*
X169604127Y-95340278D01*
X169514590Y-95236946D01*
X169514586Y-95236942D01*
X169399559Y-95163021D01*
X169268368Y-95124500D01*
X169268367Y-95124500D01*
X169131633Y-95124500D01*
X169131632Y-95124500D01*
X169000440Y-95163021D01*
X168885413Y-95236942D01*
X168885409Y-95236946D01*
X168795872Y-95340278D01*
X168795867Y-95340285D01*
X168739070Y-95464654D01*
X168739068Y-95464662D01*
X168719610Y-95600000D01*
X143857101Y-95600000D01*
X143914589Y-95563055D01*
X144004130Y-95459718D01*
X144060931Y-95335342D01*
X144080390Y-95200000D01*
X144060931Y-95064658D01*
X144031404Y-95000003D01*
X144004132Y-94940285D01*
X144004127Y-94940278D01*
X143914590Y-94836946D01*
X143914586Y-94836942D01*
X143799559Y-94763021D01*
X143668368Y-94724500D01*
X143668367Y-94724500D01*
X143531633Y-94724500D01*
X143531632Y-94724500D01*
X143400440Y-94763021D01*
X143285413Y-94836942D01*
X143285409Y-94836946D01*
X143195872Y-94940278D01*
X143195867Y-94940285D01*
X143139070Y-95064654D01*
X143139068Y-95064662D01*
X143119610Y-95200000D01*
X133731403Y-95200000D01*
X133704132Y-95140285D01*
X133704127Y-95140278D01*
X133614590Y-95036946D01*
X133614586Y-95036942D01*
X133499559Y-94963021D01*
X133368368Y-94924500D01*
X133368367Y-94924500D01*
X133231633Y-94924500D01*
X133231632Y-94924500D01*
X133100440Y-94963021D01*
X132985413Y-95036942D01*
X132985409Y-95036946D01*
X132895872Y-95140278D01*
X132895867Y-95140285D01*
X132839070Y-95264654D01*
X132839068Y-95264662D01*
X132819610Y-95399999D01*
X132080390Y-95399999D01*
X132060931Y-95264658D01*
X132042119Y-95223465D01*
X132004132Y-95140285D01*
X132004127Y-95140278D01*
X131914590Y-95036946D01*
X131914586Y-95036942D01*
X131799559Y-94963021D01*
X131668368Y-94924500D01*
X131668367Y-94924500D01*
X131531633Y-94924500D01*
X131531632Y-94924500D01*
X131400440Y-94963021D01*
X131285413Y-95036942D01*
X131285409Y-95036946D01*
X131195872Y-95140278D01*
X131195867Y-95140285D01*
X131139070Y-95264654D01*
X131139068Y-95264662D01*
X131119610Y-95399999D01*
X123267599Y-95399999D01*
X123267599Y-93600003D01*
X144819819Y-93600003D01*
X144838424Y-93717477D01*
X144838424Y-93717478D01*
X144892428Y-93823466D01*
X144892431Y-93823470D01*
X144976529Y-93907568D01*
X144976533Y-93907571D01*
X144976535Y-93907573D01*
X145082518Y-93961574D01*
X145187496Y-93978200D01*
X145250628Y-94008128D01*
X145287560Y-94067440D01*
X145286562Y-94137302D01*
X145247953Y-94195535D01*
X145235136Y-94204988D01*
X145185413Y-94236943D01*
X145185409Y-94236946D01*
X145095872Y-94340278D01*
X145095867Y-94340285D01*
X145039070Y-94464654D01*
X145039068Y-94464662D01*
X145019610Y-94600000D01*
X145039068Y-94735337D01*
X145039070Y-94735345D01*
X145095867Y-94859714D01*
X145095872Y-94859721D01*
X145185409Y-94963053D01*
X145185413Y-94963057D01*
X145242893Y-94999996D01*
X145300439Y-95036978D01*
X145366035Y-95056238D01*
X145431632Y-95075500D01*
X145431633Y-95075500D01*
X145568367Y-95075500D01*
X145699561Y-95036978D01*
X145757096Y-95000003D01*
X153919819Y-95000003D01*
X153938424Y-95117477D01*
X153938424Y-95117478D01*
X153992428Y-95223466D01*
X153992431Y-95223470D01*
X154076529Y-95307568D01*
X154076533Y-95307571D01*
X154076535Y-95307573D01*
X154182518Y-95361574D01*
X154182520Y-95361574D01*
X154182522Y-95361575D01*
X154299997Y-95380181D01*
X154300000Y-95380181D01*
X154300003Y-95380181D01*
X154417477Y-95361575D01*
X154417478Y-95361575D01*
X154417479Y-95361574D01*
X154417482Y-95361574D01*
X154523465Y-95307573D01*
X154607573Y-95223465D01*
X154661574Y-95117482D01*
X154669940Y-95064662D01*
X154680181Y-95000003D01*
X154680181Y-94999996D01*
X154661575Y-94882522D01*
X154661575Y-94882521D01*
X154661574Y-94882519D01*
X154661574Y-94882518D01*
X154607573Y-94776535D01*
X154607571Y-94776533D01*
X154607568Y-94776529D01*
X154523470Y-94692431D01*
X154523466Y-94692428D01*
X154523465Y-94692427D01*
X154417482Y-94638426D01*
X154417480Y-94638425D01*
X154417477Y-94638424D01*
X154300003Y-94619819D01*
X154299997Y-94619819D01*
X154182522Y-94638424D01*
X154182521Y-94638424D01*
X154076533Y-94692428D01*
X154076529Y-94692431D01*
X153992431Y-94776529D01*
X153992428Y-94776533D01*
X153938424Y-94882521D01*
X153938424Y-94882522D01*
X153919819Y-94999996D01*
X153919819Y-95000003D01*
X145757096Y-95000003D01*
X145814589Y-94963055D01*
X145904130Y-94859718D01*
X145960931Y-94735342D01*
X145980390Y-94600000D01*
X145960931Y-94464658D01*
X145948677Y-94437827D01*
X145904132Y-94340285D01*
X145904127Y-94340278D01*
X145814590Y-94236946D01*
X145814586Y-94236942D01*
X145699559Y-94163021D01*
X145568368Y-94124500D01*
X145568367Y-94124500D01*
X145505901Y-94124500D01*
X145438862Y-94104815D01*
X145393107Y-94052011D01*
X145383163Y-93982853D01*
X145412188Y-93919297D01*
X145418220Y-93912819D01*
X145507568Y-93823470D01*
X145507573Y-93823465D01*
X145561574Y-93717482D01*
X145580181Y-93600000D01*
X145580181Y-93599996D01*
X145561575Y-93482522D01*
X145561575Y-93482521D01*
X145561574Y-93482519D01*
X145561574Y-93482518D01*
X145507573Y-93376535D01*
X145507571Y-93376533D01*
X145507568Y-93376529D01*
X145423470Y-93292431D01*
X145423466Y-93292428D01*
X145423465Y-93292427D01*
X145317482Y-93238426D01*
X145317480Y-93238425D01*
X145317477Y-93238424D01*
X145200003Y-93219819D01*
X145199997Y-93219819D01*
X145082522Y-93238424D01*
X145082521Y-93238424D01*
X144976533Y-93292428D01*
X144976529Y-93292431D01*
X144892431Y-93376529D01*
X144892428Y-93376533D01*
X144838424Y-93482521D01*
X144838424Y-93482522D01*
X144819819Y-93599996D01*
X144819819Y-93600003D01*
X123267599Y-93600003D01*
X123267599Y-93237585D01*
X123089724Y-93084244D01*
X150923597Y-93084244D01*
X150942202Y-93201718D01*
X150942202Y-93201719D01*
X150942203Y-93201722D01*
X150942204Y-93201723D01*
X150988420Y-93292428D01*
X150996206Y-93307707D01*
X150996209Y-93307711D01*
X151080307Y-93391809D01*
X151080311Y-93391812D01*
X151080313Y-93391814D01*
X151186296Y-93445815D01*
X151186298Y-93445815D01*
X151186300Y-93445816D01*
X151303775Y-93464422D01*
X151303778Y-93464422D01*
X151303781Y-93464422D01*
X151421255Y-93445816D01*
X151421256Y-93445816D01*
X151421257Y-93445815D01*
X151421260Y-93445815D01*
X151527243Y-93391814D01*
X151611351Y-93307706D01*
X151665352Y-93201723D01*
X151667287Y-93189505D01*
X151683959Y-93084244D01*
X151683959Y-93084237D01*
X151665353Y-92966763D01*
X151665353Y-92966762D01*
X151665352Y-92966760D01*
X151665352Y-92966759D01*
X151611351Y-92860776D01*
X151611349Y-92860774D01*
X151611346Y-92860770D01*
X151527248Y-92776672D01*
X151527244Y-92776669D01*
X151527243Y-92776668D01*
X151421260Y-92722667D01*
X151421258Y-92722666D01*
X151421255Y-92722665D01*
X151303781Y-92704060D01*
X151303775Y-92704060D01*
X151186300Y-92722665D01*
X151186299Y-92722665D01*
X151080311Y-92776669D01*
X151080307Y-92776672D01*
X150996209Y-92860770D01*
X150996206Y-92860774D01*
X150942202Y-92966762D01*
X150942202Y-92966763D01*
X150923597Y-93084237D01*
X150923597Y-93084244D01*
X123089724Y-93084244D01*
X122412000Y-92499999D01*
X129619610Y-92499999D01*
X129639068Y-92635337D01*
X129639070Y-92635345D01*
X129695867Y-92759714D01*
X129695872Y-92759721D01*
X129785409Y-92863053D01*
X129785413Y-92863057D01*
X129845979Y-92901979D01*
X129900439Y-92936978D01*
X129966035Y-92956238D01*
X130031632Y-92975500D01*
X130031633Y-92975500D01*
X130168367Y-92975500D01*
X130299561Y-92936978D01*
X130414589Y-92863055D01*
X130504130Y-92759718D01*
X130560931Y-92635342D01*
X130580390Y-92500000D01*
X130560931Y-92364658D01*
X130539386Y-92317482D01*
X130504132Y-92240285D01*
X130504127Y-92240278D01*
X130414590Y-92136946D01*
X130414586Y-92136942D01*
X130357106Y-92100003D01*
X145519819Y-92100003D01*
X145538424Y-92217477D01*
X145538424Y-92217478D01*
X145538425Y-92217481D01*
X145538426Y-92217482D01*
X145589376Y-92317478D01*
X145592428Y-92323466D01*
X145592431Y-92323470D01*
X145676529Y-92407568D01*
X145676533Y-92407571D01*
X145676535Y-92407573D01*
X145782518Y-92461574D01*
X145782520Y-92461574D01*
X145782522Y-92461575D01*
X145899997Y-92480181D01*
X145900000Y-92480181D01*
X145900003Y-92480181D01*
X146017477Y-92461575D01*
X146017478Y-92461575D01*
X146017479Y-92461574D01*
X146017482Y-92461574D01*
X146123465Y-92407573D01*
X146207573Y-92323465D01*
X146261574Y-92217482D01*
X146261575Y-92217477D01*
X146264343Y-92200003D01*
X147119819Y-92200003D01*
X147138424Y-92317477D01*
X147138424Y-92317478D01*
X147138425Y-92317481D01*
X147138426Y-92317482D01*
X147184327Y-92407568D01*
X147192428Y-92423466D01*
X147192431Y-92423470D01*
X147276529Y-92507568D01*
X147276533Y-92507571D01*
X147276535Y-92507573D01*
X147382518Y-92561574D01*
X147382520Y-92561574D01*
X147382522Y-92561575D01*
X147499997Y-92580181D01*
X147500000Y-92580181D01*
X147500003Y-92580181D01*
X147617477Y-92561575D01*
X147617478Y-92561574D01*
X147617482Y-92561574D01*
X147693706Y-92522735D01*
X147762374Y-92509839D01*
X147806292Y-92522735D01*
X147882518Y-92561574D01*
X147882519Y-92561574D01*
X147882522Y-92561575D01*
X147999997Y-92580181D01*
X148000000Y-92580181D01*
X148000003Y-92580181D01*
X148117477Y-92561575D01*
X148117478Y-92561575D01*
X148117479Y-92561574D01*
X148117482Y-92561574D01*
X148223465Y-92507573D01*
X148307573Y-92423465D01*
X148361574Y-92317482D01*
X148370429Y-92261574D01*
X148377527Y-92216760D01*
X148385323Y-92200312D01*
X148385037Y-92199686D01*
X148614676Y-92199686D01*
X148622473Y-92216760D01*
X148638424Y-92317477D01*
X148638424Y-92317478D01*
X148638425Y-92317481D01*
X148638426Y-92317482D01*
X148684327Y-92407568D01*
X148692428Y-92423466D01*
X148692431Y-92423470D01*
X148776529Y-92507568D01*
X148776533Y-92507571D01*
X148776535Y-92507573D01*
X148882518Y-92561574D01*
X148882520Y-92561574D01*
X148882522Y-92561575D01*
X148999997Y-92580181D01*
X149000000Y-92580181D01*
X149000003Y-92580181D01*
X149117477Y-92561575D01*
X149117478Y-92561574D01*
X149117482Y-92561574D01*
X149193706Y-92522735D01*
X149262374Y-92509839D01*
X149306292Y-92522735D01*
X149382518Y-92561574D01*
X149382519Y-92561574D01*
X149382522Y-92561575D01*
X149499997Y-92580181D01*
X149500000Y-92580181D01*
X149500003Y-92580181D01*
X149617477Y-92561575D01*
X149617478Y-92561575D01*
X149617479Y-92561574D01*
X149617482Y-92561574D01*
X149723465Y-92507573D01*
X149807573Y-92423465D01*
X149861574Y-92317482D01*
X149870429Y-92261574D01*
X149880181Y-92200003D01*
X149880181Y-92199996D01*
X149861575Y-92082522D01*
X149861573Y-92082516D01*
X149832012Y-92024500D01*
X149822735Y-92006293D01*
X149809839Y-91937626D01*
X149820887Y-91900003D01*
X153419819Y-91900003D01*
X153438424Y-92017477D01*
X153438424Y-92017478D01*
X153438425Y-92017481D01*
X153438426Y-92017482D01*
X153471563Y-92082518D01*
X153492428Y-92123466D01*
X153492431Y-92123470D01*
X153576529Y-92207568D01*
X153576533Y-92207571D01*
X153576535Y-92207573D01*
X153682518Y-92261574D01*
X153682520Y-92261574D01*
X153682522Y-92261575D01*
X153799997Y-92280181D01*
X153800000Y-92280181D01*
X153800003Y-92280181D01*
X153917477Y-92261575D01*
X153917478Y-92261575D01*
X153917479Y-92261574D01*
X153917482Y-92261574D01*
X154023465Y-92207573D01*
X154107573Y-92123465D01*
X154161574Y-92017482D01*
X154161575Y-92017477D01*
X154180181Y-91900003D01*
X154180181Y-91899996D01*
X154172262Y-91850000D01*
X177625000Y-91850000D01*
X178720440Y-91850000D01*
X178681722Y-91892059D01*
X178631449Y-92006670D01*
X178621114Y-92131395D01*
X178651837Y-92252719D01*
X178715394Y-92350000D01*
X177625001Y-92350000D01*
X177625001Y-92499986D01*
X177635494Y-92602697D01*
X177690641Y-92769119D01*
X177690643Y-92769124D01*
X177782684Y-92918345D01*
X177906654Y-93042315D01*
X178055875Y-93134356D01*
X178055880Y-93134358D01*
X178222302Y-93189505D01*
X178222309Y-93189506D01*
X178325019Y-93199999D01*
X178749998Y-93199999D01*
X178749999Y-93199998D01*
X178749999Y-92380617D01*
X178819052Y-92434363D01*
X178937424Y-92475000D01*
X179031073Y-92475000D01*
X179123446Y-92459586D01*
X179233514Y-92400019D01*
X179250000Y-92382110D01*
X179250000Y-93199999D01*
X179674972Y-93199999D01*
X179674986Y-93199998D01*
X179777697Y-93189505D01*
X179944119Y-93134358D01*
X179944124Y-93134356D01*
X180093345Y-93042315D01*
X180217315Y-92918345D01*
X180309356Y-92769124D01*
X180309358Y-92769119D01*
X180364505Y-92602697D01*
X180364506Y-92602690D01*
X180374999Y-92499986D01*
X180375000Y-92499973D01*
X180375000Y-92350000D01*
X179279560Y-92350000D01*
X179318278Y-92307941D01*
X179368551Y-92193330D01*
X179378886Y-92068605D01*
X179348163Y-91947281D01*
X179284606Y-91850000D01*
X180374999Y-91850000D01*
X180374999Y-91700028D01*
X180374998Y-91700013D01*
X180364505Y-91597302D01*
X180309358Y-91430880D01*
X180309356Y-91430875D01*
X180217315Y-91281654D01*
X180093345Y-91157684D01*
X179944124Y-91065643D01*
X179944119Y-91065641D01*
X179777697Y-91010494D01*
X179777690Y-91010493D01*
X179673258Y-90999824D01*
X179608566Y-90973428D01*
X179568415Y-90916247D01*
X179565552Y-90846436D01*
X179600886Y-90786159D01*
X179617714Y-90772870D01*
X179760696Y-90678830D01*
X179881092Y-90551218D01*
X179968812Y-90399281D01*
X180019130Y-90231210D01*
X180029331Y-90056065D01*
X179998865Y-89883289D01*
X179929377Y-89722196D01*
X179824610Y-89581470D01*
X179752747Y-89521170D01*
X179690214Y-89468698D01*
X179690212Y-89468697D01*
X179533437Y-89389961D01*
X179533433Y-89389960D01*
X179362721Y-89349500D01*
X178681291Y-89349500D01*
X178576854Y-89361707D01*
X178550743Y-89364759D01*
X178550740Y-89364760D01*
X178385884Y-89424762D01*
X178385880Y-89424764D01*
X178239306Y-89521167D01*
X178239305Y-89521168D01*
X178118910Y-89648778D01*
X178031188Y-89800718D01*
X177980870Y-89968789D01*
X177980869Y-89968794D01*
X177970668Y-90143933D01*
X178001134Y-90316706D01*
X178001135Y-90316711D01*
X178070623Y-90477804D01*
X178070624Y-90477806D01*
X178070626Y-90477809D01*
X178175390Y-90618530D01*
X178309784Y-90731301D01*
X178309786Y-90731302D01*
X178377287Y-90765202D01*
X178428361Y-90812879D01*
X178445551Y-90880601D01*
X178423399Y-90946866D01*
X178368938Y-90990635D01*
X178327955Y-90999851D01*
X178325025Y-91000000D01*
X178222302Y-91010494D01*
X178055880Y-91065641D01*
X178055875Y-91065643D01*
X177906654Y-91157684D01*
X177782684Y-91281654D01*
X177690643Y-91430875D01*
X177690641Y-91430880D01*
X177635494Y-91597302D01*
X177635493Y-91597309D01*
X177625000Y-91700013D01*
X177625000Y-91850000D01*
X154172262Y-91850000D01*
X154161575Y-91782522D01*
X154161575Y-91782521D01*
X154161574Y-91782519D01*
X154161574Y-91782518D01*
X154107573Y-91676535D01*
X154107571Y-91676533D01*
X154107568Y-91676529D01*
X154023470Y-91592431D01*
X154023466Y-91592428D01*
X154023465Y-91592427D01*
X153917482Y-91538426D01*
X153917480Y-91538425D01*
X153917477Y-91538424D01*
X153800003Y-91519819D01*
X153799997Y-91519819D01*
X153682522Y-91538424D01*
X153682521Y-91538424D01*
X153576533Y-91592428D01*
X153576529Y-91592431D01*
X153492431Y-91676529D01*
X153492428Y-91676533D01*
X153438424Y-91782521D01*
X153438424Y-91782522D01*
X153419819Y-91899996D01*
X153419819Y-91900003D01*
X149820887Y-91900003D01*
X149822736Y-91893705D01*
X149845005Y-91850000D01*
X149861574Y-91817482D01*
X149865542Y-91792428D01*
X149880181Y-91700003D01*
X149880181Y-91699996D01*
X149861575Y-91582522D01*
X149861575Y-91582521D01*
X149861574Y-91582519D01*
X149861574Y-91582518D01*
X149807573Y-91476535D01*
X149807571Y-91476533D01*
X149807568Y-91476529D01*
X149723470Y-91392431D01*
X149723466Y-91392428D01*
X149723465Y-91392427D01*
X149617482Y-91338426D01*
X149617480Y-91338425D01*
X149617477Y-91338424D01*
X149500003Y-91319819D01*
X149499997Y-91319819D01*
X149382522Y-91338424D01*
X149382518Y-91338425D01*
X149306294Y-91377264D01*
X149237625Y-91390160D01*
X149193706Y-91377264D01*
X149117481Y-91338425D01*
X149117477Y-91338424D01*
X149000003Y-91319819D01*
X148999997Y-91319819D01*
X148882522Y-91338424D01*
X148882521Y-91338424D01*
X148776533Y-91392428D01*
X148776529Y-91392431D01*
X148692431Y-91476529D01*
X148692428Y-91476533D01*
X148638424Y-91582521D01*
X148622473Y-91683240D01*
X148614676Y-91699686D01*
X148622473Y-91716760D01*
X148638424Y-91817477D01*
X148638424Y-91817478D01*
X148638425Y-91817481D01*
X148638426Y-91817482D01*
X148677264Y-91893705D01*
X148690160Y-91962373D01*
X148677264Y-92006293D01*
X148638425Y-92082518D01*
X148638424Y-92082521D01*
X148622473Y-92183240D01*
X148614676Y-92199686D01*
X148385037Y-92199686D01*
X148377527Y-92183240D01*
X148361575Y-92082521D01*
X148361574Y-92082519D01*
X148361574Y-92082518D01*
X148322734Y-92006291D01*
X148309839Y-91937625D01*
X148322733Y-91893709D01*
X148361574Y-91817482D01*
X148365542Y-91792428D01*
X148377527Y-91716760D01*
X148385323Y-91700312D01*
X148377527Y-91683240D01*
X148361575Y-91582521D01*
X148361574Y-91582519D01*
X148361574Y-91582518D01*
X148307573Y-91476535D01*
X148307571Y-91476533D01*
X148307568Y-91476529D01*
X148223470Y-91392431D01*
X148223466Y-91392428D01*
X148223465Y-91392427D01*
X148117482Y-91338426D01*
X148117480Y-91338425D01*
X148117477Y-91338424D01*
X148000003Y-91319819D01*
X147999997Y-91319819D01*
X147882522Y-91338424D01*
X147882518Y-91338425D01*
X147806294Y-91377264D01*
X147737625Y-91390160D01*
X147693706Y-91377264D01*
X147617481Y-91338425D01*
X147617477Y-91338424D01*
X147500003Y-91319819D01*
X147499997Y-91319819D01*
X147382522Y-91338424D01*
X147382521Y-91338424D01*
X147276533Y-91392428D01*
X147276529Y-91392431D01*
X147192431Y-91476529D01*
X147192428Y-91476533D01*
X147138424Y-91582521D01*
X147138424Y-91582522D01*
X147119819Y-91699996D01*
X147119819Y-91700003D01*
X147138424Y-91817477D01*
X147138424Y-91817478D01*
X147138425Y-91817481D01*
X147138426Y-91817482D01*
X147177264Y-91893705D01*
X147190160Y-91962373D01*
X147177264Y-92006293D01*
X147138425Y-92082518D01*
X147138424Y-92082522D01*
X147119819Y-92199996D01*
X147119819Y-92200003D01*
X146264343Y-92200003D01*
X146280181Y-92100003D01*
X146280181Y-92099996D01*
X146261575Y-91982522D01*
X146261575Y-91982521D01*
X146261574Y-91982519D01*
X146261574Y-91982518D01*
X146207573Y-91876535D01*
X146207571Y-91876533D01*
X146207568Y-91876529D01*
X146123470Y-91792431D01*
X146123466Y-91792428D01*
X146123465Y-91792427D01*
X146017482Y-91738426D01*
X146017480Y-91738425D01*
X146017477Y-91738424D01*
X145900003Y-91719819D01*
X145899997Y-91719819D01*
X145782522Y-91738424D01*
X145782521Y-91738424D01*
X145676533Y-91792428D01*
X145676529Y-91792431D01*
X145592431Y-91876529D01*
X145592428Y-91876533D01*
X145538424Y-91982521D01*
X145538424Y-91982522D01*
X145519819Y-92099996D01*
X145519819Y-92100003D01*
X130357106Y-92100003D01*
X130299559Y-92063021D01*
X130168368Y-92024500D01*
X130168367Y-92024500D01*
X130031633Y-92024500D01*
X130031632Y-92024500D01*
X129900440Y-92063021D01*
X129785413Y-92136942D01*
X129785409Y-92136946D01*
X129695872Y-92240278D01*
X129695867Y-92240285D01*
X129639070Y-92364654D01*
X129639068Y-92364662D01*
X129619610Y-92499999D01*
X122412000Y-92499999D01*
X122390005Y-92481038D01*
X120440001Y-90800000D01*
X139319610Y-90800000D01*
X139339068Y-90935337D01*
X139339070Y-90935345D01*
X139395867Y-91059714D01*
X139395872Y-91059721D01*
X139485409Y-91163053D01*
X139485413Y-91163057D01*
X139545979Y-91201979D01*
X139600439Y-91236978D01*
X139655700Y-91253204D01*
X139731632Y-91275500D01*
X139795610Y-91275500D01*
X139862649Y-91295185D01*
X139908404Y-91347989D01*
X139917825Y-91391297D01*
X139918348Y-91391222D01*
X139919398Y-91398526D01*
X139919610Y-91399500D01*
X139919610Y-91399999D01*
X139939068Y-91535337D01*
X139939070Y-91535345D01*
X139995867Y-91659714D01*
X139995872Y-91659721D01*
X140085409Y-91763053D01*
X140085413Y-91763057D01*
X140142870Y-91799981D01*
X140200439Y-91836978D01*
X140244788Y-91850000D01*
X140331632Y-91875500D01*
X140331633Y-91875500D01*
X140468367Y-91875500D01*
X140599561Y-91836978D01*
X140714589Y-91763055D01*
X140804130Y-91659718D01*
X140860931Y-91535342D01*
X140880390Y-91400000D01*
X140860931Y-91264658D01*
X140842119Y-91223465D01*
X140804132Y-91140285D01*
X140804127Y-91140278D01*
X140714590Y-91036946D01*
X140714586Y-91036942D01*
X140599559Y-90963021D01*
X140468368Y-90924500D01*
X140468367Y-90924500D01*
X140404390Y-90924500D01*
X140337351Y-90904815D01*
X140291596Y-90852011D01*
X140282174Y-90808702D01*
X140281652Y-90808778D01*
X140280601Y-90801473D01*
X140280390Y-90800500D01*
X140280390Y-90800000D01*
X140271094Y-90735345D01*
X140260931Y-90664658D01*
X140239386Y-90617482D01*
X140231402Y-90599999D01*
X145119610Y-90599999D01*
X145139068Y-90735337D01*
X145139070Y-90735345D01*
X145195867Y-90859714D01*
X145195872Y-90859721D01*
X145285409Y-90963053D01*
X145285413Y-90963057D01*
X145328327Y-90990635D01*
X145400439Y-91036978D01*
X145466035Y-91056238D01*
X145531632Y-91075500D01*
X145531633Y-91075500D01*
X145668367Y-91075500D01*
X145799561Y-91036978D01*
X145857096Y-91000003D01*
X156719819Y-91000003D01*
X156738424Y-91117477D01*
X156738424Y-91117478D01*
X156792428Y-91223466D01*
X156792431Y-91223470D01*
X156876529Y-91307568D01*
X156876533Y-91307571D01*
X156876535Y-91307573D01*
X156982518Y-91361574D01*
X156982520Y-91361574D01*
X156982522Y-91361575D01*
X157099997Y-91380181D01*
X157100000Y-91380181D01*
X157100003Y-91380181D01*
X157217477Y-91361575D01*
X157217478Y-91361575D01*
X157217479Y-91361574D01*
X157217482Y-91361574D01*
X157323465Y-91307573D01*
X157407573Y-91223465D01*
X157461574Y-91117482D01*
X157468223Y-91075500D01*
X157480181Y-91000003D01*
X157480181Y-90999996D01*
X157461575Y-90882522D01*
X157461575Y-90882521D01*
X157461574Y-90882519D01*
X157461574Y-90882518D01*
X157407573Y-90776535D01*
X157407571Y-90776533D01*
X157407568Y-90776529D01*
X157323470Y-90692431D01*
X157323466Y-90692428D01*
X157323465Y-90692427D01*
X157217482Y-90638426D01*
X157217480Y-90638425D01*
X157217477Y-90638424D01*
X157100003Y-90619819D01*
X157099997Y-90619819D01*
X156982522Y-90638424D01*
X156982521Y-90638424D01*
X156876533Y-90692428D01*
X156876529Y-90692431D01*
X156792431Y-90776529D01*
X156792428Y-90776533D01*
X156738424Y-90882521D01*
X156738424Y-90882522D01*
X156719819Y-90999996D01*
X156719819Y-91000003D01*
X145857096Y-91000003D01*
X145914589Y-90963055D01*
X146004130Y-90859718D01*
X146060931Y-90735342D01*
X146080390Y-90600000D01*
X146066013Y-90500003D01*
X151019819Y-90500003D01*
X151038424Y-90617477D01*
X151038424Y-90617478D01*
X151038425Y-90617481D01*
X151038426Y-90617482D01*
X151076614Y-90692431D01*
X151092428Y-90723466D01*
X151092431Y-90723470D01*
X151176529Y-90807568D01*
X151176533Y-90807571D01*
X151176535Y-90807573D01*
X151282518Y-90861574D01*
X151282520Y-90861574D01*
X151282522Y-90861575D01*
X151399997Y-90880181D01*
X151400000Y-90880181D01*
X151400003Y-90880181D01*
X151517477Y-90861575D01*
X151517478Y-90861575D01*
X151517479Y-90861574D01*
X151517482Y-90861574D01*
X151623465Y-90807573D01*
X151707573Y-90723465D01*
X151761574Y-90617482D01*
X151780181Y-90500000D01*
X151780181Y-90499996D01*
X151761575Y-90382522D01*
X151761575Y-90382521D01*
X151761574Y-90382519D01*
X151761574Y-90382518D01*
X151707573Y-90276535D01*
X151707571Y-90276533D01*
X151707568Y-90276529D01*
X151623470Y-90192431D01*
X151623466Y-90192428D01*
X151623465Y-90192427D01*
X151517482Y-90138426D01*
X151517480Y-90138425D01*
X151517477Y-90138424D01*
X151400003Y-90119819D01*
X151399997Y-90119819D01*
X151282522Y-90138424D01*
X151282521Y-90138424D01*
X151176533Y-90192428D01*
X151176529Y-90192431D01*
X151092431Y-90276529D01*
X151092428Y-90276533D01*
X151038424Y-90382521D01*
X151038424Y-90382522D01*
X151019819Y-90499996D01*
X151019819Y-90500003D01*
X146066013Y-90500003D01*
X146060931Y-90464658D01*
X146031074Y-90399281D01*
X146004132Y-90340285D01*
X146004127Y-90340278D01*
X145914590Y-90236946D01*
X145914586Y-90236942D01*
X145799559Y-90163021D01*
X145668368Y-90124500D01*
X145668367Y-90124500D01*
X145531633Y-90124500D01*
X145531632Y-90124500D01*
X145400440Y-90163021D01*
X145285413Y-90236942D01*
X145285409Y-90236946D01*
X145195872Y-90340278D01*
X145195867Y-90340285D01*
X145139070Y-90464654D01*
X145139068Y-90464662D01*
X145119610Y-90599999D01*
X140231402Y-90599999D01*
X140204132Y-90540285D01*
X140204127Y-90540278D01*
X140114590Y-90436946D01*
X140114586Y-90436942D01*
X139999559Y-90363021D01*
X139868368Y-90324500D01*
X139868367Y-90324500D01*
X139731633Y-90324500D01*
X139731632Y-90324500D01*
X139600440Y-90363021D01*
X139485413Y-90436942D01*
X139485409Y-90436946D01*
X139395872Y-90540278D01*
X139395867Y-90540285D01*
X139339070Y-90664654D01*
X139339068Y-90664662D01*
X139319610Y-90800000D01*
X120440001Y-90800000D01*
X118468000Y-89099999D01*
X160219610Y-89099999D01*
X160239068Y-89235337D01*
X160239070Y-89235345D01*
X160295867Y-89359714D01*
X160295872Y-89359721D01*
X160385409Y-89463053D01*
X160385413Y-89463057D01*
X160445979Y-89501979D01*
X160500439Y-89536978D01*
X160566035Y-89556238D01*
X160631632Y-89575500D01*
X160631633Y-89575500D01*
X160768367Y-89575500D01*
X160899561Y-89536978D01*
X161014589Y-89463055D01*
X161104130Y-89359718D01*
X161108797Y-89349500D01*
X161116383Y-89332887D01*
X161160931Y-89235342D01*
X161180390Y-89100000D01*
X161160931Y-88964658D01*
X161148677Y-88937827D01*
X161104132Y-88840285D01*
X161104130Y-88840283D01*
X161104130Y-88840282D01*
X161052935Y-88781199D01*
X161023912Y-88717648D01*
X161033855Y-88648489D01*
X161052933Y-88618802D01*
X161104130Y-88559718D01*
X161108011Y-88551221D01*
X161116383Y-88532887D01*
X161160931Y-88435342D01*
X161180390Y-88300000D01*
X161160931Y-88164658D01*
X161151466Y-88143933D01*
X177970668Y-88143933D01*
X177986058Y-88231210D01*
X178001135Y-88316711D01*
X178070623Y-88477804D01*
X178070624Y-88477806D01*
X178070626Y-88477809D01*
X178125278Y-88551218D01*
X178175390Y-88618530D01*
X178309786Y-88731302D01*
X178350030Y-88751513D01*
X178466562Y-88810038D01*
X178466563Y-88810038D01*
X178466567Y-88810040D01*
X178637279Y-88850500D01*
X178637282Y-88850500D01*
X179318701Y-88850500D01*
X179318709Y-88850500D01*
X179449255Y-88835241D01*
X179614117Y-88775237D01*
X179760696Y-88678830D01*
X179881092Y-88551218D01*
X179968812Y-88399281D01*
X180019130Y-88231210D01*
X180029331Y-88056065D01*
X179998865Y-87883289D01*
X179929377Y-87722196D01*
X179824610Y-87581470D01*
X179752747Y-87521170D01*
X179690214Y-87468698D01*
X179690212Y-87468697D01*
X179533437Y-87389961D01*
X179533433Y-87389960D01*
X179362721Y-87349500D01*
X178681291Y-87349500D01*
X178576854Y-87361707D01*
X178550743Y-87364759D01*
X178550740Y-87364760D01*
X178385884Y-87424762D01*
X178385880Y-87424764D01*
X178239306Y-87521167D01*
X178239305Y-87521168D01*
X178118910Y-87648778D01*
X178031188Y-87800718D01*
X177980870Y-87968789D01*
X177980869Y-87968794D01*
X177970668Y-88143933D01*
X161151466Y-88143933D01*
X161111338Y-88056065D01*
X161104132Y-88040285D01*
X161104130Y-88040283D01*
X161104130Y-88040282D01*
X161052935Y-87981199D01*
X161023912Y-87917648D01*
X161033855Y-87848489D01*
X161052933Y-87818802D01*
X161104130Y-87759718D01*
X161160931Y-87635342D01*
X161180390Y-87500000D01*
X161160931Y-87364658D01*
X161147540Y-87335337D01*
X161104132Y-87240285D01*
X161104130Y-87240283D01*
X161104130Y-87240282D01*
X161052935Y-87181199D01*
X161023912Y-87117648D01*
X161033855Y-87048489D01*
X161052933Y-87018802D01*
X161104130Y-86959718D01*
X161113009Y-86940277D01*
X161130712Y-86901512D01*
X161160931Y-86835342D01*
X161180390Y-86700000D01*
X161160931Y-86564658D01*
X161140765Y-86520500D01*
X161104132Y-86440285D01*
X161104127Y-86440278D01*
X161014590Y-86336946D01*
X161014586Y-86336942D01*
X160899559Y-86263021D01*
X160768368Y-86224500D01*
X160768367Y-86224500D01*
X160631633Y-86224500D01*
X160631632Y-86224500D01*
X160500440Y-86263021D01*
X160385413Y-86336942D01*
X160385409Y-86336946D01*
X160295872Y-86440278D01*
X160295867Y-86440285D01*
X160239070Y-86564654D01*
X160239068Y-86564662D01*
X160219610Y-86699999D01*
X160239068Y-86835337D01*
X160239070Y-86835345D01*
X160295867Y-86959714D01*
X160295870Y-86959718D01*
X160347062Y-87018798D01*
X160376086Y-87082354D01*
X160366142Y-87151513D01*
X160347062Y-87181202D01*
X160295870Y-87240281D01*
X160295867Y-87240285D01*
X160239070Y-87364654D01*
X160239068Y-87364662D01*
X160224110Y-87468698D01*
X160219610Y-87500000D01*
X160222654Y-87521170D01*
X160239068Y-87635337D01*
X160239070Y-87635345D01*
X160295867Y-87759714D01*
X160295870Y-87759718D01*
X160347062Y-87818798D01*
X160376086Y-87882354D01*
X160366142Y-87951513D01*
X160347062Y-87981202D01*
X160295870Y-88040281D01*
X160295867Y-88040285D01*
X160239070Y-88164654D01*
X160239068Y-88164662D01*
X160219610Y-88299999D01*
X160239068Y-88435337D01*
X160239070Y-88435345D01*
X160295867Y-88559714D01*
X160295870Y-88559718D01*
X160347062Y-88618798D01*
X160376086Y-88682354D01*
X160366142Y-88751513D01*
X160347062Y-88781202D01*
X160295870Y-88840281D01*
X160295867Y-88840285D01*
X160239070Y-88964654D01*
X160239068Y-88964662D01*
X160219610Y-89099999D01*
X118468000Y-89099999D01*
X117743535Y-88475460D01*
X117705612Y-88416778D01*
X117700500Y-88381541D01*
X117700500Y-87200000D01*
X147019610Y-87200000D01*
X147039068Y-87335337D01*
X147039070Y-87335345D01*
X147095867Y-87459714D01*
X147095872Y-87459721D01*
X147185409Y-87563053D01*
X147185413Y-87563057D01*
X147245979Y-87601979D01*
X147300439Y-87636978D01*
X147340640Y-87648782D01*
X147431632Y-87675500D01*
X147431633Y-87675500D01*
X147568367Y-87675500D01*
X147699561Y-87636978D01*
X147814589Y-87563055D01*
X147904130Y-87459718D01*
X147960931Y-87335342D01*
X147980390Y-87200000D01*
X149019610Y-87200000D01*
X149039068Y-87335337D01*
X149039070Y-87335345D01*
X149095867Y-87459714D01*
X149095872Y-87459721D01*
X149185409Y-87563053D01*
X149185413Y-87563057D01*
X149245979Y-87601979D01*
X149300439Y-87636978D01*
X149340640Y-87648782D01*
X149431632Y-87675500D01*
X149431633Y-87675500D01*
X149568367Y-87675500D01*
X149699561Y-87636978D01*
X149814589Y-87563055D01*
X149904130Y-87459718D01*
X149960931Y-87335342D01*
X149980390Y-87200000D01*
X149960931Y-87064658D01*
X149904130Y-86940282D01*
X149896262Y-86931201D01*
X149867238Y-86867651D01*
X149877179Y-86798492D01*
X149896259Y-86768801D01*
X149904130Y-86759718D01*
X149960931Y-86635342D01*
X149980390Y-86500000D01*
X149960931Y-86364658D01*
X149904130Y-86240282D01*
X149896262Y-86231201D01*
X149867238Y-86167651D01*
X149877179Y-86098492D01*
X149896259Y-86068801D01*
X149904130Y-86059718D01*
X149960931Y-85935342D01*
X149980390Y-85800000D01*
X149960931Y-85664658D01*
X149948677Y-85637827D01*
X149904132Y-85540285D01*
X149904127Y-85540278D01*
X149814590Y-85436946D01*
X149814586Y-85436942D01*
X149699559Y-85363021D01*
X149568368Y-85324500D01*
X149568367Y-85324500D01*
X149431633Y-85324500D01*
X149431632Y-85324500D01*
X149300440Y-85363021D01*
X149185413Y-85436942D01*
X149185409Y-85436946D01*
X149095872Y-85540278D01*
X149095867Y-85540285D01*
X149039070Y-85664654D01*
X149039068Y-85664662D01*
X149019610Y-85800000D01*
X149039068Y-85935337D01*
X149039070Y-85935345D01*
X149095867Y-86059712D01*
X149095871Y-86059719D01*
X149103737Y-86068797D01*
X149132762Y-86132353D01*
X149122818Y-86201511D01*
X149103743Y-86231195D01*
X149095871Y-86240280D01*
X149095867Y-86240287D01*
X149039070Y-86364654D01*
X149039068Y-86364662D01*
X149019610Y-86499999D01*
X149039068Y-86635337D01*
X149039070Y-86635345D01*
X149095867Y-86759714D01*
X149095869Y-86759716D01*
X149095870Y-86759718D01*
X149103732Y-86768791D01*
X149103737Y-86768797D01*
X149132761Y-86832353D01*
X149122817Y-86901512D01*
X149103742Y-86931195D01*
X149095872Y-86940277D01*
X149095871Y-86940280D01*
X149039069Y-87064657D01*
X149039068Y-87064662D01*
X149019610Y-87200000D01*
X147980390Y-87200000D01*
X147960931Y-87064658D01*
X147939987Y-87018797D01*
X147904132Y-86940285D01*
X147904129Y-86940281D01*
X147904126Y-86940277D01*
X147896261Y-86931201D01*
X147867237Y-86867646D01*
X147877181Y-86798487D01*
X147896263Y-86768796D01*
X147904130Y-86759718D01*
X147960931Y-86635342D01*
X147980390Y-86500000D01*
X147960931Y-86364658D01*
X147904130Y-86240282D01*
X147896262Y-86231201D01*
X147867238Y-86167651D01*
X147877179Y-86098492D01*
X147896259Y-86068801D01*
X147904130Y-86059718D01*
X147960931Y-85935342D01*
X147980390Y-85800000D01*
X147960931Y-85664658D01*
X147948677Y-85637827D01*
X147904132Y-85540285D01*
X147904127Y-85540278D01*
X147814590Y-85436946D01*
X147814586Y-85436942D01*
X147699559Y-85363021D01*
X147568368Y-85324500D01*
X147568367Y-85324500D01*
X147431633Y-85324500D01*
X147431632Y-85324500D01*
X147300440Y-85363021D01*
X147185413Y-85436942D01*
X147185409Y-85436946D01*
X147095872Y-85540278D01*
X147095867Y-85540285D01*
X147039070Y-85664654D01*
X147039068Y-85664662D01*
X147019610Y-85800000D01*
X147039068Y-85935337D01*
X147039070Y-85935345D01*
X147095867Y-86059712D01*
X147095871Y-86059719D01*
X147103740Y-86068801D01*
X147132763Y-86132358D01*
X147122816Y-86201516D01*
X147103740Y-86231199D01*
X147095871Y-86240280D01*
X147095867Y-86240287D01*
X147039070Y-86364654D01*
X147039068Y-86364662D01*
X147019610Y-86499999D01*
X147039068Y-86635337D01*
X147039070Y-86635345D01*
X147095867Y-86759712D01*
X147095871Y-86759719D01*
X147103740Y-86768801D01*
X147132763Y-86832358D01*
X147122816Y-86901516D01*
X147103740Y-86931199D01*
X147095871Y-86940280D01*
X147095867Y-86940287D01*
X147039070Y-87064654D01*
X147039068Y-87064662D01*
X147019610Y-87200000D01*
X117700500Y-87200000D01*
X117700500Y-85870000D01*
X126374721Y-85870000D01*
X126393762Y-86026818D01*
X126438606Y-86145059D01*
X126449780Y-86174523D01*
X126539517Y-86304530D01*
X126657760Y-86409283D01*
X126657762Y-86409284D01*
X126797634Y-86482696D01*
X126951014Y-86520500D01*
X126951015Y-86520500D01*
X127108985Y-86520500D01*
X127262365Y-86482696D01*
X127343171Y-86440285D01*
X127402240Y-86409283D01*
X127520483Y-86304530D01*
X127530961Y-86289348D01*
X127562950Y-86243006D01*
X127617232Y-86199015D01*
X127686681Y-86191355D01*
X127749246Y-86222458D01*
X127767050Y-86243006D01*
X127809514Y-86304527D01*
X127809516Y-86304529D01*
X127809517Y-86304530D01*
X127927760Y-86409283D01*
X127927762Y-86409284D01*
X128067634Y-86482696D01*
X128221014Y-86520500D01*
X128221015Y-86520500D01*
X128378985Y-86520500D01*
X128532365Y-86482696D01*
X128613171Y-86440285D01*
X128672240Y-86409283D01*
X128790483Y-86304530D01*
X128880220Y-86174523D01*
X128936237Y-86026818D01*
X128955278Y-85870000D01*
X128946779Y-85799999D01*
X128936237Y-85713181D01*
X128914992Y-85657164D01*
X128880220Y-85565477D01*
X128879822Y-85564900D01*
X128879661Y-85564412D01*
X128876733Y-85558833D01*
X128877660Y-85558346D01*
X128857938Y-85498546D01*
X128875403Y-85430894D01*
X128903206Y-85398606D01*
X129010528Y-85310528D01*
X129135492Y-85158260D01*
X129135496Y-85158253D01*
X129228347Y-84984541D01*
X129269160Y-84850000D01*
X128514483Y-84850000D01*
X128585801Y-84765007D01*
X128625000Y-84657306D01*
X128625000Y-84542694D01*
X128609461Y-84500001D01*
X132544518Y-84500001D01*
X132564422Y-84778299D01*
X132623727Y-85050916D01*
X132623729Y-85050923D01*
X132679844Y-85201374D01*
X132721231Y-85312338D01*
X132721233Y-85312342D01*
X132854940Y-85557207D01*
X132854945Y-85557215D01*
X133022138Y-85780560D01*
X133022154Y-85780578D01*
X133219421Y-85977845D01*
X133219439Y-85977861D01*
X133442784Y-86145054D01*
X133442792Y-86145059D01*
X133687657Y-86278766D01*
X133687661Y-86278768D01*
X133687663Y-86278769D01*
X133949077Y-86376271D01*
X134085391Y-86405924D01*
X134221700Y-86435577D01*
X134221702Y-86435577D01*
X134221706Y-86435578D01*
X134469014Y-86453265D01*
X134499999Y-86455482D01*
X134500000Y-86455482D01*
X134500001Y-86455482D01*
X134527881Y-86453487D01*
X134778294Y-86435578D01*
X135050923Y-86376271D01*
X135312337Y-86278769D01*
X135557213Y-86145056D01*
X135780568Y-85977855D01*
X135977855Y-85780568D01*
X136145056Y-85557213D01*
X136278769Y-85312337D01*
X136376271Y-85050923D01*
X136435578Y-84778294D01*
X136455482Y-84500001D01*
X163619518Y-84500001D01*
X163639422Y-84778299D01*
X163698727Y-85050916D01*
X163698729Y-85050923D01*
X163754844Y-85201374D01*
X163796231Y-85312338D01*
X163796233Y-85312342D01*
X163929940Y-85557207D01*
X163929945Y-85557215D01*
X164097138Y-85780560D01*
X164097154Y-85780578D01*
X164294421Y-85977845D01*
X164294439Y-85977861D01*
X164517784Y-86145054D01*
X164517792Y-86145059D01*
X164762657Y-86278766D01*
X164762661Y-86278768D01*
X164762663Y-86278769D01*
X165024077Y-86376271D01*
X165160391Y-86405924D01*
X165296700Y-86435577D01*
X165296702Y-86435577D01*
X165296706Y-86435578D01*
X165544014Y-86453265D01*
X165574999Y-86455482D01*
X165575000Y-86455482D01*
X165575001Y-86455482D01*
X165602881Y-86453487D01*
X165853294Y-86435578D01*
X166125923Y-86376271D01*
X166387337Y-86278769D01*
X166632213Y-86145056D01*
X166855568Y-85977855D01*
X167052855Y-85780568D01*
X167220056Y-85557213D01*
X167353769Y-85312337D01*
X167451271Y-85050923D01*
X167510578Y-84778294D01*
X167530482Y-84500000D01*
X167528622Y-84474000D01*
X167519754Y-84350000D01*
X167510578Y-84221706D01*
X167497663Y-84162339D01*
X167459587Y-83987304D01*
X167451271Y-83949077D01*
X167353769Y-83687663D01*
X167346200Y-83673802D01*
X167220059Y-83442792D01*
X167220054Y-83442784D01*
X167052861Y-83219439D01*
X167052845Y-83219421D01*
X166855578Y-83022154D01*
X166855560Y-83022138D01*
X166632215Y-82854945D01*
X166632207Y-82854940D01*
X166387342Y-82721233D01*
X166387338Y-82721231D01*
X166275451Y-82679500D01*
X166125923Y-82623729D01*
X166125919Y-82623728D01*
X166125916Y-82623727D01*
X165853299Y-82564422D01*
X165575001Y-82544518D01*
X165574999Y-82544518D01*
X165296700Y-82564422D01*
X165024083Y-82623727D01*
X165024078Y-82623728D01*
X165024077Y-82623729D01*
X164960875Y-82647301D01*
X164762661Y-82721231D01*
X164762657Y-82721233D01*
X164517792Y-82854940D01*
X164517784Y-82854945D01*
X164294439Y-83022138D01*
X164294421Y-83022154D01*
X164097154Y-83219421D01*
X164097138Y-83219439D01*
X163929945Y-83442784D01*
X163929940Y-83442792D01*
X163796233Y-83687657D01*
X163796231Y-83687661D01*
X163698727Y-83949083D01*
X163639422Y-84221700D01*
X163619518Y-84499998D01*
X163619518Y-84500001D01*
X136455482Y-84500001D01*
X136455482Y-84500000D01*
X136453622Y-84474000D01*
X136444754Y-84350000D01*
X136435578Y-84221706D01*
X136422663Y-84162339D01*
X136384587Y-83987304D01*
X136376271Y-83949077D01*
X136278769Y-83687663D01*
X136271200Y-83673802D01*
X136145059Y-83442792D01*
X136145054Y-83442784D01*
X135977861Y-83219439D01*
X135977845Y-83219421D01*
X135780578Y-83022154D01*
X135780560Y-83022138D01*
X135557215Y-82854945D01*
X135557207Y-82854940D01*
X135312342Y-82721233D01*
X135312338Y-82721231D01*
X135200451Y-82679500D01*
X135050923Y-82623729D01*
X135050919Y-82623728D01*
X135050916Y-82623727D01*
X134778299Y-82564422D01*
X134500001Y-82544518D01*
X134499999Y-82544518D01*
X134221700Y-82564422D01*
X133949083Y-82623727D01*
X133949078Y-82623728D01*
X133949077Y-82623729D01*
X133885875Y-82647301D01*
X133687661Y-82721231D01*
X133687657Y-82721233D01*
X133442792Y-82854940D01*
X133442784Y-82854945D01*
X133219439Y-83022138D01*
X133219421Y-83022154D01*
X133022154Y-83219421D01*
X133022138Y-83219439D01*
X132854945Y-83442784D01*
X132854940Y-83442792D01*
X132721233Y-83687657D01*
X132721231Y-83687661D01*
X132623727Y-83949083D01*
X132564422Y-84221700D01*
X132544518Y-84499998D01*
X132544518Y-84500001D01*
X128609461Y-84500001D01*
X128585801Y-84434993D01*
X128514483Y-84350000D01*
X129269160Y-84350000D01*
X129269160Y-84349999D01*
X129228347Y-84215458D01*
X129135496Y-84041746D01*
X129135492Y-84041739D01*
X129010528Y-83889471D01*
X128903205Y-83801393D01*
X128863871Y-83743647D01*
X128862000Y-83673802D01*
X128876973Y-83641290D01*
X128876734Y-83641165D01*
X128879157Y-83636547D01*
X128879828Y-83635089D01*
X128880220Y-83634523D01*
X128936237Y-83486818D01*
X128955278Y-83330000D01*
X128953134Y-83312338D01*
X128936237Y-83173181D01*
X128889870Y-83050923D01*
X128880220Y-83025477D01*
X128790483Y-82895470D01*
X128672240Y-82790717D01*
X128672238Y-82790716D01*
X128672237Y-82790715D01*
X128532365Y-82717303D01*
X128378986Y-82679500D01*
X128378985Y-82679500D01*
X128221015Y-82679500D01*
X128221014Y-82679500D01*
X128067634Y-82717303D01*
X127927761Y-82790715D01*
X127927759Y-82790716D01*
X127875104Y-82837364D01*
X127811871Y-82867084D01*
X127742608Y-82857899D01*
X127689305Y-82812726D01*
X127676862Y-82782389D01*
X127676442Y-82782564D01*
X127671767Y-82771281D01*
X127671767Y-82771278D01*
X127638504Y-82721496D01*
X127638503Y-82721495D01*
X127588724Y-82688234D01*
X127588717Y-82688231D01*
X127544822Y-82679500D01*
X127544820Y-82679500D01*
X126515180Y-82679500D01*
X126515178Y-82679500D01*
X126471282Y-82688231D01*
X126471275Y-82688234D01*
X126421496Y-82721495D01*
X126421495Y-82721496D01*
X126388234Y-82771275D01*
X126388231Y-82771282D01*
X126379500Y-82815177D01*
X126379500Y-82815179D01*
X126379500Y-82815180D01*
X126379500Y-83844820D01*
X126379500Y-83844822D01*
X126379499Y-83844822D01*
X126388231Y-83888717D01*
X126388232Y-83888721D01*
X126388233Y-83888722D01*
X126421496Y-83938504D01*
X126471278Y-83971767D01*
X126471281Y-83971767D01*
X126482564Y-83976442D01*
X126481321Y-83979441D01*
X126525715Y-84002655D01*
X126560298Y-84063366D01*
X126556569Y-84133136D01*
X126541677Y-84162339D01*
X126449780Y-84295476D01*
X126393762Y-84443181D01*
X126374721Y-84599999D01*
X126374721Y-84600000D01*
X126393762Y-84756818D01*
X126429102Y-84850000D01*
X126449780Y-84904523D01*
X126539517Y-85034530D01*
X126657760Y-85139283D01*
X126661035Y-85142184D01*
X126698162Y-85201374D01*
X126697394Y-85271239D01*
X126661035Y-85327816D01*
X126657760Y-85330716D01*
X126657760Y-85330717D01*
X126544682Y-85430894D01*
X126539516Y-85435471D01*
X126449781Y-85565475D01*
X126449780Y-85565476D01*
X126393762Y-85713181D01*
X126374721Y-85869999D01*
X126374721Y-85870000D01*
X117700500Y-85870000D01*
X117700500Y-82500001D01*
X119044518Y-82500001D01*
X119064422Y-82778299D01*
X119123727Y-83050916D01*
X119123729Y-83050923D01*
X119152869Y-83129050D01*
X119221231Y-83312338D01*
X119221233Y-83312342D01*
X119354940Y-83557207D01*
X119354945Y-83557215D01*
X119522138Y-83780560D01*
X119522154Y-83780578D01*
X119719421Y-83977845D01*
X119719439Y-83977861D01*
X119942784Y-84145054D01*
X119942792Y-84145059D01*
X120187657Y-84278766D01*
X120187661Y-84278768D01*
X120187663Y-84278769D01*
X120449077Y-84376271D01*
X120585391Y-84405924D01*
X120721700Y-84435577D01*
X120721702Y-84435577D01*
X120721706Y-84435578D01*
X120969014Y-84453265D01*
X120999999Y-84455482D01*
X121000000Y-84455482D01*
X121000001Y-84455482D01*
X121027881Y-84453487D01*
X121278294Y-84435578D01*
X121280984Y-84434993D01*
X121317458Y-84427058D01*
X121550923Y-84376271D01*
X121812337Y-84278769D01*
X122057213Y-84145056D01*
X122280568Y-83977855D01*
X122477855Y-83780568D01*
X122645056Y-83557213D01*
X122778769Y-83312337D01*
X122876271Y-83050923D01*
X122935578Y-82778294D01*
X122955482Y-82500001D01*
X177044518Y-82500001D01*
X177064422Y-82778299D01*
X177123727Y-83050916D01*
X177123729Y-83050923D01*
X177152869Y-83129050D01*
X177221231Y-83312338D01*
X177221233Y-83312342D01*
X177354940Y-83557207D01*
X177354945Y-83557215D01*
X177522138Y-83780560D01*
X177522154Y-83780578D01*
X177719421Y-83977845D01*
X177719439Y-83977861D01*
X177942784Y-84145054D01*
X177942792Y-84145059D01*
X178187657Y-84278766D01*
X178187661Y-84278768D01*
X178187663Y-84278769D01*
X178449077Y-84376271D01*
X178585391Y-84405924D01*
X178721700Y-84435577D01*
X178721702Y-84435577D01*
X178721706Y-84435578D01*
X178969014Y-84453265D01*
X178999999Y-84455482D01*
X179000000Y-84455482D01*
X179000001Y-84455482D01*
X179027881Y-84453487D01*
X179278294Y-84435578D01*
X179280984Y-84434993D01*
X179317458Y-84427058D01*
X179550923Y-84376271D01*
X179812337Y-84278769D01*
X180057213Y-84145056D01*
X180280568Y-83977855D01*
X180477855Y-83780568D01*
X180645056Y-83557213D01*
X180778769Y-83312337D01*
X180876271Y-83050923D01*
X180935578Y-82778294D01*
X180955482Y-82500000D01*
X180935578Y-82221706D01*
X180876271Y-81949077D01*
X180778769Y-81687663D01*
X180675277Y-81498133D01*
X180645059Y-81442792D01*
X180645054Y-81442784D01*
X180477861Y-81219439D01*
X180477845Y-81219421D01*
X180280578Y-81022154D01*
X180280560Y-81022138D01*
X180057215Y-80854945D01*
X180057207Y-80854940D01*
X179812342Y-80721233D01*
X179812338Y-80721231D01*
X179704926Y-80681169D01*
X179550923Y-80623729D01*
X179550919Y-80623728D01*
X179550916Y-80623727D01*
X179278299Y-80564422D01*
X179000001Y-80544518D01*
X178999999Y-80544518D01*
X178721700Y-80564422D01*
X178449083Y-80623727D01*
X178449078Y-80623728D01*
X178449077Y-80623729D01*
X178385875Y-80647301D01*
X178187661Y-80721231D01*
X178187657Y-80721233D01*
X177942792Y-80854940D01*
X177942784Y-80854945D01*
X177719439Y-81022138D01*
X177719421Y-81022154D01*
X177522154Y-81219421D01*
X177522138Y-81219439D01*
X177354945Y-81442784D01*
X177354940Y-81442792D01*
X177221233Y-81687657D01*
X177221231Y-81687661D01*
X177123727Y-81949083D01*
X177064422Y-82221700D01*
X177044518Y-82499998D01*
X177044518Y-82500001D01*
X122955482Y-82500001D01*
X122955482Y-82500000D01*
X122935578Y-82221706D01*
X122876271Y-81949077D01*
X122778769Y-81687663D01*
X122675277Y-81498133D01*
X122645059Y-81442792D01*
X122645054Y-81442784D01*
X122477861Y-81219439D01*
X122477845Y-81219421D01*
X122280578Y-81022154D01*
X122280560Y-81022138D01*
X122057215Y-80854945D01*
X122057207Y-80854940D01*
X121812342Y-80721233D01*
X121812338Y-80721231D01*
X121704926Y-80681169D01*
X121550923Y-80623729D01*
X121550919Y-80623728D01*
X121550916Y-80623727D01*
X121278299Y-80564422D01*
X121000001Y-80544518D01*
X120999999Y-80544518D01*
X120721700Y-80564422D01*
X120449083Y-80623727D01*
X120449078Y-80623728D01*
X120449077Y-80623729D01*
X120385875Y-80647301D01*
X120187661Y-80721231D01*
X120187657Y-80721233D01*
X119942792Y-80854940D01*
X119942784Y-80854945D01*
X119719439Y-81022138D01*
X119719421Y-81022154D01*
X119522154Y-81219421D01*
X119522138Y-81219439D01*
X119354945Y-81442784D01*
X119354940Y-81442792D01*
X119221233Y-81687657D01*
X119221231Y-81687661D01*
X119123727Y-81949083D01*
X119064422Y-82221700D01*
X119044518Y-82499998D01*
X119044518Y-82500001D01*
X117700500Y-82500001D01*
X117700500Y-81501877D01*
X117700613Y-81498133D01*
X117703961Y-81442784D01*
X117717039Y-81226563D01*
X117717943Y-81219132D01*
X117720098Y-81207370D01*
X117766646Y-80953363D01*
X117768431Y-80946122D01*
X117848819Y-80688151D01*
X117851468Y-80681169D01*
X117865693Y-80649561D01*
X117962359Y-80434779D01*
X117965836Y-80428156D01*
X118105607Y-80196947D01*
X118109857Y-80190788D01*
X118276496Y-79978089D01*
X118281440Y-79972508D01*
X118472508Y-79781440D01*
X118478089Y-79776496D01*
X118690788Y-79609857D01*
X118696947Y-79605607D01*
X118899398Y-79483221D01*
X118928160Y-79465833D01*
X118934779Y-79462359D01*
X119181167Y-79351468D01*
X119188151Y-79348819D01*
X119446122Y-79268431D01*
X119453363Y-79266646D01*
X119719131Y-79217943D01*
X119726563Y-79217039D01*
X119940073Y-79204124D01*
X119998134Y-79200613D01*
X120001878Y-79200500D01*
X120039882Y-79200500D01*
X179960118Y-79200500D01*
X179998122Y-79200500D01*
X180001866Y-79200613D01*
G37*
%TD.AperFunction*%
%TD*%
M02*
