%TF.GenerationSoftware,KiCad,Pcbnew,7.0.6*%
%TF.CreationDate,2024-03-18T22:21:07-04:00*%
%TF.ProjectId,Receiver,52656365-6976-4657-922e-6b696361645f,rev?*%
%TF.SameCoordinates,Original*%
%TF.FileFunction,Soldermask,Bot*%
%TF.FilePolarity,Negative*%
%FSLAX46Y46*%
G04 Gerber Fmt 4.6, Leading zero omitted, Abs format (unit mm)*
G04 Created by KiCad (PCBNEW 7.0.6) date 2024-03-18 22:21:07*
%MOMM*%
%LPD*%
G01*
G04 APERTURE LIST*
G04 Aperture macros list*
%AMRoundRect*
0 Rectangle with rounded corners*
0 $1 Rounding radius*
0 $2 $3 $4 $5 $6 $7 $8 $9 X,Y pos of 4 corners*
0 Add a 4 corners polygon primitive as box body*
4,1,4,$2,$3,$4,$5,$6,$7,$8,$9,$2,$3,0*
0 Add four circle primitives for the rounded corners*
1,1,$1+$1,$2,$3*
1,1,$1+$1,$4,$5*
1,1,$1+$1,$6,$7*
1,1,$1+$1,$8,$9*
0 Add four rect primitives between the rounded corners*
20,1,$1+$1,$2,$3,$4,$5,0*
20,1,$1+$1,$4,$5,$6,$7,0*
20,1,$1+$1,$6,$7,$8,$9,0*
20,1,$1+$1,$8,$9,$2,$3,0*%
G04 Aperture macros list end*
%ADD10C,3.600000*%
%ADD11C,5.600000*%
%ADD12C,1.498600*%
%ADD13C,1.803400*%
%ADD14R,1.000000X1.000000*%
%ADD15O,1.000000X1.000000*%
%ADD16RoundRect,0.250000X0.625000X-0.350000X0.625000X0.350000X-0.625000X0.350000X-0.625000X-0.350000X0*%
%ADD17O,1.750000X1.200000*%
%ADD18C,0.600000*%
%ADD19O,0.850000X0.600000*%
%ADD20O,1.300000X2.300000*%
%ADD21O,1.300000X2.600000*%
%ADD22RoundRect,0.150000X0.512500X0.150000X-0.512500X0.150000X-0.512500X-0.150000X0.512500X-0.150000X0*%
%ADD23RoundRect,0.140000X-0.170000X0.140000X-0.170000X-0.140000X0.170000X-0.140000X0.170000X0.140000X0*%
%ADD24RoundRect,0.140000X0.170000X-0.140000X0.170000X0.140000X-0.170000X0.140000X-0.170000X-0.140000X0*%
G04 APERTURE END LIST*
D10*
%TO.C,H1*%
X165500000Y-115500000D03*
D11*
X165500000Y-115500000D03*
%TD*%
D10*
%TO.C,H2*%
X165575000Y-84500000D03*
D11*
X165575000Y-84500000D03*
%TD*%
D10*
%TO.C,H7*%
X179000000Y-117500000D03*
D11*
X179000000Y-117500000D03*
%TD*%
D12*
%TO.C,SW2*%
X154561749Y-114100000D03*
X159061750Y-114100000D03*
D13*
X153306749Y-111609701D03*
X160316750Y-111609701D03*
%TD*%
D10*
%TO.C,H6*%
X179000000Y-82500000D03*
D11*
X179000000Y-82500000D03*
%TD*%
D14*
%TO.C,J5*%
X127030000Y-83330000D03*
D15*
X128300000Y-83330000D03*
X127030000Y-84600000D03*
X128300000Y-84600000D03*
X127030000Y-85870000D03*
X128300000Y-85870000D03*
%TD*%
D10*
%TO.C,H4*%
X134500000Y-84500000D03*
D11*
X134500000Y-84500000D03*
%TD*%
D10*
%TO.C,H5*%
X121000000Y-82500000D03*
D11*
X121000000Y-82500000D03*
%TD*%
D10*
%TO.C,H3*%
X134500000Y-115500000D03*
D11*
X134500000Y-115500000D03*
%TD*%
D16*
%TO.C,J4*%
X179000000Y-92100000D03*
D17*
X179000000Y-90100000D03*
X179000000Y-88100000D03*
%TD*%
D18*
%TO.C,J1*%
X141600000Y-115250000D03*
D19*
X147600000Y-115250000D03*
D20*
X140280000Y-114525000D03*
D21*
X140280000Y-118350000D03*
D20*
X148920000Y-114525000D03*
D21*
X148920000Y-118350000D03*
%TD*%
D10*
%TO.C,H8*%
X121000000Y-117500000D03*
D11*
X121000000Y-117500000D03*
%TD*%
D16*
%TO.C,J6*%
X180131617Y-103000000D03*
D17*
X180131617Y-101000000D03*
X180131617Y-99000000D03*
X180131617Y-97000000D03*
%TD*%
D22*
%TO.C,U3*%
X148862500Y-99050000D03*
X148862500Y-100000000D03*
X148862500Y-100950000D03*
X151137500Y-100950000D03*
X151137500Y-100000000D03*
X151137500Y-99050000D03*
%TD*%
D23*
%TO.C,C5*%
X150400000Y-91020000D03*
X150400000Y-91980000D03*
%TD*%
D24*
%TO.C,C4*%
X146600000Y-91980000D03*
X146600000Y-91020000D03*
%TD*%
M02*
