%TF.GenerationSoftware,KiCad,Pcbnew,7.0.6*%
%TF.CreationDate,2024-03-18T22:21:06-04:00*%
%TF.ProjectId,Receiver,52656365-6976-4657-922e-6b696361645f,rev?*%
%TF.SameCoordinates,Original*%
%TF.FileFunction,Legend,Top*%
%TF.FilePolarity,Positive*%
%FSLAX46Y46*%
G04 Gerber Fmt 4.6, Leading zero omitted, Abs format (unit mm)*
G04 Created by KiCad (PCBNEW 7.0.6) date 2024-03-18 22:21:06*
%MOMM*%
%LPD*%
G01*
G04 APERTURE LIST*
%ADD10C,0.300000*%
%ADD11C,0.240000*%
%ADD12C,0.376228*%
%ADD13C,0.120000*%
%ADD14C,0.200000*%
%ADD15C,0.100000*%
G04 APERTURE END LIST*
D10*
X146409566Y-104399999D02*
X144790433Y-104400000D01*
D11*
G36*
X133159511Y-119634908D02*
G01*
X132886643Y-119634908D01*
X133023517Y-119339613D01*
X133159511Y-119634908D01*
G37*
G36*
X136627265Y-120285956D02*
G01*
X130430347Y-120285956D01*
X130430347Y-119979071D01*
X130604633Y-119979071D01*
X130604839Y-119990167D01*
X130605755Y-120004025D01*
X130607404Y-120016813D01*
X130610495Y-120031291D01*
X130614731Y-120044096D01*
X130620112Y-120055228D01*
X130628080Y-120066378D01*
X130632613Y-120071064D01*
X130642498Y-120079053D01*
X130653476Y-120085199D01*
X130665545Y-120089501D01*
X130678707Y-120091959D01*
X130690509Y-120092600D01*
X130701068Y-120091798D01*
X130712651Y-120088642D01*
X130723628Y-120082468D01*
X130729093Y-120077636D01*
X130737309Y-120068324D01*
X130745369Y-120057487D01*
X130752925Y-120046201D01*
X130759678Y-120035388D01*
X130767532Y-120040081D01*
X130779365Y-120046842D01*
X130791259Y-120053267D01*
X130803215Y-120059357D01*
X130815233Y-120065111D01*
X130827313Y-120070531D01*
X130839454Y-120075615D01*
X130851658Y-120080364D01*
X130863923Y-120084778D01*
X130876250Y-120088856D01*
X130888639Y-120092600D01*
X130896969Y-120094909D01*
X130909516Y-120098093D01*
X130922124Y-120100943D01*
X130934795Y-120103457D01*
X130947527Y-120105636D01*
X130960321Y-120107480D01*
X130973177Y-120108988D01*
X130986095Y-120110161D01*
X130999075Y-120111000D01*
X131012116Y-120111502D01*
X131025219Y-120111670D01*
X131047645Y-120111299D01*
X131069568Y-120110185D01*
X131090986Y-120108328D01*
X131111901Y-120105729D01*
X131132312Y-120102387D01*
X131152219Y-120098303D01*
X131171623Y-120093476D01*
X131190523Y-120087906D01*
X131208919Y-120081594D01*
X131226811Y-120074539D01*
X131244200Y-120066742D01*
X131261085Y-120058202D01*
X131277466Y-120048919D01*
X131293343Y-120038894D01*
X131308717Y-120028126D01*
X131323586Y-120016616D01*
X131334269Y-120007413D01*
X131344263Y-119997834D01*
X131353568Y-119987877D01*
X131362183Y-119977543D01*
X131370109Y-119966833D01*
X131377346Y-119955745D01*
X131383893Y-119944279D01*
X131389752Y-119932437D01*
X131394921Y-119920218D01*
X131399401Y-119907621D01*
X131403192Y-119894648D01*
X131406293Y-119881297D01*
X131408705Y-119867569D01*
X131410428Y-119853464D01*
X131411462Y-119838982D01*
X131411807Y-119824123D01*
X131411626Y-119813450D01*
X131410676Y-119797787D01*
X131408913Y-119782537D01*
X131406335Y-119767700D01*
X131402943Y-119753278D01*
X131398737Y-119739269D01*
X131393718Y-119725674D01*
X131387884Y-119712493D01*
X131381236Y-119699726D01*
X131373774Y-119687372D01*
X131365498Y-119675433D01*
X131359654Y-119667741D01*
X131350539Y-119656693D01*
X131341007Y-119646231D01*
X131331058Y-119636356D01*
X131320691Y-119627067D01*
X131309907Y-119618366D01*
X131298706Y-119610250D01*
X131287087Y-119602722D01*
X131275051Y-119595780D01*
X131262598Y-119589425D01*
X131249727Y-119583656D01*
X131245309Y-119581818D01*
X131231350Y-119576370D01*
X131216334Y-119571021D01*
X131200262Y-119565772D01*
X131188961Y-119562327D01*
X131177191Y-119558927D01*
X131164951Y-119555572D01*
X131152241Y-119552260D01*
X131139062Y-119548993D01*
X131125414Y-119545770D01*
X131111297Y-119542591D01*
X131096710Y-119539457D01*
X131081653Y-119536366D01*
X131066127Y-119533320D01*
X131050132Y-119530318D01*
X131042134Y-119528823D01*
X131026733Y-119525911D01*
X131012125Y-119523103D01*
X130998308Y-119520400D01*
X130985284Y-119517802D01*
X130973052Y-119515309D01*
X130956189Y-119511766D01*
X130941110Y-119508458D01*
X130927812Y-119505386D01*
X130916298Y-119502550D01*
X130903717Y-119499135D01*
X130892449Y-119495455D01*
X130879754Y-119490322D01*
X130868046Y-119484607D01*
X130857325Y-119478310D01*
X130847592Y-119471431D01*
X130837216Y-119462408D01*
X130828262Y-119452546D01*
X130822014Y-119443929D01*
X130815914Y-119433453D01*
X130810724Y-119421046D01*
X130807611Y-119408439D01*
X130806573Y-119395633D01*
X130807039Y-119387561D01*
X130809889Y-119374235D01*
X130815328Y-119361069D01*
X130821545Y-119350651D01*
X130829420Y-119340336D01*
X130838952Y-119330123D01*
X130850142Y-119320013D01*
X130859623Y-119312498D01*
X130866439Y-119307662D01*
X130877222Y-119300995D01*
X130888675Y-119295029D01*
X130900798Y-119289765D01*
X130913590Y-119285203D01*
X130927053Y-119281342D01*
X130941185Y-119278184D01*
X130955986Y-119275727D01*
X130971458Y-119273973D01*
X130987599Y-119272920D01*
X131004410Y-119272569D01*
X131019857Y-119272904D01*
X131034836Y-119273910D01*
X131049349Y-119275586D01*
X131063394Y-119277932D01*
X131076973Y-119280949D01*
X131090084Y-119284637D01*
X131102728Y-119288995D01*
X131114905Y-119294023D01*
X131126478Y-119299540D01*
X131137308Y-119305365D01*
X131147397Y-119311497D01*
X131158965Y-119319593D01*
X131169373Y-119328170D01*
X131178623Y-119337228D01*
X131186713Y-119346765D01*
X131193435Y-119357362D01*
X131198807Y-119369109D01*
X131203032Y-119381016D01*
X131206906Y-119394621D01*
X131209867Y-119407254D01*
X131212928Y-119419700D01*
X131217187Y-119432829D01*
X131222085Y-119443990D01*
X131228606Y-119454521D01*
X131237124Y-119463274D01*
X131242973Y-119467743D01*
X131253846Y-119474131D01*
X131265533Y-119478694D01*
X131278033Y-119481432D01*
X131291346Y-119482344D01*
X131295945Y-119482240D01*
X131309097Y-119480687D01*
X131321279Y-119477268D01*
X131332494Y-119471985D01*
X131342739Y-119464837D01*
X131352016Y-119455824D01*
X131359985Y-119444500D01*
X131365366Y-119433127D01*
X131369602Y-119419993D01*
X131372166Y-119408218D01*
X131373998Y-119395316D01*
X131375097Y-119381288D01*
X131375464Y-119366133D01*
X131375464Y-119235322D01*
X131375257Y-119224012D01*
X131374342Y-119209903D01*
X131372693Y-119196901D01*
X131369602Y-119182207D01*
X131365366Y-119169245D01*
X131359985Y-119158014D01*
X131352016Y-119146823D01*
X131349032Y-119143575D01*
X131339432Y-119135090D01*
X131328863Y-119128490D01*
X131317326Y-119123776D01*
X131304821Y-119120948D01*
X131291346Y-119120005D01*
X131575938Y-119120005D01*
X131575938Y-119463274D01*
X131576144Y-119474530D01*
X131577060Y-119488577D01*
X131578709Y-119501525D01*
X131581800Y-119516164D01*
X131586036Y-119529087D01*
X131591417Y-119540293D01*
X131599385Y-119551475D01*
X131602370Y-119554650D01*
X131611970Y-119562947D01*
X131622538Y-119569400D01*
X131634076Y-119574009D01*
X131646581Y-119576775D01*
X131660055Y-119577696D01*
X131664725Y-119577594D01*
X131678062Y-119576058D01*
X131690389Y-119572677D01*
X131701706Y-119567454D01*
X131712014Y-119560386D01*
X131721311Y-119551475D01*
X131728066Y-119542329D01*
X131733676Y-119531466D01*
X131738141Y-119518886D01*
X131741461Y-119504590D01*
X131743293Y-119491917D01*
X131744392Y-119478144D01*
X131744759Y-119463274D01*
X131744759Y-119291639D01*
X131927941Y-119291639D01*
X131927941Y-119920965D01*
X131814808Y-119920965D01*
X131803684Y-119921175D01*
X131789805Y-119922106D01*
X131777017Y-119923782D01*
X131762564Y-119926925D01*
X131749814Y-119931231D01*
X131738768Y-119936702D01*
X131727759Y-119944803D01*
X131724636Y-119947804D01*
X131716475Y-119957505D01*
X131710128Y-119968253D01*
X131705594Y-119980048D01*
X131702874Y-119992892D01*
X131701967Y-120006782D01*
X131702068Y-120011530D01*
X131703579Y-120025089D01*
X131706904Y-120037622D01*
X131712042Y-120049128D01*
X131718994Y-120059607D01*
X131727759Y-120069059D01*
X131736763Y-120075841D01*
X131747469Y-120081473D01*
X131759878Y-120085956D01*
X131773990Y-120089289D01*
X131786506Y-120091128D01*
X131800112Y-120092232D01*
X131814808Y-120092600D01*
X132210481Y-120092600D01*
X132221605Y-120092393D01*
X132235483Y-120091473D01*
X132248272Y-120089818D01*
X132262725Y-120086714D01*
X132275474Y-120082462D01*
X132286521Y-120077059D01*
X132297529Y-120069059D01*
X132300688Y-120066023D01*
X132308941Y-120056228D01*
X132315361Y-120045406D01*
X132319946Y-120033558D01*
X132322697Y-120020684D01*
X132323614Y-120006782D01*
X132478660Y-120006782D01*
X132478762Y-120011530D01*
X132480290Y-120025089D01*
X132483653Y-120037622D01*
X132488849Y-120049128D01*
X132495880Y-120059607D01*
X132504745Y-120069059D01*
X132513663Y-120075841D01*
X132524299Y-120081473D01*
X132536653Y-120085956D01*
X132550724Y-120089289D01*
X132563217Y-120091128D01*
X132576809Y-120092232D01*
X132591500Y-120092600D01*
X132818939Y-120092600D01*
X132830063Y-120092393D01*
X132843941Y-120091473D01*
X132856730Y-120089818D01*
X132871182Y-120086714D01*
X132883932Y-120082462D01*
X132894979Y-120077059D01*
X132905987Y-120069059D01*
X132909146Y-120066023D01*
X132917399Y-120056228D01*
X132923819Y-120045406D01*
X132928404Y-120033558D01*
X132931155Y-120020684D01*
X132932072Y-120006782D01*
X132931970Y-120002036D01*
X132930442Y-119988494D01*
X132927079Y-119976000D01*
X132921883Y-119964554D01*
X132914852Y-119954155D01*
X132905987Y-119944803D01*
X132896984Y-119937936D01*
X132886278Y-119932232D01*
X132873869Y-119927693D01*
X132859756Y-119924317D01*
X132847240Y-119922455D01*
X132833635Y-119921338D01*
X132818939Y-119920965D01*
X132777906Y-119920965D01*
X132818939Y-119806542D01*
X133229560Y-119806542D01*
X133270006Y-119920965D01*
X133228681Y-119920965D01*
X133217557Y-119921175D01*
X133203678Y-119922106D01*
X133190890Y-119923782D01*
X133176437Y-119926925D01*
X133163687Y-119931231D01*
X133152641Y-119936702D01*
X133141632Y-119944803D01*
X133138509Y-119947804D01*
X133130348Y-119957505D01*
X133124001Y-119968253D01*
X133119467Y-119980048D01*
X133116747Y-119992892D01*
X133115840Y-120006782D01*
X133115941Y-120011530D01*
X133117452Y-120025089D01*
X133120777Y-120037622D01*
X133125915Y-120049128D01*
X133132867Y-120059607D01*
X133141632Y-120069059D01*
X133150636Y-120075841D01*
X133161342Y-120081473D01*
X133173751Y-120085956D01*
X133187863Y-120089289D01*
X133200379Y-120091128D01*
X133213985Y-120092232D01*
X133228681Y-120092600D01*
X133456120Y-120092600D01*
X133467238Y-120092393D01*
X133481094Y-120091473D01*
X133493841Y-120089818D01*
X133508217Y-120086714D01*
X133520860Y-120082462D01*
X133531773Y-120077059D01*
X133542581Y-120069059D01*
X133545705Y-120066023D01*
X133553866Y-120056228D01*
X133560213Y-120045406D01*
X133564747Y-120033558D01*
X133567467Y-120020684D01*
X133568374Y-120006782D01*
X133568226Y-120002003D01*
X133566010Y-119987973D01*
X133562134Y-119976633D01*
X133556411Y-119965613D01*
X133548841Y-119954913D01*
X133539426Y-119944533D01*
X133530565Y-119936460D01*
X133528025Y-119934584D01*
X133516649Y-119928970D01*
X133503817Y-119925338D01*
X133490952Y-119923144D01*
X133479237Y-119921934D01*
X133466259Y-119921207D01*
X133452016Y-119920965D01*
X133115840Y-119120005D01*
X133592407Y-119120005D01*
X133592407Y-119463274D01*
X133592613Y-119474530D01*
X133593529Y-119488577D01*
X133595178Y-119501525D01*
X133598269Y-119516164D01*
X133602505Y-119529087D01*
X133607886Y-119540293D01*
X133615854Y-119551475D01*
X133618839Y-119554650D01*
X133628439Y-119562947D01*
X133639007Y-119569400D01*
X133650544Y-119574009D01*
X133663050Y-119576775D01*
X133676524Y-119577696D01*
X133681194Y-119577594D01*
X133694531Y-119576058D01*
X133706858Y-119572677D01*
X133718175Y-119567454D01*
X133728483Y-119560386D01*
X133737780Y-119551475D01*
X133744535Y-119542329D01*
X133750145Y-119531466D01*
X133754610Y-119518886D01*
X133757930Y-119504590D01*
X133759762Y-119491917D01*
X133760861Y-119478144D01*
X133761228Y-119463274D01*
X133761228Y-119291639D01*
X133944410Y-119291639D01*
X133944410Y-119920965D01*
X133831277Y-119920965D01*
X133820153Y-119921175D01*
X133806274Y-119922106D01*
X133793486Y-119923782D01*
X133779033Y-119926925D01*
X133766283Y-119931231D01*
X133755236Y-119936702D01*
X133744228Y-119944803D01*
X133741105Y-119947804D01*
X133732944Y-119957505D01*
X133726597Y-119968253D01*
X133722063Y-119980048D01*
X133719343Y-119992892D01*
X133718436Y-120006782D01*
X133718537Y-120011530D01*
X133720048Y-120025089D01*
X133723373Y-120037622D01*
X133728511Y-120049128D01*
X133735463Y-120059607D01*
X133744228Y-120069059D01*
X133753232Y-120075841D01*
X133763938Y-120081473D01*
X133776347Y-120085956D01*
X133790459Y-120089289D01*
X133802975Y-120091128D01*
X133816581Y-120092232D01*
X133831277Y-120092600D01*
X134226950Y-120092600D01*
X134238074Y-120092393D01*
X134251952Y-120091473D01*
X134264741Y-120089818D01*
X134279193Y-120086714D01*
X134291943Y-120082462D01*
X134302990Y-120077059D01*
X134313998Y-120069059D01*
X134317157Y-120066023D01*
X134325410Y-120056228D01*
X134331830Y-120045406D01*
X134336415Y-120033558D01*
X134339166Y-120020684D01*
X134340083Y-120006782D01*
X134339981Y-120002036D01*
X134338453Y-119988494D01*
X134335090Y-119976000D01*
X134329894Y-119964554D01*
X134322863Y-119954155D01*
X134313998Y-119944803D01*
X134304995Y-119937936D01*
X134294289Y-119932232D01*
X134281880Y-119927693D01*
X134267768Y-119924317D01*
X134255252Y-119922455D01*
X134241646Y-119921338D01*
X134226950Y-119920965D01*
X134113230Y-119920965D01*
X134113230Y-119291639D01*
X134298757Y-119291639D01*
X134298757Y-119463274D01*
X134298963Y-119474530D01*
X134299879Y-119488577D01*
X134301528Y-119501525D01*
X134304619Y-119516164D01*
X134308855Y-119529087D01*
X134314236Y-119540293D01*
X134322205Y-119551475D01*
X134325189Y-119554650D01*
X134334789Y-119562947D01*
X134345358Y-119569400D01*
X134356895Y-119574009D01*
X134369400Y-119576775D01*
X134382875Y-119577696D01*
X134387545Y-119577594D01*
X134400881Y-119576058D01*
X134413208Y-119572677D01*
X134424526Y-119567454D01*
X134434833Y-119560386D01*
X134444131Y-119551475D01*
X134450970Y-119542329D01*
X134456650Y-119531466D01*
X134461171Y-119518886D01*
X134464533Y-119504590D01*
X134466387Y-119491917D01*
X134467500Y-119478144D01*
X134467871Y-119463274D01*
X134467871Y-119205822D01*
X134551109Y-119205822D01*
X134551209Y-119210570D01*
X134552703Y-119224129D01*
X134555990Y-119236661D01*
X134561070Y-119248167D01*
X134567942Y-119258647D01*
X134576608Y-119268099D01*
X134581636Y-119272306D01*
X134593177Y-119279478D01*
X134604305Y-119284191D01*
X134616807Y-119287754D01*
X134630683Y-119290168D01*
X134642773Y-119291271D01*
X134655743Y-119291639D01*
X134655743Y-119751119D01*
X134655862Y-119762630D01*
X134656487Y-119779348D01*
X134657648Y-119795405D01*
X134659345Y-119810803D01*
X134661577Y-119825541D01*
X134664345Y-119839618D01*
X134667650Y-119853036D01*
X134671489Y-119865794D01*
X134675865Y-119877891D01*
X134680777Y-119889329D01*
X134686224Y-119900107D01*
X134690129Y-119907056D01*
X134696344Y-119917418D01*
X134702985Y-119927707D01*
X134710055Y-119937922D01*
X134717552Y-119948065D01*
X134725476Y-119958134D01*
X134733829Y-119968129D01*
X134742609Y-119978051D01*
X134751816Y-119987900D01*
X134761451Y-119997676D01*
X134771514Y-120007378D01*
X134778420Y-120013688D01*
X134788985Y-120022791D01*
X134799797Y-120031458D01*
X134810857Y-120039692D01*
X134822164Y-120047490D01*
X134833718Y-120054853D01*
X134845519Y-120061782D01*
X134857568Y-120068276D01*
X134869864Y-120074336D01*
X134882408Y-120079960D01*
X134895198Y-120085150D01*
X134903845Y-120088361D01*
X134916951Y-120092790D01*
X134930223Y-120096753D01*
X134943659Y-120100249D01*
X134957260Y-120103279D01*
X134971027Y-120105843D01*
X134984958Y-120107941D01*
X134999053Y-120109572D01*
X135013314Y-120110738D01*
X135027740Y-120111437D01*
X135042330Y-120111670D01*
X135061935Y-120111259D01*
X135081183Y-120110026D01*
X135100074Y-120107972D01*
X135118607Y-120105096D01*
X135136784Y-120101398D01*
X135154603Y-120096878D01*
X135172064Y-120091537D01*
X135189169Y-120085374D01*
X135205917Y-120078389D01*
X135222307Y-120070582D01*
X135238340Y-120061953D01*
X135254016Y-120052503D01*
X135269334Y-120042231D01*
X135284296Y-120031137D01*
X135298900Y-120019222D01*
X135313147Y-120006484D01*
X135326775Y-119993160D01*
X135339525Y-119979485D01*
X135339875Y-119979071D01*
X135645806Y-119979071D01*
X135646012Y-119990167D01*
X135646927Y-120004025D01*
X135648576Y-120016813D01*
X135651667Y-120031291D01*
X135655903Y-120044096D01*
X135661284Y-120055228D01*
X135669253Y-120066378D01*
X135673786Y-120071064D01*
X135683671Y-120079053D01*
X135694648Y-120085199D01*
X135706717Y-120089501D01*
X135719879Y-120091959D01*
X135731681Y-120092600D01*
X135742240Y-120091798D01*
X135753823Y-120088642D01*
X135764801Y-120082468D01*
X135770265Y-120077636D01*
X135778481Y-120068324D01*
X135786541Y-120057487D01*
X135794097Y-120046201D01*
X135800851Y-120035388D01*
X135808705Y-120040081D01*
X135820537Y-120046842D01*
X135832431Y-120053267D01*
X135844388Y-120059357D01*
X135856405Y-120065111D01*
X135868485Y-120070531D01*
X135880627Y-120075615D01*
X135892830Y-120080364D01*
X135905095Y-120084778D01*
X135917422Y-120088856D01*
X135929811Y-120092600D01*
X135938141Y-120094909D01*
X135950688Y-120098093D01*
X135963297Y-120100943D01*
X135975967Y-120103457D01*
X135988700Y-120105636D01*
X136001494Y-120107480D01*
X136014350Y-120108988D01*
X136027267Y-120110161D01*
X136040247Y-120111000D01*
X136053288Y-120111502D01*
X136066392Y-120111670D01*
X136088818Y-120111299D01*
X136110740Y-120110185D01*
X136132159Y-120108328D01*
X136153073Y-120105729D01*
X136173485Y-120102387D01*
X136193392Y-120098303D01*
X136212795Y-120093476D01*
X136231695Y-120087906D01*
X136250091Y-120081594D01*
X136267984Y-120074539D01*
X136285372Y-120066742D01*
X136302257Y-120058202D01*
X136318638Y-120048919D01*
X136334515Y-120038894D01*
X136349889Y-120028126D01*
X136364759Y-120016616D01*
X136375442Y-120007413D01*
X136385435Y-119997834D01*
X136394740Y-119987877D01*
X136403355Y-119977543D01*
X136411281Y-119966833D01*
X136418518Y-119955745D01*
X136425066Y-119944279D01*
X136430924Y-119932437D01*
X136436093Y-119920218D01*
X136440573Y-119907621D01*
X136444364Y-119894648D01*
X136447465Y-119881297D01*
X136449878Y-119867569D01*
X136451601Y-119853464D01*
X136452635Y-119838982D01*
X136452979Y-119824123D01*
X136452798Y-119813450D01*
X136451849Y-119797787D01*
X136450085Y-119782537D01*
X136447507Y-119767700D01*
X136444116Y-119753278D01*
X136439910Y-119739269D01*
X136434890Y-119725674D01*
X136429056Y-119712493D01*
X136422408Y-119699726D01*
X136414947Y-119687372D01*
X136406671Y-119675433D01*
X136400826Y-119667741D01*
X136391711Y-119656693D01*
X136382179Y-119646231D01*
X136372230Y-119636356D01*
X136361863Y-119627067D01*
X136351079Y-119618366D01*
X136339878Y-119610250D01*
X136328259Y-119602722D01*
X136316223Y-119595780D01*
X136303770Y-119589425D01*
X136290900Y-119583656D01*
X136286481Y-119581818D01*
X136272522Y-119576370D01*
X136257506Y-119571021D01*
X136241435Y-119565772D01*
X136230134Y-119562327D01*
X136218363Y-119558927D01*
X136206123Y-119555572D01*
X136193414Y-119552260D01*
X136180235Y-119548993D01*
X136166587Y-119545770D01*
X136152469Y-119542591D01*
X136137882Y-119539457D01*
X136122826Y-119536366D01*
X136107300Y-119533320D01*
X136091304Y-119530318D01*
X136083307Y-119528823D01*
X136067906Y-119525911D01*
X136053297Y-119523103D01*
X136039481Y-119520400D01*
X136026456Y-119517802D01*
X136014224Y-119515309D01*
X135997362Y-119511766D01*
X135982282Y-119508458D01*
X135968985Y-119505386D01*
X135957470Y-119502550D01*
X135944890Y-119499135D01*
X135933621Y-119495455D01*
X135920926Y-119490322D01*
X135909218Y-119484607D01*
X135898498Y-119478310D01*
X135888765Y-119471431D01*
X135878388Y-119462408D01*
X135869434Y-119452546D01*
X135863186Y-119443929D01*
X135857086Y-119433453D01*
X135851897Y-119421046D01*
X135848783Y-119408439D01*
X135847745Y-119395633D01*
X135848212Y-119387561D01*
X135851061Y-119374235D01*
X135856501Y-119361069D01*
X135862717Y-119350651D01*
X135870592Y-119340336D01*
X135880124Y-119330123D01*
X135891314Y-119320013D01*
X135900795Y-119312498D01*
X135907612Y-119307662D01*
X135918395Y-119300995D01*
X135929848Y-119295029D01*
X135941970Y-119289765D01*
X135954763Y-119285203D01*
X135968225Y-119281342D01*
X135982357Y-119278184D01*
X135997159Y-119275727D01*
X136012630Y-119273973D01*
X136028771Y-119272920D01*
X136045582Y-119272569D01*
X136061029Y-119272904D01*
X136076009Y-119273910D01*
X136090521Y-119275586D01*
X136104567Y-119277932D01*
X136118145Y-119280949D01*
X136131256Y-119284637D01*
X136143901Y-119288995D01*
X136156078Y-119294023D01*
X136167650Y-119299540D01*
X136178481Y-119305365D01*
X136188570Y-119311497D01*
X136200137Y-119319593D01*
X136210546Y-119328170D01*
X136219795Y-119337228D01*
X136227885Y-119346765D01*
X136234608Y-119357362D01*
X136239979Y-119369109D01*
X136244204Y-119381016D01*
X136248078Y-119394621D01*
X136251039Y-119407254D01*
X136254100Y-119419700D01*
X136258359Y-119432829D01*
X136263257Y-119443990D01*
X136269779Y-119454521D01*
X136278297Y-119463274D01*
X136284145Y-119467743D01*
X136295018Y-119474131D01*
X136306705Y-119478694D01*
X136319205Y-119481432D01*
X136332519Y-119482344D01*
X136337118Y-119482240D01*
X136350269Y-119480687D01*
X136362452Y-119477268D01*
X136373666Y-119471985D01*
X136383912Y-119464837D01*
X136393189Y-119455824D01*
X136401157Y-119444500D01*
X136406538Y-119433127D01*
X136410774Y-119419993D01*
X136413339Y-119408218D01*
X136415170Y-119395316D01*
X136416270Y-119381288D01*
X136416636Y-119366133D01*
X136416636Y-119235322D01*
X136416430Y-119224012D01*
X136415514Y-119209903D01*
X136413865Y-119196901D01*
X136410774Y-119182207D01*
X136406538Y-119169245D01*
X136401157Y-119158014D01*
X136393189Y-119146823D01*
X136390204Y-119143575D01*
X136380604Y-119135090D01*
X136370036Y-119128490D01*
X136358498Y-119123776D01*
X136345993Y-119120948D01*
X136332519Y-119120005D01*
X136320199Y-119122016D01*
X136307858Y-119128050D01*
X136297558Y-119136152D01*
X136289308Y-119144644D01*
X136281049Y-119154924D01*
X136272780Y-119166992D01*
X136266573Y-119177216D01*
X136255056Y-119167844D01*
X136243217Y-119159096D01*
X136231059Y-119150971D01*
X136218579Y-119143471D01*
X136205780Y-119136594D01*
X136192659Y-119130341D01*
X136179218Y-119124712D01*
X136165457Y-119119707D01*
X136154985Y-119116352D01*
X136140759Y-119112392D01*
X136126230Y-119109019D01*
X136111399Y-119106233D01*
X136096266Y-119104033D01*
X136080831Y-119102419D01*
X136069056Y-119101594D01*
X136057111Y-119101099D01*
X136044996Y-119100934D01*
X136024938Y-119101277D01*
X136005355Y-119102303D01*
X135986250Y-119104014D01*
X135967620Y-119106410D01*
X135949467Y-119109490D01*
X135931789Y-119113254D01*
X135914589Y-119117703D01*
X135897864Y-119122836D01*
X135881616Y-119128653D01*
X135865844Y-119135155D01*
X135850548Y-119142342D01*
X135835729Y-119150212D01*
X135821386Y-119158767D01*
X135807519Y-119168007D01*
X135794128Y-119177931D01*
X135781214Y-119188539D01*
X135768934Y-119199567D01*
X135757446Y-119210823D01*
X135746750Y-119222306D01*
X135736847Y-119234018D01*
X135727736Y-119245958D01*
X135719417Y-119258126D01*
X135711891Y-119270523D01*
X135705157Y-119283147D01*
X135699215Y-119296000D01*
X135694065Y-119309080D01*
X135689707Y-119322389D01*
X135686142Y-119335926D01*
X135683369Y-119349691D01*
X135681389Y-119363684D01*
X135680200Y-119377906D01*
X135679804Y-119392355D01*
X135679964Y-119401516D01*
X135680806Y-119415108D01*
X135682369Y-119428522D01*
X135684653Y-119441758D01*
X135687658Y-119454816D01*
X135691385Y-119467696D01*
X135695833Y-119480398D01*
X135701002Y-119492922D01*
X135706892Y-119505267D01*
X135713504Y-119517435D01*
X135720837Y-119529424D01*
X135726118Y-119537210D01*
X135734474Y-119548474D01*
X135743350Y-119559241D01*
X135752746Y-119569509D01*
X135762663Y-119579281D01*
X135773100Y-119588554D01*
X135784058Y-119597330D01*
X135795535Y-119605609D01*
X135807534Y-119613390D01*
X135820052Y-119620673D01*
X135833091Y-119627459D01*
X135842220Y-119631775D01*
X135856902Y-119638091D01*
X135872768Y-119644220D01*
X135884004Y-119648200D01*
X135895767Y-119652097D01*
X135908056Y-119655911D01*
X135920872Y-119659640D01*
X135934214Y-119663286D01*
X135948084Y-119666847D01*
X135962479Y-119670325D01*
X135977402Y-119673719D01*
X135992851Y-119677030D01*
X136008827Y-119680256D01*
X136025329Y-119683399D01*
X136042358Y-119686458D01*
X136049441Y-119687697D01*
X136063127Y-119690128D01*
X136076174Y-119692493D01*
X136088582Y-119694793D01*
X136105997Y-119698121D01*
X136121974Y-119701302D01*
X136136514Y-119704336D01*
X136149616Y-119707224D01*
X136164850Y-119710846D01*
X136177529Y-119714208D01*
X136189783Y-119718043D01*
X136195975Y-119720201D01*
X136207698Y-119724727D01*
X136221116Y-119730777D01*
X136233161Y-119737263D01*
X136243831Y-119744186D01*
X136253128Y-119751545D01*
X136262470Y-119760952D01*
X136267691Y-119767489D01*
X136275152Y-119779197D01*
X136280481Y-119791248D01*
X136283679Y-119803641D01*
X136284745Y-119816375D01*
X136284021Y-119827182D01*
X136281082Y-119840074D01*
X136275881Y-119852283D01*
X136268419Y-119863808D01*
X136258696Y-119874648D01*
X136249290Y-119882829D01*
X136238436Y-119890572D01*
X136229228Y-119896561D01*
X136214819Y-119904821D01*
X136199693Y-119912212D01*
X136183852Y-119918733D01*
X136167294Y-119924385D01*
X136155858Y-119927670D01*
X136144103Y-119930568D01*
X136132030Y-119933080D01*
X136119639Y-119935205D01*
X136106930Y-119936944D01*
X136093902Y-119938297D01*
X136080556Y-119939263D01*
X136066892Y-119939842D01*
X136052909Y-119940036D01*
X136043905Y-119939936D01*
X136030566Y-119939410D01*
X136017427Y-119938434D01*
X136004490Y-119937008D01*
X135991753Y-119935131D01*
X135979217Y-119932803D01*
X135966883Y-119930026D01*
X135954749Y-119926797D01*
X135942816Y-119923119D01*
X135931084Y-119918989D01*
X135919553Y-119914410D01*
X135915779Y-119912809D01*
X135904889Y-119908017D01*
X135891379Y-119901653D01*
X135879024Y-119895316D01*
X135867822Y-119889007D01*
X135855443Y-119881161D01*
X135844867Y-119873358D01*
X135834556Y-119864052D01*
X135833843Y-119863228D01*
X135826767Y-119852532D01*
X135821189Y-119840748D01*
X135816369Y-119828084D01*
X135812281Y-119815482D01*
X135809492Y-119806864D01*
X135804742Y-119795141D01*
X135798341Y-119783292D01*
X135791014Y-119773411D01*
X135781507Y-119764528D01*
X135778941Y-119762687D01*
X135767923Y-119756514D01*
X135755695Y-119752240D01*
X135744005Y-119750058D01*
X135731388Y-119749331D01*
X135726612Y-119749434D01*
X135712997Y-119750988D01*
X135700453Y-119754407D01*
X135688982Y-119759690D01*
X135678581Y-119766838D01*
X135669253Y-119775851D01*
X135662498Y-119784911D01*
X135656888Y-119795702D01*
X135652423Y-119808225D01*
X135649103Y-119822479D01*
X135647271Y-119835129D01*
X135646172Y-119848887D01*
X135645806Y-119863754D01*
X135645806Y-119979071D01*
X135339875Y-119979071D01*
X135351395Y-119965458D01*
X135362386Y-119951079D01*
X135372498Y-119936349D01*
X135381730Y-119921268D01*
X135390083Y-119905835D01*
X135397557Y-119890050D01*
X135404152Y-119873914D01*
X135409867Y-119857426D01*
X135414703Y-119840587D01*
X135418660Y-119823397D01*
X135421737Y-119805854D01*
X135423935Y-119787961D01*
X135425254Y-119769715D01*
X135425694Y-119751119D01*
X135425694Y-119291639D01*
X135432288Y-119291547D01*
X135444818Y-119290812D01*
X135456468Y-119289340D01*
X135469795Y-119286467D01*
X135481748Y-119282444D01*
X135494277Y-119276099D01*
X135504829Y-119268099D01*
X135507916Y-119265062D01*
X135515984Y-119255268D01*
X135522259Y-119244446D01*
X135526742Y-119232598D01*
X135529431Y-119219723D01*
X135530327Y-119205822D01*
X135530226Y-119201075D01*
X135528697Y-119187534D01*
X135525335Y-119175040D01*
X135520138Y-119163593D01*
X135513107Y-119153194D01*
X135504242Y-119143843D01*
X135495324Y-119136976D01*
X135484688Y-119131272D01*
X135472334Y-119126733D01*
X135458264Y-119123357D01*
X135445771Y-119121495D01*
X135432178Y-119120377D01*
X135417487Y-119120005D01*
X135195617Y-119120005D01*
X135184493Y-119120214D01*
X135170615Y-119121146D01*
X135157826Y-119122822D01*
X135143374Y-119125964D01*
X135130624Y-119130271D01*
X135119577Y-119135742D01*
X135108569Y-119143843D01*
X135105446Y-119146844D01*
X135097285Y-119156544D01*
X135090938Y-119167292D01*
X135086404Y-119179088D01*
X135083684Y-119191931D01*
X135082777Y-119205822D01*
X135082878Y-119210570D01*
X135084389Y-119224129D01*
X135087714Y-119236661D01*
X135092852Y-119248167D01*
X135099804Y-119258647D01*
X135108569Y-119268099D01*
X135117572Y-119274881D01*
X135128278Y-119280513D01*
X135140687Y-119284996D01*
X135154800Y-119288329D01*
X135167315Y-119290168D01*
X135180921Y-119291271D01*
X135195617Y-119291639D01*
X135256580Y-119291639D01*
X135256580Y-119758568D01*
X135256500Y-119764249D01*
X135255598Y-119777974D01*
X135253695Y-119791015D01*
X135250790Y-119803372D01*
X135246883Y-119815045D01*
X135241974Y-119826034D01*
X135236064Y-119836340D01*
X135227491Y-119848627D01*
X135218332Y-119860159D01*
X135208586Y-119870938D01*
X135198255Y-119880962D01*
X135187337Y-119890232D01*
X135175833Y-119898747D01*
X135163743Y-119906509D01*
X135151067Y-119913516D01*
X135137983Y-119919731D01*
X135124671Y-119925118D01*
X135111129Y-119929676D01*
X135097358Y-119933406D01*
X135083358Y-119936306D01*
X135069130Y-119938378D01*
X135054672Y-119939621D01*
X135039986Y-119940036D01*
X135028950Y-119939821D01*
X135012779Y-119938697D01*
X134997066Y-119936609D01*
X134981812Y-119933557D01*
X134967016Y-119929541D01*
X134952679Y-119924562D01*
X134938800Y-119918619D01*
X134925380Y-119911712D01*
X134912419Y-119903841D01*
X134899916Y-119895006D01*
X134887871Y-119885208D01*
X134880240Y-119878253D01*
X134869717Y-119867581D01*
X134860302Y-119856621D01*
X134851995Y-119845373D01*
X134844795Y-119833836D01*
X134838702Y-119822012D01*
X134833718Y-119809899D01*
X134829841Y-119797499D01*
X134827072Y-119784810D01*
X134825410Y-119771833D01*
X134824856Y-119758568D01*
X134824856Y-119291639D01*
X134885819Y-119291639D01*
X134896941Y-119291432D01*
X134910808Y-119290513D01*
X134923576Y-119288858D01*
X134937990Y-119285754D01*
X134950687Y-119281501D01*
X134961666Y-119276099D01*
X134972575Y-119268099D01*
X134975733Y-119265062D01*
X134983987Y-119255268D01*
X134990406Y-119244446D01*
X134994991Y-119232598D01*
X134997743Y-119219723D01*
X134998660Y-119205822D01*
X134998558Y-119201075D01*
X134997029Y-119187534D01*
X134993667Y-119175040D01*
X134988470Y-119163593D01*
X134981439Y-119153194D01*
X134972575Y-119143843D01*
X134963656Y-119136976D01*
X134953020Y-119131272D01*
X134940666Y-119126733D01*
X134926596Y-119123357D01*
X134914103Y-119121495D01*
X134900511Y-119120377D01*
X134885819Y-119120005D01*
X134663949Y-119120005D01*
X134649057Y-119120377D01*
X134635300Y-119121495D01*
X134622678Y-119123357D01*
X134611193Y-119125964D01*
X134598433Y-119130271D01*
X134587448Y-119135742D01*
X134576608Y-119143843D01*
X134573520Y-119146844D01*
X134565452Y-119156544D01*
X134559177Y-119167292D01*
X134554695Y-119179088D01*
X134552006Y-119191931D01*
X134551109Y-119205822D01*
X134467871Y-119205822D01*
X134467871Y-119120005D01*
X133592407Y-119120005D01*
X133115840Y-119120005D01*
X132750648Y-119120005D01*
X132739524Y-119120214D01*
X132725646Y-119121146D01*
X132712858Y-119122822D01*
X132698405Y-119125964D01*
X132685655Y-119130271D01*
X132674608Y-119135742D01*
X132663600Y-119143843D01*
X132660442Y-119146844D01*
X132652188Y-119156544D01*
X132645769Y-119167292D01*
X132641183Y-119179088D01*
X132638432Y-119191931D01*
X132637515Y-119205822D01*
X132637617Y-119210570D01*
X132639146Y-119224129D01*
X132642508Y-119236661D01*
X132647705Y-119248167D01*
X132654735Y-119258647D01*
X132663600Y-119268099D01*
X132672603Y-119274881D01*
X132683310Y-119280513D01*
X132695719Y-119284996D01*
X132709831Y-119288329D01*
X132722347Y-119290168D01*
X132735953Y-119291271D01*
X132750648Y-119291639D01*
X132861144Y-119291639D01*
X132716303Y-119634908D01*
X132595603Y-119920965D01*
X132580481Y-119921338D01*
X132566477Y-119922455D01*
X132553590Y-119924317D01*
X132541821Y-119926925D01*
X132528680Y-119931231D01*
X132517286Y-119936702D01*
X132505917Y-119944803D01*
X132502616Y-119947804D01*
X132493992Y-119957505D01*
X132487284Y-119968253D01*
X132482493Y-119980048D01*
X132479618Y-119992892D01*
X132478660Y-120006782D01*
X132323614Y-120006782D01*
X132323512Y-120002036D01*
X132321984Y-119988494D01*
X132318621Y-119976000D01*
X132313425Y-119964554D01*
X132306394Y-119954155D01*
X132297529Y-119944803D01*
X132288526Y-119937936D01*
X132277820Y-119932232D01*
X132265411Y-119927693D01*
X132251299Y-119924317D01*
X132238783Y-119922455D01*
X132225177Y-119921338D01*
X132210481Y-119920965D01*
X132096762Y-119920965D01*
X132096762Y-119291639D01*
X132282288Y-119291639D01*
X132282288Y-119463274D01*
X132282494Y-119474530D01*
X132283410Y-119488577D01*
X132285059Y-119501525D01*
X132288150Y-119516164D01*
X132292386Y-119529087D01*
X132297767Y-119540293D01*
X132305736Y-119551475D01*
X132308720Y-119554650D01*
X132318320Y-119562947D01*
X132328889Y-119569400D01*
X132340426Y-119574009D01*
X132352931Y-119576775D01*
X132366406Y-119577696D01*
X132371076Y-119577594D01*
X132384412Y-119576058D01*
X132396739Y-119572677D01*
X132408057Y-119567454D01*
X132418364Y-119560386D01*
X132427662Y-119551475D01*
X132434501Y-119542329D01*
X132440181Y-119531466D01*
X132444702Y-119518886D01*
X132448064Y-119504590D01*
X132449918Y-119491917D01*
X132451031Y-119478144D01*
X132451402Y-119463274D01*
X132451402Y-119120005D01*
X131575938Y-119120005D01*
X131291346Y-119120005D01*
X131279026Y-119122016D01*
X131266685Y-119128050D01*
X131256386Y-119136152D01*
X131248136Y-119144644D01*
X131239876Y-119154924D01*
X131231608Y-119166992D01*
X131225401Y-119177216D01*
X131213883Y-119167844D01*
X131202045Y-119159096D01*
X131189886Y-119150971D01*
X131177407Y-119143471D01*
X131164607Y-119136594D01*
X131151487Y-119130341D01*
X131138046Y-119124712D01*
X131124284Y-119119707D01*
X131113813Y-119116352D01*
X131099586Y-119112392D01*
X131085058Y-119109019D01*
X131070227Y-119106233D01*
X131055094Y-119104033D01*
X131039658Y-119102419D01*
X131027883Y-119101594D01*
X131015939Y-119101099D01*
X131003824Y-119100934D01*
X130983765Y-119101277D01*
X130964183Y-119102303D01*
X130945077Y-119104014D01*
X130926448Y-119106410D01*
X130908294Y-119109490D01*
X130890617Y-119113254D01*
X130873416Y-119117703D01*
X130856692Y-119122836D01*
X130840443Y-119128653D01*
X130824672Y-119135155D01*
X130809376Y-119142342D01*
X130794556Y-119150212D01*
X130780213Y-119158767D01*
X130766346Y-119168007D01*
X130752956Y-119177931D01*
X130740041Y-119188539D01*
X130727761Y-119199567D01*
X130716273Y-119210823D01*
X130705578Y-119222306D01*
X130695675Y-119234018D01*
X130686564Y-119245958D01*
X130678245Y-119258126D01*
X130670718Y-119270523D01*
X130663984Y-119283147D01*
X130658042Y-119296000D01*
X130652892Y-119309080D01*
X130648535Y-119322389D01*
X130644970Y-119335926D01*
X130642197Y-119349691D01*
X130640216Y-119363684D01*
X130639028Y-119377906D01*
X130638632Y-119392355D01*
X130638792Y-119401516D01*
X130639634Y-119415108D01*
X130641196Y-119428522D01*
X130643480Y-119441758D01*
X130646486Y-119454816D01*
X130650212Y-119467696D01*
X130654660Y-119480398D01*
X130659829Y-119492922D01*
X130665720Y-119505267D01*
X130672332Y-119517435D01*
X130679665Y-119529424D01*
X130684946Y-119537210D01*
X130693302Y-119548474D01*
X130702178Y-119559241D01*
X130711574Y-119569509D01*
X130721491Y-119579281D01*
X130731928Y-119588554D01*
X130742885Y-119597330D01*
X130754363Y-119605609D01*
X130766361Y-119613390D01*
X130778880Y-119620673D01*
X130791919Y-119627459D01*
X130801048Y-119631775D01*
X130815729Y-119638091D01*
X130831596Y-119644220D01*
X130842832Y-119648200D01*
X130854594Y-119652097D01*
X130866884Y-119655911D01*
X130879699Y-119659640D01*
X130893042Y-119663286D01*
X130906911Y-119666847D01*
X130921307Y-119670325D01*
X130936229Y-119673719D01*
X130951679Y-119677030D01*
X130967654Y-119680256D01*
X130984157Y-119683399D01*
X131001186Y-119686458D01*
X131008268Y-119687697D01*
X131021954Y-119690128D01*
X131035002Y-119692493D01*
X131047410Y-119694793D01*
X131064824Y-119698121D01*
X131080802Y-119701302D01*
X131095341Y-119704336D01*
X131108444Y-119707224D01*
X131123678Y-119710846D01*
X131136356Y-119714208D01*
X131148611Y-119718043D01*
X131154802Y-119720201D01*
X131166526Y-119724727D01*
X131179944Y-119730777D01*
X131191988Y-119737263D01*
X131202659Y-119744186D01*
X131211955Y-119751545D01*
X131221297Y-119760952D01*
X131226518Y-119767489D01*
X131233979Y-119779197D01*
X131239309Y-119791248D01*
X131242507Y-119803641D01*
X131243572Y-119816375D01*
X131242849Y-119827182D01*
X131239909Y-119840074D01*
X131234709Y-119852283D01*
X131227247Y-119863808D01*
X131217524Y-119874648D01*
X131208118Y-119882829D01*
X131197264Y-119890572D01*
X131188056Y-119896561D01*
X131173646Y-119904821D01*
X131158521Y-119912212D01*
X131142679Y-119918733D01*
X131126122Y-119924385D01*
X131114685Y-119927670D01*
X131102931Y-119930568D01*
X131090858Y-119933080D01*
X131078467Y-119935205D01*
X131065758Y-119936944D01*
X131052730Y-119938297D01*
X131039384Y-119939263D01*
X131025720Y-119939842D01*
X131011737Y-119940036D01*
X131002733Y-119939936D01*
X130989393Y-119939410D01*
X130976255Y-119938434D01*
X130963317Y-119937008D01*
X130950581Y-119935131D01*
X130938045Y-119932803D01*
X130925710Y-119930026D01*
X130913576Y-119926797D01*
X130901644Y-119923119D01*
X130889912Y-119918989D01*
X130878381Y-119914410D01*
X130874606Y-119912809D01*
X130863717Y-119908017D01*
X130850207Y-119901653D01*
X130837851Y-119895316D01*
X130826650Y-119889007D01*
X130814271Y-119881161D01*
X130803695Y-119873358D01*
X130793384Y-119864052D01*
X130792670Y-119863228D01*
X130785595Y-119852532D01*
X130780017Y-119840748D01*
X130775196Y-119828084D01*
X130771109Y-119815482D01*
X130768320Y-119806864D01*
X130763570Y-119795141D01*
X130757169Y-119783292D01*
X130749842Y-119773411D01*
X130740334Y-119764528D01*
X130737769Y-119762687D01*
X130726750Y-119756514D01*
X130714523Y-119752240D01*
X130702832Y-119750058D01*
X130690216Y-119749331D01*
X130685439Y-119749434D01*
X130671824Y-119750988D01*
X130659281Y-119754407D01*
X130647809Y-119759690D01*
X130637409Y-119766838D01*
X130628080Y-119775851D01*
X130621326Y-119784911D01*
X130615716Y-119795702D01*
X130611251Y-119808225D01*
X130607930Y-119822479D01*
X130606099Y-119835129D01*
X130605000Y-119848887D01*
X130604633Y-119863754D01*
X130604633Y-119979071D01*
X130430347Y-119979071D01*
X130430347Y-118926648D01*
X136627265Y-118926648D01*
X136627265Y-120285956D01*
G37*
G36*
X163630019Y-119472939D02*
G01*
X163644555Y-119474049D01*
X163658889Y-119475900D01*
X163673021Y-119478491D01*
X163686952Y-119481822D01*
X163700682Y-119485894D01*
X163714210Y-119490706D01*
X163727536Y-119496258D01*
X163740661Y-119502550D01*
X163753585Y-119509583D01*
X163766307Y-119517356D01*
X163778827Y-119525869D01*
X163791146Y-119535123D01*
X163803264Y-119545117D01*
X163815180Y-119555851D01*
X163826894Y-119567325D01*
X163838180Y-119579364D01*
X163848739Y-119591792D01*
X163858569Y-119604608D01*
X163867670Y-119617814D01*
X163876044Y-119631408D01*
X163883690Y-119645390D01*
X163890607Y-119659762D01*
X163896796Y-119674522D01*
X163902258Y-119689671D01*
X163906991Y-119705209D01*
X163910995Y-119721136D01*
X163914272Y-119737451D01*
X163916821Y-119754155D01*
X163918641Y-119771248D01*
X163919733Y-119788730D01*
X163920097Y-119806600D01*
X163919733Y-119824506D01*
X163918641Y-119842017D01*
X163916821Y-119859136D01*
X163914272Y-119875861D01*
X163910995Y-119892193D01*
X163906991Y-119908131D01*
X163902258Y-119923676D01*
X163896796Y-119938827D01*
X163890607Y-119953585D01*
X163883690Y-119967950D01*
X163876044Y-119981921D01*
X163867670Y-119995499D01*
X163858569Y-120008683D01*
X163848739Y-120021474D01*
X163838180Y-120033871D01*
X163826894Y-120045875D01*
X163815180Y-120057277D01*
X163803264Y-120067944D01*
X163791146Y-120077875D01*
X163778827Y-120087070D01*
X163766307Y-120095530D01*
X163753585Y-120103254D01*
X163740661Y-120110243D01*
X163727536Y-120116496D01*
X163714210Y-120122013D01*
X163700682Y-120126794D01*
X163686952Y-120130840D01*
X163673021Y-120134151D01*
X163658889Y-120136725D01*
X163644555Y-120138564D01*
X163630019Y-120139668D01*
X163615282Y-120140036D01*
X163600615Y-120139666D01*
X163586142Y-120138555D01*
X163571865Y-120136704D01*
X163557781Y-120134113D01*
X163543893Y-120130782D01*
X163530199Y-120126711D01*
X163516699Y-120121899D01*
X163503394Y-120116347D01*
X163490284Y-120110054D01*
X163477369Y-120103021D01*
X163464648Y-120095248D01*
X163452122Y-120086735D01*
X163439790Y-120077482D01*
X163427653Y-120067488D01*
X163415711Y-120056754D01*
X163403963Y-120045279D01*
X163392712Y-120033243D01*
X163382187Y-120020822D01*
X163372388Y-120008017D01*
X163363315Y-119994828D01*
X163354968Y-119981255D01*
X163347346Y-119967298D01*
X163340451Y-119952957D01*
X163334281Y-119938231D01*
X163328837Y-119923122D01*
X163324119Y-119907628D01*
X163320126Y-119891750D01*
X163316860Y-119875489D01*
X163314320Y-119858843D01*
X163312505Y-119841813D01*
X163311416Y-119824398D01*
X163311053Y-119806600D01*
X163311416Y-119788837D01*
X163312505Y-119771453D01*
X163314320Y-119754449D01*
X163316860Y-119737824D01*
X163320126Y-119721578D01*
X163324119Y-119705712D01*
X163328837Y-119690225D01*
X163334281Y-119675118D01*
X163340451Y-119660390D01*
X163347346Y-119646042D01*
X163354968Y-119632073D01*
X163363315Y-119618484D01*
X163372388Y-119605274D01*
X163382187Y-119592444D01*
X163392712Y-119579993D01*
X163403963Y-119567921D01*
X163415711Y-119556375D01*
X163427653Y-119545573D01*
X163439790Y-119535516D01*
X163452122Y-119526205D01*
X163464648Y-119517638D01*
X163477369Y-119509816D01*
X163490284Y-119502739D01*
X163503394Y-119496407D01*
X163516699Y-119490820D01*
X163530199Y-119485978D01*
X163543893Y-119481881D01*
X163557781Y-119478528D01*
X163571865Y-119475921D01*
X163586142Y-119474059D01*
X163600615Y-119472941D01*
X163615282Y-119472569D01*
X163630019Y-119472939D01*
G37*
G36*
X162715462Y-119491796D02*
G01*
X162732781Y-119492621D01*
X162749307Y-119494153D01*
X162765039Y-119496393D01*
X162779978Y-119499339D01*
X162794124Y-119502992D01*
X162807476Y-119507353D01*
X162820035Y-119512421D01*
X162831801Y-119518195D01*
X162842773Y-119524677D01*
X162852951Y-119531866D01*
X162856179Y-119534375D01*
X162865247Y-119542058D01*
X162875904Y-119552669D01*
X162884921Y-119563698D01*
X162892299Y-119575147D01*
X162898037Y-119587015D01*
X162902136Y-119599302D01*
X162904595Y-119612008D01*
X162905415Y-119625133D01*
X162905351Y-119629045D01*
X162903833Y-119644344D01*
X162900291Y-119659084D01*
X162894725Y-119673266D01*
X162887134Y-119686889D01*
X162880113Y-119696740D01*
X162871953Y-119706276D01*
X162862654Y-119715499D01*
X162852217Y-119724406D01*
X162840642Y-119733000D01*
X162832366Y-119738413D01*
X162819284Y-119745876D01*
X162805397Y-119752555D01*
X162790707Y-119758447D01*
X162775213Y-119763554D01*
X162758916Y-119767876D01*
X162741815Y-119771411D01*
X162729967Y-119773332D01*
X162717763Y-119774903D01*
X162705201Y-119776125D01*
X162692282Y-119776998D01*
X162679006Y-119777522D01*
X162665373Y-119777696D01*
X162508862Y-119777696D01*
X162508862Y-119491639D01*
X162703475Y-119491639D01*
X162715462Y-119491796D01*
G37*
G36*
X166670832Y-119491792D02*
G01*
X166688274Y-119492592D01*
X166704887Y-119494079D01*
X166720670Y-119496252D01*
X166735624Y-119499111D01*
X166749748Y-119502656D01*
X166763043Y-119506887D01*
X166775508Y-119511805D01*
X166787144Y-119517408D01*
X166797950Y-119523698D01*
X166807927Y-119530674D01*
X166811083Y-119533120D01*
X166822703Y-119543033D01*
X166832721Y-119553150D01*
X166841136Y-119563472D01*
X166847948Y-119573999D01*
X166854209Y-119587446D01*
X166857966Y-119601212D01*
X166859218Y-119615299D01*
X166859113Y-119619139D01*
X166857085Y-119632634D01*
X166853293Y-119644269D01*
X166847605Y-119655967D01*
X166840022Y-119667728D01*
X166832254Y-119677576D01*
X166822681Y-119687288D01*
X166813240Y-119694964D01*
X166802215Y-119702555D01*
X166789605Y-119710063D01*
X166779108Y-119715638D01*
X166767719Y-119721167D01*
X166755440Y-119726648D01*
X166742268Y-119732083D01*
X166728206Y-119737470D01*
X166724582Y-119738771D01*
X166709776Y-119743565D01*
X166698347Y-119746726D01*
X166686640Y-119749515D01*
X166674655Y-119751932D01*
X166662392Y-119753977D01*
X166649850Y-119755651D01*
X166637030Y-119756953D01*
X166623932Y-119757882D01*
X166610556Y-119758440D01*
X166596901Y-119758626D01*
X166465010Y-119758626D01*
X166465010Y-119491639D01*
X166658743Y-119491639D01*
X166670832Y-119491792D01*
G37*
G36*
X167355904Y-120485956D02*
G01*
X162026244Y-120485956D01*
X162026244Y-120206782D01*
X162200530Y-120206782D01*
X162200631Y-120211530D01*
X162202142Y-120225089D01*
X162205467Y-120237622D01*
X162210605Y-120249128D01*
X162217557Y-120259607D01*
X162226322Y-120269059D01*
X162235325Y-120275841D01*
X162246031Y-120281473D01*
X162258440Y-120285956D01*
X162272552Y-120289289D01*
X162285068Y-120291128D01*
X162298674Y-120292232D01*
X162313370Y-120292600D01*
X162679441Y-120292600D01*
X162690565Y-120292393D01*
X162704444Y-120291473D01*
X162717232Y-120289818D01*
X162731685Y-120286714D01*
X162744435Y-120282462D01*
X162755481Y-120277059D01*
X162766489Y-120269059D01*
X162769648Y-120266023D01*
X162777902Y-120256228D01*
X162784321Y-120245406D01*
X162788906Y-120233558D01*
X162791657Y-120220684D01*
X162792575Y-120206782D01*
X162792473Y-120202036D01*
X162790944Y-120188494D01*
X162787582Y-120176000D01*
X162782385Y-120164554D01*
X162775354Y-120154155D01*
X162766489Y-120144803D01*
X162757486Y-120137936D01*
X162746780Y-120132232D01*
X162734371Y-120127693D01*
X162720259Y-120124317D01*
X162707743Y-120122455D01*
X162694137Y-120121338D01*
X162679441Y-120120965D01*
X162508862Y-120120965D01*
X162508862Y-119949331D01*
X162668890Y-119949331D01*
X162675226Y-119949309D01*
X162687664Y-119949132D01*
X162699790Y-119948778D01*
X162717397Y-119947915D01*
X162734302Y-119946655D01*
X162750507Y-119944996D01*
X162766011Y-119942939D01*
X162780814Y-119940485D01*
X162794917Y-119937632D01*
X162808319Y-119934381D01*
X162821020Y-119930732D01*
X162833021Y-119926685D01*
X162840814Y-119923726D01*
X162852466Y-119918947D01*
X162864071Y-119913760D01*
X162875629Y-119908164D01*
X162887141Y-119902160D01*
X162898607Y-119895747D01*
X162910026Y-119888925D01*
X162921399Y-119881695D01*
X162932726Y-119874057D01*
X162944006Y-119866010D01*
X162955240Y-119857554D01*
X162958944Y-119854648D01*
X162969652Y-119845919D01*
X162979758Y-119837174D01*
X162989261Y-119828414D01*
X162998161Y-119819638D01*
X163006458Y-119810846D01*
X163010118Y-119806600D01*
X163141939Y-119806600D01*
X163142104Y-119821301D01*
X163142597Y-119835831D01*
X163143418Y-119850189D01*
X163144568Y-119864375D01*
X163146047Y-119878389D01*
X163147854Y-119892232D01*
X163149990Y-119905903D01*
X163152454Y-119919403D01*
X163155247Y-119932731D01*
X163158369Y-119945887D01*
X163161819Y-119958871D01*
X163165597Y-119971684D01*
X163169705Y-119984325D01*
X163174141Y-119996794D01*
X163178905Y-120009092D01*
X163183998Y-120021218D01*
X163189420Y-120033172D01*
X163195170Y-120044954D01*
X163201249Y-120056565D01*
X163207656Y-120068005D01*
X163214392Y-120079272D01*
X163221457Y-120090368D01*
X163228850Y-120101292D01*
X163236571Y-120112045D01*
X163244622Y-120122625D01*
X163253001Y-120133034D01*
X163261708Y-120143272D01*
X163270744Y-120153337D01*
X163280109Y-120163232D01*
X163289802Y-120172954D01*
X163299824Y-120182505D01*
X163310174Y-120191884D01*
X163327303Y-120206389D01*
X163344690Y-120219958D01*
X163362336Y-120232592D01*
X163380241Y-120244290D01*
X163398405Y-120255052D01*
X163416827Y-120264878D01*
X163435508Y-120273769D01*
X163454448Y-120281723D01*
X163473647Y-120288742D01*
X163493104Y-120294825D01*
X163512820Y-120299972D01*
X163532795Y-120304183D01*
X163553029Y-120307459D01*
X163573521Y-120309798D01*
X163594272Y-120311202D01*
X163615282Y-120311670D01*
X163638591Y-120311108D01*
X163661549Y-120309421D01*
X163684157Y-120306610D01*
X163706415Y-120302675D01*
X163728323Y-120297615D01*
X163749880Y-120291431D01*
X163771087Y-120284122D01*
X163791943Y-120275689D01*
X163812449Y-120266132D01*
X163832605Y-120255450D01*
X163852410Y-120243644D01*
X163871865Y-120230714D01*
X163881462Y-120223827D01*
X163890970Y-120216659D01*
X163900391Y-120209210D01*
X163909725Y-120201479D01*
X163918970Y-120193468D01*
X163928129Y-120185176D01*
X163937199Y-120176602D01*
X163946182Y-120167747D01*
X163954982Y-120158663D01*
X163963502Y-120149436D01*
X163971743Y-120140067D01*
X163979705Y-120130556D01*
X163987387Y-120120903D01*
X163994790Y-120111109D01*
X164001913Y-120101172D01*
X164008757Y-120091093D01*
X164015322Y-120080872D01*
X164021608Y-120070509D01*
X164027614Y-120060005D01*
X164033340Y-120049358D01*
X164038788Y-120038569D01*
X164043956Y-120027638D01*
X164048844Y-120016565D01*
X164053454Y-120005350D01*
X164057784Y-119993994D01*
X164061834Y-119982495D01*
X164065606Y-119970854D01*
X164069098Y-119959071D01*
X164072310Y-119947146D01*
X164075243Y-119935079D01*
X164077897Y-119922870D01*
X164080272Y-119910519D01*
X164082367Y-119898027D01*
X164084183Y-119885392D01*
X164085719Y-119872615D01*
X164086976Y-119859696D01*
X164087954Y-119846635D01*
X164088652Y-119833432D01*
X164089071Y-119820087D01*
X164089211Y-119806600D01*
X164089071Y-119793077D01*
X164088652Y-119779697D01*
X164087954Y-119766462D01*
X164086976Y-119753370D01*
X164085719Y-119740421D01*
X164084183Y-119727617D01*
X164082367Y-119714956D01*
X164080272Y-119702439D01*
X164077897Y-119690066D01*
X164075243Y-119677836D01*
X164072310Y-119665750D01*
X164069098Y-119653808D01*
X164065606Y-119642010D01*
X164061834Y-119630355D01*
X164057784Y-119618845D01*
X164053454Y-119607478D01*
X164048844Y-119596254D01*
X164043956Y-119585175D01*
X164038788Y-119574239D01*
X164033340Y-119563447D01*
X164027614Y-119552799D01*
X164021608Y-119542294D01*
X164015322Y-119531933D01*
X164008757Y-119521716D01*
X164001913Y-119511643D01*
X163994790Y-119501713D01*
X163987387Y-119491928D01*
X163979705Y-119482286D01*
X163971743Y-119472787D01*
X163963502Y-119463433D01*
X163954982Y-119454222D01*
X163946182Y-119445155D01*
X163937199Y-119436282D01*
X163928129Y-119427691D01*
X163918970Y-119419381D01*
X163909725Y-119411353D01*
X163903060Y-119405822D01*
X164098297Y-119405822D01*
X164098987Y-119419723D01*
X164101058Y-119432598D01*
X164104510Y-119444446D01*
X164110282Y-119456971D01*
X164117934Y-119468099D01*
X164127551Y-119477272D01*
X164138963Y-119484191D01*
X164150174Y-119488329D01*
X164162704Y-119490812D01*
X164176552Y-119491639D01*
X164277083Y-120292600D01*
X164466713Y-120292600D01*
X164623517Y-119829544D01*
X164785889Y-120292600D01*
X164972002Y-120292600D01*
X164982428Y-120206782D01*
X165149323Y-120206782D01*
X165149424Y-120211530D01*
X165150953Y-120225089D01*
X165154315Y-120237622D01*
X165159512Y-120249128D01*
X165166543Y-120259607D01*
X165175408Y-120269059D01*
X165184411Y-120275841D01*
X165195117Y-120281473D01*
X165207526Y-120285956D01*
X165221638Y-120289289D01*
X165234154Y-120291128D01*
X165247760Y-120292232D01*
X165262456Y-120292600D01*
X166057906Y-120292600D01*
X166057906Y-120206782D01*
X166156971Y-120206782D01*
X166157072Y-120211530D01*
X166158583Y-120225089D01*
X166161908Y-120237622D01*
X166167046Y-120249128D01*
X166173998Y-120259607D01*
X166182763Y-120269059D01*
X166191766Y-120275841D01*
X166202472Y-120281473D01*
X166214881Y-120285956D01*
X166228994Y-120289289D01*
X166241509Y-120291128D01*
X166255115Y-120292232D01*
X166269811Y-120292600D01*
X166526266Y-120292600D01*
X166537388Y-120292393D01*
X166551254Y-120291473D01*
X166564022Y-120289818D01*
X166578436Y-120286714D01*
X166591133Y-120282462D01*
X166602113Y-120277059D01*
X166613021Y-120269059D01*
X166616180Y-120266023D01*
X166624433Y-120256228D01*
X166630853Y-120245406D01*
X166635438Y-120233558D01*
X166638189Y-120220684D01*
X166639106Y-120206782D01*
X166639004Y-120202036D01*
X166637476Y-120188494D01*
X166634113Y-120176000D01*
X166628917Y-120164554D01*
X166621886Y-120154155D01*
X166613021Y-120144803D01*
X166604102Y-120137936D01*
X166593466Y-120132232D01*
X166581113Y-120127693D01*
X166567042Y-120124317D01*
X166554549Y-120122455D01*
X166540957Y-120121338D01*
X166526266Y-120120965D01*
X166465010Y-120120965D01*
X166465010Y-119930260D01*
X166632365Y-119930260D01*
X166640879Y-119934313D01*
X166658317Y-119943825D01*
X166676306Y-119955213D01*
X166694844Y-119968478D01*
X166704319Y-119975813D01*
X166713932Y-119983618D01*
X166723681Y-119991893D01*
X166733569Y-120000636D01*
X166743593Y-120009848D01*
X166753755Y-120019529D01*
X166764055Y-120029680D01*
X166774492Y-120040299D01*
X166785066Y-120051388D01*
X166795777Y-120062945D01*
X166806626Y-120074972D01*
X166817613Y-120087468D01*
X166828736Y-120100433D01*
X166839998Y-120113867D01*
X166851396Y-120127770D01*
X166862932Y-120142142D01*
X166874605Y-120156983D01*
X166886416Y-120172293D01*
X166898364Y-120188073D01*
X166910449Y-120204321D01*
X166922672Y-120221039D01*
X166935032Y-120238225D01*
X166947530Y-120255881D01*
X166960165Y-120274006D01*
X166972937Y-120292600D01*
X167069364Y-120292600D01*
X167080483Y-120292393D01*
X167094339Y-120291473D01*
X167107086Y-120289818D01*
X167121461Y-120286714D01*
X167134105Y-120282462D01*
X167145018Y-120277059D01*
X167155826Y-120269059D01*
X167158950Y-120266023D01*
X167167110Y-120256228D01*
X167173458Y-120245406D01*
X167177991Y-120233558D01*
X167180712Y-120220684D01*
X167181618Y-120206782D01*
X167180310Y-120192619D01*
X167176384Y-120178959D01*
X167171113Y-120167959D01*
X167164025Y-120157309D01*
X167155119Y-120147008D01*
X167144396Y-120137056D01*
X167138580Y-120133285D01*
X167127280Y-120128571D01*
X167115502Y-120125506D01*
X167101577Y-120123228D01*
X167088892Y-120121971D01*
X167074832Y-120121217D01*
X167059399Y-120120965D01*
X167051479Y-120109683D01*
X167043765Y-120098780D01*
X167036257Y-120088256D01*
X167028954Y-120078112D01*
X167021858Y-120068348D01*
X167011601Y-120054413D01*
X167001807Y-120041331D01*
X166992477Y-120029103D01*
X166983610Y-120017729D01*
X166975207Y-120007209D01*
X166967268Y-119997542D01*
X166957404Y-119985982D01*
X166949812Y-119977622D01*
X166938531Y-119965441D01*
X166927380Y-119953689D01*
X166916357Y-119942366D01*
X166905463Y-119931473D01*
X166894698Y-119921010D01*
X166884062Y-119910976D01*
X166873555Y-119901371D01*
X166863176Y-119892196D01*
X166852926Y-119883451D01*
X166842805Y-119875135D01*
X166848566Y-119872029D01*
X166859813Y-119865735D01*
X166870694Y-119859328D01*
X166881209Y-119852810D01*
X166891357Y-119846180D01*
X166901139Y-119839438D01*
X166915125Y-119829116D01*
X166928287Y-119818543D01*
X166940624Y-119807718D01*
X166952137Y-119796641D01*
X166962826Y-119785314D01*
X166972690Y-119773734D01*
X166981730Y-119761904D01*
X166987338Y-119753842D01*
X166995071Y-119741549D01*
X167001990Y-119729015D01*
X167008095Y-119716239D01*
X167013386Y-119703223D01*
X167017863Y-119689966D01*
X167021526Y-119676468D01*
X167024376Y-119662729D01*
X167026411Y-119648750D01*
X167027632Y-119634529D01*
X167028039Y-119620067D01*
X167027654Y-119604535D01*
X167026500Y-119589301D01*
X167024576Y-119574365D01*
X167021884Y-119559727D01*
X167018422Y-119545387D01*
X167014190Y-119531345D01*
X167009189Y-119517600D01*
X167003419Y-119504154D01*
X166996879Y-119491006D01*
X166989570Y-119478156D01*
X166981492Y-119465604D01*
X166972644Y-119453349D01*
X166963027Y-119441393D01*
X166952641Y-119429735D01*
X166941485Y-119418374D01*
X166929560Y-119407312D01*
X166916936Y-119396740D01*
X166903685Y-119386849D01*
X166889807Y-119377641D01*
X166875301Y-119369115D01*
X166860168Y-119361271D01*
X166844408Y-119354109D01*
X166828020Y-119347629D01*
X166811004Y-119341832D01*
X166793362Y-119336716D01*
X166775092Y-119332282D01*
X166756194Y-119328531D01*
X166736669Y-119325462D01*
X166716517Y-119323074D01*
X166695737Y-119321369D01*
X166674330Y-119320346D01*
X166652295Y-119320005D01*
X166269811Y-119320005D01*
X166258687Y-119320214D01*
X166244809Y-119321146D01*
X166232020Y-119322822D01*
X166217568Y-119325964D01*
X166204818Y-119330271D01*
X166193771Y-119335742D01*
X166182763Y-119343843D01*
X166179640Y-119346844D01*
X166171479Y-119356544D01*
X166165132Y-119367292D01*
X166160598Y-119379088D01*
X166157878Y-119391931D01*
X166156971Y-119405822D01*
X166157072Y-119410570D01*
X166158583Y-119424129D01*
X166161908Y-119436661D01*
X166167046Y-119448167D01*
X166173998Y-119458647D01*
X166182763Y-119468099D01*
X166191766Y-119474881D01*
X166202472Y-119480513D01*
X166214881Y-119484996D01*
X166228994Y-119488329D01*
X166241509Y-119490168D01*
X166255115Y-119491271D01*
X166269811Y-119491639D01*
X166296189Y-119491639D01*
X166296189Y-120120965D01*
X166269811Y-120120965D01*
X166258842Y-120121175D01*
X166245137Y-120122106D01*
X166232486Y-120123782D01*
X166218154Y-120126925D01*
X166205467Y-120131231D01*
X166194426Y-120136702D01*
X166183349Y-120144803D01*
X166180155Y-120147804D01*
X166171809Y-120157505D01*
X166165317Y-120168253D01*
X166160680Y-120180048D01*
X166157898Y-120192892D01*
X166156971Y-120206782D01*
X166057906Y-120206782D01*
X166057906Y-120025613D01*
X166057697Y-120014359D01*
X166056770Y-120000324D01*
X166055101Y-119987397D01*
X166051971Y-119972796D01*
X166047682Y-119959927D01*
X166042234Y-119948790D01*
X166034166Y-119937710D01*
X166031182Y-119934498D01*
X166021599Y-119926107D01*
X166011069Y-119919581D01*
X165999590Y-119914919D01*
X165987163Y-119912122D01*
X165973789Y-119911190D01*
X165969118Y-119911293D01*
X165955764Y-119912847D01*
X165943399Y-119916266D01*
X165932023Y-119921549D01*
X165921637Y-119928697D01*
X165912240Y-119937710D01*
X165905485Y-119946770D01*
X165899875Y-119957561D01*
X165895410Y-119970084D01*
X165892090Y-119984338D01*
X165890258Y-119996988D01*
X165889159Y-120010747D01*
X165888792Y-120025613D01*
X165888792Y-120120965D01*
X165457655Y-120120965D01*
X165457655Y-119873049D01*
X165606252Y-119873049D01*
X165606444Y-119887771D01*
X165607021Y-119901096D01*
X165608284Y-119915788D01*
X165610147Y-119928298D01*
X165613176Y-119940429D01*
X165618562Y-119951715D01*
X165621833Y-119956045D01*
X165630742Y-119965647D01*
X165640695Y-119973504D01*
X165651693Y-119979615D01*
X165663736Y-119983980D01*
X165676823Y-119986599D01*
X165690956Y-119987472D01*
X165696453Y-119987333D01*
X165709577Y-119985775D01*
X165721813Y-119982485D01*
X165733161Y-119977464D01*
X165743623Y-119970712D01*
X165753197Y-119962228D01*
X165761884Y-119952013D01*
X165763481Y-119949679D01*
X165768259Y-119938779D01*
X165771350Y-119926055D01*
X165773218Y-119913066D01*
X165774248Y-119901115D01*
X165774867Y-119887775D01*
X165775073Y-119873049D01*
X165775073Y-119701415D01*
X165774867Y-119690161D01*
X165773951Y-119676126D01*
X165772302Y-119663199D01*
X165769211Y-119648598D01*
X165764975Y-119635729D01*
X165759594Y-119624591D01*
X165751625Y-119613512D01*
X165748641Y-119610300D01*
X165739041Y-119601909D01*
X165728472Y-119595383D01*
X165716935Y-119590721D01*
X165704430Y-119587924D01*
X165690956Y-119586992D01*
X165685177Y-119587131D01*
X165671463Y-119588703D01*
X165658793Y-119592020D01*
X165647168Y-119597083D01*
X165636588Y-119603893D01*
X165627053Y-119612448D01*
X165618562Y-119622749D01*
X165617805Y-119623854D01*
X165612611Y-119635838D01*
X165609726Y-119648493D01*
X165607983Y-119661439D01*
X165607021Y-119673368D01*
X165606444Y-119686693D01*
X165606252Y-119701415D01*
X165457655Y-119701415D01*
X165457655Y-119491639D01*
X165851863Y-119491639D01*
X165851863Y-119586992D01*
X165852069Y-119598248D01*
X165852985Y-119612295D01*
X165854633Y-119625243D01*
X165857725Y-119639882D01*
X165861961Y-119652805D01*
X165867342Y-119664012D01*
X165875310Y-119675193D01*
X165878297Y-119678368D01*
X165887931Y-119686665D01*
X165898575Y-119693118D01*
X165910229Y-119697727D01*
X165922893Y-119700493D01*
X165936566Y-119701415D01*
X165941269Y-119701312D01*
X165954665Y-119699776D01*
X165966988Y-119696396D01*
X165978240Y-119691172D01*
X165988420Y-119684104D01*
X165997529Y-119675193D01*
X166004200Y-119666047D01*
X166009739Y-119655184D01*
X166014149Y-119642604D01*
X166017427Y-119628308D01*
X166019236Y-119615635D01*
X166020322Y-119601863D01*
X166020683Y-119586992D01*
X166020683Y-119320899D01*
X165262456Y-119320005D01*
X165251332Y-119320214D01*
X165237454Y-119321146D01*
X165224665Y-119322822D01*
X165210212Y-119325964D01*
X165197463Y-119330271D01*
X165186416Y-119335742D01*
X165175408Y-119343843D01*
X165172249Y-119346844D01*
X165163995Y-119356544D01*
X165157576Y-119367292D01*
X165152991Y-119379088D01*
X165150240Y-119391931D01*
X165149323Y-119405822D01*
X165149424Y-119410570D01*
X165150953Y-119424129D01*
X165154315Y-119436661D01*
X165159512Y-119448167D01*
X165166543Y-119458647D01*
X165175408Y-119468099D01*
X165184411Y-119474881D01*
X165195117Y-119480513D01*
X165207526Y-119484996D01*
X165221638Y-119488329D01*
X165234154Y-119490168D01*
X165247760Y-119491271D01*
X165262456Y-119491639D01*
X165288834Y-119491639D01*
X165288834Y-120120965D01*
X165262456Y-120120965D01*
X165251434Y-120121175D01*
X165237668Y-120122106D01*
X165224964Y-120123782D01*
X165210579Y-120126925D01*
X165197853Y-120131231D01*
X165186788Y-120136702D01*
X165175701Y-120144803D01*
X165172507Y-120147804D01*
X165164160Y-120157505D01*
X165157669Y-120168253D01*
X165153032Y-120180048D01*
X165150250Y-120192892D01*
X165149323Y-120206782D01*
X164982428Y-120206782D01*
X165069309Y-119491639D01*
X165083178Y-119490812D01*
X165095769Y-119488329D01*
X165107083Y-119484191D01*
X165118668Y-119477272D01*
X165128513Y-119468099D01*
X165129793Y-119466595D01*
X165137617Y-119455268D01*
X165142738Y-119444446D01*
X165146396Y-119432598D01*
X165148591Y-119419723D01*
X165149323Y-119405822D01*
X165149221Y-119401075D01*
X165147692Y-119387534D01*
X165144330Y-119375040D01*
X165139133Y-119363593D01*
X165132102Y-119353194D01*
X165123237Y-119343843D01*
X165114319Y-119336976D01*
X165103683Y-119331272D01*
X165091329Y-119326733D01*
X165077259Y-119323357D01*
X165064766Y-119321495D01*
X165051174Y-119320377D01*
X165036482Y-119320005D01*
X164812267Y-119320005D01*
X164801143Y-119320214D01*
X164787265Y-119321146D01*
X164774477Y-119322822D01*
X164760024Y-119325964D01*
X164747274Y-119330271D01*
X164736227Y-119335742D01*
X164725219Y-119343843D01*
X164722061Y-119346844D01*
X164713807Y-119356544D01*
X164707388Y-119367292D01*
X164702802Y-119379088D01*
X164700051Y-119391931D01*
X164699134Y-119405822D01*
X164699236Y-119410570D01*
X164700765Y-119424129D01*
X164704127Y-119436661D01*
X164709324Y-119448167D01*
X164716354Y-119458647D01*
X164725219Y-119468099D01*
X164734222Y-119474881D01*
X164744929Y-119480513D01*
X164757338Y-119484996D01*
X164771450Y-119488329D01*
X164783966Y-119490168D01*
X164797572Y-119491271D01*
X164812267Y-119491639D01*
X164900488Y-119491639D01*
X164844214Y-119947245D01*
X164712323Y-119567921D01*
X164536762Y-119567921D01*
X164404284Y-119947245D01*
X164348011Y-119491639D01*
X164436231Y-119491639D01*
X164447355Y-119491432D01*
X164461234Y-119490513D01*
X164474022Y-119488858D01*
X164488475Y-119485754D01*
X164501224Y-119481501D01*
X164512271Y-119476099D01*
X164523279Y-119468099D01*
X164526438Y-119465062D01*
X164534692Y-119455268D01*
X164541111Y-119444446D01*
X164545696Y-119432598D01*
X164548447Y-119419723D01*
X164549364Y-119405822D01*
X164549263Y-119401075D01*
X164547734Y-119387534D01*
X164544372Y-119375040D01*
X164539175Y-119363593D01*
X164532144Y-119353194D01*
X164523279Y-119343843D01*
X164514276Y-119336976D01*
X164503570Y-119331272D01*
X164491161Y-119326733D01*
X164477049Y-119323357D01*
X164464533Y-119321495D01*
X164450927Y-119320377D01*
X164436231Y-119320005D01*
X164211137Y-119320005D01*
X164200013Y-119320214D01*
X164186135Y-119321146D01*
X164173346Y-119322822D01*
X164158893Y-119325964D01*
X164146144Y-119330271D01*
X164135097Y-119335742D01*
X164124089Y-119343843D01*
X164120966Y-119346844D01*
X164112805Y-119356544D01*
X164106458Y-119367292D01*
X164101924Y-119379088D01*
X164099204Y-119391931D01*
X164098297Y-119405822D01*
X163903060Y-119405822D01*
X163900391Y-119403607D01*
X163890970Y-119396143D01*
X163881462Y-119388960D01*
X163871865Y-119382059D01*
X163852410Y-119369101D01*
X163832605Y-119357271D01*
X163812449Y-119346567D01*
X163791943Y-119336990D01*
X163771087Y-119328539D01*
X163749880Y-119321215D01*
X163728323Y-119315018D01*
X163706415Y-119309948D01*
X163684157Y-119306005D01*
X163661549Y-119303188D01*
X163638591Y-119301498D01*
X163615282Y-119300934D01*
X163594272Y-119301402D01*
X163573521Y-119302806D01*
X163553029Y-119305146D01*
X163532795Y-119308421D01*
X163512820Y-119312632D01*
X163493104Y-119317779D01*
X163473647Y-119323862D01*
X163454448Y-119330881D01*
X163435508Y-119338836D01*
X163416827Y-119347726D01*
X163398405Y-119357552D01*
X163380241Y-119368314D01*
X163362336Y-119380012D01*
X163344690Y-119392646D01*
X163327303Y-119406216D01*
X163310174Y-119420721D01*
X163299824Y-119430137D01*
X163289802Y-119439723D01*
X163280109Y-119449479D01*
X163270744Y-119459407D01*
X163261708Y-119469504D01*
X163253001Y-119479773D01*
X163244622Y-119490211D01*
X163236571Y-119500821D01*
X163228850Y-119511600D01*
X163221457Y-119522551D01*
X163214392Y-119533672D01*
X163207656Y-119544963D01*
X163201249Y-119556425D01*
X163195170Y-119568057D01*
X163189420Y-119579860D01*
X163183998Y-119591834D01*
X163178905Y-119603978D01*
X163174141Y-119616292D01*
X163169705Y-119628777D01*
X163165597Y-119641433D01*
X163161819Y-119654259D01*
X163158369Y-119667256D01*
X163155247Y-119680423D01*
X163152454Y-119693760D01*
X163149990Y-119707268D01*
X163147854Y-119720947D01*
X163146047Y-119734796D01*
X163144568Y-119748816D01*
X163143418Y-119763006D01*
X163142597Y-119777367D01*
X163142104Y-119791898D01*
X163141939Y-119806600D01*
X163010118Y-119806600D01*
X163016583Y-119799100D01*
X163025637Y-119787325D01*
X163033619Y-119775522D01*
X163040530Y-119763692D01*
X163044611Y-119755728D01*
X163050240Y-119743668D01*
X163055276Y-119731473D01*
X163059720Y-119719141D01*
X163063571Y-119706673D01*
X163066829Y-119694069D01*
X163069496Y-119681329D01*
X163071569Y-119668453D01*
X163073050Y-119655440D01*
X163073939Y-119642291D01*
X163074235Y-119629006D01*
X163073844Y-119612996D01*
X163072669Y-119597295D01*
X163070711Y-119581904D01*
X163067971Y-119566822D01*
X163064447Y-119552050D01*
X163060140Y-119537588D01*
X163055049Y-119523435D01*
X163049176Y-119509592D01*
X163042520Y-119496059D01*
X163035080Y-119482835D01*
X163026858Y-119469921D01*
X163017852Y-119457316D01*
X163008063Y-119445021D01*
X162997491Y-119433036D01*
X162986136Y-119421360D01*
X162973998Y-119409994D01*
X162961226Y-119399097D01*
X162947895Y-119388903D01*
X162934005Y-119379412D01*
X162919556Y-119370624D01*
X162904549Y-119362539D01*
X162888983Y-119355157D01*
X162872859Y-119348478D01*
X162856175Y-119342502D01*
X162838933Y-119337229D01*
X162821133Y-119332660D01*
X162802773Y-119328793D01*
X162783855Y-119325629D01*
X162764378Y-119323169D01*
X162744343Y-119321411D01*
X162723748Y-119320356D01*
X162702595Y-119320005D01*
X162313370Y-119320005D01*
X162302246Y-119320214D01*
X162288368Y-119321146D01*
X162275579Y-119322822D01*
X162261127Y-119325964D01*
X162248377Y-119330271D01*
X162237330Y-119335742D01*
X162226322Y-119343843D01*
X162223199Y-119346844D01*
X162215038Y-119356544D01*
X162208691Y-119367292D01*
X162204157Y-119379088D01*
X162201437Y-119391931D01*
X162200530Y-119405822D01*
X162200631Y-119410570D01*
X162202142Y-119424129D01*
X162205467Y-119436661D01*
X162210605Y-119448167D01*
X162217557Y-119458647D01*
X162226322Y-119468099D01*
X162235325Y-119474881D01*
X162246031Y-119480513D01*
X162258440Y-119484996D01*
X162272552Y-119488329D01*
X162285068Y-119490168D01*
X162298674Y-119491271D01*
X162313370Y-119491639D01*
X162339748Y-119491639D01*
X162339748Y-120120965D01*
X162313370Y-120120965D01*
X162302401Y-120121175D01*
X162288696Y-120122106D01*
X162276045Y-120123782D01*
X162261713Y-120126925D01*
X162249026Y-120131231D01*
X162237985Y-120136702D01*
X162226908Y-120144803D01*
X162223714Y-120147804D01*
X162215368Y-120157505D01*
X162208876Y-120168253D01*
X162204239Y-120180048D01*
X162201457Y-120192892D01*
X162200530Y-120206782D01*
X162026244Y-120206782D01*
X162026244Y-119126648D01*
X167355904Y-119126648D01*
X167355904Y-120485956D01*
G37*
D12*
X146288114Y-90000000D02*
G75*
G03*
X146288114Y-90000000I-188114J0D01*
G01*
D10*
X143790433Y-104400000D02*
X138554902Y-104399999D01*
X144590433Y-101900000D02*
G75*
G03*
X144590433Y-106899998I-2499999J-2499999D01*
G01*
X145197668Y-101399999D02*
G75*
G03*
X146409566Y-104399999I-3107234J-3000000D01*
G01*
D11*
G36*
X161281797Y-82346899D02*
G01*
X161295908Y-82348011D01*
X161309395Y-82350076D01*
X161322259Y-82353095D01*
X161334499Y-82357067D01*
X161346116Y-82361992D01*
X161357109Y-82367871D01*
X161367479Y-82374703D01*
X161377226Y-82382488D01*
X161386350Y-82391227D01*
X161394849Y-82400919D01*
X161404148Y-82413302D01*
X161412847Y-82425944D01*
X161420946Y-82438844D01*
X161428445Y-82452003D01*
X161435344Y-82465420D01*
X161441643Y-82479095D01*
X161447343Y-82493029D01*
X161452442Y-82507222D01*
X161456941Y-82521672D01*
X161460841Y-82536381D01*
X161464140Y-82551349D01*
X161466840Y-82566575D01*
X161468940Y-82582059D01*
X161470440Y-82597802D01*
X161471339Y-82613803D01*
X161471639Y-82630062D01*
X161471639Y-82807060D01*
X161471353Y-82823578D01*
X161470495Y-82839758D01*
X161469063Y-82855601D01*
X161467060Y-82871106D01*
X161464484Y-82886274D01*
X161461335Y-82901104D01*
X161457615Y-82915597D01*
X161453321Y-82929752D01*
X161448455Y-82943569D01*
X161443017Y-82957049D01*
X161437007Y-82970192D01*
X161430423Y-82982997D01*
X161423268Y-82995464D01*
X161415540Y-83007594D01*
X161407239Y-83019386D01*
X161398367Y-83030840D01*
X161392178Y-83038057D01*
X161382497Y-83048009D01*
X161372336Y-83056913D01*
X161361697Y-83064770D01*
X161350578Y-83071579D01*
X161338980Y-83077341D01*
X161326903Y-83082055D01*
X161314346Y-83085722D01*
X161301311Y-83088341D01*
X161287796Y-83089912D01*
X161273803Y-83090436D01*
X161263945Y-83090224D01*
X161249700Y-83089112D01*
X161236104Y-83087046D01*
X161223157Y-83084027D01*
X161210859Y-83080055D01*
X161199210Y-83075130D01*
X161188211Y-83069251D01*
X161177860Y-83062419D01*
X161168159Y-83054634D01*
X161159107Y-83045896D01*
X161150704Y-83036204D01*
X161141335Y-83023890D01*
X161132569Y-83011309D01*
X161124409Y-82998460D01*
X161116852Y-82985343D01*
X161109900Y-82971959D01*
X161103553Y-82958306D01*
X161097810Y-82944387D01*
X161092672Y-82930199D01*
X161088138Y-82915744D01*
X161084209Y-82901021D01*
X161080884Y-82886030D01*
X161078164Y-82870771D01*
X161076048Y-82855245D01*
X161074537Y-82839451D01*
X161073630Y-82823390D01*
X161073328Y-82807060D01*
X161073328Y-82630062D01*
X161073614Y-82613544D01*
X161074473Y-82597364D01*
X161075904Y-82581521D01*
X161077908Y-82566016D01*
X161080484Y-82550848D01*
X161083632Y-82536018D01*
X161087353Y-82521526D01*
X161091646Y-82507371D01*
X161096512Y-82493553D01*
X161101950Y-82480073D01*
X161107961Y-82466931D01*
X161114544Y-82454126D01*
X161121700Y-82441659D01*
X161129428Y-82429529D01*
X161137728Y-82417737D01*
X161146601Y-82406282D01*
X161152793Y-82399066D01*
X161162492Y-82389114D01*
X161172686Y-82380209D01*
X161183375Y-82372352D01*
X161194558Y-82365543D01*
X161206236Y-82359782D01*
X161218408Y-82355067D01*
X161231075Y-82351401D01*
X161244237Y-82348782D01*
X161257893Y-82347211D01*
X161272044Y-82346687D01*
X161281797Y-82346899D01*
G37*
G36*
X153237894Y-82442192D02*
G01*
X153255336Y-82442992D01*
X153271949Y-82444479D01*
X153287732Y-82446652D01*
X153302686Y-82449511D01*
X153316810Y-82453056D01*
X153330105Y-82457287D01*
X153342570Y-82462205D01*
X153354206Y-82467808D01*
X153365012Y-82474098D01*
X153374989Y-82481074D01*
X153378145Y-82483520D01*
X153389765Y-82493433D01*
X153399783Y-82503550D01*
X153408198Y-82513872D01*
X153415010Y-82524399D01*
X153421271Y-82537846D01*
X153425028Y-82551612D01*
X153426280Y-82565699D01*
X153426175Y-82569539D01*
X153424147Y-82583034D01*
X153420355Y-82594669D01*
X153414667Y-82606367D01*
X153407084Y-82618128D01*
X153399316Y-82627976D01*
X153389743Y-82637688D01*
X153380302Y-82645364D01*
X153369277Y-82652955D01*
X153356667Y-82660463D01*
X153346170Y-82666038D01*
X153334781Y-82671567D01*
X153322502Y-82677048D01*
X153309331Y-82682483D01*
X153295268Y-82687870D01*
X153291644Y-82689171D01*
X153276838Y-82693965D01*
X153265409Y-82697126D01*
X153253702Y-82699915D01*
X153241717Y-82702332D01*
X153229454Y-82704377D01*
X153216912Y-82706051D01*
X153204092Y-82707353D01*
X153190994Y-82708282D01*
X153177618Y-82708840D01*
X153163963Y-82709026D01*
X153032072Y-82709026D01*
X153032072Y-82442039D01*
X153225806Y-82442039D01*
X153237894Y-82442192D01*
G37*
G36*
X161815625Y-83436356D02*
G01*
X152549747Y-83436356D01*
X152549747Y-83157182D01*
X152724033Y-83157182D01*
X152724134Y-83161930D01*
X152725645Y-83175489D01*
X152728970Y-83188022D01*
X152734108Y-83199528D01*
X152741060Y-83210007D01*
X152749825Y-83219459D01*
X152758828Y-83226241D01*
X152769534Y-83231873D01*
X152781943Y-83236356D01*
X152796056Y-83239689D01*
X152808572Y-83241528D01*
X152822177Y-83242632D01*
X152836873Y-83243000D01*
X153093328Y-83243000D01*
X153104450Y-83242793D01*
X153118317Y-83241873D01*
X153131084Y-83240218D01*
X153145498Y-83237114D01*
X153158195Y-83232862D01*
X153169175Y-83227459D01*
X153180083Y-83219459D01*
X153183242Y-83216423D01*
X153191495Y-83206628D01*
X153197915Y-83195806D01*
X153202500Y-83183958D01*
X153205251Y-83171084D01*
X153206168Y-83157182D01*
X153206066Y-83152436D01*
X153204538Y-83138894D01*
X153201176Y-83126400D01*
X153195979Y-83114954D01*
X153188948Y-83104555D01*
X153180083Y-83095203D01*
X153171165Y-83088336D01*
X153160529Y-83082632D01*
X153148175Y-83078093D01*
X153134105Y-83074717D01*
X153121612Y-83072855D01*
X153108019Y-83071738D01*
X153093328Y-83071365D01*
X153032072Y-83071365D01*
X153032072Y-82880660D01*
X153199427Y-82880660D01*
X153207941Y-82884713D01*
X153225380Y-82894225D01*
X153243368Y-82905613D01*
X153261906Y-82918878D01*
X153271381Y-82926213D01*
X153280994Y-82934018D01*
X153290744Y-82942293D01*
X153300631Y-82951036D01*
X153310655Y-82960248D01*
X153320817Y-82969929D01*
X153331117Y-82980080D01*
X153341554Y-82990699D01*
X153352128Y-83001788D01*
X153362839Y-83013345D01*
X153373688Y-83025372D01*
X153384675Y-83037868D01*
X153395799Y-83050833D01*
X153407060Y-83064267D01*
X153418458Y-83078170D01*
X153429994Y-83092542D01*
X153441667Y-83107383D01*
X153453478Y-83122693D01*
X153465426Y-83138473D01*
X153477511Y-83154721D01*
X153489734Y-83171439D01*
X153502095Y-83188625D01*
X153514592Y-83206281D01*
X153527227Y-83224406D01*
X153540000Y-83243000D01*
X153636427Y-83243000D01*
X153647545Y-83242793D01*
X153661401Y-83241873D01*
X153674148Y-83240218D01*
X153688524Y-83237114D01*
X153701167Y-83232862D01*
X153712080Y-83227459D01*
X153722889Y-83219459D01*
X153726012Y-83216423D01*
X153734173Y-83206628D01*
X153740520Y-83195806D01*
X153740906Y-83194796D01*
X153743043Y-83199528D01*
X153750074Y-83210007D01*
X153758939Y-83219459D01*
X153767942Y-83226241D01*
X153778648Y-83231873D01*
X153791057Y-83236356D01*
X153805169Y-83239689D01*
X153817685Y-83241528D01*
X153831291Y-83242632D01*
X153845987Y-83243000D01*
X154641437Y-83243000D01*
X154641437Y-82976013D01*
X154641228Y-82964759D01*
X154640301Y-82950724D01*
X154638632Y-82937797D01*
X154635502Y-82923196D01*
X154631213Y-82910327D01*
X154625765Y-82899190D01*
X154617697Y-82888110D01*
X154614713Y-82884898D01*
X154605130Y-82876507D01*
X154594600Y-82869981D01*
X154583121Y-82865319D01*
X154570694Y-82862522D01*
X154557320Y-82861590D01*
X154552649Y-82861693D01*
X154539295Y-82863247D01*
X154526930Y-82866666D01*
X154515554Y-82871949D01*
X154505168Y-82879097D01*
X154495771Y-82888110D01*
X154489016Y-82897170D01*
X154483406Y-82907961D01*
X154478941Y-82920484D01*
X154475621Y-82934738D01*
X154473789Y-82947388D01*
X154472690Y-82961147D01*
X154472323Y-82976013D01*
X154472323Y-83071365D01*
X154041186Y-83071365D01*
X154041186Y-82823449D01*
X154189783Y-82823449D01*
X154189976Y-82838171D01*
X154190553Y-82851496D01*
X154191815Y-82866188D01*
X154193678Y-82878698D01*
X154196707Y-82890829D01*
X154202093Y-82902115D01*
X154205364Y-82906445D01*
X154214273Y-82916047D01*
X154224226Y-82923904D01*
X154235224Y-82930015D01*
X154247267Y-82934380D01*
X154260354Y-82936999D01*
X154274487Y-82937872D01*
X154279984Y-82937733D01*
X154293108Y-82936175D01*
X154305344Y-82932885D01*
X154316692Y-82927864D01*
X154327154Y-82921112D01*
X154336728Y-82912628D01*
X154345415Y-82902413D01*
X154347012Y-82900079D01*
X154351790Y-82889179D01*
X154354882Y-82876455D01*
X154356749Y-82863466D01*
X154357780Y-82851515D01*
X154358398Y-82838175D01*
X154358604Y-82823449D01*
X154358604Y-82651815D01*
X154358398Y-82640561D01*
X154357482Y-82626526D01*
X154355833Y-82613599D01*
X154352742Y-82598998D01*
X154348506Y-82586129D01*
X154343125Y-82574991D01*
X154335157Y-82563912D01*
X154332172Y-82560700D01*
X154322572Y-82552309D01*
X154312003Y-82545783D01*
X154300466Y-82541121D01*
X154287961Y-82538324D01*
X154274487Y-82537392D01*
X154268708Y-82537531D01*
X154254994Y-82539103D01*
X154242324Y-82542420D01*
X154230699Y-82547483D01*
X154220119Y-82554293D01*
X154210584Y-82562848D01*
X154202093Y-82573149D01*
X154201336Y-82574254D01*
X154196142Y-82586238D01*
X154193257Y-82598893D01*
X154191514Y-82611839D01*
X154190553Y-82623768D01*
X154189976Y-82637093D01*
X154189783Y-82651815D01*
X154041186Y-82651815D01*
X154041186Y-82442039D01*
X154435394Y-82442039D01*
X154435394Y-82537392D01*
X154435600Y-82548648D01*
X154436516Y-82562695D01*
X154438164Y-82575643D01*
X154441256Y-82590282D01*
X154445492Y-82603205D01*
X154450873Y-82614412D01*
X154458841Y-82625593D01*
X154461828Y-82628768D01*
X154471462Y-82637065D01*
X154482106Y-82643518D01*
X154493760Y-82648127D01*
X154506424Y-82650893D01*
X154520097Y-82651815D01*
X154524800Y-82651712D01*
X154538196Y-82650176D01*
X154550519Y-82646796D01*
X154561771Y-82641572D01*
X154571951Y-82634504D01*
X154581060Y-82625593D01*
X154587731Y-82616447D01*
X154593270Y-82605584D01*
X154597680Y-82593004D01*
X154600958Y-82578708D01*
X154602767Y-82566035D01*
X154603853Y-82552263D01*
X154604214Y-82537392D01*
X154604214Y-82356222D01*
X154677780Y-82356222D01*
X154677935Y-82360999D01*
X154680253Y-82374995D01*
X154684311Y-82386273D01*
X154690300Y-82397203D01*
X154698221Y-82407784D01*
X154708074Y-82418015D01*
X154717348Y-82425949D01*
X154719886Y-82427897D01*
X154731240Y-82433727D01*
X154744031Y-82437498D01*
X154756846Y-82439777D01*
X154768510Y-82441034D01*
X154781429Y-82441788D01*
X154795603Y-82442039D01*
X155141744Y-83243000D01*
X155304117Y-83243000D01*
X155651137Y-82442039D01*
X155654762Y-82442024D01*
X155668489Y-82441654D01*
X155680980Y-82440790D01*
X155694855Y-82439016D01*
X155706797Y-82436472D01*
X155718578Y-82432400D01*
X155728806Y-82426247D01*
X155733598Y-82422272D01*
X155742253Y-82414161D01*
X155751333Y-82403722D01*
X155758482Y-82392948D01*
X155763698Y-82381839D01*
X155766983Y-82370396D01*
X155767263Y-82367545D01*
X156872156Y-82367545D01*
X156872247Y-82372414D01*
X156873621Y-82386448D01*
X156876644Y-82399623D01*
X156881315Y-82411939D01*
X156887635Y-82423396D01*
X156895603Y-82433994D01*
X156904705Y-82443209D01*
X156914425Y-82450518D01*
X156926547Y-82456635D01*
X156939510Y-82460156D01*
X156951290Y-82461110D01*
X156957413Y-82460855D01*
X156969054Y-82459389D01*
X156981103Y-82457036D01*
X156992816Y-82454225D01*
X157005806Y-82450681D01*
X157156748Y-82408666D01*
X157156748Y-83071365D01*
X156985875Y-83071365D01*
X156974751Y-83071575D01*
X156960873Y-83072506D01*
X156948085Y-83074182D01*
X156933632Y-83077325D01*
X156920882Y-83081631D01*
X156909835Y-83087102D01*
X156898827Y-83095203D01*
X156895704Y-83098204D01*
X156887543Y-83107905D01*
X156881196Y-83118653D01*
X156876662Y-83130448D01*
X156873942Y-83143292D01*
X156873035Y-83157182D01*
X156873136Y-83161930D01*
X156874647Y-83175489D01*
X156877972Y-83188022D01*
X156883110Y-83199528D01*
X156890062Y-83210007D01*
X156898827Y-83219459D01*
X156907830Y-83226241D01*
X156918536Y-83231873D01*
X156930946Y-83236356D01*
X156945058Y-83239689D01*
X156957574Y-83241528D01*
X156971179Y-83242632D01*
X156985875Y-83243000D01*
X157496147Y-83243000D01*
X157507321Y-83242793D01*
X157521250Y-83241873D01*
X157534070Y-83240218D01*
X157548538Y-83237114D01*
X157561273Y-83232862D01*
X157572277Y-83227459D01*
X157583196Y-83219459D01*
X157586354Y-83216423D01*
X157594608Y-83206628D01*
X157601027Y-83195806D01*
X157605613Y-83183958D01*
X157608364Y-83171084D01*
X157609281Y-83157182D01*
X157609179Y-83152436D01*
X157608638Y-83147647D01*
X158122777Y-83147647D01*
X158122909Y-83153693D01*
X158124390Y-83168257D01*
X158127517Y-83182035D01*
X158132289Y-83195028D01*
X158138708Y-83207235D01*
X158146772Y-83218657D01*
X158156482Y-83229293D01*
X158163079Y-83235150D01*
X158175057Y-83243633D01*
X158185526Y-83249266D01*
X158196782Y-83253876D01*
X158208827Y-83257461D01*
X158221659Y-83260021D01*
X158235278Y-83261558D01*
X158249685Y-83262070D01*
X158256986Y-83261942D01*
X158270991Y-83260918D01*
X158284198Y-83258869D01*
X158296609Y-83255796D01*
X158308222Y-83251699D01*
X158319039Y-83246578D01*
X158324696Y-83243000D01*
X158839972Y-83243000D01*
X159609923Y-83243000D01*
X159609923Y-83166718D01*
X159609722Y-83155307D01*
X159609241Y-83147647D01*
X160139246Y-83147647D01*
X160139377Y-83153693D01*
X160140859Y-83168257D01*
X160143986Y-83182035D01*
X160148758Y-83195028D01*
X160155177Y-83207235D01*
X160163241Y-83218657D01*
X160172951Y-83229293D01*
X160179548Y-83235150D01*
X160191526Y-83243633D01*
X160201995Y-83249266D01*
X160213251Y-83253876D01*
X160225296Y-83257461D01*
X160238128Y-83260021D01*
X160251747Y-83261558D01*
X160266154Y-83262070D01*
X160273455Y-83261942D01*
X160287460Y-83260918D01*
X160300667Y-83258869D01*
X160313078Y-83255796D01*
X160324691Y-83251699D01*
X160335508Y-83246578D01*
X160347909Y-83238735D01*
X160359064Y-83229293D01*
X160365140Y-83223005D01*
X160373939Y-83211898D01*
X160381077Y-83200005D01*
X160386555Y-83187327D01*
X160390374Y-83173863D01*
X160392532Y-83159613D01*
X160393063Y-83147647D01*
X160392930Y-83141601D01*
X160391436Y-83127037D01*
X160388282Y-83113259D01*
X160383468Y-83100266D01*
X160376993Y-83088059D01*
X160368859Y-83076637D01*
X160359064Y-83066002D01*
X160352521Y-83060144D01*
X160340618Y-83051661D01*
X160330199Y-83046028D01*
X160318984Y-83041419D01*
X160306972Y-83037834D01*
X160294163Y-83035273D01*
X160280557Y-83033736D01*
X160266154Y-83033224D01*
X160258852Y-83033352D01*
X160244839Y-83034377D01*
X160231613Y-83036425D01*
X160219175Y-83039498D01*
X160207525Y-83043595D01*
X160196662Y-83048717D01*
X160184191Y-83056559D01*
X160172951Y-83066002D01*
X160166928Y-83072289D01*
X160158205Y-83083396D01*
X160151128Y-83095289D01*
X160145697Y-83107967D01*
X160141912Y-83121432D01*
X160139772Y-83135681D01*
X160139246Y-83147647D01*
X159609241Y-83147647D01*
X159608829Y-83141095D01*
X159607221Y-83128028D01*
X159604207Y-83113305D01*
X159600077Y-83100372D01*
X159594831Y-83089229D01*
X159587062Y-83078219D01*
X159584178Y-83075079D01*
X159574770Y-83066877D01*
X159564229Y-83060497D01*
X159552555Y-83055940D01*
X159539747Y-83053206D01*
X159525806Y-83052295D01*
X159515570Y-83052965D01*
X159503316Y-83055442D01*
X159490726Y-83059744D01*
X159479667Y-83064884D01*
X159468360Y-83071365D01*
X159098185Y-83071365D01*
X159113832Y-83059025D01*
X159129157Y-83046924D01*
X159144158Y-83035062D01*
X159158837Y-83023438D01*
X159173192Y-83012052D01*
X159187225Y-83000905D01*
X159200935Y-82989997D01*
X159214323Y-82979328D01*
X159227387Y-82968897D01*
X159240128Y-82958705D01*
X159252547Y-82948751D01*
X159264643Y-82939036D01*
X159276416Y-82929559D01*
X159287866Y-82920321D01*
X159298993Y-82911322D01*
X159309797Y-82902562D01*
X159320279Y-82894040D01*
X159330437Y-82885756D01*
X159340273Y-82877711D01*
X159349786Y-82869905D01*
X159367843Y-82855009D01*
X159384609Y-82841067D01*
X159400083Y-82828079D01*
X159414266Y-82816046D01*
X159422988Y-82808550D01*
X160904508Y-82808550D01*
X160904754Y-82824921D01*
X160905492Y-82841183D01*
X160906723Y-82857336D01*
X160908446Y-82873379D01*
X160910661Y-82889312D01*
X160913369Y-82905136D01*
X160916569Y-82920851D01*
X160920261Y-82936456D01*
X160924446Y-82951952D01*
X160929123Y-82967339D01*
X160934292Y-82982616D01*
X160939953Y-82997784D01*
X160946107Y-83012842D01*
X160952753Y-83027791D01*
X160959891Y-83042630D01*
X160967522Y-83057360D01*
X160971468Y-83064626D01*
X160979402Y-83078726D01*
X160987393Y-83092252D01*
X160995442Y-83105202D01*
X161003548Y-83117577D01*
X161011711Y-83129378D01*
X161019931Y-83140603D01*
X161028208Y-83151253D01*
X161036543Y-83161329D01*
X161044935Y-83170829D01*
X161053385Y-83179754D01*
X161061891Y-83188105D01*
X161074758Y-83199552D01*
X161087754Y-83209706D01*
X161100879Y-83218565D01*
X161105324Y-83221242D01*
X161119032Y-83228762D01*
X161133296Y-83235517D01*
X161148117Y-83241507D01*
X161163494Y-83246733D01*
X161179427Y-83251194D01*
X161195917Y-83254890D01*
X161212963Y-83257821D01*
X161224637Y-83259351D01*
X161236557Y-83260541D01*
X161248725Y-83261390D01*
X161261140Y-83261900D01*
X161273803Y-83262070D01*
X161295612Y-83261497D01*
X161316782Y-83259779D01*
X161337313Y-83256916D01*
X161357206Y-83252907D01*
X161376459Y-83247753D01*
X161395074Y-83241454D01*
X161413050Y-83234009D01*
X161430387Y-83225419D01*
X161447085Y-83215683D01*
X161463144Y-83204803D01*
X161478565Y-83192777D01*
X161493346Y-83179605D01*
X161507489Y-83165288D01*
X161520993Y-83149826D01*
X161533858Y-83133219D01*
X161546085Y-83115466D01*
X161557619Y-83097087D01*
X161568410Y-83078600D01*
X161578456Y-83060007D01*
X161587759Y-83041307D01*
X161596317Y-83022499D01*
X161604130Y-83003585D01*
X161611200Y-82984563D01*
X161617526Y-82965435D01*
X161623107Y-82946199D01*
X161627944Y-82926856D01*
X161632037Y-82907406D01*
X161635386Y-82887849D01*
X161637991Y-82868185D01*
X161639851Y-82848414D01*
X161640967Y-82828535D01*
X161641339Y-82808550D01*
X161641339Y-82628572D01*
X161641090Y-82612093D01*
X161640341Y-82595730D01*
X161639093Y-82579483D01*
X161637346Y-82563353D01*
X161635100Y-82547339D01*
X161632354Y-82531441D01*
X161629110Y-82515660D01*
X161625366Y-82499996D01*
X161621123Y-82484447D01*
X161616381Y-82469015D01*
X161611139Y-82453700D01*
X161605399Y-82438501D01*
X161599159Y-82423418D01*
X161592421Y-82408452D01*
X161585183Y-82393602D01*
X161577445Y-82378868D01*
X161573445Y-82371603D01*
X161565406Y-82357507D01*
X161557314Y-82343991D01*
X161549169Y-82331055D01*
X161540972Y-82318698D01*
X161532722Y-82306921D01*
X161524419Y-82295724D01*
X161516064Y-82285106D01*
X161507656Y-82275068D01*
X161499195Y-82265610D01*
X161490681Y-82256731D01*
X161482115Y-82248432D01*
X161469168Y-82237070D01*
X161456101Y-82227012D01*
X161442916Y-82218259D01*
X161429454Y-82210538D01*
X161415446Y-82203576D01*
X161400892Y-82197373D01*
X161385791Y-82191930D01*
X161370144Y-82187247D01*
X161353952Y-82183323D01*
X161337213Y-82180158D01*
X161319928Y-82177753D01*
X161308101Y-82176572D01*
X161296032Y-82175728D01*
X161283720Y-82175221D01*
X161271165Y-82175053D01*
X161249357Y-82175628D01*
X161228190Y-82177353D01*
X161207665Y-82180228D01*
X161187780Y-82184253D01*
X161168537Y-82189428D01*
X161149935Y-82195753D01*
X161131974Y-82203228D01*
X161114654Y-82211853D01*
X161097975Y-82221628D01*
X161081938Y-82232553D01*
X161066541Y-82244628D01*
X161051786Y-82257853D01*
X161037672Y-82272228D01*
X161024199Y-82287753D01*
X161011367Y-82304428D01*
X160999176Y-82322253D01*
X160987712Y-82340664D01*
X160976988Y-82359174D01*
X160967004Y-82377781D01*
X160957759Y-82396486D01*
X160949253Y-82415289D01*
X160941487Y-82434189D01*
X160934461Y-82453188D01*
X160928175Y-82472284D01*
X160922628Y-82491478D01*
X160917820Y-82510769D01*
X160913752Y-82530159D01*
X160910424Y-82549646D01*
X160907836Y-82569231D01*
X160905987Y-82588914D01*
X160904877Y-82608694D01*
X160904508Y-82628572D01*
X160904508Y-82807060D01*
X160904508Y-82808550D01*
X159422988Y-82808550D01*
X159427157Y-82804967D01*
X159438757Y-82794843D01*
X159452323Y-82782774D01*
X159465250Y-82771000D01*
X159477538Y-82759523D01*
X159489187Y-82748340D01*
X159500198Y-82737454D01*
X159510569Y-82726863D01*
X159520302Y-82716567D01*
X159529396Y-82706568D01*
X159537851Y-82696864D01*
X159545667Y-82687455D01*
X159556193Y-82673897D01*
X159565282Y-82661004D01*
X159572934Y-82648776D01*
X159579148Y-82637214D01*
X159582697Y-82629686D01*
X159587592Y-82618242D01*
X159591971Y-82606615D01*
X159595835Y-82594805D01*
X159599184Y-82582811D01*
X159602017Y-82570634D01*
X159604336Y-82558273D01*
X159606139Y-82545729D01*
X159607427Y-82533002D01*
X159608200Y-82520092D01*
X159608457Y-82506998D01*
X159608058Y-82489913D01*
X159606859Y-82473150D01*
X159604861Y-82456708D01*
X159602064Y-82440587D01*
X159598468Y-82424787D01*
X159594073Y-82409308D01*
X159588879Y-82394151D01*
X159582885Y-82379315D01*
X159576092Y-82364801D01*
X159568501Y-82350607D01*
X159560110Y-82336735D01*
X159550920Y-82323184D01*
X159540931Y-82309954D01*
X159530142Y-82297046D01*
X159518555Y-82284459D01*
X159506168Y-82272193D01*
X159493158Y-82260430D01*
X159479699Y-82249426D01*
X159465790Y-82239180D01*
X159451434Y-82229694D01*
X159436628Y-82220966D01*
X159421373Y-82212998D01*
X159405670Y-82205788D01*
X159389518Y-82199338D01*
X159372917Y-82193646D01*
X159355867Y-82188713D01*
X159338369Y-82184539D01*
X159320422Y-82181124D01*
X159302026Y-82178468D01*
X159283181Y-82176570D01*
X159263887Y-82175432D01*
X159244145Y-82175053D01*
X159231308Y-82175233D01*
X159218591Y-82175774D01*
X159205992Y-82176676D01*
X159193513Y-82177939D01*
X159181153Y-82179563D01*
X159168912Y-82181547D01*
X159156790Y-82183893D01*
X159144787Y-82186599D01*
X159132903Y-82189666D01*
X159121138Y-82193094D01*
X159109492Y-82196883D01*
X159097965Y-82201032D01*
X159086558Y-82205543D01*
X159075269Y-82210414D01*
X159064100Y-82215646D01*
X159053049Y-82221239D01*
X159042258Y-82227095D01*
X159031795Y-82233191D01*
X159021660Y-82239526D01*
X159011851Y-82246101D01*
X158997753Y-82256414D01*
X158984391Y-82267266D01*
X158971766Y-82278657D01*
X158959878Y-82290588D01*
X158948727Y-82303059D01*
X158938312Y-82316069D01*
X158928634Y-82329618D01*
X158919692Y-82343707D01*
X158914156Y-82353179D01*
X158906521Y-82367013D01*
X158899689Y-82380395D01*
X158893661Y-82393328D01*
X158888437Y-82405810D01*
X158884017Y-82417841D01*
X158880400Y-82429422D01*
X158876828Y-82444162D01*
X158874685Y-82458102D01*
X158873970Y-82471241D01*
X158874069Y-82475491D01*
X158875546Y-82487835D01*
X158878795Y-82499571D01*
X158883816Y-82510700D01*
X158890610Y-82521221D01*
X158899176Y-82531134D01*
X158902363Y-82534201D01*
X158912365Y-82542215D01*
X158923026Y-82548448D01*
X158934347Y-82552900D01*
X158946327Y-82555572D01*
X158958967Y-82556462D01*
X158960808Y-82556447D01*
X158973182Y-82555494D01*
X158986224Y-82552588D01*
X158998094Y-82547746D01*
X159008792Y-82540967D01*
X159016067Y-82534424D01*
X159023773Y-82524935D01*
X159030637Y-82513451D01*
X159035851Y-82502019D01*
X159040446Y-82489120D01*
X159042876Y-82482004D01*
X159048023Y-82468437D01*
X159053555Y-82455754D01*
X159059472Y-82443956D01*
X159065773Y-82433043D01*
X159072459Y-82423014D01*
X159081358Y-82411722D01*
X159090858Y-82401812D01*
X159098487Y-82395137D01*
X159110378Y-82385932D01*
X159122805Y-82377695D01*
X159135767Y-82370427D01*
X159149265Y-82364129D01*
X159163300Y-82358799D01*
X159177869Y-82354439D01*
X159192975Y-82351047D01*
X159208616Y-82348625D01*
X159224794Y-82347171D01*
X159241507Y-82346687D01*
X159252613Y-82346863D01*
X159268745Y-82347785D01*
X159284243Y-82349499D01*
X159299108Y-82352004D01*
X159313338Y-82355299D01*
X159326935Y-82359385D01*
X159339899Y-82364263D01*
X159352228Y-82369931D01*
X159363924Y-82376390D01*
X159374986Y-82383640D01*
X159385415Y-82391681D01*
X159391945Y-82397322D01*
X159400951Y-82405984D01*
X159409009Y-82414886D01*
X159418278Y-82427131D01*
X159425861Y-82439804D01*
X159431760Y-82452906D01*
X159435973Y-82466436D01*
X159438501Y-82480394D01*
X159439344Y-82494781D01*
X159439157Y-82500650D01*
X159437664Y-82512513D01*
X159434678Y-82524544D01*
X159430199Y-82536742D01*
X159424228Y-82549108D01*
X159416763Y-82561642D01*
X159407805Y-82574343D01*
X159400107Y-82583979D01*
X159391570Y-82593709D01*
X159378287Y-82607478D01*
X159362178Y-82623232D01*
X159353064Y-82631854D01*
X159343244Y-82640972D01*
X159332717Y-82650587D01*
X159321484Y-82660698D01*
X159309545Y-82671306D01*
X159296899Y-82682410D01*
X159283547Y-82694010D01*
X159269488Y-82706107D01*
X159254723Y-82718700D01*
X159239251Y-82731790D01*
X159223074Y-82745376D01*
X159206189Y-82759459D01*
X159188599Y-82774038D01*
X159170302Y-82789113D01*
X159151298Y-82804685D01*
X159131588Y-82820753D01*
X159111172Y-82837318D01*
X159090050Y-82854379D01*
X159068221Y-82871937D01*
X159045685Y-82889991D01*
X159022443Y-82908541D01*
X158998495Y-82927588D01*
X158973841Y-82947131D01*
X158948480Y-82967171D01*
X158922412Y-82987707D01*
X158895638Y-83008740D01*
X158868158Y-83030269D01*
X158839972Y-83052295D01*
X158839972Y-83243000D01*
X158324696Y-83243000D01*
X158331440Y-83238735D01*
X158342595Y-83229293D01*
X158348671Y-83223005D01*
X158357470Y-83211898D01*
X158364608Y-83200005D01*
X158370087Y-83187327D01*
X158373905Y-83173863D01*
X158376063Y-83159613D01*
X158376594Y-83147647D01*
X158376461Y-83141601D01*
X158374967Y-83127037D01*
X158371813Y-83113259D01*
X158366999Y-83100266D01*
X158360524Y-83088059D01*
X158352390Y-83076637D01*
X158342595Y-83066002D01*
X158336052Y-83060144D01*
X158324149Y-83051661D01*
X158313731Y-83046028D01*
X158302515Y-83041419D01*
X158290503Y-83037834D01*
X158277694Y-83035273D01*
X158264088Y-83033736D01*
X158249685Y-83033224D01*
X158242383Y-83033352D01*
X158228370Y-83034377D01*
X158215144Y-83036425D01*
X158202706Y-83039498D01*
X158191056Y-83043595D01*
X158180193Y-83048717D01*
X158167722Y-83056559D01*
X158156482Y-83066002D01*
X158150459Y-83072289D01*
X158141736Y-83083396D01*
X158134659Y-83095289D01*
X158129228Y-83107967D01*
X158125443Y-83121432D01*
X158123304Y-83135681D01*
X158122777Y-83147647D01*
X157608638Y-83147647D01*
X157607650Y-83138894D01*
X157604288Y-83126400D01*
X157599091Y-83114954D01*
X157592060Y-83104555D01*
X157583196Y-83095203D01*
X157574270Y-83088336D01*
X157563612Y-83082632D01*
X157551223Y-83078093D01*
X157537102Y-83074717D01*
X157524559Y-83072855D01*
X157510907Y-83071738D01*
X157496147Y-83071365D01*
X157325568Y-83071365D01*
X157325568Y-82175053D01*
X156962135Y-82274875D01*
X156958710Y-82275866D01*
X156945754Y-82279926D01*
X156933990Y-82284135D01*
X156920958Y-82289606D01*
X156909787Y-82295309D01*
X156898837Y-82302461D01*
X156889448Y-82311228D01*
X156883571Y-82319472D01*
X156878252Y-82330441D01*
X156874588Y-82342864D01*
X156872764Y-82354671D01*
X156872156Y-82367545D01*
X155767263Y-82367545D01*
X155768374Y-82356222D01*
X155768272Y-82351475D01*
X155766743Y-82337934D01*
X155763381Y-82325440D01*
X155758184Y-82313993D01*
X155751153Y-82303594D01*
X155742288Y-82294243D01*
X155733363Y-82287376D01*
X155722705Y-82281672D01*
X155710316Y-82277133D01*
X155696195Y-82273757D01*
X155683652Y-82271895D01*
X155670000Y-82270777D01*
X155655240Y-82270405D01*
X155428681Y-82270405D01*
X155417557Y-82270614D01*
X155403678Y-82271546D01*
X155390890Y-82273222D01*
X155376437Y-82276364D01*
X155363687Y-82280671D01*
X155352641Y-82286142D01*
X155341632Y-82294243D01*
X155338509Y-82297244D01*
X155330348Y-82306944D01*
X155324001Y-82317692D01*
X155319467Y-82329488D01*
X155316747Y-82342331D01*
X155315840Y-82356222D01*
X155315941Y-82360970D01*
X155317452Y-82374529D01*
X155320777Y-82387061D01*
X155325915Y-82398567D01*
X155332867Y-82409047D01*
X155341632Y-82418499D01*
X155350636Y-82425281D01*
X155361342Y-82430913D01*
X155373751Y-82435396D01*
X155387863Y-82438729D01*
X155400379Y-82440568D01*
X155413985Y-82441671D01*
X155428681Y-82442039D01*
X155467369Y-82442039D01*
X155222637Y-83003129D01*
X154979371Y-82442039D01*
X155018939Y-82442039D01*
X155030058Y-82441832D01*
X155043913Y-82440913D01*
X155056660Y-82439258D01*
X155071036Y-82436154D01*
X155083680Y-82431901D01*
X155094592Y-82426499D01*
X155105401Y-82418499D01*
X155108524Y-82415462D01*
X155116685Y-82405668D01*
X155123032Y-82394846D01*
X155127566Y-82382998D01*
X155130286Y-82370123D01*
X155131193Y-82356222D01*
X155131091Y-82351475D01*
X155129562Y-82337934D01*
X155126200Y-82325440D01*
X155121003Y-82313993D01*
X155113973Y-82303594D01*
X155105108Y-82294243D01*
X155096203Y-82287376D01*
X155085610Y-82281672D01*
X155073328Y-82277133D01*
X155059358Y-82273757D01*
X155046966Y-82271895D01*
X155033493Y-82270777D01*
X155018939Y-82270405D01*
X154790621Y-82270405D01*
X154779499Y-82270614D01*
X154765632Y-82271546D01*
X154752864Y-82273222D01*
X154738450Y-82276364D01*
X154725753Y-82280671D01*
X154714774Y-82286142D01*
X154703866Y-82294243D01*
X154700707Y-82297244D01*
X154692453Y-82306944D01*
X154686034Y-82317692D01*
X154681449Y-82329488D01*
X154678697Y-82342331D01*
X154677780Y-82356222D01*
X154604214Y-82356222D01*
X154604214Y-82271299D01*
X153845987Y-82270405D01*
X153834863Y-82270614D01*
X153820985Y-82271546D01*
X153808196Y-82273222D01*
X153793743Y-82276364D01*
X153780994Y-82280671D01*
X153769947Y-82286142D01*
X153758939Y-82294243D01*
X153755780Y-82297244D01*
X153747527Y-82306944D01*
X153741107Y-82317692D01*
X153736522Y-82329488D01*
X153733771Y-82342331D01*
X153732854Y-82356222D01*
X153732956Y-82360970D01*
X153734484Y-82374529D01*
X153737847Y-82387061D01*
X153743043Y-82398567D01*
X153750074Y-82409047D01*
X153758939Y-82418499D01*
X153767942Y-82425281D01*
X153778648Y-82430913D01*
X153791057Y-82435396D01*
X153805169Y-82438729D01*
X153817685Y-82440568D01*
X153831291Y-82441671D01*
X153845987Y-82442039D01*
X153872365Y-82442039D01*
X153872365Y-83071365D01*
X153845987Y-83071365D01*
X153834965Y-83071575D01*
X153821199Y-83072506D01*
X153808495Y-83074182D01*
X153794110Y-83077325D01*
X153781384Y-83081631D01*
X153770319Y-83087102D01*
X153759232Y-83095203D01*
X153756038Y-83098204D01*
X153747691Y-83107905D01*
X153741200Y-83118653D01*
X153739900Y-83121959D01*
X153738175Y-83118359D01*
X153731087Y-83107709D01*
X153722181Y-83097408D01*
X153711458Y-83087456D01*
X153705642Y-83083685D01*
X153694342Y-83078971D01*
X153682564Y-83075906D01*
X153668639Y-83073628D01*
X153655954Y-83072371D01*
X153641895Y-83071617D01*
X153626461Y-83071365D01*
X153618541Y-83060083D01*
X153610827Y-83049180D01*
X153603319Y-83038656D01*
X153596017Y-83028512D01*
X153588921Y-83018748D01*
X153578663Y-83004813D01*
X153568869Y-82991731D01*
X153559539Y-82979503D01*
X153550672Y-82968129D01*
X153542269Y-82957609D01*
X153534330Y-82947942D01*
X153524466Y-82936382D01*
X153516874Y-82928022D01*
X153505594Y-82915841D01*
X153494442Y-82904089D01*
X153483419Y-82892766D01*
X153472526Y-82881873D01*
X153461760Y-82871410D01*
X153451124Y-82861376D01*
X153440617Y-82851771D01*
X153430238Y-82842596D01*
X153419988Y-82833851D01*
X153409867Y-82825535D01*
X153415628Y-82822429D01*
X153426875Y-82816135D01*
X153437756Y-82809728D01*
X153448271Y-82803210D01*
X153458419Y-82796580D01*
X153468201Y-82789838D01*
X153482187Y-82779516D01*
X153495349Y-82768943D01*
X153507686Y-82758118D01*
X153519199Y-82747041D01*
X153529888Y-82735714D01*
X153539752Y-82724134D01*
X153548792Y-82712304D01*
X153554400Y-82704242D01*
X153562133Y-82691949D01*
X153569052Y-82679415D01*
X153575157Y-82666639D01*
X153580448Y-82653623D01*
X153584925Y-82640366D01*
X153588589Y-82626868D01*
X153591438Y-82613129D01*
X153593473Y-82599150D01*
X153594694Y-82584929D01*
X153595101Y-82570467D01*
X153594716Y-82554935D01*
X153593562Y-82539701D01*
X153591639Y-82524765D01*
X153588946Y-82510127D01*
X153585484Y-82495787D01*
X153581252Y-82481745D01*
X153576251Y-82468000D01*
X153570481Y-82454554D01*
X153563941Y-82441406D01*
X153556632Y-82428556D01*
X153548554Y-82416004D01*
X153539706Y-82403749D01*
X153530089Y-82391793D01*
X153519703Y-82380135D01*
X153508547Y-82368774D01*
X153496622Y-82357712D01*
X153483998Y-82347140D01*
X153470747Y-82337249D01*
X153456869Y-82328041D01*
X153442363Y-82319515D01*
X153427230Y-82311671D01*
X153411470Y-82304509D01*
X153395082Y-82298029D01*
X153378066Y-82292232D01*
X153360424Y-82287116D01*
X153342154Y-82282682D01*
X153323256Y-82278931D01*
X153303731Y-82275862D01*
X153283579Y-82273474D01*
X153262799Y-82271769D01*
X153241392Y-82270746D01*
X153219357Y-82270405D01*
X152836873Y-82270405D01*
X152825749Y-82270614D01*
X152811871Y-82271546D01*
X152799082Y-82273222D01*
X152784630Y-82276364D01*
X152771880Y-82280671D01*
X152760833Y-82286142D01*
X152749825Y-82294243D01*
X152746702Y-82297244D01*
X152738541Y-82306944D01*
X152732194Y-82317692D01*
X152727660Y-82329488D01*
X152724940Y-82342331D01*
X152724033Y-82356222D01*
X152724134Y-82360970D01*
X152725645Y-82374529D01*
X152728970Y-82387061D01*
X152734108Y-82398567D01*
X152741060Y-82409047D01*
X152749825Y-82418499D01*
X152758828Y-82425281D01*
X152769534Y-82430913D01*
X152781943Y-82435396D01*
X152796056Y-82438729D01*
X152808572Y-82440568D01*
X152822177Y-82441671D01*
X152836873Y-82442039D01*
X152863251Y-82442039D01*
X152863251Y-83071365D01*
X152836873Y-83071365D01*
X152825904Y-83071575D01*
X152812199Y-83072506D01*
X152799548Y-83074182D01*
X152785216Y-83077325D01*
X152772529Y-83081631D01*
X152761488Y-83087102D01*
X152750411Y-83095203D01*
X152747217Y-83098204D01*
X152738871Y-83107905D01*
X152732379Y-83118653D01*
X152727742Y-83130448D01*
X152724960Y-83143292D01*
X152724033Y-83157182D01*
X152549747Y-83157182D01*
X152549747Y-82000767D01*
X161815625Y-82000767D01*
X161815625Y-83436356D01*
G37*
G36*
X169961307Y-94273098D02*
G01*
X169975712Y-94273486D01*
X169989684Y-94274264D01*
X170003224Y-94275430D01*
X170016330Y-94276985D01*
X170029004Y-94278929D01*
X170041245Y-94281262D01*
X170053054Y-94283983D01*
X170064429Y-94287093D01*
X170080681Y-94292487D01*
X170095960Y-94298756D01*
X170110264Y-94305900D01*
X170123595Y-94313918D01*
X170135952Y-94322811D01*
X170147318Y-94332154D01*
X170157566Y-94341524D01*
X170166697Y-94350920D01*
X170174709Y-94360342D01*
X170183653Y-94372945D01*
X170190609Y-94385595D01*
X170195578Y-94398292D01*
X170198559Y-94411035D01*
X170199553Y-94423825D01*
X170199049Y-94434315D01*
X170197003Y-94446549D01*
X170192469Y-94459944D01*
X170185668Y-94471936D01*
X170176601Y-94482523D01*
X170167313Y-94490274D01*
X170161835Y-94493990D01*
X170149442Y-94500704D01*
X170135136Y-94506459D01*
X170123150Y-94510145D01*
X170110087Y-94513292D01*
X170095947Y-94515900D01*
X170080731Y-94517968D01*
X170064437Y-94519497D01*
X170047067Y-94520486D01*
X170034889Y-94520845D01*
X170022233Y-94520965D01*
X169730607Y-94520965D01*
X169730607Y-94273049D01*
X169953942Y-94273049D01*
X169961307Y-94273098D01*
G37*
G36*
X169961955Y-93891751D02*
G01*
X169978085Y-93892338D01*
X169993345Y-93893427D01*
X170007733Y-93895019D01*
X170021251Y-93897115D01*
X170033899Y-93899713D01*
X170045675Y-93902813D01*
X170060023Y-93907730D01*
X170072823Y-93913541D01*
X170084075Y-93920245D01*
X170086671Y-93922024D01*
X170096234Y-93929331D01*
X170106331Y-93938898D01*
X170114369Y-93948944D01*
X170120345Y-93959471D01*
X170124796Y-93972737D01*
X170126280Y-93986694D01*
X170125584Y-93997202D01*
X170122756Y-94009722D01*
X170117753Y-94021558D01*
X170110574Y-94032710D01*
X170101221Y-94043179D01*
X170092172Y-94051061D01*
X170081730Y-94058506D01*
X170073355Y-94063702D01*
X170060299Y-94070867D01*
X170046651Y-94077278D01*
X170032410Y-94082935D01*
X170017576Y-94087838D01*
X170002150Y-94091986D01*
X169986132Y-94095381D01*
X169969521Y-94098020D01*
X169952318Y-94099906D01*
X169940520Y-94100744D01*
X169928458Y-94101247D01*
X169916133Y-94101415D01*
X169730607Y-94101415D01*
X169730607Y-93891639D01*
X169950718Y-93891639D01*
X169961955Y-93891751D01*
G37*
G36*
X171051277Y-94234908D02*
G01*
X170778408Y-94234908D01*
X170915282Y-93939613D01*
X171051277Y-94234908D01*
G37*
G36*
X174979067Y-93891792D02*
G01*
X174996509Y-93892592D01*
X175013121Y-93894079D01*
X175028905Y-93896252D01*
X175043858Y-93899111D01*
X175057982Y-93902656D01*
X175071277Y-93906887D01*
X175083742Y-93911805D01*
X175095378Y-93917408D01*
X175106185Y-93923698D01*
X175116161Y-93930674D01*
X175119317Y-93933120D01*
X175130938Y-93943033D01*
X175140955Y-93953150D01*
X175149370Y-93963472D01*
X175156182Y-93973999D01*
X175162444Y-93987446D01*
X175166200Y-94001212D01*
X175167452Y-94015299D01*
X175167347Y-94019139D01*
X175165319Y-94032634D01*
X175161528Y-94044269D01*
X175155840Y-94055967D01*
X175148256Y-94067728D01*
X175140488Y-94077576D01*
X175130915Y-94087288D01*
X175121475Y-94094964D01*
X175110449Y-94102555D01*
X175097839Y-94110063D01*
X175087342Y-94115638D01*
X175075954Y-94121167D01*
X175063674Y-94126648D01*
X175050503Y-94132083D01*
X175036441Y-94137470D01*
X175032816Y-94138771D01*
X175018011Y-94143565D01*
X175006582Y-94146726D01*
X174994875Y-94149515D01*
X174982890Y-94151932D01*
X174970626Y-94153977D01*
X174958084Y-94155651D01*
X174945264Y-94156953D01*
X174932166Y-94157882D01*
X174918790Y-94158440D01*
X174905136Y-94158626D01*
X174773244Y-94158626D01*
X174773244Y-93891639D01*
X174966978Y-93891639D01*
X174979067Y-93891792D01*
G37*
G36*
X176604669Y-94866886D02*
G01*
X169247988Y-94866886D01*
X169247988Y-94606782D01*
X169422274Y-94606782D01*
X169422375Y-94611530D01*
X169423886Y-94625089D01*
X169427211Y-94637622D01*
X169432349Y-94649128D01*
X169439301Y-94659607D01*
X169448066Y-94669059D01*
X169457070Y-94675841D01*
X169467776Y-94681473D01*
X169480185Y-94685956D01*
X169494297Y-94689289D01*
X169506813Y-94691128D01*
X169520419Y-94692232D01*
X169535115Y-94692600D01*
X170031318Y-94692600D01*
X170042665Y-94692513D01*
X170059235Y-94692061D01*
X170075264Y-94691221D01*
X170090752Y-94689994D01*
X170105698Y-94688379D01*
X170120104Y-94686376D01*
X170133969Y-94683986D01*
X170147293Y-94681208D01*
X170160076Y-94678043D01*
X170172318Y-94674490D01*
X170184019Y-94670549D01*
X170187811Y-94669158D01*
X170198967Y-94664832D01*
X170213328Y-94658705D01*
X170227103Y-94652168D01*
X170240293Y-94645221D01*
X170252896Y-94637865D01*
X170264912Y-94630099D01*
X170276343Y-94621923D01*
X170287187Y-94613338D01*
X170291034Y-94610142D01*
X170294674Y-94606782D01*
X170370425Y-94606782D01*
X170370527Y-94611530D01*
X170372056Y-94625089D01*
X170375418Y-94637622D01*
X170380615Y-94649128D01*
X170387645Y-94659607D01*
X170396510Y-94669059D01*
X170405429Y-94675841D01*
X170416065Y-94681473D01*
X170428418Y-94685956D01*
X170442489Y-94689289D01*
X170454982Y-94691128D01*
X170468574Y-94692232D01*
X170483265Y-94692600D01*
X170710704Y-94692600D01*
X170721828Y-94692393D01*
X170735707Y-94691473D01*
X170748495Y-94689818D01*
X170762948Y-94686714D01*
X170775698Y-94682462D01*
X170786744Y-94677059D01*
X170797752Y-94669059D01*
X170800911Y-94666023D01*
X170809165Y-94656228D01*
X170815584Y-94645406D01*
X170820169Y-94633558D01*
X170822921Y-94620684D01*
X170823838Y-94606782D01*
X170823736Y-94602036D01*
X170822207Y-94588494D01*
X170818845Y-94576000D01*
X170813648Y-94564554D01*
X170806617Y-94554155D01*
X170797752Y-94544803D01*
X170788749Y-94537936D01*
X170778043Y-94532232D01*
X170765634Y-94527693D01*
X170751522Y-94524317D01*
X170739006Y-94522455D01*
X170725400Y-94521338D01*
X170710704Y-94520965D01*
X170669672Y-94520965D01*
X170710704Y-94406542D01*
X171121325Y-94406542D01*
X171161772Y-94520965D01*
X171120446Y-94520965D01*
X171109322Y-94521175D01*
X171095444Y-94522106D01*
X171082655Y-94523782D01*
X171068203Y-94526925D01*
X171055453Y-94531231D01*
X171044406Y-94536702D01*
X171033398Y-94544803D01*
X171030275Y-94547804D01*
X171022114Y-94557505D01*
X171015767Y-94568253D01*
X171011233Y-94580048D01*
X171008513Y-94592892D01*
X171007606Y-94606782D01*
X171007707Y-94611530D01*
X171009218Y-94625089D01*
X171012543Y-94637622D01*
X171017681Y-94649128D01*
X171024633Y-94659607D01*
X171033398Y-94669059D01*
X171042401Y-94675841D01*
X171053107Y-94681473D01*
X171065516Y-94685956D01*
X171079629Y-94689289D01*
X171092144Y-94691128D01*
X171105750Y-94692232D01*
X171120446Y-94692600D01*
X171347885Y-94692600D01*
X171359004Y-94692393D01*
X171372859Y-94691473D01*
X171385607Y-94689818D01*
X171399982Y-94686714D01*
X171412626Y-94682462D01*
X171423538Y-94677059D01*
X171434347Y-94669059D01*
X171437470Y-94666023D01*
X171445631Y-94656228D01*
X171451978Y-94645406D01*
X171456512Y-94633558D01*
X171459232Y-94620684D01*
X171460139Y-94606782D01*
X171459991Y-94602003D01*
X171457776Y-94587973D01*
X171453899Y-94576633D01*
X171448176Y-94565613D01*
X171440607Y-94554913D01*
X171431192Y-94544533D01*
X171422330Y-94536460D01*
X171419791Y-94534584D01*
X171408415Y-94528970D01*
X171395583Y-94525338D01*
X171382717Y-94523144D01*
X171371003Y-94521934D01*
X171358024Y-94521207D01*
X171343782Y-94520965D01*
X171007606Y-93720005D01*
X171484173Y-93720005D01*
X171484173Y-94063274D01*
X171484379Y-94074530D01*
X171485295Y-94088577D01*
X171486943Y-94101525D01*
X171490034Y-94116164D01*
X171494270Y-94129087D01*
X171499651Y-94140293D01*
X171507620Y-94151475D01*
X171510605Y-94154650D01*
X171520204Y-94162947D01*
X171530773Y-94169400D01*
X171542310Y-94174009D01*
X171554816Y-94176775D01*
X171568290Y-94177696D01*
X171572960Y-94177594D01*
X171586297Y-94176058D01*
X171598624Y-94172677D01*
X171609941Y-94167454D01*
X171620248Y-94160386D01*
X171629546Y-94151475D01*
X171636301Y-94142329D01*
X171641911Y-94131466D01*
X171646376Y-94118886D01*
X171649696Y-94104590D01*
X171651528Y-94091917D01*
X171652627Y-94078144D01*
X171652993Y-94063274D01*
X171652993Y-93891639D01*
X171836175Y-93891639D01*
X171836175Y-94520965D01*
X171723042Y-94520965D01*
X171711918Y-94521175D01*
X171698040Y-94522106D01*
X171685251Y-94523782D01*
X171670799Y-94526925D01*
X171658049Y-94531231D01*
X171647002Y-94536702D01*
X171635994Y-94544803D01*
X171632871Y-94547804D01*
X171624710Y-94557505D01*
X171618363Y-94568253D01*
X171613829Y-94580048D01*
X171611109Y-94592892D01*
X171610202Y-94606782D01*
X171610303Y-94611530D01*
X171611814Y-94625089D01*
X171615139Y-94637622D01*
X171620277Y-94649128D01*
X171627229Y-94659607D01*
X171635994Y-94669059D01*
X171644997Y-94675841D01*
X171655703Y-94681473D01*
X171668112Y-94685956D01*
X171682225Y-94689289D01*
X171694740Y-94691128D01*
X171708346Y-94692232D01*
X171723042Y-94692600D01*
X172118715Y-94692600D01*
X172129840Y-94692393D01*
X172143718Y-94691473D01*
X172156506Y-94689818D01*
X172170959Y-94686714D01*
X172183709Y-94682462D01*
X172194756Y-94677059D01*
X172205764Y-94669059D01*
X172208922Y-94666023D01*
X172217176Y-94656228D01*
X172223595Y-94645406D01*
X172228181Y-94633558D01*
X172230932Y-94620684D01*
X172231849Y-94606782D01*
X172231747Y-94602036D01*
X172230218Y-94588494D01*
X172226856Y-94576000D01*
X172221659Y-94564554D01*
X172214629Y-94554155D01*
X172205764Y-94544803D01*
X172196761Y-94537936D01*
X172186054Y-94532232D01*
X172173645Y-94527693D01*
X172159533Y-94524317D01*
X172147017Y-94522455D01*
X172133411Y-94521338D01*
X172118715Y-94520965D01*
X172004996Y-94520965D01*
X172004996Y-93891639D01*
X172190523Y-93891639D01*
X172190523Y-94063274D01*
X172190729Y-94074530D01*
X172191645Y-94088577D01*
X172193294Y-94101525D01*
X172196385Y-94116164D01*
X172200621Y-94129087D01*
X172206002Y-94140293D01*
X172213970Y-94151475D01*
X172216955Y-94154650D01*
X172226555Y-94162947D01*
X172237123Y-94169400D01*
X172248660Y-94174009D01*
X172261166Y-94176775D01*
X172274640Y-94177696D01*
X172279310Y-94177594D01*
X172292647Y-94176058D01*
X172304974Y-94172677D01*
X172316291Y-94167454D01*
X172326599Y-94160386D01*
X172335896Y-94151475D01*
X172342735Y-94142329D01*
X172348416Y-94131466D01*
X172352936Y-94118886D01*
X172356298Y-94104590D01*
X172358153Y-94091917D01*
X172359266Y-94078144D01*
X172359637Y-94063274D01*
X172359637Y-93720005D01*
X172492407Y-93720005D01*
X172492407Y-94063274D01*
X172492613Y-94074530D01*
X172493529Y-94088577D01*
X172495178Y-94101525D01*
X172498269Y-94116164D01*
X172502505Y-94129087D01*
X172507886Y-94140293D01*
X172515854Y-94151475D01*
X172518839Y-94154650D01*
X172528439Y-94162947D01*
X172539007Y-94169400D01*
X172550544Y-94174009D01*
X172563050Y-94176775D01*
X172576524Y-94177696D01*
X172581194Y-94177594D01*
X172594531Y-94176058D01*
X172606858Y-94172677D01*
X172618175Y-94167454D01*
X172628483Y-94160386D01*
X172637780Y-94151475D01*
X172644535Y-94142329D01*
X172650145Y-94131466D01*
X172654610Y-94118886D01*
X172657930Y-94104590D01*
X172659762Y-94091917D01*
X172660861Y-94078144D01*
X172661228Y-94063274D01*
X172661228Y-93891639D01*
X172844410Y-93891639D01*
X172844410Y-94520965D01*
X172731277Y-94520965D01*
X172720153Y-94521175D01*
X172706274Y-94522106D01*
X172693486Y-94523782D01*
X172679033Y-94526925D01*
X172666283Y-94531231D01*
X172655236Y-94536702D01*
X172644228Y-94544803D01*
X172641105Y-94547804D01*
X172632944Y-94557505D01*
X172626597Y-94568253D01*
X172622063Y-94580048D01*
X172619343Y-94592892D01*
X172618436Y-94606782D01*
X172618537Y-94611530D01*
X172620048Y-94625089D01*
X172623373Y-94637622D01*
X172628511Y-94649128D01*
X172635463Y-94659607D01*
X172644228Y-94669059D01*
X172653232Y-94675841D01*
X172663938Y-94681473D01*
X172676347Y-94685956D01*
X172690459Y-94689289D01*
X172702975Y-94691128D01*
X172716581Y-94692232D01*
X172731277Y-94692600D01*
X173126950Y-94692600D01*
X173138074Y-94692393D01*
X173151952Y-94691473D01*
X173164741Y-94689818D01*
X173179193Y-94686714D01*
X173191943Y-94682462D01*
X173202990Y-94677059D01*
X173213998Y-94669059D01*
X173217157Y-94666023D01*
X173225410Y-94656228D01*
X173231830Y-94645406D01*
X173236415Y-94633558D01*
X173239166Y-94620684D01*
X173240083Y-94606782D01*
X173457557Y-94606782D01*
X173457659Y-94611530D01*
X173459187Y-94625089D01*
X173462550Y-94637622D01*
X173467747Y-94649128D01*
X173474777Y-94659607D01*
X173483642Y-94669059D01*
X173492645Y-94675841D01*
X173503351Y-94681473D01*
X173515761Y-94685956D01*
X173529873Y-94689289D01*
X173542389Y-94691128D01*
X173555995Y-94692232D01*
X173570690Y-94692600D01*
X174366140Y-94692600D01*
X174366140Y-94606782D01*
X174465205Y-94606782D01*
X174465306Y-94611530D01*
X174466817Y-94625089D01*
X174470142Y-94637622D01*
X174475280Y-94649128D01*
X174482232Y-94659607D01*
X174490997Y-94669059D01*
X174500001Y-94675841D01*
X174510707Y-94681473D01*
X174523116Y-94685956D01*
X174537228Y-94689289D01*
X174549744Y-94691128D01*
X174563350Y-94692232D01*
X174578046Y-94692600D01*
X174834501Y-94692600D01*
X174845622Y-94692393D01*
X174859489Y-94691473D01*
X174872257Y-94689818D01*
X174886671Y-94686714D01*
X174899368Y-94682462D01*
X174910347Y-94677059D01*
X174921256Y-94669059D01*
X174924414Y-94666023D01*
X174932668Y-94656228D01*
X174939087Y-94645406D01*
X174943673Y-94633558D01*
X174946424Y-94620684D01*
X174947341Y-94606782D01*
X174947239Y-94602036D01*
X174945710Y-94588494D01*
X174942348Y-94576000D01*
X174937151Y-94564554D01*
X174930120Y-94554155D01*
X174921256Y-94544803D01*
X174912337Y-94537936D01*
X174901701Y-94532232D01*
X174889348Y-94527693D01*
X174875277Y-94524317D01*
X174862784Y-94522455D01*
X174849192Y-94521338D01*
X174834501Y-94520965D01*
X174773244Y-94520965D01*
X174773244Y-94330260D01*
X174940600Y-94330260D01*
X174949113Y-94334313D01*
X174966552Y-94343825D01*
X174984540Y-94355213D01*
X175003078Y-94368478D01*
X175012554Y-94375813D01*
X175022166Y-94383618D01*
X175031916Y-94391893D01*
X175041803Y-94400636D01*
X175051828Y-94409848D01*
X175061990Y-94419529D01*
X175072289Y-94429680D01*
X175082726Y-94440299D01*
X175093300Y-94451388D01*
X175104012Y-94462945D01*
X175114861Y-94474972D01*
X175125847Y-94487468D01*
X175136971Y-94500433D01*
X175148232Y-94513867D01*
X175159631Y-94527770D01*
X175171166Y-94542142D01*
X175182840Y-94556983D01*
X175194650Y-94572293D01*
X175206598Y-94588073D01*
X175218684Y-94604321D01*
X175230907Y-94621039D01*
X175243267Y-94638225D01*
X175255765Y-94655881D01*
X175268399Y-94674006D01*
X175281172Y-94692600D01*
X175377599Y-94692600D01*
X175388718Y-94692393D01*
X175402573Y-94691473D01*
X175415320Y-94689818D01*
X175429696Y-94686714D01*
X175442340Y-94682462D01*
X175453252Y-94677059D01*
X175464061Y-94669059D01*
X175467184Y-94666023D01*
X175475345Y-94656228D01*
X175481692Y-94645406D01*
X175486226Y-94633558D01*
X175488946Y-94620684D01*
X175489853Y-94606782D01*
X175488544Y-94592619D01*
X175484619Y-94578959D01*
X175479348Y-94567959D01*
X175472259Y-94557309D01*
X175463354Y-94547008D01*
X175452630Y-94537056D01*
X175446814Y-94533285D01*
X175435514Y-94528571D01*
X175423736Y-94525506D01*
X175409812Y-94523228D01*
X175397126Y-94521971D01*
X175383067Y-94521217D01*
X175367634Y-94520965D01*
X175359713Y-94509683D01*
X175351999Y-94498780D01*
X175344491Y-94488256D01*
X175337189Y-94478112D01*
X175330093Y-94468348D01*
X175319835Y-94454413D01*
X175310041Y-94441331D01*
X175300711Y-94429103D01*
X175291845Y-94417729D01*
X175283442Y-94407209D01*
X175275502Y-94397542D01*
X175265638Y-94385982D01*
X175258046Y-94377622D01*
X175246766Y-94365441D01*
X175235614Y-94353689D01*
X175224592Y-94342366D01*
X175213698Y-94331473D01*
X175202933Y-94321010D01*
X175192296Y-94310976D01*
X175181789Y-94301371D01*
X175171410Y-94292196D01*
X175161160Y-94283451D01*
X175151039Y-94275135D01*
X175156800Y-94272029D01*
X175168048Y-94265735D01*
X175178929Y-94259328D01*
X175189443Y-94252810D01*
X175199592Y-94246180D01*
X175209374Y-94239438D01*
X175223360Y-94229116D01*
X175236521Y-94218543D01*
X175248859Y-94207718D01*
X175260372Y-94196641D01*
X175271060Y-94185314D01*
X175280925Y-94173734D01*
X175289965Y-94161904D01*
X175295572Y-94153842D01*
X175303305Y-94141549D01*
X175310225Y-94129015D01*
X175316330Y-94116239D01*
X175321621Y-94103223D01*
X175326098Y-94089966D01*
X175329761Y-94076468D01*
X175332610Y-94062729D01*
X175334645Y-94048750D01*
X175335866Y-94034529D01*
X175336273Y-94020067D01*
X175335888Y-94004535D01*
X175334734Y-93989301D01*
X175332811Y-93974365D01*
X175330118Y-93959727D01*
X175326656Y-93945387D01*
X175322424Y-93931345D01*
X175317424Y-93917600D01*
X175311653Y-93904154D01*
X175305114Y-93891006D01*
X175297805Y-93878156D01*
X175289726Y-93865604D01*
X175280879Y-93853349D01*
X175271262Y-93841393D01*
X175260875Y-93829735D01*
X175249719Y-93818374D01*
X175237794Y-93807312D01*
X175236015Y-93805822D01*
X175484870Y-93805822D01*
X175484971Y-93810570D01*
X175486482Y-93824129D01*
X175489807Y-93836661D01*
X175494945Y-93848167D01*
X175501897Y-93858647D01*
X175510662Y-93868099D01*
X175519544Y-93874881D01*
X175529885Y-93880513D01*
X175541686Y-93884996D01*
X175554947Y-93888329D01*
X175566606Y-93890168D01*
X175579200Y-93891271D01*
X175592728Y-93891639D01*
X175872337Y-94284372D01*
X175872337Y-94520965D01*
X175758618Y-94520965D01*
X175747599Y-94521175D01*
X175733844Y-94522106D01*
X175721161Y-94523782D01*
X175706814Y-94526925D01*
X175694141Y-94531231D01*
X175683143Y-94536702D01*
X175672156Y-94544803D01*
X175669033Y-94547804D01*
X175660872Y-94557505D01*
X175654525Y-94568253D01*
X175649991Y-94580048D01*
X175647271Y-94592892D01*
X175646364Y-94606782D01*
X175646465Y-94611530D01*
X175647976Y-94625089D01*
X175651301Y-94637622D01*
X175656439Y-94649128D01*
X175663391Y-94659607D01*
X175672156Y-94669059D01*
X175681145Y-94675841D01*
X175691808Y-94681473D01*
X175704145Y-94685956D01*
X175718157Y-94689289D01*
X175730573Y-94691128D01*
X175744059Y-94692232D01*
X175758618Y-94692600D01*
X176155170Y-94692600D01*
X176166292Y-94692393D01*
X176180159Y-94691473D01*
X176192927Y-94689818D01*
X176207341Y-94686714D01*
X176220038Y-94682462D01*
X176231017Y-94677059D01*
X176241926Y-94669059D01*
X176245084Y-94666023D01*
X176253338Y-94656228D01*
X176259757Y-94645406D01*
X176264342Y-94633558D01*
X176267094Y-94620684D01*
X176268011Y-94606782D01*
X176267909Y-94602036D01*
X176266380Y-94588494D01*
X176263018Y-94576000D01*
X176257821Y-94564554D01*
X176250790Y-94554155D01*
X176241926Y-94544803D01*
X176233007Y-94537936D01*
X176222371Y-94532232D01*
X176210017Y-94527693D01*
X176195947Y-94524317D01*
X176183454Y-94522455D01*
X176169862Y-94521338D01*
X176155170Y-94520965D01*
X176041158Y-94520965D01*
X176041158Y-94284372D01*
X176318129Y-93891639D01*
X176328994Y-93891432D01*
X176342575Y-93890513D01*
X176355120Y-93888858D01*
X176369347Y-93885754D01*
X176381957Y-93881501D01*
X176392949Y-93876099D01*
X176404005Y-93868099D01*
X176407199Y-93865062D01*
X176415546Y-93855268D01*
X176422037Y-93844446D01*
X176426674Y-93832598D01*
X176429456Y-93819723D01*
X176430383Y-93805822D01*
X176430281Y-93801075D01*
X176428753Y-93787534D01*
X176425390Y-93775040D01*
X176420194Y-93763593D01*
X176413163Y-93753194D01*
X176404298Y-93743843D01*
X176395379Y-93736976D01*
X176384743Y-93731272D01*
X176372390Y-93726733D01*
X176358319Y-93723357D01*
X176345826Y-93721495D01*
X176332234Y-93720377D01*
X176317543Y-93720005D01*
X176158394Y-93720005D01*
X176147270Y-93720214D01*
X176133392Y-93721146D01*
X176120604Y-93722822D01*
X176106151Y-93725964D01*
X176093401Y-93730271D01*
X176082354Y-93735742D01*
X176071346Y-93743843D01*
X176068188Y-93746844D01*
X176059934Y-93756544D01*
X176053515Y-93767292D01*
X176048929Y-93779088D01*
X176046178Y-93791931D01*
X176045261Y-93805822D01*
X176045807Y-93819723D01*
X176047446Y-93832598D01*
X176050176Y-93844446D01*
X176054742Y-93856971D01*
X176060795Y-93868099D01*
X176067482Y-93876099D01*
X176077186Y-93883340D01*
X176088936Y-93888329D01*
X176100638Y-93890812D01*
X176113845Y-93891639D01*
X175957334Y-94114526D01*
X175797306Y-93891639D01*
X175805398Y-93887987D01*
X175816557Y-93882080D01*
X175826542Y-93875660D01*
X175838027Y-93866302D01*
X175847424Y-93856031D01*
X175854733Y-93844848D01*
X175859954Y-93832752D01*
X175863087Y-93819743D01*
X175864131Y-93805822D01*
X175864029Y-93801039D01*
X175862500Y-93787403D01*
X175859138Y-93774836D01*
X175853941Y-93763337D01*
X175846910Y-93752907D01*
X175838046Y-93743545D01*
X175829042Y-93736763D01*
X175818336Y-93731131D01*
X175805927Y-93726649D01*
X175791815Y-93723315D01*
X175779299Y-93721476D01*
X175765693Y-93720373D01*
X175750997Y-93720005D01*
X175597711Y-93720005D01*
X175586587Y-93720214D01*
X175572708Y-93721146D01*
X175559920Y-93722822D01*
X175545467Y-93725964D01*
X175532717Y-93730271D01*
X175521671Y-93735742D01*
X175510662Y-93743843D01*
X175507539Y-93746844D01*
X175499378Y-93756544D01*
X175493031Y-93767292D01*
X175488497Y-93779088D01*
X175485777Y-93791931D01*
X175484870Y-93805822D01*
X175236015Y-93805822D01*
X175225171Y-93796740D01*
X175211920Y-93786849D01*
X175198042Y-93777641D01*
X175183536Y-93769115D01*
X175168403Y-93761271D01*
X175152642Y-93754109D01*
X175136254Y-93747629D01*
X175119239Y-93741832D01*
X175101596Y-93736716D01*
X175083326Y-93732282D01*
X175064428Y-93728531D01*
X175044904Y-93725462D01*
X175024751Y-93723074D01*
X175003971Y-93721369D01*
X174982564Y-93720346D01*
X174960530Y-93720005D01*
X174578046Y-93720005D01*
X174566922Y-93720214D01*
X174553043Y-93721146D01*
X174540255Y-93722822D01*
X174525802Y-93725964D01*
X174513052Y-93730271D01*
X174502006Y-93735742D01*
X174490997Y-93743843D01*
X174487874Y-93746844D01*
X174479713Y-93756544D01*
X174473366Y-93767292D01*
X174468832Y-93779088D01*
X174466112Y-93791931D01*
X174465205Y-93805822D01*
X174465306Y-93810570D01*
X174466817Y-93824129D01*
X174470142Y-93836661D01*
X174475280Y-93848167D01*
X174482232Y-93858647D01*
X174490997Y-93868099D01*
X174500001Y-93874881D01*
X174510707Y-93880513D01*
X174523116Y-93884996D01*
X174537228Y-93888329D01*
X174549744Y-93890168D01*
X174563350Y-93891271D01*
X174578046Y-93891639D01*
X174604424Y-93891639D01*
X174604424Y-94520965D01*
X174578046Y-94520965D01*
X174567076Y-94521175D01*
X174553372Y-94522106D01*
X174540721Y-94523782D01*
X174526388Y-94526925D01*
X174513701Y-94531231D01*
X174502660Y-94536702D01*
X174491584Y-94544803D01*
X174488389Y-94547804D01*
X174480043Y-94557505D01*
X174473552Y-94568253D01*
X174468915Y-94580048D01*
X174466133Y-94592892D01*
X174465205Y-94606782D01*
X174366140Y-94606782D01*
X174366140Y-94425613D01*
X174365932Y-94414359D01*
X174365004Y-94400324D01*
X174363335Y-94387397D01*
X174360205Y-94372796D01*
X174355916Y-94359927D01*
X174350468Y-94348790D01*
X174342400Y-94337710D01*
X174339416Y-94334498D01*
X174329834Y-94326107D01*
X174319303Y-94319581D01*
X174307824Y-94314919D01*
X174295398Y-94312122D01*
X174282023Y-94311190D01*
X174277352Y-94311293D01*
X174263998Y-94312847D01*
X174251633Y-94316266D01*
X174240258Y-94321549D01*
X174229871Y-94328697D01*
X174220474Y-94337710D01*
X174213719Y-94346770D01*
X174208109Y-94357561D01*
X174203644Y-94370084D01*
X174200324Y-94384338D01*
X174198492Y-94396988D01*
X174197393Y-94410747D01*
X174197027Y-94425613D01*
X174197027Y-94520965D01*
X173765889Y-94520965D01*
X173765889Y-94273049D01*
X173914487Y-94273049D01*
X173914679Y-94287771D01*
X173915256Y-94301096D01*
X173916518Y-94315788D01*
X173918382Y-94328298D01*
X173921411Y-94340429D01*
X173926796Y-94351715D01*
X173930067Y-94356045D01*
X173938976Y-94365647D01*
X173948929Y-94373504D01*
X173959927Y-94379615D01*
X173971970Y-94383980D01*
X173985058Y-94386599D01*
X173999190Y-94387472D01*
X174004688Y-94387333D01*
X174017811Y-94385775D01*
X174030047Y-94382485D01*
X174041396Y-94377464D01*
X174051857Y-94370712D01*
X174061431Y-94362228D01*
X174070118Y-94352013D01*
X174071715Y-94349679D01*
X174076494Y-94338779D01*
X174079585Y-94326055D01*
X174081453Y-94313066D01*
X174082483Y-94301115D01*
X174083101Y-94287775D01*
X174083307Y-94273049D01*
X174083307Y-94101415D01*
X174083101Y-94090161D01*
X174082185Y-94076126D01*
X174080537Y-94063199D01*
X174077445Y-94048598D01*
X174073209Y-94035729D01*
X174067828Y-94024591D01*
X174059860Y-94013512D01*
X174056875Y-94010300D01*
X174047275Y-94001909D01*
X174036707Y-93995383D01*
X174025170Y-93990721D01*
X174012664Y-93987924D01*
X173999190Y-93986992D01*
X173993412Y-93987131D01*
X173979697Y-93988703D01*
X173967028Y-93992020D01*
X173955403Y-93997083D01*
X173944823Y-94003893D01*
X173935287Y-94012448D01*
X173926796Y-94022749D01*
X173926039Y-94023854D01*
X173920846Y-94035838D01*
X173917961Y-94048493D01*
X173916218Y-94061439D01*
X173915256Y-94073368D01*
X173914679Y-94086693D01*
X173914487Y-94101415D01*
X173765889Y-94101415D01*
X173765889Y-93891639D01*
X174160097Y-93891639D01*
X174160097Y-93986992D01*
X174160303Y-93998248D01*
X174161219Y-94012295D01*
X174162868Y-94025243D01*
X174165959Y-94039882D01*
X174170195Y-94052805D01*
X174175576Y-94064012D01*
X174183545Y-94075193D01*
X174186532Y-94078368D01*
X174196166Y-94086665D01*
X174206810Y-94093118D01*
X174218464Y-94097727D01*
X174231127Y-94100493D01*
X174244801Y-94101415D01*
X174249504Y-94101312D01*
X174262899Y-94099776D01*
X174275223Y-94096396D01*
X174286475Y-94091172D01*
X174296655Y-94084104D01*
X174305764Y-94075193D01*
X174312434Y-94066047D01*
X174317974Y-94055184D01*
X174322383Y-94042604D01*
X174325662Y-94028308D01*
X174327471Y-94015635D01*
X174328556Y-94001863D01*
X174328918Y-93986992D01*
X174328918Y-93720899D01*
X173570690Y-93720005D01*
X173559566Y-93720214D01*
X173545688Y-93721146D01*
X173532900Y-93722822D01*
X173518447Y-93725964D01*
X173505697Y-93730271D01*
X173494650Y-93735742D01*
X173483642Y-93743843D01*
X173480483Y-93746844D01*
X173472230Y-93756544D01*
X173465811Y-93767292D01*
X173461225Y-93779088D01*
X173458474Y-93791931D01*
X173457557Y-93805822D01*
X173457659Y-93810570D01*
X173459187Y-93824129D01*
X173462550Y-93836661D01*
X173467747Y-93848167D01*
X173474777Y-93858647D01*
X173483642Y-93868099D01*
X173492645Y-93874881D01*
X173503351Y-93880513D01*
X173515761Y-93884996D01*
X173529873Y-93888329D01*
X173542389Y-93890168D01*
X173555995Y-93891271D01*
X173570690Y-93891639D01*
X173597069Y-93891639D01*
X173597069Y-94520965D01*
X173570690Y-94520965D01*
X173559669Y-94521175D01*
X173545902Y-94522106D01*
X173533199Y-94523782D01*
X173518813Y-94526925D01*
X173506088Y-94531231D01*
X173495022Y-94536702D01*
X173483935Y-94544803D01*
X173480741Y-94547804D01*
X173472395Y-94557505D01*
X173465903Y-94568253D01*
X173461267Y-94580048D01*
X173458484Y-94592892D01*
X173457557Y-94606782D01*
X173240083Y-94606782D01*
X173239981Y-94602036D01*
X173238453Y-94588494D01*
X173235090Y-94576000D01*
X173229894Y-94564554D01*
X173222863Y-94554155D01*
X173213998Y-94544803D01*
X173204995Y-94537936D01*
X173194289Y-94532232D01*
X173181880Y-94527693D01*
X173167768Y-94524317D01*
X173155252Y-94522455D01*
X173141646Y-94521338D01*
X173126950Y-94520965D01*
X173013230Y-94520965D01*
X173013230Y-93891639D01*
X173198757Y-93891639D01*
X173198757Y-94063274D01*
X173198963Y-94074530D01*
X173199879Y-94088577D01*
X173201528Y-94101525D01*
X173204619Y-94116164D01*
X173208855Y-94129087D01*
X173214236Y-94140293D01*
X173222205Y-94151475D01*
X173225189Y-94154650D01*
X173234789Y-94162947D01*
X173245358Y-94169400D01*
X173256895Y-94174009D01*
X173269400Y-94176775D01*
X173282875Y-94177696D01*
X173287545Y-94177594D01*
X173300881Y-94176058D01*
X173313208Y-94172677D01*
X173324526Y-94167454D01*
X173334833Y-94160386D01*
X173344131Y-94151475D01*
X173350970Y-94142329D01*
X173356650Y-94131466D01*
X173361171Y-94118886D01*
X173364533Y-94104590D01*
X173366387Y-94091917D01*
X173367500Y-94078144D01*
X173367871Y-94063274D01*
X173367871Y-93720005D01*
X172492407Y-93720005D01*
X172359637Y-93720005D01*
X171484173Y-93720005D01*
X171007606Y-93720005D01*
X170642414Y-93720005D01*
X170631290Y-93720214D01*
X170617412Y-93721146D01*
X170604623Y-93722822D01*
X170590170Y-93725964D01*
X170577421Y-93730271D01*
X170566374Y-93735742D01*
X170555366Y-93743843D01*
X170552207Y-93746844D01*
X170543954Y-93756544D01*
X170537534Y-93767292D01*
X170532949Y-93779088D01*
X170530198Y-93791931D01*
X170529281Y-93805822D01*
X170529383Y-93810570D01*
X170530911Y-93824129D01*
X170534274Y-93836661D01*
X170539470Y-93848167D01*
X170546501Y-93858647D01*
X170555366Y-93868099D01*
X170564369Y-93874881D01*
X170575075Y-93880513D01*
X170587484Y-93884996D01*
X170601596Y-93888329D01*
X170614112Y-93890168D01*
X170627718Y-93891271D01*
X170642414Y-93891639D01*
X170752909Y-93891639D01*
X170608069Y-94234908D01*
X170487369Y-94520965D01*
X170472247Y-94521338D01*
X170458243Y-94522455D01*
X170445356Y-94524317D01*
X170433586Y-94526925D01*
X170420446Y-94531231D01*
X170409051Y-94536702D01*
X170397683Y-94544803D01*
X170394382Y-94547804D01*
X170385758Y-94557505D01*
X170379050Y-94568253D01*
X170374258Y-94580048D01*
X170371383Y-94592892D01*
X170370425Y-94606782D01*
X170294674Y-94606782D01*
X170300331Y-94601560D01*
X170309169Y-94592135D01*
X170317550Y-94581866D01*
X170325472Y-94570753D01*
X170332937Y-94558796D01*
X170339944Y-94545995D01*
X170343422Y-94538958D01*
X170349705Y-94524674D01*
X170355091Y-94510110D01*
X170359579Y-94495267D01*
X170363169Y-94480145D01*
X170365862Y-94464743D01*
X170367657Y-94449062D01*
X170368414Y-94437118D01*
X170368667Y-94425017D01*
X170368510Y-94414877D01*
X170367686Y-94399917D01*
X170366157Y-94385256D01*
X170363922Y-94370893D01*
X170360981Y-94356828D01*
X170357334Y-94343062D01*
X170352982Y-94329595D01*
X170347923Y-94316426D01*
X170342159Y-94303555D01*
X170335689Y-94290984D01*
X170328513Y-94278710D01*
X170323374Y-94270692D01*
X170315076Y-94258904D01*
X170306073Y-94247404D01*
X170296364Y-94236193D01*
X170285950Y-94225269D01*
X170274829Y-94214634D01*
X170263003Y-94204286D01*
X170250470Y-94194227D01*
X170237232Y-94184456D01*
X170223288Y-94174973D01*
X170208639Y-94165777D01*
X170219208Y-94156061D01*
X170229082Y-94146130D01*
X170238259Y-94135984D01*
X170246741Y-94125625D01*
X170254526Y-94115052D01*
X170261615Y-94104264D01*
X170268008Y-94093262D01*
X170273705Y-94082046D01*
X170278720Y-94070630D01*
X170283066Y-94059027D01*
X170286743Y-94047239D01*
X170289752Y-94035264D01*
X170292092Y-94023103D01*
X170293763Y-94010755D01*
X170294766Y-93998222D01*
X170295101Y-93985502D01*
X170294740Y-93972096D01*
X170293658Y-93958921D01*
X170291855Y-93945977D01*
X170289330Y-93933263D01*
X170286085Y-93920779D01*
X170282118Y-93908526D01*
X170277429Y-93896504D01*
X170272020Y-93884711D01*
X170265889Y-93873150D01*
X170259037Y-93861818D01*
X170251463Y-93850718D01*
X170243169Y-93839847D01*
X170234153Y-93829207D01*
X170224415Y-93818798D01*
X170213957Y-93808619D01*
X170202777Y-93798671D01*
X170191005Y-93789145D01*
X170178771Y-93780233D01*
X170166074Y-93771937D01*
X170152915Y-93764254D01*
X170139293Y-93757187D01*
X170125208Y-93750734D01*
X170110661Y-93744895D01*
X170095652Y-93739671D01*
X170080180Y-93735062D01*
X170064245Y-93731067D01*
X170047848Y-93727687D01*
X170030989Y-93724922D01*
X170013667Y-93722771D01*
X169995882Y-93721234D01*
X169977635Y-93720312D01*
X169958925Y-93720005D01*
X169535115Y-93720005D01*
X169523991Y-93720214D01*
X169510112Y-93721146D01*
X169497324Y-93722822D01*
X169482871Y-93725964D01*
X169470121Y-93730271D01*
X169459075Y-93735742D01*
X169448066Y-93743843D01*
X169444943Y-93746844D01*
X169436782Y-93756544D01*
X169430435Y-93767292D01*
X169425901Y-93779088D01*
X169423181Y-93791931D01*
X169422274Y-93805822D01*
X169422375Y-93810570D01*
X169423886Y-93824129D01*
X169427211Y-93836661D01*
X169432349Y-93848167D01*
X169439301Y-93858647D01*
X169448066Y-93868099D01*
X169457070Y-93874881D01*
X169467776Y-93880513D01*
X169480185Y-93884996D01*
X169494297Y-93888329D01*
X169506813Y-93890168D01*
X169520419Y-93891271D01*
X169535115Y-93891639D01*
X169561493Y-93891639D01*
X169561493Y-94273049D01*
X169561493Y-94520965D01*
X169535115Y-94520965D01*
X169524145Y-94521175D01*
X169510441Y-94522106D01*
X169497790Y-94523782D01*
X169483457Y-94526925D01*
X169470770Y-94531231D01*
X169459729Y-94536702D01*
X169448653Y-94544803D01*
X169445458Y-94547804D01*
X169437112Y-94557505D01*
X169430621Y-94568253D01*
X169425984Y-94580048D01*
X169423202Y-94592892D01*
X169422274Y-94606782D01*
X169247988Y-94606782D01*
X169247988Y-93545719D01*
X176604669Y-93545719D01*
X176604669Y-94866886D01*
G37*
D13*
%TO.C,R7*%
X165353641Y-111980000D02*
X165046359Y-111980000D01*
X165353641Y-111220000D02*
X165046359Y-111220000D01*
%TO.C,C14*%
X156390000Y-88240580D02*
X156390000Y-87959420D01*
X157410000Y-88240580D02*
X157410000Y-87959420D01*
%TO.C,D3*%
X158740000Y-109400000D02*
X162750000Y-109400000D01*
X158740000Y-107400000D02*
X162750000Y-107400000D01*
X158740000Y-107400000D02*
X158740000Y-109400000D01*
%TO.C,D5*%
X173190000Y-110050000D02*
X178700000Y-110050000D01*
X173190000Y-106750000D02*
X173190000Y-110050000D01*
X173190000Y-106750000D02*
X178700000Y-106750000D01*
%TO.C,C11*%
X144290000Y-88215580D02*
X144290000Y-87934420D01*
X145310000Y-88215580D02*
X145310000Y-87934420D01*
%TO.C,R28*%
X174727976Y-98070000D02*
X175035258Y-98070000D01*
X174727976Y-98830000D02*
X175035258Y-98830000D01*
%TO.C,R5*%
X146746359Y-95520000D02*
X147053641Y-95520000D01*
X146746359Y-96280000D02*
X147053641Y-96280000D01*
%TO.C,R2*%
X142440000Y-110807836D02*
X142440000Y-110592164D01*
X143160000Y-110807836D02*
X143160000Y-110592164D01*
%TO.C,R21*%
X171507836Y-107460000D02*
X171292164Y-107460000D01*
X171507836Y-106740000D02*
X171292164Y-106740000D01*
%TO.C,C36*%
X169639453Y-97060000D02*
X169423781Y-97060000D01*
X169639453Y-96340000D02*
X169423781Y-96340000D01*
%TO.C,C30*%
X174547500Y-83962500D02*
X174547500Y-84750000D01*
X174941250Y-84356250D02*
X174153750Y-84356250D01*
X175045563Y-84990000D02*
X173760000Y-84990000D01*
X175045563Y-84990000D02*
X176110000Y-86054437D01*
X170354437Y-84990000D02*
X171640000Y-84990000D01*
X170354437Y-84990000D02*
X169290000Y-86054437D01*
X176110000Y-86054437D02*
X176110000Y-91810000D01*
X169290000Y-86054437D02*
X169290000Y-91810000D01*
X176110000Y-91810000D02*
X173760000Y-91810000D01*
X169290000Y-91810000D02*
X171640000Y-91810000D01*
%TO.C,R20*%
X152980000Y-96246359D02*
X152980000Y-96553641D01*
X152220000Y-96246359D02*
X152220000Y-96553641D01*
%TO.C,U4*%
X172860000Y-109987500D02*
X172860000Y-107987500D01*
X170640000Y-108987500D02*
X170640000Y-107987500D01*
%TO.C,R4*%
X141673641Y-95590000D02*
X141366359Y-95590000D01*
X141673641Y-94830000D02*
X141366359Y-94830000D01*
%TO.C,C25*%
X170992164Y-111040000D02*
X171207836Y-111040000D01*
X170992164Y-111760000D02*
X171207836Y-111760000D01*
%TO.C,U1*%
X164840000Y-108900000D02*
X164840000Y-110700000D01*
X164840000Y-108900000D02*
X164840000Y-108100000D01*
X167960000Y-108900000D02*
X167960000Y-109700000D01*
X167960000Y-108900000D02*
X167960000Y-108100000D01*
%TO.C,U5*%
X154600000Y-92010000D02*
X156600000Y-92010000D01*
X155600000Y-89790000D02*
X156600000Y-89790000D01*
%TO.C,C29*%
X174873781Y-96240000D02*
X175089453Y-96240000D01*
X174873781Y-96960000D02*
X175089453Y-96960000D01*
%TO.C,C16*%
X159810000Y-90959420D02*
X159810000Y-91240580D01*
X158790000Y-90959420D02*
X158790000Y-91240580D01*
%TO.C,C18*%
X161410000Y-90959420D02*
X161410000Y-91240580D01*
X160390000Y-90959420D02*
X160390000Y-91240580D01*
%TO.C,R17*%
X154180000Y-96246359D02*
X154180000Y-96553641D01*
X153420000Y-96246359D02*
X153420000Y-96553641D01*
%TO.C,R13*%
X164380000Y-108446359D02*
X164380000Y-108753641D01*
X163620000Y-108446359D02*
X163620000Y-108753641D01*
%TO.C,C37*%
X168341617Y-95392164D02*
X168341617Y-95607836D01*
X167621617Y-95392164D02*
X167621617Y-95607836D01*
%TO.C,C23*%
X169307836Y-110660000D02*
X169092164Y-110660000D01*
X169307836Y-109940000D02*
X169092164Y-109940000D01*
%TO.C,R1*%
X155360000Y-96292164D02*
X155360000Y-96507836D01*
X154640000Y-96292164D02*
X154640000Y-96507836D01*
%TO.C,R32*%
X162961617Y-101846359D02*
X162961617Y-102153641D01*
X162201617Y-101846359D02*
X162201617Y-102153641D01*
D14*
%TO.C,IC1*%
X125250000Y-107300000D02*
X125250000Y-107300000D01*
X125250000Y-107300000D02*
X125250000Y-107300000D01*
X125250000Y-107200000D02*
X125250000Y-107200000D01*
X117850000Y-106600000D02*
X117850000Y-106600000D01*
X117850000Y-106600000D02*
X117850000Y-106600000D01*
X117850000Y-106600000D02*
X124600000Y-106600000D01*
X117850000Y-106600000D02*
X117850000Y-93400000D01*
X124600000Y-106600000D02*
X117850000Y-106600000D01*
X124600000Y-106600000D02*
X124600000Y-106600000D01*
X135350000Y-106600000D02*
X135350000Y-106600000D01*
X135350000Y-106600000D02*
X136850000Y-106600000D01*
X136850000Y-106600000D02*
X135350000Y-106600000D01*
X136850000Y-106600000D02*
X136850000Y-106600000D01*
X136850000Y-106600000D02*
X136850000Y-106600000D01*
X136850000Y-106600000D02*
X136850000Y-105750000D01*
X136850000Y-105750000D02*
X136850000Y-106600000D01*
X136850000Y-105750000D02*
X136850000Y-105750000D01*
X136850000Y-94500000D02*
X136850000Y-94500000D01*
X136850000Y-94500000D02*
X136850000Y-93400000D01*
X117850000Y-93400000D02*
X117850000Y-106600000D01*
X117850000Y-93400000D02*
X117850000Y-93400000D01*
X117850000Y-93400000D02*
X117850000Y-93400000D01*
X117850000Y-93400000D02*
X124600000Y-93400000D01*
X124600000Y-93400000D02*
X117850000Y-93400000D01*
X124600000Y-93400000D02*
X124600000Y-93400000D01*
X135350000Y-93400000D02*
X135350000Y-93400000D01*
X135350000Y-93400000D02*
X136850000Y-93400000D01*
X136850000Y-93400000D02*
X136850000Y-94500000D01*
X136850000Y-93400000D02*
X135350000Y-93400000D01*
X136850000Y-93400000D02*
X136850000Y-93400000D01*
X136850000Y-93400000D02*
X136850000Y-93400000D01*
X125250000Y-107200000D02*
G75*
G03*
X125250000Y-107300000I0J-50000D01*
G01*
X125250000Y-107300000D02*
G75*
G03*
X125250000Y-107200000I0J50000D01*
G01*
X125250000Y-107300000D02*
G75*
G03*
X125250000Y-107200000I0J50000D01*
G01*
D13*
%TO.C,D1*%
X155865000Y-97785000D02*
X157335000Y-97785000D01*
X157335000Y-97785000D02*
X157335000Y-95500000D01*
X155865000Y-95500000D02*
X155865000Y-97785000D01*
%TO.C,R24*%
X147069190Y-98021693D02*
X147221693Y-97869190D01*
X147578307Y-98530810D02*
X147730810Y-98378307D01*
%TO.C,C6*%
X142010000Y-92359420D02*
X142010000Y-92640580D01*
X140990000Y-92359420D02*
X140990000Y-92640580D01*
%TO.C,R26*%
X129370000Y-110153641D02*
X129370000Y-109846359D01*
X130130000Y-110153641D02*
X130130000Y-109846359D01*
%TO.C,C35*%
X165841617Y-95592164D02*
X165841617Y-95807836D01*
X165121617Y-95592164D02*
X165121617Y-95807836D01*
%TO.C,R25*%
X145730810Y-100378307D02*
X145578307Y-100530810D01*
X145221693Y-99869190D02*
X145069190Y-100021693D01*
%TO.C,C24*%
X169307836Y-109560000D02*
X169092164Y-109560000D01*
X169307836Y-108840000D02*
X169092164Y-108840000D01*
%TO.C,R8*%
X152653641Y-92580000D02*
X152346359Y-92580000D01*
X152653641Y-91820000D02*
X152346359Y-91820000D01*
%TO.C,C31*%
X127511252Y-110735000D02*
X126988748Y-110735000D01*
X127511252Y-109265000D02*
X126988748Y-109265000D01*
%TO.C,R14*%
X157620000Y-91253641D02*
X157620000Y-90946359D01*
X158380000Y-91253641D02*
X158380000Y-90946359D01*
%TO.C,Q1*%
X176140000Y-112237500D02*
X176140000Y-113912500D01*
X176140000Y-112237500D02*
X176140000Y-111587500D01*
X179260000Y-112237500D02*
X179260000Y-112887500D01*
X179260000Y-112237500D02*
X179260000Y-111587500D01*
%TO.C,C10*%
X143940000Y-93207836D02*
X143940000Y-92992164D01*
X144660000Y-93207836D02*
X144660000Y-92992164D01*
%TO.C,R19*%
X154980000Y-93446359D02*
X154980000Y-93753641D01*
X154220000Y-93446359D02*
X154220000Y-93753641D01*
%TO.C,R29*%
X167037976Y-104820000D02*
X167345258Y-104820000D01*
X167037976Y-105580000D02*
X167345258Y-105580000D01*
%TO.C,C3*%
X143610000Y-92359420D02*
X143610000Y-92640580D01*
X142590000Y-92359420D02*
X142590000Y-92640580D01*
%TO.C,C20*%
X156307836Y-93160000D02*
X156092164Y-93160000D01*
X156307836Y-92440000D02*
X156092164Y-92440000D01*
%TO.C,C19*%
X157890000Y-88240580D02*
X157890000Y-87959420D01*
X158910000Y-88240580D02*
X158910000Y-87959420D01*
%TO.C,D6*%
X163750000Y-89690000D02*
X162050000Y-89690000D01*
X163750000Y-89690000D02*
X163750000Y-92350000D01*
X162050000Y-89690000D02*
X162050000Y-92350000D01*
%TO.C,U6*%
X175710000Y-112300000D02*
X175710000Y-118310000D01*
X168890000Y-114550000D02*
X168890000Y-118310000D01*
X175710000Y-118310000D02*
X174450000Y-118310000D01*
X168890000Y-118310000D02*
X170150000Y-118310000D01*
%TO.C,J5*%
X125900000Y-82570000D02*
X127030000Y-82570000D01*
X125900000Y-83330000D02*
X125900000Y-82570000D01*
X125900000Y-84090000D02*
X125900000Y-86565000D01*
X125900000Y-84090000D02*
X126466529Y-84090000D01*
X125900000Y-86565000D02*
X126722470Y-86565000D01*
X127337530Y-86565000D02*
X127992470Y-86565000D01*
X127593471Y-84090000D02*
X127736529Y-84090000D01*
X127790000Y-82635000D02*
X127992470Y-82635000D01*
X127790000Y-82766529D02*
X127790000Y-82635000D01*
X127790000Y-84036529D02*
X127790000Y-83893471D01*
X128607530Y-82635000D02*
X129430000Y-82635000D01*
X128607530Y-86565000D02*
X129430000Y-86565000D01*
X129430000Y-82635000D02*
X129430000Y-86565000D01*
%TO.C,C32*%
X126607836Y-108860000D02*
X126392164Y-108860000D01*
X126607836Y-108140000D02*
X126392164Y-108140000D01*
%TO.C,C13*%
X141090000Y-88215580D02*
X141090000Y-87934420D01*
X142110000Y-88215580D02*
X142110000Y-87934420D01*
%TO.C,R6*%
X167353641Y-111980000D02*
X167046359Y-111980000D01*
X167353641Y-111220000D02*
X167046359Y-111220000D01*
%TO.C,C15*%
X153390000Y-88240580D02*
X153390000Y-87959420D01*
X154410000Y-88240580D02*
X154410000Y-87959420D01*
%TO.C,C28*%
X174923781Y-103040000D02*
X175139453Y-103040000D01*
X174923781Y-103760000D02*
X175139453Y-103760000D01*
%TO.C,J4*%
X176890000Y-94460000D02*
X178140000Y-94460000D01*
X177190000Y-94160000D02*
X181910000Y-94160000D01*
X178500000Y-94160000D02*
X178500000Y-93550000D01*
X179800000Y-94160000D02*
X179800000Y-93550000D01*
X181910000Y-94160000D02*
X181910000Y-86040000D01*
X177800000Y-93550000D02*
X181300000Y-93550000D01*
X181300000Y-93550000D02*
X181300000Y-86650000D01*
X176890000Y-93210000D02*
X176890000Y-94460000D01*
X176990000Y-92700000D02*
X177190000Y-92700000D01*
X176990000Y-92400000D02*
X176990000Y-92700000D01*
X177090000Y-92400000D02*
X177090000Y-92700000D01*
X177190000Y-92400000D02*
X176990000Y-92400000D01*
X177190000Y-91600000D02*
X177800000Y-91600000D01*
X177800000Y-91600000D02*
X177800000Y-93550000D01*
X180800000Y-91200000D02*
X180800000Y-91000000D01*
X181300000Y-91200000D02*
X180800000Y-91200000D01*
X181300000Y-91100000D02*
X180800000Y-91100000D01*
X180800000Y-91000000D02*
X181300000Y-91000000D01*
X180800000Y-89200000D02*
X180800000Y-89000000D01*
X181300000Y-89200000D02*
X180800000Y-89200000D01*
X181300000Y-89100000D02*
X180800000Y-89100000D01*
X180800000Y-89000000D02*
X181300000Y-89000000D01*
X177800000Y-88600000D02*
X177190000Y-88600000D01*
X177800000Y-86650000D02*
X177800000Y-88600000D01*
X181300000Y-86650000D02*
X177800000Y-86650000D01*
X177190000Y-86040000D02*
X177190000Y-94160000D01*
X178500000Y-86040000D02*
X178500000Y-86650000D01*
X179800000Y-86040000D02*
X179800000Y-86650000D01*
X181910000Y-86040000D02*
X177190000Y-86040000D01*
%TO.C,R27*%
X174777976Y-101170000D02*
X175085258Y-101170000D01*
X174777976Y-101930000D02*
X175085258Y-101930000D01*
%TO.C,C22*%
X169307836Y-111760000D02*
X169092164Y-111760000D01*
X169307836Y-111040000D02*
X169092164Y-111040000D01*
%TO.C,J1*%
X140020000Y-115985000D02*
X140020000Y-116840000D01*
X140020000Y-119960000D02*
X140020000Y-120910000D01*
X140020000Y-120910000D02*
X149180000Y-120910000D01*
X149180000Y-115985000D02*
X149180000Y-116840000D01*
X149180000Y-119960000D02*
X149180000Y-120910000D01*
%TO.C,C34*%
X131360000Y-109892164D02*
X131360000Y-110107836D01*
X130640000Y-109892164D02*
X130640000Y-110107836D01*
%TO.C,C27*%
X173292164Y-111040000D02*
X173507836Y-111040000D01*
X173292164Y-111760000D02*
X173507836Y-111760000D01*
%TO.C,C8*%
X147292164Y-88840000D02*
X147507836Y-88840000D01*
X147292164Y-89560000D02*
X147507836Y-89560000D01*
%TO.C,A1*%
X167621617Y-97890000D02*
X167846617Y-97890000D01*
X171841617Y-98115000D02*
X171841617Y-97890000D01*
X167621617Y-98115000D02*
X167621617Y-97890000D01*
X171841617Y-101885000D02*
X171841617Y-102110000D01*
X167621617Y-101885000D02*
X167621617Y-102110000D01*
X171841617Y-102110000D02*
X171616617Y-102110000D01*
X167621617Y-102110000D02*
X167846617Y-102110000D01*
%TO.C,C33*%
X167073781Y-103740000D02*
X167289453Y-103740000D01*
X167073781Y-104460000D02*
X167289453Y-104460000D01*
%TO.C,R10*%
X163653641Y-110580000D02*
X163346359Y-110580000D01*
X163653641Y-109820000D02*
X163346359Y-109820000D01*
%TO.C,R30*%
X169027976Y-104820000D02*
X169335258Y-104820000D01*
X169027976Y-105580000D02*
X169335258Y-105580000D01*
%TO.C,C9*%
X142690000Y-88215580D02*
X142690000Y-87934420D01*
X143710000Y-88215580D02*
X143710000Y-87934420D01*
%TO.C,R18*%
X151780000Y-96246359D02*
X151780000Y-96553641D01*
X151020000Y-96246359D02*
X151020000Y-96553641D01*
%TO.C,C26*%
X166060000Y-90892164D02*
X166060000Y-91107836D01*
X165340000Y-90892164D02*
X165340000Y-91107836D01*
%TO.C,R22*%
X152346359Y-93520000D02*
X152653641Y-93520000D01*
X152346359Y-94280000D02*
X152653641Y-94280000D01*
%TO.C,D2*%
X141661252Y-97735000D02*
X141138748Y-97735000D01*
X141661252Y-96265000D02*
X141138748Y-96265000D01*
%TO.C,R12*%
X159853641Y-107080000D02*
X159546359Y-107080000D01*
X159853641Y-106320000D02*
X159546359Y-106320000D01*
%TO.C,R31*%
X163301617Y-102143641D02*
X163301617Y-101836359D01*
X164061617Y-102143641D02*
X164061617Y-101836359D01*
D15*
%TO.C,SW1*%
X137600000Y-111000000D02*
X135600000Y-111000000D01*
X135600000Y-111000000D02*
X135600000Y-110000000D01*
X135600000Y-110000000D02*
X137600000Y-110000000D01*
X137600000Y-110000000D02*
X137600000Y-111000000D01*
D13*
%TO.C,R15*%
X180360000Y-113092164D02*
X180360000Y-113307836D01*
X179640000Y-113092164D02*
X179640000Y-113307836D01*
%TO.C,C2*%
X145660000Y-91992164D02*
X145660000Y-92207836D01*
X144940000Y-91992164D02*
X144940000Y-92207836D01*
%TO.C,R23*%
X164401617Y-102153641D02*
X164401617Y-101846359D01*
X165161617Y-102153641D02*
X165161617Y-101846359D01*
%TO.C,C7*%
X145190000Y-107040580D02*
X145190000Y-106759420D01*
X146210000Y-107040580D02*
X146210000Y-106759420D01*
%TO.C,U2*%
X156600000Y-109460000D02*
X158400000Y-109460000D01*
X156600000Y-109460000D02*
X155800000Y-109460000D01*
X156600000Y-106340000D02*
X157400000Y-106340000D01*
X156600000Y-106340000D02*
X155800000Y-106340000D01*
%TO.C,C17*%
X151890000Y-88240580D02*
X151890000Y-87959420D01*
X152910000Y-88240580D02*
X152910000Y-87959420D01*
%TO.C,C12*%
X149707836Y-89560000D02*
X149492164Y-89560000D01*
X149707836Y-88840000D02*
X149492164Y-88840000D01*
%TO.C,C21*%
X154890000Y-88240580D02*
X154890000Y-87959420D01*
X155910000Y-88240580D02*
X155910000Y-87959420D01*
%TO.C,R16*%
X152346359Y-94520000D02*
X152653641Y-94520000D01*
X152346359Y-95280000D02*
X152653641Y-95280000D01*
%TO.C,R3*%
X145540000Y-110807836D02*
X145540000Y-110592164D01*
X146260000Y-110807836D02*
X146260000Y-110592164D01*
%TD*%
M02*
