%TF.GenerationSoftware,KiCad,Pcbnew,7.0.6*%
%TF.CreationDate,2024-03-18T22:21:01-04:00*%
%TF.ProjectId,Receiver,52656365-6976-4657-922e-6b696361645f,rev?*%
%TF.SameCoordinates,Original*%
%TF.FileFunction,Drillmap*%
%TF.FilePolarity,Positive*%
%FSLAX45Y45*%
G04 Gerber Fmt 4.5, Leading zero omitted, Abs format (unit mm)*
G04 Created by KiCad (PCBNEW 7.0.6) date 2024-03-18 22:21:01*
%MOMM*%
%LPD*%
G01*
G04 APERTURE LIST*
%ADD10C,0.050000*%
%ADD11C,0.200000*%
%ADD12C,0.060000*%
G04 APERTURE END LIST*
D10*
X11750000Y-11850000D02*
G75*
G03*
X12000000Y-12100000I250000J0D01*
G01*
X18000000Y-12100000D02*
G75*
G03*
X18250000Y-11850000I0J250000D01*
G01*
X12000000Y-7900000D02*
G75*
G03*
X11750000Y-8150000I0J-250000D01*
G01*
X18250000Y-8150000D02*
G75*
G03*
X18000000Y-7900000I-250000J0D01*
G01*
X18000000Y-12100000D02*
X12000000Y-12100000D01*
X11750000Y-11850000D02*
X11750000Y-8150000D01*
X18250000Y-8150000D02*
X18250000Y-11850000D01*
X12000000Y-7900000D02*
X18000000Y-7900000D01*
D11*
D12*
X14130000Y-11495000D02*
X14190000Y-11555000D01*
X14190000Y-11495000D02*
X14130000Y-11555000D01*
X14730000Y-11495000D02*
X14790000Y-11555000D01*
X14790000Y-11495000D02*
X14730000Y-11555000D01*
D11*
X14747500Y-11555000D02*
X14772500Y-11555000D01*
X14772500Y-11555000D02*
G75*
G03*
X14772500Y-11495000I0J30000D01*
G01*
X14772500Y-11495000D02*
X14747500Y-11495000D01*
X14747500Y-11495000D02*
G75*
G03*
X14747500Y-11555000I0J-30000D01*
G01*
X12008277Y-12413984D02*
X12008277Y-12213984D01*
X12008277Y-12213984D02*
X12055896Y-12213984D01*
X12055896Y-12213984D02*
X12084467Y-12223508D01*
X12084467Y-12223508D02*
X12103515Y-12242555D01*
X12103515Y-12242555D02*
X12113039Y-12261603D01*
X12113039Y-12261603D02*
X12122562Y-12299698D01*
X12122562Y-12299698D02*
X12122562Y-12328269D01*
X12122562Y-12328269D02*
X12113039Y-12366365D01*
X12113039Y-12366365D02*
X12103515Y-12385412D01*
X12103515Y-12385412D02*
X12084467Y-12404460D01*
X12084467Y-12404460D02*
X12055896Y-12413984D01*
X12055896Y-12413984D02*
X12008277Y-12413984D01*
X12208277Y-12413984D02*
X12208277Y-12280650D01*
X12208277Y-12318746D02*
X12217801Y-12299698D01*
X12217801Y-12299698D02*
X12227324Y-12290174D01*
X12227324Y-12290174D02*
X12246372Y-12280650D01*
X12246372Y-12280650D02*
X12265420Y-12280650D01*
X12332086Y-12413984D02*
X12332086Y-12280650D01*
X12332086Y-12213984D02*
X12322562Y-12223508D01*
X12322562Y-12223508D02*
X12332086Y-12233031D01*
X12332086Y-12233031D02*
X12341610Y-12223508D01*
X12341610Y-12223508D02*
X12332086Y-12213984D01*
X12332086Y-12213984D02*
X12332086Y-12233031D01*
X12455896Y-12413984D02*
X12436848Y-12404460D01*
X12436848Y-12404460D02*
X12427324Y-12385412D01*
X12427324Y-12385412D02*
X12427324Y-12213984D01*
X12560658Y-12413984D02*
X12541610Y-12404460D01*
X12541610Y-12404460D02*
X12532086Y-12385412D01*
X12532086Y-12385412D02*
X12532086Y-12213984D01*
X12789229Y-12413984D02*
X12789229Y-12213984D01*
X12789229Y-12213984D02*
X12855896Y-12356841D01*
X12855896Y-12356841D02*
X12922562Y-12213984D01*
X12922562Y-12213984D02*
X12922562Y-12413984D01*
X13103515Y-12413984D02*
X13103515Y-12309222D01*
X13103515Y-12309222D02*
X13093991Y-12290174D01*
X13093991Y-12290174D02*
X13074943Y-12280650D01*
X13074943Y-12280650D02*
X13036848Y-12280650D01*
X13036848Y-12280650D02*
X13017801Y-12290174D01*
X13103515Y-12404460D02*
X13084467Y-12413984D01*
X13084467Y-12413984D02*
X13036848Y-12413984D01*
X13036848Y-12413984D02*
X13017801Y-12404460D01*
X13017801Y-12404460D02*
X13008277Y-12385412D01*
X13008277Y-12385412D02*
X13008277Y-12366365D01*
X13008277Y-12366365D02*
X13017801Y-12347317D01*
X13017801Y-12347317D02*
X13036848Y-12337793D01*
X13036848Y-12337793D02*
X13084467Y-12337793D01*
X13084467Y-12337793D02*
X13103515Y-12328269D01*
X13198753Y-12280650D02*
X13198753Y-12480650D01*
X13198753Y-12290174D02*
X13217801Y-12280650D01*
X13217801Y-12280650D02*
X13255896Y-12280650D01*
X13255896Y-12280650D02*
X13274943Y-12290174D01*
X13274943Y-12290174D02*
X13284467Y-12299698D01*
X13284467Y-12299698D02*
X13293991Y-12318746D01*
X13293991Y-12318746D02*
X13293991Y-12375888D01*
X13293991Y-12375888D02*
X13284467Y-12394936D01*
X13284467Y-12394936D02*
X13274943Y-12404460D01*
X13274943Y-12404460D02*
X13255896Y-12413984D01*
X13255896Y-12413984D02*
X13217801Y-12413984D01*
X13217801Y-12413984D02*
X13198753Y-12404460D01*
X13379705Y-12394936D02*
X13389229Y-12404460D01*
X13389229Y-12404460D02*
X13379705Y-12413984D01*
X13379705Y-12413984D02*
X13370182Y-12404460D01*
X13370182Y-12404460D02*
X13379705Y-12394936D01*
X13379705Y-12394936D02*
X13379705Y-12413984D01*
X13379705Y-12290174D02*
X13389229Y-12299698D01*
X13389229Y-12299698D02*
X13379705Y-12309222D01*
X13379705Y-12309222D02*
X13370182Y-12299698D01*
X13370182Y-12299698D02*
X13379705Y-12290174D01*
X13379705Y-12290174D02*
X13379705Y-12309222D01*
D12*
X11687500Y-12712500D02*
X11747500Y-12772500D01*
X11747500Y-12712500D02*
X11687500Y-12772500D01*
D11*
X12046372Y-12633984D02*
X12065420Y-12633984D01*
X12065420Y-12633984D02*
X12084467Y-12643508D01*
X12084467Y-12643508D02*
X12093991Y-12653031D01*
X12093991Y-12653031D02*
X12103515Y-12672079D01*
X12103515Y-12672079D02*
X12113039Y-12710174D01*
X12113039Y-12710174D02*
X12113039Y-12757793D01*
X12113039Y-12757793D02*
X12103515Y-12795888D01*
X12103515Y-12795888D02*
X12093991Y-12814936D01*
X12093991Y-12814936D02*
X12084467Y-12824460D01*
X12084467Y-12824460D02*
X12065420Y-12833984D01*
X12065420Y-12833984D02*
X12046372Y-12833984D01*
X12046372Y-12833984D02*
X12027324Y-12824460D01*
X12027324Y-12824460D02*
X12017801Y-12814936D01*
X12017801Y-12814936D02*
X12008277Y-12795888D01*
X12008277Y-12795888D02*
X11998753Y-12757793D01*
X11998753Y-12757793D02*
X11998753Y-12710174D01*
X11998753Y-12710174D02*
X12008277Y-12672079D01*
X12008277Y-12672079D02*
X12017801Y-12653031D01*
X12017801Y-12653031D02*
X12027324Y-12643508D01*
X12027324Y-12643508D02*
X12046372Y-12633984D01*
X12198753Y-12814936D02*
X12208277Y-12824460D01*
X12208277Y-12824460D02*
X12198753Y-12833984D01*
X12198753Y-12833984D02*
X12189229Y-12824460D01*
X12189229Y-12824460D02*
X12198753Y-12814936D01*
X12198753Y-12814936D02*
X12198753Y-12833984D01*
X12379705Y-12633984D02*
X12341610Y-12633984D01*
X12341610Y-12633984D02*
X12322562Y-12643508D01*
X12322562Y-12643508D02*
X12313039Y-12653031D01*
X12313039Y-12653031D02*
X12293991Y-12681603D01*
X12293991Y-12681603D02*
X12284467Y-12719698D01*
X12284467Y-12719698D02*
X12284467Y-12795888D01*
X12284467Y-12795888D02*
X12293991Y-12814936D01*
X12293991Y-12814936D02*
X12303515Y-12824460D01*
X12303515Y-12824460D02*
X12322562Y-12833984D01*
X12322562Y-12833984D02*
X12360658Y-12833984D01*
X12360658Y-12833984D02*
X12379705Y-12824460D01*
X12379705Y-12824460D02*
X12389229Y-12814936D01*
X12389229Y-12814936D02*
X12398753Y-12795888D01*
X12398753Y-12795888D02*
X12398753Y-12748269D01*
X12398753Y-12748269D02*
X12389229Y-12729222D01*
X12389229Y-12729222D02*
X12379705Y-12719698D01*
X12379705Y-12719698D02*
X12360658Y-12710174D01*
X12360658Y-12710174D02*
X12322562Y-12710174D01*
X12322562Y-12710174D02*
X12303515Y-12719698D01*
X12303515Y-12719698D02*
X12293991Y-12729222D01*
X12293991Y-12729222D02*
X12284467Y-12748269D01*
X12522562Y-12633984D02*
X12541610Y-12633984D01*
X12541610Y-12633984D02*
X12560658Y-12643508D01*
X12560658Y-12643508D02*
X12570182Y-12653031D01*
X12570182Y-12653031D02*
X12579705Y-12672079D01*
X12579705Y-12672079D02*
X12589229Y-12710174D01*
X12589229Y-12710174D02*
X12589229Y-12757793D01*
X12589229Y-12757793D02*
X12579705Y-12795888D01*
X12579705Y-12795888D02*
X12570182Y-12814936D01*
X12570182Y-12814936D02*
X12560658Y-12824460D01*
X12560658Y-12824460D02*
X12541610Y-12833984D01*
X12541610Y-12833984D02*
X12522562Y-12833984D01*
X12522562Y-12833984D02*
X12503515Y-12824460D01*
X12503515Y-12824460D02*
X12493991Y-12814936D01*
X12493991Y-12814936D02*
X12484467Y-12795888D01*
X12484467Y-12795888D02*
X12474943Y-12757793D01*
X12474943Y-12757793D02*
X12474943Y-12710174D01*
X12474943Y-12710174D02*
X12484467Y-12672079D01*
X12484467Y-12672079D02*
X12493991Y-12653031D01*
X12493991Y-12653031D02*
X12503515Y-12643508D01*
X12503515Y-12643508D02*
X12522562Y-12633984D01*
X12713039Y-12633984D02*
X12732086Y-12633984D01*
X12732086Y-12633984D02*
X12751134Y-12643508D01*
X12751134Y-12643508D02*
X12760658Y-12653031D01*
X12760658Y-12653031D02*
X12770182Y-12672079D01*
X12770182Y-12672079D02*
X12779705Y-12710174D01*
X12779705Y-12710174D02*
X12779705Y-12757793D01*
X12779705Y-12757793D02*
X12770182Y-12795888D01*
X12770182Y-12795888D02*
X12760658Y-12814936D01*
X12760658Y-12814936D02*
X12751134Y-12824460D01*
X12751134Y-12824460D02*
X12732086Y-12833984D01*
X12732086Y-12833984D02*
X12713039Y-12833984D01*
X12713039Y-12833984D02*
X12693991Y-12824460D01*
X12693991Y-12824460D02*
X12684467Y-12814936D01*
X12684467Y-12814936D02*
X12674943Y-12795888D01*
X12674943Y-12795888D02*
X12665420Y-12757793D01*
X12665420Y-12757793D02*
X12665420Y-12710174D01*
X12665420Y-12710174D02*
X12674943Y-12672079D01*
X12674943Y-12672079D02*
X12684467Y-12653031D01*
X12684467Y-12653031D02*
X12693991Y-12643508D01*
X12693991Y-12643508D02*
X12713039Y-12633984D01*
X12865420Y-12833984D02*
X12865420Y-12700650D01*
X12865420Y-12719698D02*
X12874943Y-12710174D01*
X12874943Y-12710174D02*
X12893991Y-12700650D01*
X12893991Y-12700650D02*
X12922563Y-12700650D01*
X12922563Y-12700650D02*
X12941610Y-12710174D01*
X12941610Y-12710174D02*
X12951134Y-12729222D01*
X12951134Y-12729222D02*
X12951134Y-12833984D01*
X12951134Y-12729222D02*
X12960658Y-12710174D01*
X12960658Y-12710174D02*
X12979705Y-12700650D01*
X12979705Y-12700650D02*
X13008277Y-12700650D01*
X13008277Y-12700650D02*
X13027324Y-12710174D01*
X13027324Y-12710174D02*
X13036848Y-12729222D01*
X13036848Y-12729222D02*
X13036848Y-12833984D01*
X13132086Y-12833984D02*
X13132086Y-12700650D01*
X13132086Y-12719698D02*
X13141610Y-12710174D01*
X13141610Y-12710174D02*
X13160658Y-12700650D01*
X13160658Y-12700650D02*
X13189229Y-12700650D01*
X13189229Y-12700650D02*
X13208277Y-12710174D01*
X13208277Y-12710174D02*
X13217801Y-12729222D01*
X13217801Y-12729222D02*
X13217801Y-12833984D01*
X13217801Y-12729222D02*
X13227324Y-12710174D01*
X13227324Y-12710174D02*
X13246372Y-12700650D01*
X13246372Y-12700650D02*
X13274943Y-12700650D01*
X13274943Y-12700650D02*
X13293991Y-12710174D01*
X13293991Y-12710174D02*
X13303515Y-12729222D01*
X13303515Y-12729222D02*
X13303515Y-12833984D01*
X13693991Y-12624460D02*
X13522563Y-12881603D01*
X13951134Y-12633984D02*
X13970182Y-12633984D01*
X13970182Y-12633984D02*
X13989229Y-12643508D01*
X13989229Y-12643508D02*
X13998753Y-12653031D01*
X13998753Y-12653031D02*
X14008277Y-12672079D01*
X14008277Y-12672079D02*
X14017801Y-12710174D01*
X14017801Y-12710174D02*
X14017801Y-12757793D01*
X14017801Y-12757793D02*
X14008277Y-12795888D01*
X14008277Y-12795888D02*
X13998753Y-12814936D01*
X13998753Y-12814936D02*
X13989229Y-12824460D01*
X13989229Y-12824460D02*
X13970182Y-12833984D01*
X13970182Y-12833984D02*
X13951134Y-12833984D01*
X13951134Y-12833984D02*
X13932086Y-12824460D01*
X13932086Y-12824460D02*
X13922563Y-12814936D01*
X13922563Y-12814936D02*
X13913039Y-12795888D01*
X13913039Y-12795888D02*
X13903515Y-12757793D01*
X13903515Y-12757793D02*
X13903515Y-12710174D01*
X13903515Y-12710174D02*
X13913039Y-12672079D01*
X13913039Y-12672079D02*
X13922563Y-12653031D01*
X13922563Y-12653031D02*
X13932086Y-12643508D01*
X13932086Y-12643508D02*
X13951134Y-12633984D01*
X14103515Y-12814936D02*
X14113039Y-12824460D01*
X14113039Y-12824460D02*
X14103515Y-12833984D01*
X14103515Y-12833984D02*
X14093991Y-12824460D01*
X14093991Y-12824460D02*
X14103515Y-12814936D01*
X14103515Y-12814936D02*
X14103515Y-12833984D01*
X14236848Y-12633984D02*
X14255896Y-12633984D01*
X14255896Y-12633984D02*
X14274944Y-12643508D01*
X14274944Y-12643508D02*
X14284467Y-12653031D01*
X14284467Y-12653031D02*
X14293991Y-12672079D01*
X14293991Y-12672079D02*
X14303515Y-12710174D01*
X14303515Y-12710174D02*
X14303515Y-12757793D01*
X14303515Y-12757793D02*
X14293991Y-12795888D01*
X14293991Y-12795888D02*
X14284467Y-12814936D01*
X14284467Y-12814936D02*
X14274944Y-12824460D01*
X14274944Y-12824460D02*
X14255896Y-12833984D01*
X14255896Y-12833984D02*
X14236848Y-12833984D01*
X14236848Y-12833984D02*
X14217801Y-12824460D01*
X14217801Y-12824460D02*
X14208277Y-12814936D01*
X14208277Y-12814936D02*
X14198753Y-12795888D01*
X14198753Y-12795888D02*
X14189229Y-12757793D01*
X14189229Y-12757793D02*
X14189229Y-12710174D01*
X14189229Y-12710174D02*
X14198753Y-12672079D01*
X14198753Y-12672079D02*
X14208277Y-12653031D01*
X14208277Y-12653031D02*
X14217801Y-12643508D01*
X14217801Y-12643508D02*
X14236848Y-12633984D01*
X14379706Y-12653031D02*
X14389229Y-12643508D01*
X14389229Y-12643508D02*
X14408277Y-12633984D01*
X14408277Y-12633984D02*
X14455896Y-12633984D01*
X14455896Y-12633984D02*
X14474944Y-12643508D01*
X14474944Y-12643508D02*
X14484467Y-12653031D01*
X14484467Y-12653031D02*
X14493991Y-12672079D01*
X14493991Y-12672079D02*
X14493991Y-12691127D01*
X14493991Y-12691127D02*
X14484467Y-12719698D01*
X14484467Y-12719698D02*
X14370182Y-12833984D01*
X14370182Y-12833984D02*
X14493991Y-12833984D01*
X14560658Y-12633984D02*
X14684467Y-12633984D01*
X14684467Y-12633984D02*
X14617801Y-12710174D01*
X14617801Y-12710174D02*
X14646372Y-12710174D01*
X14646372Y-12710174D02*
X14665420Y-12719698D01*
X14665420Y-12719698D02*
X14674944Y-12729222D01*
X14674944Y-12729222D02*
X14684467Y-12748269D01*
X14684467Y-12748269D02*
X14684467Y-12795888D01*
X14684467Y-12795888D02*
X14674944Y-12814936D01*
X14674944Y-12814936D02*
X14665420Y-12824460D01*
X14665420Y-12824460D02*
X14646372Y-12833984D01*
X14646372Y-12833984D02*
X14589229Y-12833984D01*
X14589229Y-12833984D02*
X14570182Y-12824460D01*
X14570182Y-12824460D02*
X14560658Y-12814936D01*
X14855896Y-12633984D02*
X14817801Y-12633984D01*
X14817801Y-12633984D02*
X14798753Y-12643508D01*
X14798753Y-12643508D02*
X14789229Y-12653031D01*
X14789229Y-12653031D02*
X14770182Y-12681603D01*
X14770182Y-12681603D02*
X14760658Y-12719698D01*
X14760658Y-12719698D02*
X14760658Y-12795888D01*
X14760658Y-12795888D02*
X14770182Y-12814936D01*
X14770182Y-12814936D02*
X14779706Y-12824460D01*
X14779706Y-12824460D02*
X14798753Y-12833984D01*
X14798753Y-12833984D02*
X14836848Y-12833984D01*
X14836848Y-12833984D02*
X14855896Y-12824460D01*
X14855896Y-12824460D02*
X14865420Y-12814936D01*
X14865420Y-12814936D02*
X14874944Y-12795888D01*
X14874944Y-12795888D02*
X14874944Y-12748269D01*
X14874944Y-12748269D02*
X14865420Y-12729222D01*
X14865420Y-12729222D02*
X14855896Y-12719698D01*
X14855896Y-12719698D02*
X14836848Y-12710174D01*
X14836848Y-12710174D02*
X14798753Y-12710174D01*
X14798753Y-12710174D02*
X14779706Y-12719698D01*
X14779706Y-12719698D02*
X14770182Y-12729222D01*
X14770182Y-12729222D02*
X14760658Y-12748269D01*
X14951134Y-12633984D02*
X14951134Y-12672079D01*
X15027325Y-12633984D02*
X15027325Y-12672079D01*
X15322563Y-12910174D02*
X15313039Y-12900650D01*
X15313039Y-12900650D02*
X15293991Y-12872079D01*
X15293991Y-12872079D02*
X15284468Y-12853031D01*
X15284468Y-12853031D02*
X15274944Y-12824460D01*
X15274944Y-12824460D02*
X15265420Y-12776841D01*
X15265420Y-12776841D02*
X15265420Y-12738746D01*
X15265420Y-12738746D02*
X15274944Y-12691127D01*
X15274944Y-12691127D02*
X15284468Y-12662555D01*
X15284468Y-12662555D02*
X15293991Y-12643508D01*
X15293991Y-12643508D02*
X15313039Y-12614936D01*
X15313039Y-12614936D02*
X15322563Y-12605412D01*
X15503515Y-12833984D02*
X15389229Y-12833984D01*
X15446372Y-12833984D02*
X15446372Y-12633984D01*
X15446372Y-12633984D02*
X15427325Y-12662555D01*
X15427325Y-12662555D02*
X15408277Y-12681603D01*
X15408277Y-12681603D02*
X15389229Y-12691127D01*
X15741610Y-12833984D02*
X15741610Y-12633984D01*
X15827325Y-12833984D02*
X15827325Y-12729222D01*
X15827325Y-12729222D02*
X15817801Y-12710174D01*
X15817801Y-12710174D02*
X15798753Y-12700650D01*
X15798753Y-12700650D02*
X15770182Y-12700650D01*
X15770182Y-12700650D02*
X15751134Y-12710174D01*
X15751134Y-12710174D02*
X15741610Y-12719698D01*
X15951134Y-12833984D02*
X15932087Y-12824460D01*
X15932087Y-12824460D02*
X15922563Y-12814936D01*
X15922563Y-12814936D02*
X15913039Y-12795888D01*
X15913039Y-12795888D02*
X15913039Y-12738746D01*
X15913039Y-12738746D02*
X15922563Y-12719698D01*
X15922563Y-12719698D02*
X15932087Y-12710174D01*
X15932087Y-12710174D02*
X15951134Y-12700650D01*
X15951134Y-12700650D02*
X15979706Y-12700650D01*
X15979706Y-12700650D02*
X15998753Y-12710174D01*
X15998753Y-12710174D02*
X16008277Y-12719698D01*
X16008277Y-12719698D02*
X16017801Y-12738746D01*
X16017801Y-12738746D02*
X16017801Y-12795888D01*
X16017801Y-12795888D02*
X16008277Y-12814936D01*
X16008277Y-12814936D02*
X15998753Y-12824460D01*
X15998753Y-12824460D02*
X15979706Y-12833984D01*
X15979706Y-12833984D02*
X15951134Y-12833984D01*
X16132087Y-12833984D02*
X16113039Y-12824460D01*
X16113039Y-12824460D02*
X16103515Y-12805412D01*
X16103515Y-12805412D02*
X16103515Y-12633984D01*
X16284468Y-12824460D02*
X16265420Y-12833984D01*
X16265420Y-12833984D02*
X16227325Y-12833984D01*
X16227325Y-12833984D02*
X16208277Y-12824460D01*
X16208277Y-12824460D02*
X16198753Y-12805412D01*
X16198753Y-12805412D02*
X16198753Y-12729222D01*
X16198753Y-12729222D02*
X16208277Y-12710174D01*
X16208277Y-12710174D02*
X16227325Y-12700650D01*
X16227325Y-12700650D02*
X16265420Y-12700650D01*
X16265420Y-12700650D02*
X16284468Y-12710174D01*
X16284468Y-12710174D02*
X16293991Y-12729222D01*
X16293991Y-12729222D02*
X16293991Y-12748269D01*
X16293991Y-12748269D02*
X16198753Y-12767317D01*
X16370182Y-12824460D02*
X16389230Y-12833984D01*
X16389230Y-12833984D02*
X16427325Y-12833984D01*
X16427325Y-12833984D02*
X16446372Y-12824460D01*
X16446372Y-12824460D02*
X16455896Y-12805412D01*
X16455896Y-12805412D02*
X16455896Y-12795888D01*
X16455896Y-12795888D02*
X16446372Y-12776841D01*
X16446372Y-12776841D02*
X16427325Y-12767317D01*
X16427325Y-12767317D02*
X16398753Y-12767317D01*
X16398753Y-12767317D02*
X16379706Y-12757793D01*
X16379706Y-12757793D02*
X16370182Y-12738746D01*
X16370182Y-12738746D02*
X16370182Y-12729222D01*
X16370182Y-12729222D02*
X16379706Y-12710174D01*
X16379706Y-12710174D02*
X16398753Y-12700650D01*
X16398753Y-12700650D02*
X16427325Y-12700650D01*
X16427325Y-12700650D02*
X16446372Y-12710174D01*
X16693992Y-12757793D02*
X16846373Y-12757793D01*
X16770182Y-12833984D02*
X16770182Y-12681603D01*
X17198754Y-12833984D02*
X17084468Y-12833984D01*
X17141611Y-12833984D02*
X17141611Y-12633984D01*
X17141611Y-12633984D02*
X17122563Y-12662555D01*
X17122563Y-12662555D02*
X17103515Y-12681603D01*
X17103515Y-12681603D02*
X17084468Y-12691127D01*
X17427325Y-12824460D02*
X17446373Y-12833984D01*
X17446373Y-12833984D02*
X17484468Y-12833984D01*
X17484468Y-12833984D02*
X17503516Y-12824460D01*
X17503516Y-12824460D02*
X17513039Y-12805412D01*
X17513039Y-12805412D02*
X17513039Y-12795888D01*
X17513039Y-12795888D02*
X17503516Y-12776841D01*
X17503516Y-12776841D02*
X17484468Y-12767317D01*
X17484468Y-12767317D02*
X17455896Y-12767317D01*
X17455896Y-12767317D02*
X17436849Y-12757793D01*
X17436849Y-12757793D02*
X17427325Y-12738746D01*
X17427325Y-12738746D02*
X17427325Y-12729222D01*
X17427325Y-12729222D02*
X17436849Y-12710174D01*
X17436849Y-12710174D02*
X17455896Y-12700650D01*
X17455896Y-12700650D02*
X17484468Y-12700650D01*
X17484468Y-12700650D02*
X17503516Y-12710174D01*
X17627325Y-12833984D02*
X17608277Y-12824460D01*
X17608277Y-12824460D02*
X17598754Y-12805412D01*
X17598754Y-12805412D02*
X17598754Y-12633984D01*
X17732087Y-12833984D02*
X17713039Y-12824460D01*
X17713039Y-12824460D02*
X17703516Y-12814936D01*
X17703516Y-12814936D02*
X17693992Y-12795888D01*
X17693992Y-12795888D02*
X17693992Y-12738746D01*
X17693992Y-12738746D02*
X17703516Y-12719698D01*
X17703516Y-12719698D02*
X17713039Y-12710174D01*
X17713039Y-12710174D02*
X17732087Y-12700650D01*
X17732087Y-12700650D02*
X17760658Y-12700650D01*
X17760658Y-12700650D02*
X17779706Y-12710174D01*
X17779706Y-12710174D02*
X17789230Y-12719698D01*
X17789230Y-12719698D02*
X17798754Y-12738746D01*
X17798754Y-12738746D02*
X17798754Y-12795888D01*
X17798754Y-12795888D02*
X17789230Y-12814936D01*
X17789230Y-12814936D02*
X17779706Y-12824460D01*
X17779706Y-12824460D02*
X17760658Y-12833984D01*
X17760658Y-12833984D02*
X17732087Y-12833984D01*
X17855897Y-12700650D02*
X17932087Y-12700650D01*
X17884468Y-12633984D02*
X17884468Y-12805412D01*
X17884468Y-12805412D02*
X17893992Y-12824460D01*
X17893992Y-12824460D02*
X17913039Y-12833984D01*
X17913039Y-12833984D02*
X17932087Y-12833984D01*
X17979706Y-12910174D02*
X17989230Y-12900650D01*
X17989230Y-12900650D02*
X18008277Y-12872079D01*
X18008277Y-12872079D02*
X18017801Y-12853031D01*
X18017801Y-12853031D02*
X18027325Y-12824460D01*
X18027325Y-12824460D02*
X18036849Y-12776841D01*
X18036849Y-12776841D02*
X18036849Y-12738746D01*
X18036849Y-12738746D02*
X18027325Y-12691127D01*
X18027325Y-12691127D02*
X18017801Y-12662555D01*
X18017801Y-12662555D02*
X18008277Y-12643508D01*
X18008277Y-12643508D02*
X17989230Y-12614936D01*
X17989230Y-12614936D02*
X17979706Y-12605412D01*
X18341611Y-12910174D02*
X18332087Y-12900650D01*
X18332087Y-12900650D02*
X18313039Y-12872079D01*
X18313039Y-12872079D02*
X18303516Y-12853031D01*
X18303516Y-12853031D02*
X18293992Y-12824460D01*
X18293992Y-12824460D02*
X18284468Y-12776841D01*
X18284468Y-12776841D02*
X18284468Y-12738746D01*
X18284468Y-12738746D02*
X18293992Y-12691127D01*
X18293992Y-12691127D02*
X18303516Y-12662555D01*
X18303516Y-12662555D02*
X18313039Y-12643508D01*
X18313039Y-12643508D02*
X18332087Y-12614936D01*
X18332087Y-12614936D02*
X18341611Y-12605412D01*
X18417801Y-12700650D02*
X18417801Y-12833984D01*
X18417801Y-12719698D02*
X18427325Y-12710174D01*
X18427325Y-12710174D02*
X18446373Y-12700650D01*
X18446373Y-12700650D02*
X18474944Y-12700650D01*
X18474944Y-12700650D02*
X18493992Y-12710174D01*
X18493992Y-12710174D02*
X18503516Y-12729222D01*
X18503516Y-12729222D02*
X18503516Y-12833984D01*
X18627325Y-12833984D02*
X18608277Y-12824460D01*
X18608277Y-12824460D02*
X18598754Y-12814936D01*
X18598754Y-12814936D02*
X18589230Y-12795888D01*
X18589230Y-12795888D02*
X18589230Y-12738746D01*
X18589230Y-12738746D02*
X18598754Y-12719698D01*
X18598754Y-12719698D02*
X18608277Y-12710174D01*
X18608277Y-12710174D02*
X18627325Y-12700650D01*
X18627325Y-12700650D02*
X18655897Y-12700650D01*
X18655897Y-12700650D02*
X18674944Y-12710174D01*
X18674944Y-12710174D02*
X18684468Y-12719698D01*
X18684468Y-12719698D02*
X18693992Y-12738746D01*
X18693992Y-12738746D02*
X18693992Y-12795888D01*
X18693992Y-12795888D02*
X18684468Y-12814936D01*
X18684468Y-12814936D02*
X18674944Y-12824460D01*
X18674944Y-12824460D02*
X18655897Y-12833984D01*
X18655897Y-12833984D02*
X18627325Y-12833984D01*
X18751135Y-12700650D02*
X18827325Y-12700650D01*
X18779706Y-12633984D02*
X18779706Y-12805412D01*
X18779706Y-12805412D02*
X18789230Y-12824460D01*
X18789230Y-12824460D02*
X18808277Y-12833984D01*
X18808277Y-12833984D02*
X18827325Y-12833984D01*
X19046373Y-12700650D02*
X19046373Y-12900650D01*
X19046373Y-12710174D02*
X19065420Y-12700650D01*
X19065420Y-12700650D02*
X19103516Y-12700650D01*
X19103516Y-12700650D02*
X19122563Y-12710174D01*
X19122563Y-12710174D02*
X19132087Y-12719698D01*
X19132087Y-12719698D02*
X19141611Y-12738746D01*
X19141611Y-12738746D02*
X19141611Y-12795888D01*
X19141611Y-12795888D02*
X19132087Y-12814936D01*
X19132087Y-12814936D02*
X19122563Y-12824460D01*
X19122563Y-12824460D02*
X19103516Y-12833984D01*
X19103516Y-12833984D02*
X19065420Y-12833984D01*
X19065420Y-12833984D02*
X19046373Y-12824460D01*
X19255897Y-12833984D02*
X19236849Y-12824460D01*
X19236849Y-12824460D02*
X19227325Y-12805412D01*
X19227325Y-12805412D02*
X19227325Y-12633984D01*
X19417801Y-12833984D02*
X19417801Y-12729222D01*
X19417801Y-12729222D02*
X19408278Y-12710174D01*
X19408278Y-12710174D02*
X19389230Y-12700650D01*
X19389230Y-12700650D02*
X19351135Y-12700650D01*
X19351135Y-12700650D02*
X19332087Y-12710174D01*
X19417801Y-12824460D02*
X19398754Y-12833984D01*
X19398754Y-12833984D02*
X19351135Y-12833984D01*
X19351135Y-12833984D02*
X19332087Y-12824460D01*
X19332087Y-12824460D02*
X19322563Y-12805412D01*
X19322563Y-12805412D02*
X19322563Y-12786365D01*
X19322563Y-12786365D02*
X19332087Y-12767317D01*
X19332087Y-12767317D02*
X19351135Y-12757793D01*
X19351135Y-12757793D02*
X19398754Y-12757793D01*
X19398754Y-12757793D02*
X19417801Y-12748269D01*
X19484468Y-12700650D02*
X19560658Y-12700650D01*
X19513039Y-12633984D02*
X19513039Y-12805412D01*
X19513039Y-12805412D02*
X19522563Y-12824460D01*
X19522563Y-12824460D02*
X19541611Y-12833984D01*
X19541611Y-12833984D02*
X19560658Y-12833984D01*
X19703516Y-12824460D02*
X19684468Y-12833984D01*
X19684468Y-12833984D02*
X19646373Y-12833984D01*
X19646373Y-12833984D02*
X19627325Y-12824460D01*
X19627325Y-12824460D02*
X19617801Y-12805412D01*
X19617801Y-12805412D02*
X19617801Y-12729222D01*
X19617801Y-12729222D02*
X19627325Y-12710174D01*
X19627325Y-12710174D02*
X19646373Y-12700650D01*
X19646373Y-12700650D02*
X19684468Y-12700650D01*
X19684468Y-12700650D02*
X19703516Y-12710174D01*
X19703516Y-12710174D02*
X19713039Y-12729222D01*
X19713039Y-12729222D02*
X19713039Y-12748269D01*
X19713039Y-12748269D02*
X19617801Y-12767317D01*
X19884468Y-12833984D02*
X19884468Y-12633984D01*
X19884468Y-12824460D02*
X19865420Y-12833984D01*
X19865420Y-12833984D02*
X19827325Y-12833984D01*
X19827325Y-12833984D02*
X19808278Y-12824460D01*
X19808278Y-12824460D02*
X19798754Y-12814936D01*
X19798754Y-12814936D02*
X19789230Y-12795888D01*
X19789230Y-12795888D02*
X19789230Y-12738746D01*
X19789230Y-12738746D02*
X19798754Y-12719698D01*
X19798754Y-12719698D02*
X19808278Y-12710174D01*
X19808278Y-12710174D02*
X19827325Y-12700650D01*
X19827325Y-12700650D02*
X19865420Y-12700650D01*
X19865420Y-12700650D02*
X19884468Y-12710174D01*
X19960659Y-12910174D02*
X19970182Y-12900650D01*
X19970182Y-12900650D02*
X19989230Y-12872079D01*
X19989230Y-12872079D02*
X19998754Y-12853031D01*
X19998754Y-12853031D02*
X20008278Y-12824460D01*
X20008278Y-12824460D02*
X20017801Y-12776841D01*
X20017801Y-12776841D02*
X20017801Y-12738746D01*
X20017801Y-12738746D02*
X20008278Y-12691127D01*
X20008278Y-12691127D02*
X19998754Y-12662555D01*
X19998754Y-12662555D02*
X19989230Y-12643508D01*
X19989230Y-12643508D02*
X19970182Y-12614936D01*
X19970182Y-12614936D02*
X19960659Y-12605412D01*
M02*
