%TF.GenerationSoftware,KiCad,Pcbnew,7.0.6*%
%TF.CreationDate,2024-03-18T22:21:06-04:00*%
%TF.ProjectId,Receiver,52656365-6976-4657-922e-6b696361645f,rev?*%
%TF.SameCoordinates,Original*%
%TF.FileFunction,Paste,Top*%
%TF.FilePolarity,Positive*%
%FSLAX46Y46*%
G04 Gerber Fmt 4.6, Leading zero omitted, Abs format (unit mm)*
G04 Created by KiCad (PCBNEW 7.0.6) date 2024-03-18 22:21:06*
%MOMM*%
%LPD*%
G01*
G04 APERTURE LIST*
G04 Aperture macros list*
%AMRoundRect*
0 Rectangle with rounded corners*
0 $1 Rounding radius*
0 $2 $3 $4 $5 $6 $7 $8 $9 X,Y pos of 4 corners*
0 Add a 4 corners polygon primitive as box body*
4,1,4,$2,$3,$4,$5,$6,$7,$8,$9,$2,$3,0*
0 Add four circle primitives for the rounded corners*
1,1,$1+$1,$2,$3*
1,1,$1+$1,$4,$5*
1,1,$1+$1,$6,$7*
1,1,$1+$1,$8,$9*
0 Add four rect primitives between the rounded corners*
20,1,$1+$1,$2,$3,$4,$5,0*
20,1,$1+$1,$4,$5,$6,$7,0*
20,1,$1+$1,$6,$7,$8,$9,0*
20,1,$1+$1,$8,$9,$2,$3,0*%
%AMFreePoly0*
4,1,14,0.230680,0.111820,0.364320,-0.021821,0.377500,-0.053642,0.377500,-0.080000,0.364320,-0.111820,0.332500,-0.125000,-0.332500,-0.125000,-0.364320,-0.111820,-0.377500,-0.080000,-0.377500,0.080000,-0.364320,0.111820,-0.332500,0.125000,0.198860,0.125000,0.230680,0.111820,0.230680,0.111820,$1*%
%AMFreePoly1*
4,1,14,0.364320,0.111820,0.377500,0.080000,0.377501,0.053640,0.364318,0.021819,0.230680,-0.111820,0.198860,-0.125000,-0.332500,-0.125000,-0.364320,-0.111820,-0.377500,-0.080000,-0.377500,0.080000,-0.364320,0.111820,-0.332500,0.125000,0.332500,0.125000,0.364320,0.111820,0.364320,0.111820,$1*%
%AMFreePoly2*
4,1,15,0.053642,0.377500,0.080000,0.377500,0.111820,0.364320,0.125000,0.332500,0.125000,-0.332500,0.111820,-0.364320,0.080000,-0.377500,-0.080000,-0.377500,-0.111820,-0.364320,-0.125000,-0.332500,-0.125000,0.198860,-0.111820,0.230680,0.021820,0.364320,0.053640,0.377501,0.053642,0.377500,0.053642,0.377500,$1*%
%AMFreePoly3*
4,1,14,-0.021820,0.364320,0.111820,0.230679,0.125001,0.198860,0.125000,-0.332500,0.111820,-0.364320,0.080000,-0.377500,-0.080000,-0.377500,-0.111820,-0.364320,-0.125000,-0.332500,-0.125000,0.332500,-0.111820,0.364320,-0.080000,0.377500,-0.053640,0.377500,-0.021820,0.364320,-0.021820,0.364320,$1*%
%AMFreePoly4*
4,1,14,0.364320,0.111820,0.377500,0.080000,0.377500,-0.080000,0.364320,-0.111820,0.332500,-0.125000,-0.198860,-0.125001,-0.230680,-0.111818,-0.364320,0.021820,-0.377500,0.053640,-0.377500,0.080000,-0.364320,0.111820,-0.332500,0.125000,0.332500,0.125000,0.364320,0.111820,0.364320,0.111820,$1*%
%AMFreePoly5*
4,1,15,-0.198858,0.125000,0.332500,0.125000,0.364320,0.111820,0.377500,0.080000,0.377500,-0.080000,0.364320,-0.111820,0.332500,-0.125000,-0.332500,-0.125000,-0.364320,-0.111820,-0.377500,-0.080000,-0.377500,-0.053640,-0.364320,-0.021820,-0.230680,0.111820,-0.198860,0.125001,-0.198858,0.125000,-0.198858,0.125000,$1*%
%AMFreePoly6*
4,1,14,0.111820,0.364320,0.125000,0.332500,0.125001,-0.198860,0.111818,-0.230680,-0.021820,-0.364320,-0.053640,-0.377500,-0.080000,-0.377500,-0.111820,-0.364320,-0.125000,-0.332500,-0.125000,0.332500,-0.111820,0.364320,-0.080000,0.377500,0.080000,0.377500,0.111820,0.364320,0.111820,0.364320,$1*%
%AMFreePoly7*
4,1,14,0.111820,0.364320,0.125000,0.332500,0.125000,-0.332500,0.111820,-0.364320,0.080000,-0.377500,0.053640,-0.377501,0.021819,-0.364318,-0.111820,-0.230680,-0.125000,-0.198860,-0.125000,0.332500,-0.111820,0.364320,-0.080000,0.377500,0.080000,0.377500,0.111820,0.364320,0.111820,0.364320,$1*%
G04 Aperture macros list end*
%ADD10RoundRect,0.050000X-0.425000X-0.050000X0.425000X-0.050000X0.425000X0.050000X-0.425000X0.050000X0*%
%ADD11RoundRect,0.050000X-0.050000X-0.300000X0.050000X-0.300000X0.050000X0.300000X-0.050000X0.300000X0*%
%ADD12RoundRect,0.050000X-0.250000X-0.050000X0.250000X-0.050000X0.250000X0.050000X-0.250000X0.050000X0*%
%ADD13RoundRect,0.050000X-0.400000X-0.050000X0.400000X-0.050000X0.400000X0.050000X-0.400000X0.050000X0*%
%ADD14RoundRect,0.050000X-0.050000X-0.250000X0.050000X-0.250000X0.050000X0.250000X-0.050000X0.250000X0*%
%ADD15RoundRect,0.050000X0.050000X-0.300000X0.050000X0.300000X-0.050000X0.300000X-0.050000X-0.300000X0*%
%ADD16RoundRect,0.050000X-0.300000X-0.050000X0.300000X-0.050000X0.300000X0.050000X-0.300000X0.050000X0*%
%ADD17RoundRect,0.050000X-0.275000X-0.050000X0.275000X-0.050000X0.275000X0.050000X-0.275000X0.050000X0*%
%ADD18RoundRect,0.050000X-0.290000X-0.050000X0.290000X-0.050000X0.290000X0.050000X-0.290000X0.050000X0*%
%ADD19RoundRect,0.050000X-0.050000X-0.450000X0.050000X-0.450000X0.050000X0.450000X-0.050000X0.450000X0*%
%ADD20RoundRect,0.135000X0.135000X0.185000X-0.135000X0.185000X-0.135000X-0.185000X0.135000X-0.185000X0*%
%ADD21R,0.900000X1.500000*%
%ADD22RoundRect,0.225000X0.250000X-0.225000X0.250000X0.225000X-0.250000X0.225000X-0.250000X-0.225000X0*%
%ADD23RoundRect,0.225000X-0.225000X-0.375000X0.225000X-0.375000X0.225000X0.375000X-0.225000X0.375000X0*%
%ADD24RoundRect,0.250000X-1.000000X-0.650000X1.000000X-0.650000X1.000000X0.650000X-1.000000X0.650000X0*%
%ADD25RoundRect,0.135000X-0.135000X-0.185000X0.135000X-0.185000X0.135000X0.185000X-0.135000X0.185000X0*%
%ADD26RoundRect,0.140000X0.170000X-0.140000X0.170000X0.140000X-0.170000X0.140000X-0.170000X-0.140000X0*%
%ADD27RoundRect,0.140000X0.140000X0.170000X-0.140000X0.170000X-0.140000X-0.170000X0.140000X-0.170000X0*%
%ADD28RoundRect,0.250000X-0.550000X1.500000X-0.550000X-1.500000X0.550000X-1.500000X0.550000X1.500000X0*%
%ADD29RoundRect,0.135000X-0.185000X0.135000X-0.185000X-0.135000X0.185000X-0.135000X0.185000X0.135000X0*%
%ADD30R,1.500000X2.500000*%
%ADD31RoundRect,0.160000X0.160000X-0.245000X0.160000X0.245000X-0.160000X0.245000X-0.160000X-0.245000X0*%
%ADD32RoundRect,0.093750X0.106250X-0.093750X0.106250X0.093750X-0.106250X0.093750X-0.106250X-0.093750X0*%
%ADD33RoundRect,0.140000X-0.140000X-0.170000X0.140000X-0.170000X0.140000X0.170000X-0.140000X0.170000X0*%
%ADD34RoundRect,0.150000X0.150000X-0.512500X0.150000X0.512500X-0.150000X0.512500X-0.150000X-0.512500X0*%
%ADD35RoundRect,0.160000X-0.245000X-0.160000X0.245000X-0.160000X0.245000X0.160000X-0.245000X0.160000X0*%
%ADD36RoundRect,0.093750X-0.093750X-0.106250X0.093750X-0.106250X0.093750X0.106250X-0.093750X0.106250X0*%
%ADD37RoundRect,0.225000X-0.250000X0.225000X-0.250000X-0.225000X0.250000X-0.225000X0.250000X0.225000X0*%
%ADD38RoundRect,0.140000X-0.170000X0.140000X-0.170000X-0.140000X0.170000X-0.140000X0.170000X0.140000X0*%
%ADD39R,0.400000X0.800000*%
%ADD40R,0.800000X0.400000*%
%ADD41R,4.000000X4.000000*%
%ADD42RoundRect,0.218750X0.256250X-0.218750X0.256250X0.218750X-0.256250X0.218750X-0.256250X-0.218750X0*%
%ADD43RoundRect,0.140000X0.021213X-0.219203X0.219203X-0.021213X-0.021213X0.219203X-0.219203X0.021213X0*%
%ADD44RoundRect,0.135000X0.185000X-0.135000X0.185000X0.135000X-0.185000X0.135000X-0.185000X-0.135000X0*%
%ADD45RoundRect,0.140000X-0.021213X0.219203X-0.219203X0.021213X0.021213X-0.219203X0.219203X-0.021213X0*%
%ADD46RoundRect,0.250000X0.250000X0.475000X-0.250000X0.475000X-0.250000X-0.475000X0.250000X-0.475000X0*%
%ADD47RoundRect,0.150000X0.150000X-0.587500X0.150000X0.587500X-0.150000X0.587500X-0.150000X-0.587500X0*%
%ADD48RoundRect,0.125000X-0.125000X0.125000X-0.125000X-0.125000X0.125000X-0.125000X0.125000X0.125000X0*%
%ADD49R,1.500000X2.000000*%
%ADD50R,3.800000X2.000000*%
%ADD51R,1.000000X2.000000*%
%ADD52R,0.520000X1.000000*%
%ADD53R,0.270000X1.000000*%
%ADD54FreePoly0,270.000000*%
%ADD55RoundRect,0.062500X-0.062500X0.375000X-0.062500X-0.375000X0.062500X-0.375000X0.062500X0.375000X0*%
%ADD56FreePoly1,270.000000*%
%ADD57FreePoly2,270.000000*%
%ADD58RoundRect,0.062500X-0.375000X0.062500X-0.375000X-0.062500X0.375000X-0.062500X0.375000X0.062500X0*%
%ADD59FreePoly3,270.000000*%
%ADD60FreePoly4,270.000000*%
%ADD61FreePoly5,270.000000*%
%ADD62FreePoly6,270.000000*%
%ADD63FreePoly7,270.000000*%
%ADD64RoundRect,0.175000X0.325000X0.175000X-0.325000X0.175000X-0.325000X-0.175000X0.325000X-0.175000X0*%
%ADD65RoundRect,0.150000X0.512500X0.150000X-0.512500X0.150000X-0.512500X-0.150000X0.512500X-0.150000X0*%
G04 APERTURE END LIST*
D10*
%TO.C,BQ25792RQMR1*%
X146775000Y-90800000D03*
D11*
X147150000Y-90550000D03*
D12*
X146600000Y-91200000D03*
X146600000Y-91600000D03*
X146600000Y-92000000D03*
X146600000Y-92400000D03*
X146600000Y-92800000D03*
X146600000Y-93200000D03*
X146600000Y-93600000D03*
D13*
X146750000Y-94000000D03*
D11*
X147100000Y-94250000D03*
D14*
X147500000Y-94300000D03*
X147900000Y-94300000D03*
X148300000Y-94300000D03*
X148700000Y-94300000D03*
X149100000Y-94300000D03*
X149500000Y-94300000D03*
D15*
X149900000Y-94250000D03*
D13*
X150250000Y-94000000D03*
D16*
X150350000Y-93600000D03*
D17*
X150375000Y-93200000D03*
D18*
X150362500Y-92800000D03*
D12*
X150400000Y-92400000D03*
X150400000Y-92000000D03*
X150400000Y-91600000D03*
X150400000Y-91200000D03*
D11*
X149850000Y-90550000D03*
D10*
X150225000Y-90800000D03*
D19*
X149300000Y-90800000D03*
X148900000Y-90800000D03*
X148500000Y-90800000D03*
X148100000Y-90800000D03*
X147700000Y-90800000D03*
%TD*%
D20*
%TO.C,R7*%
X165710000Y-111600000D03*
X164690000Y-111600000D03*
%TD*%
D21*
%TO.C,D4*%
X147750000Y-106350000D03*
X151050000Y-106350000D03*
X151050000Y-111250000D03*
X147750000Y-111250000D03*
%TD*%
D22*
%TO.C,C14*%
X156900000Y-88875000D03*
X156900000Y-87325000D03*
%TD*%
D23*
%TO.C,D3*%
X159450000Y-108400000D03*
X162750000Y-108400000D03*
%TD*%
D24*
%TO.C,D5*%
X174700000Y-108400000D03*
X178700000Y-108400000D03*
%TD*%
D22*
%TO.C,C11*%
X144800000Y-88850000D03*
X144800000Y-87300000D03*
%TD*%
D25*
%TO.C,R28*%
X174371617Y-98450000D03*
X175391617Y-98450000D03*
%TD*%
%TO.C,R5*%
X146390000Y-95900000D03*
X147410000Y-95900000D03*
%TD*%
D26*
%TO.C,R2*%
X142800000Y-111180000D03*
X142800000Y-110220000D03*
%TD*%
D27*
%TO.C,R21*%
X171880000Y-107100000D03*
X170920000Y-107100000D03*
%TD*%
%TO.C,C36*%
X170011617Y-96700000D03*
X169051617Y-96700000D03*
%TD*%
D28*
%TO.C,C30*%
X172700000Y-85600000D03*
X172700000Y-91200000D03*
%TD*%
D29*
%TO.C,R20*%
X152600000Y-95890000D03*
X152600000Y-96910000D03*
%TD*%
D30*
%TO.C,L1*%
X150350000Y-84200000D03*
X146650000Y-84200000D03*
%TD*%
D31*
%TO.C,U4*%
X171350000Y-108987500D03*
X172150000Y-108987500D03*
D32*
X171100000Y-109875000D03*
X171750000Y-109875000D03*
X172400000Y-109875000D03*
X172400000Y-108100000D03*
X171750000Y-108100000D03*
X171100000Y-108100000D03*
%TD*%
D20*
%TO.C,R4*%
X142030000Y-95210000D03*
X141010000Y-95210000D03*
%TD*%
D33*
%TO.C,C25*%
X170620000Y-111400000D03*
X171580000Y-111400000D03*
%TD*%
D34*
%TO.C,U1*%
X165450000Y-110037500D03*
X166400000Y-110037500D03*
X167350000Y-110037500D03*
X167350000Y-107762500D03*
X166400000Y-107762500D03*
X165450000Y-107762500D03*
%TD*%
D35*
%TO.C,U5*%
X155600000Y-90500000D03*
X155600000Y-91300000D03*
D36*
X154712500Y-90250000D03*
X154712500Y-90900000D03*
X154712500Y-91550000D03*
X156487500Y-91550000D03*
X156487500Y-90900000D03*
X156487500Y-90250000D03*
%TD*%
D33*
%TO.C,C29*%
X174501617Y-96600000D03*
X175461617Y-96600000D03*
%TD*%
D37*
%TO.C,C16*%
X159300000Y-90325000D03*
X159300000Y-91875000D03*
%TD*%
%TO.C,C18*%
X160900000Y-90325000D03*
X160900000Y-91875000D03*
%TD*%
D29*
%TO.C,R17*%
X153800000Y-95890000D03*
X153800000Y-96910000D03*
%TD*%
%TO.C,R13*%
X164000000Y-108090000D03*
X164000000Y-109110000D03*
%TD*%
D38*
%TO.C,C37*%
X167981617Y-95020000D03*
X167981617Y-95980000D03*
%TD*%
D27*
%TO.C,C23*%
X169680000Y-110300000D03*
X168720000Y-110300000D03*
%TD*%
D38*
%TO.C,R1*%
X155000000Y-95920000D03*
X155000000Y-96880000D03*
%TD*%
D29*
%TO.C,R32*%
X162581617Y-101490000D03*
X162581617Y-102510000D03*
%TD*%
D39*
%TO.C,IC1*%
X125250000Y-105900000D03*
X126050000Y-105900000D03*
X126850000Y-105900000D03*
X127650000Y-105900000D03*
X128450000Y-105900000D03*
X129250000Y-105900000D03*
X130050000Y-105900000D03*
X130850000Y-105900000D03*
X131650000Y-105900000D03*
X132450000Y-105900000D03*
X133250000Y-105900000D03*
X134050000Y-105900000D03*
X134850000Y-105900000D03*
D40*
X136100000Y-105200000D03*
X136100000Y-104400000D03*
X136100000Y-103600000D03*
X136100000Y-102800000D03*
X136100000Y-102000000D03*
X136100000Y-101200000D03*
X136100000Y-100400000D03*
X136100000Y-99600000D03*
X136100000Y-98800000D03*
X136100000Y-98000000D03*
X136100000Y-97200000D03*
X136100000Y-96400000D03*
X136100000Y-95600000D03*
X136100000Y-94800000D03*
D39*
X134850000Y-94100000D03*
X134050000Y-94100000D03*
X133250000Y-94100000D03*
X132450000Y-94100000D03*
X131650000Y-94100000D03*
X130850000Y-94100000D03*
X130050000Y-94100000D03*
X129250000Y-94100000D03*
X128450000Y-94100000D03*
X127650000Y-94100000D03*
X126850000Y-94100000D03*
X126050000Y-94100000D03*
X125250000Y-94100000D03*
D40*
X124000000Y-94800000D03*
X124000000Y-95600000D03*
X124000000Y-96400000D03*
X124000000Y-97200000D03*
X124000000Y-98000000D03*
X124000000Y-98800000D03*
X124000000Y-99600000D03*
X124000000Y-100400000D03*
X124000000Y-101200000D03*
X124000000Y-102000000D03*
X124000000Y-102800000D03*
X124000000Y-103600000D03*
X124000000Y-104400000D03*
X124000000Y-105200000D03*
D41*
X130050000Y-100000000D03*
%TD*%
D42*
%TO.C,D1*%
X156600000Y-97087500D03*
X156600000Y-95512500D03*
%TD*%
D43*
%TO.C,R24*%
X147060589Y-98539411D03*
X147739411Y-97860589D03*
%TD*%
D37*
%TO.C,C6*%
X141500000Y-91725000D03*
X141500000Y-93275000D03*
%TD*%
D44*
%TO.C,R26*%
X129750000Y-110510000D03*
X129750000Y-109490000D03*
%TD*%
D38*
%TO.C,C35*%
X165481617Y-95220000D03*
X165481617Y-96180000D03*
%TD*%
D45*
%TO.C,R25*%
X145739411Y-99860589D03*
X145060589Y-100539411D03*
%TD*%
D27*
%TO.C,C24*%
X169680000Y-109200000D03*
X168720000Y-109200000D03*
%TD*%
D20*
%TO.C,R8*%
X153010000Y-92200000D03*
X151990000Y-92200000D03*
%TD*%
D46*
%TO.C,C31*%
X128200000Y-110000000D03*
X126300000Y-110000000D03*
%TD*%
D44*
%TO.C,R14*%
X158000000Y-91610000D03*
X158000000Y-90590000D03*
%TD*%
D47*
%TO.C,Q1*%
X176750000Y-113175000D03*
X178650000Y-113175000D03*
X177700000Y-111300000D03*
%TD*%
D26*
%TO.C,C10*%
X144300000Y-93580000D03*
X144300000Y-92620000D03*
%TD*%
D29*
%TO.C,R19*%
X154600000Y-93090000D03*
X154600000Y-94110000D03*
%TD*%
D25*
%TO.C,R29*%
X166681617Y-105200000D03*
X167701617Y-105200000D03*
%TD*%
D37*
%TO.C,C3*%
X143100000Y-91725000D03*
X143100000Y-93275000D03*
%TD*%
D27*
%TO.C,C20*%
X156680000Y-92800000D03*
X155720000Y-92800000D03*
%TD*%
D22*
%TO.C,C19*%
X158400000Y-88875000D03*
X158400000Y-87325000D03*
%TD*%
D48*
%TO.C,D6*%
X162900000Y-90200000D03*
X162900000Y-92400000D03*
%TD*%
D49*
%TO.C,U6*%
X174600000Y-113250000D03*
X172300000Y-113250000D03*
X170000000Y-113250000D03*
D50*
X172300000Y-119550000D03*
%TD*%
D27*
%TO.C,C32*%
X126980000Y-108500000D03*
X126020000Y-108500000D03*
%TD*%
D22*
%TO.C,C13*%
X141600000Y-88850000D03*
X141600000Y-87300000D03*
%TD*%
D20*
%TO.C,R6*%
X167710000Y-111600000D03*
X166690000Y-111600000D03*
%TD*%
D22*
%TO.C,C15*%
X153900000Y-88875000D03*
X153900000Y-87325000D03*
%TD*%
D33*
%TO.C,C28*%
X174551617Y-103400000D03*
X175511617Y-103400000D03*
%TD*%
D25*
%TO.C,R27*%
X174421617Y-101550000D03*
X175441617Y-101550000D03*
%TD*%
D27*
%TO.C,C22*%
X169680000Y-111400000D03*
X168720000Y-111400000D03*
%TD*%
D51*
%TO.C,J1*%
X143200000Y-118350000D03*
X146000000Y-118350000D03*
D52*
X141500000Y-114150000D03*
X142250000Y-114150000D03*
D53*
X142850000Y-114150000D03*
X144350000Y-114150000D03*
X145350000Y-114150000D03*
X146350000Y-114150000D03*
D52*
X146950000Y-114150000D03*
X147700000Y-114150000D03*
X147700000Y-114150000D03*
X146950000Y-114150000D03*
D53*
X145850000Y-114150000D03*
X144850000Y-114150000D03*
X143850000Y-114150000D03*
X143350000Y-114150000D03*
D52*
X142250000Y-114150000D03*
X141500000Y-114150000D03*
%TD*%
D38*
%TO.C,C34*%
X131000000Y-109520000D03*
X131000000Y-110480000D03*
%TD*%
D33*
%TO.C,C27*%
X172920000Y-111400000D03*
X173880000Y-111400000D03*
%TD*%
%TO.C,C8*%
X146920000Y-89200000D03*
X147880000Y-89200000D03*
%TD*%
D54*
%TO.C,A1*%
X171231617Y-98002500D03*
D55*
X170731617Y-98062500D03*
X170231617Y-98062500D03*
X169731617Y-98062500D03*
X169231617Y-98062500D03*
X168731617Y-98062500D03*
D56*
X168231617Y-98002500D03*
D57*
X167734117Y-98500000D03*
D58*
X167794117Y-99000000D03*
X167794117Y-99500000D03*
X167794117Y-100000000D03*
X167794117Y-100500000D03*
X167794117Y-101000000D03*
D59*
X167734117Y-101500000D03*
D60*
X168231617Y-101997500D03*
D55*
X168731617Y-101937500D03*
X169231617Y-101937500D03*
X169731617Y-101937500D03*
X170231617Y-101937500D03*
X170731617Y-101937500D03*
D61*
X171231617Y-101997500D03*
D62*
X171729117Y-101500000D03*
D58*
X171669117Y-101000000D03*
X171669117Y-100500000D03*
X171669117Y-100000000D03*
X171669117Y-99500000D03*
X171669117Y-99000000D03*
D63*
X171729117Y-98500000D03*
%TD*%
D33*
%TO.C,C33*%
X166701617Y-104100000D03*
X167661617Y-104100000D03*
%TD*%
D20*
%TO.C,R10*%
X164010000Y-110200000D03*
X162990000Y-110200000D03*
%TD*%
D25*
%TO.C,R30*%
X168671617Y-105200000D03*
X169691617Y-105200000D03*
%TD*%
D22*
%TO.C,C9*%
X143200000Y-88850000D03*
X143200000Y-87300000D03*
%TD*%
D29*
%TO.C,R18*%
X151400000Y-95890000D03*
X151400000Y-96910000D03*
%TD*%
D38*
%TO.C,C26*%
X165700000Y-90520000D03*
X165700000Y-91480000D03*
%TD*%
D25*
%TO.C,R22*%
X151990000Y-93900000D03*
X153010000Y-93900000D03*
%TD*%
D46*
%TO.C,D2*%
X142350000Y-97000000D03*
X140450000Y-97000000D03*
%TD*%
D20*
%TO.C,R12*%
X160210000Y-106700000D03*
X159190000Y-106700000D03*
%TD*%
D44*
%TO.C,R31*%
X163681617Y-102500000D03*
X163681617Y-101480000D03*
%TD*%
D64*
%TO.C,SW1*%
X138850000Y-111575000D03*
X134350000Y-111575000D03*
X138850000Y-109425000D03*
X134350000Y-109425000D03*
%TD*%
D38*
%TO.C,R15*%
X180000000Y-112720000D03*
X180000000Y-113680000D03*
%TD*%
%TO.C,C2*%
X145300000Y-91620000D03*
X145300000Y-92580000D03*
%TD*%
D44*
%TO.C,R23*%
X164781617Y-102510000D03*
X164781617Y-101490000D03*
%TD*%
D22*
%TO.C,C7*%
X145700000Y-107675000D03*
X145700000Y-106125000D03*
%TD*%
D65*
%TO.C,U2*%
X157737500Y-108850000D03*
X157737500Y-107900000D03*
X157737500Y-106950000D03*
X155462500Y-106950000D03*
X155462500Y-107900000D03*
X155462500Y-108850000D03*
%TD*%
D22*
%TO.C,C17*%
X152400000Y-88875000D03*
X152400000Y-87325000D03*
%TD*%
D27*
%TO.C,C12*%
X150080000Y-89200000D03*
X149120000Y-89200000D03*
%TD*%
D22*
%TO.C,C21*%
X155400000Y-88875000D03*
X155400000Y-87325000D03*
%TD*%
D25*
%TO.C,R16*%
X151990000Y-94900000D03*
X153010000Y-94900000D03*
%TD*%
D26*
%TO.C,R3*%
X145900000Y-111180000D03*
X145900000Y-110220000D03*
%TD*%
M02*
