M48
; DRILL file {KiCad 7.0.6} date Mon Mar 18 22:21:02 2024
; FORMAT={-:-/ absolute / metric / decimal}
; #@! TF.CreationDate,2024-03-18T22:21:02-04:00
; #@! TF.GenerationSoftware,Kicad,Pcbnew,7.0.6
; #@! TF.FileFunction,Plated,1,4,PTH
FMAT,2
METRIC
; #@! TA.AperFunction,Plated,PTH,ViaDrill
T1C0.200
; #@! TA.AperFunction,Plated,PTH,ViaDrill
T2C0.400
; #@! TA.AperFunction,Plated,PTH,ComponentDrill
T3C0.600
; #@! TA.AperFunction,Plated,PTH,ComponentDrill
T4C0.650
; #@! TA.AperFunction,Plated,PTH,ComponentDrill
T5C0.750
; #@! TA.AperFunction,Plated,PTH,ComponentDrill
T6C0.991
; #@! TA.AperFunction,Plated,PTH,ComponentDrill
T7C1.295
; #@! TA.AperFunction,Plated,PTH,ComponentDrill
T8C3.200
%
G90
G05
T1
X145.2Y-93.6
X145.9Y-92.1
X147.5Y-91.7
X147.5Y-92.2
X148.0Y-91.7
X148.0Y-92.2
X149.0Y-91.7
X149.0Y-92.2
X149.5Y-91.7
X149.5Y-92.2
X151.304Y-93.084
X151.4Y-90.5
X153.8Y-91.9
X154.3Y-95.0
X157.1Y-91.0
T2
X123.6Y-110.0
X124.4Y-110.0
X125.2Y-110.0
X127.4Y-97.8
X127.4Y-98.6
X127.4Y-99.4
X127.4Y-100.2
X127.4Y-101.0
X127.4Y-101.8
X127.4Y-102.6
X128.1Y-97.4
X128.2Y-102.6
X128.2Y-111.4
X128.2Y-112.3
X128.2Y-113.1
X128.9Y-97.4
X129.0Y-102.6
X129.7Y-97.4
X129.8Y-102.6
X130.1Y-92.5
X130.9Y-104.7
X131.6Y-95.4
X133.3Y-95.4
X137.4Y-99.6
X137.4Y-111.1
X139.7Y-92.3
X139.7Y-112.5
X139.8Y-90.8
X140.3Y-92.9
X140.4Y-91.4
X140.8Y-85.8
X141.6Y-116.3
X141.8Y-85.8
X142.8Y-85.8
X142.8Y-109.1
X143.6Y-95.2
X143.6Y-97.0
X143.8Y-116.0
X143.9Y-85.8
X144.4Y-101.2
X144.4Y-106.9
X144.4Y-108.0
X144.6Y-116.9
X145.0Y-85.8
X145.5Y-94.6
X145.6Y-90.6
X145.8Y-115.9
X145.9Y-109.2
X146.4Y-99.2
X146.9Y-96.9
X147.3Y-100.4
X147.5Y-85.8
X147.5Y-86.5
X147.5Y-87.2
X147.9Y-92.9
X148.5Y-85.8
X148.5Y-93.4
X149.0Y-102.1
X149.1Y-92.9
X149.4Y-112.5
X149.5Y-85.8
X149.5Y-86.5
X149.5Y-87.2
X150.4Y-97.2
X152.4Y-100.5
X152.8Y-85.8
X153.9Y-85.8
X154.1Y-107.5
X154.8Y-92.3
X155.0Y-85.8
X155.4Y-97.8
X155.6Y-92.1
X155.6Y-94.3
X156.0Y-85.8
X157.0Y-85.8
X158.103Y-85.8
X159.3Y-85.8
X160.6Y-103.1
X160.7Y-86.7
X160.7Y-87.5
X160.7Y-88.3
X160.7Y-89.1
X161.2Y-101.2
X161.3Y-106.7
X161.582Y-102.5
X161.682Y-103.5
X161.7Y-104.9
X161.7Y-114.6
X162.1Y-112.3
X162.7Y-111.7
X162.882Y-95.0
X162.882Y-96.1
X162.882Y-97.2
X162.882Y-98.3
X162.9Y-93.8
X163.3Y-111.1
X163.9Y-92.4
X164.75Y-92.4
X165.65Y-92.4
X166.5Y-92.4
X167.35Y-92.4
X167.4Y-102.3
X168.582Y-104.1
X168.6Y-112.4
X168.7Y-107.8
X168.7Y-108.5
X168.782Y-99.1
X168.782Y-100.0
X168.782Y-100.9
X169.2Y-95.6
X169.382Y-106.1
X169.682Y-99.1
X169.682Y-100.0
X169.682Y-100.9
X170.082Y-103.5
X170.482Y-106.1
X170.582Y-99.1
X170.582Y-100.0
X170.582Y-100.9
X171.582Y-106.1
X171.8Y-115.2
X171.8Y-116.0
X171.8Y-116.8
X172.5Y-115.6
X172.5Y-116.4
X172.582Y-96.95
X172.582Y-103.0
X172.682Y-106.1
X172.9Y-107.651
X172.982Y-97.55
X172.982Y-102.4
X173.382Y-96.95
X173.382Y-103.0
X173.782Y-97.55
X173.782Y-102.4
X173.782Y-106.1
X173.8Y-117.2
X173.9Y-116.4
X174.0Y-115.6
X174.4Y-117.7
X174.5Y-116.9
X174.582Y-97.55
X174.582Y-102.4
X174.6Y-116.1
X174.882Y-106.1
X175.382Y-102.4
X175.982Y-106.1
X176.082Y-97.6
X176.132Y-102.4
X176.482Y-97.0
X176.482Y-98.2
X176.532Y-103.05
X176.832Y-97.6
X176.882Y-102.4
X180.9Y-108.4
X181.1Y-113.6
T4
X127.03Y-83.33
X127.03Y-84.6
X127.03Y-85.87
X128.3Y-83.33
X128.3Y-84.6
X128.3Y-85.87
T5
X179.0Y-88.1
X179.0Y-90.1
X179.0Y-92.1
X180.132Y-97.0
X180.132Y-99.0
X180.132Y-101.0
X180.132Y-103.0
T6
X154.562Y-114.1
X159.062Y-114.1
T7
X153.307Y-111.61
X160.317Y-111.61
T8
X121.0Y-82.5
X121.0Y-117.5
X134.5Y-84.5
X134.5Y-115.5
X165.5Y-115.5
X165.575Y-84.5
X179.0Y-82.5
X179.0Y-117.5
T3
G00X140.28Y-114.025
M15
G01X140.28Y-115.025
M16
G05
G00X140.28Y-117.7
M15
G01X140.28Y-119.0
M16
G05
G00X148.92Y-114.025
M15
G01X148.92Y-115.025
M16
G05
G00X148.92Y-117.7
M15
G01X148.92Y-119.0
M16
G05
T0
M30
