%TF.GenerationSoftware,KiCad,Pcbnew,7.0.6*%
%TF.CreationDate,2024-03-18T22:21:06-04:00*%
%TF.ProjectId,Receiver,52656365-6976-4657-922e-6b696361645f,rev?*%
%TF.SameCoordinates,Original*%
%TF.FileFunction,Copper,L1,Top*%
%TF.FilePolarity,Positive*%
%FSLAX46Y46*%
G04 Gerber Fmt 4.6, Leading zero omitted, Abs format (unit mm)*
G04 Created by KiCad (PCBNEW 7.0.6) date 2024-03-18 22:21:06*
%MOMM*%
%LPD*%
G01*
G04 APERTURE LIST*
G04 Aperture macros list*
%AMRoundRect*
0 Rectangle with rounded corners*
0 $1 Rounding radius*
0 $2 $3 $4 $5 $6 $7 $8 $9 X,Y pos of 4 corners*
0 Add a 4 corners polygon primitive as box body*
4,1,4,$2,$3,$4,$5,$6,$7,$8,$9,$2,$3,0*
0 Add four circle primitives for the rounded corners*
1,1,$1+$1,$2,$3*
1,1,$1+$1,$4,$5*
1,1,$1+$1,$6,$7*
1,1,$1+$1,$8,$9*
0 Add four rect primitives between the rounded corners*
20,1,$1+$1,$2,$3,$4,$5,0*
20,1,$1+$1,$4,$5,$6,$7,0*
20,1,$1+$1,$6,$7,$8,$9,0*
20,1,$1+$1,$8,$9,$2,$3,0*%
%AMFreePoly0*
4,1,14,0.230680,0.111820,0.364320,-0.021821,0.377500,-0.053642,0.377500,-0.080000,0.364320,-0.111820,0.332500,-0.125000,-0.332500,-0.125000,-0.364320,-0.111820,-0.377500,-0.080000,-0.377500,0.080000,-0.364320,0.111820,-0.332500,0.125000,0.198860,0.125000,0.230680,0.111820,0.230680,0.111820,$1*%
%AMFreePoly1*
4,1,14,0.364320,0.111820,0.377500,0.080000,0.377501,0.053640,0.364318,0.021819,0.230680,-0.111820,0.198860,-0.125000,-0.332500,-0.125000,-0.364320,-0.111820,-0.377500,-0.080000,-0.377500,0.080000,-0.364320,0.111820,-0.332500,0.125000,0.332500,0.125000,0.364320,0.111820,0.364320,0.111820,$1*%
%AMFreePoly2*
4,1,15,0.053642,0.377500,0.080000,0.377500,0.111820,0.364320,0.125000,0.332500,0.125000,-0.332500,0.111820,-0.364320,0.080000,-0.377500,-0.080000,-0.377500,-0.111820,-0.364320,-0.125000,-0.332500,-0.125000,0.198860,-0.111820,0.230680,0.021820,0.364320,0.053640,0.377501,0.053642,0.377500,0.053642,0.377500,$1*%
%AMFreePoly3*
4,1,14,-0.021820,0.364320,0.111820,0.230679,0.125001,0.198860,0.125000,-0.332500,0.111820,-0.364320,0.080000,-0.377500,-0.080000,-0.377500,-0.111820,-0.364320,-0.125000,-0.332500,-0.125000,0.332500,-0.111820,0.364320,-0.080000,0.377500,-0.053640,0.377500,-0.021820,0.364320,-0.021820,0.364320,$1*%
%AMFreePoly4*
4,1,14,0.364320,0.111820,0.377500,0.080000,0.377500,-0.080000,0.364320,-0.111820,0.332500,-0.125000,-0.198860,-0.125001,-0.230680,-0.111818,-0.364320,0.021820,-0.377500,0.053640,-0.377500,0.080000,-0.364320,0.111820,-0.332500,0.125000,0.332500,0.125000,0.364320,0.111820,0.364320,0.111820,$1*%
%AMFreePoly5*
4,1,15,-0.198858,0.125000,0.332500,0.125000,0.364320,0.111820,0.377500,0.080000,0.377500,-0.080000,0.364320,-0.111820,0.332500,-0.125000,-0.332500,-0.125000,-0.364320,-0.111820,-0.377500,-0.080000,-0.377500,-0.053640,-0.364320,-0.021820,-0.230680,0.111820,-0.198860,0.125001,-0.198858,0.125000,-0.198858,0.125000,$1*%
%AMFreePoly6*
4,1,14,0.111820,0.364320,0.125000,0.332500,0.125001,-0.198860,0.111818,-0.230680,-0.021820,-0.364320,-0.053640,-0.377500,-0.080000,-0.377500,-0.111820,-0.364320,-0.125000,-0.332500,-0.125000,0.332500,-0.111820,0.364320,-0.080000,0.377500,0.080000,0.377500,0.111820,0.364320,0.111820,0.364320,$1*%
%AMFreePoly7*
4,1,14,0.111820,0.364320,0.125000,0.332500,0.125000,-0.332500,0.111820,-0.364320,0.080000,-0.377500,0.053640,-0.377501,0.021819,-0.364318,-0.111820,-0.230680,-0.125000,-0.198860,-0.125000,0.332500,-0.111820,0.364320,-0.080000,0.377500,0.080000,0.377500,0.111820,0.364320,0.111820,0.364320,$1*%
G04 Aperture macros list end*
%TA.AperFunction,SMDPad,CuDef*%
%ADD10RoundRect,0.050000X-0.425000X-0.050000X0.425000X-0.050000X0.425000X0.050000X-0.425000X0.050000X0*%
%TD*%
%TA.AperFunction,SMDPad,CuDef*%
%ADD11RoundRect,0.050000X-0.050000X-0.300000X0.050000X-0.300000X0.050000X0.300000X-0.050000X0.300000X0*%
%TD*%
%TA.AperFunction,SMDPad,CuDef*%
%ADD12RoundRect,0.050000X-0.250000X-0.050000X0.250000X-0.050000X0.250000X0.050000X-0.250000X0.050000X0*%
%TD*%
%TA.AperFunction,SMDPad,CuDef*%
%ADD13RoundRect,0.050000X-0.400000X-0.050000X0.400000X-0.050000X0.400000X0.050000X-0.400000X0.050000X0*%
%TD*%
%TA.AperFunction,SMDPad,CuDef*%
%ADD14RoundRect,0.050000X-0.050000X-0.250000X0.050000X-0.250000X0.050000X0.250000X-0.050000X0.250000X0*%
%TD*%
%TA.AperFunction,SMDPad,CuDef*%
%ADD15RoundRect,0.050000X0.050000X-0.300000X0.050000X0.300000X-0.050000X0.300000X-0.050000X-0.300000X0*%
%TD*%
%TA.AperFunction,SMDPad,CuDef*%
%ADD16RoundRect,0.050000X-0.300000X-0.050000X0.300000X-0.050000X0.300000X0.050000X-0.300000X0.050000X0*%
%TD*%
%TA.AperFunction,SMDPad,CuDef*%
%ADD17RoundRect,0.050000X-0.275000X-0.050000X0.275000X-0.050000X0.275000X0.050000X-0.275000X0.050000X0*%
%TD*%
%TA.AperFunction,SMDPad,CuDef*%
%ADD18RoundRect,0.050000X-0.290000X-0.050000X0.290000X-0.050000X0.290000X0.050000X-0.290000X0.050000X0*%
%TD*%
%TA.AperFunction,SMDPad,CuDef*%
%ADD19RoundRect,0.050000X-0.050000X-0.450000X0.050000X-0.450000X0.050000X0.450000X-0.050000X0.450000X0*%
%TD*%
%TA.AperFunction,SMDPad,CuDef*%
%ADD20RoundRect,0.135000X0.135000X0.185000X-0.135000X0.185000X-0.135000X-0.185000X0.135000X-0.185000X0*%
%TD*%
%TA.AperFunction,SMDPad,CuDef*%
%ADD21R,0.900000X1.500000*%
%TD*%
%TA.AperFunction,SMDPad,CuDef*%
%ADD22RoundRect,0.225000X0.250000X-0.225000X0.250000X0.225000X-0.250000X0.225000X-0.250000X-0.225000X0*%
%TD*%
%TA.AperFunction,SMDPad,CuDef*%
%ADD23RoundRect,0.225000X-0.225000X-0.375000X0.225000X-0.375000X0.225000X0.375000X-0.225000X0.375000X0*%
%TD*%
%TA.AperFunction,SMDPad,CuDef*%
%ADD24RoundRect,0.250000X-1.000000X-0.650000X1.000000X-0.650000X1.000000X0.650000X-1.000000X0.650000X0*%
%TD*%
%TA.AperFunction,SMDPad,CuDef*%
%ADD25RoundRect,0.135000X-0.135000X-0.185000X0.135000X-0.185000X0.135000X0.185000X-0.135000X0.185000X0*%
%TD*%
%TA.AperFunction,SMDPad,CuDef*%
%ADD26RoundRect,0.140000X0.170000X-0.140000X0.170000X0.140000X-0.170000X0.140000X-0.170000X-0.140000X0*%
%TD*%
%TA.AperFunction,SMDPad,CuDef*%
%ADD27RoundRect,0.140000X0.140000X0.170000X-0.140000X0.170000X-0.140000X-0.170000X0.140000X-0.170000X0*%
%TD*%
%TA.AperFunction,SMDPad,CuDef*%
%ADD28RoundRect,0.250000X-0.550000X1.500000X-0.550000X-1.500000X0.550000X-1.500000X0.550000X1.500000X0*%
%TD*%
%TA.AperFunction,SMDPad,CuDef*%
%ADD29RoundRect,0.135000X-0.185000X0.135000X-0.185000X-0.135000X0.185000X-0.135000X0.185000X0.135000X0*%
%TD*%
%TA.AperFunction,SMDPad,CuDef*%
%ADD30R,1.500000X2.500000*%
%TD*%
%TA.AperFunction,SMDPad,CuDef*%
%ADD31RoundRect,0.093750X0.106250X-0.093750X0.106250X0.093750X-0.106250X0.093750X-0.106250X-0.093750X0*%
%TD*%
%TA.AperFunction,SMDPad,CuDef*%
%ADD32R,1.600000X1.000000*%
%TD*%
%TA.AperFunction,SMDPad,CuDef*%
%ADD33RoundRect,0.140000X-0.140000X-0.170000X0.140000X-0.170000X0.140000X0.170000X-0.140000X0.170000X0*%
%TD*%
%TA.AperFunction,SMDPad,CuDef*%
%ADD34RoundRect,0.150000X0.150000X-0.512500X0.150000X0.512500X-0.150000X0.512500X-0.150000X-0.512500X0*%
%TD*%
%TA.AperFunction,ComponentPad*%
%ADD35C,3.600000*%
%TD*%
%TA.AperFunction,ConnectorPad*%
%ADD36C,5.600000*%
%TD*%
%TA.AperFunction,SMDPad,CuDef*%
%ADD37RoundRect,0.093750X-0.093750X-0.106250X0.093750X-0.106250X0.093750X0.106250X-0.093750X0.106250X0*%
%TD*%
%TA.AperFunction,SMDPad,CuDef*%
%ADD38R,1.000000X1.600000*%
%TD*%
%TA.AperFunction,SMDPad,CuDef*%
%ADD39RoundRect,0.225000X-0.250000X0.225000X-0.250000X-0.225000X0.250000X-0.225000X0.250000X0.225000X0*%
%TD*%
%TA.AperFunction,SMDPad,CuDef*%
%ADD40RoundRect,0.140000X-0.170000X0.140000X-0.170000X-0.140000X0.170000X-0.140000X0.170000X0.140000X0*%
%TD*%
%TA.AperFunction,SMDPad,CuDef*%
%ADD41R,0.400000X0.800000*%
%TD*%
%TA.AperFunction,SMDPad,CuDef*%
%ADD42R,0.800000X0.400000*%
%TD*%
%TA.AperFunction,SMDPad,CuDef*%
%ADD43R,4.000000X4.000000*%
%TD*%
%TA.AperFunction,SMDPad,CuDef*%
%ADD44RoundRect,0.218750X0.256250X-0.218750X0.256250X0.218750X-0.256250X0.218750X-0.256250X-0.218750X0*%
%TD*%
%TA.AperFunction,SMDPad,CuDef*%
%ADD45RoundRect,0.140000X0.021213X-0.219203X0.219203X-0.021213X-0.021213X0.219203X-0.219203X0.021213X0*%
%TD*%
%TA.AperFunction,SMDPad,CuDef*%
%ADD46RoundRect,0.135000X0.185000X-0.135000X0.185000X0.135000X-0.185000X0.135000X-0.185000X-0.135000X0*%
%TD*%
%TA.AperFunction,SMDPad,CuDef*%
%ADD47RoundRect,0.140000X-0.021213X0.219203X-0.219203X0.021213X0.021213X-0.219203X0.219203X-0.021213X0*%
%TD*%
%TA.AperFunction,SMDPad,CuDef*%
%ADD48RoundRect,0.250000X0.250000X0.475000X-0.250000X0.475000X-0.250000X-0.475000X0.250000X-0.475000X0*%
%TD*%
%TA.AperFunction,SMDPad,CuDef*%
%ADD49RoundRect,0.150000X0.150000X-0.587500X0.150000X0.587500X-0.150000X0.587500X-0.150000X-0.587500X0*%
%TD*%
%TA.AperFunction,ComponentPad*%
%ADD50C,1.498600*%
%TD*%
%TA.AperFunction,ComponentPad*%
%ADD51C,1.803400*%
%TD*%
%TA.AperFunction,SMDPad,CuDef*%
%ADD52RoundRect,0.125000X-0.125000X0.125000X-0.125000X-0.125000X0.125000X-0.125000X0.125000X0.125000X0*%
%TD*%
%TA.AperFunction,SMDPad,CuDef*%
%ADD53R,1.500000X2.000000*%
%TD*%
%TA.AperFunction,SMDPad,CuDef*%
%ADD54R,3.800000X2.000000*%
%TD*%
%TA.AperFunction,ComponentPad*%
%ADD55R,1.000000X1.000000*%
%TD*%
%TA.AperFunction,ComponentPad*%
%ADD56O,1.000000X1.000000*%
%TD*%
%TA.AperFunction,ComponentPad*%
%ADD57RoundRect,0.250000X0.625000X-0.350000X0.625000X0.350000X-0.625000X0.350000X-0.625000X-0.350000X0*%
%TD*%
%TA.AperFunction,ComponentPad*%
%ADD58O,1.750000X1.200000*%
%TD*%
%TA.AperFunction,SMDPad,CuDef*%
%ADD59R,1.000000X2.000000*%
%TD*%
%TA.AperFunction,SMDPad,CuDef*%
%ADD60R,0.520000X1.000000*%
%TD*%
%TA.AperFunction,SMDPad,CuDef*%
%ADD61R,0.270000X1.000000*%
%TD*%
%TA.AperFunction,ComponentPad*%
%ADD62O,1.300000X2.300000*%
%TD*%
%TA.AperFunction,ComponentPad*%
%ADD63O,1.300000X2.600000*%
%TD*%
%TA.AperFunction,SMDPad,CuDef*%
%ADD64FreePoly0,270.000000*%
%TD*%
%TA.AperFunction,SMDPad,CuDef*%
%ADD65RoundRect,0.062500X-0.062500X0.375000X-0.062500X-0.375000X0.062500X-0.375000X0.062500X0.375000X0*%
%TD*%
%TA.AperFunction,SMDPad,CuDef*%
%ADD66FreePoly1,270.000000*%
%TD*%
%TA.AperFunction,SMDPad,CuDef*%
%ADD67FreePoly2,270.000000*%
%TD*%
%TA.AperFunction,SMDPad,CuDef*%
%ADD68RoundRect,0.062500X-0.375000X0.062500X-0.375000X-0.062500X0.375000X-0.062500X0.375000X0.062500X0*%
%TD*%
%TA.AperFunction,SMDPad,CuDef*%
%ADD69FreePoly3,270.000000*%
%TD*%
%TA.AperFunction,SMDPad,CuDef*%
%ADD70FreePoly4,270.000000*%
%TD*%
%TA.AperFunction,SMDPad,CuDef*%
%ADD71FreePoly5,270.000000*%
%TD*%
%TA.AperFunction,SMDPad,CuDef*%
%ADD72FreePoly6,270.000000*%
%TD*%
%TA.AperFunction,SMDPad,CuDef*%
%ADD73FreePoly7,270.000000*%
%TD*%
%TA.AperFunction,SMDPad,CuDef*%
%ADD74RoundRect,0.175000X0.325000X0.175000X-0.325000X0.175000X-0.325000X-0.175000X0.325000X-0.175000X0*%
%TD*%
%TA.AperFunction,SMDPad,CuDef*%
%ADD75RoundRect,0.150000X0.512500X0.150000X-0.512500X0.150000X-0.512500X-0.150000X0.512500X-0.150000X0*%
%TD*%
%TA.AperFunction,ViaPad*%
%ADD76C,0.650000*%
%TD*%
%TA.AperFunction,ViaPad*%
%ADD77C,0.450000*%
%TD*%
%TA.AperFunction,Conductor*%
%ADD78C,0.300000*%
%TD*%
%TA.AperFunction,Conductor*%
%ADD79C,0.254000*%
%TD*%
%TA.AperFunction,Conductor*%
%ADD80C,0.154000*%
%TD*%
%TA.AperFunction,Conductor*%
%ADD81C,0.203200*%
%TD*%
%TA.AperFunction,Conductor*%
%ADD82C,0.450000*%
%TD*%
%TA.AperFunction,Conductor*%
%ADD83C,1.000000*%
%TD*%
G04 APERTURE END LIST*
D10*
%TO.P,BQ25792RQMR1,1,STAT*%
%TO.N,/STAT*%
X146775000Y-90800000D03*
D11*
X147150000Y-90550000D03*
D12*
%TO.P,BQ25792RQMR1,2,VBUS*%
%TO.N,/VUSB*%
X146600000Y-91200000D03*
%TO.P,BQ25792RQMR1,3,VBUS*%
X146600000Y-91600000D03*
%TO.P,BQ25792RQMR1,4,BTST1*%
%TO.N,/BTST1*%
X146600000Y-92000000D03*
%TO.P,BQ25792RQMR1,5,REGN*%
%TO.N,/REGN*%
X146600000Y-92400000D03*
%TO.P,BQ25792RQMR1,6,D+*%
%TO.N,unconnected-(BQ25792RQMR1-D+-Pad6)*%
X146600000Y-92800000D03*
%TO.P,BQ25792RQMR1,7,D-*%
%TO.N,unconnected-(BQ25792RQMR1-D--Pad7)*%
X146600000Y-93200000D03*
%TO.P,BQ25792RQMR1,8,VAC2*%
%TO.N,/VAC*%
X146600000Y-93600000D03*
D13*
%TO.P,BQ25792RQMR1,9,VAC1*%
X146750000Y-94000000D03*
D11*
X147100000Y-94250000D03*
D14*
%TO.P,BQ25792RQMR1,10,ACDRV2*%
%TO.N,GND*%
X147500000Y-94300000D03*
%TO.P,BQ25792RQMR1,11,ACDRV1*%
X147900000Y-94300000D03*
%TO.P,BQ25792RQMR1,12,nQON*%
%TO.N,/QON*%
X148300000Y-94300000D03*
%TO.P,BQ25792RQMR1,13,CE*%
%TO.N,/CE*%
X148700000Y-94300000D03*
%TO.P,BQ25792RQMR1,14,SCL*%
%TO.N,/SCL*%
X149100000Y-94300000D03*
%TO.P,BQ25792RQMR1,15,SDA*%
%TO.N,/SDA*%
X149500000Y-94300000D03*
D15*
%TO.P,BQ25792RQMR1,16,TS*%
%TO.N,/TS*%
X149900000Y-94250000D03*
D13*
X150250000Y-94000000D03*
D16*
%TO.P,BQ25792RQMR1,17,ILIM_HIZ*%
%TO.N,/ILIM_HIZ*%
X150350000Y-93600000D03*
D17*
%TO.P,BQ25792RQMR1,18,BATP*%
%TO.N,/BATP*%
X150375000Y-93200000D03*
D18*
%TO.P,BQ25792RQMR1,19,BTST2*%
%TO.N,/BTST2*%
X150362500Y-92800000D03*
D12*
%TO.P,BQ25792RQMR1,20,PROG*%
%TO.N,/PROG*%
X150400000Y-92400000D03*
%TO.P,BQ25792RQMR1,21,INT*%
%TO.N,/INT*%
X150400000Y-92000000D03*
%TO.P,BQ25792RQMR1,22,BAT*%
%TO.N,/VBAT*%
X150400000Y-91600000D03*
%TO.P,BQ25792RQMR1,23,BAT*%
X150400000Y-91200000D03*
D11*
%TO.P,BQ25792RQMR1,24,SDRV*%
%TO.N,/SDRV*%
X149850000Y-90550000D03*
D10*
X150225000Y-90800000D03*
D19*
%TO.P,BQ25792RQMR1,25,SYS*%
%TO.N,/VSYS*%
X149300000Y-90800000D03*
%TO.P,BQ25792RQMR1,26,SW2*%
%TO.N,/SW2*%
X148900000Y-90800000D03*
%TO.P,BQ25792RQMR1,27,GND*%
%TO.N,GND*%
X148500000Y-90800000D03*
%TO.P,BQ25792RQMR1,28,SW1*%
%TO.N,/SW1*%
X148100000Y-90800000D03*
%TO.P,BQ25792RQMR1,29,PMID*%
%TO.N,/PMID*%
X147700000Y-90800000D03*
%TD*%
D20*
%TO.P,R7,1*%
%TO.N,/SHUTDOWN*%
X165710000Y-111600000D03*
%TO.P,R7,2*%
%TO.N,GND*%
X164690000Y-111600000D03*
%TD*%
D21*
%TO.P,D4,4,DIN*%
%TO.N,/ADDRS_LED*%
X147750000Y-106350000D03*
%TO.P,D4,3,VSS*%
%TO.N,GND*%
X151050000Y-106350000D03*
%TO.P,D4,2,DOUT*%
%TO.N,unconnected-(D4-DOUT-Pad2)*%
X151050000Y-111250000D03*
%TO.P,D4,1,VDD*%
%TO.N,+3.3V*%
X147750000Y-111250000D03*
%TD*%
D22*
%TO.P,C14,1*%
%TO.N,/VSYS*%
X156900000Y-88875000D03*
%TO.P,C14,2*%
%TO.N,GND*%
X156900000Y-87325000D03*
%TD*%
D23*
%TO.P,D3,1,K*%
%TO.N,Net-(D3-K)*%
X159450000Y-108400000D03*
%TO.P,D3,2,A*%
%TO.N,/CNTRL*%
X162750000Y-108400000D03*
%TD*%
D24*
%TO.P,D5,1,K*%
%TO.N,/VIN*%
X174700000Y-108400000D03*
%TO.P,D5,2,A*%
%TO.N,/VUSB*%
X178700000Y-108400000D03*
%TD*%
D22*
%TO.P,C11,1*%
%TO.N,/PMID*%
X144800000Y-88850000D03*
%TO.P,C11,2*%
%TO.N,GND*%
X144800000Y-87300000D03*
%TD*%
D25*
%TO.P,R28,1*%
%TO.N,Net-(A1-SENSE2)*%
X174371617Y-98450000D03*
%TO.P,R28,2*%
%TO.N,GND*%
X175391617Y-98450000D03*
%TD*%
%TO.P,R5,1*%
%TO.N,GND*%
X146390000Y-95900000D03*
%TO.P,R5,2*%
%TO.N,/CE*%
X147410000Y-95900000D03*
%TD*%
D26*
%TO.P,R2,1*%
%TO.N,Net-(J1-CC1)*%
X142800000Y-111180000D03*
%TO.P,R2,2*%
%TO.N,GND*%
X142800000Y-110220000D03*
%TD*%
D27*
%TO.P,R21,1*%
%TO.N,Net-(Q1-D)*%
X171880000Y-107100000D03*
%TO.P,R21,2*%
%TO.N,Net-(U1-D2)*%
X170920000Y-107100000D03*
%TD*%
%TO.P,C36,1*%
%TO.N,Net-(A1-CP1)*%
X170011617Y-96700000D03*
%TO.P,C36,2*%
%TO.N,Net-(A1-CP2)*%
X169051617Y-96700000D03*
%TD*%
D28*
%TO.P,C30,1*%
%TO.N,/BAT+*%
X172700000Y-85600000D03*
%TO.P,C30,2*%
%TO.N,GND*%
X172700000Y-91200000D03*
%TD*%
D29*
%TO.P,R20,1*%
%TO.N,/TS*%
X152600000Y-95890000D03*
%TO.P,R20,2*%
%TO.N,GND*%
X152600000Y-96910000D03*
%TD*%
D30*
%TO.P,L1,1*%
%TO.N,/SW2*%
X150350000Y-84200000D03*
%TO.P,L1,2*%
%TO.N,/SW1*%
X146650000Y-84200000D03*
%TD*%
D31*
%TO.P,U4,1,VOUT*%
%TO.N,/VIN*%
X171100000Y-109875000D03*
%TO.P,U4,2,QOD*%
%TO.N,unconnected-(U4-QOD-Pad2)*%
X171750000Y-109875000D03*
%TO.P,U4,3,CT*%
%TO.N,unconnected-(U4-CT-Pad3)*%
X172400000Y-109875000D03*
%TO.P,U4,4,GND*%
%TO.N,GND*%
X172400000Y-108100000D03*
%TO.P,U4,5,EN/UVLO*%
%TO.N,Net-(Q1-D)*%
X171750000Y-108100000D03*
%TO.P,U4,6,VIN*%
%TO.N,Net-(U1-D2)*%
X171100000Y-108100000D03*
D32*
%TO.P,U4,7,GND*%
%TO.N,GND*%
X171750000Y-108987500D03*
%TD*%
D20*
%TO.P,R4,1*%
%TO.N,+3.3V*%
X142030000Y-95210000D03*
%TO.P,R4,2*%
%TO.N,Net-(D2-A)*%
X141010000Y-95210000D03*
%TD*%
D33*
%TO.P,C25,1*%
%TO.N,/VIN*%
X170620000Y-111400000D03*
%TO.P,C25,2*%
%TO.N,GND*%
X171580000Y-111400000D03*
%TD*%
D34*
%TO.P,U1,1,G1*%
%TO.N,/SHUTDOWN*%
X165450000Y-110037500D03*
%TO.P,U1,2,S2*%
%TO.N,/VSYS*%
X166400000Y-110037500D03*
%TO.P,U1,3,G2*%
%TO.N,/CNTRL*%
X167350000Y-110037500D03*
%TO.P,U1,4,D2*%
%TO.N,Net-(U1-D2)*%
X167350000Y-107762500D03*
%TO.P,U1,5,S1*%
%TO.N,GND*%
X166400000Y-107762500D03*
%TO.P,U1,6,D1*%
%TO.N,/CNTRL*%
X165450000Y-107762500D03*
%TD*%
D35*
%TO.P,H1,1*%
%TO.N,N/C*%
X165500000Y-115500000D03*
D36*
X165500000Y-115500000D03*
%TD*%
D37*
%TO.P,U5,1,VOUT*%
%TO.N,/VBAT*%
X154712500Y-90250000D03*
%TO.P,U5,2,QOD*%
%TO.N,unconnected-(U5-QOD-Pad2)*%
X154712500Y-90900000D03*
%TO.P,U5,3,CT*%
%TO.N,unconnected-(U5-CT-Pad3)*%
X154712500Y-91550000D03*
%TO.P,U5,4,GND*%
%TO.N,GND*%
X156487500Y-91550000D03*
%TO.P,U5,5,EN/UVLO*%
%TO.N,/SDRV*%
X156487500Y-90900000D03*
%TO.P,U5,6,VIN*%
%TO.N,/BAT+*%
X156487500Y-90250000D03*
D38*
%TO.P,U5,7,GND*%
%TO.N,GND*%
X155600000Y-90900000D03*
%TD*%
D33*
%TO.P,C29,1*%
%TO.N,/BAT+*%
X174501617Y-96600000D03*
%TO.P,C29,2*%
%TO.N,GND*%
X175461617Y-96600000D03*
%TD*%
D39*
%TO.P,C16,1*%
%TO.N,/BAT+*%
X159300000Y-90325000D03*
%TO.P,C16,2*%
%TO.N,GND*%
X159300000Y-91875000D03*
%TD*%
%TO.P,C18,1*%
%TO.N,/BAT+*%
X160900000Y-90325000D03*
%TO.P,C18,2*%
%TO.N,GND*%
X160900000Y-91875000D03*
%TD*%
D29*
%TO.P,R17,1*%
%TO.N,/REGN*%
X153800000Y-95890000D03*
%TO.P,R17,2*%
%TO.N,/TS*%
X153800000Y-96910000D03*
%TD*%
%TO.P,R13,1*%
%TO.N,/CNTRL*%
X164000000Y-108090000D03*
%TO.P,R13,2*%
%TO.N,/VSYS*%
X164000000Y-109110000D03*
%TD*%
D40*
%TO.P,C37,1*%
%TO.N,/BAT+*%
X167981617Y-95020000D03*
%TO.P,C37,2*%
%TO.N,/VCP*%
X167981617Y-95980000D03*
%TD*%
D27*
%TO.P,C23,1*%
%TO.N,/VIN*%
X169680000Y-110300000D03*
%TO.P,C23,2*%
%TO.N,GND*%
X168720000Y-110300000D03*
%TD*%
D35*
%TO.P,H2,1*%
%TO.N,N/C*%
X165575000Y-84500000D03*
D36*
X165575000Y-84500000D03*
%TD*%
D40*
%TO.P,R1,1*%
%TO.N,/REGN*%
X155000000Y-95920000D03*
%TO.P,R1,2*%
%TO.N,Net-(D1-A)*%
X155000000Y-96880000D03*
%TD*%
D29*
%TO.P,R32,1*%
%TO.N,/ROSC*%
X162581617Y-101490000D03*
%TO.P,R32,2*%
%TO.N,GND*%
X162581617Y-102510000D03*
%TD*%
D41*
%TO.P,IC1,1,GND_1*%
%TO.N,GND*%
X125250000Y-105900000D03*
%TO.P,IC1,2,GND_2*%
X126050000Y-105900000D03*
%TO.P,IC1,3,3V3*%
%TO.N,+3.3V*%
X126850000Y-105900000D03*
%TO.P,IC1,4,I36*%
%TO.N,unconnected-(IC1-I36-Pad4)*%
X127650000Y-105900000D03*
%TO.P,IC1,5,I37*%
%TO.N,unconnected-(IC1-I37-Pad5)*%
X128450000Y-105900000D03*
%TO.P,IC1,6,I38*%
%TO.N,unconnected-(IC1-I38-Pad6)*%
X129250000Y-105900000D03*
%TO.P,IC1,7,I39*%
%TO.N,unconnected-(IC1-I39-Pad7)*%
X130050000Y-105900000D03*
%TO.P,IC1,8,EN*%
%TO.N,/ESP_EN*%
X130850000Y-105900000D03*
%TO.P,IC1,9,I34*%
%TO.N,/ADDRS_LED*%
X131650000Y-105900000D03*
%TO.P,IC1,10,I35*%
%TO.N,/SHUTDOWN*%
X132450000Y-105900000D03*
%TO.P,IC1,11,IO32*%
%TO.N,/DIR*%
X133250000Y-105900000D03*
%TO.P,IC1,12,IO33*%
%TO.N,/STEP*%
X134050000Y-105900000D03*
%TO.P,IC1,13,IO25*%
%TO.N,/MOT_nRST*%
X134850000Y-105900000D03*
D42*
%TO.P,IC1,14,IO26*%
%TO.N,/MS3*%
X136100000Y-105200000D03*
%TO.P,IC1,15,IO27*%
%TO.N,/MS2*%
X136100000Y-104400000D03*
%TO.P,IC1,16,IO14*%
%TO.N,/MS1*%
X136100000Y-103600000D03*
%TO.P,IC1,17,IO12*%
%TO.N,/MOT_nEN*%
X136100000Y-102800000D03*
%TO.P,IC1,18,IO13*%
%TO.N,/SDA*%
X136100000Y-102000000D03*
%TO.P,IC1,19,IO15*%
%TO.N,/SCL*%
X136100000Y-101200000D03*
%TO.P,IC1,20,IO2*%
%TO.N,/QON*%
X136100000Y-100400000D03*
%TO.P,IC1,21,IO0*%
%TO.N,/ESP_IO0*%
X136100000Y-99600000D03*
%TO.P,IC1,22,IO4*%
%TO.N,/BC_INT*%
X136100000Y-98800000D03*
%TO.P,IC1,23,NC*%
%TO.N,unconnected-(IC1-NC-Pad23)*%
X136100000Y-98000000D03*
%TO.P,IC1,24,NC*%
%TO.N,unconnected-(IC1-NC-Pad24)*%
X136100000Y-97200000D03*
%TO.P,IC1,25,IO9*%
%TO.N,unconnected-(IC1-IO9-Pad25)*%
X136100000Y-96400000D03*
%TO.P,IC1,26,IO10*%
%TO.N,unconnected-(IC1-IO10-Pad26)*%
X136100000Y-95600000D03*
%TO.P,IC1,27,GND*%
%TO.N,GND*%
X136100000Y-94800000D03*
D41*
%TO.P,IC1,28,NC*%
%TO.N,unconnected-(IC1-NC-Pad28)*%
X134850000Y-94100000D03*
%TO.P,IC1,29,IO5*%
%TO.N,unconnected-(IC1-IO5-Pad29)*%
X134050000Y-94100000D03*
%TO.P,IC1,30,IO18*%
%TO.N,/D-*%
X133250000Y-94100000D03*
%TO.P,IC1,31,IO23*%
%TO.N,unconnected-(IC1-IO23-Pad31)*%
X132450000Y-94100000D03*
%TO.P,IC1,32,IO19*%
%TO.N,/D+*%
X131650000Y-94100000D03*
%TO.P,IC1,33,IO22*%
%TO.N,unconnected-(IC1-IO22-Pad33)*%
X130850000Y-94100000D03*
%TO.P,IC1,34,IO21*%
%TO.N,unconnected-(IC1-IO21-Pad34)*%
X130050000Y-94100000D03*
%TO.P,IC1,35,RXD0*%
%TO.N,/ESP_RX*%
X129250000Y-94100000D03*
%TO.P,IC1,36,TXD0*%
%TO.N,/ESP_TX*%
X128450000Y-94100000D03*
%TO.P,IC1,37,NC*%
%TO.N,unconnected-(IC1-NC-Pad37)*%
X127650000Y-94100000D03*
%TO.P,IC1,38,GND*%
%TO.N,GND*%
X126850000Y-94100000D03*
%TO.P,IC1,39,GND*%
X126050000Y-94100000D03*
%TO.P,IC1,40,GND*%
X125250000Y-94100000D03*
D42*
%TO.P,IC1,41,GND*%
X124000000Y-94800000D03*
%TO.P,IC1,42,GND*%
X124000000Y-95600000D03*
%TO.P,IC1,43,GND*%
X124000000Y-96400000D03*
%TO.P,IC1,44,GND*%
X124000000Y-97200000D03*
%TO.P,IC1,45,GND*%
X124000000Y-98000000D03*
%TO.P,IC1,46,GND*%
X124000000Y-98800000D03*
%TO.P,IC1,47,GND*%
X124000000Y-99600000D03*
%TO.P,IC1,48,GND*%
X124000000Y-100400000D03*
%TO.P,IC1,49,GND*%
X124000000Y-101200000D03*
%TO.P,IC1,50,GND*%
X124000000Y-102000000D03*
%TO.P,IC1,51,GND*%
X124000000Y-102800000D03*
%TO.P,IC1,52,GND*%
X124000000Y-103600000D03*
%TO.P,IC1,53,GND*%
X124000000Y-104400000D03*
%TO.P,IC1,54,GND*%
X124000000Y-105200000D03*
D43*
%TO.P,IC1,55,GND*%
X130050000Y-100000000D03*
%TD*%
D44*
%TO.P,D1,1,K*%
%TO.N,/STAT*%
X156600000Y-97087500D03*
%TO.P,D1,2,A*%
%TO.N,Net-(D1-A)*%
X156600000Y-95512500D03*
%TD*%
D45*
%TO.P,R24,1*%
%TO.N,+3.3V*%
X147060589Y-98539411D03*
%TO.P,R24,2*%
%TO.N,/SDA*%
X147739411Y-97860589D03*
%TD*%
D39*
%TO.P,C6,1*%
%TO.N,/VUSB*%
X141500000Y-91725000D03*
%TO.P,C6,2*%
%TO.N,GND*%
X141500000Y-93275000D03*
%TD*%
D46*
%TO.P,R26,1*%
%TO.N,+3.3V*%
X129750000Y-110510000D03*
%TO.P,R26,2*%
%TO.N,/ESP_EN*%
X129750000Y-109490000D03*
%TD*%
D40*
%TO.P,C35,1*%
%TO.N,GND*%
X165481617Y-95220000D03*
%TO.P,C35,2*%
%TO.N,Net-(A1-VREG)*%
X165481617Y-96180000D03*
%TD*%
D47*
%TO.P,R25,1*%
%TO.N,+3.3V*%
X145739411Y-99860589D03*
%TO.P,R25,2*%
%TO.N,/SCL*%
X145060589Y-100539411D03*
%TD*%
D27*
%TO.P,C24,1*%
%TO.N,/VIN*%
X169680000Y-109200000D03*
%TO.P,C24,2*%
%TO.N,GND*%
X168720000Y-109200000D03*
%TD*%
D20*
%TO.P,R8,1*%
%TO.N,/BC_INT*%
X153010000Y-92200000D03*
%TO.P,R8,2*%
%TO.N,/INT*%
X151990000Y-92200000D03*
%TD*%
D48*
%TO.P,C31,1*%
%TO.N,+3.3V*%
X128200000Y-110000000D03*
%TO.P,C31,2*%
%TO.N,GND*%
X126300000Y-110000000D03*
%TD*%
D46*
%TO.P,R14,1*%
%TO.N,/BATP*%
X158000000Y-91610000D03*
%TO.P,R14,2*%
%TO.N,/BAT+*%
X158000000Y-90590000D03*
%TD*%
D35*
%TO.P,H7,1*%
%TO.N,N/C*%
X179000000Y-117500000D03*
D36*
X179000000Y-117500000D03*
%TD*%
D49*
%TO.P,Q1,1,G*%
%TO.N,/VUSB*%
X176750000Y-113175000D03*
%TO.P,Q1,2,S*%
%TO.N,GND*%
X178650000Y-113175000D03*
%TO.P,Q1,3,D*%
%TO.N,Net-(Q1-D)*%
X177700000Y-111300000D03*
%TD*%
D26*
%TO.P,C10,1*%
%TO.N,/REGN*%
X144300000Y-93580000D03*
%TO.P,C10,2*%
%TO.N,GND*%
X144300000Y-92620000D03*
%TD*%
D50*
%TO.P,SW2,1,1*%
%TO.N,GND*%
X154561749Y-114100000D03*
%TO.P,SW2,2,2*%
%TO.N,Net-(D3-K)*%
X159061750Y-114100000D03*
D51*
%TO.P,SW2,3*%
%TO.N,N/C*%
X153306749Y-111609701D03*
%TO.P,SW2,4*%
X160316750Y-111609701D03*
%TD*%
D29*
%TO.P,R19,1*%
%TO.N,/PROG*%
X154600000Y-93090000D03*
%TO.P,R19,2*%
%TO.N,GND*%
X154600000Y-94110000D03*
%TD*%
D35*
%TO.P,H6,1*%
%TO.N,N/C*%
X179000000Y-82500000D03*
D36*
X179000000Y-82500000D03*
%TD*%
D25*
%TO.P,R29,1*%
%TO.N,+3.3V*%
X166681617Y-105200000D03*
%TO.P,R29,2*%
%TO.N,/VREF*%
X167701617Y-105200000D03*
%TD*%
D39*
%TO.P,C3,1*%
%TO.N,/VUSB*%
X143100000Y-91725000D03*
%TO.P,C3,2*%
%TO.N,GND*%
X143100000Y-93275000D03*
%TD*%
D27*
%TO.P,C20,1*%
%TO.N,/SDRV*%
X156680000Y-92800000D03*
%TO.P,C20,2*%
%TO.N,GND*%
X155720000Y-92800000D03*
%TD*%
D22*
%TO.P,C19,1*%
%TO.N,/VSYS*%
X158400000Y-88875000D03*
%TO.P,C19,2*%
%TO.N,GND*%
X158400000Y-87325000D03*
%TD*%
D52*
%TO.P,D6,1,K*%
%TO.N,/BAT+*%
X162900000Y-90200000D03*
%TO.P,D6,2,A*%
%TO.N,GND*%
X162900000Y-92400000D03*
%TD*%
D53*
%TO.P,U6,1,GND*%
%TO.N,GND*%
X174600000Y-113250000D03*
%TO.P,U6,2,VO*%
%TO.N,+3.3V*%
X172300000Y-113250000D03*
%TO.P,U6,3,VI*%
%TO.N,/VIN*%
X170000000Y-113250000D03*
D54*
%TO.P,U6,4,GND*%
%TO.N,GND*%
X172300000Y-119550000D03*
%TD*%
D55*
%TO.P,J5,1,Pin_1*%
%TO.N,/ESP_EN*%
X127030000Y-83330000D03*
D56*
%TO.P,J5,2,Pin_2*%
%TO.N,+3.3V*%
X128300000Y-83330000D03*
%TO.P,J5,3,Pin_3*%
%TO.N,/ESP_TX*%
X127030000Y-84600000D03*
%TO.P,J5,4,Pin_4*%
%TO.N,GND*%
X128300000Y-84600000D03*
%TO.P,J5,5,Pin_5*%
%TO.N,/ESP_RX*%
X127030000Y-85870000D03*
%TO.P,J5,6,Pin_6*%
%TO.N,/ESP_IO0*%
X128300000Y-85870000D03*
%TD*%
D27*
%TO.P,C32,1*%
%TO.N,+3.3V*%
X126980000Y-108500000D03*
%TO.P,C32,2*%
%TO.N,GND*%
X126020000Y-108500000D03*
%TD*%
D35*
%TO.P,H4,1*%
%TO.N,N/C*%
X134500000Y-84500000D03*
D36*
X134500000Y-84500000D03*
%TD*%
D22*
%TO.P,C13,1*%
%TO.N,/PMID*%
X141600000Y-88850000D03*
%TO.P,C13,2*%
%TO.N,GND*%
X141600000Y-87300000D03*
%TD*%
D20*
%TO.P,R6,1*%
%TO.N,+3.3V*%
X167710000Y-111600000D03*
%TO.P,R6,2*%
%TO.N,/SHUTDOWN*%
X166690000Y-111600000D03*
%TD*%
D22*
%TO.P,C15,1*%
%TO.N,/VSYS*%
X153900000Y-88875000D03*
%TO.P,C15,2*%
%TO.N,GND*%
X153900000Y-87325000D03*
%TD*%
D33*
%TO.P,C28,1*%
%TO.N,/BAT+*%
X174551617Y-103400000D03*
%TO.P,C28,2*%
%TO.N,GND*%
X175511617Y-103400000D03*
%TD*%
D35*
%TO.P,H5,1*%
%TO.N,N/C*%
X121000000Y-82500000D03*
D36*
X121000000Y-82500000D03*
%TD*%
D35*
%TO.P,H3,1*%
%TO.N,N/C*%
X134500000Y-115500000D03*
D36*
X134500000Y-115500000D03*
%TD*%
D57*
%TO.P,J4,1,Pin_1*%
%TO.N,GND*%
X179000000Y-92100000D03*
D58*
%TO.P,J4,2,Pin_2*%
%TO.N,unconnected-(J4-Pin_2-Pad2)*%
X179000000Y-90100000D03*
%TO.P,J4,3,Pin_3*%
%TO.N,/BAT+*%
X179000000Y-88100000D03*
%TD*%
D25*
%TO.P,R27,1*%
%TO.N,Net-(A1-SENSE1)*%
X174421617Y-101550000D03*
%TO.P,R27,2*%
%TO.N,GND*%
X175441617Y-101550000D03*
%TD*%
D27*
%TO.P,C22,1*%
%TO.N,/VIN*%
X169680000Y-111400000D03*
%TO.P,C22,2*%
%TO.N,GND*%
X168720000Y-111400000D03*
%TD*%
D59*
%TO.P,J1,*%
%TO.N,*%
X143200000Y-118350000D03*
X146000000Y-118350000D03*
D60*
%TO.P,J1,A1,GND*%
%TO.N,GND*%
X141500000Y-114150000D03*
%TO.P,J1,A4,VBUS*%
%TO.N,/VUSB*%
X142250000Y-114150000D03*
D61*
%TO.P,J1,A5,CC1*%
%TO.N,Net-(J1-CC1)*%
X142850000Y-114150000D03*
%TO.P,J1,A6,D+*%
%TO.N,/D+*%
X144350000Y-114150000D03*
%TO.P,J1,A7,D-*%
%TO.N,/D-*%
X145350000Y-114150000D03*
%TO.P,J1,A8,SBU1*%
%TO.N,unconnected-(J1-SBU1-PadA8)*%
X146350000Y-114150000D03*
D60*
%TO.P,J1,A9,VBUS*%
%TO.N,/VUSB*%
X146950000Y-114150000D03*
%TO.P,J1,A12,GND*%
%TO.N,GND*%
X147700000Y-114150000D03*
%TO.P,J1,B1,GND*%
X147700000Y-114150000D03*
%TO.P,J1,B4,VBUS*%
%TO.N,/VUSB*%
X146950000Y-114150000D03*
D61*
%TO.P,J1,B5,CC2*%
%TO.N,Net-(J1-CC2)*%
X145850000Y-114150000D03*
%TO.P,J1,B6,D+*%
%TO.N,/D+*%
X144850000Y-114150000D03*
%TO.P,J1,B7,D-*%
%TO.N,/D-*%
X143850000Y-114150000D03*
%TO.P,J1,B8,SBU2*%
%TO.N,unconnected-(J1-SBU2-PadB8)*%
X143350000Y-114150000D03*
D60*
%TO.P,J1,B9,VBUS*%
%TO.N,/VUSB*%
X142250000Y-114150000D03*
%TO.P,J1,B12,GND*%
%TO.N,GND*%
X141500000Y-114150000D03*
D62*
%TO.P,J1,S1*%
%TO.N,N/C*%
X140280000Y-114525000D03*
D63*
X140280000Y-118350000D03*
D62*
X148920000Y-114525000D03*
D63*
X148920000Y-118350000D03*
%TD*%
D40*
%TO.P,C34,1*%
%TO.N,/ESP_EN*%
X131000000Y-109520000D03*
%TO.P,C34,2*%
%TO.N,GND*%
X131000000Y-110480000D03*
%TD*%
D33*
%TO.P,C27,1*%
%TO.N,+3.3V*%
X172920000Y-111400000D03*
%TO.P,C27,2*%
%TO.N,GND*%
X173880000Y-111400000D03*
%TD*%
D35*
%TO.P,H8,1*%
%TO.N,N/C*%
X121000000Y-117500000D03*
D36*
X121000000Y-117500000D03*
%TD*%
D33*
%TO.P,C8,1*%
%TO.N,/PMID*%
X146920000Y-89200000D03*
%TO.P,C8,2*%
%TO.N,GND*%
X147880000Y-89200000D03*
%TD*%
D64*
%TO.P,A1,1,OUT2B*%
%TO.N,/OUT2B*%
X171231617Y-98002500D03*
D65*
%TO.P,A1,2,nEN*%
%TO.N,/MOT_nEN*%
X170731617Y-98062500D03*
%TO.P,A1,3,GND*%
%TO.N,GND*%
X170231617Y-98062500D03*
%TO.P,A1,4,CP1*%
%TO.N,Net-(A1-CP1)*%
X169731617Y-98062500D03*
%TO.P,A1,5,CP2*%
%TO.N,Net-(A1-CP2)*%
X169231617Y-98062500D03*
%TO.P,A1,6,VCP*%
%TO.N,/VCP*%
X168731617Y-98062500D03*
D66*
%TO.P,A1,7,NC*%
%TO.N,unconnected-(A1-NC-Pad7)*%
X168231617Y-98002500D03*
D67*
%TO.P,A1,8,VREG*%
%TO.N,Net-(A1-VREG)*%
X167734117Y-98500000D03*
D68*
%TO.P,A1,9,MS1*%
%TO.N,/MS1*%
X167794117Y-99000000D03*
%TO.P,A1,10,MS2*%
%TO.N,/MS2*%
X167794117Y-99500000D03*
%TO.P,A1,11,MS3*%
%TO.N,/MS3*%
X167794117Y-100000000D03*
%TO.P,A1,12,nRESET*%
%TO.N,/MOT_nRST*%
X167794117Y-100500000D03*
%TO.P,A1,13,ROSC*%
%TO.N,/ROSC*%
X167794117Y-101000000D03*
D69*
%TO.P,A1,14,nSLEEP*%
%TO.N,Net-(A1-nSLEEP)*%
X167734117Y-101500000D03*
D70*
%TO.P,A1,15,VDD*%
%TO.N,Net-(A1-VDD)*%
X168231617Y-101997500D03*
D65*
%TO.P,A1,16,STEP*%
%TO.N,/STEP*%
X168731617Y-101937500D03*
%TO.P,A1,17,REF*%
%TO.N,/VREF*%
X169231617Y-101937500D03*
%TO.P,A1,18,GND*%
%TO.N,GND*%
X169731617Y-101937500D03*
%TO.P,A1,19,DIR*%
%TO.N,/DIR*%
X170231617Y-101937500D03*
%TO.P,A1,20,NC*%
%TO.N,unconnected-(A1-NC-Pad20)*%
X170731617Y-101937500D03*
D71*
%TO.P,A1,21,OUT1B*%
%TO.N,/OUT1B*%
X171231617Y-101997500D03*
D72*
%TO.P,A1,22,VBB1*%
%TO.N,/BAT+*%
X171729117Y-101500000D03*
D68*
%TO.P,A1,23,SENSE1*%
%TO.N,Net-(A1-SENSE1)*%
X171669117Y-101000000D03*
%TO.P,A1,24,OUT1A*%
%TO.N,/OUT1A*%
X171669117Y-100500000D03*
%TO.P,A1,25,NC*%
%TO.N,unconnected-(A1-NC-Pad25)*%
X171669117Y-100000000D03*
%TO.P,A1,26,OUT2A*%
%TO.N,/OUT2A*%
X171669117Y-99500000D03*
%TO.P,A1,27,SENSE2*%
%TO.N,Net-(A1-SENSE2)*%
X171669117Y-99000000D03*
D73*
%TO.P,A1,28,VBB2*%
%TO.N,/BAT+*%
X171729117Y-98500000D03*
%TD*%
D33*
%TO.P,C33,1*%
%TO.N,+3.3V*%
X166701617Y-104100000D03*
%TO.P,C33,2*%
%TO.N,Net-(A1-VDD)*%
X167661617Y-104100000D03*
%TD*%
D20*
%TO.P,R10,1*%
%TO.N,/VSYS*%
X164010000Y-110200000D03*
%TO.P,R10,2*%
%TO.N,Net-(D3-K)*%
X162990000Y-110200000D03*
%TD*%
D25*
%TO.P,R30,1*%
%TO.N,/VREF*%
X168671617Y-105200000D03*
%TO.P,R30,2*%
%TO.N,GND*%
X169691617Y-105200000D03*
%TD*%
D22*
%TO.P,C9,1*%
%TO.N,/PMID*%
X143200000Y-88850000D03*
%TO.P,C9,2*%
%TO.N,GND*%
X143200000Y-87300000D03*
%TD*%
D29*
%TO.P,R18,1*%
%TO.N,/TS*%
X151400000Y-95890000D03*
%TO.P,R18,2*%
%TO.N,GND*%
X151400000Y-96910000D03*
%TD*%
D40*
%TO.P,C26,1*%
%TO.N,/BAT+*%
X165700000Y-90520000D03*
%TO.P,C26,2*%
%TO.N,GND*%
X165700000Y-91480000D03*
%TD*%
D25*
%TO.P,R22,1*%
%TO.N,/ILIM_HIZ*%
X151990000Y-93900000D03*
%TO.P,R22,2*%
%TO.N,GND*%
X153010000Y-93900000D03*
%TD*%
D48*
%TO.P,D2,1,K*%
%TO.N,GND*%
X142350000Y-97000000D03*
%TO.P,D2,2,A*%
%TO.N,Net-(D2-A)*%
X140450000Y-97000000D03*
%TD*%
D20*
%TO.P,R12,1*%
%TO.N,+3.3V*%
X160210000Y-106700000D03*
%TO.P,R12,2*%
%TO.N,Net-(U2-D1)*%
X159190000Y-106700000D03*
%TD*%
D46*
%TO.P,R31,1*%
%TO.N,+3.3V*%
X163681617Y-102500000D03*
%TO.P,R31,2*%
%TO.N,/ROSC*%
X163681617Y-101480000D03*
%TD*%
D74*
%TO.P,SW1,1,1*%
%TO.N,GND*%
X138850000Y-111575000D03*
X134350000Y-111575000D03*
%TO.P,SW1,2,2*%
%TO.N,/ESP_EN*%
X138850000Y-109425000D03*
X134350000Y-109425000D03*
%TD*%
D40*
%TO.P,R15,1*%
%TO.N,/VUSB*%
X180000000Y-112720000D03*
%TO.P,R15,2*%
%TO.N,GND*%
X180000000Y-113680000D03*
%TD*%
%TO.P,C2,1*%
%TO.N,/VUSB*%
X145300000Y-91620000D03*
%TO.P,C2,2*%
%TO.N,GND*%
X145300000Y-92580000D03*
%TD*%
D46*
%TO.P,R23,1*%
%TO.N,+3.3V*%
X164781617Y-102510000D03*
%TO.P,R23,2*%
%TO.N,Net-(A1-nSLEEP)*%
X164781617Y-101490000D03*
%TD*%
D22*
%TO.P,C7,1*%
%TO.N,+3.3V*%
X145700000Y-107675000D03*
%TO.P,C7,2*%
%TO.N,GND*%
X145700000Y-106125000D03*
%TD*%
D75*
%TO.P,U2,1,G1*%
%TO.N,Net-(D3-K)*%
X157737500Y-108850000D03*
%TO.P,U2,2,S2*%
%TO.N,unconnected-(U2-S2-Pad2)*%
X157737500Y-107900000D03*
%TO.P,U2,3,G2*%
%TO.N,unconnected-(U2-G2-Pad3)*%
X157737500Y-106950000D03*
%TO.P,U2,4,D2*%
%TO.N,unconnected-(U2-D2-Pad4)*%
X155462500Y-106950000D03*
%TO.P,U2,5,S1*%
%TO.N,GND*%
X155462500Y-107900000D03*
%TO.P,U2,6,D1*%
%TO.N,Net-(U2-D1)*%
X155462500Y-108850000D03*
%TD*%
D22*
%TO.P,C17,1*%
%TO.N,/VSYS*%
X152400000Y-88875000D03*
%TO.P,C17,2*%
%TO.N,GND*%
X152400000Y-87325000D03*
%TD*%
D27*
%TO.P,C12,1*%
%TO.N,/VSYS*%
X150080000Y-89200000D03*
%TO.P,C12,2*%
%TO.N,GND*%
X149120000Y-89200000D03*
%TD*%
D22*
%TO.P,C21,1*%
%TO.N,/VSYS*%
X155400000Y-88875000D03*
%TO.P,C21,2*%
%TO.N,GND*%
X155400000Y-87325000D03*
%TD*%
D25*
%TO.P,R16,1*%
%TO.N,/ILIM_HIZ*%
X151990000Y-94900000D03*
%TO.P,R16,2*%
%TO.N,/REGN*%
X153010000Y-94900000D03*
%TD*%
D26*
%TO.P,R3,1*%
%TO.N,Net-(J1-CC2)*%
X145900000Y-111180000D03*
%TO.P,R3,2*%
%TO.N,GND*%
X145900000Y-110220000D03*
%TD*%
D57*
%TO.P,J6,1,Pin_1*%
%TO.N,/OUT1B*%
X180131617Y-103000000D03*
D58*
%TO.P,J6,2,Pin_2*%
%TO.N,/OUT1A*%
X180131617Y-101000000D03*
%TO.P,J6,3,Pin_3*%
%TO.N,/OUT2A*%
X180131617Y-99000000D03*
%TO.P,J6,4,Pin_4*%
%TO.N,/OUT2B*%
X180131617Y-97000000D03*
%TD*%
D76*
%TO.N,/VUSB*%
X140400000Y-91400000D03*
%TO.N,+3.3V*%
X144400000Y-108000000D03*
%TO.N,GND*%
X144400000Y-106900000D03*
X143600000Y-97000000D03*
%TO.N,+3.3V*%
X143600000Y-95200000D03*
%TO.N,/ESP_EN*%
X130900000Y-104700000D03*
X130100000Y-92500000D03*
%TO.N,GND*%
X129800000Y-102600000D03*
X129000000Y-102600000D03*
X128200000Y-102600000D03*
X129700000Y-97400000D03*
X128900000Y-97400000D03*
X128100000Y-97400000D03*
X127400000Y-97800000D03*
X127400000Y-98600000D03*
X127400000Y-99400000D03*
X127400000Y-100200000D03*
X127400000Y-101000000D03*
X127400000Y-101800000D03*
X127400000Y-102600000D03*
X137400000Y-111100000D03*
X125200000Y-110000000D03*
X124400000Y-110000000D03*
X123600000Y-110000000D03*
%TO.N,+3.3V*%
X128200000Y-111400000D03*
X128200000Y-112300000D03*
X128200000Y-113100000D03*
%TO.N,/SCL*%
X144400000Y-101200000D03*
%TO.N,/SDA*%
X147300000Y-100400000D03*
%TO.N,+3.3V*%
X146400000Y-99200000D03*
%TO.N,/VSYS*%
X163300000Y-111100000D03*
X162700000Y-111700000D03*
X162100000Y-112300000D03*
%TO.N,GND*%
X152400000Y-100500000D03*
%TO.N,+3.3V*%
X149000000Y-102100000D03*
X161300000Y-106700000D03*
%TO.N,GND*%
X154100000Y-107500000D03*
%TO.N,+3.3V*%
X168600000Y-112400000D03*
%TO.N,GND*%
X161700000Y-114600000D03*
X168700000Y-108500000D03*
X168700000Y-107800000D03*
%TO.N,/VUSB*%
X180900000Y-108400000D03*
%TO.N,GND*%
X172900000Y-107651500D03*
%TO.N,+3.3V*%
X171800000Y-116800000D03*
X172500000Y-116400000D03*
X172500000Y-115600000D03*
X171800000Y-116000000D03*
X171800000Y-115200000D03*
%TO.N,GND*%
X174400000Y-117700000D03*
X173800000Y-117200000D03*
X174500000Y-116900000D03*
X173900000Y-116400000D03*
X174600000Y-116100000D03*
X174000000Y-115600000D03*
X181100000Y-113600000D03*
%TO.N,/DIR*%
X160600000Y-103100000D03*
%TO.N,/STEP*%
X161200000Y-101200000D03*
%TO.N,/ESP_IO0*%
X137400000Y-99600000D03*
%TO.N,/BC_INT*%
X145500000Y-94600000D03*
%TO.N,/VUSB*%
X139800000Y-90800000D03*
%TO.N,GND*%
X140300000Y-92900000D03*
X139700000Y-92300000D03*
%TO.N,/VUSB*%
X145800000Y-115900000D03*
X141600000Y-116300000D03*
%TO.N,GND*%
X149400000Y-112500000D03*
X139700000Y-112500000D03*
X142800000Y-109100000D03*
X145900000Y-109200000D03*
X167400000Y-102300000D03*
X170581617Y-100000000D03*
X149100000Y-92900000D03*
X176131617Y-102400000D03*
X164750000Y-92400000D03*
X167350000Y-92400000D03*
X146900000Y-96900000D03*
X162881617Y-97200000D03*
X169381617Y-106100000D03*
X176881617Y-102400000D03*
X169681617Y-99100000D03*
X172681617Y-106100000D03*
X148500000Y-93400000D03*
X158103500Y-85800000D03*
X156000000Y-85800000D03*
X171581617Y-106100000D03*
X150400000Y-97200000D03*
X175381617Y-102400000D03*
X176531617Y-103050000D03*
X140800000Y-85800000D03*
X168781617Y-100000000D03*
X176831617Y-97600000D03*
X143900000Y-85800000D03*
X169681617Y-100000000D03*
X159300000Y-85800000D03*
X155600000Y-94300000D03*
X162900000Y-93800000D03*
X163900000Y-92400000D03*
X162881617Y-96100000D03*
X168781617Y-100900000D03*
X173781617Y-106100000D03*
X175981617Y-106100000D03*
X168781617Y-99100000D03*
X170481617Y-106100000D03*
X142800000Y-85800000D03*
X170581617Y-100900000D03*
X141800000Y-85800000D03*
X166500000Y-92400000D03*
X145000000Y-85800000D03*
X176481617Y-98200000D03*
X165650000Y-92400000D03*
X170581617Y-99100000D03*
X162881617Y-95000000D03*
X154800000Y-92300000D03*
X152800000Y-85800000D03*
X169681617Y-100900000D03*
X147900000Y-92900000D03*
X155600000Y-92100000D03*
X162881617Y-98300000D03*
X161581617Y-102500000D03*
X176481617Y-97000000D03*
X176081617Y-97600000D03*
X174881617Y-106100000D03*
X148500000Y-85800000D03*
X153900000Y-85800000D03*
X157000500Y-85800000D03*
X155000000Y-85800000D03*
%TO.N,/STEP*%
X168581617Y-104100000D03*
%TO.N,/DIR*%
X170081617Y-103500000D03*
%TO.N,/BAT+*%
X169200000Y-95600000D03*
X174582114Y-102400000D03*
X172581617Y-103000000D03*
X172981617Y-97550000D03*
X173381617Y-103000000D03*
X173781617Y-97550000D03*
X172981617Y-102400000D03*
X173781617Y-102400000D03*
X174582114Y-97550000D03*
X172581617Y-96950000D03*
X173381617Y-96950000D03*
%TO.N,/STAT*%
X145600000Y-90600000D03*
X155400000Y-97800000D03*
D77*
%TO.N,/BTST1*%
X145900000Y-92100000D03*
%TO.N,/REGN*%
X154300000Y-95000000D03*
X145200000Y-93600000D03*
%TO.N,/BTST2*%
X151303778Y-93084241D03*
%TO.N,/SDRV*%
X157100000Y-91000000D03*
X151400000Y-90500000D03*
D76*
%TO.N,/VSYS*%
X160700000Y-87500000D03*
X160700000Y-88300000D03*
X160700000Y-86700000D03*
X160700000Y-89100000D03*
D77*
%TO.N,/SW2*%
X149000000Y-91700000D03*
X149500000Y-91700000D03*
D76*
X149500000Y-85800000D03*
D77*
X149500000Y-92200000D03*
D76*
X149500000Y-86500000D03*
X149500000Y-87200000D03*
D77*
X149000000Y-92200000D03*
D76*
%TO.N,/SW1*%
X147500000Y-86500000D03*
D77*
X147500000Y-91700000D03*
D76*
X147500000Y-85800000D03*
D77*
X148000000Y-91700000D03*
X147500000Y-92200000D03*
X148000000Y-92200000D03*
D76*
X147500000Y-87200000D03*
%TO.N,+3.3V*%
X161700000Y-104900000D03*
X161681617Y-103500000D03*
D77*
%TO.N,/BC_INT*%
X153800000Y-91900000D03*
D76*
%TO.N,/D-*%
X133300000Y-95400000D03*
X143800000Y-116000000D03*
%TO.N,/D+*%
X144600000Y-116900000D03*
X131600000Y-95400000D03*
%TD*%
D78*
%TO.N,/VUSB*%
X145800000Y-115500000D02*
X145800000Y-115900000D01*
X146785000Y-114950000D02*
X146350000Y-114950000D01*
X146950000Y-114150000D02*
X146785000Y-114315000D01*
X146785000Y-114315000D02*
X146785000Y-114950000D01*
X146350000Y-114950000D02*
X145800000Y-115500000D01*
%TO.N,/SHUTDOWN*%
X165710000Y-110297500D02*
X165450000Y-110037500D01*
X165710000Y-111600000D02*
X165710000Y-110297500D01*
D79*
%TO.N,+3.3V*%
X144725000Y-107675000D02*
X144400000Y-108000000D01*
X145700000Y-107675000D02*
X144725000Y-107675000D01*
X147750000Y-108750000D02*
X147750000Y-111250000D01*
X146675000Y-107675000D02*
X147750000Y-108750000D01*
X145700000Y-107675000D02*
X146675000Y-107675000D01*
%TO.N,GND*%
X150023000Y-107377000D02*
X151050000Y-106350000D01*
X146952000Y-107377000D02*
X150023000Y-107377000D01*
X145700000Y-106125000D02*
X146952000Y-107377000D01*
X145175000Y-106125000D02*
X144400000Y-106900000D01*
X145700000Y-106125000D02*
X145175000Y-106125000D01*
D80*
%TO.N,/ADDRS_LED*%
X134202000Y-108652000D02*
X141637761Y-108652000D01*
X131650000Y-106100000D02*
X134202000Y-108652000D01*
X145057761Y-105232000D02*
X146632000Y-105232000D01*
X131650000Y-105900000D02*
X131650000Y-106100000D01*
X141637761Y-108652000D02*
X145057761Y-105232000D01*
X146632000Y-105232000D02*
X147750000Y-106350000D01*
D79*
%TO.N,GND*%
X138825000Y-111600000D02*
X138850000Y-111575000D01*
X137900000Y-111600000D02*
X138825000Y-111600000D01*
X137400000Y-111100000D02*
X137900000Y-111600000D01*
X136925000Y-111575000D02*
X137400000Y-111100000D01*
X132095000Y-111575000D02*
X136925000Y-111575000D01*
X131000000Y-110480000D02*
X132095000Y-111575000D01*
%TO.N,/ESP_EN*%
X130690000Y-109400000D02*
X130600000Y-109490000D01*
X138825000Y-109400000D02*
X130690000Y-109400000D01*
X138850000Y-109425000D02*
X138825000Y-109400000D01*
D80*
%TO.N,/MS2*%
X136354000Y-104400000D02*
X136100000Y-104400000D01*
X153892000Y-103408000D02*
X137346000Y-103408000D01*
X157800000Y-99500000D02*
X153892000Y-103408000D01*
X167794117Y-99500000D02*
X157800000Y-99500000D01*
X137346000Y-103408000D02*
X136354000Y-104400000D01*
%TO.N,/MS3*%
X136727000Y-104827000D02*
X137842000Y-103712000D01*
X137842000Y-103712000D02*
X154638000Y-103712000D01*
X136473000Y-104827000D02*
X136727000Y-104827000D01*
X158350000Y-100000000D02*
X167794117Y-100000000D01*
X136100000Y-105200000D02*
X136473000Y-104827000D01*
X154638000Y-103712000D02*
X158350000Y-100000000D01*
%TO.N,/MOT_nRST*%
X144554080Y-104016000D02*
X155298960Y-104016000D01*
X141134080Y-107436000D02*
X144554080Y-104016000D01*
X135765920Y-107436000D02*
X141134080Y-107436000D01*
X134850000Y-106520080D02*
X135765920Y-107436000D01*
X158814960Y-100500000D02*
X167794117Y-100500000D01*
X134850000Y-105900000D02*
X134850000Y-106520080D01*
X155298960Y-104016000D02*
X158814960Y-100500000D01*
%TO.N,/STEP*%
X134100000Y-105950000D02*
X134050000Y-105900000D01*
X141260000Y-107740000D02*
X135640000Y-107740000D01*
X144680000Y-104320000D02*
X141260000Y-107740000D01*
X156080000Y-104320000D02*
X144680000Y-104320000D01*
X135640000Y-107740000D02*
X134100000Y-106200000D01*
X159200000Y-101200000D02*
X156080000Y-104320000D01*
X161200000Y-101200000D02*
X159200000Y-101200000D01*
X134100000Y-106200000D02*
X134100000Y-105950000D01*
%TO.N,/DIR*%
X133250000Y-106100000D02*
X133250000Y-105900000D01*
X141385920Y-108044000D02*
X135194000Y-108044000D01*
X144805920Y-104624000D02*
X141385920Y-108044000D01*
X135194000Y-108044000D02*
X133250000Y-106100000D01*
X158400000Y-103000000D02*
X156776000Y-104624000D01*
X160500000Y-103000000D02*
X158400000Y-103000000D01*
X156776000Y-104624000D02*
X144805920Y-104624000D01*
X160600000Y-103100000D02*
X160500000Y-103000000D01*
%TO.N,/SHUTDOWN*%
X141511840Y-108348000D02*
X134644000Y-108348000D01*
X144931840Y-104928000D02*
X141511840Y-108348000D01*
X132450000Y-106154000D02*
X132450000Y-105900000D01*
X152128000Y-104928000D02*
X144931840Y-104928000D01*
X134644000Y-108348000D02*
X132450000Y-106154000D01*
X153400000Y-106200000D02*
X152128000Y-104928000D01*
X153400000Y-108600000D02*
X153400000Y-106200000D01*
X156800000Y-114000000D02*
X156800000Y-112000000D01*
X158200000Y-115400000D02*
X156800000Y-114000000D01*
X156800000Y-112000000D02*
X153400000Y-108600000D01*
X160058055Y-115400000D02*
X158200000Y-115400000D01*
X165420555Y-110037500D02*
X160058055Y-115400000D01*
X165450000Y-110037500D02*
X165420555Y-110037500D01*
%TO.N,/MS1*%
X157400000Y-99000000D02*
X167794117Y-99000000D01*
X153296000Y-103104000D02*
X157400000Y-99000000D01*
X136473000Y-103227000D02*
X136604000Y-103227000D01*
X136604000Y-103227000D02*
X136727000Y-103104000D01*
X136100000Y-103600000D02*
X136473000Y-103227000D01*
X136727000Y-103104000D02*
X153296000Y-103104000D01*
D79*
%TO.N,+3.3V*%
X143590000Y-95210000D02*
X142030000Y-95210000D01*
X143600000Y-95200000D02*
X143590000Y-95210000D01*
%TO.N,GND*%
X142350000Y-97000000D02*
X143600000Y-97000000D01*
%TO.N,Net-(D2-A)*%
X140450000Y-95770000D02*
X141010000Y-95210000D01*
X140450000Y-97000000D02*
X140450000Y-95770000D01*
D81*
%TO.N,/BAT+*%
X168620000Y-95020000D02*
X167981617Y-95020000D01*
X169200000Y-95600000D02*
X168620000Y-95020000D01*
D79*
%TO.N,/ESP_EN*%
X130900000Y-105850000D02*
X130850000Y-105900000D01*
X130900000Y-104700000D02*
X130900000Y-105850000D01*
X130100000Y-84031156D02*
X130100000Y-92500000D01*
X127807000Y-82553000D02*
X128621844Y-82553000D01*
X127030000Y-83330000D02*
X127807000Y-82553000D01*
X128621844Y-82553000D02*
X130100000Y-84031156D01*
%TO.N,GND*%
X137200000Y-94800000D02*
X139700000Y-92300000D01*
X136100000Y-94800000D02*
X137200000Y-94800000D01*
%TO.N,/D-*%
X143850000Y-113296000D02*
X143850000Y-114050000D01*
X145154000Y-113100000D02*
X144046000Y-113100000D01*
X145350000Y-113296000D02*
X145154000Y-113100000D01*
X144046000Y-113100000D02*
X143850000Y-113296000D01*
X145350000Y-114050000D02*
X145350000Y-113296000D01*
%TO.N,/D+*%
X144350000Y-114050000D02*
X144850000Y-114050000D01*
%TO.N,/ESP_EN*%
X130600000Y-109490000D02*
X130970000Y-109490000D01*
X129750000Y-109490000D02*
X130600000Y-109490000D01*
X130850000Y-109370000D02*
X130850000Y-105900000D01*
X131000000Y-109520000D02*
X130850000Y-109370000D01*
X130970000Y-109490000D02*
X131000000Y-109520000D01*
%TO.N,+3.3V*%
X128710000Y-110510000D02*
X128200000Y-110000000D01*
X129750000Y-110510000D02*
X128710000Y-110510000D01*
D78*
X128200000Y-111400000D02*
X128200000Y-110000000D01*
X128200000Y-111400000D02*
X128200000Y-112300000D01*
D79*
%TO.N,GND*%
X124400000Y-110000000D02*
X123600000Y-110000000D01*
X125200000Y-110000000D02*
X124400000Y-110000000D01*
X126300000Y-110000000D02*
X125200000Y-110000000D01*
X126020000Y-109720000D02*
X126300000Y-110000000D01*
X126020000Y-108500000D02*
X126020000Y-109720000D01*
X126050000Y-108470000D02*
X126020000Y-108500000D01*
X126050000Y-105900000D02*
X126050000Y-108470000D01*
D78*
%TO.N,+3.3V*%
X128200000Y-112300000D02*
X128200000Y-113100000D01*
X126980000Y-108500000D02*
X126980000Y-108780000D01*
X126980000Y-108780000D02*
X128200000Y-110000000D01*
X126850000Y-108370000D02*
X126980000Y-108500000D01*
X126850000Y-105900000D02*
X126850000Y-108370000D01*
D79*
%TO.N,GND*%
X124400000Y-105900000D02*
X126050000Y-105900000D01*
X124000000Y-105500000D02*
X124400000Y-105900000D01*
X124000000Y-105200000D02*
X124000000Y-105500000D01*
X124000000Y-94800000D02*
X124000000Y-105200000D01*
X124000000Y-94500000D02*
X124000000Y-94800000D01*
X124400000Y-94100000D02*
X124000000Y-94500000D01*
X125250000Y-94100000D02*
X124400000Y-94100000D01*
X126850000Y-94100000D02*
X125250000Y-94100000D01*
%TO.N,/ESP_TX*%
X126000000Y-86250000D02*
X128450000Y-88700000D01*
X128450000Y-88700000D02*
X128450000Y-94100000D01*
X126000000Y-85630000D02*
X126000000Y-86250000D01*
X127030000Y-84600000D02*
X126000000Y-85630000D01*
%TO.N,/ESP_RX*%
X127030000Y-85870000D02*
X129250000Y-88090000D01*
X129250000Y-88090000D02*
X129250000Y-94100000D01*
D80*
%TO.N,/MOT_nEN*%
X170731617Y-95869354D02*
X170731617Y-98062500D01*
X169310263Y-94448000D02*
X170731617Y-95869354D01*
X136100000Y-102800000D02*
X152700000Y-102800000D01*
X152700000Y-102800000D02*
X161052000Y-94448000D01*
X161052000Y-94448000D02*
X169310263Y-94448000D01*
%TO.N,/STAT*%
X155887500Y-97800000D02*
X156600000Y-97087500D01*
X155400000Y-97800000D02*
X155887500Y-97800000D01*
%TO.N,/SDA*%
X146200000Y-100400000D02*
X146150000Y-100450000D01*
X147300000Y-100400000D02*
X146200000Y-100400000D01*
%TO.N,/SCL*%
X144400000Y-101200000D02*
X143200000Y-101200000D01*
X143300000Y-101200000D02*
X143200000Y-101200000D01*
X143200000Y-101200000D02*
X136100000Y-101200000D01*
%TO.N,/SDA*%
X144600000Y-102000000D02*
X146150000Y-100450000D01*
X146150000Y-100450000D02*
X148900000Y-97700000D01*
%TO.N,/SCL*%
X145059677Y-100540323D02*
X144040323Y-100540323D01*
X145060589Y-100539411D02*
X145059677Y-100540323D01*
%TO.N,/SDA*%
X147739411Y-97860589D02*
X148739411Y-97860589D01*
X148900000Y-97700000D02*
X149500000Y-97100000D01*
X148739411Y-97860589D02*
X148900000Y-97700000D01*
%TO.N,/SCL*%
X143380646Y-101200000D02*
X143300000Y-101200000D01*
%TO.N,+3.3V*%
X145939411Y-99660589D02*
X146400000Y-99200000D01*
X146400000Y-99200000D02*
X147060589Y-98539411D01*
%TO.N,/SDA*%
X149500000Y-97100000D02*
X149500000Y-94300000D01*
X136100000Y-102000000D02*
X144600000Y-102000000D01*
D78*
%TO.N,GND*%
X161700000Y-114600000D02*
X164690000Y-111610000D01*
X164690000Y-111610000D02*
X164690000Y-111600000D01*
%TO.N,+3.3V*%
X168600000Y-112400000D02*
X168510000Y-112400000D01*
X168510000Y-112400000D02*
X167710000Y-111600000D01*
%TO.N,Net-(D3-K)*%
X163090000Y-110200000D02*
X162400000Y-110200000D01*
X162400000Y-110200000D02*
X160600000Y-108400000D01*
X160600000Y-108400000D02*
X159450000Y-108400000D01*
%TO.N,/VSYS*%
X164000000Y-110090000D02*
X164000000Y-109110000D01*
X164110000Y-110200000D02*
X164000000Y-110090000D01*
X166400000Y-109688604D02*
X166400000Y-110037500D01*
X165786396Y-109075000D02*
X166400000Y-109688604D01*
X164035000Y-109075000D02*
X165786396Y-109075000D01*
X164000000Y-109110000D02*
X164035000Y-109075000D01*
X163300000Y-111100000D02*
X162700000Y-111700000D01*
X162700000Y-111700000D02*
X162100000Y-112300000D01*
X164110000Y-110290000D02*
X163300000Y-111100000D01*
X164110000Y-110200000D02*
X164110000Y-110290000D01*
%TO.N,+3.3V*%
X160210000Y-106700000D02*
X161300000Y-106700000D01*
%TO.N,GND*%
X154500000Y-107900000D02*
X154100000Y-107500000D01*
X155462500Y-107900000D02*
X154500000Y-107900000D01*
%TO.N,Net-(U2-D1)*%
X156500000Y-108161396D02*
X155811396Y-108850000D01*
X156500000Y-106600000D02*
X156500000Y-108161396D01*
X155811396Y-108850000D02*
X155462500Y-108850000D01*
X158840000Y-106350000D02*
X156750000Y-106350000D01*
X159190000Y-106700000D02*
X158840000Y-106350000D01*
X156750000Y-106350000D02*
X156500000Y-106600000D01*
%TO.N,Net-(D3-K)*%
X157737500Y-112775750D02*
X159061750Y-114100000D01*
X157737500Y-108850000D02*
X157737500Y-112775750D01*
X159000000Y-108850000D02*
X157737500Y-108850000D01*
X159450000Y-108400000D02*
X159000000Y-108850000D01*
%TO.N,/CNTRL*%
X163050000Y-108100000D02*
X163990000Y-108100000D01*
X162750000Y-108400000D02*
X163050000Y-108100000D01*
X163990000Y-108100000D02*
X164000000Y-108090000D01*
X164410000Y-108090000D02*
X164737500Y-107762500D01*
X164000000Y-108090000D02*
X164410000Y-108090000D01*
X164737500Y-107762500D02*
X165450000Y-107762500D01*
D80*
X165450000Y-108008159D02*
X165450000Y-107762500D01*
X167350000Y-109791841D02*
X166458159Y-108900000D01*
X166458159Y-108900000D02*
X166341841Y-108900000D01*
X167350000Y-110037500D02*
X167350000Y-109791841D01*
X166341841Y-108900000D02*
X165450000Y-108008159D01*
D78*
%TO.N,/SHUTDOWN*%
X166690000Y-111600000D02*
X165710000Y-111600000D01*
%TO.N,GND*%
X168700000Y-108500000D02*
X168700000Y-107800000D01*
X168720000Y-111400000D02*
X168700000Y-108500000D01*
X167100000Y-109000000D02*
X168520000Y-109000000D01*
X166400000Y-108300000D02*
X167100000Y-109000000D01*
X166400000Y-107762500D02*
X166400000Y-108300000D01*
X168520000Y-109000000D02*
X168720000Y-109200000D01*
X168720000Y-109200000D02*
X168720000Y-110300000D01*
X168720000Y-111400000D02*
X168720000Y-110300000D01*
D80*
X173343000Y-110863000D02*
X173880000Y-111400000D01*
X172117000Y-110863000D02*
X173343000Y-110863000D01*
X171580000Y-111400000D02*
X172117000Y-110863000D01*
D78*
%TO.N,/VIN*%
X169780000Y-110400000D02*
X169680000Y-110300000D01*
X172800000Y-110400000D02*
X169780000Y-110400000D01*
X174700000Y-108500000D02*
X172800000Y-110400000D01*
X174700000Y-108400000D02*
X174700000Y-108500000D01*
D82*
%TO.N,/VUSB*%
X180900000Y-108400000D02*
X178700000Y-108400000D01*
D78*
%TO.N,GND*%
X174600000Y-112100000D02*
X174600000Y-113250000D01*
X173900000Y-111400000D02*
X174600000Y-112100000D01*
X173880000Y-111400000D02*
X173900000Y-111400000D01*
%TO.N,Net-(U1-D2)*%
X168012500Y-107100000D02*
X167350000Y-107762500D01*
X170920000Y-107100000D02*
X168012500Y-107100000D01*
X171100000Y-107280000D02*
X170920000Y-107100000D01*
X171100000Y-108100000D02*
X171100000Y-107280000D01*
%TO.N,GND*%
X172451500Y-108100000D02*
X172900000Y-107651500D01*
X172400000Y-108100000D02*
X172451500Y-108100000D01*
X172400000Y-108337500D02*
X172400000Y-108100000D01*
X171750000Y-108987500D02*
X172400000Y-108337500D01*
D79*
%TO.N,+3.3V*%
X172920000Y-112630000D02*
X172300000Y-113250000D01*
X172920000Y-111400000D02*
X172920000Y-112630000D01*
%TO.N,GND*%
X181020000Y-113680000D02*
X181100000Y-113600000D01*
X180000000Y-113680000D02*
X181020000Y-113680000D01*
X180000000Y-113680000D02*
X179155000Y-113680000D01*
X179155000Y-113680000D02*
X178650000Y-113175000D01*
%TO.N,/VUSB*%
X179778631Y-112720000D02*
X178700000Y-111641369D01*
X180000000Y-112720000D02*
X179778631Y-112720000D01*
X178700000Y-111641369D02*
X178700000Y-108400000D01*
X177166369Y-113175000D02*
X178700000Y-111641369D01*
X176750000Y-113175000D02*
X177166369Y-113175000D01*
D80*
%TO.N,Net-(Q1-D)*%
X176700000Y-110300000D02*
X177700000Y-111300000D01*
X176100000Y-107100000D02*
X176700000Y-107700000D01*
X176700000Y-107700000D02*
X176700000Y-110300000D01*
X171880000Y-107100000D02*
X176100000Y-107100000D01*
X171750000Y-107230000D02*
X171880000Y-107100000D01*
X171750000Y-108100000D02*
X171750000Y-107230000D01*
%TO.N,/BC_INT*%
X145400000Y-97500000D02*
X144100000Y-98800000D01*
X145400000Y-94700000D02*
X145400000Y-97500000D01*
X145500000Y-94600000D02*
X145400000Y-94700000D01*
X144100000Y-98800000D02*
X136100000Y-98800000D01*
%TO.N,/QON*%
X145800000Y-97900000D02*
X143300000Y-100400000D01*
X143300000Y-100400000D02*
X136100000Y-100400000D01*
X148000000Y-95000000D02*
X146379027Y-95000000D01*
X148300000Y-94700000D02*
X148000000Y-95000000D01*
X146379027Y-95000000D02*
X145800000Y-95579027D01*
X145800000Y-95579027D02*
X145800000Y-97900000D01*
X148300000Y-94300000D02*
X148300000Y-94700000D01*
%TO.N,/ESP_IO0*%
X136100000Y-99600000D02*
X137400000Y-99600000D01*
%TO.N,/SCL*%
X149100000Y-94300000D02*
X149100000Y-95480646D01*
X149100000Y-95480646D02*
X143380646Y-101200000D01*
D82*
%TO.N,/VUSB*%
X140725000Y-91725000D02*
X140400000Y-91400000D01*
X141500000Y-91725000D02*
X140725000Y-91725000D01*
%TO.N,GND*%
X140300000Y-92900000D02*
X139700000Y-92300000D01*
X140675000Y-93275000D02*
X140300000Y-92900000D01*
X141500000Y-93275000D02*
X140675000Y-93275000D01*
%TO.N,/VUSB*%
X142250000Y-115650000D02*
X141600000Y-116300000D01*
X142250000Y-114050000D02*
X142250000Y-115650000D01*
%TO.N,GND*%
X148300000Y-112500000D02*
X149400000Y-112500000D01*
X147700000Y-113100000D02*
X148300000Y-112500000D01*
X147700000Y-114050000D02*
X147700000Y-113100000D01*
X140900000Y-112500000D02*
X139700000Y-112500000D01*
X141500000Y-113100000D02*
X140900000Y-112500000D01*
X141500000Y-114050000D02*
X141500000Y-113100000D01*
D80*
X142800000Y-110220000D02*
X142800000Y-109100000D01*
X145900000Y-110220000D02*
X145900000Y-109200000D01*
D79*
%TO.N,Net-(J1-CC2)*%
X145850000Y-111230000D02*
X145900000Y-111180000D01*
X145850000Y-114050000D02*
X145850000Y-111230000D01*
%TO.N,Net-(J1-CC1)*%
X142850000Y-111230000D02*
X142800000Y-111180000D01*
X142850000Y-114050000D02*
X142850000Y-111230000D01*
D83*
%TO.N,GND*%
X166500000Y-92400000D02*
X167350000Y-92400000D01*
D80*
X151400000Y-96910000D02*
X150590000Y-96910000D01*
D79*
X161591617Y-102510000D02*
X161581617Y-102500000D01*
D83*
X165650000Y-92400000D02*
X166500000Y-92400000D01*
X162900000Y-92400000D02*
X163900000Y-92400000D01*
D81*
X153110000Y-93800000D02*
X153420000Y-94110000D01*
D83*
X163900000Y-92400000D02*
X164750000Y-92400000D01*
X161100000Y-91875000D02*
X162375000Y-91875000D01*
X164750000Y-92400000D02*
X165650000Y-92400000D01*
D82*
X144300000Y-92620000D02*
X143755000Y-92620000D01*
X145300000Y-92580000D02*
X144340000Y-92580000D01*
D83*
X159500000Y-91875000D02*
X161100000Y-91875000D01*
D81*
X153420000Y-94110000D02*
X154600000Y-94110000D01*
D80*
X150590000Y-96910000D02*
X150400000Y-97200000D01*
D83*
X165650000Y-91630000D02*
X165700000Y-91580000D01*
D79*
X162581617Y-102510000D02*
X161591617Y-102510000D01*
D82*
X143100000Y-93275000D02*
X141500000Y-93275000D01*
D83*
X173500000Y-92000000D02*
X179000000Y-92000000D01*
D79*
X146390000Y-95900000D02*
X146390000Y-96390000D01*
D83*
X172700000Y-91200000D02*
X173500000Y-92000000D01*
D82*
X144340000Y-92580000D02*
X144300000Y-92620000D01*
D83*
X162375000Y-91875000D02*
X162900000Y-92400000D01*
X165650000Y-92400000D02*
X165650000Y-91630000D01*
D80*
X151400000Y-96910000D02*
X152600000Y-96910000D01*
D82*
X143755000Y-92620000D02*
X143100000Y-93275000D01*
D81*
X154600000Y-94110000D02*
X155410000Y-94110000D01*
X155410000Y-94110000D02*
X155600000Y-94300000D01*
D79*
X146390000Y-96390000D02*
X146900000Y-96900000D01*
D78*
%TO.N,Net-(A1-CP1)*%
X169731617Y-96980000D02*
X170011617Y-96700000D01*
X169731617Y-98062500D02*
X169731617Y-96980000D01*
%TO.N,Net-(A1-CP2)*%
X169231617Y-98062500D02*
X169231617Y-96880000D01*
X169231617Y-96880000D02*
X169051617Y-96700000D01*
D79*
%TO.N,/VCP*%
X167981617Y-96529727D02*
X167981617Y-95980000D01*
X168731617Y-98062500D02*
X168731617Y-97279727D01*
X168731617Y-97279727D02*
X167981617Y-96529727D01*
%TO.N,Net-(A1-VREG)*%
X165481617Y-96180000D02*
X167734117Y-98432500D01*
X167734117Y-98432500D02*
X167734117Y-98500000D01*
D82*
%TO.N,/ROSC*%
X162581617Y-101490000D02*
X163671617Y-101490000D01*
D79*
X167696117Y-100902000D02*
X167794117Y-101000000D01*
X163681617Y-101400000D02*
X164179617Y-100902000D01*
D82*
X163671617Y-101490000D02*
X163681617Y-101480000D01*
D79*
X164179617Y-100902000D02*
X167696117Y-100902000D01*
X163681617Y-101480000D02*
X163681617Y-101400000D01*
%TO.N,Net-(A1-nSLEEP)*%
X167734117Y-101500000D02*
X164791617Y-101500000D01*
X164791617Y-101500000D02*
X164781617Y-101490000D01*
%TO.N,Net-(A1-VDD)*%
X167661617Y-104020000D02*
X168181617Y-103500000D01*
X168181617Y-102047500D02*
X168231617Y-101997500D01*
X168181617Y-103500000D02*
X168181617Y-102047500D01*
X167661617Y-104100000D02*
X167661617Y-104020000D01*
D80*
%TO.N,/STEP*%
X168731617Y-101937500D02*
X168731617Y-103950000D01*
X168731617Y-103950000D02*
X168581617Y-104100000D01*
D79*
%TO.N,/VREF*%
X169231617Y-104640000D02*
X168671617Y-105200000D01*
X169231617Y-101937500D02*
X169231617Y-104640000D01*
X167701617Y-105200000D02*
X168671617Y-105200000D01*
D80*
%TO.N,/DIR*%
X170231617Y-101937500D02*
X170231617Y-103350000D01*
X170231617Y-103350000D02*
X170081617Y-103500000D01*
D78*
%TO.N,/OUT1B*%
X171231617Y-101997500D02*
X171231617Y-104500000D01*
D83*
X180131617Y-103000000D02*
X178631617Y-104500000D01*
X178631617Y-104500000D02*
X171231617Y-104500000D01*
%TO.N,/OUT2B*%
X178831617Y-95300000D02*
X171231617Y-95300000D01*
X180131617Y-97000000D02*
X180131617Y-96600000D01*
X180131617Y-96600000D02*
X178831617Y-95300000D01*
D78*
X171231617Y-98002500D02*
X171231617Y-95300000D01*
D80*
%TO.N,/STAT*%
X146775000Y-90800000D02*
X145800000Y-90800000D01*
X145800000Y-90800000D02*
X145600000Y-90600000D01*
D81*
%TO.N,/BTST1*%
X146600000Y-92000000D02*
X146000000Y-92000000D01*
X146000000Y-92000000D02*
X145900000Y-92100000D01*
%TO.N,/REGN*%
X153320000Y-95000000D02*
X153020000Y-94700000D01*
X145861600Y-92812415D02*
X145861600Y-92938400D01*
D80*
X154300000Y-95400000D02*
X154820000Y-95920000D01*
X154820000Y-95920000D02*
X155100000Y-95920000D01*
X154300000Y-95400000D02*
X154300000Y-95000000D01*
X153810000Y-95890000D02*
X154300000Y-95400000D01*
D81*
X145861600Y-92938400D02*
X145220000Y-93580000D01*
X146600000Y-92400000D02*
X146274015Y-92400000D01*
D80*
X153800000Y-95890000D02*
X153810000Y-95890000D01*
D81*
X145220000Y-93580000D02*
X145200000Y-93600000D01*
X145200000Y-93600000D02*
X144300000Y-93580000D01*
X154300000Y-95000000D02*
X153320000Y-95000000D01*
X146274015Y-92400000D02*
X145861600Y-92812415D01*
D79*
%TO.N,/VAC*%
X146750000Y-93750000D02*
X146600000Y-93600000D01*
X146750000Y-94000000D02*
X146750000Y-93750000D01*
D80*
%TO.N,/CE*%
X147200000Y-95890000D02*
X147710000Y-95890000D01*
X148700000Y-94900000D02*
X148700000Y-94300000D01*
X147710000Y-95890000D02*
X148700000Y-94900000D01*
%TO.N,/TS*%
X151400000Y-95150000D02*
X151400000Y-95890000D01*
X152600000Y-95890000D02*
X151400000Y-95890000D01*
X150250000Y-94000000D02*
X151400000Y-95150000D01*
X153800000Y-96910000D02*
X153620000Y-96910000D01*
X153620000Y-96910000D02*
X152600000Y-95890000D01*
%TO.N,/ILIM_HIZ*%
X150691737Y-93600000D02*
X151890000Y-94798263D01*
X152090000Y-94900000D02*
X152090000Y-93800000D01*
D81*
X151900000Y-94800000D02*
X152000000Y-94700000D01*
D80*
X151890000Y-94798263D02*
X151890000Y-94800000D01*
X150350000Y-93600000D02*
X150691737Y-93600000D01*
%TO.N,/BATP*%
X158000000Y-92900000D02*
X158000000Y-91610000D01*
X157313000Y-93587000D02*
X158000000Y-92900000D01*
X153853000Y-93253000D02*
X154187000Y-93587000D01*
X151805055Y-93253000D02*
X153853000Y-93253000D01*
X151500000Y-93600000D02*
X151500000Y-93558055D01*
X150780312Y-93200000D02*
X151180312Y-93600000D01*
X150375000Y-93200000D02*
X150780312Y-93200000D01*
X151500000Y-93558055D02*
X151805055Y-93253000D01*
X154187000Y-93587000D02*
X157313000Y-93587000D01*
X151180312Y-93600000D02*
X151500000Y-93600000D01*
D81*
%TO.N,/BTST2*%
X151303778Y-93084241D02*
X151019537Y-92800000D01*
X151019537Y-92800000D02*
X150362500Y-92800000D01*
D80*
%TO.N,/PROG*%
X151258055Y-92400000D02*
X151758055Y-92900000D01*
X154410000Y-92900000D02*
X154600000Y-93090000D01*
X151758055Y-92900000D02*
X154410000Y-92900000D01*
X150400000Y-92400000D02*
X151258055Y-92400000D01*
%TO.N,/INT*%
X150400000Y-92000000D02*
X151690000Y-92000000D01*
X151690000Y-92000000D02*
X151890000Y-92200000D01*
D81*
%TO.N,/SDRV*%
X151400000Y-90500000D02*
X151100000Y-90800000D01*
X151100000Y-90800000D02*
X150225000Y-90800000D01*
D80*
X156680000Y-92800000D02*
X157100000Y-92380000D01*
X157100000Y-92380000D02*
X157100000Y-91000000D01*
D81*
X157000000Y-90900000D02*
X157100000Y-91000000D01*
X156487500Y-90900000D02*
X157000000Y-90900000D01*
D79*
%TO.N,+3.3V*%
X166701617Y-104100000D02*
X166701617Y-105180000D01*
X163691617Y-102510000D02*
X163681617Y-102500000D01*
X166701617Y-105180000D02*
X166681617Y-105200000D01*
X163681617Y-102500000D02*
X162681617Y-103500000D01*
X161700000Y-104900000D02*
X166381617Y-104900000D01*
X162681617Y-103500000D02*
X161681617Y-103500000D01*
X164781617Y-102510000D02*
X163691617Y-102510000D01*
X166381617Y-104900000D02*
X166681617Y-105200000D01*
D81*
%TO.N,Net-(D1-A)*%
X155232500Y-96880000D02*
X156600000Y-95512500D01*
X154900000Y-96880000D02*
X155232500Y-96880000D01*
D80*
%TO.N,/BC_INT*%
X152910000Y-92200000D02*
X153500000Y-92200000D01*
X153500000Y-92200000D02*
X153800000Y-91900000D01*
D79*
%TO.N,/D-*%
X133250000Y-94100000D02*
X133250000Y-95350000D01*
X143800000Y-116000000D02*
X143800000Y-114100000D01*
X143800000Y-114100000D02*
X143850000Y-114050000D01*
X133250000Y-95350000D02*
X133300000Y-95400000D01*
%TO.N,/D+*%
X131600000Y-95400000D02*
X131600000Y-94150000D01*
X144850000Y-116650000D02*
X144600000Y-116900000D01*
X144850000Y-114050000D02*
X144850000Y-116650000D01*
X131600000Y-94150000D02*
X131650000Y-94100000D01*
%TD*%
%TA.AperFunction,Conductor*%
%TO.N,/SW1*%
G36*
X148143039Y-90219685D02*
G01*
X148188794Y-90272489D01*
X148200000Y-90324000D01*
X148200000Y-92276000D01*
X148180315Y-92343039D01*
X148127511Y-92388794D01*
X148076000Y-92400000D01*
X147424000Y-92400000D01*
X147356961Y-92380315D01*
X147311206Y-92327511D01*
X147300000Y-92276000D01*
X147300000Y-91576636D01*
X147319685Y-91509597D01*
X147368543Y-91465728D01*
X147443341Y-91428329D01*
X147512103Y-91415955D01*
X147567682Y-91436136D01*
X147571769Y-91438867D01*
X147571773Y-91438868D01*
X147630247Y-91450499D01*
X147630250Y-91450500D01*
X147630252Y-91450500D01*
X147769750Y-91450500D01*
X147769751Y-91450499D01*
X147784568Y-91447552D01*
X147828229Y-91438868D01*
X147828229Y-91438867D01*
X147828231Y-91438867D01*
X147894552Y-91394552D01*
X147938867Y-91328231D01*
X147938867Y-91328229D01*
X147938868Y-91328229D01*
X147950499Y-91269752D01*
X147950500Y-91269750D01*
X147950500Y-90324160D01*
X147953390Y-90324160D01*
X147964016Y-90267673D01*
X148012005Y-90216891D01*
X148074484Y-90200000D01*
X148076000Y-90200000D01*
X148143039Y-90219685D01*
G37*
%TD.AperFunction*%
%TD*%
%TA.AperFunction,Conductor*%
%TO.N,/OUT1A*%
G36*
X178842856Y-100319685D02*
G01*
X178888611Y-100372489D01*
X178898555Y-100441647D01*
X178883204Y-100486000D01*
X178851472Y-100540960D01*
X178851469Y-100540967D01*
X178782761Y-100739482D01*
X178782761Y-100739484D01*
X178781249Y-100750000D01*
X179852057Y-100750000D01*
X179813339Y-100792059D01*
X179763066Y-100906670D01*
X179752731Y-101031395D01*
X179783454Y-101152719D01*
X179847011Y-101250000D01*
X178785359Y-101250000D01*
X178812387Y-101361409D01*
X178886862Y-101524489D01*
X178896805Y-101593648D01*
X178867780Y-101657203D01*
X178809001Y-101694977D01*
X178774067Y-101700000D01*
X177345624Y-101700000D01*
X177278585Y-101680315D01*
X177260483Y-101666150D01*
X177031600Y-101449983D01*
X176331618Y-100750001D01*
X176331617Y-100750000D01*
X176331616Y-100749999D01*
X176331615Y-100749999D01*
X172703776Y-100706811D01*
X172697664Y-100706436D01*
X172214337Y-100652734D01*
X172150059Y-100645592D01*
X172145766Y-100645235D01*
X172134619Y-100644619D01*
X172130324Y-100644500D01*
X171305617Y-100644500D01*
X171238578Y-100624815D01*
X171192823Y-100572011D01*
X171181617Y-100520500D01*
X171181617Y-100424000D01*
X171201302Y-100356961D01*
X171254106Y-100311206D01*
X171305617Y-100300000D01*
X178775817Y-100300000D01*
X178842856Y-100319685D01*
G37*
%TD.AperFunction*%
%TD*%
%TA.AperFunction,Conductor*%
%TO.N,/PMID*%
G36*
X141281953Y-87895778D02*
G01*
X141314364Y-87900500D01*
X141314367Y-87900500D01*
X141885633Y-87900500D01*
X141885636Y-87900500D01*
X141918046Y-87895778D01*
X141935922Y-87894483D01*
X142864078Y-87894483D01*
X142881953Y-87895778D01*
X142914364Y-87900500D01*
X142914367Y-87900500D01*
X143485633Y-87900500D01*
X143485636Y-87900500D01*
X143518046Y-87895778D01*
X143535922Y-87894483D01*
X144464078Y-87894483D01*
X144481953Y-87895778D01*
X144514364Y-87900500D01*
X144514367Y-87900500D01*
X145085633Y-87900500D01*
X145085636Y-87900500D01*
X145118046Y-87895778D01*
X145135922Y-87894483D01*
X145171982Y-87894483D01*
X145225294Y-87906528D01*
X147229312Y-88860822D01*
X147281376Y-88907417D01*
X147300000Y-88972777D01*
X147300000Y-89494483D01*
X147804105Y-90082605D01*
X147832787Y-90146313D01*
X147822472Y-90215418D01*
X147821734Y-90216982D01*
X147811196Y-90238923D01*
X147811196Y-90238924D01*
X147795979Y-90319816D01*
X147795011Y-90324066D01*
X147794981Y-90324297D01*
X147795000Y-90325599D01*
X147795000Y-91170999D01*
X147775315Y-91238038D01*
X147722511Y-91283793D01*
X147671000Y-91294999D01*
X147657775Y-91294999D01*
X147633569Y-91292613D01*
X147631082Y-91292118D01*
X147630551Y-91292013D01*
X147612442Y-91286954D01*
X147576266Y-91273819D01*
X147565175Y-91269792D01*
X147564773Y-91269647D01*
X147564772Y-91269646D01*
X147562134Y-91268695D01*
X147505757Y-91227422D01*
X147480656Y-91162359D01*
X147400000Y-90194483D01*
X147399999Y-90194483D01*
X147399160Y-90184414D01*
X147396857Y-90181117D01*
X147395652Y-90181923D01*
X147344552Y-90105447D01*
X147278230Y-90061132D01*
X147278229Y-90061131D01*
X147219752Y-90049500D01*
X147219748Y-90049500D01*
X147080252Y-90049500D01*
X147080247Y-90049500D01*
X147021770Y-90061131D01*
X147021769Y-90061132D01*
X146955447Y-90105447D01*
X146932779Y-90139374D01*
X146879167Y-90184179D01*
X146829677Y-90194483D01*
X145884925Y-90194483D01*
X145817889Y-90174800D01*
X145799561Y-90163022D01*
X145799557Y-90163020D01*
X145799556Y-90163020D01*
X145668368Y-90124500D01*
X145668367Y-90124500D01*
X145531633Y-90124500D01*
X145531632Y-90124500D01*
X145400443Y-90163020D01*
X145400440Y-90163021D01*
X145400439Y-90163022D01*
X145382110Y-90174800D01*
X145315075Y-90194483D01*
X143246592Y-90194483D01*
X143179553Y-90174798D01*
X143164938Y-90163803D01*
X142811889Y-89854886D01*
X142400000Y-89494483D01*
X142399999Y-89494483D01*
X140724000Y-89494483D01*
X140656961Y-89474798D01*
X140611206Y-89421994D01*
X140600000Y-89370483D01*
X140600000Y-88018483D01*
X140619685Y-87951444D01*
X140672489Y-87905689D01*
X140724000Y-87894483D01*
X141264078Y-87894483D01*
X141281953Y-87895778D01*
G37*
%TD.AperFunction*%
%TD*%
%TA.AperFunction,Conductor*%
%TO.N,GND*%
G36*
X177174656Y-96619685D02*
G01*
X177220411Y-96672489D01*
X177231617Y-96724000D01*
X177231617Y-98046550D01*
X177211932Y-98113589D01*
X177192758Y-98136700D01*
X176881616Y-98430555D01*
X176331617Y-98950000D01*
X174981617Y-98950000D01*
X174981617Y-97938412D01*
X175013763Y-97910558D01*
X175019238Y-97905580D01*
X175061133Y-97836850D01*
X175080818Y-97769811D01*
X175087117Y-97726000D01*
X175087117Y-96600000D01*
X176881617Y-96600000D01*
X177107617Y-96600000D01*
X177174656Y-96619685D01*
G37*
%TD.AperFunction*%
%TD*%
%TA.AperFunction,Conductor*%
%TO.N,/SW1*%
G36*
X147361301Y-83019685D02*
G01*
X147407056Y-83072489D01*
X147416705Y-83104409D01*
X147798443Y-85490268D01*
X147800000Y-85509859D01*
X147800000Y-87376000D01*
X147780315Y-87443039D01*
X147727511Y-87488794D01*
X147676000Y-87500000D01*
X147366363Y-87500000D01*
X147299324Y-87480315D01*
X147263189Y-87444783D01*
X145920826Y-85431239D01*
X145900018Y-85364540D01*
X145900000Y-85362456D01*
X145900000Y-83124000D01*
X145919685Y-83056961D01*
X145972489Y-83011206D01*
X146024000Y-83000000D01*
X147294262Y-83000000D01*
X147361301Y-83019685D01*
G37*
%TD.AperFunction*%
%TD*%
%TA.AperFunction,Conductor*%
%TO.N,/SW2*%
G36*
X148992555Y-90219685D02*
G01*
X149038310Y-90272489D01*
X149046881Y-90324160D01*
X149049500Y-90324160D01*
X149049500Y-91269752D01*
X149061131Y-91328229D01*
X149061132Y-91328230D01*
X149105447Y-91394552D01*
X149171769Y-91438867D01*
X149171770Y-91438868D01*
X149230247Y-91450499D01*
X149230250Y-91450500D01*
X149230252Y-91450500D01*
X149369750Y-91450500D01*
X149369751Y-91450499D01*
X149398989Y-91444683D01*
X149428227Y-91438868D01*
X149428227Y-91438867D01*
X149428231Y-91438867D01*
X149432315Y-91436138D01*
X149498989Y-91415259D01*
X149556658Y-91428329D01*
X149631456Y-91465728D01*
X149682614Y-91513315D01*
X149700000Y-91576636D01*
X149700000Y-92276000D01*
X149680315Y-92343039D01*
X149627511Y-92388794D01*
X149576000Y-92400000D01*
X148924000Y-92400000D01*
X148856961Y-92380315D01*
X148811206Y-92327511D01*
X148800000Y-92276000D01*
X148800000Y-90324000D01*
X148819685Y-90256961D01*
X148872489Y-90211206D01*
X148924000Y-90200000D01*
X148925516Y-90200000D01*
X148992555Y-90219685D01*
G37*
%TD.AperFunction*%
%TD*%
%TA.AperFunction,Conductor*%
%TO.N,/VSYS*%
G36*
X162043039Y-85619685D02*
G01*
X162088794Y-85672489D01*
X162100000Y-85724000D01*
X162100000Y-89376000D01*
X162080315Y-89443039D01*
X162027511Y-89488794D01*
X161976000Y-89500000D01*
X154600000Y-89500000D01*
X154203095Y-89847290D01*
X154139681Y-89876621D01*
X154130276Y-89877655D01*
X151843688Y-90040982D01*
X151843689Y-90040982D01*
X151833767Y-90042336D01*
X151797715Y-90049640D01*
X151739001Y-90074947D01*
X151738993Y-90074951D01*
X151681892Y-90115204D01*
X151675942Y-90119613D01*
X151673259Y-90122272D01*
X151669939Y-90124064D01*
X151668821Y-90124893D01*
X151668701Y-90124732D01*
X151611776Y-90155462D01*
X151542109Y-90150142D01*
X151529707Y-90144655D01*
X151529246Y-90144420D01*
X151517482Y-90138426D01*
X151517480Y-90138425D01*
X151517477Y-90138424D01*
X151400003Y-90119819D01*
X151399997Y-90119819D01*
X151282522Y-90138424D01*
X151282521Y-90138424D01*
X151249083Y-90155462D01*
X151188195Y-90186485D01*
X151131903Y-90200000D01*
X150174009Y-90200000D01*
X150106970Y-90180315D01*
X150070908Y-90144892D01*
X150044552Y-90105448D01*
X150018177Y-90087824D01*
X149978230Y-90061132D01*
X149978229Y-90061131D01*
X149919752Y-90049500D01*
X149919748Y-90049500D01*
X149780252Y-90049500D01*
X149780247Y-90049500D01*
X149721770Y-90061131D01*
X149721769Y-90061132D01*
X149655447Y-90105447D01*
X149611133Y-90171769D01*
X149609562Y-90175562D01*
X149601017Y-90187791D01*
X149519589Y-91164918D01*
X149494405Y-91230091D01*
X149437983Y-91271303D01*
X149433073Y-91272954D01*
X149380207Y-91289508D01*
X149373782Y-91291149D01*
X149368339Y-91292233D01*
X149366432Y-91292612D01*
X149342222Y-91294999D01*
X149329000Y-91294999D01*
X149261961Y-91275314D01*
X149216206Y-91222510D01*
X149205000Y-91170999D01*
X149205000Y-90331915D01*
X149205704Y-90329514D01*
X149205000Y-90324164D01*
X149205000Y-90324160D01*
X149204483Y-90322231D01*
X149203209Y-90316341D01*
X149191714Y-90247043D01*
X149191000Y-90243060D01*
X149184778Y-90230252D01*
X149180261Y-90220954D01*
X149168674Y-90152054D01*
X149196176Y-90087824D01*
X149197547Y-90086194D01*
X149700000Y-89500000D01*
X149700000Y-88978293D01*
X149719685Y-88911255D01*
X149770688Y-88866339D01*
X151774706Y-87912045D01*
X151828018Y-87900000D01*
X151982278Y-87900000D01*
X152036737Y-87912598D01*
X152041375Y-87914866D01*
X152114364Y-87925500D01*
X152114370Y-87925500D01*
X152685630Y-87925500D01*
X152685636Y-87925500D01*
X152758625Y-87914866D01*
X152763262Y-87912598D01*
X152817722Y-87900000D01*
X153482278Y-87900000D01*
X153536737Y-87912598D01*
X153541375Y-87914866D01*
X153614364Y-87925500D01*
X153614370Y-87925500D01*
X154185630Y-87925500D01*
X154185636Y-87925500D01*
X154258625Y-87914866D01*
X154263262Y-87912598D01*
X154317722Y-87900000D01*
X154982278Y-87900000D01*
X155036737Y-87912598D01*
X155041375Y-87914866D01*
X155114364Y-87925500D01*
X155114370Y-87925500D01*
X155685630Y-87925500D01*
X155685636Y-87925500D01*
X155758625Y-87914866D01*
X155763262Y-87912598D01*
X155817722Y-87900000D01*
X156482278Y-87900000D01*
X156536737Y-87912598D01*
X156541375Y-87914866D01*
X156614364Y-87925500D01*
X156614370Y-87925500D01*
X157185630Y-87925500D01*
X157185636Y-87925500D01*
X157258625Y-87914866D01*
X157263262Y-87912598D01*
X157317722Y-87900000D01*
X157982278Y-87900000D01*
X158036737Y-87912598D01*
X158041375Y-87914866D01*
X158114364Y-87925500D01*
X158114370Y-87925500D01*
X158685630Y-87925500D01*
X158685636Y-87925500D01*
X158758625Y-87914866D01*
X158763262Y-87912598D01*
X158817722Y-87900000D01*
X159600000Y-87900000D01*
X160273249Y-85687896D01*
X160311600Y-85629492D01*
X160375439Y-85601094D01*
X160391877Y-85600000D01*
X161976000Y-85600000D01*
X162043039Y-85619685D01*
G37*
%TD.AperFunction*%
%TD*%
%TA.AperFunction,Conductor*%
%TO.N,/BAT+*%
G36*
X172103106Y-101358265D02*
G01*
X174031617Y-102100000D01*
X174803389Y-102100000D01*
X174870428Y-102119685D01*
X174916183Y-102172489D01*
X174926127Y-102241647D01*
X174922367Y-102258933D01*
X174920685Y-102264658D01*
X174901227Y-102400000D01*
X174920685Y-102535338D01*
X174923184Y-102543847D01*
X174922439Y-102544065D01*
X174931617Y-102586251D01*
X174931617Y-103676000D01*
X174911932Y-103743039D01*
X174859128Y-103788794D01*
X174807617Y-103800000D01*
X171656117Y-103800000D01*
X171589078Y-103780315D01*
X171543323Y-103727511D01*
X171532117Y-103676000D01*
X171532117Y-101969656D01*
X171532116Y-101969651D01*
X171514567Y-101875774D01*
X171515446Y-101875609D01*
X171510065Y-101846818D01*
X171510065Y-101829492D01*
X171512446Y-101805307D01*
X171513774Y-101798630D01*
X171502090Y-101739909D01*
X171494127Y-101720689D01*
X171487829Y-101705483D01*
X171487822Y-101705464D01*
X171454554Y-101655685D01*
X171454552Y-101655683D01*
X171448914Y-101651917D01*
X171430114Y-101636490D01*
X171355306Y-101561681D01*
X171321822Y-101500357D01*
X171326807Y-101430666D01*
X171368678Y-101374732D01*
X171434143Y-101350316D01*
X171442988Y-101350000D01*
X172058593Y-101350000D01*
X172103106Y-101358265D01*
G37*
%TD.AperFunction*%
%TD*%
%TA.AperFunction,Conductor*%
%TO.N,/SW2*%
G36*
X151043039Y-83019685D02*
G01*
X151088794Y-83072489D01*
X151100000Y-83124000D01*
X151100000Y-85362456D01*
X151080315Y-85429495D01*
X151079174Y-85431239D01*
X149736811Y-87444783D01*
X149683246Y-87489644D01*
X149633637Y-87500000D01*
X149324000Y-87500000D01*
X149256961Y-87480315D01*
X149211206Y-87427511D01*
X149200000Y-87376000D01*
X149200000Y-85509859D01*
X149201557Y-85490268D01*
X149583295Y-83104409D01*
X149613324Y-83041322D01*
X149672694Y-83004484D01*
X149705738Y-83000000D01*
X150976000Y-83000000D01*
X151043039Y-83019685D01*
G37*
%TD.AperFunction*%
%TD*%
%TA.AperFunction,Conductor*%
%TO.N,/BAT+*%
G36*
X173669000Y-83709802D02*
G01*
X177899997Y-85499999D01*
X177899999Y-85500000D01*
X177900000Y-85500000D01*
X180726000Y-85500000D01*
X180793039Y-85519685D01*
X180838794Y-85572489D01*
X180850000Y-85624000D01*
X180850000Y-88676000D01*
X180830315Y-88743039D01*
X180777511Y-88788794D01*
X180726000Y-88800000D01*
X180355800Y-88800000D01*
X180288761Y-88780315D01*
X180243006Y-88727511D01*
X180233062Y-88658353D01*
X180248413Y-88614000D01*
X180280144Y-88559039D01*
X180280147Y-88559032D01*
X180348855Y-88360517D01*
X180348855Y-88360515D01*
X180350368Y-88350000D01*
X179279560Y-88350000D01*
X179318278Y-88307941D01*
X179368551Y-88193330D01*
X179378886Y-88068605D01*
X179348163Y-87947281D01*
X179284606Y-87850000D01*
X180346257Y-87850000D01*
X180319229Y-87738590D01*
X180231959Y-87547492D01*
X180110110Y-87376380D01*
X180110104Y-87376374D01*
X179958067Y-87231407D01*
X179781342Y-87117833D01*
X179586314Y-87039755D01*
X179380038Y-87000000D01*
X179250000Y-87000000D01*
X179250000Y-87819382D01*
X179180948Y-87765637D01*
X179062576Y-87725000D01*
X178968927Y-87725000D01*
X178876554Y-87740414D01*
X178766486Y-87799981D01*
X178750000Y-87817889D01*
X178750000Y-87000000D01*
X178672602Y-87000000D01*
X178515877Y-87014965D01*
X178515873Y-87014966D01*
X178314313Y-87074149D01*
X178127585Y-87170413D01*
X177962462Y-87300268D01*
X177962459Y-87300271D01*
X177824894Y-87459030D01*
X177824885Y-87459041D01*
X177719855Y-87640960D01*
X177719852Y-87640967D01*
X177651144Y-87839482D01*
X177651144Y-87839484D01*
X177649632Y-87850000D01*
X178720440Y-87850000D01*
X178681722Y-87892059D01*
X178631449Y-88006670D01*
X178621114Y-88131395D01*
X178651837Y-88252719D01*
X178715394Y-88350000D01*
X177653742Y-88350000D01*
X177680770Y-88461409D01*
X177768039Y-88652504D01*
X177779106Y-88668045D01*
X177801958Y-88734072D01*
X177785487Y-88801972D01*
X177734920Y-88850188D01*
X177703222Y-88861401D01*
X173782583Y-89672568D01*
X173712946Y-89666875D01*
X173657441Y-89624436D01*
X173640361Y-89583429D01*
X173638663Y-89583981D01*
X173635647Y-89574699D01*
X173635646Y-89574697D01*
X173635646Y-89574696D01*
X173578050Y-89461658D01*
X173578046Y-89461654D01*
X173578045Y-89461652D01*
X173488347Y-89371954D01*
X173488344Y-89371952D01*
X173488342Y-89371950D01*
X173388762Y-89321211D01*
X173375301Y-89314352D01*
X173281524Y-89299500D01*
X172118482Y-89299500D01*
X172037519Y-89312323D01*
X172024696Y-89314354D01*
X171911658Y-89371950D01*
X171911657Y-89371950D01*
X171911657Y-89371951D01*
X171911652Y-89371954D01*
X171821954Y-89461652D01*
X171821951Y-89461657D01*
X171821950Y-89461658D01*
X171818363Y-89468698D01*
X171764352Y-89574698D01*
X171749500Y-89668475D01*
X171749500Y-89992235D01*
X171729815Y-90059274D01*
X171677011Y-90105029D01*
X171650623Y-90113663D01*
X167862431Y-90897428D01*
X167837308Y-90900000D01*
X161600000Y-90900000D01*
X157546469Y-90900000D01*
X157479430Y-90880315D01*
X157435985Y-90832296D01*
X157424028Y-90808831D01*
X157407573Y-90776535D01*
X157407570Y-90776532D01*
X157407568Y-90776529D01*
X157323470Y-90692431D01*
X157323466Y-90692428D01*
X157323465Y-90692427D01*
X157217482Y-90638426D01*
X157217480Y-90638425D01*
X157217477Y-90638424D01*
X157100003Y-90619819D01*
X157099997Y-90619819D01*
X156982519Y-90638425D01*
X156973234Y-90641442D01*
X156972351Y-90638724D01*
X156934154Y-90647900D01*
X156838950Y-90647900D01*
X156771911Y-90628215D01*
X156765915Y-90623383D01*
X156676551Y-90563671D01*
X156676547Y-90563670D01*
X156605308Y-90549500D01*
X156374500Y-90549500D01*
X156307461Y-90529815D01*
X156261706Y-90477011D01*
X156250500Y-90425500D01*
X156250500Y-90085177D01*
X156241768Y-90041282D01*
X156241767Y-90041279D01*
X156241767Y-90041278D01*
X156220896Y-90010043D01*
X156200020Y-89943366D01*
X156200000Y-89941154D01*
X156200000Y-89824000D01*
X156219685Y-89756961D01*
X156272489Y-89711206D01*
X156324000Y-89700000D01*
X166100000Y-89700000D01*
X168900000Y-89000000D01*
X171764719Y-83764478D01*
X171814168Y-83715116D01*
X171873500Y-83700000D01*
X173620681Y-83700000D01*
X173669000Y-83709802D01*
G37*
%TD.AperFunction*%
%TD*%
%TA.AperFunction,Conductor*%
%TO.N,Net-(A1-SENSE1)*%
G36*
X172135028Y-100800379D02*
G01*
X174721312Y-101087743D01*
X174785766Y-101114711D01*
X174825410Y-101172245D01*
X174831617Y-101210985D01*
X174831617Y-101812041D01*
X174811932Y-101879080D01*
X174759128Y-101924835D01*
X174689970Y-101934779D01*
X174672684Y-101931019D01*
X174650481Y-101924500D01*
X174513747Y-101924500D01*
X174513746Y-101924500D01*
X174462740Y-101939477D01*
X174427805Y-101944500D01*
X174083513Y-101944500D01*
X174039000Y-101936235D01*
X173555436Y-101750249D01*
X172158927Y-101213130D01*
X172158925Y-101213129D01*
X172158924Y-101213129D01*
X172131481Y-101205374D01*
X172087004Y-101197116D01*
X172086974Y-101197112D01*
X172058601Y-101194500D01*
X172058593Y-101194500D01*
X171440211Y-101194500D01*
X171428590Y-101194915D01*
X171379804Y-101204618D01*
X171348948Y-101216127D01*
X171279257Y-101221110D01*
X171217934Y-101187624D01*
X171184450Y-101126300D01*
X171181617Y-101099944D01*
X171181617Y-100924000D01*
X171201302Y-100856961D01*
X171254106Y-100811206D01*
X171305617Y-100800000D01*
X172128176Y-100800000D01*
X172135028Y-100800379D01*
G37*
%TD.AperFunction*%
%TD*%
%TA.AperFunction,Conductor*%
%TO.N,GND*%
G36*
X170607308Y-102517379D02*
G01*
X170629533Y-102521799D01*
X170648134Y-102525499D01*
X170648136Y-102525500D01*
X170807117Y-102525500D01*
X170874156Y-102545185D01*
X170919911Y-102597989D01*
X170931117Y-102649500D01*
X170931117Y-103851082D01*
X170911432Y-103918121D01*
X170880002Y-103951400D01*
X170782782Y-104022034D01*
X170782779Y-104022037D01*
X170678017Y-104148673D01*
X170608037Y-104297387D01*
X170588450Y-104400069D01*
X170577241Y-104458830D01*
X170577241Y-104458832D01*
X170577241Y-104458833D01*
X170587561Y-104622860D01*
X170638349Y-104779171D01*
X170638351Y-104779175D01*
X170726415Y-104917940D01*
X170846220Y-105030445D01*
X170846228Y-105030451D01*
X170926477Y-105074568D01*
X170990249Y-105109627D01*
X171149440Y-105150500D01*
X171149444Y-105150500D01*
X176757617Y-105150500D01*
X176824656Y-105170185D01*
X176870411Y-105222989D01*
X176881617Y-105274500D01*
X176881617Y-106376000D01*
X176861932Y-106443039D01*
X176809128Y-106488794D01*
X176757617Y-106500000D01*
X162605617Y-106500000D01*
X162538578Y-106480315D01*
X162492823Y-106427511D01*
X162481617Y-106376000D01*
X162481617Y-105301500D01*
X162501302Y-105234461D01*
X162554106Y-105188706D01*
X162605617Y-105177500D01*
X166137117Y-105177500D01*
X166204156Y-105197185D01*
X166249911Y-105249989D01*
X166261117Y-105301499D01*
X166261117Y-105427614D01*
X166261119Y-105427638D01*
X166263886Y-105451495D01*
X166263886Y-105451498D01*
X166306997Y-105549135D01*
X166307000Y-105549139D01*
X166307001Y-105549141D01*
X166382476Y-105624616D01*
X166382479Y-105624617D01*
X166382480Y-105624618D01*
X166480116Y-105667729D01*
X166480117Y-105667729D01*
X166480119Y-105667730D01*
X166503994Y-105670500D01*
X166859239Y-105670499D01*
X166883115Y-105667730D01*
X166980752Y-105624619D01*
X166980753Y-105624618D01*
X166980758Y-105624616D01*
X167056233Y-105549141D01*
X167078182Y-105499430D01*
X167123268Y-105446054D01*
X167190055Y-105425526D01*
X167257337Y-105444364D01*
X167303753Y-105496587D01*
X167305051Y-105499430D01*
X167323638Y-105541526D01*
X167327001Y-105549141D01*
X167402476Y-105624616D01*
X167402479Y-105624617D01*
X167402480Y-105624618D01*
X167500116Y-105667729D01*
X167500117Y-105667729D01*
X167500119Y-105667730D01*
X167523994Y-105670500D01*
X167879239Y-105670499D01*
X167903115Y-105667730D01*
X168000752Y-105624619D01*
X168000753Y-105624618D01*
X168000758Y-105624616D01*
X168076233Y-105549141D01*
X168076235Y-105549134D01*
X168082727Y-105539660D01*
X168085451Y-105541526D01*
X168118261Y-105502678D01*
X168185045Y-105482145D01*
X168252329Y-105500978D01*
X168288149Y-105541274D01*
X168290507Y-105539660D01*
X168296999Y-105549138D01*
X168297001Y-105549141D01*
X168372476Y-105624616D01*
X168372479Y-105624617D01*
X168372480Y-105624618D01*
X168470116Y-105667729D01*
X168470117Y-105667729D01*
X168470119Y-105667730D01*
X168493994Y-105670500D01*
X168849239Y-105670499D01*
X168873115Y-105667730D01*
X168970752Y-105624619D01*
X168970753Y-105624618D01*
X168970758Y-105624616D01*
X169046233Y-105549141D01*
X169089347Y-105451498D01*
X169092117Y-105427623D01*
X169092116Y-105223306D01*
X169111800Y-105156267D01*
X169128430Y-105135630D01*
X169386576Y-104877484D01*
X169393058Y-104871844D01*
X169401740Y-104865288D01*
X169401745Y-104865286D01*
X169431432Y-104832719D01*
X169433340Y-104830720D01*
X169446023Y-104818039D01*
X169447241Y-104816259D01*
X169452571Y-104809530D01*
X169471639Y-104788615D01*
X169473549Y-104783684D01*
X169486876Y-104758399D01*
X169489870Y-104754029D01*
X169496350Y-104726472D01*
X169498889Y-104718271D01*
X169509117Y-104691874D01*
X169509117Y-104686579D01*
X169512411Y-104658188D01*
X169513623Y-104653037D01*
X169509711Y-104624998D01*
X169509117Y-104616424D01*
X169509117Y-103897865D01*
X169528802Y-103830826D01*
X169581606Y-103785071D01*
X169650764Y-103775127D01*
X169714320Y-103804152D01*
X169726820Y-103816652D01*
X169767028Y-103863055D01*
X169767031Y-103863057D01*
X169767030Y-103863057D01*
X169809536Y-103890373D01*
X169882056Y-103936978D01*
X169905600Y-103943891D01*
X170013249Y-103975500D01*
X170013250Y-103975500D01*
X170149984Y-103975500D01*
X170281178Y-103936978D01*
X170396206Y-103863055D01*
X170485747Y-103759718D01*
X170542548Y-103635342D01*
X170562007Y-103500000D01*
X170542548Y-103364658D01*
X170485747Y-103240282D01*
X170485744Y-103240278D01*
X170480950Y-103232817D01*
X170483359Y-103231268D01*
X170460378Y-103180935D01*
X170459117Y-103163299D01*
X170459117Y-102638996D01*
X170478802Y-102571957D01*
X170531606Y-102526202D01*
X170600764Y-102516258D01*
X170607308Y-102517379D01*
G37*
%TD.AperFunction*%
%TA.AperFunction,Conductor*%
G36*
X167390183Y-101779882D02*
G01*
X167401610Y-101782156D01*
X167408282Y-101780829D01*
X167432466Y-101778448D01*
X167803278Y-101778448D01*
X167870317Y-101798133D01*
X167916072Y-101850937D01*
X167926016Y-101920095D01*
X167923983Y-101930845D01*
X167916883Y-101961023D01*
X167914342Y-101969230D01*
X167904117Y-101995625D01*
X167904117Y-102000922D01*
X167900823Y-102029312D01*
X167899612Y-102034458D01*
X167899612Y-102034462D01*
X167903522Y-102062491D01*
X167904117Y-102071066D01*
X167904117Y-103333693D01*
X167884432Y-103400732D01*
X167867798Y-103421374D01*
X167685990Y-103603181D01*
X167624667Y-103636666D01*
X167598310Y-103639500D01*
X167478252Y-103639500D01*
X167478228Y-103639502D01*
X167453957Y-103642317D01*
X167453954Y-103642318D01*
X167354601Y-103686186D01*
X167354600Y-103686187D01*
X167269679Y-103771109D01*
X167266703Y-103768133D01*
X167229631Y-103798310D01*
X167160200Y-103806121D01*
X167097567Y-103775153D01*
X167093832Y-103770831D01*
X167093555Y-103771109D01*
X167008633Y-103686187D01*
X166909280Y-103642318D01*
X166884990Y-103639500D01*
X166518251Y-103639500D01*
X166518228Y-103639502D01*
X166493957Y-103642317D01*
X166493954Y-103642318D01*
X166394601Y-103686186D01*
X166317804Y-103762983D01*
X166273935Y-103862335D01*
X166273935Y-103862337D01*
X166271117Y-103886625D01*
X166271117Y-104313365D01*
X166271119Y-104313388D01*
X166273934Y-104337659D01*
X166273935Y-104337662D01*
X166322445Y-104447527D01*
X166318681Y-104449188D01*
X166333564Y-104494818D01*
X166315879Y-104562412D01*
X166264457Y-104609715D01*
X166209619Y-104622500D01*
X162605617Y-104622500D01*
X162538578Y-104602815D01*
X162492823Y-104550011D01*
X162481617Y-104498500D01*
X162481617Y-103901500D01*
X162501302Y-103834461D01*
X162554106Y-103788706D01*
X162605617Y-103777500D01*
X162623249Y-103777500D01*
X162631823Y-103778095D01*
X162642610Y-103779599D01*
X162642610Y-103779598D01*
X162642614Y-103779600D01*
X162681465Y-103777803D01*
X162686607Y-103777566D01*
X162689470Y-103777500D01*
X162707328Y-103777500D01*
X162707332Y-103777500D01*
X162709438Y-103777106D01*
X162717970Y-103776115D01*
X162746252Y-103774808D01*
X162751087Y-103772672D01*
X162778398Y-103764214D01*
X162783598Y-103763243D01*
X162807672Y-103748336D01*
X162815244Y-103744344D01*
X162841159Y-103732903D01*
X162844896Y-103729165D01*
X162867313Y-103711408D01*
X162871806Y-103708627D01*
X162888867Y-103686033D01*
X162894497Y-103679563D01*
X163617243Y-102956818D01*
X163678566Y-102923333D01*
X163704924Y-102920499D01*
X163909233Y-102920499D01*
X163909239Y-102920499D01*
X163933115Y-102917730D01*
X164030752Y-102874619D01*
X164030753Y-102874618D01*
X164030758Y-102874616D01*
X164081555Y-102823818D01*
X164142878Y-102790334D01*
X164169236Y-102787500D01*
X164283997Y-102787500D01*
X164351036Y-102807185D01*
X164371678Y-102823818D01*
X164432476Y-102884616D01*
X164432479Y-102884617D01*
X164432480Y-102884618D01*
X164530116Y-102927729D01*
X164530117Y-102927729D01*
X164530119Y-102927730D01*
X164553994Y-102930500D01*
X165009239Y-102930499D01*
X165033115Y-102927730D01*
X165130752Y-102884619D01*
X165130753Y-102884618D01*
X165130758Y-102884616D01*
X165206233Y-102809141D01*
X165249347Y-102711498D01*
X165252117Y-102687623D01*
X165252116Y-102332378D01*
X165249347Y-102308502D01*
X165249347Y-102308501D01*
X165206236Y-102210864D01*
X165206234Y-102210861D01*
X165206233Y-102210859D01*
X165130758Y-102135384D01*
X165107204Y-102124984D01*
X165081045Y-102113433D01*
X165027670Y-102068346D01*
X165007143Y-102001560D01*
X165025982Y-101934278D01*
X165078206Y-101887862D01*
X165080961Y-101886603D01*
X165130758Y-101864616D01*
X165181555Y-101813819D01*
X165242878Y-101780334D01*
X165269236Y-101777500D01*
X167365990Y-101777500D01*
X167390183Y-101779882D01*
G37*
%TD.AperFunction*%
%TA.AperFunction,Conductor*%
G36*
X176881617Y-103725500D02*
G01*
X176861932Y-103792539D01*
X176809128Y-103838294D01*
X176757617Y-103849500D01*
X175205275Y-103849500D01*
X175138236Y-103829815D01*
X175092481Y-103777011D01*
X175082537Y-103707853D01*
X175087117Y-103676000D01*
X175087117Y-103400000D01*
X176881617Y-103400000D01*
X176881617Y-103725500D01*
G37*
%TD.AperFunction*%
%TA.AperFunction,Conductor*%
G36*
X170444029Y-97115738D02*
G01*
X170491332Y-97167160D01*
X170504117Y-97221998D01*
X170504117Y-97513433D01*
X170484432Y-97580472D01*
X170483220Y-97582322D01*
X170468474Y-97604390D01*
X170468474Y-97604391D01*
X170456117Y-97666515D01*
X170456117Y-98458484D01*
X170468474Y-98520609D01*
X170490541Y-98553633D01*
X170515552Y-98591065D01*
X170551872Y-98615333D01*
X170586007Y-98638142D01*
X170648132Y-98650499D01*
X170648136Y-98650500D01*
X170648137Y-98650500D01*
X170815098Y-98650500D01*
X170815098Y-98650499D01*
X170867477Y-98640081D01*
X170937069Y-98646308D01*
X170992246Y-98689171D01*
X171015491Y-98755060D01*
X171010646Y-98796634D01*
X170991295Y-98862534D01*
X170991293Y-98862544D01*
X170984996Y-98906343D01*
X170984996Y-98906346D01*
X170984996Y-98906347D01*
X170984996Y-99100751D01*
X170984996Y-99100758D01*
X170984997Y-99100759D01*
X170990354Y-99141221D01*
X170990355Y-99141225D01*
X171007150Y-99203536D01*
X171008220Y-99207319D01*
X171047441Y-99271237D01*
X171065725Y-99338672D01*
X171055151Y-99386255D01*
X171052102Y-99393147D01*
X171032416Y-99460187D01*
X171032414Y-99460197D01*
X171026117Y-99503996D01*
X171026117Y-99576008D01*
X171029671Y-99609055D01*
X171040877Y-99660566D01*
X171075303Y-99729342D01*
X171079615Y-99735795D01*
X171077547Y-99737176D01*
X171101507Y-99789648D01*
X171094903Y-99842223D01*
X171095857Y-99842413D01*
X171081117Y-99916515D01*
X171081117Y-100083484D01*
X171093474Y-100145607D01*
X171093949Y-100146754D01*
X171094238Y-100149452D01*
X171095857Y-100157587D01*
X171095128Y-100157731D01*
X171101414Y-100216224D01*
X171085266Y-100258739D01*
X171052102Y-100313147D01*
X171052100Y-100313151D01*
X171032416Y-100380187D01*
X171032414Y-100380197D01*
X171026117Y-100423996D01*
X171026117Y-100520508D01*
X171029671Y-100553555D01*
X171040877Y-100605066D01*
X171072392Y-100668026D01*
X171084797Y-100736786D01*
X171067390Y-100788067D01*
X171060124Y-100799989D01*
X171052100Y-100813152D01*
X171032416Y-100880187D01*
X171032414Y-100880197D01*
X171026117Y-100923996D01*
X171026117Y-101104108D01*
X171026563Y-101112425D01*
X171026563Y-101112427D01*
X171029840Y-101142916D01*
X171029841Y-101142922D01*
X171047972Y-101200828D01*
X171048898Y-101203008D01*
X171049041Y-101204243D01*
X171049790Y-101206633D01*
X171049336Y-101206774D01*
X171056982Y-101272408D01*
X171026262Y-101335162D01*
X170966491Y-101371345D01*
X170896646Y-101369470D01*
X170887312Y-101366035D01*
X170877225Y-101361857D01*
X170815101Y-101349500D01*
X170815097Y-101349500D01*
X170648137Y-101349500D01*
X170648132Y-101349500D01*
X170586007Y-101361857D01*
X170550508Y-101385578D01*
X170483831Y-101406456D01*
X170416451Y-101387972D01*
X170412726Y-101385578D01*
X170377226Y-101361857D01*
X170315101Y-101349500D01*
X170315097Y-101349500D01*
X170148137Y-101349500D01*
X170148132Y-101349500D01*
X170086007Y-101361857D01*
X170015552Y-101408935D01*
X169968474Y-101479390D01*
X169956117Y-101541515D01*
X169956117Y-102333484D01*
X169968473Y-102395606D01*
X169968474Y-102395607D01*
X169968474Y-102395608D01*
X169968475Y-102395609D01*
X169983219Y-102417675D01*
X170004097Y-102484351D01*
X170004117Y-102486565D01*
X170004117Y-102934356D01*
X169984432Y-103001395D01*
X169931628Y-103047150D01*
X169915055Y-103053332D01*
X169882060Y-103063020D01*
X169882051Y-103063025D01*
X169767030Y-103136942D01*
X169767030Y-103136943D01*
X169767028Y-103136944D01*
X169767028Y-103136945D01*
X169744193Y-103163299D01*
X169726830Y-103183337D01*
X169668052Y-103221111D01*
X169598182Y-103221111D01*
X169539404Y-103183337D01*
X169510379Y-103119781D01*
X169509117Y-103102134D01*
X169509117Y-101911785D01*
X169508588Y-101906077D01*
X169508643Y-101906071D01*
X169507117Y-101889595D01*
X169507117Y-101541519D01*
X169507116Y-101541515D01*
X169494759Y-101479390D01*
X169468111Y-101439510D01*
X169447682Y-101408935D01*
X169412726Y-101385578D01*
X169377226Y-101361857D01*
X169315101Y-101349500D01*
X169315097Y-101349500D01*
X169148137Y-101349500D01*
X169148132Y-101349500D01*
X169086007Y-101361857D01*
X169050508Y-101385578D01*
X168983831Y-101406456D01*
X168916451Y-101387972D01*
X168912726Y-101385578D01*
X168877226Y-101361857D01*
X168815101Y-101349500D01*
X168815097Y-101349500D01*
X168648137Y-101349500D01*
X168648132Y-101349500D01*
X168586007Y-101361857D01*
X168515552Y-101408935D01*
X168505731Y-101423633D01*
X168452118Y-101468437D01*
X168382792Y-101477143D01*
X168376323Y-101475644D01*
X168376310Y-101475712D01*
X168357139Y-101471898D01*
X168295229Y-101439510D01*
X168260657Y-101378794D01*
X168259722Y-101374497D01*
X168257093Y-101361279D01*
X168257092Y-101361277D01*
X168255904Y-101355302D01*
X168258130Y-101354859D01*
X168257585Y-101295139D01*
X168294821Y-101236018D01*
X168307976Y-101225890D01*
X168322682Y-101216065D01*
X168369759Y-101145609D01*
X168382117Y-101083480D01*
X168382117Y-100916520D01*
X168369759Y-100854391D01*
X168346037Y-100818888D01*
X168325160Y-100752213D01*
X168343644Y-100684833D01*
X168346003Y-100681161D01*
X168369759Y-100645609D01*
X168382117Y-100583480D01*
X168382117Y-100416520D01*
X168369759Y-100354391D01*
X168346037Y-100318888D01*
X168325160Y-100252213D01*
X168343644Y-100184833D01*
X168346003Y-100181161D01*
X168369759Y-100145609D01*
X168382117Y-100083480D01*
X168382117Y-99916520D01*
X168369759Y-99854391D01*
X168346037Y-99818888D01*
X168325160Y-99752213D01*
X168343644Y-99684833D01*
X168346003Y-99681161D01*
X168369759Y-99645609D01*
X168382117Y-99583480D01*
X168382117Y-99416520D01*
X168369759Y-99354391D01*
X168346037Y-99318888D01*
X168325160Y-99252213D01*
X168343644Y-99184833D01*
X168346003Y-99181161D01*
X168369759Y-99145609D01*
X168382117Y-99083480D01*
X168382117Y-98916520D01*
X168371904Y-98865173D01*
X168369759Y-98854390D01*
X168347687Y-98821358D01*
X168322682Y-98783935D01*
X168307984Y-98774114D01*
X168263180Y-98720503D01*
X168254473Y-98651178D01*
X168255970Y-98644716D01*
X168255903Y-98644703D01*
X168257208Y-98638142D01*
X168259716Y-98625529D01*
X168292097Y-98563620D01*
X168352810Y-98529042D01*
X168357077Y-98528113D01*
X168370338Y-98525476D01*
X168370341Y-98525474D01*
X168376318Y-98524286D01*
X168376761Y-98526516D01*
X168436461Y-98525963D01*
X168495587Y-98563192D01*
X168505730Y-98576366D01*
X168515552Y-98591065D01*
X168551872Y-98615333D01*
X168586007Y-98638142D01*
X168648132Y-98650499D01*
X168648136Y-98650500D01*
X168648137Y-98650500D01*
X168815098Y-98650500D01*
X168815099Y-98650499D01*
X168877226Y-98638142D01*
X168912727Y-98614421D01*
X168979401Y-98593543D01*
X169046782Y-98612026D01*
X169050467Y-98614394D01*
X169086008Y-98638142D01*
X169138082Y-98648500D01*
X169148132Y-98650499D01*
X169148136Y-98650500D01*
X169148137Y-98650500D01*
X169315098Y-98650500D01*
X169315099Y-98650499D01*
X169377226Y-98638142D01*
X169412727Y-98614421D01*
X169479401Y-98593543D01*
X169546782Y-98612026D01*
X169550467Y-98614394D01*
X169586008Y-98638142D01*
X169638082Y-98648500D01*
X169648132Y-98650499D01*
X169648136Y-98650500D01*
X169648137Y-98650500D01*
X169815098Y-98650500D01*
X169815099Y-98650499D01*
X169877226Y-98638142D01*
X169947682Y-98591065D01*
X169994759Y-98520609D01*
X170007117Y-98458480D01*
X170007117Y-98206383D01*
X170015490Y-98161590D01*
X170032117Y-98118673D01*
X170032117Y-97284499D01*
X170051802Y-97217460D01*
X170104606Y-97171705D01*
X170156117Y-97160499D01*
X170194983Y-97160499D01*
X170194989Y-97160499D01*
X170219279Y-97157682D01*
X170318633Y-97113813D01*
X170318633Y-97113812D01*
X170329144Y-97109172D01*
X170330805Y-97112935D01*
X170376435Y-97098053D01*
X170444029Y-97115738D01*
G37*
%TD.AperFunction*%
%TA.AperFunction,Conductor*%
G36*
X163381069Y-101876072D02*
G01*
X163382201Y-101876572D01*
X163435571Y-101921665D01*
X163456090Y-101988454D01*
X163437243Y-102055733D01*
X163385014Y-102102143D01*
X163382187Y-102103434D01*
X163332480Y-102125382D01*
X163332478Y-102125383D01*
X163332476Y-102125384D01*
X163332475Y-102125384D01*
X163332473Y-102125386D01*
X163257003Y-102200856D01*
X163256998Y-102200863D01*
X163213887Y-102298499D01*
X163211117Y-102322375D01*
X163211117Y-102526693D01*
X163191432Y-102593732D01*
X163174798Y-102614374D01*
X162693298Y-103095874D01*
X162631975Y-103129359D01*
X162562283Y-103124375D01*
X162506350Y-103082503D01*
X162481933Y-103017039D01*
X162481617Y-103008193D01*
X162481617Y-102034499D01*
X162501302Y-101967460D01*
X162554106Y-101921705D01*
X162605614Y-101910499D01*
X162809239Y-101910499D01*
X162833115Y-101907730D01*
X162904826Y-101876065D01*
X162954913Y-101865500D01*
X163330968Y-101865500D01*
X163381069Y-101876072D01*
G37*
%TD.AperFunction*%
%TA.AperFunction,Conductor*%
G36*
X176215945Y-100904132D02*
G01*
X176282743Y-100924613D01*
X176302148Y-100940442D01*
X176863073Y-101501367D01*
X176869386Y-101510671D01*
X176381617Y-101050000D01*
X175031617Y-101050000D01*
X175031617Y-102068251D01*
X175026625Y-102062491D01*
X174991433Y-102021877D01*
X174962408Y-101958323D01*
X174966168Y-101905741D01*
X174980818Y-101855852D01*
X174987117Y-101812041D01*
X174987117Y-101210985D01*
X174986270Y-101200353D01*
X174985160Y-101186390D01*
X174978952Y-101147645D01*
X174978950Y-101147640D01*
X174953456Y-101084015D01*
X174953453Y-101084011D01*
X174950196Y-101077937D01*
X174951475Y-101077251D01*
X174932091Y-101018322D01*
X174949609Y-100950684D01*
X175000913Y-100903253D01*
X175057499Y-100890341D01*
X176215945Y-100904132D01*
G37*
%TD.AperFunction*%
%TA.AperFunction,Conductor*%
G36*
X174981617Y-98950000D02*
G01*
X176331617Y-98950000D01*
X176881614Y-98430557D01*
X176879934Y-98434458D01*
X176861930Y-98495768D01*
X176845298Y-98516405D01*
X176302150Y-99059555D01*
X176240827Y-99093040D01*
X176215945Y-99095865D01*
X175033304Y-99109943D01*
X174966035Y-99091058D01*
X174919655Y-99038802D01*
X174908889Y-98969767D01*
X174918435Y-98935772D01*
X174920004Y-98932223D01*
X174920012Y-98932211D01*
X174939697Y-98865172D01*
X174945996Y-98821361D01*
X174945996Y-98156347D01*
X174942442Y-98123292D01*
X174931236Y-98071781D01*
X174931234Y-98071778D01*
X174930454Y-98068190D01*
X174935437Y-97998499D01*
X174970415Y-97948118D01*
X174981617Y-97938411D01*
X174981617Y-98950000D01*
G37*
%TD.AperFunction*%
%TA.AperFunction,Conductor*%
G36*
X167467632Y-94695185D02*
G01*
X167513387Y-94747989D01*
X167523766Y-94813794D01*
X167521117Y-94836613D01*
X167521117Y-95203365D01*
X167521119Y-95203388D01*
X167523934Y-95227659D01*
X167523935Y-95227662D01*
X167567803Y-95327015D01*
X167652726Y-95411938D01*
X167649739Y-95414924D01*
X167679869Y-95451845D01*
X167687764Y-95521267D01*
X167656873Y-95583937D01*
X167652441Y-95587777D01*
X167652726Y-95588062D01*
X167567804Y-95672983D01*
X167523935Y-95772335D01*
X167523935Y-95772337D01*
X167521117Y-95796625D01*
X167521117Y-96163365D01*
X167521119Y-96163388D01*
X167523934Y-96187659D01*
X167523935Y-96187662D01*
X167567803Y-96287015D01*
X167644600Y-96363812D01*
X167649826Y-96367392D01*
X167694009Y-96421518D01*
X167702562Y-96486817D01*
X167702017Y-96490722D01*
X167704051Y-96534717D01*
X167704117Y-96537580D01*
X167704117Y-96555436D01*
X167704118Y-96555449D01*
X167704510Y-96557546D01*
X167705500Y-96566079D01*
X167706808Y-96594361D01*
X167708950Y-96599211D01*
X167717401Y-96626504D01*
X167718373Y-96631706D01*
X167718375Y-96631710D01*
X167733273Y-96655773D01*
X167737280Y-96663375D01*
X167748713Y-96689268D01*
X167748714Y-96689270D01*
X167752458Y-96693014D01*
X167770202Y-96715414D01*
X167772990Y-96719916D01*
X167794344Y-96736042D01*
X167795576Y-96736972D01*
X167802053Y-96742608D01*
X168157499Y-97098053D01*
X168319317Y-97259871D01*
X168352802Y-97321194D01*
X168347818Y-97390885D01*
X168305947Y-97446819D01*
X168240482Y-97471236D01*
X168231636Y-97471552D01*
X168182474Y-97471552D01*
X168158286Y-97469170D01*
X168151619Y-97467844D01*
X168151616Y-97467844D01*
X168092903Y-97479522D01*
X168092895Y-97479524D01*
X168083942Y-97483233D01*
X168058453Y-97493790D01*
X168058454Y-97493790D01*
X168058451Y-97493791D01*
X168008670Y-97527054D01*
X167975410Y-97576831D01*
X167975405Y-97576841D01*
X167961143Y-97611272D01*
X167961139Y-97611285D01*
X167949461Y-97669996D01*
X167949461Y-97669998D01*
X167950787Y-97676665D01*
X167953169Y-97700854D01*
X167953169Y-97959745D01*
X167933484Y-98026784D01*
X167880680Y-98072539D01*
X167811522Y-98082483D01*
X167747966Y-98053458D01*
X167741488Y-98047426D01*
X165978435Y-96284373D01*
X165944950Y-96223050D01*
X165942116Y-96196692D01*
X165942116Y-95996634D01*
X165942116Y-95996628D01*
X165939299Y-95972338D01*
X165895430Y-95872984D01*
X165818633Y-95796187D01*
X165818631Y-95796186D01*
X165719280Y-95752318D01*
X165694990Y-95749500D01*
X165268251Y-95749500D01*
X165268228Y-95749502D01*
X165243957Y-95752317D01*
X165243954Y-95752318D01*
X165144601Y-95796186D01*
X165067804Y-95872983D01*
X165023935Y-95972335D01*
X165023935Y-95972337D01*
X165021117Y-95996625D01*
X165021117Y-96363365D01*
X165021119Y-96363388D01*
X165023934Y-96387659D01*
X165023935Y-96387662D01*
X165067803Y-96487015D01*
X165067804Y-96487016D01*
X165144601Y-96563813D01*
X165243955Y-96607682D01*
X165268244Y-96610500D01*
X165468308Y-96610499D01*
X165535348Y-96630183D01*
X165555990Y-96646818D01*
X167174114Y-98264942D01*
X167207599Y-98326265D01*
X167208051Y-98376813D01*
X167199461Y-98419999D01*
X167200787Y-98426665D01*
X167203169Y-98450854D01*
X167203169Y-98549143D01*
X167200787Y-98573332D01*
X167199461Y-98579999D01*
X167206308Y-98614422D01*
X167208275Y-98624310D01*
X167202046Y-98693902D01*
X167159183Y-98749078D01*
X167093293Y-98772322D01*
X167086657Y-98772500D01*
X162605617Y-98772500D01*
X162538578Y-98752815D01*
X162492823Y-98700011D01*
X162481617Y-98648500D01*
X162481617Y-94799500D01*
X162501302Y-94732461D01*
X162554106Y-94686706D01*
X162605617Y-94675500D01*
X167400593Y-94675500D01*
X167467632Y-94695185D01*
G37*
%TD.AperFunction*%
%TA.AperFunction,Conductor*%
G36*
X176824656Y-95970185D02*
G01*
X176870411Y-96022989D01*
X176881617Y-96074499D01*
X176881617Y-96600000D01*
X175087117Y-96600000D01*
X175087117Y-96174000D01*
X175083563Y-96140945D01*
X175074842Y-96100857D01*
X175079825Y-96031169D01*
X175121696Y-95975234D01*
X175187159Y-95950816D01*
X175196008Y-95950500D01*
X176757617Y-95950500D01*
X176824656Y-95970185D01*
G37*
%TD.AperFunction*%
%TA.AperFunction,Conductor*%
G36*
X176758480Y-93499144D02*
G01*
X176825379Y-93519294D01*
X176870766Y-93572414D01*
X176881617Y-93623141D01*
X176881617Y-94525500D01*
X176861932Y-94592539D01*
X176809128Y-94638294D01*
X176757617Y-94649500D01*
X171190682Y-94649500D01*
X171068559Y-94664929D01*
X171068556Y-94664929D01*
X170915747Y-94725431D01*
X170915738Y-94725436D01*
X170782781Y-94822034D01*
X170782779Y-94822037D01*
X170678017Y-94948673D01*
X170608037Y-95097387D01*
X170608036Y-95097393D01*
X170599590Y-95141666D01*
X170567692Y-95203829D01*
X170507249Y-95238878D01*
X170437452Y-95235686D01*
X170390106Y-95206110D01*
X170022242Y-94838246D01*
X169476483Y-94292486D01*
X169474248Y-94290131D01*
X169446971Y-94259837D01*
X169446969Y-94259835D01*
X169428060Y-94251416D01*
X169410965Y-94242134D01*
X169393613Y-94230865D01*
X169393610Y-94230864D01*
X169391559Y-94230540D01*
X169360528Y-94221348D01*
X169358626Y-94220501D01*
X169358620Y-94220500D01*
X169337920Y-94220500D01*
X169318523Y-94218973D01*
X169298091Y-94215737D01*
X169296082Y-94216275D01*
X169263990Y-94220500D01*
X162605617Y-94220500D01*
X162538578Y-94200815D01*
X162492823Y-94148011D01*
X162481617Y-94096500D01*
X162481617Y-93524864D01*
X162501302Y-93457825D01*
X162554106Y-93412070D01*
X162606477Y-93400867D01*
X176758480Y-93499144D01*
G37*
%TD.AperFunction*%
%TD*%
%TA.AperFunction,Conductor*%
%TO.N,/BAT+*%
G36*
X174874656Y-96069685D02*
G01*
X174920411Y-96122489D01*
X174931617Y-96174000D01*
X174931617Y-97726000D01*
X174911932Y-97793039D01*
X174859128Y-97838794D01*
X174807617Y-97850000D01*
X174031616Y-97850000D01*
X172103106Y-98591735D01*
X172058593Y-98600000D01*
X171492986Y-98600000D01*
X171425947Y-98580315D01*
X171380192Y-98527511D01*
X171370248Y-98458353D01*
X171399273Y-98394797D01*
X171405303Y-98388321D01*
X171430118Y-98363505D01*
X171448914Y-98348079D01*
X171454564Y-98344305D01*
X171487827Y-98294523D01*
X171498385Y-98269033D01*
X171502093Y-98260081D01*
X171513773Y-98201361D01*
X171513773Y-98201359D01*
X171512447Y-98194692D01*
X171510065Y-98170505D01*
X171510065Y-98138775D01*
X171518438Y-98093982D01*
X171532117Y-98058673D01*
X171532117Y-96174000D01*
X171551802Y-96106961D01*
X171604606Y-96061206D01*
X171656117Y-96050000D01*
X174807617Y-96050000D01*
X174874656Y-96069685D01*
G37*
%TD.AperFunction*%
%TD*%
%TA.AperFunction,Conductor*%
%TO.N,GND*%
G36*
X145687539Y-84719685D02*
G01*
X145733294Y-84772489D01*
X145744500Y-84824000D01*
X145744500Y-85363131D01*
X145744523Y-85365879D01*
X145748004Y-85388079D01*
X145749500Y-85407285D01*
X145749500Y-85464820D01*
X145749500Y-85464822D01*
X145749499Y-85464822D01*
X145758231Y-85508717D01*
X145758234Y-85508724D01*
X145778754Y-85539434D01*
X145791496Y-85558504D01*
X145791497Y-85558504D01*
X145791499Y-85558507D01*
X145820132Y-85577638D01*
X145854417Y-85611958D01*
X147133799Y-87531031D01*
X147133802Y-87531035D01*
X147133805Y-87531039D01*
X147154163Y-87555659D01*
X147189664Y-87590567D01*
X147190299Y-87591192D01*
X147190302Y-87591194D01*
X147255507Y-87629513D01*
X147255508Y-87629514D01*
X147255511Y-87629514D01*
X147255513Y-87629516D01*
X147322552Y-87649201D01*
X147352019Y-87653437D01*
X147369289Y-87657193D01*
X147431633Y-87675500D01*
X147431634Y-87675500D01*
X147568367Y-87675500D01*
X147619374Y-87660523D01*
X147654309Y-87655500D01*
X147675991Y-87655500D01*
X147676000Y-87655500D01*
X147709055Y-87651946D01*
X147760566Y-87640740D01*
X147829342Y-87606313D01*
X147882146Y-87560558D01*
X147887621Y-87555580D01*
X147929516Y-87486850D01*
X147949201Y-87419811D01*
X147955500Y-87376000D01*
X147955500Y-87371666D01*
X147960524Y-87336727D01*
X147960928Y-87335347D01*
X147960931Y-87335342D01*
X147980390Y-87200000D01*
X147960931Y-87064658D01*
X147960930Y-87064656D01*
X147960523Y-87063269D01*
X147955500Y-87028333D01*
X147955500Y-86671666D01*
X147960524Y-86636727D01*
X147960928Y-86635347D01*
X147960931Y-86635342D01*
X147980390Y-86500000D01*
X147960931Y-86364658D01*
X147960930Y-86364656D01*
X147960523Y-86363269D01*
X147955500Y-86328333D01*
X147955500Y-85971666D01*
X147960524Y-85936727D01*
X147960928Y-85935347D01*
X147960931Y-85935342D01*
X147980390Y-85800000D01*
X147960931Y-85664658D01*
X147960930Y-85664656D01*
X147960523Y-85663269D01*
X147955500Y-85628333D01*
X147955500Y-85506777D01*
X147955256Y-85500613D01*
X147953210Y-85474875D01*
X147953210Y-85474873D01*
X147952477Y-85468747D01*
X147852451Y-84843591D01*
X147861298Y-84774283D01*
X147906210Y-84720761D01*
X147972929Y-84700016D01*
X147974895Y-84700000D01*
X149025105Y-84700000D01*
X149092144Y-84719685D01*
X149137899Y-84772489D01*
X149147843Y-84841647D01*
X149147548Y-84843587D01*
X149047523Y-85468747D01*
X149046790Y-85474873D01*
X149046790Y-85474875D01*
X149044744Y-85500613D01*
X149044500Y-85506777D01*
X149044500Y-85628333D01*
X149039477Y-85663269D01*
X149039068Y-85664659D01*
X149019610Y-85800000D01*
X149039068Y-85935339D01*
X149039476Y-85936727D01*
X149044500Y-85971666D01*
X149044500Y-86328333D01*
X149039477Y-86363269D01*
X149039068Y-86364659D01*
X149019610Y-86499999D01*
X149039068Y-86635339D01*
X149039476Y-86636727D01*
X149044500Y-86671666D01*
X149044500Y-87028333D01*
X149039477Y-87063269D01*
X149039068Y-87064659D01*
X149019610Y-87200000D01*
X149039068Y-87335339D01*
X149039476Y-87336727D01*
X149044500Y-87371666D01*
X149044500Y-87376008D01*
X149048054Y-87409055D01*
X149059260Y-87460566D01*
X149093686Y-87529342D01*
X149139442Y-87582146D01*
X149144421Y-87587622D01*
X149144422Y-87587623D01*
X149179258Y-87608857D01*
X149213150Y-87629516D01*
X149280189Y-87649201D01*
X149324000Y-87655500D01*
X149345691Y-87655500D01*
X149380626Y-87660523D01*
X149431632Y-87675500D01*
X149431633Y-87675500D01*
X149568366Y-87675500D01*
X149568367Y-87675500D01*
X149627132Y-87658244D01*
X149649321Y-87653880D01*
X149665413Y-87652219D01*
X149715022Y-87641863D01*
X149783088Y-87608857D01*
X149836653Y-87563996D01*
X149866195Y-87531039D01*
X151145584Y-85611953D01*
X151179863Y-85577640D01*
X151208504Y-85558504D01*
X151241767Y-85508722D01*
X151245742Y-85488741D01*
X151250500Y-85464822D01*
X151250500Y-85406101D01*
X151251762Y-85388455D01*
X151252205Y-85385372D01*
X151255500Y-85362456D01*
X151255500Y-84823999D01*
X151275185Y-84756961D01*
X151327989Y-84711206D01*
X151379500Y-84700000D01*
X160176000Y-84700000D01*
X160243039Y-84719685D01*
X160288794Y-84772489D01*
X160300000Y-84824000D01*
X160300000Y-85385372D01*
X160280315Y-85452411D01*
X160244489Y-85488741D01*
X160241713Y-85490579D01*
X160181617Y-85544140D01*
X160143266Y-85602545D01*
X160143263Y-85602549D01*
X160124488Y-85642613D01*
X160124487Y-85642617D01*
X160124486Y-85642620D01*
X159540765Y-87560558D01*
X159511534Y-87656604D01*
X159473183Y-87715008D01*
X159409344Y-87743406D01*
X159392906Y-87744500D01*
X158817722Y-87744500D01*
X158782676Y-87748501D01*
X158728216Y-87761099D01*
X158728214Y-87761099D01*
X158728178Y-87761108D01*
X158725124Y-87761999D01*
X158716699Y-87763832D01*
X158700966Y-87766125D01*
X158683261Y-87768704D01*
X158665388Y-87770000D01*
X158134622Y-87770000D01*
X158116744Y-87768704D01*
X158083275Y-87763827D01*
X158074829Y-87761988D01*
X158071784Y-87761098D01*
X158017324Y-87748501D01*
X158017325Y-87748501D01*
X157982278Y-87744500D01*
X157317722Y-87744500D01*
X157282676Y-87748501D01*
X157228216Y-87761099D01*
X157228214Y-87761099D01*
X157228178Y-87761108D01*
X157225124Y-87761999D01*
X157216699Y-87763832D01*
X157200966Y-87766125D01*
X157183261Y-87768704D01*
X157165388Y-87770000D01*
X156634622Y-87770000D01*
X156616744Y-87768704D01*
X156583275Y-87763827D01*
X156574829Y-87761988D01*
X156571784Y-87761098D01*
X156517324Y-87748501D01*
X156517325Y-87748501D01*
X156482278Y-87744500D01*
X155817722Y-87744500D01*
X155782676Y-87748501D01*
X155728216Y-87761099D01*
X155728214Y-87761099D01*
X155728178Y-87761108D01*
X155725124Y-87761999D01*
X155716699Y-87763832D01*
X155700966Y-87766125D01*
X155683261Y-87768704D01*
X155665388Y-87770000D01*
X155134622Y-87770000D01*
X155116744Y-87768704D01*
X155083275Y-87763827D01*
X155074829Y-87761988D01*
X155071784Y-87761098D01*
X155017324Y-87748501D01*
X155017325Y-87748501D01*
X154982278Y-87744500D01*
X154317722Y-87744500D01*
X154282676Y-87748501D01*
X154228216Y-87761099D01*
X154228214Y-87761099D01*
X154228178Y-87761108D01*
X154225124Y-87761999D01*
X154216699Y-87763832D01*
X154200966Y-87766125D01*
X154183261Y-87768704D01*
X154165388Y-87770000D01*
X153634622Y-87770000D01*
X153616744Y-87768704D01*
X153583275Y-87763827D01*
X153574829Y-87761988D01*
X153571784Y-87761098D01*
X153517324Y-87748501D01*
X153517325Y-87748501D01*
X153482278Y-87744500D01*
X152817722Y-87744500D01*
X152782676Y-87748501D01*
X152728216Y-87761099D01*
X152728214Y-87761099D01*
X152728178Y-87761108D01*
X152725124Y-87761999D01*
X152716699Y-87763832D01*
X152700966Y-87766125D01*
X152683261Y-87768704D01*
X152665388Y-87770000D01*
X152134622Y-87770000D01*
X152116744Y-87768704D01*
X152083275Y-87763827D01*
X152074829Y-87761988D01*
X152071784Y-87761098D01*
X152017324Y-87748501D01*
X152017325Y-87748501D01*
X151982278Y-87744500D01*
X151828018Y-87744500D01*
X151808979Y-87746623D01*
X151793745Y-87748323D01*
X151740442Y-87760366D01*
X151740423Y-87760372D01*
X151707868Y-87771642D01*
X151707854Y-87771648D01*
X149703834Y-88725943D01*
X149703833Y-88725944D01*
X149691613Y-88734006D01*
X149667916Y-88749641D01*
X149616913Y-88794558D01*
X149612378Y-88798713D01*
X149612377Y-88798714D01*
X149570486Y-88867438D01*
X149570481Y-88867449D01*
X149550799Y-88934478D01*
X149550798Y-88934479D01*
X149544500Y-88978289D01*
X149544500Y-89396606D01*
X149524815Y-89463645D01*
X149514648Y-89477304D01*
X149429512Y-89576629D01*
X149082562Y-89981404D01*
X149079013Y-89985544D01*
X149077175Y-89987729D01*
X149075396Y-89990619D01*
X149074514Y-89991413D01*
X149074502Y-89991430D01*
X149074498Y-89991427D01*
X149023479Y-90037378D01*
X148954524Y-90048647D01*
X148952170Y-90048331D01*
X148925524Y-90044500D01*
X148925516Y-90044500D01*
X148924000Y-90044500D01*
X148923991Y-90044500D01*
X148890944Y-90048054D01*
X148839433Y-90059260D01*
X148770657Y-90093686D01*
X148717854Y-90139442D01*
X148712377Y-90144421D01*
X148712376Y-90144422D01*
X148670486Y-90213145D01*
X148670483Y-90213151D01*
X148650799Y-90280187D01*
X148650797Y-90280197D01*
X148644500Y-90323996D01*
X148644500Y-91544185D01*
X148638430Y-91582506D01*
X148638424Y-91582521D01*
X148622473Y-91683240D01*
X148614676Y-91699687D01*
X148622473Y-91716760D01*
X148638424Y-91817476D01*
X148638429Y-91817491D01*
X148644500Y-91855815D01*
X148644500Y-92044185D01*
X148638430Y-92082506D01*
X148638424Y-92082521D01*
X148622473Y-92183240D01*
X148614676Y-92199687D01*
X148622473Y-92216760D01*
X148638425Y-92317480D01*
X148638426Y-92317483D01*
X148654877Y-92349770D01*
X148658104Y-92357291D01*
X148659258Y-92360563D01*
X148693687Y-92429343D01*
X148712885Y-92451498D01*
X148739442Y-92482146D01*
X148744420Y-92487621D01*
X148746494Y-92488885D01*
X148771173Y-92503929D01*
X148775346Y-92506710D01*
X148776526Y-92507567D01*
X148776532Y-92507570D01*
X148776535Y-92507573D01*
X148778212Y-92508428D01*
X148782285Y-92510702D01*
X148813150Y-92529516D01*
X148817293Y-92530732D01*
X148838657Y-92539225D01*
X148882518Y-92561574D01*
X148882519Y-92561574D01*
X148882521Y-92561575D01*
X148999997Y-92580181D01*
X149000000Y-92580181D01*
X149000003Y-92580181D01*
X149117477Y-92561575D01*
X149117478Y-92561574D01*
X149117482Y-92561574D01*
X149117484Y-92561572D01*
X149117494Y-92561570D01*
X149155815Y-92555500D01*
X149344185Y-92555500D01*
X149382506Y-92561570D01*
X149382516Y-92561573D01*
X149382518Y-92561574D01*
X149382519Y-92561574D01*
X149382522Y-92561575D01*
X149499997Y-92580181D01*
X149500000Y-92580181D01*
X149500003Y-92580181D01*
X149617478Y-92561575D01*
X149617479Y-92561575D01*
X149617480Y-92561574D01*
X149617482Y-92561574D01*
X149649785Y-92545114D01*
X149657299Y-92541892D01*
X149660561Y-92540741D01*
X149660566Y-92540740D01*
X149660570Y-92540737D01*
X149667463Y-92538306D01*
X149737232Y-92534568D01*
X149797947Y-92569144D01*
X149830331Y-92631056D01*
X149832670Y-92658506D01*
X149805913Y-93675272D01*
X149784472Y-93741770D01*
X149750848Y-93775111D01*
X149705447Y-93805447D01*
X149696812Y-93814083D01*
X149694554Y-93811825D01*
X149655939Y-93844082D01*
X149586612Y-93852774D01*
X149582289Y-93851993D01*
X149569755Y-93849500D01*
X149569748Y-93849500D01*
X149430252Y-93849500D01*
X149430247Y-93849500D01*
X149371773Y-93861131D01*
X149371770Y-93861132D01*
X149371768Y-93861133D01*
X149371769Y-93861133D01*
X149368887Y-93863058D01*
X149361656Y-93865322D01*
X149360489Y-93865806D01*
X149360445Y-93865701D01*
X149302211Y-93883934D01*
X149234831Y-93865448D01*
X149231134Y-93863073D01*
X149228231Y-93861133D01*
X149228230Y-93861132D01*
X149228229Y-93861132D01*
X149228226Y-93861131D01*
X149169752Y-93849500D01*
X149169748Y-93849500D01*
X149030252Y-93849500D01*
X149030247Y-93849500D01*
X148971773Y-93861131D01*
X148971770Y-93861132D01*
X148971768Y-93861133D01*
X148971769Y-93861133D01*
X148968887Y-93863058D01*
X148961656Y-93865322D01*
X148960489Y-93865806D01*
X148960445Y-93865701D01*
X148902211Y-93883934D01*
X148834831Y-93865448D01*
X148831134Y-93863073D01*
X148828231Y-93861133D01*
X148828230Y-93861132D01*
X148828229Y-93861132D01*
X148828226Y-93861131D01*
X148769752Y-93849500D01*
X148769748Y-93849500D01*
X148630252Y-93849500D01*
X148630247Y-93849500D01*
X148571773Y-93861131D01*
X148571770Y-93861132D01*
X148571768Y-93861133D01*
X148571769Y-93861133D01*
X148568887Y-93863058D01*
X148561656Y-93865322D01*
X148560489Y-93865806D01*
X148560445Y-93865701D01*
X148502211Y-93883934D01*
X148434831Y-93865448D01*
X148431108Y-93863055D01*
X148428231Y-93861132D01*
X148428229Y-93861131D01*
X148369752Y-93849500D01*
X148369748Y-93849500D01*
X148230252Y-93849500D01*
X148230247Y-93849500D01*
X148171770Y-93861131D01*
X148171769Y-93861132D01*
X148105447Y-93905447D01*
X148061132Y-93971769D01*
X148061131Y-93971770D01*
X148049500Y-94030247D01*
X148049500Y-94575839D01*
X148046624Y-94575839D01*
X148035950Y-94632395D01*
X147987929Y-94683147D01*
X147925516Y-94700000D01*
X147524000Y-94700000D01*
X147456961Y-94680315D01*
X147411206Y-94627511D01*
X147400000Y-94576000D01*
X147400000Y-93700000D01*
X147224000Y-93700000D01*
X147156961Y-93680315D01*
X147111206Y-93627511D01*
X147100000Y-93576000D01*
X147100000Y-92620394D01*
X147119685Y-92553355D01*
X147172489Y-92507600D01*
X147241647Y-92497656D01*
X147288537Y-92514513D01*
X147313150Y-92529516D01*
X147317293Y-92530732D01*
X147338657Y-92539225D01*
X147382518Y-92561574D01*
X147382519Y-92561574D01*
X147382521Y-92561575D01*
X147499997Y-92580181D01*
X147500000Y-92580181D01*
X147500003Y-92580181D01*
X147617477Y-92561575D01*
X147617478Y-92561574D01*
X147617482Y-92561574D01*
X147617484Y-92561572D01*
X147617494Y-92561570D01*
X147655815Y-92555500D01*
X147844185Y-92555500D01*
X147882506Y-92561570D01*
X147882516Y-92561573D01*
X147882518Y-92561574D01*
X147882519Y-92561574D01*
X147882522Y-92561575D01*
X147999997Y-92580181D01*
X148000000Y-92580181D01*
X148000003Y-92580181D01*
X148117478Y-92561575D01*
X148117478Y-92561574D01*
X148117482Y-92561574D01*
X148149781Y-92545115D01*
X148157308Y-92541888D01*
X148160552Y-92540743D01*
X148160566Y-92540740D01*
X148229342Y-92506313D01*
X148282146Y-92460558D01*
X148287621Y-92455580D01*
X148303938Y-92428809D01*
X148306719Y-92424638D01*
X148307567Y-92423470D01*
X148307573Y-92423465D01*
X148308416Y-92421808D01*
X148310714Y-92417694D01*
X148313896Y-92412474D01*
X148329516Y-92386850D01*
X148330732Y-92382705D01*
X148339223Y-92361345D01*
X148361574Y-92317482D01*
X148361575Y-92317478D01*
X148377527Y-92216760D01*
X148385323Y-92200312D01*
X148377527Y-92183240D01*
X148361575Y-92082521D01*
X148361570Y-92082506D01*
X148355500Y-92044185D01*
X148355500Y-91855815D01*
X148361571Y-91817491D01*
X148361572Y-91817484D01*
X148361574Y-91817482D01*
X148368888Y-91771302D01*
X148377527Y-91716760D01*
X148385323Y-91700312D01*
X148377527Y-91683240D01*
X148361575Y-91582521D01*
X148361570Y-91582506D01*
X148355500Y-91544185D01*
X148355500Y-90324008D01*
X148355499Y-90323999D01*
X148351946Y-90290945D01*
X148340740Y-90239434D01*
X148309384Y-90176793D01*
X148306313Y-90170657D01*
X148260558Y-90117854D01*
X148255578Y-90112377D01*
X148255577Y-90112376D01*
X148186854Y-90070486D01*
X148186848Y-90070483D01*
X148119812Y-90050799D01*
X148119802Y-90050797D01*
X148076003Y-90044500D01*
X148076000Y-90044500D01*
X148074484Y-90044500D01*
X148074483Y-90044500D01*
X148049497Y-90047818D01*
X147980450Y-90037130D01*
X147928501Y-89991377D01*
X147922169Y-89981407D01*
X147555988Y-89554196D01*
X147485352Y-89471787D01*
X147456669Y-89408076D01*
X147455500Y-89391089D01*
X147455500Y-88972773D01*
X147449548Y-88930169D01*
X147449546Y-88930161D01*
X147435864Y-88882146D01*
X147430923Y-88864804D01*
X147429120Y-88858919D01*
X147426937Y-88855580D01*
X147385077Y-88791545D01*
X147333013Y-88744950D01*
X147333005Y-88744944D01*
X147296164Y-88720425D01*
X145292145Y-87766131D01*
X145292131Y-87766125D01*
X145259576Y-87754855D01*
X145259557Y-87754849D01*
X145206254Y-87742806D01*
X145193400Y-87741372D01*
X145171982Y-87738983D01*
X145133110Y-87738983D01*
X145127491Y-87739186D01*
X145104005Y-87740888D01*
X145098411Y-87741497D01*
X145083263Y-87743704D01*
X145065386Y-87745000D01*
X144534617Y-87745000D01*
X144516744Y-87743705D01*
X144514691Y-87743406D01*
X144501586Y-87741497D01*
X144495994Y-87740888D01*
X144478381Y-87739611D01*
X144472511Y-87739186D01*
X144466890Y-87738983D01*
X143533110Y-87738983D01*
X143527491Y-87739186D01*
X143504005Y-87740888D01*
X143498411Y-87741497D01*
X143483263Y-87743704D01*
X143465386Y-87745000D01*
X142934617Y-87745000D01*
X142916744Y-87743705D01*
X142914691Y-87743406D01*
X142901586Y-87741497D01*
X142895994Y-87740888D01*
X142878381Y-87739611D01*
X142872511Y-87739186D01*
X142866890Y-87738983D01*
X141933110Y-87738983D01*
X141927491Y-87739186D01*
X141904005Y-87740888D01*
X141898411Y-87741497D01*
X141883263Y-87743704D01*
X141865386Y-87745000D01*
X141334617Y-87745000D01*
X141316744Y-87743705D01*
X141314691Y-87743406D01*
X141301586Y-87741497D01*
X141295994Y-87740888D01*
X141278381Y-87739611D01*
X141272511Y-87739186D01*
X141266890Y-87738983D01*
X140724000Y-87738983D01*
X140723991Y-87738983D01*
X140690944Y-87742537D01*
X140639433Y-87753743D01*
X140579504Y-87783741D01*
X140510744Y-87796146D01*
X140446193Y-87769408D01*
X140406345Y-87712015D01*
X140400000Y-87672857D01*
X140400000Y-84824000D01*
X140419685Y-84756961D01*
X140472489Y-84711206D01*
X140524000Y-84700000D01*
X145620500Y-84700000D01*
X145687539Y-84719685D01*
G37*
%TD.AperFunction*%
%TA.AperFunction,Conductor*%
G36*
X155992662Y-89675185D02*
G01*
X156038417Y-89727989D01*
X156048361Y-89797146D01*
X156044500Y-89823999D01*
X156044500Y-89941855D01*
X156044526Y-89944777D01*
X156044526Y-89944778D01*
X156051623Y-89989829D01*
X156051625Y-89989837D01*
X156072496Y-90056497D01*
X156072502Y-90056513D01*
X156082856Y-90078153D01*
X156095000Y-90131670D01*
X156095000Y-90425500D01*
X156095000Y-90425508D01*
X156095001Y-90425510D01*
X156098909Y-90461859D01*
X156098745Y-90461876D01*
X156100000Y-90477457D01*
X156100000Y-91200000D01*
X156206465Y-91200000D01*
X156273504Y-91219685D01*
X156275357Y-91220899D01*
X156298447Y-91236328D01*
X156298449Y-91236329D01*
X156355211Y-91247619D01*
X156369695Y-91250500D01*
X156605304Y-91250499D01*
X156676552Y-91236328D01*
X156676555Y-91236325D01*
X156687835Y-91231654D01*
X156689223Y-91235005D01*
X156735749Y-91220421D01*
X156803135Y-91238885D01*
X156825682Y-91256720D01*
X156836181Y-91267219D01*
X156869666Y-91328542D01*
X156872500Y-91354900D01*
X156872500Y-91976000D01*
X156852815Y-92043039D01*
X156800011Y-92088794D01*
X156748500Y-92100000D01*
X156200000Y-92100000D01*
X156200000Y-93076000D01*
X156180315Y-93143039D01*
X156127511Y-93188794D01*
X156076000Y-93200000D01*
X155300000Y-93200000D01*
X155194500Y-93200000D01*
X155127461Y-93180315D01*
X155081706Y-93127511D01*
X155070500Y-93076001D01*
X155070499Y-92912385D01*
X155070499Y-92912378D01*
X155067730Y-92888502D01*
X155067730Y-92888501D01*
X155024619Y-92790864D01*
X155024617Y-92790861D01*
X155024616Y-92790859D01*
X154949141Y-92715384D01*
X154949138Y-92715383D01*
X154949136Y-92715381D01*
X154851500Y-92672270D01*
X154851501Y-92672270D01*
X154827624Y-92669500D01*
X154827623Y-92669500D01*
X154424000Y-92669500D01*
X154356961Y-92649815D01*
X154311206Y-92597011D01*
X154300000Y-92545500D01*
X154300000Y-91969012D01*
X154319685Y-91901973D01*
X154372489Y-91856218D01*
X154441647Y-91846274D01*
X154492890Y-91865909D01*
X154523448Y-91886328D01*
X154523451Y-91886328D01*
X154523452Y-91886329D01*
X154559071Y-91893413D01*
X154594695Y-91900500D01*
X154830304Y-91900499D01*
X154901552Y-91886328D01*
X154982344Y-91832344D01*
X155033951Y-91755108D01*
X155087563Y-91710304D01*
X155090256Y-91709743D01*
X155099999Y-91700000D01*
X155100000Y-91700000D01*
X155100000Y-90469138D01*
X155101262Y-90451491D01*
X155104999Y-90425501D01*
X155105000Y-90124001D01*
X155101446Y-90090945D01*
X155090240Y-90039434D01*
X155065805Y-89990619D01*
X155055813Y-89970657D01*
X155010058Y-89917854D01*
X155005079Y-89912378D01*
X154987506Y-89901666D01*
X154960786Y-89885379D01*
X154913790Y-89833680D01*
X154902204Y-89764777D01*
X154929709Y-89700549D01*
X154987572Y-89661387D01*
X155025327Y-89655500D01*
X155925623Y-89655500D01*
X155992662Y-89675185D01*
G37*
%TD.AperFunction*%
%TD*%
%TA.AperFunction,Conductor*%
%TO.N,/VUSB*%
G36*
X146843039Y-91119685D02*
G01*
X146888794Y-91172489D01*
X146900000Y-91224000D01*
X146900000Y-91593618D01*
X146880315Y-91660657D01*
X146827511Y-91706412D01*
X146794855Y-91716176D01*
X146598023Y-91746458D01*
X146579168Y-91747900D01*
X146065846Y-91747900D01*
X146027648Y-91738724D01*
X146026766Y-91741442D01*
X146017480Y-91738425D01*
X145900003Y-91719819D01*
X145899997Y-91719819D01*
X145782522Y-91738424D01*
X145782521Y-91738424D01*
X145676533Y-91792428D01*
X145676529Y-91792431D01*
X145593600Y-91875361D01*
X145532277Y-91908846D01*
X145522673Y-91910543D01*
X143621455Y-92169801D01*
X143404171Y-92199431D01*
X143395787Y-92200000D01*
X141024000Y-92200000D01*
X140956961Y-92180315D01*
X140911206Y-92127511D01*
X140900000Y-92076000D01*
X140900000Y-91224000D01*
X140919685Y-91156961D01*
X140972489Y-91111206D01*
X141024000Y-91100000D01*
X146776000Y-91100000D01*
X146843039Y-91119685D01*
G37*
%TD.AperFunction*%
%TD*%
%TA.AperFunction,Conductor*%
%TO.N,GND*%
G36*
X177242759Y-101863300D02*
G01*
X177277981Y-101923641D01*
X177281617Y-101953449D01*
X177281617Y-103276000D01*
X177261932Y-103343039D01*
X177209128Y-103388794D01*
X177157617Y-103400000D01*
X175087117Y-103400000D01*
X175087117Y-102586251D01*
X175087116Y-102586239D01*
X175086244Y-102578131D01*
X175083563Y-102553194D01*
X175074559Y-102511811D01*
X175073778Y-102507482D01*
X175062951Y-102432177D01*
X175062953Y-102408872D01*
X175062504Y-102408872D01*
X175062504Y-102391131D01*
X175062952Y-102391131D01*
X175062951Y-102367818D01*
X175072646Y-102300381D01*
X175073430Y-102296042D01*
X175073717Y-102294721D01*
X175073722Y-102294703D01*
X175078074Y-102274698D01*
X175080044Y-102219516D01*
X175070100Y-102150358D01*
X175068873Y-102143060D01*
X175068871Y-102143057D01*
X175068871Y-102143054D01*
X175033703Y-102070660D01*
X175033702Y-102070658D01*
X175031617Y-102068251D01*
X175031617Y-101050000D01*
X176381617Y-101050000D01*
X177242759Y-101863300D01*
G37*
%TD.AperFunction*%
%TD*%
%TA.AperFunction,Conductor*%
%TO.N,/VBAT*%
G36*
X154892539Y-90019685D02*
G01*
X154938294Y-90072489D01*
X154949500Y-90124000D01*
X154949499Y-90425500D01*
X154929814Y-90492540D01*
X154877010Y-90538295D01*
X154825500Y-90549500D01*
X154594698Y-90549500D01*
X154523447Y-90563672D01*
X154442655Y-90617655D01*
X154388672Y-90698448D01*
X154388670Y-90698452D01*
X154374500Y-90769691D01*
X154374500Y-91030302D01*
X154386054Y-91088389D01*
X154379825Y-91157980D01*
X154336961Y-91213157D01*
X154284285Y-91234979D01*
X150979443Y-91770901D01*
X150959594Y-91772500D01*
X150780338Y-91772500D01*
X150732884Y-91763060D01*
X150728230Y-91761132D01*
X150669751Y-91749500D01*
X150669748Y-91749500D01*
X150224000Y-91749500D01*
X150156961Y-91729815D01*
X150111206Y-91677011D01*
X150100000Y-91625500D01*
X150100000Y-91176100D01*
X150119685Y-91109061D01*
X150172489Y-91063306D01*
X150224000Y-91052100D01*
X151062958Y-91052100D01*
X151087150Y-91054483D01*
X151099999Y-91057039D01*
X151100000Y-91057039D01*
X151124830Y-91052100D01*
X151198365Y-91037473D01*
X151281754Y-90981754D01*
X151289039Y-90970849D01*
X151304452Y-90952069D01*
X151343400Y-90913121D01*
X151404721Y-90879638D01*
X151411682Y-90878331D01*
X151517477Y-90861575D01*
X151517478Y-90861575D01*
X151517479Y-90861574D01*
X151517482Y-90861574D01*
X151623465Y-90807573D01*
X151707573Y-90723465D01*
X151761574Y-90617482D01*
X151761575Y-90617477D01*
X151780181Y-90500003D01*
X151780181Y-90499996D01*
X151761575Y-90382522D01*
X151761574Y-90382518D01*
X151758105Y-90375710D01*
X151745209Y-90307041D01*
X151771486Y-90242300D01*
X151828593Y-90202044D01*
X151859749Y-90195732D01*
X153444936Y-90082504D01*
X154597796Y-90000158D01*
X154602214Y-90000000D01*
X154825500Y-90000000D01*
X154892539Y-90019685D01*
G37*
%TD.AperFunction*%
%TD*%
%TA.AperFunction,Conductor*%
%TO.N,Net-(A1-SENSE2)*%
G36*
X174733535Y-98052032D02*
G01*
X174779290Y-98104836D01*
X174790496Y-98156347D01*
X174790496Y-98821361D01*
X174770811Y-98888400D01*
X174718007Y-98934155D01*
X174680189Y-98944603D01*
X172118577Y-99229226D01*
X172080697Y-99227602D01*
X172065100Y-99224500D01*
X172065097Y-99224500D01*
X171273137Y-99224500D01*
X171267045Y-99224500D01*
X171267045Y-99222332D01*
X171208002Y-99211134D01*
X171157292Y-99163068D01*
X171140496Y-99100751D01*
X171140496Y-98906347D01*
X171160181Y-98839308D01*
X171212985Y-98793553D01*
X171264496Y-98782347D01*
X172050866Y-98782347D01*
X172052940Y-98782156D01*
X172061614Y-98782156D01*
X172061614Y-98782155D01*
X172061616Y-98782156D01*
X172120338Y-98770476D01*
X172120348Y-98770472D01*
X172154776Y-98756212D01*
X172154779Y-98756211D01*
X172205875Y-98722069D01*
X172230251Y-98709436D01*
X173969196Y-98040612D01*
X174013710Y-98032347D01*
X174666496Y-98032347D01*
X174733535Y-98052032D01*
G37*
%TD.AperFunction*%
%TD*%
%TA.AperFunction,Conductor*%
%TO.N,/OUT2A*%
G36*
X178842856Y-98319685D02*
G01*
X178888611Y-98372489D01*
X178898555Y-98441647D01*
X178883204Y-98486000D01*
X178851472Y-98540960D01*
X178851469Y-98540967D01*
X178782761Y-98739482D01*
X178782761Y-98739484D01*
X178781249Y-98750000D01*
X179852057Y-98750000D01*
X179813339Y-98792059D01*
X179763066Y-98906670D01*
X179752731Y-99031395D01*
X179783454Y-99152719D01*
X179847011Y-99250000D01*
X178785359Y-99250000D01*
X178812387Y-99361409D01*
X178902109Y-99557875D01*
X178900749Y-99558496D01*
X178915496Y-99619336D01*
X178892632Y-99685359D01*
X178837703Y-99728539D01*
X178790941Y-99737411D01*
X172131617Y-99700000D01*
X171305617Y-99700000D01*
X171238578Y-99680315D01*
X171192823Y-99627511D01*
X171181617Y-99576000D01*
X171181617Y-99504000D01*
X171201302Y-99436961D01*
X171254106Y-99391206D01*
X171305617Y-99380000D01*
X172045688Y-99380000D01*
X172053089Y-99380443D01*
X172074026Y-99382958D01*
X172074028Y-99382958D01*
X172074036Y-99382959D01*
X172104950Y-99384284D01*
X172111913Y-99384583D01*
X172111914Y-99384582D01*
X172111916Y-99384583D01*
X172135749Y-99383775D01*
X172977702Y-99290224D01*
X172983731Y-99289854D01*
X176331617Y-99250000D01*
X177245297Y-98336318D01*
X177306621Y-98302834D01*
X177332979Y-98300000D01*
X178775817Y-98300000D01*
X178842856Y-98319685D01*
G37*
%TD.AperFunction*%
%TD*%
%TA.AperFunction,Conductor*%
%TO.N,/VIN*%
G36*
X170128304Y-108719685D02*
G01*
X170131847Y-108722048D01*
X170746082Y-109147288D01*
X170789997Y-109201631D01*
X170799500Y-109249238D01*
X170799500Y-109502320D01*
X170799500Y-109502322D01*
X170799499Y-109502322D01*
X170808231Y-109546217D01*
X170808232Y-109546221D01*
X170808233Y-109546222D01*
X170841496Y-109596004D01*
X170891278Y-109629267D01*
X170891281Y-109629267D01*
X170891282Y-109629268D01*
X170935177Y-109638000D01*
X170935180Y-109638000D01*
X171275500Y-109638000D01*
X171342539Y-109657685D01*
X171388294Y-109710489D01*
X171399500Y-109761999D01*
X171399500Y-109992801D01*
X171399701Y-109994830D01*
X171400000Y-110000915D01*
X171400000Y-110073684D01*
X171389313Y-110124045D01*
X171000000Y-111000001D01*
X171000000Y-111797524D01*
X170999802Y-111802470D01*
X170809129Y-114185888D01*
X170784161Y-114251145D01*
X170727877Y-114292543D01*
X170685524Y-114300000D01*
X169324000Y-114300000D01*
X169256961Y-114280315D01*
X169211206Y-114227511D01*
X169200000Y-114176000D01*
X169200000Y-108824000D01*
X169219685Y-108756961D01*
X169272489Y-108711206D01*
X169324000Y-108700000D01*
X170061265Y-108700000D01*
X170128304Y-108719685D01*
G37*
%TD.AperFunction*%
%TD*%
%TA.AperFunction,Conductor*%
%TO.N,GND*%
G36*
X175743039Y-112319685D02*
G01*
X175788794Y-112372489D01*
X175800000Y-112424000D01*
X175800000Y-120568491D01*
X175780315Y-120635530D01*
X175727511Y-120681285D01*
X175668719Y-120692277D01*
X174100000Y-120600000D01*
X170524000Y-120600000D01*
X170456961Y-120580315D01*
X170411206Y-120527511D01*
X170400000Y-120476000D01*
X170400000Y-118632131D01*
X170415603Y-118571914D01*
X170976907Y-117561567D01*
X171026669Y-117512528D01*
X171073218Y-117498381D01*
X171506235Y-117455997D01*
X171519568Y-117455828D01*
X171519568Y-117455500D01*
X172985529Y-117455500D01*
X173012489Y-117453144D01*
X173018003Y-117452172D01*
X173054841Y-117445687D01*
X173120012Y-117417808D01*
X173161054Y-117387621D01*
X173176297Y-117376410D01*
X173182149Y-117371886D01*
X173182152Y-117371884D01*
X173229394Y-117306712D01*
X173254362Y-117241455D01*
X173264134Y-117198288D01*
X173644792Y-112440056D01*
X173644379Y-112428381D01*
X173661683Y-112360689D01*
X173712837Y-112313096D01*
X173768302Y-112300000D01*
X175676000Y-112300000D01*
X175743039Y-112319685D01*
G37*
%TD.AperFunction*%
%TD*%
%TA.AperFunction,Conductor*%
%TO.N,+3.3V*%
G36*
X173372081Y-112293908D02*
G01*
X173438107Y-112316759D01*
X173481299Y-112371680D01*
X173489787Y-112427656D01*
X173109129Y-117185888D01*
X173084161Y-117251145D01*
X173027877Y-117292543D01*
X172985524Y-117300000D01*
X171524000Y-117300000D01*
X171456961Y-117280315D01*
X171411206Y-117227511D01*
X171400000Y-117176000D01*
X171400000Y-112330045D01*
X171419685Y-112263006D01*
X171472489Y-112217251D01*
X171529895Y-112206185D01*
X173372081Y-112293908D01*
G37*
%TD.AperFunction*%
%TD*%
%TA.AperFunction,Conductor*%
%TO.N,GND*%
G36*
X132943039Y-97019685D02*
G01*
X132988794Y-97072489D01*
X133000000Y-97124000D01*
X133000000Y-102876000D01*
X132980315Y-102943039D01*
X132927511Y-102988794D01*
X132876000Y-103000000D01*
X127124000Y-103000000D01*
X127056961Y-102980315D01*
X127011206Y-102927511D01*
X127000000Y-102876000D01*
X127000000Y-97124000D01*
X127019685Y-97056961D01*
X127072489Y-97011206D01*
X127124000Y-97000000D01*
X132876000Y-97000000D01*
X132943039Y-97019685D01*
G37*
%TD.AperFunction*%
%TD*%
M02*
