%TF.GenerationSoftware,KiCad,Pcbnew,7.0.6*%
%TF.CreationDate,2024-03-18T22:21:01-04:00*%
%TF.ProjectId,Receiver,52656365-6976-4657-922e-6b696361645f,rev?*%
%TF.SameCoordinates,Original*%
%TF.FileFunction,Drillmap*%
%TF.FilePolarity,Positive*%
%FSLAX45Y45*%
G04 Gerber Fmt 4.5, Leading zero omitted, Abs format (unit mm)*
G04 Created by KiCad (PCBNEW 7.0.6) date 2024-03-18 22:21:01*
%MOMM*%
%LPD*%
G01*
G04 APERTURE LIST*
%ADD10C,0.050000*%
%ADD11C,0.200000*%
%ADD12C,0.020000*%
%ADD13C,0.040000*%
%ADD14C,0.060000*%
%ADD15C,0.065000*%
%ADD16C,0.075000*%
%ADD17C,0.099060*%
%ADD18C,0.129540*%
%ADD19C,0.320000*%
G04 APERTURE END LIST*
D10*
X11750000Y-11850000D02*
G75*
G03*
X12000000Y-12100000I250000J0D01*
G01*
X18000000Y-12100000D02*
G75*
G03*
X18250000Y-11850000I0J250000D01*
G01*
X12000000Y-7900000D02*
G75*
G03*
X11750000Y-8150000I0J-250000D01*
G01*
X18250000Y-8150000D02*
G75*
G03*
X18000000Y-7900000I-250000J0D01*
G01*
X18000000Y-12100000D02*
X12000000Y-12100000D01*
X11750000Y-11850000D02*
X11750000Y-8150000D01*
X18250000Y-8150000D02*
X18250000Y-11850000D01*
X12000000Y-7900000D02*
X18000000Y-7900000D01*
D11*
D12*
X14510000Y-9350000D02*
X14530000Y-9370000D01*
X14530000Y-9350000D02*
X14510000Y-9370000D01*
X14580000Y-9200000D02*
X14600000Y-9220000D01*
X14600000Y-9200000D02*
X14580000Y-9220000D01*
X14740000Y-9160000D02*
X14760000Y-9180000D01*
X14760000Y-9160000D02*
X14740000Y-9180000D01*
X14740000Y-9210000D02*
X14760000Y-9230000D01*
X14760000Y-9210000D02*
X14740000Y-9230000D01*
X14790000Y-9160000D02*
X14810000Y-9180000D01*
X14810000Y-9160000D02*
X14790000Y-9180000D01*
X14790000Y-9210000D02*
X14810000Y-9230000D01*
X14810000Y-9210000D02*
X14790000Y-9230000D01*
X14890000Y-9160000D02*
X14910000Y-9180000D01*
X14910000Y-9160000D02*
X14890000Y-9180000D01*
X14890000Y-9210000D02*
X14910000Y-9230000D01*
X14910000Y-9210000D02*
X14890000Y-9230000D01*
X14940000Y-9160000D02*
X14960000Y-9180000D01*
X14960000Y-9160000D02*
X14940000Y-9180000D01*
X14940000Y-9210000D02*
X14960000Y-9230000D01*
X14960000Y-9210000D02*
X14940000Y-9230000D01*
X15120378Y-9298424D02*
X15140378Y-9318424D01*
X15140378Y-9298424D02*
X15120378Y-9318424D01*
X15130000Y-9040000D02*
X15150000Y-9060000D01*
X15150000Y-9040000D02*
X15130000Y-9060000D01*
X15370000Y-9180000D02*
X15390000Y-9200000D01*
X15390000Y-9180000D02*
X15370000Y-9200000D01*
X15420000Y-9490000D02*
X15440000Y-9510000D01*
X15440000Y-9490000D02*
X15420000Y-9510000D01*
X15700000Y-9090000D02*
X15720000Y-9110000D01*
X15720000Y-9090000D02*
X15700000Y-9110000D01*
D13*
X12380000Y-11000000D02*
G75*
G03*
X12380000Y-11000000I-20000J0D01*
G01*
X12460000Y-11000000D02*
G75*
G03*
X12460000Y-11000000I-20000J0D01*
G01*
X12540000Y-11000000D02*
G75*
G03*
X12540000Y-11000000I-20000J0D01*
G01*
X12760000Y-9780000D02*
G75*
G03*
X12760000Y-9780000I-20000J0D01*
G01*
X12760000Y-9860000D02*
G75*
G03*
X12760000Y-9860000I-20000J0D01*
G01*
X12760000Y-9940000D02*
G75*
G03*
X12760000Y-9940000I-20000J0D01*
G01*
X12760000Y-10020000D02*
G75*
G03*
X12760000Y-10020000I-20000J0D01*
G01*
X12760000Y-10100000D02*
G75*
G03*
X12760000Y-10100000I-20000J0D01*
G01*
X12760000Y-10180000D02*
G75*
G03*
X12760000Y-10180000I-20000J0D01*
G01*
X12760000Y-10260000D02*
G75*
G03*
X12760000Y-10260000I-20000J0D01*
G01*
X12830000Y-9740000D02*
G75*
G03*
X12830000Y-9740000I-20000J0D01*
G01*
X12840000Y-10260000D02*
G75*
G03*
X12840000Y-10260000I-20000J0D01*
G01*
X12840000Y-11140000D02*
G75*
G03*
X12840000Y-11140000I-20000J0D01*
G01*
X12840000Y-11230000D02*
G75*
G03*
X12840000Y-11230000I-20000J0D01*
G01*
X12840000Y-11310000D02*
G75*
G03*
X12840000Y-11310000I-20000J0D01*
G01*
X12910000Y-9740000D02*
G75*
G03*
X12910000Y-9740000I-20000J0D01*
G01*
X12920000Y-10260000D02*
G75*
G03*
X12920000Y-10260000I-20000J0D01*
G01*
X12990000Y-9740000D02*
G75*
G03*
X12990000Y-9740000I-20000J0D01*
G01*
X13000000Y-10260000D02*
G75*
G03*
X13000000Y-10260000I-20000J0D01*
G01*
X13030000Y-9250000D02*
G75*
G03*
X13030000Y-9250000I-20000J0D01*
G01*
X13110000Y-10470000D02*
G75*
G03*
X13110000Y-10470000I-20000J0D01*
G01*
X13180000Y-9540000D02*
G75*
G03*
X13180000Y-9540000I-20000J0D01*
G01*
X13350000Y-9540000D02*
G75*
G03*
X13350000Y-9540000I-20000J0D01*
G01*
X13760000Y-9960000D02*
G75*
G03*
X13760000Y-9960000I-20000J0D01*
G01*
X13760000Y-11110000D02*
G75*
G03*
X13760000Y-11110000I-20000J0D01*
G01*
X13990000Y-9230000D02*
G75*
G03*
X13990000Y-9230000I-20000J0D01*
G01*
X13990000Y-11250000D02*
G75*
G03*
X13990000Y-11250000I-20000J0D01*
G01*
X14000000Y-9080000D02*
G75*
G03*
X14000000Y-9080000I-20000J0D01*
G01*
X14050000Y-9290000D02*
G75*
G03*
X14050000Y-9290000I-20000J0D01*
G01*
X14060000Y-9140000D02*
G75*
G03*
X14060000Y-9140000I-20000J0D01*
G01*
X14100000Y-8580000D02*
G75*
G03*
X14100000Y-8580000I-20000J0D01*
G01*
X14180000Y-11630000D02*
G75*
G03*
X14180000Y-11630000I-20000J0D01*
G01*
X14200000Y-8580000D02*
G75*
G03*
X14200000Y-8580000I-20000J0D01*
G01*
X14300000Y-8580000D02*
G75*
G03*
X14300000Y-8580000I-20000J0D01*
G01*
X14300000Y-10910000D02*
G75*
G03*
X14300000Y-10910000I-20000J0D01*
G01*
X14380000Y-9520000D02*
G75*
G03*
X14380000Y-9520000I-20000J0D01*
G01*
X14380000Y-9700000D02*
G75*
G03*
X14380000Y-9700000I-20000J0D01*
G01*
X14400000Y-11600000D02*
G75*
G03*
X14400000Y-11600000I-20000J0D01*
G01*
X14410000Y-8580000D02*
G75*
G03*
X14410000Y-8580000I-20000J0D01*
G01*
X14460000Y-10120000D02*
G75*
G03*
X14460000Y-10120000I-20000J0D01*
G01*
X14460000Y-10690000D02*
G75*
G03*
X14460000Y-10690000I-20000J0D01*
G01*
X14460000Y-10800000D02*
G75*
G03*
X14460000Y-10800000I-20000J0D01*
G01*
X14480000Y-11690000D02*
G75*
G03*
X14480000Y-11690000I-20000J0D01*
G01*
X14520000Y-8580000D02*
G75*
G03*
X14520000Y-8580000I-20000J0D01*
G01*
X14570000Y-9460000D02*
G75*
G03*
X14570000Y-9460000I-20000J0D01*
G01*
X14580000Y-9060000D02*
G75*
G03*
X14580000Y-9060000I-20000J0D01*
G01*
X14600000Y-11590000D02*
G75*
G03*
X14600000Y-11590000I-20000J0D01*
G01*
X14610000Y-10920000D02*
G75*
G03*
X14610000Y-10920000I-20000J0D01*
G01*
X14660000Y-9920000D02*
G75*
G03*
X14660000Y-9920000I-20000J0D01*
G01*
X14710000Y-9690000D02*
G75*
G03*
X14710000Y-9690000I-20000J0D01*
G01*
X14750000Y-10040000D02*
G75*
G03*
X14750000Y-10040000I-20000J0D01*
G01*
X14770000Y-8580000D02*
G75*
G03*
X14770000Y-8580000I-20000J0D01*
G01*
X14770000Y-8650000D02*
G75*
G03*
X14770000Y-8650000I-20000J0D01*
G01*
X14770000Y-8720000D02*
G75*
G03*
X14770000Y-8720000I-20000J0D01*
G01*
X14810000Y-9290000D02*
G75*
G03*
X14810000Y-9290000I-20000J0D01*
G01*
X14870000Y-8580000D02*
G75*
G03*
X14870000Y-8580000I-20000J0D01*
G01*
X14870000Y-9340000D02*
G75*
G03*
X14870000Y-9340000I-20000J0D01*
G01*
X14920000Y-10210000D02*
G75*
G03*
X14920000Y-10210000I-20000J0D01*
G01*
X14930000Y-9290000D02*
G75*
G03*
X14930000Y-9290000I-20000J0D01*
G01*
X14960000Y-11250000D02*
G75*
G03*
X14960000Y-11250000I-20000J0D01*
G01*
X14970000Y-8580000D02*
G75*
G03*
X14970000Y-8580000I-20000J0D01*
G01*
X14970000Y-8650000D02*
G75*
G03*
X14970000Y-8650000I-20000J0D01*
G01*
X14970000Y-8720000D02*
G75*
G03*
X14970000Y-8720000I-20000J0D01*
G01*
X15060000Y-9720000D02*
G75*
G03*
X15060000Y-9720000I-20000J0D01*
G01*
X15260000Y-10050000D02*
G75*
G03*
X15260000Y-10050000I-20000J0D01*
G01*
X15300000Y-8580000D02*
G75*
G03*
X15300000Y-8580000I-20000J0D01*
G01*
X15410000Y-8580000D02*
G75*
G03*
X15410000Y-8580000I-20000J0D01*
G01*
X15430000Y-10750000D02*
G75*
G03*
X15430000Y-10750000I-20000J0D01*
G01*
X15500000Y-9230000D02*
G75*
G03*
X15500000Y-9230000I-20000J0D01*
G01*
X15520000Y-8580000D02*
G75*
G03*
X15520000Y-8580000I-20000J0D01*
G01*
X15560000Y-9780000D02*
G75*
G03*
X15560000Y-9780000I-20000J0D01*
G01*
X15580000Y-9210000D02*
G75*
G03*
X15580000Y-9210000I-20000J0D01*
G01*
X15580000Y-9430000D02*
G75*
G03*
X15580000Y-9430000I-20000J0D01*
G01*
X15620000Y-8580000D02*
G75*
G03*
X15620000Y-8580000I-20000J0D01*
G01*
X15720050Y-8580000D02*
G75*
G03*
X15720050Y-8580000I-20000J0D01*
G01*
X15830350Y-8580000D02*
G75*
G03*
X15830350Y-8580000I-20000J0D01*
G01*
X15950000Y-8580000D02*
G75*
G03*
X15950000Y-8580000I-20000J0D01*
G01*
X16080000Y-10310000D02*
G75*
G03*
X16080000Y-10310000I-20000J0D01*
G01*
X16090000Y-8670000D02*
G75*
G03*
X16090000Y-8670000I-20000J0D01*
G01*
X16090000Y-8750000D02*
G75*
G03*
X16090000Y-8750000I-20000J0D01*
G01*
X16090000Y-8830000D02*
G75*
G03*
X16090000Y-8830000I-20000J0D01*
G01*
X16090000Y-8910000D02*
G75*
G03*
X16090000Y-8910000I-20000J0D01*
G01*
X16140000Y-10120000D02*
G75*
G03*
X16140000Y-10120000I-20000J0D01*
G01*
X16150000Y-10670000D02*
G75*
G03*
X16150000Y-10670000I-20000J0D01*
G01*
X16178162Y-10250000D02*
G75*
G03*
X16178162Y-10250000I-20000J0D01*
G01*
X16188162Y-10350000D02*
G75*
G03*
X16188162Y-10350000I-20000J0D01*
G01*
X16190000Y-10490000D02*
G75*
G03*
X16190000Y-10490000I-20000J0D01*
G01*
X16190000Y-11460000D02*
G75*
G03*
X16190000Y-11460000I-20000J0D01*
G01*
X16230000Y-11230000D02*
G75*
G03*
X16230000Y-11230000I-20000J0D01*
G01*
X16290000Y-11170000D02*
G75*
G03*
X16290000Y-11170000I-20000J0D01*
G01*
X16308162Y-9500000D02*
G75*
G03*
X16308162Y-9500000I-20000J0D01*
G01*
X16308162Y-9610000D02*
G75*
G03*
X16308162Y-9610000I-20000J0D01*
G01*
X16308162Y-9720000D02*
G75*
G03*
X16308162Y-9720000I-20000J0D01*
G01*
X16308162Y-9830000D02*
G75*
G03*
X16308162Y-9830000I-20000J0D01*
G01*
X16310000Y-9380000D02*
G75*
G03*
X16310000Y-9380000I-20000J0D01*
G01*
X16350000Y-11110000D02*
G75*
G03*
X16350000Y-11110000I-20000J0D01*
G01*
X16410000Y-9240000D02*
G75*
G03*
X16410000Y-9240000I-20000J0D01*
G01*
X16495000Y-9240000D02*
G75*
G03*
X16495000Y-9240000I-20000J0D01*
G01*
X16585000Y-9240000D02*
G75*
G03*
X16585000Y-9240000I-20000J0D01*
G01*
X16670000Y-9240000D02*
G75*
G03*
X16670000Y-9240000I-20000J0D01*
G01*
X16755000Y-9240000D02*
G75*
G03*
X16755000Y-9240000I-20000J0D01*
G01*
X16760000Y-10230000D02*
G75*
G03*
X16760000Y-10230000I-20000J0D01*
G01*
X16878162Y-10410000D02*
G75*
G03*
X16878162Y-10410000I-20000J0D01*
G01*
X16880000Y-11240000D02*
G75*
G03*
X16880000Y-11240000I-20000J0D01*
G01*
X16890000Y-10780000D02*
G75*
G03*
X16890000Y-10780000I-20000J0D01*
G01*
X16890000Y-10850000D02*
G75*
G03*
X16890000Y-10850000I-20000J0D01*
G01*
X16898162Y-9910000D02*
G75*
G03*
X16898162Y-9910000I-20000J0D01*
G01*
X16898162Y-10000000D02*
G75*
G03*
X16898162Y-10000000I-20000J0D01*
G01*
X16898162Y-10090000D02*
G75*
G03*
X16898162Y-10090000I-20000J0D01*
G01*
X16940000Y-9560000D02*
G75*
G03*
X16940000Y-9560000I-20000J0D01*
G01*
X16958162Y-10610000D02*
G75*
G03*
X16958162Y-10610000I-20000J0D01*
G01*
X16988162Y-9910000D02*
G75*
G03*
X16988162Y-9910000I-20000J0D01*
G01*
X16988162Y-10000000D02*
G75*
G03*
X16988162Y-10000000I-20000J0D01*
G01*
X16988162Y-10090000D02*
G75*
G03*
X16988162Y-10090000I-20000J0D01*
G01*
X17028162Y-10350000D02*
G75*
G03*
X17028162Y-10350000I-20000J0D01*
G01*
X17068162Y-10610000D02*
G75*
G03*
X17068162Y-10610000I-20000J0D01*
G01*
X17078162Y-9910000D02*
G75*
G03*
X17078162Y-9910000I-20000J0D01*
G01*
X17078162Y-10000000D02*
G75*
G03*
X17078162Y-10000000I-20000J0D01*
G01*
X17078162Y-10090000D02*
G75*
G03*
X17078162Y-10090000I-20000J0D01*
G01*
X17178162Y-10610000D02*
G75*
G03*
X17178162Y-10610000I-20000J0D01*
G01*
X17200000Y-11520000D02*
G75*
G03*
X17200000Y-11520000I-20000J0D01*
G01*
X17200000Y-11600000D02*
G75*
G03*
X17200000Y-11600000I-20000J0D01*
G01*
X17200000Y-11680000D02*
G75*
G03*
X17200000Y-11680000I-20000J0D01*
G01*
X17270000Y-11560000D02*
G75*
G03*
X17270000Y-11560000I-20000J0D01*
G01*
X17270000Y-11640000D02*
G75*
G03*
X17270000Y-11640000I-20000J0D01*
G01*
X17278162Y-9695000D02*
G75*
G03*
X17278162Y-9695000I-20000J0D01*
G01*
X17278162Y-10300000D02*
G75*
G03*
X17278162Y-10300000I-20000J0D01*
G01*
X17288162Y-10610000D02*
G75*
G03*
X17288162Y-10610000I-20000J0D01*
G01*
X17310000Y-10765150D02*
G75*
G03*
X17310000Y-10765150I-20000J0D01*
G01*
X17318162Y-9755000D02*
G75*
G03*
X17318162Y-9755000I-20000J0D01*
G01*
X17318162Y-10240000D02*
G75*
G03*
X17318162Y-10240000I-20000J0D01*
G01*
X17358162Y-9695000D02*
G75*
G03*
X17358162Y-9695000I-20000J0D01*
G01*
X17358162Y-10300000D02*
G75*
G03*
X17358162Y-10300000I-20000J0D01*
G01*
X17398162Y-9755000D02*
G75*
G03*
X17398162Y-9755000I-20000J0D01*
G01*
X17398162Y-10240000D02*
G75*
G03*
X17398162Y-10240000I-20000J0D01*
G01*
X17398162Y-10610000D02*
G75*
G03*
X17398162Y-10610000I-20000J0D01*
G01*
X17400000Y-11720000D02*
G75*
G03*
X17400000Y-11720000I-20000J0D01*
G01*
X17410000Y-11640000D02*
G75*
G03*
X17410000Y-11640000I-20000J0D01*
G01*
X17420000Y-11560000D02*
G75*
G03*
X17420000Y-11560000I-20000J0D01*
G01*
X17460000Y-11770000D02*
G75*
G03*
X17460000Y-11770000I-20000J0D01*
G01*
X17470000Y-11690000D02*
G75*
G03*
X17470000Y-11690000I-20000J0D01*
G01*
X17478211Y-9755000D02*
G75*
G03*
X17478211Y-9755000I-20000J0D01*
G01*
X17478211Y-10240000D02*
G75*
G03*
X17478211Y-10240000I-20000J0D01*
G01*
X17480000Y-11610000D02*
G75*
G03*
X17480000Y-11610000I-20000J0D01*
G01*
X17508162Y-10610000D02*
G75*
G03*
X17508162Y-10610000I-20000J0D01*
G01*
X17558162Y-10240000D02*
G75*
G03*
X17558162Y-10240000I-20000J0D01*
G01*
X17618162Y-10610000D02*
G75*
G03*
X17618162Y-10610000I-20000J0D01*
G01*
X17628162Y-9760000D02*
G75*
G03*
X17628162Y-9760000I-20000J0D01*
G01*
X17633162Y-10240000D02*
G75*
G03*
X17633162Y-10240000I-20000J0D01*
G01*
X17668162Y-9700000D02*
G75*
G03*
X17668162Y-9700000I-20000J0D01*
G01*
X17668162Y-9820000D02*
G75*
G03*
X17668162Y-9820000I-20000J0D01*
G01*
X17673162Y-10305000D02*
G75*
G03*
X17673162Y-10305000I-20000J0D01*
G01*
X17703162Y-9760000D02*
G75*
G03*
X17703162Y-9760000I-20000J0D01*
G01*
X17708162Y-10240000D02*
G75*
G03*
X17708162Y-10240000I-20000J0D01*
G01*
X18110000Y-10840000D02*
G75*
G03*
X18110000Y-10840000I-20000J0D01*
G01*
X18130000Y-11360000D02*
G75*
G03*
X18130000Y-11360000I-20000J0D01*
G01*
D14*
X14028000Y-11422500D02*
X14028000Y-11482500D01*
X13998000Y-11452500D02*
X14058000Y-11452500D01*
D11*
X13998000Y-11402500D02*
X13998000Y-11502500D01*
X13998000Y-11502500D02*
G75*
G03*
X14058000Y-11502500I30000J0D01*
G01*
X14058000Y-11502500D02*
X14058000Y-11402500D01*
X14058000Y-11402500D02*
G75*
G03*
X13998000Y-11402500I-30000J0D01*
G01*
D14*
X14028000Y-11805000D02*
X14028000Y-11865000D01*
X13998000Y-11835000D02*
X14058000Y-11835000D01*
D11*
X13998000Y-11770000D02*
X13998000Y-11900000D01*
X13998000Y-11900000D02*
G75*
G03*
X14058000Y-11900000I30000J0D01*
G01*
X14058000Y-11900000D02*
X14058000Y-11770000D01*
X14058000Y-11770000D02*
G75*
G03*
X13998000Y-11770000I-30000J0D01*
G01*
D14*
X14892000Y-11422500D02*
X14892000Y-11482500D01*
X14862000Y-11452500D02*
X14922000Y-11452500D01*
D11*
X14862000Y-11402500D02*
X14862000Y-11502500D01*
X14862000Y-11502500D02*
G75*
G03*
X14922000Y-11502500I30000J0D01*
G01*
X14922000Y-11502500D02*
X14922000Y-11402500D01*
X14922000Y-11402500D02*
G75*
G03*
X14862000Y-11402500I-30000J0D01*
G01*
D14*
X14892000Y-11805000D02*
X14892000Y-11865000D01*
X14862000Y-11835000D02*
X14922000Y-11835000D01*
D11*
X14862000Y-11770000D02*
X14862000Y-11900000D01*
X14862000Y-11900000D02*
G75*
G03*
X14922000Y-11900000I30000J0D01*
G01*
X14922000Y-11900000D02*
X14922000Y-11770000D01*
X14922000Y-11770000D02*
G75*
G03*
X14862000Y-11770000I-30000J0D01*
G01*
D15*
X12725981Y-8355981D02*
X12725981Y-8310019D01*
X12680019Y-8310019D01*
X12680019Y-8355981D01*
X12725981Y-8355981D01*
X12725981Y-8482981D02*
X12725981Y-8437019D01*
X12680019Y-8437019D01*
X12680019Y-8482981D01*
X12725981Y-8482981D01*
X12725981Y-8609981D02*
X12725981Y-8564019D01*
X12680019Y-8564019D01*
X12680019Y-8609981D01*
X12725981Y-8609981D01*
X12852981Y-8355981D02*
X12852981Y-8310019D01*
X12807019Y-8310019D01*
X12807019Y-8355981D01*
X12852981Y-8355981D01*
X12852981Y-8482981D02*
X12852981Y-8437019D01*
X12807019Y-8437019D01*
X12807019Y-8482981D01*
X12852981Y-8482981D01*
X12852981Y-8609981D02*
X12852981Y-8564019D01*
X12807019Y-8564019D01*
X12807019Y-8609981D01*
X12852981Y-8609981D01*
D16*
X17900000Y-8847500D02*
X17937500Y-8810000D01*
X17900000Y-8772500D01*
X17862500Y-8810000D01*
X17900000Y-8847500D01*
X17900000Y-9047500D02*
X17937500Y-9010000D01*
X17900000Y-8972500D01*
X17862500Y-9010000D01*
X17900000Y-9047500D01*
X17900000Y-9247500D02*
X17937500Y-9210000D01*
X17900000Y-9172500D01*
X17862500Y-9210000D01*
X17900000Y-9247500D01*
X18013162Y-9737500D02*
X18050662Y-9700000D01*
X18013162Y-9662500D01*
X17975662Y-9700000D01*
X18013162Y-9737500D01*
X18013162Y-9937500D02*
X18050662Y-9900000D01*
X18013162Y-9862500D01*
X17975662Y-9900000D01*
X18013162Y-9937500D01*
X18013162Y-10137500D02*
X18050662Y-10100000D01*
X18013162Y-10062500D01*
X17975662Y-10100000D01*
X18013162Y-10137500D01*
X18013162Y-10337500D02*
X18050662Y-10300000D01*
X18013162Y-10262500D01*
X17975662Y-10300000D01*
X18013162Y-10337500D01*
D17*
X15406645Y-11360470D02*
X15505705Y-11459530D01*
X15505705Y-11360470D02*
X15406645Y-11459530D01*
X15505705Y-11410000D02*
G75*
G03*
X15505705Y-11410000I-49530J0D01*
G01*
X15856645Y-11360470D02*
X15955705Y-11459530D01*
X15955705Y-11360470D02*
X15856645Y-11459530D01*
X15955705Y-11410000D02*
G75*
G03*
X15955705Y-11410000I-49530J0D01*
G01*
D18*
X15265905Y-11096200D02*
X15395445Y-11225740D01*
X15395445Y-11096200D02*
X15265905Y-11225740D01*
X15330675Y-11096200D02*
X15330675Y-11225740D01*
X15265905Y-11160970D02*
X15395445Y-11160970D01*
X15966905Y-11096200D02*
X16096445Y-11225740D01*
X16096445Y-11096200D02*
X15966905Y-11225740D01*
X16031675Y-11096200D02*
X16031675Y-11225740D01*
X15966905Y-11160970D02*
X16096445Y-11160970D01*
D19*
X11940000Y-8090000D02*
X12260000Y-8410000D01*
X12260000Y-8090000D02*
X11940000Y-8410000D01*
X12213138Y-8363138D02*
X12213138Y-8136862D01*
X11986862Y-8136862D01*
X11986862Y-8363138D01*
X12213138Y-8363138D01*
X11940000Y-11590000D02*
X12260000Y-11910000D01*
X12260000Y-11590000D02*
X11940000Y-11910000D01*
X12213138Y-11863138D02*
X12213138Y-11636862D01*
X11986862Y-11636862D01*
X11986862Y-11863138D01*
X12213138Y-11863138D01*
X13290000Y-8290000D02*
X13610000Y-8610000D01*
X13610000Y-8290000D02*
X13290000Y-8610000D01*
X13563138Y-8563138D02*
X13563138Y-8336862D01*
X13336862Y-8336862D01*
X13336862Y-8563138D01*
X13563138Y-8563138D01*
X13290000Y-11390000D02*
X13610000Y-11710000D01*
X13610000Y-11390000D02*
X13290000Y-11710000D01*
X13563138Y-11663138D02*
X13563138Y-11436862D01*
X13336862Y-11436862D01*
X13336862Y-11663138D01*
X13563138Y-11663138D01*
X16390000Y-11390000D02*
X16710000Y-11710000D01*
X16710000Y-11390000D02*
X16390000Y-11710000D01*
X16663138Y-11663138D02*
X16663138Y-11436862D01*
X16436862Y-11436862D01*
X16436862Y-11663138D01*
X16663138Y-11663138D01*
X16397500Y-8290000D02*
X16717500Y-8610000D01*
X16717500Y-8290000D02*
X16397500Y-8610000D01*
X16670638Y-8563138D02*
X16670638Y-8336862D01*
X16444362Y-8336862D01*
X16444362Y-8563138D01*
X16670638Y-8563138D01*
X17740000Y-8090000D02*
X18060000Y-8410000D01*
X18060000Y-8090000D02*
X17740000Y-8410000D01*
X18013138Y-8363138D02*
X18013138Y-8136862D01*
X17786862Y-8136862D01*
X17786862Y-8363138D01*
X18013138Y-8363138D01*
X17740000Y-11590000D02*
X18060000Y-11910000D01*
X18060000Y-11590000D02*
X17740000Y-11910000D01*
X18013138Y-11863138D02*
X18013138Y-11636862D01*
X17786862Y-11636862D01*
X17786862Y-11863138D01*
X18013138Y-11863138D01*
D11*
X12008277Y-12413984D02*
X12008277Y-12213984D01*
X12008277Y-12213984D02*
X12055896Y-12213984D01*
X12055896Y-12213984D02*
X12084467Y-12223508D01*
X12084467Y-12223508D02*
X12103515Y-12242555D01*
X12103515Y-12242555D02*
X12113039Y-12261603D01*
X12113039Y-12261603D02*
X12122562Y-12299698D01*
X12122562Y-12299698D02*
X12122562Y-12328269D01*
X12122562Y-12328269D02*
X12113039Y-12366365D01*
X12113039Y-12366365D02*
X12103515Y-12385412D01*
X12103515Y-12385412D02*
X12084467Y-12404460D01*
X12084467Y-12404460D02*
X12055896Y-12413984D01*
X12055896Y-12413984D02*
X12008277Y-12413984D01*
X12208277Y-12413984D02*
X12208277Y-12280650D01*
X12208277Y-12318746D02*
X12217801Y-12299698D01*
X12217801Y-12299698D02*
X12227324Y-12290174D01*
X12227324Y-12290174D02*
X12246372Y-12280650D01*
X12246372Y-12280650D02*
X12265420Y-12280650D01*
X12332086Y-12413984D02*
X12332086Y-12280650D01*
X12332086Y-12213984D02*
X12322562Y-12223508D01*
X12322562Y-12223508D02*
X12332086Y-12233031D01*
X12332086Y-12233031D02*
X12341610Y-12223508D01*
X12341610Y-12223508D02*
X12332086Y-12213984D01*
X12332086Y-12213984D02*
X12332086Y-12233031D01*
X12455896Y-12413984D02*
X12436848Y-12404460D01*
X12436848Y-12404460D02*
X12427324Y-12385412D01*
X12427324Y-12385412D02*
X12427324Y-12213984D01*
X12560658Y-12413984D02*
X12541610Y-12404460D01*
X12541610Y-12404460D02*
X12532086Y-12385412D01*
X12532086Y-12385412D02*
X12532086Y-12213984D01*
X12789229Y-12413984D02*
X12789229Y-12213984D01*
X12789229Y-12213984D02*
X12855896Y-12356841D01*
X12855896Y-12356841D02*
X12922562Y-12213984D01*
X12922562Y-12213984D02*
X12922562Y-12413984D01*
X13103515Y-12413984D02*
X13103515Y-12309222D01*
X13103515Y-12309222D02*
X13093991Y-12290174D01*
X13093991Y-12290174D02*
X13074943Y-12280650D01*
X13074943Y-12280650D02*
X13036848Y-12280650D01*
X13036848Y-12280650D02*
X13017801Y-12290174D01*
X13103515Y-12404460D02*
X13084467Y-12413984D01*
X13084467Y-12413984D02*
X13036848Y-12413984D01*
X13036848Y-12413984D02*
X13017801Y-12404460D01*
X13017801Y-12404460D02*
X13008277Y-12385412D01*
X13008277Y-12385412D02*
X13008277Y-12366365D01*
X13008277Y-12366365D02*
X13017801Y-12347317D01*
X13017801Y-12347317D02*
X13036848Y-12337793D01*
X13036848Y-12337793D02*
X13084467Y-12337793D01*
X13084467Y-12337793D02*
X13103515Y-12328269D01*
X13198753Y-12280650D02*
X13198753Y-12480650D01*
X13198753Y-12290174D02*
X13217801Y-12280650D01*
X13217801Y-12280650D02*
X13255896Y-12280650D01*
X13255896Y-12280650D02*
X13274943Y-12290174D01*
X13274943Y-12290174D02*
X13284467Y-12299698D01*
X13284467Y-12299698D02*
X13293991Y-12318746D01*
X13293991Y-12318746D02*
X13293991Y-12375888D01*
X13293991Y-12375888D02*
X13284467Y-12394936D01*
X13284467Y-12394936D02*
X13274943Y-12404460D01*
X13274943Y-12404460D02*
X13255896Y-12413984D01*
X13255896Y-12413984D02*
X13217801Y-12413984D01*
X13217801Y-12413984D02*
X13198753Y-12404460D01*
X13379705Y-12394936D02*
X13389229Y-12404460D01*
X13389229Y-12404460D02*
X13379705Y-12413984D01*
X13379705Y-12413984D02*
X13370182Y-12404460D01*
X13370182Y-12404460D02*
X13379705Y-12394936D01*
X13379705Y-12394936D02*
X13379705Y-12413984D01*
X13379705Y-12290174D02*
X13389229Y-12299698D01*
X13389229Y-12299698D02*
X13379705Y-12309222D01*
X13379705Y-12309222D02*
X13370182Y-12299698D01*
X13370182Y-12299698D02*
X13379705Y-12290174D01*
X13379705Y-12290174D02*
X13379705Y-12309222D01*
D12*
X11727500Y-12732500D02*
X11747500Y-12752500D01*
X11747500Y-12732500D02*
X11727500Y-12752500D01*
D11*
X12046372Y-12633984D02*
X12065420Y-12633984D01*
X12065420Y-12633984D02*
X12084467Y-12643508D01*
X12084467Y-12643508D02*
X12093991Y-12653031D01*
X12093991Y-12653031D02*
X12103515Y-12672079D01*
X12103515Y-12672079D02*
X12113039Y-12710174D01*
X12113039Y-12710174D02*
X12113039Y-12757793D01*
X12113039Y-12757793D02*
X12103515Y-12795888D01*
X12103515Y-12795888D02*
X12093991Y-12814936D01*
X12093991Y-12814936D02*
X12084467Y-12824460D01*
X12084467Y-12824460D02*
X12065420Y-12833984D01*
X12065420Y-12833984D02*
X12046372Y-12833984D01*
X12046372Y-12833984D02*
X12027324Y-12824460D01*
X12027324Y-12824460D02*
X12017801Y-12814936D01*
X12017801Y-12814936D02*
X12008277Y-12795888D01*
X12008277Y-12795888D02*
X11998753Y-12757793D01*
X11998753Y-12757793D02*
X11998753Y-12710174D01*
X11998753Y-12710174D02*
X12008277Y-12672079D01*
X12008277Y-12672079D02*
X12017801Y-12653031D01*
X12017801Y-12653031D02*
X12027324Y-12643508D01*
X12027324Y-12643508D02*
X12046372Y-12633984D01*
X12198753Y-12814936D02*
X12208277Y-12824460D01*
X12208277Y-12824460D02*
X12198753Y-12833984D01*
X12198753Y-12833984D02*
X12189229Y-12824460D01*
X12189229Y-12824460D02*
X12198753Y-12814936D01*
X12198753Y-12814936D02*
X12198753Y-12833984D01*
X12284467Y-12653031D02*
X12293991Y-12643508D01*
X12293991Y-12643508D02*
X12313039Y-12633984D01*
X12313039Y-12633984D02*
X12360658Y-12633984D01*
X12360658Y-12633984D02*
X12379705Y-12643508D01*
X12379705Y-12643508D02*
X12389229Y-12653031D01*
X12389229Y-12653031D02*
X12398753Y-12672079D01*
X12398753Y-12672079D02*
X12398753Y-12691127D01*
X12398753Y-12691127D02*
X12389229Y-12719698D01*
X12389229Y-12719698D02*
X12274943Y-12833984D01*
X12274943Y-12833984D02*
X12398753Y-12833984D01*
X12522562Y-12633984D02*
X12541610Y-12633984D01*
X12541610Y-12633984D02*
X12560658Y-12643508D01*
X12560658Y-12643508D02*
X12570182Y-12653031D01*
X12570182Y-12653031D02*
X12579705Y-12672079D01*
X12579705Y-12672079D02*
X12589229Y-12710174D01*
X12589229Y-12710174D02*
X12589229Y-12757793D01*
X12589229Y-12757793D02*
X12579705Y-12795888D01*
X12579705Y-12795888D02*
X12570182Y-12814936D01*
X12570182Y-12814936D02*
X12560658Y-12824460D01*
X12560658Y-12824460D02*
X12541610Y-12833984D01*
X12541610Y-12833984D02*
X12522562Y-12833984D01*
X12522562Y-12833984D02*
X12503515Y-12824460D01*
X12503515Y-12824460D02*
X12493991Y-12814936D01*
X12493991Y-12814936D02*
X12484467Y-12795888D01*
X12484467Y-12795888D02*
X12474943Y-12757793D01*
X12474943Y-12757793D02*
X12474943Y-12710174D01*
X12474943Y-12710174D02*
X12484467Y-12672079D01*
X12484467Y-12672079D02*
X12493991Y-12653031D01*
X12493991Y-12653031D02*
X12503515Y-12643508D01*
X12503515Y-12643508D02*
X12522562Y-12633984D01*
X12713039Y-12633984D02*
X12732086Y-12633984D01*
X12732086Y-12633984D02*
X12751134Y-12643508D01*
X12751134Y-12643508D02*
X12760658Y-12653031D01*
X12760658Y-12653031D02*
X12770182Y-12672079D01*
X12770182Y-12672079D02*
X12779705Y-12710174D01*
X12779705Y-12710174D02*
X12779705Y-12757793D01*
X12779705Y-12757793D02*
X12770182Y-12795888D01*
X12770182Y-12795888D02*
X12760658Y-12814936D01*
X12760658Y-12814936D02*
X12751134Y-12824460D01*
X12751134Y-12824460D02*
X12732086Y-12833984D01*
X12732086Y-12833984D02*
X12713039Y-12833984D01*
X12713039Y-12833984D02*
X12693991Y-12824460D01*
X12693991Y-12824460D02*
X12684467Y-12814936D01*
X12684467Y-12814936D02*
X12674943Y-12795888D01*
X12674943Y-12795888D02*
X12665420Y-12757793D01*
X12665420Y-12757793D02*
X12665420Y-12710174D01*
X12665420Y-12710174D02*
X12674943Y-12672079D01*
X12674943Y-12672079D02*
X12684467Y-12653031D01*
X12684467Y-12653031D02*
X12693991Y-12643508D01*
X12693991Y-12643508D02*
X12713039Y-12633984D01*
X12865420Y-12833984D02*
X12865420Y-12700650D01*
X12865420Y-12719698D02*
X12874943Y-12710174D01*
X12874943Y-12710174D02*
X12893991Y-12700650D01*
X12893991Y-12700650D02*
X12922563Y-12700650D01*
X12922563Y-12700650D02*
X12941610Y-12710174D01*
X12941610Y-12710174D02*
X12951134Y-12729222D01*
X12951134Y-12729222D02*
X12951134Y-12833984D01*
X12951134Y-12729222D02*
X12960658Y-12710174D01*
X12960658Y-12710174D02*
X12979705Y-12700650D01*
X12979705Y-12700650D02*
X13008277Y-12700650D01*
X13008277Y-12700650D02*
X13027324Y-12710174D01*
X13027324Y-12710174D02*
X13036848Y-12729222D01*
X13036848Y-12729222D02*
X13036848Y-12833984D01*
X13132086Y-12833984D02*
X13132086Y-12700650D01*
X13132086Y-12719698D02*
X13141610Y-12710174D01*
X13141610Y-12710174D02*
X13160658Y-12700650D01*
X13160658Y-12700650D02*
X13189229Y-12700650D01*
X13189229Y-12700650D02*
X13208277Y-12710174D01*
X13208277Y-12710174D02*
X13217801Y-12729222D01*
X13217801Y-12729222D02*
X13217801Y-12833984D01*
X13217801Y-12729222D02*
X13227324Y-12710174D01*
X13227324Y-12710174D02*
X13246372Y-12700650D01*
X13246372Y-12700650D02*
X13274943Y-12700650D01*
X13274943Y-12700650D02*
X13293991Y-12710174D01*
X13293991Y-12710174D02*
X13303515Y-12729222D01*
X13303515Y-12729222D02*
X13303515Y-12833984D01*
X13693991Y-12624460D02*
X13522563Y-12881603D01*
X13951134Y-12633984D02*
X13970182Y-12633984D01*
X13970182Y-12633984D02*
X13989229Y-12643508D01*
X13989229Y-12643508D02*
X13998753Y-12653031D01*
X13998753Y-12653031D02*
X14008277Y-12672079D01*
X14008277Y-12672079D02*
X14017801Y-12710174D01*
X14017801Y-12710174D02*
X14017801Y-12757793D01*
X14017801Y-12757793D02*
X14008277Y-12795888D01*
X14008277Y-12795888D02*
X13998753Y-12814936D01*
X13998753Y-12814936D02*
X13989229Y-12824460D01*
X13989229Y-12824460D02*
X13970182Y-12833984D01*
X13970182Y-12833984D02*
X13951134Y-12833984D01*
X13951134Y-12833984D02*
X13932086Y-12824460D01*
X13932086Y-12824460D02*
X13922563Y-12814936D01*
X13922563Y-12814936D02*
X13913039Y-12795888D01*
X13913039Y-12795888D02*
X13903515Y-12757793D01*
X13903515Y-12757793D02*
X13903515Y-12710174D01*
X13903515Y-12710174D02*
X13913039Y-12672079D01*
X13913039Y-12672079D02*
X13922563Y-12653031D01*
X13922563Y-12653031D02*
X13932086Y-12643508D01*
X13932086Y-12643508D02*
X13951134Y-12633984D01*
X14103515Y-12814936D02*
X14113039Y-12824460D01*
X14113039Y-12824460D02*
X14103515Y-12833984D01*
X14103515Y-12833984D02*
X14093991Y-12824460D01*
X14093991Y-12824460D02*
X14103515Y-12814936D01*
X14103515Y-12814936D02*
X14103515Y-12833984D01*
X14236848Y-12633984D02*
X14255896Y-12633984D01*
X14255896Y-12633984D02*
X14274944Y-12643508D01*
X14274944Y-12643508D02*
X14284467Y-12653031D01*
X14284467Y-12653031D02*
X14293991Y-12672079D01*
X14293991Y-12672079D02*
X14303515Y-12710174D01*
X14303515Y-12710174D02*
X14303515Y-12757793D01*
X14303515Y-12757793D02*
X14293991Y-12795888D01*
X14293991Y-12795888D02*
X14284467Y-12814936D01*
X14284467Y-12814936D02*
X14274944Y-12824460D01*
X14274944Y-12824460D02*
X14255896Y-12833984D01*
X14255896Y-12833984D02*
X14236848Y-12833984D01*
X14236848Y-12833984D02*
X14217801Y-12824460D01*
X14217801Y-12824460D02*
X14208277Y-12814936D01*
X14208277Y-12814936D02*
X14198753Y-12795888D01*
X14198753Y-12795888D02*
X14189229Y-12757793D01*
X14189229Y-12757793D02*
X14189229Y-12710174D01*
X14189229Y-12710174D02*
X14198753Y-12672079D01*
X14198753Y-12672079D02*
X14208277Y-12653031D01*
X14208277Y-12653031D02*
X14217801Y-12643508D01*
X14217801Y-12643508D02*
X14236848Y-12633984D01*
X14427325Y-12633984D02*
X14446372Y-12633984D01*
X14446372Y-12633984D02*
X14465420Y-12643508D01*
X14465420Y-12643508D02*
X14474944Y-12653031D01*
X14474944Y-12653031D02*
X14484467Y-12672079D01*
X14484467Y-12672079D02*
X14493991Y-12710174D01*
X14493991Y-12710174D02*
X14493991Y-12757793D01*
X14493991Y-12757793D02*
X14484467Y-12795888D01*
X14484467Y-12795888D02*
X14474944Y-12814936D01*
X14474944Y-12814936D02*
X14465420Y-12824460D01*
X14465420Y-12824460D02*
X14446372Y-12833984D01*
X14446372Y-12833984D02*
X14427325Y-12833984D01*
X14427325Y-12833984D02*
X14408277Y-12824460D01*
X14408277Y-12824460D02*
X14398753Y-12814936D01*
X14398753Y-12814936D02*
X14389229Y-12795888D01*
X14389229Y-12795888D02*
X14379706Y-12757793D01*
X14379706Y-12757793D02*
X14379706Y-12710174D01*
X14379706Y-12710174D02*
X14389229Y-12672079D01*
X14389229Y-12672079D02*
X14398753Y-12653031D01*
X14398753Y-12653031D02*
X14408277Y-12643508D01*
X14408277Y-12643508D02*
X14427325Y-12633984D01*
X14560658Y-12633984D02*
X14693991Y-12633984D01*
X14693991Y-12633984D02*
X14608277Y-12833984D01*
X14779706Y-12833984D02*
X14817801Y-12833984D01*
X14817801Y-12833984D02*
X14836848Y-12824460D01*
X14836848Y-12824460D02*
X14846372Y-12814936D01*
X14846372Y-12814936D02*
X14865420Y-12786365D01*
X14865420Y-12786365D02*
X14874944Y-12748269D01*
X14874944Y-12748269D02*
X14874944Y-12672079D01*
X14874944Y-12672079D02*
X14865420Y-12653031D01*
X14865420Y-12653031D02*
X14855896Y-12643508D01*
X14855896Y-12643508D02*
X14836848Y-12633984D01*
X14836848Y-12633984D02*
X14798753Y-12633984D01*
X14798753Y-12633984D02*
X14779706Y-12643508D01*
X14779706Y-12643508D02*
X14770182Y-12653031D01*
X14770182Y-12653031D02*
X14760658Y-12672079D01*
X14760658Y-12672079D02*
X14760658Y-12719698D01*
X14760658Y-12719698D02*
X14770182Y-12738746D01*
X14770182Y-12738746D02*
X14779706Y-12748269D01*
X14779706Y-12748269D02*
X14798753Y-12757793D01*
X14798753Y-12757793D02*
X14836848Y-12757793D01*
X14836848Y-12757793D02*
X14855896Y-12748269D01*
X14855896Y-12748269D02*
X14865420Y-12738746D01*
X14865420Y-12738746D02*
X14874944Y-12719698D01*
X14951134Y-12633984D02*
X14951134Y-12672079D01*
X15027325Y-12633984D02*
X15027325Y-12672079D01*
X15322563Y-12910174D02*
X15313039Y-12900650D01*
X15313039Y-12900650D02*
X15293991Y-12872079D01*
X15293991Y-12872079D02*
X15284468Y-12853031D01*
X15284468Y-12853031D02*
X15274944Y-12824460D01*
X15274944Y-12824460D02*
X15265420Y-12776841D01*
X15265420Y-12776841D02*
X15265420Y-12738746D01*
X15265420Y-12738746D02*
X15274944Y-12691127D01*
X15274944Y-12691127D02*
X15284468Y-12662555D01*
X15284468Y-12662555D02*
X15293991Y-12643508D01*
X15293991Y-12643508D02*
X15313039Y-12614936D01*
X15313039Y-12614936D02*
X15322563Y-12605412D01*
X15503515Y-12833984D02*
X15389229Y-12833984D01*
X15446372Y-12833984D02*
X15446372Y-12633984D01*
X15446372Y-12633984D02*
X15427325Y-12662555D01*
X15427325Y-12662555D02*
X15408277Y-12681603D01*
X15408277Y-12681603D02*
X15389229Y-12691127D01*
X15684468Y-12633984D02*
X15589229Y-12633984D01*
X15589229Y-12633984D02*
X15579706Y-12729222D01*
X15579706Y-12729222D02*
X15589229Y-12719698D01*
X15589229Y-12719698D02*
X15608277Y-12710174D01*
X15608277Y-12710174D02*
X15655896Y-12710174D01*
X15655896Y-12710174D02*
X15674944Y-12719698D01*
X15674944Y-12719698D02*
X15684468Y-12729222D01*
X15684468Y-12729222D02*
X15693991Y-12748269D01*
X15693991Y-12748269D02*
X15693991Y-12795888D01*
X15693991Y-12795888D02*
X15684468Y-12814936D01*
X15684468Y-12814936D02*
X15674944Y-12824460D01*
X15674944Y-12824460D02*
X15655896Y-12833984D01*
X15655896Y-12833984D02*
X15608277Y-12833984D01*
X15608277Y-12833984D02*
X15589229Y-12824460D01*
X15589229Y-12824460D02*
X15579706Y-12814936D01*
X15932087Y-12833984D02*
X15932087Y-12633984D01*
X16017801Y-12833984D02*
X16017801Y-12729222D01*
X16017801Y-12729222D02*
X16008277Y-12710174D01*
X16008277Y-12710174D02*
X15989230Y-12700650D01*
X15989230Y-12700650D02*
X15960658Y-12700650D01*
X15960658Y-12700650D02*
X15941610Y-12710174D01*
X15941610Y-12710174D02*
X15932087Y-12719698D01*
X16141610Y-12833984D02*
X16122563Y-12824460D01*
X16122563Y-12824460D02*
X16113039Y-12814936D01*
X16113039Y-12814936D02*
X16103515Y-12795888D01*
X16103515Y-12795888D02*
X16103515Y-12738746D01*
X16103515Y-12738746D02*
X16113039Y-12719698D01*
X16113039Y-12719698D02*
X16122563Y-12710174D01*
X16122563Y-12710174D02*
X16141610Y-12700650D01*
X16141610Y-12700650D02*
X16170182Y-12700650D01*
X16170182Y-12700650D02*
X16189230Y-12710174D01*
X16189230Y-12710174D02*
X16198753Y-12719698D01*
X16198753Y-12719698D02*
X16208277Y-12738746D01*
X16208277Y-12738746D02*
X16208277Y-12795888D01*
X16208277Y-12795888D02*
X16198753Y-12814936D01*
X16198753Y-12814936D02*
X16189230Y-12824460D01*
X16189230Y-12824460D02*
X16170182Y-12833984D01*
X16170182Y-12833984D02*
X16141610Y-12833984D01*
X16322563Y-12833984D02*
X16303515Y-12824460D01*
X16303515Y-12824460D02*
X16293991Y-12805412D01*
X16293991Y-12805412D02*
X16293991Y-12633984D01*
X16474944Y-12824460D02*
X16455896Y-12833984D01*
X16455896Y-12833984D02*
X16417801Y-12833984D01*
X16417801Y-12833984D02*
X16398753Y-12824460D01*
X16398753Y-12824460D02*
X16389230Y-12805412D01*
X16389230Y-12805412D02*
X16389230Y-12729222D01*
X16389230Y-12729222D02*
X16398753Y-12710174D01*
X16398753Y-12710174D02*
X16417801Y-12700650D01*
X16417801Y-12700650D02*
X16455896Y-12700650D01*
X16455896Y-12700650D02*
X16474944Y-12710174D01*
X16474944Y-12710174D02*
X16484468Y-12729222D01*
X16484468Y-12729222D02*
X16484468Y-12748269D01*
X16484468Y-12748269D02*
X16389230Y-12767317D01*
X16560658Y-12824460D02*
X16579706Y-12833984D01*
X16579706Y-12833984D02*
X16617801Y-12833984D01*
X16617801Y-12833984D02*
X16636849Y-12824460D01*
X16636849Y-12824460D02*
X16646372Y-12805412D01*
X16646372Y-12805412D02*
X16646372Y-12795888D01*
X16646372Y-12795888D02*
X16636849Y-12776841D01*
X16636849Y-12776841D02*
X16617801Y-12767317D01*
X16617801Y-12767317D02*
X16589230Y-12767317D01*
X16589230Y-12767317D02*
X16570182Y-12757793D01*
X16570182Y-12757793D02*
X16560658Y-12738746D01*
X16560658Y-12738746D02*
X16560658Y-12729222D01*
X16560658Y-12729222D02*
X16570182Y-12710174D01*
X16570182Y-12710174D02*
X16589230Y-12700650D01*
X16589230Y-12700650D02*
X16617801Y-12700650D01*
X16617801Y-12700650D02*
X16636849Y-12710174D01*
X16713039Y-12910174D02*
X16722563Y-12900650D01*
X16722563Y-12900650D02*
X16741611Y-12872079D01*
X16741611Y-12872079D02*
X16751134Y-12853031D01*
X16751134Y-12853031D02*
X16760658Y-12824460D01*
X16760658Y-12824460D02*
X16770182Y-12776841D01*
X16770182Y-12776841D02*
X16770182Y-12738746D01*
X16770182Y-12738746D02*
X16760658Y-12691127D01*
X16760658Y-12691127D02*
X16751134Y-12662555D01*
X16751134Y-12662555D02*
X16741611Y-12643508D01*
X16741611Y-12643508D02*
X16722563Y-12614936D01*
X16722563Y-12614936D02*
X16713039Y-12605412D01*
D13*
X11747500Y-13006500D02*
G75*
G03*
X11747500Y-13006500I-20000J0D01*
G01*
D11*
X12046372Y-12897984D02*
X12065420Y-12897984D01*
X12065420Y-12897984D02*
X12084467Y-12907508D01*
X12084467Y-12907508D02*
X12093991Y-12917031D01*
X12093991Y-12917031D02*
X12103515Y-12936079D01*
X12103515Y-12936079D02*
X12113039Y-12974174D01*
X12113039Y-12974174D02*
X12113039Y-13021793D01*
X12113039Y-13021793D02*
X12103515Y-13059888D01*
X12103515Y-13059888D02*
X12093991Y-13078936D01*
X12093991Y-13078936D02*
X12084467Y-13088460D01*
X12084467Y-13088460D02*
X12065420Y-13097984D01*
X12065420Y-13097984D02*
X12046372Y-13097984D01*
X12046372Y-13097984D02*
X12027324Y-13088460D01*
X12027324Y-13088460D02*
X12017801Y-13078936D01*
X12017801Y-13078936D02*
X12008277Y-13059888D01*
X12008277Y-13059888D02*
X11998753Y-13021793D01*
X11998753Y-13021793D02*
X11998753Y-12974174D01*
X11998753Y-12974174D02*
X12008277Y-12936079D01*
X12008277Y-12936079D02*
X12017801Y-12917031D01*
X12017801Y-12917031D02*
X12027324Y-12907508D01*
X12027324Y-12907508D02*
X12046372Y-12897984D01*
X12198753Y-13078936D02*
X12208277Y-13088460D01*
X12208277Y-13088460D02*
X12198753Y-13097984D01*
X12198753Y-13097984D02*
X12189229Y-13088460D01*
X12189229Y-13088460D02*
X12198753Y-13078936D01*
X12198753Y-13078936D02*
X12198753Y-13097984D01*
X12379705Y-12964650D02*
X12379705Y-13097984D01*
X12332086Y-12888460D02*
X12284467Y-13031317D01*
X12284467Y-13031317D02*
X12408277Y-13031317D01*
X12522562Y-12897984D02*
X12541610Y-12897984D01*
X12541610Y-12897984D02*
X12560658Y-12907508D01*
X12560658Y-12907508D02*
X12570182Y-12917031D01*
X12570182Y-12917031D02*
X12579705Y-12936079D01*
X12579705Y-12936079D02*
X12589229Y-12974174D01*
X12589229Y-12974174D02*
X12589229Y-13021793D01*
X12589229Y-13021793D02*
X12579705Y-13059888D01*
X12579705Y-13059888D02*
X12570182Y-13078936D01*
X12570182Y-13078936D02*
X12560658Y-13088460D01*
X12560658Y-13088460D02*
X12541610Y-13097984D01*
X12541610Y-13097984D02*
X12522562Y-13097984D01*
X12522562Y-13097984D02*
X12503515Y-13088460D01*
X12503515Y-13088460D02*
X12493991Y-13078936D01*
X12493991Y-13078936D02*
X12484467Y-13059888D01*
X12484467Y-13059888D02*
X12474943Y-13021793D01*
X12474943Y-13021793D02*
X12474943Y-12974174D01*
X12474943Y-12974174D02*
X12484467Y-12936079D01*
X12484467Y-12936079D02*
X12493991Y-12917031D01*
X12493991Y-12917031D02*
X12503515Y-12907508D01*
X12503515Y-12907508D02*
X12522562Y-12897984D01*
X12713039Y-12897984D02*
X12732086Y-12897984D01*
X12732086Y-12897984D02*
X12751134Y-12907508D01*
X12751134Y-12907508D02*
X12760658Y-12917031D01*
X12760658Y-12917031D02*
X12770182Y-12936079D01*
X12770182Y-12936079D02*
X12779705Y-12974174D01*
X12779705Y-12974174D02*
X12779705Y-13021793D01*
X12779705Y-13021793D02*
X12770182Y-13059888D01*
X12770182Y-13059888D02*
X12760658Y-13078936D01*
X12760658Y-13078936D02*
X12751134Y-13088460D01*
X12751134Y-13088460D02*
X12732086Y-13097984D01*
X12732086Y-13097984D02*
X12713039Y-13097984D01*
X12713039Y-13097984D02*
X12693991Y-13088460D01*
X12693991Y-13088460D02*
X12684467Y-13078936D01*
X12684467Y-13078936D02*
X12674943Y-13059888D01*
X12674943Y-13059888D02*
X12665420Y-13021793D01*
X12665420Y-13021793D02*
X12665420Y-12974174D01*
X12665420Y-12974174D02*
X12674943Y-12936079D01*
X12674943Y-12936079D02*
X12684467Y-12917031D01*
X12684467Y-12917031D02*
X12693991Y-12907508D01*
X12693991Y-12907508D02*
X12713039Y-12897984D01*
X12865420Y-13097984D02*
X12865420Y-12964650D01*
X12865420Y-12983698D02*
X12874943Y-12974174D01*
X12874943Y-12974174D02*
X12893991Y-12964650D01*
X12893991Y-12964650D02*
X12922563Y-12964650D01*
X12922563Y-12964650D02*
X12941610Y-12974174D01*
X12941610Y-12974174D02*
X12951134Y-12993222D01*
X12951134Y-12993222D02*
X12951134Y-13097984D01*
X12951134Y-12993222D02*
X12960658Y-12974174D01*
X12960658Y-12974174D02*
X12979705Y-12964650D01*
X12979705Y-12964650D02*
X13008277Y-12964650D01*
X13008277Y-12964650D02*
X13027324Y-12974174D01*
X13027324Y-12974174D02*
X13036848Y-12993222D01*
X13036848Y-12993222D02*
X13036848Y-13097984D01*
X13132086Y-13097984D02*
X13132086Y-12964650D01*
X13132086Y-12983698D02*
X13141610Y-12974174D01*
X13141610Y-12974174D02*
X13160658Y-12964650D01*
X13160658Y-12964650D02*
X13189229Y-12964650D01*
X13189229Y-12964650D02*
X13208277Y-12974174D01*
X13208277Y-12974174D02*
X13217801Y-12993222D01*
X13217801Y-12993222D02*
X13217801Y-13097984D01*
X13217801Y-12993222D02*
X13227324Y-12974174D01*
X13227324Y-12974174D02*
X13246372Y-12964650D01*
X13246372Y-12964650D02*
X13274943Y-12964650D01*
X13274943Y-12964650D02*
X13293991Y-12974174D01*
X13293991Y-12974174D02*
X13303515Y-12993222D01*
X13303515Y-12993222D02*
X13303515Y-13097984D01*
X13693991Y-12888460D02*
X13522563Y-13145603D01*
X13951134Y-12897984D02*
X13970182Y-12897984D01*
X13970182Y-12897984D02*
X13989229Y-12907508D01*
X13989229Y-12907508D02*
X13998753Y-12917031D01*
X13998753Y-12917031D02*
X14008277Y-12936079D01*
X14008277Y-12936079D02*
X14017801Y-12974174D01*
X14017801Y-12974174D02*
X14017801Y-13021793D01*
X14017801Y-13021793D02*
X14008277Y-13059888D01*
X14008277Y-13059888D02*
X13998753Y-13078936D01*
X13998753Y-13078936D02*
X13989229Y-13088460D01*
X13989229Y-13088460D02*
X13970182Y-13097984D01*
X13970182Y-13097984D02*
X13951134Y-13097984D01*
X13951134Y-13097984D02*
X13932086Y-13088460D01*
X13932086Y-13088460D02*
X13922563Y-13078936D01*
X13922563Y-13078936D02*
X13913039Y-13059888D01*
X13913039Y-13059888D02*
X13903515Y-13021793D01*
X13903515Y-13021793D02*
X13903515Y-12974174D01*
X13903515Y-12974174D02*
X13913039Y-12936079D01*
X13913039Y-12936079D02*
X13922563Y-12917031D01*
X13922563Y-12917031D02*
X13932086Y-12907508D01*
X13932086Y-12907508D02*
X13951134Y-12897984D01*
X14103515Y-13078936D02*
X14113039Y-13088460D01*
X14113039Y-13088460D02*
X14103515Y-13097984D01*
X14103515Y-13097984D02*
X14093991Y-13088460D01*
X14093991Y-13088460D02*
X14103515Y-13078936D01*
X14103515Y-13078936D02*
X14103515Y-13097984D01*
X14236848Y-12897984D02*
X14255896Y-12897984D01*
X14255896Y-12897984D02*
X14274944Y-12907508D01*
X14274944Y-12907508D02*
X14284467Y-12917031D01*
X14284467Y-12917031D02*
X14293991Y-12936079D01*
X14293991Y-12936079D02*
X14303515Y-12974174D01*
X14303515Y-12974174D02*
X14303515Y-13021793D01*
X14303515Y-13021793D02*
X14293991Y-13059888D01*
X14293991Y-13059888D02*
X14284467Y-13078936D01*
X14284467Y-13078936D02*
X14274944Y-13088460D01*
X14274944Y-13088460D02*
X14255896Y-13097984D01*
X14255896Y-13097984D02*
X14236848Y-13097984D01*
X14236848Y-13097984D02*
X14217801Y-13088460D01*
X14217801Y-13088460D02*
X14208277Y-13078936D01*
X14208277Y-13078936D02*
X14198753Y-13059888D01*
X14198753Y-13059888D02*
X14189229Y-13021793D01*
X14189229Y-13021793D02*
X14189229Y-12974174D01*
X14189229Y-12974174D02*
X14198753Y-12936079D01*
X14198753Y-12936079D02*
X14208277Y-12917031D01*
X14208277Y-12917031D02*
X14217801Y-12907508D01*
X14217801Y-12907508D02*
X14236848Y-12897984D01*
X14493991Y-13097984D02*
X14379706Y-13097984D01*
X14436848Y-13097984D02*
X14436848Y-12897984D01*
X14436848Y-12897984D02*
X14417801Y-12926555D01*
X14417801Y-12926555D02*
X14398753Y-12945603D01*
X14398753Y-12945603D02*
X14379706Y-12955127D01*
X14674944Y-12897984D02*
X14579706Y-12897984D01*
X14579706Y-12897984D02*
X14570182Y-12993222D01*
X14570182Y-12993222D02*
X14579706Y-12983698D01*
X14579706Y-12983698D02*
X14598753Y-12974174D01*
X14598753Y-12974174D02*
X14646372Y-12974174D01*
X14646372Y-12974174D02*
X14665420Y-12983698D01*
X14665420Y-12983698D02*
X14674944Y-12993222D01*
X14674944Y-12993222D02*
X14684467Y-13012269D01*
X14684467Y-13012269D02*
X14684467Y-13059888D01*
X14684467Y-13059888D02*
X14674944Y-13078936D01*
X14674944Y-13078936D02*
X14665420Y-13088460D01*
X14665420Y-13088460D02*
X14646372Y-13097984D01*
X14646372Y-13097984D02*
X14598753Y-13097984D01*
X14598753Y-13097984D02*
X14579706Y-13088460D01*
X14579706Y-13088460D02*
X14570182Y-13078936D01*
X14751134Y-12897984D02*
X14884467Y-12897984D01*
X14884467Y-12897984D02*
X14798753Y-13097984D01*
X14951134Y-12897984D02*
X14951134Y-12936079D01*
X15027325Y-12897984D02*
X15027325Y-12936079D01*
X15322563Y-13174174D02*
X15313039Y-13164650D01*
X15313039Y-13164650D02*
X15293991Y-13136079D01*
X15293991Y-13136079D02*
X15284468Y-13117031D01*
X15284468Y-13117031D02*
X15274944Y-13088460D01*
X15274944Y-13088460D02*
X15265420Y-13040841D01*
X15265420Y-13040841D02*
X15265420Y-13002746D01*
X15265420Y-13002746D02*
X15274944Y-12955127D01*
X15274944Y-12955127D02*
X15284468Y-12926555D01*
X15284468Y-12926555D02*
X15293991Y-12907508D01*
X15293991Y-12907508D02*
X15313039Y-12878936D01*
X15313039Y-12878936D02*
X15322563Y-12869412D01*
X15503515Y-13097984D02*
X15389229Y-13097984D01*
X15446372Y-13097984D02*
X15446372Y-12897984D01*
X15446372Y-12897984D02*
X15427325Y-12926555D01*
X15427325Y-12926555D02*
X15408277Y-12945603D01*
X15408277Y-12945603D02*
X15389229Y-12955127D01*
X15684468Y-12897984D02*
X15589229Y-12897984D01*
X15589229Y-12897984D02*
X15579706Y-12993222D01*
X15579706Y-12993222D02*
X15589229Y-12983698D01*
X15589229Y-12983698D02*
X15608277Y-12974174D01*
X15608277Y-12974174D02*
X15655896Y-12974174D01*
X15655896Y-12974174D02*
X15674944Y-12983698D01*
X15674944Y-12983698D02*
X15684468Y-12993222D01*
X15684468Y-12993222D02*
X15693991Y-13012269D01*
X15693991Y-13012269D02*
X15693991Y-13059888D01*
X15693991Y-13059888D02*
X15684468Y-13078936D01*
X15684468Y-13078936D02*
X15674944Y-13088460D01*
X15674944Y-13088460D02*
X15655896Y-13097984D01*
X15655896Y-13097984D02*
X15608277Y-13097984D01*
X15608277Y-13097984D02*
X15589229Y-13088460D01*
X15589229Y-13088460D02*
X15579706Y-13078936D01*
X15865420Y-12897984D02*
X15827325Y-12897984D01*
X15827325Y-12897984D02*
X15808277Y-12907508D01*
X15808277Y-12907508D02*
X15798753Y-12917031D01*
X15798753Y-12917031D02*
X15779706Y-12945603D01*
X15779706Y-12945603D02*
X15770182Y-12983698D01*
X15770182Y-12983698D02*
X15770182Y-13059888D01*
X15770182Y-13059888D02*
X15779706Y-13078936D01*
X15779706Y-13078936D02*
X15789229Y-13088460D01*
X15789229Y-13088460D02*
X15808277Y-13097984D01*
X15808277Y-13097984D02*
X15846372Y-13097984D01*
X15846372Y-13097984D02*
X15865420Y-13088460D01*
X15865420Y-13088460D02*
X15874944Y-13078936D01*
X15874944Y-13078936D02*
X15884468Y-13059888D01*
X15884468Y-13059888D02*
X15884468Y-13012269D01*
X15884468Y-13012269D02*
X15874944Y-12993222D01*
X15874944Y-12993222D02*
X15865420Y-12983698D01*
X15865420Y-12983698D02*
X15846372Y-12974174D01*
X15846372Y-12974174D02*
X15808277Y-12974174D01*
X15808277Y-12974174D02*
X15789229Y-12983698D01*
X15789229Y-12983698D02*
X15779706Y-12993222D01*
X15779706Y-12993222D02*
X15770182Y-13012269D01*
X16122563Y-13097984D02*
X16122563Y-12897984D01*
X16208277Y-13097984D02*
X16208277Y-12993222D01*
X16208277Y-12993222D02*
X16198753Y-12974174D01*
X16198753Y-12974174D02*
X16179706Y-12964650D01*
X16179706Y-12964650D02*
X16151134Y-12964650D01*
X16151134Y-12964650D02*
X16132087Y-12974174D01*
X16132087Y-12974174D02*
X16122563Y-12983698D01*
X16332087Y-13097984D02*
X16313039Y-13088460D01*
X16313039Y-13088460D02*
X16303515Y-13078936D01*
X16303515Y-13078936D02*
X16293991Y-13059888D01*
X16293991Y-13059888D02*
X16293991Y-13002746D01*
X16293991Y-13002746D02*
X16303515Y-12983698D01*
X16303515Y-12983698D02*
X16313039Y-12974174D01*
X16313039Y-12974174D02*
X16332087Y-12964650D01*
X16332087Y-12964650D02*
X16360658Y-12964650D01*
X16360658Y-12964650D02*
X16379706Y-12974174D01*
X16379706Y-12974174D02*
X16389230Y-12983698D01*
X16389230Y-12983698D02*
X16398753Y-13002746D01*
X16398753Y-13002746D02*
X16398753Y-13059888D01*
X16398753Y-13059888D02*
X16389230Y-13078936D01*
X16389230Y-13078936D02*
X16379706Y-13088460D01*
X16379706Y-13088460D02*
X16360658Y-13097984D01*
X16360658Y-13097984D02*
X16332087Y-13097984D01*
X16513039Y-13097984D02*
X16493991Y-13088460D01*
X16493991Y-13088460D02*
X16484468Y-13069412D01*
X16484468Y-13069412D02*
X16484468Y-12897984D01*
X16665420Y-13088460D02*
X16646372Y-13097984D01*
X16646372Y-13097984D02*
X16608277Y-13097984D01*
X16608277Y-13097984D02*
X16589230Y-13088460D01*
X16589230Y-13088460D02*
X16579706Y-13069412D01*
X16579706Y-13069412D02*
X16579706Y-12993222D01*
X16579706Y-12993222D02*
X16589230Y-12974174D01*
X16589230Y-12974174D02*
X16608277Y-12964650D01*
X16608277Y-12964650D02*
X16646372Y-12964650D01*
X16646372Y-12964650D02*
X16665420Y-12974174D01*
X16665420Y-12974174D02*
X16674944Y-12993222D01*
X16674944Y-12993222D02*
X16674944Y-13012269D01*
X16674944Y-13012269D02*
X16579706Y-13031317D01*
X16751134Y-13088460D02*
X16770182Y-13097984D01*
X16770182Y-13097984D02*
X16808277Y-13097984D01*
X16808277Y-13097984D02*
X16827325Y-13088460D01*
X16827325Y-13088460D02*
X16836849Y-13069412D01*
X16836849Y-13069412D02*
X16836849Y-13059888D01*
X16836849Y-13059888D02*
X16827325Y-13040841D01*
X16827325Y-13040841D02*
X16808277Y-13031317D01*
X16808277Y-13031317D02*
X16779706Y-13031317D01*
X16779706Y-13031317D02*
X16760658Y-13021793D01*
X16760658Y-13021793D02*
X16751134Y-13002746D01*
X16751134Y-13002746D02*
X16751134Y-12993222D01*
X16751134Y-12993222D02*
X16760658Y-12974174D01*
X16760658Y-12974174D02*
X16779706Y-12964650D01*
X16779706Y-12964650D02*
X16808277Y-12964650D01*
X16808277Y-12964650D02*
X16827325Y-12974174D01*
X16903515Y-13174174D02*
X16913039Y-13164650D01*
X16913039Y-13164650D02*
X16932087Y-13136079D01*
X16932087Y-13136079D02*
X16941611Y-13117031D01*
X16941611Y-13117031D02*
X16951134Y-13088460D01*
X16951134Y-13088460D02*
X16960658Y-13040841D01*
X16960658Y-13040841D02*
X16960658Y-13002746D01*
X16960658Y-13002746D02*
X16951134Y-12955127D01*
X16951134Y-12955127D02*
X16941611Y-12926555D01*
X16941611Y-12926555D02*
X16932087Y-12907508D01*
X16932087Y-12907508D02*
X16913039Y-12878936D01*
X16913039Y-12878936D02*
X16903515Y-12869412D01*
D14*
X11717500Y-13240500D02*
X11717500Y-13300500D01*
X11687500Y-13270500D02*
X11747500Y-13270500D01*
D11*
X12046372Y-13161984D02*
X12065420Y-13161984D01*
X12065420Y-13161984D02*
X12084467Y-13171508D01*
X12084467Y-13171508D02*
X12093991Y-13181031D01*
X12093991Y-13181031D02*
X12103515Y-13200079D01*
X12103515Y-13200079D02*
X12113039Y-13238174D01*
X12113039Y-13238174D02*
X12113039Y-13285793D01*
X12113039Y-13285793D02*
X12103515Y-13323888D01*
X12103515Y-13323888D02*
X12093991Y-13342936D01*
X12093991Y-13342936D02*
X12084467Y-13352460D01*
X12084467Y-13352460D02*
X12065420Y-13361984D01*
X12065420Y-13361984D02*
X12046372Y-13361984D01*
X12046372Y-13361984D02*
X12027324Y-13352460D01*
X12027324Y-13352460D02*
X12017801Y-13342936D01*
X12017801Y-13342936D02*
X12008277Y-13323888D01*
X12008277Y-13323888D02*
X11998753Y-13285793D01*
X11998753Y-13285793D02*
X11998753Y-13238174D01*
X11998753Y-13238174D02*
X12008277Y-13200079D01*
X12008277Y-13200079D02*
X12017801Y-13181031D01*
X12017801Y-13181031D02*
X12027324Y-13171508D01*
X12027324Y-13171508D02*
X12046372Y-13161984D01*
X12198753Y-13342936D02*
X12208277Y-13352460D01*
X12208277Y-13352460D02*
X12198753Y-13361984D01*
X12198753Y-13361984D02*
X12189229Y-13352460D01*
X12189229Y-13352460D02*
X12198753Y-13342936D01*
X12198753Y-13342936D02*
X12198753Y-13361984D01*
X12379705Y-13161984D02*
X12341610Y-13161984D01*
X12341610Y-13161984D02*
X12322562Y-13171508D01*
X12322562Y-13171508D02*
X12313039Y-13181031D01*
X12313039Y-13181031D02*
X12293991Y-13209603D01*
X12293991Y-13209603D02*
X12284467Y-13247698D01*
X12284467Y-13247698D02*
X12284467Y-13323888D01*
X12284467Y-13323888D02*
X12293991Y-13342936D01*
X12293991Y-13342936D02*
X12303515Y-13352460D01*
X12303515Y-13352460D02*
X12322562Y-13361984D01*
X12322562Y-13361984D02*
X12360658Y-13361984D01*
X12360658Y-13361984D02*
X12379705Y-13352460D01*
X12379705Y-13352460D02*
X12389229Y-13342936D01*
X12389229Y-13342936D02*
X12398753Y-13323888D01*
X12398753Y-13323888D02*
X12398753Y-13276269D01*
X12398753Y-13276269D02*
X12389229Y-13257222D01*
X12389229Y-13257222D02*
X12379705Y-13247698D01*
X12379705Y-13247698D02*
X12360658Y-13238174D01*
X12360658Y-13238174D02*
X12322562Y-13238174D01*
X12322562Y-13238174D02*
X12303515Y-13247698D01*
X12303515Y-13247698D02*
X12293991Y-13257222D01*
X12293991Y-13257222D02*
X12284467Y-13276269D01*
X12522562Y-13161984D02*
X12541610Y-13161984D01*
X12541610Y-13161984D02*
X12560658Y-13171508D01*
X12560658Y-13171508D02*
X12570182Y-13181031D01*
X12570182Y-13181031D02*
X12579705Y-13200079D01*
X12579705Y-13200079D02*
X12589229Y-13238174D01*
X12589229Y-13238174D02*
X12589229Y-13285793D01*
X12589229Y-13285793D02*
X12579705Y-13323888D01*
X12579705Y-13323888D02*
X12570182Y-13342936D01*
X12570182Y-13342936D02*
X12560658Y-13352460D01*
X12560658Y-13352460D02*
X12541610Y-13361984D01*
X12541610Y-13361984D02*
X12522562Y-13361984D01*
X12522562Y-13361984D02*
X12503515Y-13352460D01*
X12503515Y-13352460D02*
X12493991Y-13342936D01*
X12493991Y-13342936D02*
X12484467Y-13323888D01*
X12484467Y-13323888D02*
X12474943Y-13285793D01*
X12474943Y-13285793D02*
X12474943Y-13238174D01*
X12474943Y-13238174D02*
X12484467Y-13200079D01*
X12484467Y-13200079D02*
X12493991Y-13181031D01*
X12493991Y-13181031D02*
X12503515Y-13171508D01*
X12503515Y-13171508D02*
X12522562Y-13161984D01*
X12713039Y-13161984D02*
X12732086Y-13161984D01*
X12732086Y-13161984D02*
X12751134Y-13171508D01*
X12751134Y-13171508D02*
X12760658Y-13181031D01*
X12760658Y-13181031D02*
X12770182Y-13200079D01*
X12770182Y-13200079D02*
X12779705Y-13238174D01*
X12779705Y-13238174D02*
X12779705Y-13285793D01*
X12779705Y-13285793D02*
X12770182Y-13323888D01*
X12770182Y-13323888D02*
X12760658Y-13342936D01*
X12760658Y-13342936D02*
X12751134Y-13352460D01*
X12751134Y-13352460D02*
X12732086Y-13361984D01*
X12732086Y-13361984D02*
X12713039Y-13361984D01*
X12713039Y-13361984D02*
X12693991Y-13352460D01*
X12693991Y-13352460D02*
X12684467Y-13342936D01*
X12684467Y-13342936D02*
X12674943Y-13323888D01*
X12674943Y-13323888D02*
X12665420Y-13285793D01*
X12665420Y-13285793D02*
X12665420Y-13238174D01*
X12665420Y-13238174D02*
X12674943Y-13200079D01*
X12674943Y-13200079D02*
X12684467Y-13181031D01*
X12684467Y-13181031D02*
X12693991Y-13171508D01*
X12693991Y-13171508D02*
X12713039Y-13161984D01*
X12865420Y-13361984D02*
X12865420Y-13228650D01*
X12865420Y-13247698D02*
X12874943Y-13238174D01*
X12874943Y-13238174D02*
X12893991Y-13228650D01*
X12893991Y-13228650D02*
X12922563Y-13228650D01*
X12922563Y-13228650D02*
X12941610Y-13238174D01*
X12941610Y-13238174D02*
X12951134Y-13257222D01*
X12951134Y-13257222D02*
X12951134Y-13361984D01*
X12951134Y-13257222D02*
X12960658Y-13238174D01*
X12960658Y-13238174D02*
X12979705Y-13228650D01*
X12979705Y-13228650D02*
X13008277Y-13228650D01*
X13008277Y-13228650D02*
X13027324Y-13238174D01*
X13027324Y-13238174D02*
X13036848Y-13257222D01*
X13036848Y-13257222D02*
X13036848Y-13361984D01*
X13132086Y-13361984D02*
X13132086Y-13228650D01*
X13132086Y-13247698D02*
X13141610Y-13238174D01*
X13141610Y-13238174D02*
X13160658Y-13228650D01*
X13160658Y-13228650D02*
X13189229Y-13228650D01*
X13189229Y-13228650D02*
X13208277Y-13238174D01*
X13208277Y-13238174D02*
X13217801Y-13257222D01*
X13217801Y-13257222D02*
X13217801Y-13361984D01*
X13217801Y-13257222D02*
X13227324Y-13238174D01*
X13227324Y-13238174D02*
X13246372Y-13228650D01*
X13246372Y-13228650D02*
X13274943Y-13228650D01*
X13274943Y-13228650D02*
X13293991Y-13238174D01*
X13293991Y-13238174D02*
X13303515Y-13257222D01*
X13303515Y-13257222D02*
X13303515Y-13361984D01*
X13693991Y-13152460D02*
X13522563Y-13409603D01*
X13951134Y-13161984D02*
X13970182Y-13161984D01*
X13970182Y-13161984D02*
X13989229Y-13171508D01*
X13989229Y-13171508D02*
X13998753Y-13181031D01*
X13998753Y-13181031D02*
X14008277Y-13200079D01*
X14008277Y-13200079D02*
X14017801Y-13238174D01*
X14017801Y-13238174D02*
X14017801Y-13285793D01*
X14017801Y-13285793D02*
X14008277Y-13323888D01*
X14008277Y-13323888D02*
X13998753Y-13342936D01*
X13998753Y-13342936D02*
X13989229Y-13352460D01*
X13989229Y-13352460D02*
X13970182Y-13361984D01*
X13970182Y-13361984D02*
X13951134Y-13361984D01*
X13951134Y-13361984D02*
X13932086Y-13352460D01*
X13932086Y-13352460D02*
X13922563Y-13342936D01*
X13922563Y-13342936D02*
X13913039Y-13323888D01*
X13913039Y-13323888D02*
X13903515Y-13285793D01*
X13903515Y-13285793D02*
X13903515Y-13238174D01*
X13903515Y-13238174D02*
X13913039Y-13200079D01*
X13913039Y-13200079D02*
X13922563Y-13181031D01*
X13922563Y-13181031D02*
X13932086Y-13171508D01*
X13932086Y-13171508D02*
X13951134Y-13161984D01*
X14103515Y-13342936D02*
X14113039Y-13352460D01*
X14113039Y-13352460D02*
X14103515Y-13361984D01*
X14103515Y-13361984D02*
X14093991Y-13352460D01*
X14093991Y-13352460D02*
X14103515Y-13342936D01*
X14103515Y-13342936D02*
X14103515Y-13361984D01*
X14236848Y-13161984D02*
X14255896Y-13161984D01*
X14255896Y-13161984D02*
X14274944Y-13171508D01*
X14274944Y-13171508D02*
X14284467Y-13181031D01*
X14284467Y-13181031D02*
X14293991Y-13200079D01*
X14293991Y-13200079D02*
X14303515Y-13238174D01*
X14303515Y-13238174D02*
X14303515Y-13285793D01*
X14303515Y-13285793D02*
X14293991Y-13323888D01*
X14293991Y-13323888D02*
X14284467Y-13342936D01*
X14284467Y-13342936D02*
X14274944Y-13352460D01*
X14274944Y-13352460D02*
X14255896Y-13361984D01*
X14255896Y-13361984D02*
X14236848Y-13361984D01*
X14236848Y-13361984D02*
X14217801Y-13352460D01*
X14217801Y-13352460D02*
X14208277Y-13342936D01*
X14208277Y-13342936D02*
X14198753Y-13323888D01*
X14198753Y-13323888D02*
X14189229Y-13285793D01*
X14189229Y-13285793D02*
X14189229Y-13238174D01*
X14189229Y-13238174D02*
X14198753Y-13200079D01*
X14198753Y-13200079D02*
X14208277Y-13181031D01*
X14208277Y-13181031D02*
X14217801Y-13171508D01*
X14217801Y-13171508D02*
X14236848Y-13161984D01*
X14379706Y-13181031D02*
X14389229Y-13171508D01*
X14389229Y-13171508D02*
X14408277Y-13161984D01*
X14408277Y-13161984D02*
X14455896Y-13161984D01*
X14455896Y-13161984D02*
X14474944Y-13171508D01*
X14474944Y-13171508D02*
X14484467Y-13181031D01*
X14484467Y-13181031D02*
X14493991Y-13200079D01*
X14493991Y-13200079D02*
X14493991Y-13219127D01*
X14493991Y-13219127D02*
X14484467Y-13247698D01*
X14484467Y-13247698D02*
X14370182Y-13361984D01*
X14370182Y-13361984D02*
X14493991Y-13361984D01*
X14560658Y-13161984D02*
X14684467Y-13161984D01*
X14684467Y-13161984D02*
X14617801Y-13238174D01*
X14617801Y-13238174D02*
X14646372Y-13238174D01*
X14646372Y-13238174D02*
X14665420Y-13247698D01*
X14665420Y-13247698D02*
X14674944Y-13257222D01*
X14674944Y-13257222D02*
X14684467Y-13276269D01*
X14684467Y-13276269D02*
X14684467Y-13323888D01*
X14684467Y-13323888D02*
X14674944Y-13342936D01*
X14674944Y-13342936D02*
X14665420Y-13352460D01*
X14665420Y-13352460D02*
X14646372Y-13361984D01*
X14646372Y-13361984D02*
X14589229Y-13361984D01*
X14589229Y-13361984D02*
X14570182Y-13352460D01*
X14570182Y-13352460D02*
X14560658Y-13342936D01*
X14855896Y-13161984D02*
X14817801Y-13161984D01*
X14817801Y-13161984D02*
X14798753Y-13171508D01*
X14798753Y-13171508D02*
X14789229Y-13181031D01*
X14789229Y-13181031D02*
X14770182Y-13209603D01*
X14770182Y-13209603D02*
X14760658Y-13247698D01*
X14760658Y-13247698D02*
X14760658Y-13323888D01*
X14760658Y-13323888D02*
X14770182Y-13342936D01*
X14770182Y-13342936D02*
X14779706Y-13352460D01*
X14779706Y-13352460D02*
X14798753Y-13361984D01*
X14798753Y-13361984D02*
X14836848Y-13361984D01*
X14836848Y-13361984D02*
X14855896Y-13352460D01*
X14855896Y-13352460D02*
X14865420Y-13342936D01*
X14865420Y-13342936D02*
X14874944Y-13323888D01*
X14874944Y-13323888D02*
X14874944Y-13276269D01*
X14874944Y-13276269D02*
X14865420Y-13257222D01*
X14865420Y-13257222D02*
X14855896Y-13247698D01*
X14855896Y-13247698D02*
X14836848Y-13238174D01*
X14836848Y-13238174D02*
X14798753Y-13238174D01*
X14798753Y-13238174D02*
X14779706Y-13247698D01*
X14779706Y-13247698D02*
X14770182Y-13257222D01*
X14770182Y-13257222D02*
X14760658Y-13276269D01*
X14951134Y-13161984D02*
X14951134Y-13200079D01*
X15027325Y-13161984D02*
X15027325Y-13200079D01*
X15322563Y-13438174D02*
X15313039Y-13428650D01*
X15313039Y-13428650D02*
X15293991Y-13400079D01*
X15293991Y-13400079D02*
X15284468Y-13381031D01*
X15284468Y-13381031D02*
X15274944Y-13352460D01*
X15274944Y-13352460D02*
X15265420Y-13304841D01*
X15265420Y-13304841D02*
X15265420Y-13266746D01*
X15265420Y-13266746D02*
X15274944Y-13219127D01*
X15274944Y-13219127D02*
X15284468Y-13190555D01*
X15284468Y-13190555D02*
X15293991Y-13171508D01*
X15293991Y-13171508D02*
X15313039Y-13142936D01*
X15313039Y-13142936D02*
X15322563Y-13133412D01*
X15436848Y-13161984D02*
X15455896Y-13161984D01*
X15455896Y-13161984D02*
X15474944Y-13171508D01*
X15474944Y-13171508D02*
X15484468Y-13181031D01*
X15484468Y-13181031D02*
X15493991Y-13200079D01*
X15493991Y-13200079D02*
X15503515Y-13238174D01*
X15503515Y-13238174D02*
X15503515Y-13285793D01*
X15503515Y-13285793D02*
X15493991Y-13323888D01*
X15493991Y-13323888D02*
X15484468Y-13342936D01*
X15484468Y-13342936D02*
X15474944Y-13352460D01*
X15474944Y-13352460D02*
X15455896Y-13361984D01*
X15455896Y-13361984D02*
X15436848Y-13361984D01*
X15436848Y-13361984D02*
X15417801Y-13352460D01*
X15417801Y-13352460D02*
X15408277Y-13342936D01*
X15408277Y-13342936D02*
X15398753Y-13323888D01*
X15398753Y-13323888D02*
X15389229Y-13285793D01*
X15389229Y-13285793D02*
X15389229Y-13238174D01*
X15389229Y-13238174D02*
X15398753Y-13200079D01*
X15398753Y-13200079D02*
X15408277Y-13181031D01*
X15408277Y-13181031D02*
X15417801Y-13171508D01*
X15417801Y-13171508D02*
X15436848Y-13161984D01*
X15741610Y-13361984D02*
X15741610Y-13161984D01*
X15827325Y-13361984D02*
X15827325Y-13257222D01*
X15827325Y-13257222D02*
X15817801Y-13238174D01*
X15817801Y-13238174D02*
X15798753Y-13228650D01*
X15798753Y-13228650D02*
X15770182Y-13228650D01*
X15770182Y-13228650D02*
X15751134Y-13238174D01*
X15751134Y-13238174D02*
X15741610Y-13247698D01*
X15951134Y-13361984D02*
X15932087Y-13352460D01*
X15932087Y-13352460D02*
X15922563Y-13342936D01*
X15922563Y-13342936D02*
X15913039Y-13323888D01*
X15913039Y-13323888D02*
X15913039Y-13266746D01*
X15913039Y-13266746D02*
X15922563Y-13247698D01*
X15922563Y-13247698D02*
X15932087Y-13238174D01*
X15932087Y-13238174D02*
X15951134Y-13228650D01*
X15951134Y-13228650D02*
X15979706Y-13228650D01*
X15979706Y-13228650D02*
X15998753Y-13238174D01*
X15998753Y-13238174D02*
X16008277Y-13247698D01*
X16008277Y-13247698D02*
X16017801Y-13266746D01*
X16017801Y-13266746D02*
X16017801Y-13323888D01*
X16017801Y-13323888D02*
X16008277Y-13342936D01*
X16008277Y-13342936D02*
X15998753Y-13352460D01*
X15998753Y-13352460D02*
X15979706Y-13361984D01*
X15979706Y-13361984D02*
X15951134Y-13361984D01*
X16132087Y-13361984D02*
X16113039Y-13352460D01*
X16113039Y-13352460D02*
X16103515Y-13333412D01*
X16103515Y-13333412D02*
X16103515Y-13161984D01*
X16284468Y-13352460D02*
X16265420Y-13361984D01*
X16265420Y-13361984D02*
X16227325Y-13361984D01*
X16227325Y-13361984D02*
X16208277Y-13352460D01*
X16208277Y-13352460D02*
X16198753Y-13333412D01*
X16198753Y-13333412D02*
X16198753Y-13257222D01*
X16198753Y-13257222D02*
X16208277Y-13238174D01*
X16208277Y-13238174D02*
X16227325Y-13228650D01*
X16227325Y-13228650D02*
X16265420Y-13228650D01*
X16265420Y-13228650D02*
X16284468Y-13238174D01*
X16284468Y-13238174D02*
X16293991Y-13257222D01*
X16293991Y-13257222D02*
X16293991Y-13276269D01*
X16293991Y-13276269D02*
X16198753Y-13295317D01*
X16370182Y-13352460D02*
X16389230Y-13361984D01*
X16389230Y-13361984D02*
X16427325Y-13361984D01*
X16427325Y-13361984D02*
X16446372Y-13352460D01*
X16446372Y-13352460D02*
X16455896Y-13333412D01*
X16455896Y-13333412D02*
X16455896Y-13323888D01*
X16455896Y-13323888D02*
X16446372Y-13304841D01*
X16446372Y-13304841D02*
X16427325Y-13295317D01*
X16427325Y-13295317D02*
X16398753Y-13295317D01*
X16398753Y-13295317D02*
X16379706Y-13285793D01*
X16379706Y-13285793D02*
X16370182Y-13266746D01*
X16370182Y-13266746D02*
X16370182Y-13257222D01*
X16370182Y-13257222D02*
X16379706Y-13238174D01*
X16379706Y-13238174D02*
X16398753Y-13228650D01*
X16398753Y-13228650D02*
X16427325Y-13228650D01*
X16427325Y-13228650D02*
X16446372Y-13238174D01*
X16693992Y-13285793D02*
X16846373Y-13285793D01*
X16770182Y-13361984D02*
X16770182Y-13209603D01*
X17179706Y-13228650D02*
X17179706Y-13361984D01*
X17132087Y-13152460D02*
X17084468Y-13295317D01*
X17084468Y-13295317D02*
X17208277Y-13295317D01*
X17427325Y-13352460D02*
X17446373Y-13361984D01*
X17446373Y-13361984D02*
X17484468Y-13361984D01*
X17484468Y-13361984D02*
X17503516Y-13352460D01*
X17503516Y-13352460D02*
X17513039Y-13333412D01*
X17513039Y-13333412D02*
X17513039Y-13323888D01*
X17513039Y-13323888D02*
X17503516Y-13304841D01*
X17503516Y-13304841D02*
X17484468Y-13295317D01*
X17484468Y-13295317D02*
X17455896Y-13295317D01*
X17455896Y-13295317D02*
X17436849Y-13285793D01*
X17436849Y-13285793D02*
X17427325Y-13266746D01*
X17427325Y-13266746D02*
X17427325Y-13257222D01*
X17427325Y-13257222D02*
X17436849Y-13238174D01*
X17436849Y-13238174D02*
X17455896Y-13228650D01*
X17455896Y-13228650D02*
X17484468Y-13228650D01*
X17484468Y-13228650D02*
X17503516Y-13238174D01*
X17627325Y-13361984D02*
X17608277Y-13352460D01*
X17608277Y-13352460D02*
X17598754Y-13333412D01*
X17598754Y-13333412D02*
X17598754Y-13161984D01*
X17732087Y-13361984D02*
X17713039Y-13352460D01*
X17713039Y-13352460D02*
X17703516Y-13342936D01*
X17703516Y-13342936D02*
X17693992Y-13323888D01*
X17693992Y-13323888D02*
X17693992Y-13266746D01*
X17693992Y-13266746D02*
X17703516Y-13247698D01*
X17703516Y-13247698D02*
X17713039Y-13238174D01*
X17713039Y-13238174D02*
X17732087Y-13228650D01*
X17732087Y-13228650D02*
X17760658Y-13228650D01*
X17760658Y-13228650D02*
X17779706Y-13238174D01*
X17779706Y-13238174D02*
X17789230Y-13247698D01*
X17789230Y-13247698D02*
X17798754Y-13266746D01*
X17798754Y-13266746D02*
X17798754Y-13323888D01*
X17798754Y-13323888D02*
X17789230Y-13342936D01*
X17789230Y-13342936D02*
X17779706Y-13352460D01*
X17779706Y-13352460D02*
X17760658Y-13361984D01*
X17760658Y-13361984D02*
X17732087Y-13361984D01*
X17855897Y-13228650D02*
X17932087Y-13228650D01*
X17884468Y-13161984D02*
X17884468Y-13333412D01*
X17884468Y-13333412D02*
X17893992Y-13352460D01*
X17893992Y-13352460D02*
X17913039Y-13361984D01*
X17913039Y-13361984D02*
X17932087Y-13361984D01*
X17989230Y-13352460D02*
X18008277Y-13361984D01*
X18008277Y-13361984D02*
X18046373Y-13361984D01*
X18046373Y-13361984D02*
X18065420Y-13352460D01*
X18065420Y-13352460D02*
X18074944Y-13333412D01*
X18074944Y-13333412D02*
X18074944Y-13323888D01*
X18074944Y-13323888D02*
X18065420Y-13304841D01*
X18065420Y-13304841D02*
X18046373Y-13295317D01*
X18046373Y-13295317D02*
X18017801Y-13295317D01*
X18017801Y-13295317D02*
X17998754Y-13285793D01*
X17998754Y-13285793D02*
X17989230Y-13266746D01*
X17989230Y-13266746D02*
X17989230Y-13257222D01*
X17989230Y-13257222D02*
X17998754Y-13238174D01*
X17998754Y-13238174D02*
X18017801Y-13228650D01*
X18017801Y-13228650D02*
X18046373Y-13228650D01*
X18046373Y-13228650D02*
X18065420Y-13238174D01*
X18141611Y-13438174D02*
X18151135Y-13428650D01*
X18151135Y-13428650D02*
X18170182Y-13400079D01*
X18170182Y-13400079D02*
X18179706Y-13381031D01*
X18179706Y-13381031D02*
X18189230Y-13352460D01*
X18189230Y-13352460D02*
X18198754Y-13304841D01*
X18198754Y-13304841D02*
X18198754Y-13266746D01*
X18198754Y-13266746D02*
X18189230Y-13219127D01*
X18189230Y-13219127D02*
X18179706Y-13190555D01*
X18179706Y-13190555D02*
X18170182Y-13171508D01*
X18170182Y-13171508D02*
X18151135Y-13142936D01*
X18151135Y-13142936D02*
X18141611Y-13133412D01*
D15*
X11737981Y-13557481D02*
X11737981Y-13511519D01*
X11692019Y-13511519D01*
X11692019Y-13557481D01*
X11737981Y-13557481D01*
D11*
X12046372Y-13425984D02*
X12065420Y-13425984D01*
X12065420Y-13425984D02*
X12084467Y-13435508D01*
X12084467Y-13435508D02*
X12093991Y-13445031D01*
X12093991Y-13445031D02*
X12103515Y-13464079D01*
X12103515Y-13464079D02*
X12113039Y-13502174D01*
X12113039Y-13502174D02*
X12113039Y-13549793D01*
X12113039Y-13549793D02*
X12103515Y-13587888D01*
X12103515Y-13587888D02*
X12093991Y-13606936D01*
X12093991Y-13606936D02*
X12084467Y-13616460D01*
X12084467Y-13616460D02*
X12065420Y-13625984D01*
X12065420Y-13625984D02*
X12046372Y-13625984D01*
X12046372Y-13625984D02*
X12027324Y-13616460D01*
X12027324Y-13616460D02*
X12017801Y-13606936D01*
X12017801Y-13606936D02*
X12008277Y-13587888D01*
X12008277Y-13587888D02*
X11998753Y-13549793D01*
X11998753Y-13549793D02*
X11998753Y-13502174D01*
X11998753Y-13502174D02*
X12008277Y-13464079D01*
X12008277Y-13464079D02*
X12017801Y-13445031D01*
X12017801Y-13445031D02*
X12027324Y-13435508D01*
X12027324Y-13435508D02*
X12046372Y-13425984D01*
X12198753Y-13606936D02*
X12208277Y-13616460D01*
X12208277Y-13616460D02*
X12198753Y-13625984D01*
X12198753Y-13625984D02*
X12189229Y-13616460D01*
X12189229Y-13616460D02*
X12198753Y-13606936D01*
X12198753Y-13606936D02*
X12198753Y-13625984D01*
X12379705Y-13425984D02*
X12341610Y-13425984D01*
X12341610Y-13425984D02*
X12322562Y-13435508D01*
X12322562Y-13435508D02*
X12313039Y-13445031D01*
X12313039Y-13445031D02*
X12293991Y-13473603D01*
X12293991Y-13473603D02*
X12284467Y-13511698D01*
X12284467Y-13511698D02*
X12284467Y-13587888D01*
X12284467Y-13587888D02*
X12293991Y-13606936D01*
X12293991Y-13606936D02*
X12303515Y-13616460D01*
X12303515Y-13616460D02*
X12322562Y-13625984D01*
X12322562Y-13625984D02*
X12360658Y-13625984D01*
X12360658Y-13625984D02*
X12379705Y-13616460D01*
X12379705Y-13616460D02*
X12389229Y-13606936D01*
X12389229Y-13606936D02*
X12398753Y-13587888D01*
X12398753Y-13587888D02*
X12398753Y-13540269D01*
X12398753Y-13540269D02*
X12389229Y-13521222D01*
X12389229Y-13521222D02*
X12379705Y-13511698D01*
X12379705Y-13511698D02*
X12360658Y-13502174D01*
X12360658Y-13502174D02*
X12322562Y-13502174D01*
X12322562Y-13502174D02*
X12303515Y-13511698D01*
X12303515Y-13511698D02*
X12293991Y-13521222D01*
X12293991Y-13521222D02*
X12284467Y-13540269D01*
X12579705Y-13425984D02*
X12484467Y-13425984D01*
X12484467Y-13425984D02*
X12474943Y-13521222D01*
X12474943Y-13521222D02*
X12484467Y-13511698D01*
X12484467Y-13511698D02*
X12503515Y-13502174D01*
X12503515Y-13502174D02*
X12551134Y-13502174D01*
X12551134Y-13502174D02*
X12570182Y-13511698D01*
X12570182Y-13511698D02*
X12579705Y-13521222D01*
X12579705Y-13521222D02*
X12589229Y-13540269D01*
X12589229Y-13540269D02*
X12589229Y-13587888D01*
X12589229Y-13587888D02*
X12579705Y-13606936D01*
X12579705Y-13606936D02*
X12570182Y-13616460D01*
X12570182Y-13616460D02*
X12551134Y-13625984D01*
X12551134Y-13625984D02*
X12503515Y-13625984D01*
X12503515Y-13625984D02*
X12484467Y-13616460D01*
X12484467Y-13616460D02*
X12474943Y-13606936D01*
X12713039Y-13425984D02*
X12732086Y-13425984D01*
X12732086Y-13425984D02*
X12751134Y-13435508D01*
X12751134Y-13435508D02*
X12760658Y-13445031D01*
X12760658Y-13445031D02*
X12770182Y-13464079D01*
X12770182Y-13464079D02*
X12779705Y-13502174D01*
X12779705Y-13502174D02*
X12779705Y-13549793D01*
X12779705Y-13549793D02*
X12770182Y-13587888D01*
X12770182Y-13587888D02*
X12760658Y-13606936D01*
X12760658Y-13606936D02*
X12751134Y-13616460D01*
X12751134Y-13616460D02*
X12732086Y-13625984D01*
X12732086Y-13625984D02*
X12713039Y-13625984D01*
X12713039Y-13625984D02*
X12693991Y-13616460D01*
X12693991Y-13616460D02*
X12684467Y-13606936D01*
X12684467Y-13606936D02*
X12674943Y-13587888D01*
X12674943Y-13587888D02*
X12665420Y-13549793D01*
X12665420Y-13549793D02*
X12665420Y-13502174D01*
X12665420Y-13502174D02*
X12674943Y-13464079D01*
X12674943Y-13464079D02*
X12684467Y-13445031D01*
X12684467Y-13445031D02*
X12693991Y-13435508D01*
X12693991Y-13435508D02*
X12713039Y-13425984D01*
X12865420Y-13625984D02*
X12865420Y-13492650D01*
X12865420Y-13511698D02*
X12874943Y-13502174D01*
X12874943Y-13502174D02*
X12893991Y-13492650D01*
X12893991Y-13492650D02*
X12922563Y-13492650D01*
X12922563Y-13492650D02*
X12941610Y-13502174D01*
X12941610Y-13502174D02*
X12951134Y-13521222D01*
X12951134Y-13521222D02*
X12951134Y-13625984D01*
X12951134Y-13521222D02*
X12960658Y-13502174D01*
X12960658Y-13502174D02*
X12979705Y-13492650D01*
X12979705Y-13492650D02*
X13008277Y-13492650D01*
X13008277Y-13492650D02*
X13027324Y-13502174D01*
X13027324Y-13502174D02*
X13036848Y-13521222D01*
X13036848Y-13521222D02*
X13036848Y-13625984D01*
X13132086Y-13625984D02*
X13132086Y-13492650D01*
X13132086Y-13511698D02*
X13141610Y-13502174D01*
X13141610Y-13502174D02*
X13160658Y-13492650D01*
X13160658Y-13492650D02*
X13189229Y-13492650D01*
X13189229Y-13492650D02*
X13208277Y-13502174D01*
X13208277Y-13502174D02*
X13217801Y-13521222D01*
X13217801Y-13521222D02*
X13217801Y-13625984D01*
X13217801Y-13521222D02*
X13227324Y-13502174D01*
X13227324Y-13502174D02*
X13246372Y-13492650D01*
X13246372Y-13492650D02*
X13274943Y-13492650D01*
X13274943Y-13492650D02*
X13293991Y-13502174D01*
X13293991Y-13502174D02*
X13303515Y-13521222D01*
X13303515Y-13521222D02*
X13303515Y-13625984D01*
X13693991Y-13416460D02*
X13522563Y-13673603D01*
X13951134Y-13425984D02*
X13970182Y-13425984D01*
X13970182Y-13425984D02*
X13989229Y-13435508D01*
X13989229Y-13435508D02*
X13998753Y-13445031D01*
X13998753Y-13445031D02*
X14008277Y-13464079D01*
X14008277Y-13464079D02*
X14017801Y-13502174D01*
X14017801Y-13502174D02*
X14017801Y-13549793D01*
X14017801Y-13549793D02*
X14008277Y-13587888D01*
X14008277Y-13587888D02*
X13998753Y-13606936D01*
X13998753Y-13606936D02*
X13989229Y-13616460D01*
X13989229Y-13616460D02*
X13970182Y-13625984D01*
X13970182Y-13625984D02*
X13951134Y-13625984D01*
X13951134Y-13625984D02*
X13932086Y-13616460D01*
X13932086Y-13616460D02*
X13922563Y-13606936D01*
X13922563Y-13606936D02*
X13913039Y-13587888D01*
X13913039Y-13587888D02*
X13903515Y-13549793D01*
X13903515Y-13549793D02*
X13903515Y-13502174D01*
X13903515Y-13502174D02*
X13913039Y-13464079D01*
X13913039Y-13464079D02*
X13922563Y-13445031D01*
X13922563Y-13445031D02*
X13932086Y-13435508D01*
X13932086Y-13435508D02*
X13951134Y-13425984D01*
X14103515Y-13606936D02*
X14113039Y-13616460D01*
X14113039Y-13616460D02*
X14103515Y-13625984D01*
X14103515Y-13625984D02*
X14093991Y-13616460D01*
X14093991Y-13616460D02*
X14103515Y-13606936D01*
X14103515Y-13606936D02*
X14103515Y-13625984D01*
X14236848Y-13425984D02*
X14255896Y-13425984D01*
X14255896Y-13425984D02*
X14274944Y-13435508D01*
X14274944Y-13435508D02*
X14284467Y-13445031D01*
X14284467Y-13445031D02*
X14293991Y-13464079D01*
X14293991Y-13464079D02*
X14303515Y-13502174D01*
X14303515Y-13502174D02*
X14303515Y-13549793D01*
X14303515Y-13549793D02*
X14293991Y-13587888D01*
X14293991Y-13587888D02*
X14284467Y-13606936D01*
X14284467Y-13606936D02*
X14274944Y-13616460D01*
X14274944Y-13616460D02*
X14255896Y-13625984D01*
X14255896Y-13625984D02*
X14236848Y-13625984D01*
X14236848Y-13625984D02*
X14217801Y-13616460D01*
X14217801Y-13616460D02*
X14208277Y-13606936D01*
X14208277Y-13606936D02*
X14198753Y-13587888D01*
X14198753Y-13587888D02*
X14189229Y-13549793D01*
X14189229Y-13549793D02*
X14189229Y-13502174D01*
X14189229Y-13502174D02*
X14198753Y-13464079D01*
X14198753Y-13464079D02*
X14208277Y-13445031D01*
X14208277Y-13445031D02*
X14217801Y-13435508D01*
X14217801Y-13435508D02*
X14236848Y-13425984D01*
X14379706Y-13445031D02*
X14389229Y-13435508D01*
X14389229Y-13435508D02*
X14408277Y-13425984D01*
X14408277Y-13425984D02*
X14455896Y-13425984D01*
X14455896Y-13425984D02*
X14474944Y-13435508D01*
X14474944Y-13435508D02*
X14484467Y-13445031D01*
X14484467Y-13445031D02*
X14493991Y-13464079D01*
X14493991Y-13464079D02*
X14493991Y-13483127D01*
X14493991Y-13483127D02*
X14484467Y-13511698D01*
X14484467Y-13511698D02*
X14370182Y-13625984D01*
X14370182Y-13625984D02*
X14493991Y-13625984D01*
X14674944Y-13425984D02*
X14579706Y-13425984D01*
X14579706Y-13425984D02*
X14570182Y-13521222D01*
X14570182Y-13521222D02*
X14579706Y-13511698D01*
X14579706Y-13511698D02*
X14598753Y-13502174D01*
X14598753Y-13502174D02*
X14646372Y-13502174D01*
X14646372Y-13502174D02*
X14665420Y-13511698D01*
X14665420Y-13511698D02*
X14674944Y-13521222D01*
X14674944Y-13521222D02*
X14684467Y-13540269D01*
X14684467Y-13540269D02*
X14684467Y-13587888D01*
X14684467Y-13587888D02*
X14674944Y-13606936D01*
X14674944Y-13606936D02*
X14665420Y-13616460D01*
X14665420Y-13616460D02*
X14646372Y-13625984D01*
X14646372Y-13625984D02*
X14598753Y-13625984D01*
X14598753Y-13625984D02*
X14579706Y-13616460D01*
X14579706Y-13616460D02*
X14570182Y-13606936D01*
X14855896Y-13425984D02*
X14817801Y-13425984D01*
X14817801Y-13425984D02*
X14798753Y-13435508D01*
X14798753Y-13435508D02*
X14789229Y-13445031D01*
X14789229Y-13445031D02*
X14770182Y-13473603D01*
X14770182Y-13473603D02*
X14760658Y-13511698D01*
X14760658Y-13511698D02*
X14760658Y-13587888D01*
X14760658Y-13587888D02*
X14770182Y-13606936D01*
X14770182Y-13606936D02*
X14779706Y-13616460D01*
X14779706Y-13616460D02*
X14798753Y-13625984D01*
X14798753Y-13625984D02*
X14836848Y-13625984D01*
X14836848Y-13625984D02*
X14855896Y-13616460D01*
X14855896Y-13616460D02*
X14865420Y-13606936D01*
X14865420Y-13606936D02*
X14874944Y-13587888D01*
X14874944Y-13587888D02*
X14874944Y-13540269D01*
X14874944Y-13540269D02*
X14865420Y-13521222D01*
X14865420Y-13521222D02*
X14855896Y-13511698D01*
X14855896Y-13511698D02*
X14836848Y-13502174D01*
X14836848Y-13502174D02*
X14798753Y-13502174D01*
X14798753Y-13502174D02*
X14779706Y-13511698D01*
X14779706Y-13511698D02*
X14770182Y-13521222D01*
X14770182Y-13521222D02*
X14760658Y-13540269D01*
X14951134Y-13425984D02*
X14951134Y-13464079D01*
X15027325Y-13425984D02*
X15027325Y-13464079D01*
X15322563Y-13702174D02*
X15313039Y-13692650D01*
X15313039Y-13692650D02*
X15293991Y-13664079D01*
X15293991Y-13664079D02*
X15284468Y-13645031D01*
X15284468Y-13645031D02*
X15274944Y-13616460D01*
X15274944Y-13616460D02*
X15265420Y-13568841D01*
X15265420Y-13568841D02*
X15265420Y-13530746D01*
X15265420Y-13530746D02*
X15274944Y-13483127D01*
X15274944Y-13483127D02*
X15284468Y-13454555D01*
X15284468Y-13454555D02*
X15293991Y-13435508D01*
X15293991Y-13435508D02*
X15313039Y-13406936D01*
X15313039Y-13406936D02*
X15322563Y-13397412D01*
X15484468Y-13425984D02*
X15446372Y-13425984D01*
X15446372Y-13425984D02*
X15427325Y-13435508D01*
X15427325Y-13435508D02*
X15417801Y-13445031D01*
X15417801Y-13445031D02*
X15398753Y-13473603D01*
X15398753Y-13473603D02*
X15389229Y-13511698D01*
X15389229Y-13511698D02*
X15389229Y-13587888D01*
X15389229Y-13587888D02*
X15398753Y-13606936D01*
X15398753Y-13606936D02*
X15408277Y-13616460D01*
X15408277Y-13616460D02*
X15427325Y-13625984D01*
X15427325Y-13625984D02*
X15465420Y-13625984D01*
X15465420Y-13625984D02*
X15484468Y-13616460D01*
X15484468Y-13616460D02*
X15493991Y-13606936D01*
X15493991Y-13606936D02*
X15503515Y-13587888D01*
X15503515Y-13587888D02*
X15503515Y-13540269D01*
X15503515Y-13540269D02*
X15493991Y-13521222D01*
X15493991Y-13521222D02*
X15484468Y-13511698D01*
X15484468Y-13511698D02*
X15465420Y-13502174D01*
X15465420Y-13502174D02*
X15427325Y-13502174D01*
X15427325Y-13502174D02*
X15408277Y-13511698D01*
X15408277Y-13511698D02*
X15398753Y-13521222D01*
X15398753Y-13521222D02*
X15389229Y-13540269D01*
X15741610Y-13625984D02*
X15741610Y-13425984D01*
X15827325Y-13625984D02*
X15827325Y-13521222D01*
X15827325Y-13521222D02*
X15817801Y-13502174D01*
X15817801Y-13502174D02*
X15798753Y-13492650D01*
X15798753Y-13492650D02*
X15770182Y-13492650D01*
X15770182Y-13492650D02*
X15751134Y-13502174D01*
X15751134Y-13502174D02*
X15741610Y-13511698D01*
X15951134Y-13625984D02*
X15932087Y-13616460D01*
X15932087Y-13616460D02*
X15922563Y-13606936D01*
X15922563Y-13606936D02*
X15913039Y-13587888D01*
X15913039Y-13587888D02*
X15913039Y-13530746D01*
X15913039Y-13530746D02*
X15922563Y-13511698D01*
X15922563Y-13511698D02*
X15932087Y-13502174D01*
X15932087Y-13502174D02*
X15951134Y-13492650D01*
X15951134Y-13492650D02*
X15979706Y-13492650D01*
X15979706Y-13492650D02*
X15998753Y-13502174D01*
X15998753Y-13502174D02*
X16008277Y-13511698D01*
X16008277Y-13511698D02*
X16017801Y-13530746D01*
X16017801Y-13530746D02*
X16017801Y-13587888D01*
X16017801Y-13587888D02*
X16008277Y-13606936D01*
X16008277Y-13606936D02*
X15998753Y-13616460D01*
X15998753Y-13616460D02*
X15979706Y-13625984D01*
X15979706Y-13625984D02*
X15951134Y-13625984D01*
X16132087Y-13625984D02*
X16113039Y-13616460D01*
X16113039Y-13616460D02*
X16103515Y-13597412D01*
X16103515Y-13597412D02*
X16103515Y-13425984D01*
X16284468Y-13616460D02*
X16265420Y-13625984D01*
X16265420Y-13625984D02*
X16227325Y-13625984D01*
X16227325Y-13625984D02*
X16208277Y-13616460D01*
X16208277Y-13616460D02*
X16198753Y-13597412D01*
X16198753Y-13597412D02*
X16198753Y-13521222D01*
X16198753Y-13521222D02*
X16208277Y-13502174D01*
X16208277Y-13502174D02*
X16227325Y-13492650D01*
X16227325Y-13492650D02*
X16265420Y-13492650D01*
X16265420Y-13492650D02*
X16284468Y-13502174D01*
X16284468Y-13502174D02*
X16293991Y-13521222D01*
X16293991Y-13521222D02*
X16293991Y-13540269D01*
X16293991Y-13540269D02*
X16198753Y-13559317D01*
X16370182Y-13616460D02*
X16389230Y-13625984D01*
X16389230Y-13625984D02*
X16427325Y-13625984D01*
X16427325Y-13625984D02*
X16446372Y-13616460D01*
X16446372Y-13616460D02*
X16455896Y-13597412D01*
X16455896Y-13597412D02*
X16455896Y-13587888D01*
X16455896Y-13587888D02*
X16446372Y-13568841D01*
X16446372Y-13568841D02*
X16427325Y-13559317D01*
X16427325Y-13559317D02*
X16398753Y-13559317D01*
X16398753Y-13559317D02*
X16379706Y-13549793D01*
X16379706Y-13549793D02*
X16370182Y-13530746D01*
X16370182Y-13530746D02*
X16370182Y-13521222D01*
X16370182Y-13521222D02*
X16379706Y-13502174D01*
X16379706Y-13502174D02*
X16398753Y-13492650D01*
X16398753Y-13492650D02*
X16427325Y-13492650D01*
X16427325Y-13492650D02*
X16446372Y-13502174D01*
X16522563Y-13702174D02*
X16532087Y-13692650D01*
X16532087Y-13692650D02*
X16551134Y-13664079D01*
X16551134Y-13664079D02*
X16560658Y-13645031D01*
X16560658Y-13645031D02*
X16570182Y-13616460D01*
X16570182Y-13616460D02*
X16579706Y-13568841D01*
X16579706Y-13568841D02*
X16579706Y-13530746D01*
X16579706Y-13530746D02*
X16570182Y-13483127D01*
X16570182Y-13483127D02*
X16560658Y-13454555D01*
X16560658Y-13454555D02*
X16551134Y-13435508D01*
X16551134Y-13435508D02*
X16532087Y-13406936D01*
X16532087Y-13406936D02*
X16522563Y-13397412D01*
D16*
X11710000Y-13836000D02*
X11747500Y-13798500D01*
X11710000Y-13761000D01*
X11672500Y-13798500D01*
X11710000Y-13836000D01*
D11*
X12046372Y-13689984D02*
X12065420Y-13689984D01*
X12065420Y-13689984D02*
X12084467Y-13699508D01*
X12084467Y-13699508D02*
X12093991Y-13709031D01*
X12093991Y-13709031D02*
X12103515Y-13728079D01*
X12103515Y-13728079D02*
X12113039Y-13766174D01*
X12113039Y-13766174D02*
X12113039Y-13813793D01*
X12113039Y-13813793D02*
X12103515Y-13851888D01*
X12103515Y-13851888D02*
X12093991Y-13870936D01*
X12093991Y-13870936D02*
X12084467Y-13880460D01*
X12084467Y-13880460D02*
X12065420Y-13889984D01*
X12065420Y-13889984D02*
X12046372Y-13889984D01*
X12046372Y-13889984D02*
X12027324Y-13880460D01*
X12027324Y-13880460D02*
X12017801Y-13870936D01*
X12017801Y-13870936D02*
X12008277Y-13851888D01*
X12008277Y-13851888D02*
X11998753Y-13813793D01*
X11998753Y-13813793D02*
X11998753Y-13766174D01*
X11998753Y-13766174D02*
X12008277Y-13728079D01*
X12008277Y-13728079D02*
X12017801Y-13709031D01*
X12017801Y-13709031D02*
X12027324Y-13699508D01*
X12027324Y-13699508D02*
X12046372Y-13689984D01*
X12198753Y-13870936D02*
X12208277Y-13880460D01*
X12208277Y-13880460D02*
X12198753Y-13889984D01*
X12198753Y-13889984D02*
X12189229Y-13880460D01*
X12189229Y-13880460D02*
X12198753Y-13870936D01*
X12198753Y-13870936D02*
X12198753Y-13889984D01*
X12274943Y-13689984D02*
X12408277Y-13689984D01*
X12408277Y-13689984D02*
X12322562Y-13889984D01*
X12579705Y-13689984D02*
X12484467Y-13689984D01*
X12484467Y-13689984D02*
X12474943Y-13785222D01*
X12474943Y-13785222D02*
X12484467Y-13775698D01*
X12484467Y-13775698D02*
X12503515Y-13766174D01*
X12503515Y-13766174D02*
X12551134Y-13766174D01*
X12551134Y-13766174D02*
X12570182Y-13775698D01*
X12570182Y-13775698D02*
X12579705Y-13785222D01*
X12579705Y-13785222D02*
X12589229Y-13804269D01*
X12589229Y-13804269D02*
X12589229Y-13851888D01*
X12589229Y-13851888D02*
X12579705Y-13870936D01*
X12579705Y-13870936D02*
X12570182Y-13880460D01*
X12570182Y-13880460D02*
X12551134Y-13889984D01*
X12551134Y-13889984D02*
X12503515Y-13889984D01*
X12503515Y-13889984D02*
X12484467Y-13880460D01*
X12484467Y-13880460D02*
X12474943Y-13870936D01*
X12713039Y-13689984D02*
X12732086Y-13689984D01*
X12732086Y-13689984D02*
X12751134Y-13699508D01*
X12751134Y-13699508D02*
X12760658Y-13709031D01*
X12760658Y-13709031D02*
X12770182Y-13728079D01*
X12770182Y-13728079D02*
X12779705Y-13766174D01*
X12779705Y-13766174D02*
X12779705Y-13813793D01*
X12779705Y-13813793D02*
X12770182Y-13851888D01*
X12770182Y-13851888D02*
X12760658Y-13870936D01*
X12760658Y-13870936D02*
X12751134Y-13880460D01*
X12751134Y-13880460D02*
X12732086Y-13889984D01*
X12732086Y-13889984D02*
X12713039Y-13889984D01*
X12713039Y-13889984D02*
X12693991Y-13880460D01*
X12693991Y-13880460D02*
X12684467Y-13870936D01*
X12684467Y-13870936D02*
X12674943Y-13851888D01*
X12674943Y-13851888D02*
X12665420Y-13813793D01*
X12665420Y-13813793D02*
X12665420Y-13766174D01*
X12665420Y-13766174D02*
X12674943Y-13728079D01*
X12674943Y-13728079D02*
X12684467Y-13709031D01*
X12684467Y-13709031D02*
X12693991Y-13699508D01*
X12693991Y-13699508D02*
X12713039Y-13689984D01*
X12865420Y-13889984D02*
X12865420Y-13756650D01*
X12865420Y-13775698D02*
X12874943Y-13766174D01*
X12874943Y-13766174D02*
X12893991Y-13756650D01*
X12893991Y-13756650D02*
X12922563Y-13756650D01*
X12922563Y-13756650D02*
X12941610Y-13766174D01*
X12941610Y-13766174D02*
X12951134Y-13785222D01*
X12951134Y-13785222D02*
X12951134Y-13889984D01*
X12951134Y-13785222D02*
X12960658Y-13766174D01*
X12960658Y-13766174D02*
X12979705Y-13756650D01*
X12979705Y-13756650D02*
X13008277Y-13756650D01*
X13008277Y-13756650D02*
X13027324Y-13766174D01*
X13027324Y-13766174D02*
X13036848Y-13785222D01*
X13036848Y-13785222D02*
X13036848Y-13889984D01*
X13132086Y-13889984D02*
X13132086Y-13756650D01*
X13132086Y-13775698D02*
X13141610Y-13766174D01*
X13141610Y-13766174D02*
X13160658Y-13756650D01*
X13160658Y-13756650D02*
X13189229Y-13756650D01*
X13189229Y-13756650D02*
X13208277Y-13766174D01*
X13208277Y-13766174D02*
X13217801Y-13785222D01*
X13217801Y-13785222D02*
X13217801Y-13889984D01*
X13217801Y-13785222D02*
X13227324Y-13766174D01*
X13227324Y-13766174D02*
X13246372Y-13756650D01*
X13246372Y-13756650D02*
X13274943Y-13756650D01*
X13274943Y-13756650D02*
X13293991Y-13766174D01*
X13293991Y-13766174D02*
X13303515Y-13785222D01*
X13303515Y-13785222D02*
X13303515Y-13889984D01*
X13693991Y-13680460D02*
X13522563Y-13937603D01*
X13951134Y-13689984D02*
X13970182Y-13689984D01*
X13970182Y-13689984D02*
X13989229Y-13699508D01*
X13989229Y-13699508D02*
X13998753Y-13709031D01*
X13998753Y-13709031D02*
X14008277Y-13728079D01*
X14008277Y-13728079D02*
X14017801Y-13766174D01*
X14017801Y-13766174D02*
X14017801Y-13813793D01*
X14017801Y-13813793D02*
X14008277Y-13851888D01*
X14008277Y-13851888D02*
X13998753Y-13870936D01*
X13998753Y-13870936D02*
X13989229Y-13880460D01*
X13989229Y-13880460D02*
X13970182Y-13889984D01*
X13970182Y-13889984D02*
X13951134Y-13889984D01*
X13951134Y-13889984D02*
X13932086Y-13880460D01*
X13932086Y-13880460D02*
X13922563Y-13870936D01*
X13922563Y-13870936D02*
X13913039Y-13851888D01*
X13913039Y-13851888D02*
X13903515Y-13813793D01*
X13903515Y-13813793D02*
X13903515Y-13766174D01*
X13903515Y-13766174D02*
X13913039Y-13728079D01*
X13913039Y-13728079D02*
X13922563Y-13709031D01*
X13922563Y-13709031D02*
X13932086Y-13699508D01*
X13932086Y-13699508D02*
X13951134Y-13689984D01*
X14103515Y-13870936D02*
X14113039Y-13880460D01*
X14113039Y-13880460D02*
X14103515Y-13889984D01*
X14103515Y-13889984D02*
X14093991Y-13880460D01*
X14093991Y-13880460D02*
X14103515Y-13870936D01*
X14103515Y-13870936D02*
X14103515Y-13889984D01*
X14236848Y-13689984D02*
X14255896Y-13689984D01*
X14255896Y-13689984D02*
X14274944Y-13699508D01*
X14274944Y-13699508D02*
X14284467Y-13709031D01*
X14284467Y-13709031D02*
X14293991Y-13728079D01*
X14293991Y-13728079D02*
X14303515Y-13766174D01*
X14303515Y-13766174D02*
X14303515Y-13813793D01*
X14303515Y-13813793D02*
X14293991Y-13851888D01*
X14293991Y-13851888D02*
X14284467Y-13870936D01*
X14284467Y-13870936D02*
X14274944Y-13880460D01*
X14274944Y-13880460D02*
X14255896Y-13889984D01*
X14255896Y-13889984D02*
X14236848Y-13889984D01*
X14236848Y-13889984D02*
X14217801Y-13880460D01*
X14217801Y-13880460D02*
X14208277Y-13870936D01*
X14208277Y-13870936D02*
X14198753Y-13851888D01*
X14198753Y-13851888D02*
X14189229Y-13813793D01*
X14189229Y-13813793D02*
X14189229Y-13766174D01*
X14189229Y-13766174D02*
X14198753Y-13728079D01*
X14198753Y-13728079D02*
X14208277Y-13709031D01*
X14208277Y-13709031D02*
X14217801Y-13699508D01*
X14217801Y-13699508D02*
X14236848Y-13689984D01*
X14379706Y-13709031D02*
X14389229Y-13699508D01*
X14389229Y-13699508D02*
X14408277Y-13689984D01*
X14408277Y-13689984D02*
X14455896Y-13689984D01*
X14455896Y-13689984D02*
X14474944Y-13699508D01*
X14474944Y-13699508D02*
X14484467Y-13709031D01*
X14484467Y-13709031D02*
X14493991Y-13728079D01*
X14493991Y-13728079D02*
X14493991Y-13747127D01*
X14493991Y-13747127D02*
X14484467Y-13775698D01*
X14484467Y-13775698D02*
X14370182Y-13889984D01*
X14370182Y-13889984D02*
X14493991Y-13889984D01*
X14589229Y-13889984D02*
X14627325Y-13889984D01*
X14627325Y-13889984D02*
X14646372Y-13880460D01*
X14646372Y-13880460D02*
X14655896Y-13870936D01*
X14655896Y-13870936D02*
X14674944Y-13842365D01*
X14674944Y-13842365D02*
X14684467Y-13804269D01*
X14684467Y-13804269D02*
X14684467Y-13728079D01*
X14684467Y-13728079D02*
X14674944Y-13709031D01*
X14674944Y-13709031D02*
X14665420Y-13699508D01*
X14665420Y-13699508D02*
X14646372Y-13689984D01*
X14646372Y-13689984D02*
X14608277Y-13689984D01*
X14608277Y-13689984D02*
X14589229Y-13699508D01*
X14589229Y-13699508D02*
X14579706Y-13709031D01*
X14579706Y-13709031D02*
X14570182Y-13728079D01*
X14570182Y-13728079D02*
X14570182Y-13775698D01*
X14570182Y-13775698D02*
X14579706Y-13794746D01*
X14579706Y-13794746D02*
X14589229Y-13804269D01*
X14589229Y-13804269D02*
X14608277Y-13813793D01*
X14608277Y-13813793D02*
X14646372Y-13813793D01*
X14646372Y-13813793D02*
X14665420Y-13804269D01*
X14665420Y-13804269D02*
X14674944Y-13794746D01*
X14674944Y-13794746D02*
X14684467Y-13775698D01*
X14865420Y-13689984D02*
X14770182Y-13689984D01*
X14770182Y-13689984D02*
X14760658Y-13785222D01*
X14760658Y-13785222D02*
X14770182Y-13775698D01*
X14770182Y-13775698D02*
X14789229Y-13766174D01*
X14789229Y-13766174D02*
X14836848Y-13766174D01*
X14836848Y-13766174D02*
X14855896Y-13775698D01*
X14855896Y-13775698D02*
X14865420Y-13785222D01*
X14865420Y-13785222D02*
X14874944Y-13804269D01*
X14874944Y-13804269D02*
X14874944Y-13851888D01*
X14874944Y-13851888D02*
X14865420Y-13870936D01*
X14865420Y-13870936D02*
X14855896Y-13880460D01*
X14855896Y-13880460D02*
X14836848Y-13889984D01*
X14836848Y-13889984D02*
X14789229Y-13889984D01*
X14789229Y-13889984D02*
X14770182Y-13880460D01*
X14770182Y-13880460D02*
X14760658Y-13870936D01*
X14951134Y-13689984D02*
X14951134Y-13728079D01*
X15027325Y-13689984D02*
X15027325Y-13728079D01*
X15322563Y-13966174D02*
X15313039Y-13956650D01*
X15313039Y-13956650D02*
X15293991Y-13928079D01*
X15293991Y-13928079D02*
X15284468Y-13909031D01*
X15284468Y-13909031D02*
X15274944Y-13880460D01*
X15274944Y-13880460D02*
X15265420Y-13832841D01*
X15265420Y-13832841D02*
X15265420Y-13794746D01*
X15265420Y-13794746D02*
X15274944Y-13747127D01*
X15274944Y-13747127D02*
X15284468Y-13718555D01*
X15284468Y-13718555D02*
X15293991Y-13699508D01*
X15293991Y-13699508D02*
X15313039Y-13670936D01*
X15313039Y-13670936D02*
X15322563Y-13661412D01*
X15379706Y-13689984D02*
X15513039Y-13689984D01*
X15513039Y-13689984D02*
X15427325Y-13889984D01*
X15741610Y-13889984D02*
X15741610Y-13689984D01*
X15827325Y-13889984D02*
X15827325Y-13785222D01*
X15827325Y-13785222D02*
X15817801Y-13766174D01*
X15817801Y-13766174D02*
X15798753Y-13756650D01*
X15798753Y-13756650D02*
X15770182Y-13756650D01*
X15770182Y-13756650D02*
X15751134Y-13766174D01*
X15751134Y-13766174D02*
X15741610Y-13775698D01*
X15951134Y-13889984D02*
X15932087Y-13880460D01*
X15932087Y-13880460D02*
X15922563Y-13870936D01*
X15922563Y-13870936D02*
X15913039Y-13851888D01*
X15913039Y-13851888D02*
X15913039Y-13794746D01*
X15913039Y-13794746D02*
X15922563Y-13775698D01*
X15922563Y-13775698D02*
X15932087Y-13766174D01*
X15932087Y-13766174D02*
X15951134Y-13756650D01*
X15951134Y-13756650D02*
X15979706Y-13756650D01*
X15979706Y-13756650D02*
X15998753Y-13766174D01*
X15998753Y-13766174D02*
X16008277Y-13775698D01*
X16008277Y-13775698D02*
X16017801Y-13794746D01*
X16017801Y-13794746D02*
X16017801Y-13851888D01*
X16017801Y-13851888D02*
X16008277Y-13870936D01*
X16008277Y-13870936D02*
X15998753Y-13880460D01*
X15998753Y-13880460D02*
X15979706Y-13889984D01*
X15979706Y-13889984D02*
X15951134Y-13889984D01*
X16132087Y-13889984D02*
X16113039Y-13880460D01*
X16113039Y-13880460D02*
X16103515Y-13861412D01*
X16103515Y-13861412D02*
X16103515Y-13689984D01*
X16284468Y-13880460D02*
X16265420Y-13889984D01*
X16265420Y-13889984D02*
X16227325Y-13889984D01*
X16227325Y-13889984D02*
X16208277Y-13880460D01*
X16208277Y-13880460D02*
X16198753Y-13861412D01*
X16198753Y-13861412D02*
X16198753Y-13785222D01*
X16198753Y-13785222D02*
X16208277Y-13766174D01*
X16208277Y-13766174D02*
X16227325Y-13756650D01*
X16227325Y-13756650D02*
X16265420Y-13756650D01*
X16265420Y-13756650D02*
X16284468Y-13766174D01*
X16284468Y-13766174D02*
X16293991Y-13785222D01*
X16293991Y-13785222D02*
X16293991Y-13804269D01*
X16293991Y-13804269D02*
X16198753Y-13823317D01*
X16370182Y-13880460D02*
X16389230Y-13889984D01*
X16389230Y-13889984D02*
X16427325Y-13889984D01*
X16427325Y-13889984D02*
X16446372Y-13880460D01*
X16446372Y-13880460D02*
X16455896Y-13861412D01*
X16455896Y-13861412D02*
X16455896Y-13851888D01*
X16455896Y-13851888D02*
X16446372Y-13832841D01*
X16446372Y-13832841D02*
X16427325Y-13823317D01*
X16427325Y-13823317D02*
X16398753Y-13823317D01*
X16398753Y-13823317D02*
X16379706Y-13813793D01*
X16379706Y-13813793D02*
X16370182Y-13794746D01*
X16370182Y-13794746D02*
X16370182Y-13785222D01*
X16370182Y-13785222D02*
X16379706Y-13766174D01*
X16379706Y-13766174D02*
X16398753Y-13756650D01*
X16398753Y-13756650D02*
X16427325Y-13756650D01*
X16427325Y-13756650D02*
X16446372Y-13766174D01*
X16522563Y-13966174D02*
X16532087Y-13956650D01*
X16532087Y-13956650D02*
X16551134Y-13928079D01*
X16551134Y-13928079D02*
X16560658Y-13909031D01*
X16560658Y-13909031D02*
X16570182Y-13880460D01*
X16570182Y-13880460D02*
X16579706Y-13832841D01*
X16579706Y-13832841D02*
X16579706Y-13794746D01*
X16579706Y-13794746D02*
X16570182Y-13747127D01*
X16570182Y-13747127D02*
X16560658Y-13718555D01*
X16560658Y-13718555D02*
X16551134Y-13699508D01*
X16551134Y-13699508D02*
X16532087Y-13670936D01*
X16532087Y-13670936D02*
X16522563Y-13661412D01*
D17*
X11648440Y-14012970D02*
X11747500Y-14112030D01*
X11747500Y-14012970D02*
X11648440Y-14112030D01*
X11747500Y-14062500D02*
G75*
G03*
X11747500Y-14062500I-49530J0D01*
G01*
D11*
X12046372Y-13953984D02*
X12065420Y-13953984D01*
X12065420Y-13953984D02*
X12084467Y-13963508D01*
X12084467Y-13963508D02*
X12093991Y-13973031D01*
X12093991Y-13973031D02*
X12103515Y-13992079D01*
X12103515Y-13992079D02*
X12113039Y-14030174D01*
X12113039Y-14030174D02*
X12113039Y-14077793D01*
X12113039Y-14077793D02*
X12103515Y-14115888D01*
X12103515Y-14115888D02*
X12093991Y-14134936D01*
X12093991Y-14134936D02*
X12084467Y-14144460D01*
X12084467Y-14144460D02*
X12065420Y-14153984D01*
X12065420Y-14153984D02*
X12046372Y-14153984D01*
X12046372Y-14153984D02*
X12027324Y-14144460D01*
X12027324Y-14144460D02*
X12017801Y-14134936D01*
X12017801Y-14134936D02*
X12008277Y-14115888D01*
X12008277Y-14115888D02*
X11998753Y-14077793D01*
X11998753Y-14077793D02*
X11998753Y-14030174D01*
X11998753Y-14030174D02*
X12008277Y-13992079D01*
X12008277Y-13992079D02*
X12017801Y-13973031D01*
X12017801Y-13973031D02*
X12027324Y-13963508D01*
X12027324Y-13963508D02*
X12046372Y-13953984D01*
X12198753Y-14134936D02*
X12208277Y-14144460D01*
X12208277Y-14144460D02*
X12198753Y-14153984D01*
X12198753Y-14153984D02*
X12189229Y-14144460D01*
X12189229Y-14144460D02*
X12198753Y-14134936D01*
X12198753Y-14134936D02*
X12198753Y-14153984D01*
X12303515Y-14153984D02*
X12341610Y-14153984D01*
X12341610Y-14153984D02*
X12360658Y-14144460D01*
X12360658Y-14144460D02*
X12370182Y-14134936D01*
X12370182Y-14134936D02*
X12389229Y-14106365D01*
X12389229Y-14106365D02*
X12398753Y-14068269D01*
X12398753Y-14068269D02*
X12398753Y-13992079D01*
X12398753Y-13992079D02*
X12389229Y-13973031D01*
X12389229Y-13973031D02*
X12379705Y-13963508D01*
X12379705Y-13963508D02*
X12360658Y-13953984D01*
X12360658Y-13953984D02*
X12322562Y-13953984D01*
X12322562Y-13953984D02*
X12303515Y-13963508D01*
X12303515Y-13963508D02*
X12293991Y-13973031D01*
X12293991Y-13973031D02*
X12284467Y-13992079D01*
X12284467Y-13992079D02*
X12284467Y-14039698D01*
X12284467Y-14039698D02*
X12293991Y-14058746D01*
X12293991Y-14058746D02*
X12303515Y-14068269D01*
X12303515Y-14068269D02*
X12322562Y-14077793D01*
X12322562Y-14077793D02*
X12360658Y-14077793D01*
X12360658Y-14077793D02*
X12379705Y-14068269D01*
X12379705Y-14068269D02*
X12389229Y-14058746D01*
X12389229Y-14058746D02*
X12398753Y-14039698D01*
X12493991Y-14153984D02*
X12532086Y-14153984D01*
X12532086Y-14153984D02*
X12551134Y-14144460D01*
X12551134Y-14144460D02*
X12560658Y-14134936D01*
X12560658Y-14134936D02*
X12579705Y-14106365D01*
X12579705Y-14106365D02*
X12589229Y-14068269D01*
X12589229Y-14068269D02*
X12589229Y-13992079D01*
X12589229Y-13992079D02*
X12579705Y-13973031D01*
X12579705Y-13973031D02*
X12570182Y-13963508D01*
X12570182Y-13963508D02*
X12551134Y-13953984D01*
X12551134Y-13953984D02*
X12513039Y-13953984D01*
X12513039Y-13953984D02*
X12493991Y-13963508D01*
X12493991Y-13963508D02*
X12484467Y-13973031D01*
X12484467Y-13973031D02*
X12474943Y-13992079D01*
X12474943Y-13992079D02*
X12474943Y-14039698D01*
X12474943Y-14039698D02*
X12484467Y-14058746D01*
X12484467Y-14058746D02*
X12493991Y-14068269D01*
X12493991Y-14068269D02*
X12513039Y-14077793D01*
X12513039Y-14077793D02*
X12551134Y-14077793D01*
X12551134Y-14077793D02*
X12570182Y-14068269D01*
X12570182Y-14068269D02*
X12579705Y-14058746D01*
X12579705Y-14058746D02*
X12589229Y-14039698D01*
X12779705Y-14153984D02*
X12665420Y-14153984D01*
X12722562Y-14153984D02*
X12722562Y-13953984D01*
X12722562Y-13953984D02*
X12703515Y-13982555D01*
X12703515Y-13982555D02*
X12684467Y-14001603D01*
X12684467Y-14001603D02*
X12665420Y-14011127D01*
X12865420Y-14153984D02*
X12865420Y-14020650D01*
X12865420Y-14039698D02*
X12874943Y-14030174D01*
X12874943Y-14030174D02*
X12893991Y-14020650D01*
X12893991Y-14020650D02*
X12922563Y-14020650D01*
X12922563Y-14020650D02*
X12941610Y-14030174D01*
X12941610Y-14030174D02*
X12951134Y-14049222D01*
X12951134Y-14049222D02*
X12951134Y-14153984D01*
X12951134Y-14049222D02*
X12960658Y-14030174D01*
X12960658Y-14030174D02*
X12979705Y-14020650D01*
X12979705Y-14020650D02*
X13008277Y-14020650D01*
X13008277Y-14020650D02*
X13027324Y-14030174D01*
X13027324Y-14030174D02*
X13036848Y-14049222D01*
X13036848Y-14049222D02*
X13036848Y-14153984D01*
X13132086Y-14153984D02*
X13132086Y-14020650D01*
X13132086Y-14039698D02*
X13141610Y-14030174D01*
X13141610Y-14030174D02*
X13160658Y-14020650D01*
X13160658Y-14020650D02*
X13189229Y-14020650D01*
X13189229Y-14020650D02*
X13208277Y-14030174D01*
X13208277Y-14030174D02*
X13217801Y-14049222D01*
X13217801Y-14049222D02*
X13217801Y-14153984D01*
X13217801Y-14049222D02*
X13227324Y-14030174D01*
X13227324Y-14030174D02*
X13246372Y-14020650D01*
X13246372Y-14020650D02*
X13274943Y-14020650D01*
X13274943Y-14020650D02*
X13293991Y-14030174D01*
X13293991Y-14030174D02*
X13303515Y-14049222D01*
X13303515Y-14049222D02*
X13303515Y-14153984D01*
X13693991Y-13944460D02*
X13522563Y-14201603D01*
X13951134Y-13953984D02*
X13970182Y-13953984D01*
X13970182Y-13953984D02*
X13989229Y-13963508D01*
X13989229Y-13963508D02*
X13998753Y-13973031D01*
X13998753Y-13973031D02*
X14008277Y-13992079D01*
X14008277Y-13992079D02*
X14017801Y-14030174D01*
X14017801Y-14030174D02*
X14017801Y-14077793D01*
X14017801Y-14077793D02*
X14008277Y-14115888D01*
X14008277Y-14115888D02*
X13998753Y-14134936D01*
X13998753Y-14134936D02*
X13989229Y-14144460D01*
X13989229Y-14144460D02*
X13970182Y-14153984D01*
X13970182Y-14153984D02*
X13951134Y-14153984D01*
X13951134Y-14153984D02*
X13932086Y-14144460D01*
X13932086Y-14144460D02*
X13922563Y-14134936D01*
X13922563Y-14134936D02*
X13913039Y-14115888D01*
X13913039Y-14115888D02*
X13903515Y-14077793D01*
X13903515Y-14077793D02*
X13903515Y-14030174D01*
X13903515Y-14030174D02*
X13913039Y-13992079D01*
X13913039Y-13992079D02*
X13922563Y-13973031D01*
X13922563Y-13973031D02*
X13932086Y-13963508D01*
X13932086Y-13963508D02*
X13951134Y-13953984D01*
X14103515Y-14134936D02*
X14113039Y-14144460D01*
X14113039Y-14144460D02*
X14103515Y-14153984D01*
X14103515Y-14153984D02*
X14093991Y-14144460D01*
X14093991Y-14144460D02*
X14103515Y-14134936D01*
X14103515Y-14134936D02*
X14103515Y-14153984D01*
X14236848Y-13953984D02*
X14255896Y-13953984D01*
X14255896Y-13953984D02*
X14274944Y-13963508D01*
X14274944Y-13963508D02*
X14284467Y-13973031D01*
X14284467Y-13973031D02*
X14293991Y-13992079D01*
X14293991Y-13992079D02*
X14303515Y-14030174D01*
X14303515Y-14030174D02*
X14303515Y-14077793D01*
X14303515Y-14077793D02*
X14293991Y-14115888D01*
X14293991Y-14115888D02*
X14284467Y-14134936D01*
X14284467Y-14134936D02*
X14274944Y-14144460D01*
X14274944Y-14144460D02*
X14255896Y-14153984D01*
X14255896Y-14153984D02*
X14236848Y-14153984D01*
X14236848Y-14153984D02*
X14217801Y-14144460D01*
X14217801Y-14144460D02*
X14208277Y-14134936D01*
X14208277Y-14134936D02*
X14198753Y-14115888D01*
X14198753Y-14115888D02*
X14189229Y-14077793D01*
X14189229Y-14077793D02*
X14189229Y-14030174D01*
X14189229Y-14030174D02*
X14198753Y-13992079D01*
X14198753Y-13992079D02*
X14208277Y-13973031D01*
X14208277Y-13973031D02*
X14217801Y-13963508D01*
X14217801Y-13963508D02*
X14236848Y-13953984D01*
X14370182Y-13953984D02*
X14493991Y-13953984D01*
X14493991Y-13953984D02*
X14427325Y-14030174D01*
X14427325Y-14030174D02*
X14455896Y-14030174D01*
X14455896Y-14030174D02*
X14474944Y-14039698D01*
X14474944Y-14039698D02*
X14484467Y-14049222D01*
X14484467Y-14049222D02*
X14493991Y-14068269D01*
X14493991Y-14068269D02*
X14493991Y-14115888D01*
X14493991Y-14115888D02*
X14484467Y-14134936D01*
X14484467Y-14134936D02*
X14474944Y-14144460D01*
X14474944Y-14144460D02*
X14455896Y-14153984D01*
X14455896Y-14153984D02*
X14398753Y-14153984D01*
X14398753Y-14153984D02*
X14379706Y-14144460D01*
X14379706Y-14144460D02*
X14370182Y-14134936D01*
X14589229Y-14153984D02*
X14627325Y-14153984D01*
X14627325Y-14153984D02*
X14646372Y-14144460D01*
X14646372Y-14144460D02*
X14655896Y-14134936D01*
X14655896Y-14134936D02*
X14674944Y-14106365D01*
X14674944Y-14106365D02*
X14684467Y-14068269D01*
X14684467Y-14068269D02*
X14684467Y-13992079D01*
X14684467Y-13992079D02*
X14674944Y-13973031D01*
X14674944Y-13973031D02*
X14665420Y-13963508D01*
X14665420Y-13963508D02*
X14646372Y-13953984D01*
X14646372Y-13953984D02*
X14608277Y-13953984D01*
X14608277Y-13953984D02*
X14589229Y-13963508D01*
X14589229Y-13963508D02*
X14579706Y-13973031D01*
X14579706Y-13973031D02*
X14570182Y-13992079D01*
X14570182Y-13992079D02*
X14570182Y-14039698D01*
X14570182Y-14039698D02*
X14579706Y-14058746D01*
X14579706Y-14058746D02*
X14589229Y-14068269D01*
X14589229Y-14068269D02*
X14608277Y-14077793D01*
X14608277Y-14077793D02*
X14646372Y-14077793D01*
X14646372Y-14077793D02*
X14665420Y-14068269D01*
X14665420Y-14068269D02*
X14674944Y-14058746D01*
X14674944Y-14058746D02*
X14684467Y-14039698D01*
X14808277Y-13953984D02*
X14827325Y-13953984D01*
X14827325Y-13953984D02*
X14846372Y-13963508D01*
X14846372Y-13963508D02*
X14855896Y-13973031D01*
X14855896Y-13973031D02*
X14865420Y-13992079D01*
X14865420Y-13992079D02*
X14874944Y-14030174D01*
X14874944Y-14030174D02*
X14874944Y-14077793D01*
X14874944Y-14077793D02*
X14865420Y-14115888D01*
X14865420Y-14115888D02*
X14855896Y-14134936D01*
X14855896Y-14134936D02*
X14846372Y-14144460D01*
X14846372Y-14144460D02*
X14827325Y-14153984D01*
X14827325Y-14153984D02*
X14808277Y-14153984D01*
X14808277Y-14153984D02*
X14789229Y-14144460D01*
X14789229Y-14144460D02*
X14779706Y-14134936D01*
X14779706Y-14134936D02*
X14770182Y-14115888D01*
X14770182Y-14115888D02*
X14760658Y-14077793D01*
X14760658Y-14077793D02*
X14760658Y-14030174D01*
X14760658Y-14030174D02*
X14770182Y-13992079D01*
X14770182Y-13992079D02*
X14779706Y-13973031D01*
X14779706Y-13973031D02*
X14789229Y-13963508D01*
X14789229Y-13963508D02*
X14808277Y-13953984D01*
X14951134Y-13953984D02*
X14951134Y-13992079D01*
X15027325Y-13953984D02*
X15027325Y-13992079D01*
X15322563Y-14230174D02*
X15313039Y-14220650D01*
X15313039Y-14220650D02*
X15293991Y-14192079D01*
X15293991Y-14192079D02*
X15284468Y-14173031D01*
X15284468Y-14173031D02*
X15274944Y-14144460D01*
X15274944Y-14144460D02*
X15265420Y-14096841D01*
X15265420Y-14096841D02*
X15265420Y-14058746D01*
X15265420Y-14058746D02*
X15274944Y-14011127D01*
X15274944Y-14011127D02*
X15284468Y-13982555D01*
X15284468Y-13982555D02*
X15293991Y-13963508D01*
X15293991Y-13963508D02*
X15313039Y-13934936D01*
X15313039Y-13934936D02*
X15322563Y-13925412D01*
X15389229Y-13973031D02*
X15398753Y-13963508D01*
X15398753Y-13963508D02*
X15417801Y-13953984D01*
X15417801Y-13953984D02*
X15465420Y-13953984D01*
X15465420Y-13953984D02*
X15484468Y-13963508D01*
X15484468Y-13963508D02*
X15493991Y-13973031D01*
X15493991Y-13973031D02*
X15503515Y-13992079D01*
X15503515Y-13992079D02*
X15503515Y-14011127D01*
X15503515Y-14011127D02*
X15493991Y-14039698D01*
X15493991Y-14039698D02*
X15379706Y-14153984D01*
X15379706Y-14153984D02*
X15503515Y-14153984D01*
X15741610Y-14153984D02*
X15741610Y-13953984D01*
X15827325Y-14153984D02*
X15827325Y-14049222D01*
X15827325Y-14049222D02*
X15817801Y-14030174D01*
X15817801Y-14030174D02*
X15798753Y-14020650D01*
X15798753Y-14020650D02*
X15770182Y-14020650D01*
X15770182Y-14020650D02*
X15751134Y-14030174D01*
X15751134Y-14030174D02*
X15741610Y-14039698D01*
X15951134Y-14153984D02*
X15932087Y-14144460D01*
X15932087Y-14144460D02*
X15922563Y-14134936D01*
X15922563Y-14134936D02*
X15913039Y-14115888D01*
X15913039Y-14115888D02*
X15913039Y-14058746D01*
X15913039Y-14058746D02*
X15922563Y-14039698D01*
X15922563Y-14039698D02*
X15932087Y-14030174D01*
X15932087Y-14030174D02*
X15951134Y-14020650D01*
X15951134Y-14020650D02*
X15979706Y-14020650D01*
X15979706Y-14020650D02*
X15998753Y-14030174D01*
X15998753Y-14030174D02*
X16008277Y-14039698D01*
X16008277Y-14039698D02*
X16017801Y-14058746D01*
X16017801Y-14058746D02*
X16017801Y-14115888D01*
X16017801Y-14115888D02*
X16008277Y-14134936D01*
X16008277Y-14134936D02*
X15998753Y-14144460D01*
X15998753Y-14144460D02*
X15979706Y-14153984D01*
X15979706Y-14153984D02*
X15951134Y-14153984D01*
X16132087Y-14153984D02*
X16113039Y-14144460D01*
X16113039Y-14144460D02*
X16103515Y-14125412D01*
X16103515Y-14125412D02*
X16103515Y-13953984D01*
X16284468Y-14144460D02*
X16265420Y-14153984D01*
X16265420Y-14153984D02*
X16227325Y-14153984D01*
X16227325Y-14153984D02*
X16208277Y-14144460D01*
X16208277Y-14144460D02*
X16198753Y-14125412D01*
X16198753Y-14125412D02*
X16198753Y-14049222D01*
X16198753Y-14049222D02*
X16208277Y-14030174D01*
X16208277Y-14030174D02*
X16227325Y-14020650D01*
X16227325Y-14020650D02*
X16265420Y-14020650D01*
X16265420Y-14020650D02*
X16284468Y-14030174D01*
X16284468Y-14030174D02*
X16293991Y-14049222D01*
X16293991Y-14049222D02*
X16293991Y-14068269D01*
X16293991Y-14068269D02*
X16198753Y-14087317D01*
X16370182Y-14144460D02*
X16389230Y-14153984D01*
X16389230Y-14153984D02*
X16427325Y-14153984D01*
X16427325Y-14153984D02*
X16446372Y-14144460D01*
X16446372Y-14144460D02*
X16455896Y-14125412D01*
X16455896Y-14125412D02*
X16455896Y-14115888D01*
X16455896Y-14115888D02*
X16446372Y-14096841D01*
X16446372Y-14096841D02*
X16427325Y-14087317D01*
X16427325Y-14087317D02*
X16398753Y-14087317D01*
X16398753Y-14087317D02*
X16379706Y-14077793D01*
X16379706Y-14077793D02*
X16370182Y-14058746D01*
X16370182Y-14058746D02*
X16370182Y-14049222D01*
X16370182Y-14049222D02*
X16379706Y-14030174D01*
X16379706Y-14030174D02*
X16398753Y-14020650D01*
X16398753Y-14020650D02*
X16427325Y-14020650D01*
X16427325Y-14020650D02*
X16446372Y-14030174D01*
X16522563Y-14230174D02*
X16532087Y-14220650D01*
X16532087Y-14220650D02*
X16551134Y-14192079D01*
X16551134Y-14192079D02*
X16560658Y-14173031D01*
X16560658Y-14173031D02*
X16570182Y-14144460D01*
X16570182Y-14144460D02*
X16579706Y-14096841D01*
X16579706Y-14096841D02*
X16579706Y-14058746D01*
X16579706Y-14058746D02*
X16570182Y-14011127D01*
X16570182Y-14011127D02*
X16560658Y-13982555D01*
X16560658Y-13982555D02*
X16551134Y-13963508D01*
X16551134Y-13963508D02*
X16532087Y-13934936D01*
X16532087Y-13934936D02*
X16522563Y-13925412D01*
D18*
X11617960Y-14261730D02*
X11747500Y-14391270D01*
X11747500Y-14261730D02*
X11617960Y-14391270D01*
X11682730Y-14261730D02*
X11682730Y-14391270D01*
X11617960Y-14326500D02*
X11747500Y-14326500D01*
D11*
X12113039Y-14417984D02*
X11998753Y-14417984D01*
X12055896Y-14417984D02*
X12055896Y-14217984D01*
X12055896Y-14217984D02*
X12036848Y-14246555D01*
X12036848Y-14246555D02*
X12017801Y-14265603D01*
X12017801Y-14265603D02*
X11998753Y-14275127D01*
X12198753Y-14398936D02*
X12208277Y-14408460D01*
X12208277Y-14408460D02*
X12198753Y-14417984D01*
X12198753Y-14417984D02*
X12189229Y-14408460D01*
X12189229Y-14408460D02*
X12198753Y-14398936D01*
X12198753Y-14398936D02*
X12198753Y-14417984D01*
X12284467Y-14237031D02*
X12293991Y-14227508D01*
X12293991Y-14227508D02*
X12313039Y-14217984D01*
X12313039Y-14217984D02*
X12360658Y-14217984D01*
X12360658Y-14217984D02*
X12379705Y-14227508D01*
X12379705Y-14227508D02*
X12389229Y-14237031D01*
X12389229Y-14237031D02*
X12398753Y-14256079D01*
X12398753Y-14256079D02*
X12398753Y-14275127D01*
X12398753Y-14275127D02*
X12389229Y-14303698D01*
X12389229Y-14303698D02*
X12274943Y-14417984D01*
X12274943Y-14417984D02*
X12398753Y-14417984D01*
X12493991Y-14417984D02*
X12532086Y-14417984D01*
X12532086Y-14417984D02*
X12551134Y-14408460D01*
X12551134Y-14408460D02*
X12560658Y-14398936D01*
X12560658Y-14398936D02*
X12579705Y-14370365D01*
X12579705Y-14370365D02*
X12589229Y-14332269D01*
X12589229Y-14332269D02*
X12589229Y-14256079D01*
X12589229Y-14256079D02*
X12579705Y-14237031D01*
X12579705Y-14237031D02*
X12570182Y-14227508D01*
X12570182Y-14227508D02*
X12551134Y-14217984D01*
X12551134Y-14217984D02*
X12513039Y-14217984D01*
X12513039Y-14217984D02*
X12493991Y-14227508D01*
X12493991Y-14227508D02*
X12484467Y-14237031D01*
X12484467Y-14237031D02*
X12474943Y-14256079D01*
X12474943Y-14256079D02*
X12474943Y-14303698D01*
X12474943Y-14303698D02*
X12484467Y-14322746D01*
X12484467Y-14322746D02*
X12493991Y-14332269D01*
X12493991Y-14332269D02*
X12513039Y-14341793D01*
X12513039Y-14341793D02*
X12551134Y-14341793D01*
X12551134Y-14341793D02*
X12570182Y-14332269D01*
X12570182Y-14332269D02*
X12579705Y-14322746D01*
X12579705Y-14322746D02*
X12589229Y-14303698D01*
X12770182Y-14217984D02*
X12674943Y-14217984D01*
X12674943Y-14217984D02*
X12665420Y-14313222D01*
X12665420Y-14313222D02*
X12674943Y-14303698D01*
X12674943Y-14303698D02*
X12693991Y-14294174D01*
X12693991Y-14294174D02*
X12741610Y-14294174D01*
X12741610Y-14294174D02*
X12760658Y-14303698D01*
X12760658Y-14303698D02*
X12770182Y-14313222D01*
X12770182Y-14313222D02*
X12779705Y-14332269D01*
X12779705Y-14332269D02*
X12779705Y-14379888D01*
X12779705Y-14379888D02*
X12770182Y-14398936D01*
X12770182Y-14398936D02*
X12760658Y-14408460D01*
X12760658Y-14408460D02*
X12741610Y-14417984D01*
X12741610Y-14417984D02*
X12693991Y-14417984D01*
X12693991Y-14417984D02*
X12674943Y-14408460D01*
X12674943Y-14408460D02*
X12665420Y-14398936D01*
X12865420Y-14417984D02*
X12865420Y-14284650D01*
X12865420Y-14303698D02*
X12874943Y-14294174D01*
X12874943Y-14294174D02*
X12893991Y-14284650D01*
X12893991Y-14284650D02*
X12922563Y-14284650D01*
X12922563Y-14284650D02*
X12941610Y-14294174D01*
X12941610Y-14294174D02*
X12951134Y-14313222D01*
X12951134Y-14313222D02*
X12951134Y-14417984D01*
X12951134Y-14313222D02*
X12960658Y-14294174D01*
X12960658Y-14294174D02*
X12979705Y-14284650D01*
X12979705Y-14284650D02*
X13008277Y-14284650D01*
X13008277Y-14284650D02*
X13027324Y-14294174D01*
X13027324Y-14294174D02*
X13036848Y-14313222D01*
X13036848Y-14313222D02*
X13036848Y-14417984D01*
X13132086Y-14417984D02*
X13132086Y-14284650D01*
X13132086Y-14303698D02*
X13141610Y-14294174D01*
X13141610Y-14294174D02*
X13160658Y-14284650D01*
X13160658Y-14284650D02*
X13189229Y-14284650D01*
X13189229Y-14284650D02*
X13208277Y-14294174D01*
X13208277Y-14294174D02*
X13217801Y-14313222D01*
X13217801Y-14313222D02*
X13217801Y-14417984D01*
X13217801Y-14313222D02*
X13227324Y-14294174D01*
X13227324Y-14294174D02*
X13246372Y-14284650D01*
X13246372Y-14284650D02*
X13274943Y-14284650D01*
X13274943Y-14284650D02*
X13293991Y-14294174D01*
X13293991Y-14294174D02*
X13303515Y-14313222D01*
X13303515Y-14313222D02*
X13303515Y-14417984D01*
X13693991Y-14208460D02*
X13522563Y-14465603D01*
X13951134Y-14217984D02*
X13970182Y-14217984D01*
X13970182Y-14217984D02*
X13989229Y-14227508D01*
X13989229Y-14227508D02*
X13998753Y-14237031D01*
X13998753Y-14237031D02*
X14008277Y-14256079D01*
X14008277Y-14256079D02*
X14017801Y-14294174D01*
X14017801Y-14294174D02*
X14017801Y-14341793D01*
X14017801Y-14341793D02*
X14008277Y-14379888D01*
X14008277Y-14379888D02*
X13998753Y-14398936D01*
X13998753Y-14398936D02*
X13989229Y-14408460D01*
X13989229Y-14408460D02*
X13970182Y-14417984D01*
X13970182Y-14417984D02*
X13951134Y-14417984D01*
X13951134Y-14417984D02*
X13932086Y-14408460D01*
X13932086Y-14408460D02*
X13922563Y-14398936D01*
X13922563Y-14398936D02*
X13913039Y-14379888D01*
X13913039Y-14379888D02*
X13903515Y-14341793D01*
X13903515Y-14341793D02*
X13903515Y-14294174D01*
X13903515Y-14294174D02*
X13913039Y-14256079D01*
X13913039Y-14256079D02*
X13922563Y-14237031D01*
X13922563Y-14237031D02*
X13932086Y-14227508D01*
X13932086Y-14227508D02*
X13951134Y-14217984D01*
X14103515Y-14398936D02*
X14113039Y-14408460D01*
X14113039Y-14408460D02*
X14103515Y-14417984D01*
X14103515Y-14417984D02*
X14093991Y-14408460D01*
X14093991Y-14408460D02*
X14103515Y-14398936D01*
X14103515Y-14398936D02*
X14103515Y-14417984D01*
X14236848Y-14217984D02*
X14255896Y-14217984D01*
X14255896Y-14217984D02*
X14274944Y-14227508D01*
X14274944Y-14227508D02*
X14284467Y-14237031D01*
X14284467Y-14237031D02*
X14293991Y-14256079D01*
X14293991Y-14256079D02*
X14303515Y-14294174D01*
X14303515Y-14294174D02*
X14303515Y-14341793D01*
X14303515Y-14341793D02*
X14293991Y-14379888D01*
X14293991Y-14379888D02*
X14284467Y-14398936D01*
X14284467Y-14398936D02*
X14274944Y-14408460D01*
X14274944Y-14408460D02*
X14255896Y-14417984D01*
X14255896Y-14417984D02*
X14236848Y-14417984D01*
X14236848Y-14417984D02*
X14217801Y-14408460D01*
X14217801Y-14408460D02*
X14208277Y-14398936D01*
X14208277Y-14398936D02*
X14198753Y-14379888D01*
X14198753Y-14379888D02*
X14189229Y-14341793D01*
X14189229Y-14341793D02*
X14189229Y-14294174D01*
X14189229Y-14294174D02*
X14198753Y-14256079D01*
X14198753Y-14256079D02*
X14208277Y-14237031D01*
X14208277Y-14237031D02*
X14217801Y-14227508D01*
X14217801Y-14227508D02*
X14236848Y-14217984D01*
X14484467Y-14217984D02*
X14389229Y-14217984D01*
X14389229Y-14217984D02*
X14379706Y-14313222D01*
X14379706Y-14313222D02*
X14389229Y-14303698D01*
X14389229Y-14303698D02*
X14408277Y-14294174D01*
X14408277Y-14294174D02*
X14455896Y-14294174D01*
X14455896Y-14294174D02*
X14474944Y-14303698D01*
X14474944Y-14303698D02*
X14484467Y-14313222D01*
X14484467Y-14313222D02*
X14493991Y-14332269D01*
X14493991Y-14332269D02*
X14493991Y-14379888D01*
X14493991Y-14379888D02*
X14484467Y-14398936D01*
X14484467Y-14398936D02*
X14474944Y-14408460D01*
X14474944Y-14408460D02*
X14455896Y-14417984D01*
X14455896Y-14417984D02*
X14408277Y-14417984D01*
X14408277Y-14417984D02*
X14389229Y-14408460D01*
X14389229Y-14408460D02*
X14379706Y-14398936D01*
X14684467Y-14417984D02*
X14570182Y-14417984D01*
X14627325Y-14417984D02*
X14627325Y-14217984D01*
X14627325Y-14217984D02*
X14608277Y-14246555D01*
X14608277Y-14246555D02*
X14589229Y-14265603D01*
X14589229Y-14265603D02*
X14570182Y-14275127D01*
X14808277Y-14217984D02*
X14827325Y-14217984D01*
X14827325Y-14217984D02*
X14846372Y-14227508D01*
X14846372Y-14227508D02*
X14855896Y-14237031D01*
X14855896Y-14237031D02*
X14865420Y-14256079D01*
X14865420Y-14256079D02*
X14874944Y-14294174D01*
X14874944Y-14294174D02*
X14874944Y-14341793D01*
X14874944Y-14341793D02*
X14865420Y-14379888D01*
X14865420Y-14379888D02*
X14855896Y-14398936D01*
X14855896Y-14398936D02*
X14846372Y-14408460D01*
X14846372Y-14408460D02*
X14827325Y-14417984D01*
X14827325Y-14417984D02*
X14808277Y-14417984D01*
X14808277Y-14417984D02*
X14789229Y-14408460D01*
X14789229Y-14408460D02*
X14779706Y-14398936D01*
X14779706Y-14398936D02*
X14770182Y-14379888D01*
X14770182Y-14379888D02*
X14760658Y-14341793D01*
X14760658Y-14341793D02*
X14760658Y-14294174D01*
X14760658Y-14294174D02*
X14770182Y-14256079D01*
X14770182Y-14256079D02*
X14779706Y-14237031D01*
X14779706Y-14237031D02*
X14789229Y-14227508D01*
X14789229Y-14227508D02*
X14808277Y-14217984D01*
X14951134Y-14217984D02*
X14951134Y-14256079D01*
X15027325Y-14217984D02*
X15027325Y-14256079D01*
X15322563Y-14494174D02*
X15313039Y-14484650D01*
X15313039Y-14484650D02*
X15293991Y-14456079D01*
X15293991Y-14456079D02*
X15284468Y-14437031D01*
X15284468Y-14437031D02*
X15274944Y-14408460D01*
X15274944Y-14408460D02*
X15265420Y-14360841D01*
X15265420Y-14360841D02*
X15265420Y-14322746D01*
X15265420Y-14322746D02*
X15274944Y-14275127D01*
X15274944Y-14275127D02*
X15284468Y-14246555D01*
X15284468Y-14246555D02*
X15293991Y-14227508D01*
X15293991Y-14227508D02*
X15313039Y-14198936D01*
X15313039Y-14198936D02*
X15322563Y-14189412D01*
X15389229Y-14237031D02*
X15398753Y-14227508D01*
X15398753Y-14227508D02*
X15417801Y-14217984D01*
X15417801Y-14217984D02*
X15465420Y-14217984D01*
X15465420Y-14217984D02*
X15484468Y-14227508D01*
X15484468Y-14227508D02*
X15493991Y-14237031D01*
X15493991Y-14237031D02*
X15503515Y-14256079D01*
X15503515Y-14256079D02*
X15503515Y-14275127D01*
X15503515Y-14275127D02*
X15493991Y-14303698D01*
X15493991Y-14303698D02*
X15379706Y-14417984D01*
X15379706Y-14417984D02*
X15503515Y-14417984D01*
X15741610Y-14417984D02*
X15741610Y-14217984D01*
X15827325Y-14417984D02*
X15827325Y-14313222D01*
X15827325Y-14313222D02*
X15817801Y-14294174D01*
X15817801Y-14294174D02*
X15798753Y-14284650D01*
X15798753Y-14284650D02*
X15770182Y-14284650D01*
X15770182Y-14284650D02*
X15751134Y-14294174D01*
X15751134Y-14294174D02*
X15741610Y-14303698D01*
X15951134Y-14417984D02*
X15932087Y-14408460D01*
X15932087Y-14408460D02*
X15922563Y-14398936D01*
X15922563Y-14398936D02*
X15913039Y-14379888D01*
X15913039Y-14379888D02*
X15913039Y-14322746D01*
X15913039Y-14322746D02*
X15922563Y-14303698D01*
X15922563Y-14303698D02*
X15932087Y-14294174D01*
X15932087Y-14294174D02*
X15951134Y-14284650D01*
X15951134Y-14284650D02*
X15979706Y-14284650D01*
X15979706Y-14284650D02*
X15998753Y-14294174D01*
X15998753Y-14294174D02*
X16008277Y-14303698D01*
X16008277Y-14303698D02*
X16017801Y-14322746D01*
X16017801Y-14322746D02*
X16017801Y-14379888D01*
X16017801Y-14379888D02*
X16008277Y-14398936D01*
X16008277Y-14398936D02*
X15998753Y-14408460D01*
X15998753Y-14408460D02*
X15979706Y-14417984D01*
X15979706Y-14417984D02*
X15951134Y-14417984D01*
X16132087Y-14417984D02*
X16113039Y-14408460D01*
X16113039Y-14408460D02*
X16103515Y-14389412D01*
X16103515Y-14389412D02*
X16103515Y-14217984D01*
X16284468Y-14408460D02*
X16265420Y-14417984D01*
X16265420Y-14417984D02*
X16227325Y-14417984D01*
X16227325Y-14417984D02*
X16208277Y-14408460D01*
X16208277Y-14408460D02*
X16198753Y-14389412D01*
X16198753Y-14389412D02*
X16198753Y-14313222D01*
X16198753Y-14313222D02*
X16208277Y-14294174D01*
X16208277Y-14294174D02*
X16227325Y-14284650D01*
X16227325Y-14284650D02*
X16265420Y-14284650D01*
X16265420Y-14284650D02*
X16284468Y-14294174D01*
X16284468Y-14294174D02*
X16293991Y-14313222D01*
X16293991Y-14313222D02*
X16293991Y-14332269D01*
X16293991Y-14332269D02*
X16198753Y-14351317D01*
X16370182Y-14408460D02*
X16389230Y-14417984D01*
X16389230Y-14417984D02*
X16427325Y-14417984D01*
X16427325Y-14417984D02*
X16446372Y-14408460D01*
X16446372Y-14408460D02*
X16455896Y-14389412D01*
X16455896Y-14389412D02*
X16455896Y-14379888D01*
X16455896Y-14379888D02*
X16446372Y-14360841D01*
X16446372Y-14360841D02*
X16427325Y-14351317D01*
X16427325Y-14351317D02*
X16398753Y-14351317D01*
X16398753Y-14351317D02*
X16379706Y-14341793D01*
X16379706Y-14341793D02*
X16370182Y-14322746D01*
X16370182Y-14322746D02*
X16370182Y-14313222D01*
X16370182Y-14313222D02*
X16379706Y-14294174D01*
X16379706Y-14294174D02*
X16398753Y-14284650D01*
X16398753Y-14284650D02*
X16427325Y-14284650D01*
X16427325Y-14284650D02*
X16446372Y-14294174D01*
X16522563Y-14494174D02*
X16532087Y-14484650D01*
X16532087Y-14484650D02*
X16551134Y-14456079D01*
X16551134Y-14456079D02*
X16560658Y-14437031D01*
X16560658Y-14437031D02*
X16570182Y-14408460D01*
X16570182Y-14408460D02*
X16579706Y-14360841D01*
X16579706Y-14360841D02*
X16579706Y-14322746D01*
X16579706Y-14322746D02*
X16570182Y-14275127D01*
X16570182Y-14275127D02*
X16560658Y-14246555D01*
X16560658Y-14246555D02*
X16551134Y-14227508D01*
X16551134Y-14227508D02*
X16532087Y-14198936D01*
X16532087Y-14198936D02*
X16522563Y-14189412D01*
X11547500Y-14490500D02*
X11747500Y-14690500D01*
X11747500Y-14490500D02*
X11547500Y-14690500D01*
X11718211Y-14661211D02*
X11718211Y-14519789D01*
X11576789Y-14519789D01*
X11576789Y-14661211D01*
X11718211Y-14661211D01*
X11989229Y-14481984D02*
X12113039Y-14481984D01*
X12113039Y-14481984D02*
X12046372Y-14558174D01*
X12046372Y-14558174D02*
X12074943Y-14558174D01*
X12074943Y-14558174D02*
X12093991Y-14567698D01*
X12093991Y-14567698D02*
X12103515Y-14577222D01*
X12103515Y-14577222D02*
X12113039Y-14596269D01*
X12113039Y-14596269D02*
X12113039Y-14643888D01*
X12113039Y-14643888D02*
X12103515Y-14662936D01*
X12103515Y-14662936D02*
X12093991Y-14672460D01*
X12093991Y-14672460D02*
X12074943Y-14681984D01*
X12074943Y-14681984D02*
X12017801Y-14681984D01*
X12017801Y-14681984D02*
X11998753Y-14672460D01*
X11998753Y-14672460D02*
X11989229Y-14662936D01*
X12198753Y-14662936D02*
X12208277Y-14672460D01*
X12208277Y-14672460D02*
X12198753Y-14681984D01*
X12198753Y-14681984D02*
X12189229Y-14672460D01*
X12189229Y-14672460D02*
X12198753Y-14662936D01*
X12198753Y-14662936D02*
X12198753Y-14681984D01*
X12284467Y-14501031D02*
X12293991Y-14491508D01*
X12293991Y-14491508D02*
X12313039Y-14481984D01*
X12313039Y-14481984D02*
X12360658Y-14481984D01*
X12360658Y-14481984D02*
X12379705Y-14491508D01*
X12379705Y-14491508D02*
X12389229Y-14501031D01*
X12389229Y-14501031D02*
X12398753Y-14520079D01*
X12398753Y-14520079D02*
X12398753Y-14539127D01*
X12398753Y-14539127D02*
X12389229Y-14567698D01*
X12389229Y-14567698D02*
X12274943Y-14681984D01*
X12274943Y-14681984D02*
X12398753Y-14681984D01*
X12522562Y-14481984D02*
X12541610Y-14481984D01*
X12541610Y-14481984D02*
X12560658Y-14491508D01*
X12560658Y-14491508D02*
X12570182Y-14501031D01*
X12570182Y-14501031D02*
X12579705Y-14520079D01*
X12579705Y-14520079D02*
X12589229Y-14558174D01*
X12589229Y-14558174D02*
X12589229Y-14605793D01*
X12589229Y-14605793D02*
X12579705Y-14643888D01*
X12579705Y-14643888D02*
X12570182Y-14662936D01*
X12570182Y-14662936D02*
X12560658Y-14672460D01*
X12560658Y-14672460D02*
X12541610Y-14681984D01*
X12541610Y-14681984D02*
X12522562Y-14681984D01*
X12522562Y-14681984D02*
X12503515Y-14672460D01*
X12503515Y-14672460D02*
X12493991Y-14662936D01*
X12493991Y-14662936D02*
X12484467Y-14643888D01*
X12484467Y-14643888D02*
X12474943Y-14605793D01*
X12474943Y-14605793D02*
X12474943Y-14558174D01*
X12474943Y-14558174D02*
X12484467Y-14520079D01*
X12484467Y-14520079D02*
X12493991Y-14501031D01*
X12493991Y-14501031D02*
X12503515Y-14491508D01*
X12503515Y-14491508D02*
X12522562Y-14481984D01*
X12713039Y-14481984D02*
X12732086Y-14481984D01*
X12732086Y-14481984D02*
X12751134Y-14491508D01*
X12751134Y-14491508D02*
X12760658Y-14501031D01*
X12760658Y-14501031D02*
X12770182Y-14520079D01*
X12770182Y-14520079D02*
X12779705Y-14558174D01*
X12779705Y-14558174D02*
X12779705Y-14605793D01*
X12779705Y-14605793D02*
X12770182Y-14643888D01*
X12770182Y-14643888D02*
X12760658Y-14662936D01*
X12760658Y-14662936D02*
X12751134Y-14672460D01*
X12751134Y-14672460D02*
X12732086Y-14681984D01*
X12732086Y-14681984D02*
X12713039Y-14681984D01*
X12713039Y-14681984D02*
X12693991Y-14672460D01*
X12693991Y-14672460D02*
X12684467Y-14662936D01*
X12684467Y-14662936D02*
X12674943Y-14643888D01*
X12674943Y-14643888D02*
X12665420Y-14605793D01*
X12665420Y-14605793D02*
X12665420Y-14558174D01*
X12665420Y-14558174D02*
X12674943Y-14520079D01*
X12674943Y-14520079D02*
X12684467Y-14501031D01*
X12684467Y-14501031D02*
X12693991Y-14491508D01*
X12693991Y-14491508D02*
X12713039Y-14481984D01*
X12865420Y-14681984D02*
X12865420Y-14548650D01*
X12865420Y-14567698D02*
X12874943Y-14558174D01*
X12874943Y-14558174D02*
X12893991Y-14548650D01*
X12893991Y-14548650D02*
X12922563Y-14548650D01*
X12922563Y-14548650D02*
X12941610Y-14558174D01*
X12941610Y-14558174D02*
X12951134Y-14577222D01*
X12951134Y-14577222D02*
X12951134Y-14681984D01*
X12951134Y-14577222D02*
X12960658Y-14558174D01*
X12960658Y-14558174D02*
X12979705Y-14548650D01*
X12979705Y-14548650D02*
X13008277Y-14548650D01*
X13008277Y-14548650D02*
X13027324Y-14558174D01*
X13027324Y-14558174D02*
X13036848Y-14577222D01*
X13036848Y-14577222D02*
X13036848Y-14681984D01*
X13132086Y-14681984D02*
X13132086Y-14548650D01*
X13132086Y-14567698D02*
X13141610Y-14558174D01*
X13141610Y-14558174D02*
X13160658Y-14548650D01*
X13160658Y-14548650D02*
X13189229Y-14548650D01*
X13189229Y-14548650D02*
X13208277Y-14558174D01*
X13208277Y-14558174D02*
X13217801Y-14577222D01*
X13217801Y-14577222D02*
X13217801Y-14681984D01*
X13217801Y-14577222D02*
X13227324Y-14558174D01*
X13227324Y-14558174D02*
X13246372Y-14548650D01*
X13246372Y-14548650D02*
X13274943Y-14548650D01*
X13274943Y-14548650D02*
X13293991Y-14558174D01*
X13293991Y-14558174D02*
X13303515Y-14577222D01*
X13303515Y-14577222D02*
X13303515Y-14681984D01*
X13693991Y-14472460D02*
X13522563Y-14729603D01*
X13951134Y-14481984D02*
X13970182Y-14481984D01*
X13970182Y-14481984D02*
X13989229Y-14491508D01*
X13989229Y-14491508D02*
X13998753Y-14501031D01*
X13998753Y-14501031D02*
X14008277Y-14520079D01*
X14008277Y-14520079D02*
X14017801Y-14558174D01*
X14017801Y-14558174D02*
X14017801Y-14605793D01*
X14017801Y-14605793D02*
X14008277Y-14643888D01*
X14008277Y-14643888D02*
X13998753Y-14662936D01*
X13998753Y-14662936D02*
X13989229Y-14672460D01*
X13989229Y-14672460D02*
X13970182Y-14681984D01*
X13970182Y-14681984D02*
X13951134Y-14681984D01*
X13951134Y-14681984D02*
X13932086Y-14672460D01*
X13932086Y-14672460D02*
X13922563Y-14662936D01*
X13922563Y-14662936D02*
X13913039Y-14643888D01*
X13913039Y-14643888D02*
X13903515Y-14605793D01*
X13903515Y-14605793D02*
X13903515Y-14558174D01*
X13903515Y-14558174D02*
X13913039Y-14520079D01*
X13913039Y-14520079D02*
X13922563Y-14501031D01*
X13922563Y-14501031D02*
X13932086Y-14491508D01*
X13932086Y-14491508D02*
X13951134Y-14481984D01*
X14103515Y-14662936D02*
X14113039Y-14672460D01*
X14113039Y-14672460D02*
X14103515Y-14681984D01*
X14103515Y-14681984D02*
X14093991Y-14672460D01*
X14093991Y-14672460D02*
X14103515Y-14662936D01*
X14103515Y-14662936D02*
X14103515Y-14681984D01*
X14303515Y-14681984D02*
X14189229Y-14681984D01*
X14246372Y-14681984D02*
X14246372Y-14481984D01*
X14246372Y-14481984D02*
X14227325Y-14510555D01*
X14227325Y-14510555D02*
X14208277Y-14529603D01*
X14208277Y-14529603D02*
X14189229Y-14539127D01*
X14379706Y-14501031D02*
X14389229Y-14491508D01*
X14389229Y-14491508D02*
X14408277Y-14481984D01*
X14408277Y-14481984D02*
X14455896Y-14481984D01*
X14455896Y-14481984D02*
X14474944Y-14491508D01*
X14474944Y-14491508D02*
X14484467Y-14501031D01*
X14484467Y-14501031D02*
X14493991Y-14520079D01*
X14493991Y-14520079D02*
X14493991Y-14539127D01*
X14493991Y-14539127D02*
X14484467Y-14567698D01*
X14484467Y-14567698D02*
X14370182Y-14681984D01*
X14370182Y-14681984D02*
X14493991Y-14681984D01*
X14665420Y-14481984D02*
X14627325Y-14481984D01*
X14627325Y-14481984D02*
X14608277Y-14491508D01*
X14608277Y-14491508D02*
X14598753Y-14501031D01*
X14598753Y-14501031D02*
X14579706Y-14529603D01*
X14579706Y-14529603D02*
X14570182Y-14567698D01*
X14570182Y-14567698D02*
X14570182Y-14643888D01*
X14570182Y-14643888D02*
X14579706Y-14662936D01*
X14579706Y-14662936D02*
X14589229Y-14672460D01*
X14589229Y-14672460D02*
X14608277Y-14681984D01*
X14608277Y-14681984D02*
X14646372Y-14681984D01*
X14646372Y-14681984D02*
X14665420Y-14672460D01*
X14665420Y-14672460D02*
X14674944Y-14662936D01*
X14674944Y-14662936D02*
X14684467Y-14643888D01*
X14684467Y-14643888D02*
X14684467Y-14596269D01*
X14684467Y-14596269D02*
X14674944Y-14577222D01*
X14674944Y-14577222D02*
X14665420Y-14567698D01*
X14665420Y-14567698D02*
X14646372Y-14558174D01*
X14646372Y-14558174D02*
X14608277Y-14558174D01*
X14608277Y-14558174D02*
X14589229Y-14567698D01*
X14589229Y-14567698D02*
X14579706Y-14577222D01*
X14579706Y-14577222D02*
X14570182Y-14596269D01*
X14808277Y-14481984D02*
X14827325Y-14481984D01*
X14827325Y-14481984D02*
X14846372Y-14491508D01*
X14846372Y-14491508D02*
X14855896Y-14501031D01*
X14855896Y-14501031D02*
X14865420Y-14520079D01*
X14865420Y-14520079D02*
X14874944Y-14558174D01*
X14874944Y-14558174D02*
X14874944Y-14605793D01*
X14874944Y-14605793D02*
X14865420Y-14643888D01*
X14865420Y-14643888D02*
X14855896Y-14662936D01*
X14855896Y-14662936D02*
X14846372Y-14672460D01*
X14846372Y-14672460D02*
X14827325Y-14681984D01*
X14827325Y-14681984D02*
X14808277Y-14681984D01*
X14808277Y-14681984D02*
X14789229Y-14672460D01*
X14789229Y-14672460D02*
X14779706Y-14662936D01*
X14779706Y-14662936D02*
X14770182Y-14643888D01*
X14770182Y-14643888D02*
X14760658Y-14605793D01*
X14760658Y-14605793D02*
X14760658Y-14558174D01*
X14760658Y-14558174D02*
X14770182Y-14520079D01*
X14770182Y-14520079D02*
X14779706Y-14501031D01*
X14779706Y-14501031D02*
X14789229Y-14491508D01*
X14789229Y-14491508D02*
X14808277Y-14481984D01*
X14951134Y-14481984D02*
X14951134Y-14520079D01*
X15027325Y-14481984D02*
X15027325Y-14520079D01*
X15322563Y-14758174D02*
X15313039Y-14748650D01*
X15313039Y-14748650D02*
X15293991Y-14720079D01*
X15293991Y-14720079D02*
X15284468Y-14701031D01*
X15284468Y-14701031D02*
X15274944Y-14672460D01*
X15274944Y-14672460D02*
X15265420Y-14624841D01*
X15265420Y-14624841D02*
X15265420Y-14586746D01*
X15265420Y-14586746D02*
X15274944Y-14539127D01*
X15274944Y-14539127D02*
X15284468Y-14510555D01*
X15284468Y-14510555D02*
X15293991Y-14491508D01*
X15293991Y-14491508D02*
X15313039Y-14462936D01*
X15313039Y-14462936D02*
X15322563Y-14453412D01*
X15427325Y-14567698D02*
X15408277Y-14558174D01*
X15408277Y-14558174D02*
X15398753Y-14548650D01*
X15398753Y-14548650D02*
X15389229Y-14529603D01*
X15389229Y-14529603D02*
X15389229Y-14520079D01*
X15389229Y-14520079D02*
X15398753Y-14501031D01*
X15398753Y-14501031D02*
X15408277Y-14491508D01*
X15408277Y-14491508D02*
X15427325Y-14481984D01*
X15427325Y-14481984D02*
X15465420Y-14481984D01*
X15465420Y-14481984D02*
X15484468Y-14491508D01*
X15484468Y-14491508D02*
X15493991Y-14501031D01*
X15493991Y-14501031D02*
X15503515Y-14520079D01*
X15503515Y-14520079D02*
X15503515Y-14529603D01*
X15503515Y-14529603D02*
X15493991Y-14548650D01*
X15493991Y-14548650D02*
X15484468Y-14558174D01*
X15484468Y-14558174D02*
X15465420Y-14567698D01*
X15465420Y-14567698D02*
X15427325Y-14567698D01*
X15427325Y-14567698D02*
X15408277Y-14577222D01*
X15408277Y-14577222D02*
X15398753Y-14586746D01*
X15398753Y-14586746D02*
X15389229Y-14605793D01*
X15389229Y-14605793D02*
X15389229Y-14643888D01*
X15389229Y-14643888D02*
X15398753Y-14662936D01*
X15398753Y-14662936D02*
X15408277Y-14672460D01*
X15408277Y-14672460D02*
X15427325Y-14681984D01*
X15427325Y-14681984D02*
X15465420Y-14681984D01*
X15465420Y-14681984D02*
X15484468Y-14672460D01*
X15484468Y-14672460D02*
X15493991Y-14662936D01*
X15493991Y-14662936D02*
X15503515Y-14643888D01*
X15503515Y-14643888D02*
X15503515Y-14605793D01*
X15503515Y-14605793D02*
X15493991Y-14586746D01*
X15493991Y-14586746D02*
X15484468Y-14577222D01*
X15484468Y-14577222D02*
X15465420Y-14567698D01*
X15741610Y-14681984D02*
X15741610Y-14481984D01*
X15827325Y-14681984D02*
X15827325Y-14577222D01*
X15827325Y-14577222D02*
X15817801Y-14558174D01*
X15817801Y-14558174D02*
X15798753Y-14548650D01*
X15798753Y-14548650D02*
X15770182Y-14548650D01*
X15770182Y-14548650D02*
X15751134Y-14558174D01*
X15751134Y-14558174D02*
X15741610Y-14567698D01*
X15951134Y-14681984D02*
X15932087Y-14672460D01*
X15932087Y-14672460D02*
X15922563Y-14662936D01*
X15922563Y-14662936D02*
X15913039Y-14643888D01*
X15913039Y-14643888D02*
X15913039Y-14586746D01*
X15913039Y-14586746D02*
X15922563Y-14567698D01*
X15922563Y-14567698D02*
X15932087Y-14558174D01*
X15932087Y-14558174D02*
X15951134Y-14548650D01*
X15951134Y-14548650D02*
X15979706Y-14548650D01*
X15979706Y-14548650D02*
X15998753Y-14558174D01*
X15998753Y-14558174D02*
X16008277Y-14567698D01*
X16008277Y-14567698D02*
X16017801Y-14586746D01*
X16017801Y-14586746D02*
X16017801Y-14643888D01*
X16017801Y-14643888D02*
X16008277Y-14662936D01*
X16008277Y-14662936D02*
X15998753Y-14672460D01*
X15998753Y-14672460D02*
X15979706Y-14681984D01*
X15979706Y-14681984D02*
X15951134Y-14681984D01*
X16132087Y-14681984D02*
X16113039Y-14672460D01*
X16113039Y-14672460D02*
X16103515Y-14653412D01*
X16103515Y-14653412D02*
X16103515Y-14481984D01*
X16284468Y-14672460D02*
X16265420Y-14681984D01*
X16265420Y-14681984D02*
X16227325Y-14681984D01*
X16227325Y-14681984D02*
X16208277Y-14672460D01*
X16208277Y-14672460D02*
X16198753Y-14653412D01*
X16198753Y-14653412D02*
X16198753Y-14577222D01*
X16198753Y-14577222D02*
X16208277Y-14558174D01*
X16208277Y-14558174D02*
X16227325Y-14548650D01*
X16227325Y-14548650D02*
X16265420Y-14548650D01*
X16265420Y-14548650D02*
X16284468Y-14558174D01*
X16284468Y-14558174D02*
X16293991Y-14577222D01*
X16293991Y-14577222D02*
X16293991Y-14596269D01*
X16293991Y-14596269D02*
X16198753Y-14615317D01*
X16370182Y-14672460D02*
X16389230Y-14681984D01*
X16389230Y-14681984D02*
X16427325Y-14681984D01*
X16427325Y-14681984D02*
X16446372Y-14672460D01*
X16446372Y-14672460D02*
X16455896Y-14653412D01*
X16455896Y-14653412D02*
X16455896Y-14643888D01*
X16455896Y-14643888D02*
X16446372Y-14624841D01*
X16446372Y-14624841D02*
X16427325Y-14615317D01*
X16427325Y-14615317D02*
X16398753Y-14615317D01*
X16398753Y-14615317D02*
X16379706Y-14605793D01*
X16379706Y-14605793D02*
X16370182Y-14586746D01*
X16370182Y-14586746D02*
X16370182Y-14577222D01*
X16370182Y-14577222D02*
X16379706Y-14558174D01*
X16379706Y-14558174D02*
X16398753Y-14548650D01*
X16398753Y-14548650D02*
X16427325Y-14548650D01*
X16427325Y-14548650D02*
X16446372Y-14558174D01*
X16522563Y-14758174D02*
X16532087Y-14748650D01*
X16532087Y-14748650D02*
X16551134Y-14720079D01*
X16551134Y-14720079D02*
X16560658Y-14701031D01*
X16560658Y-14701031D02*
X16570182Y-14672460D01*
X16570182Y-14672460D02*
X16579706Y-14624841D01*
X16579706Y-14624841D02*
X16579706Y-14586746D01*
X16579706Y-14586746D02*
X16570182Y-14539127D01*
X16570182Y-14539127D02*
X16560658Y-14510555D01*
X16560658Y-14510555D02*
X16551134Y-14491508D01*
X16551134Y-14491508D02*
X16532087Y-14462936D01*
X16532087Y-14462936D02*
X16522563Y-14453412D01*
M02*
