%TF.GenerationSoftware,KiCad,Pcbnew,7.0.6*%
%TF.CreationDate,2024-03-18T22:30:34-04:00*%
%TF.ProjectId,Transmitter,5472616e-736d-4697-9474-65722e6b6963,rev?*%
%TF.SameCoordinates,Original*%
%TF.FileFunction,Drillmap*%
%TF.FilePolarity,Positive*%
%FSLAX45Y45*%
G04 Gerber Fmt 4.5, Leading zero omitted, Abs format (unit mm)*
G04 Created by KiCad (PCBNEW 7.0.6) date 2024-03-18 22:30:34*
%MOMM*%
%LPD*%
G01*
G04 APERTURE LIST*
%ADD10C,0.050000*%
%ADD11C,0.200000*%
%ADD12C,0.050800*%
%ADD13C,0.060960*%
%ADD14C,0.220000*%
G04 APERTURE END LIST*
D10*
X13750000Y-5700000D02*
G75*
G03*
X13450000Y-6000000I2132J-302132D01*
G01*
X13450000Y-6000000D02*
X13450000Y-11250000D01*
X19300000Y-11250000D02*
X19300000Y-6000000D01*
X19300000Y-6000000D02*
G75*
G03*
X19000000Y-5700000I-300000J0D01*
G01*
X13750000Y-11550000D02*
X19000000Y-11550000D01*
X19000000Y-5700000D02*
X13750000Y-5700000D01*
X13450000Y-11250000D02*
G75*
G03*
X13750000Y-11550000I300000J0D01*
G01*
X19000000Y-11550000D02*
G75*
G03*
X19300000Y-11250000I0J300000D01*
G01*
D11*
D12*
X17599600Y-6989600D02*
X17650400Y-7040400D01*
X17650400Y-6989600D02*
X17599600Y-7040400D01*
D13*
X17790480Y-6800000D02*
G75*
G03*
X17790480Y-6800000I-30480J0D01*
G01*
D11*
X17745000Y-6830480D02*
X17775000Y-6830480D01*
X17775000Y-6830480D02*
G75*
G03*
X17775000Y-6769520I0J30480D01*
G01*
X17775000Y-6769520D02*
X17745000Y-6769520D01*
X17745000Y-6769520D02*
G75*
G03*
X17745000Y-6830480I0J-30480D01*
G01*
D13*
X17790480Y-7230000D02*
G75*
G03*
X17790480Y-7230000I-30480J0D01*
G01*
D11*
X17745000Y-7260480D02*
X17775000Y-7260480D01*
X17775000Y-7260480D02*
G75*
G03*
X17775000Y-7199520I0J30480D01*
G01*
X17775000Y-7199520D02*
X17745000Y-7199520D01*
X17745000Y-7199520D02*
G75*
G03*
X17745000Y-7260480I0J-30480D01*
G01*
D13*
X18270480Y-6800000D02*
G75*
G03*
X18270480Y-6800000I-30480J0D01*
G01*
D11*
X18225000Y-6830480D02*
X18255000Y-6830480D01*
X18255000Y-6830480D02*
G75*
G03*
X18255000Y-6769520I0J30480D01*
G01*
X18255000Y-6769520D02*
X18225000Y-6769520D01*
X18225000Y-6769520D02*
G75*
G03*
X18225000Y-6830480I0J-30480D01*
G01*
D13*
X18270480Y-7230000D02*
G75*
G03*
X18270480Y-7230000I-30480J0D01*
G01*
D11*
X18225000Y-7260480D02*
X18255000Y-7260480D01*
X18255000Y-7260480D02*
G75*
G03*
X18255000Y-7199520I0J30480D01*
G01*
X18255000Y-7199520D02*
X18225000Y-7199520D01*
X18225000Y-7199520D02*
G75*
G03*
X18225000Y-7260480I0J-30480D01*
G01*
D13*
X18410480Y-7012500D02*
G75*
G03*
X18410480Y-7012500I-30480J0D01*
G01*
D11*
X18365000Y-7042980D02*
X18395000Y-7042980D01*
X18395000Y-7042980D02*
G75*
G03*
X18395000Y-6982020I0J30480D01*
G01*
X18395000Y-6982020D02*
X18365000Y-6982020D01*
X18365000Y-6982020D02*
G75*
G03*
X18365000Y-7042980I0J-30480D01*
G01*
D14*
X13750000Y-8640000D02*
X13750000Y-8860000D01*
X13640000Y-8750000D02*
X13860000Y-8750000D01*
X13750000Y-11140000D02*
X13750000Y-11360000D01*
X13640000Y-11250000D02*
X13860000Y-11250000D01*
X16250000Y-8640000D02*
X16250000Y-8860000D01*
X16140000Y-8750000D02*
X16360000Y-8750000D01*
X16250000Y-11140000D02*
X16250000Y-11360000D01*
X16140000Y-11250000D02*
X16360000Y-11250000D01*
X19000000Y-5890000D02*
X19000000Y-6110000D01*
X18890000Y-6000000D02*
X19110000Y-6000000D01*
D11*
X13708277Y-11863984D02*
X13708277Y-11663984D01*
X13708277Y-11663984D02*
X13755896Y-11663984D01*
X13755896Y-11663984D02*
X13784467Y-11673508D01*
X13784467Y-11673508D02*
X13803515Y-11692555D01*
X13803515Y-11692555D02*
X13813039Y-11711603D01*
X13813039Y-11711603D02*
X13822562Y-11749698D01*
X13822562Y-11749698D02*
X13822562Y-11778269D01*
X13822562Y-11778269D02*
X13813039Y-11816365D01*
X13813039Y-11816365D02*
X13803515Y-11835412D01*
X13803515Y-11835412D02*
X13784467Y-11854460D01*
X13784467Y-11854460D02*
X13755896Y-11863984D01*
X13755896Y-11863984D02*
X13708277Y-11863984D01*
X13908277Y-11863984D02*
X13908277Y-11730650D01*
X13908277Y-11768746D02*
X13917801Y-11749698D01*
X13917801Y-11749698D02*
X13927324Y-11740174D01*
X13927324Y-11740174D02*
X13946372Y-11730650D01*
X13946372Y-11730650D02*
X13965420Y-11730650D01*
X14032086Y-11863984D02*
X14032086Y-11730650D01*
X14032086Y-11663984D02*
X14022562Y-11673508D01*
X14022562Y-11673508D02*
X14032086Y-11683031D01*
X14032086Y-11683031D02*
X14041610Y-11673508D01*
X14041610Y-11673508D02*
X14032086Y-11663984D01*
X14032086Y-11663984D02*
X14032086Y-11683031D01*
X14155896Y-11863984D02*
X14136848Y-11854460D01*
X14136848Y-11854460D02*
X14127324Y-11835412D01*
X14127324Y-11835412D02*
X14127324Y-11663984D01*
X14260658Y-11863984D02*
X14241610Y-11854460D01*
X14241610Y-11854460D02*
X14232086Y-11835412D01*
X14232086Y-11835412D02*
X14232086Y-11663984D01*
X14489229Y-11863984D02*
X14489229Y-11663984D01*
X14489229Y-11663984D02*
X14555896Y-11806841D01*
X14555896Y-11806841D02*
X14622562Y-11663984D01*
X14622562Y-11663984D02*
X14622562Y-11863984D01*
X14803515Y-11863984D02*
X14803515Y-11759222D01*
X14803515Y-11759222D02*
X14793991Y-11740174D01*
X14793991Y-11740174D02*
X14774943Y-11730650D01*
X14774943Y-11730650D02*
X14736848Y-11730650D01*
X14736848Y-11730650D02*
X14717801Y-11740174D01*
X14803515Y-11854460D02*
X14784467Y-11863984D01*
X14784467Y-11863984D02*
X14736848Y-11863984D01*
X14736848Y-11863984D02*
X14717801Y-11854460D01*
X14717801Y-11854460D02*
X14708277Y-11835412D01*
X14708277Y-11835412D02*
X14708277Y-11816365D01*
X14708277Y-11816365D02*
X14717801Y-11797317D01*
X14717801Y-11797317D02*
X14736848Y-11787793D01*
X14736848Y-11787793D02*
X14784467Y-11787793D01*
X14784467Y-11787793D02*
X14803515Y-11778269D01*
X14898753Y-11730650D02*
X14898753Y-11930650D01*
X14898753Y-11740174D02*
X14917801Y-11730650D01*
X14917801Y-11730650D02*
X14955896Y-11730650D01*
X14955896Y-11730650D02*
X14974943Y-11740174D01*
X14974943Y-11740174D02*
X14984467Y-11749698D01*
X14984467Y-11749698D02*
X14993991Y-11768746D01*
X14993991Y-11768746D02*
X14993991Y-11825888D01*
X14993991Y-11825888D02*
X14984467Y-11844936D01*
X14984467Y-11844936D02*
X14974943Y-11854460D01*
X14974943Y-11854460D02*
X14955896Y-11863984D01*
X14955896Y-11863984D02*
X14917801Y-11863984D01*
X14917801Y-11863984D02*
X14898753Y-11854460D01*
X15079705Y-11844936D02*
X15089229Y-11854460D01*
X15089229Y-11854460D02*
X15079705Y-11863984D01*
X15079705Y-11863984D02*
X15070182Y-11854460D01*
X15070182Y-11854460D02*
X15079705Y-11844936D01*
X15079705Y-11844936D02*
X15079705Y-11863984D01*
X15079705Y-11740174D02*
X15089229Y-11749698D01*
X15089229Y-11749698D02*
X15079705Y-11759222D01*
X15079705Y-11759222D02*
X15070182Y-11749698D01*
X15070182Y-11749698D02*
X15079705Y-11740174D01*
X15079705Y-11740174D02*
X15079705Y-11759222D01*
D12*
X13396700Y-12167100D02*
X13447500Y-12217900D01*
X13447500Y-12167100D02*
X13396700Y-12217900D01*
D11*
X13746372Y-12083984D02*
X13765420Y-12083984D01*
X13765420Y-12083984D02*
X13784467Y-12093508D01*
X13784467Y-12093508D02*
X13793991Y-12103031D01*
X13793991Y-12103031D02*
X13803515Y-12122079D01*
X13803515Y-12122079D02*
X13813039Y-12160174D01*
X13813039Y-12160174D02*
X13813039Y-12207793D01*
X13813039Y-12207793D02*
X13803515Y-12245888D01*
X13803515Y-12245888D02*
X13793991Y-12264936D01*
X13793991Y-12264936D02*
X13784467Y-12274460D01*
X13784467Y-12274460D02*
X13765420Y-12283984D01*
X13765420Y-12283984D02*
X13746372Y-12283984D01*
X13746372Y-12283984D02*
X13727324Y-12274460D01*
X13727324Y-12274460D02*
X13717801Y-12264936D01*
X13717801Y-12264936D02*
X13708277Y-12245888D01*
X13708277Y-12245888D02*
X13698753Y-12207793D01*
X13698753Y-12207793D02*
X13698753Y-12160174D01*
X13698753Y-12160174D02*
X13708277Y-12122079D01*
X13708277Y-12122079D02*
X13717801Y-12103031D01*
X13717801Y-12103031D02*
X13727324Y-12093508D01*
X13727324Y-12093508D02*
X13746372Y-12083984D01*
X13898753Y-12264936D02*
X13908277Y-12274460D01*
X13908277Y-12274460D02*
X13898753Y-12283984D01*
X13898753Y-12283984D02*
X13889229Y-12274460D01*
X13889229Y-12274460D02*
X13898753Y-12264936D01*
X13898753Y-12264936D02*
X13898753Y-12283984D01*
X14089229Y-12083984D02*
X13993991Y-12083984D01*
X13993991Y-12083984D02*
X13984467Y-12179222D01*
X13984467Y-12179222D02*
X13993991Y-12169698D01*
X13993991Y-12169698D02*
X14013039Y-12160174D01*
X14013039Y-12160174D02*
X14060658Y-12160174D01*
X14060658Y-12160174D02*
X14079705Y-12169698D01*
X14079705Y-12169698D02*
X14089229Y-12179222D01*
X14089229Y-12179222D02*
X14098753Y-12198269D01*
X14098753Y-12198269D02*
X14098753Y-12245888D01*
X14098753Y-12245888D02*
X14089229Y-12264936D01*
X14089229Y-12264936D02*
X14079705Y-12274460D01*
X14079705Y-12274460D02*
X14060658Y-12283984D01*
X14060658Y-12283984D02*
X14013039Y-12283984D01*
X14013039Y-12283984D02*
X13993991Y-12274460D01*
X13993991Y-12274460D02*
X13984467Y-12264936D01*
X14222562Y-12083984D02*
X14241610Y-12083984D01*
X14241610Y-12083984D02*
X14260658Y-12093508D01*
X14260658Y-12093508D02*
X14270182Y-12103031D01*
X14270182Y-12103031D02*
X14279705Y-12122079D01*
X14279705Y-12122079D02*
X14289229Y-12160174D01*
X14289229Y-12160174D02*
X14289229Y-12207793D01*
X14289229Y-12207793D02*
X14279705Y-12245888D01*
X14279705Y-12245888D02*
X14270182Y-12264936D01*
X14270182Y-12264936D02*
X14260658Y-12274460D01*
X14260658Y-12274460D02*
X14241610Y-12283984D01*
X14241610Y-12283984D02*
X14222562Y-12283984D01*
X14222562Y-12283984D02*
X14203515Y-12274460D01*
X14203515Y-12274460D02*
X14193991Y-12264936D01*
X14193991Y-12264936D02*
X14184467Y-12245888D01*
X14184467Y-12245888D02*
X14174943Y-12207793D01*
X14174943Y-12207793D02*
X14174943Y-12160174D01*
X14174943Y-12160174D02*
X14184467Y-12122079D01*
X14184467Y-12122079D02*
X14193991Y-12103031D01*
X14193991Y-12103031D02*
X14203515Y-12093508D01*
X14203515Y-12093508D02*
X14222562Y-12083984D01*
X14403515Y-12169698D02*
X14384467Y-12160174D01*
X14384467Y-12160174D02*
X14374943Y-12150650D01*
X14374943Y-12150650D02*
X14365420Y-12131603D01*
X14365420Y-12131603D02*
X14365420Y-12122079D01*
X14365420Y-12122079D02*
X14374943Y-12103031D01*
X14374943Y-12103031D02*
X14384467Y-12093508D01*
X14384467Y-12093508D02*
X14403515Y-12083984D01*
X14403515Y-12083984D02*
X14441610Y-12083984D01*
X14441610Y-12083984D02*
X14460658Y-12093508D01*
X14460658Y-12093508D02*
X14470182Y-12103031D01*
X14470182Y-12103031D02*
X14479705Y-12122079D01*
X14479705Y-12122079D02*
X14479705Y-12131603D01*
X14479705Y-12131603D02*
X14470182Y-12150650D01*
X14470182Y-12150650D02*
X14460658Y-12160174D01*
X14460658Y-12160174D02*
X14441610Y-12169698D01*
X14441610Y-12169698D02*
X14403515Y-12169698D01*
X14403515Y-12169698D02*
X14384467Y-12179222D01*
X14384467Y-12179222D02*
X14374943Y-12188746D01*
X14374943Y-12188746D02*
X14365420Y-12207793D01*
X14365420Y-12207793D02*
X14365420Y-12245888D01*
X14365420Y-12245888D02*
X14374943Y-12264936D01*
X14374943Y-12264936D02*
X14384467Y-12274460D01*
X14384467Y-12274460D02*
X14403515Y-12283984D01*
X14403515Y-12283984D02*
X14441610Y-12283984D01*
X14441610Y-12283984D02*
X14460658Y-12274460D01*
X14460658Y-12274460D02*
X14470182Y-12264936D01*
X14470182Y-12264936D02*
X14479705Y-12245888D01*
X14479705Y-12245888D02*
X14479705Y-12207793D01*
X14479705Y-12207793D02*
X14470182Y-12188746D01*
X14470182Y-12188746D02*
X14460658Y-12179222D01*
X14460658Y-12179222D02*
X14441610Y-12169698D01*
X14565420Y-12283984D02*
X14565420Y-12150650D01*
X14565420Y-12169698D02*
X14574943Y-12160174D01*
X14574943Y-12160174D02*
X14593991Y-12150650D01*
X14593991Y-12150650D02*
X14622563Y-12150650D01*
X14622563Y-12150650D02*
X14641610Y-12160174D01*
X14641610Y-12160174D02*
X14651134Y-12179222D01*
X14651134Y-12179222D02*
X14651134Y-12283984D01*
X14651134Y-12179222D02*
X14660658Y-12160174D01*
X14660658Y-12160174D02*
X14679705Y-12150650D01*
X14679705Y-12150650D02*
X14708277Y-12150650D01*
X14708277Y-12150650D02*
X14727324Y-12160174D01*
X14727324Y-12160174D02*
X14736848Y-12179222D01*
X14736848Y-12179222D02*
X14736848Y-12283984D01*
X14832086Y-12283984D02*
X14832086Y-12150650D01*
X14832086Y-12169698D02*
X14841610Y-12160174D01*
X14841610Y-12160174D02*
X14860658Y-12150650D01*
X14860658Y-12150650D02*
X14889229Y-12150650D01*
X14889229Y-12150650D02*
X14908277Y-12160174D01*
X14908277Y-12160174D02*
X14917801Y-12179222D01*
X14917801Y-12179222D02*
X14917801Y-12283984D01*
X14917801Y-12179222D02*
X14927324Y-12160174D01*
X14927324Y-12160174D02*
X14946372Y-12150650D01*
X14946372Y-12150650D02*
X14974943Y-12150650D01*
X14974943Y-12150650D02*
X14993991Y-12160174D01*
X14993991Y-12160174D02*
X15003515Y-12179222D01*
X15003515Y-12179222D02*
X15003515Y-12283984D01*
X15393991Y-12074460D02*
X15222563Y-12331603D01*
X15651134Y-12083984D02*
X15670182Y-12083984D01*
X15670182Y-12083984D02*
X15689229Y-12093508D01*
X15689229Y-12093508D02*
X15698753Y-12103031D01*
X15698753Y-12103031D02*
X15708277Y-12122079D01*
X15708277Y-12122079D02*
X15717801Y-12160174D01*
X15717801Y-12160174D02*
X15717801Y-12207793D01*
X15717801Y-12207793D02*
X15708277Y-12245888D01*
X15708277Y-12245888D02*
X15698753Y-12264936D01*
X15698753Y-12264936D02*
X15689229Y-12274460D01*
X15689229Y-12274460D02*
X15670182Y-12283984D01*
X15670182Y-12283984D02*
X15651134Y-12283984D01*
X15651134Y-12283984D02*
X15632086Y-12274460D01*
X15632086Y-12274460D02*
X15622563Y-12264936D01*
X15622563Y-12264936D02*
X15613039Y-12245888D01*
X15613039Y-12245888D02*
X15603515Y-12207793D01*
X15603515Y-12207793D02*
X15603515Y-12160174D01*
X15603515Y-12160174D02*
X15613039Y-12122079D01*
X15613039Y-12122079D02*
X15622563Y-12103031D01*
X15622563Y-12103031D02*
X15632086Y-12093508D01*
X15632086Y-12093508D02*
X15651134Y-12083984D01*
X15803515Y-12264936D02*
X15813039Y-12274460D01*
X15813039Y-12274460D02*
X15803515Y-12283984D01*
X15803515Y-12283984D02*
X15793991Y-12274460D01*
X15793991Y-12274460D02*
X15803515Y-12264936D01*
X15803515Y-12264936D02*
X15803515Y-12283984D01*
X15936848Y-12083984D02*
X15955896Y-12083984D01*
X15955896Y-12083984D02*
X15974944Y-12093508D01*
X15974944Y-12093508D02*
X15984467Y-12103031D01*
X15984467Y-12103031D02*
X15993991Y-12122079D01*
X15993991Y-12122079D02*
X16003515Y-12160174D01*
X16003515Y-12160174D02*
X16003515Y-12207793D01*
X16003515Y-12207793D02*
X15993991Y-12245888D01*
X15993991Y-12245888D02*
X15984467Y-12264936D01*
X15984467Y-12264936D02*
X15974944Y-12274460D01*
X15974944Y-12274460D02*
X15955896Y-12283984D01*
X15955896Y-12283984D02*
X15936848Y-12283984D01*
X15936848Y-12283984D02*
X15917801Y-12274460D01*
X15917801Y-12274460D02*
X15908277Y-12264936D01*
X15908277Y-12264936D02*
X15898753Y-12245888D01*
X15898753Y-12245888D02*
X15889229Y-12207793D01*
X15889229Y-12207793D02*
X15889229Y-12160174D01*
X15889229Y-12160174D02*
X15898753Y-12122079D01*
X15898753Y-12122079D02*
X15908277Y-12103031D01*
X15908277Y-12103031D02*
X15917801Y-12093508D01*
X15917801Y-12093508D02*
X15936848Y-12083984D01*
X16079706Y-12103031D02*
X16089229Y-12093508D01*
X16089229Y-12093508D02*
X16108277Y-12083984D01*
X16108277Y-12083984D02*
X16155896Y-12083984D01*
X16155896Y-12083984D02*
X16174944Y-12093508D01*
X16174944Y-12093508D02*
X16184467Y-12103031D01*
X16184467Y-12103031D02*
X16193991Y-12122079D01*
X16193991Y-12122079D02*
X16193991Y-12141127D01*
X16193991Y-12141127D02*
X16184467Y-12169698D01*
X16184467Y-12169698D02*
X16070182Y-12283984D01*
X16070182Y-12283984D02*
X16193991Y-12283984D01*
X16317801Y-12083984D02*
X16336848Y-12083984D01*
X16336848Y-12083984D02*
X16355896Y-12093508D01*
X16355896Y-12093508D02*
X16365420Y-12103031D01*
X16365420Y-12103031D02*
X16374944Y-12122079D01*
X16374944Y-12122079D02*
X16384467Y-12160174D01*
X16384467Y-12160174D02*
X16384467Y-12207793D01*
X16384467Y-12207793D02*
X16374944Y-12245888D01*
X16374944Y-12245888D02*
X16365420Y-12264936D01*
X16365420Y-12264936D02*
X16355896Y-12274460D01*
X16355896Y-12274460D02*
X16336848Y-12283984D01*
X16336848Y-12283984D02*
X16317801Y-12283984D01*
X16317801Y-12283984D02*
X16298753Y-12274460D01*
X16298753Y-12274460D02*
X16289229Y-12264936D01*
X16289229Y-12264936D02*
X16279706Y-12245888D01*
X16279706Y-12245888D02*
X16270182Y-12207793D01*
X16270182Y-12207793D02*
X16270182Y-12160174D01*
X16270182Y-12160174D02*
X16279706Y-12122079D01*
X16279706Y-12122079D02*
X16289229Y-12103031D01*
X16289229Y-12103031D02*
X16298753Y-12093508D01*
X16298753Y-12093508D02*
X16317801Y-12083984D01*
X16508277Y-12083984D02*
X16527325Y-12083984D01*
X16527325Y-12083984D02*
X16546372Y-12093508D01*
X16546372Y-12093508D02*
X16555896Y-12103031D01*
X16555896Y-12103031D02*
X16565420Y-12122079D01*
X16565420Y-12122079D02*
X16574944Y-12160174D01*
X16574944Y-12160174D02*
X16574944Y-12207793D01*
X16574944Y-12207793D02*
X16565420Y-12245888D01*
X16565420Y-12245888D02*
X16555896Y-12264936D01*
X16555896Y-12264936D02*
X16546372Y-12274460D01*
X16546372Y-12274460D02*
X16527325Y-12283984D01*
X16527325Y-12283984D02*
X16508277Y-12283984D01*
X16508277Y-12283984D02*
X16489229Y-12274460D01*
X16489229Y-12274460D02*
X16479706Y-12264936D01*
X16479706Y-12264936D02*
X16470182Y-12245888D01*
X16470182Y-12245888D02*
X16460658Y-12207793D01*
X16460658Y-12207793D02*
X16460658Y-12160174D01*
X16460658Y-12160174D02*
X16470182Y-12122079D01*
X16470182Y-12122079D02*
X16479706Y-12103031D01*
X16479706Y-12103031D02*
X16489229Y-12093508D01*
X16489229Y-12093508D02*
X16508277Y-12083984D01*
X16651134Y-12083984D02*
X16651134Y-12122079D01*
X16727325Y-12083984D02*
X16727325Y-12122079D01*
X17022563Y-12360174D02*
X17013039Y-12350650D01*
X17013039Y-12350650D02*
X16993991Y-12322079D01*
X16993991Y-12322079D02*
X16984468Y-12303031D01*
X16984468Y-12303031D02*
X16974944Y-12274460D01*
X16974944Y-12274460D02*
X16965420Y-12226841D01*
X16965420Y-12226841D02*
X16965420Y-12188746D01*
X16965420Y-12188746D02*
X16974944Y-12141127D01*
X16974944Y-12141127D02*
X16984468Y-12112555D01*
X16984468Y-12112555D02*
X16993991Y-12093508D01*
X16993991Y-12093508D02*
X17013039Y-12064936D01*
X17013039Y-12064936D02*
X17022563Y-12055412D01*
X17203515Y-12283984D02*
X17089230Y-12283984D01*
X17146372Y-12283984D02*
X17146372Y-12083984D01*
X17146372Y-12083984D02*
X17127325Y-12112555D01*
X17127325Y-12112555D02*
X17108277Y-12131603D01*
X17108277Y-12131603D02*
X17089230Y-12141127D01*
X17441611Y-12283984D02*
X17441611Y-12083984D01*
X17527325Y-12283984D02*
X17527325Y-12179222D01*
X17527325Y-12179222D02*
X17517801Y-12160174D01*
X17517801Y-12160174D02*
X17498753Y-12150650D01*
X17498753Y-12150650D02*
X17470182Y-12150650D01*
X17470182Y-12150650D02*
X17451134Y-12160174D01*
X17451134Y-12160174D02*
X17441611Y-12169698D01*
X17651134Y-12283984D02*
X17632087Y-12274460D01*
X17632087Y-12274460D02*
X17622563Y-12264936D01*
X17622563Y-12264936D02*
X17613039Y-12245888D01*
X17613039Y-12245888D02*
X17613039Y-12188746D01*
X17613039Y-12188746D02*
X17622563Y-12169698D01*
X17622563Y-12169698D02*
X17632087Y-12160174D01*
X17632087Y-12160174D02*
X17651134Y-12150650D01*
X17651134Y-12150650D02*
X17679706Y-12150650D01*
X17679706Y-12150650D02*
X17698753Y-12160174D01*
X17698753Y-12160174D02*
X17708277Y-12169698D01*
X17708277Y-12169698D02*
X17717801Y-12188746D01*
X17717801Y-12188746D02*
X17717801Y-12245888D01*
X17717801Y-12245888D02*
X17708277Y-12264936D01*
X17708277Y-12264936D02*
X17698753Y-12274460D01*
X17698753Y-12274460D02*
X17679706Y-12283984D01*
X17679706Y-12283984D02*
X17651134Y-12283984D01*
X17832087Y-12283984D02*
X17813039Y-12274460D01*
X17813039Y-12274460D02*
X17803515Y-12255412D01*
X17803515Y-12255412D02*
X17803515Y-12083984D01*
X17984468Y-12274460D02*
X17965420Y-12283984D01*
X17965420Y-12283984D02*
X17927325Y-12283984D01*
X17927325Y-12283984D02*
X17908277Y-12274460D01*
X17908277Y-12274460D02*
X17898753Y-12255412D01*
X17898753Y-12255412D02*
X17898753Y-12179222D01*
X17898753Y-12179222D02*
X17908277Y-12160174D01*
X17908277Y-12160174D02*
X17927325Y-12150650D01*
X17927325Y-12150650D02*
X17965420Y-12150650D01*
X17965420Y-12150650D02*
X17984468Y-12160174D01*
X17984468Y-12160174D02*
X17993992Y-12179222D01*
X17993992Y-12179222D02*
X17993992Y-12198269D01*
X17993992Y-12198269D02*
X17898753Y-12217317D01*
X18060658Y-12360174D02*
X18070182Y-12350650D01*
X18070182Y-12350650D02*
X18089230Y-12322079D01*
X18089230Y-12322079D02*
X18098753Y-12303031D01*
X18098753Y-12303031D02*
X18108277Y-12274460D01*
X18108277Y-12274460D02*
X18117801Y-12226841D01*
X18117801Y-12226841D02*
X18117801Y-12188746D01*
X18117801Y-12188746D02*
X18108277Y-12141127D01*
X18108277Y-12141127D02*
X18098753Y-12112555D01*
X18098753Y-12112555D02*
X18089230Y-12093508D01*
X18089230Y-12093508D02*
X18070182Y-12064936D01*
X18070182Y-12064936D02*
X18060658Y-12055412D01*
X18422563Y-12360174D02*
X18413039Y-12350650D01*
X18413039Y-12350650D02*
X18393992Y-12322079D01*
X18393992Y-12322079D02*
X18384468Y-12303031D01*
X18384468Y-12303031D02*
X18374944Y-12274460D01*
X18374944Y-12274460D02*
X18365420Y-12226841D01*
X18365420Y-12226841D02*
X18365420Y-12188746D01*
X18365420Y-12188746D02*
X18374944Y-12141127D01*
X18374944Y-12141127D02*
X18384468Y-12112555D01*
X18384468Y-12112555D02*
X18393992Y-12093508D01*
X18393992Y-12093508D02*
X18413039Y-12064936D01*
X18413039Y-12064936D02*
X18422563Y-12055412D01*
X18498753Y-12150650D02*
X18498753Y-12283984D01*
X18498753Y-12169698D02*
X18508277Y-12160174D01*
X18508277Y-12160174D02*
X18527325Y-12150650D01*
X18527325Y-12150650D02*
X18555896Y-12150650D01*
X18555896Y-12150650D02*
X18574944Y-12160174D01*
X18574944Y-12160174D02*
X18584468Y-12179222D01*
X18584468Y-12179222D02*
X18584468Y-12283984D01*
X18708277Y-12283984D02*
X18689230Y-12274460D01*
X18689230Y-12274460D02*
X18679706Y-12264936D01*
X18679706Y-12264936D02*
X18670182Y-12245888D01*
X18670182Y-12245888D02*
X18670182Y-12188746D01*
X18670182Y-12188746D02*
X18679706Y-12169698D01*
X18679706Y-12169698D02*
X18689230Y-12160174D01*
X18689230Y-12160174D02*
X18708277Y-12150650D01*
X18708277Y-12150650D02*
X18736849Y-12150650D01*
X18736849Y-12150650D02*
X18755896Y-12160174D01*
X18755896Y-12160174D02*
X18765420Y-12169698D01*
X18765420Y-12169698D02*
X18774944Y-12188746D01*
X18774944Y-12188746D02*
X18774944Y-12245888D01*
X18774944Y-12245888D02*
X18765420Y-12264936D01*
X18765420Y-12264936D02*
X18755896Y-12274460D01*
X18755896Y-12274460D02*
X18736849Y-12283984D01*
X18736849Y-12283984D02*
X18708277Y-12283984D01*
X18832087Y-12150650D02*
X18908277Y-12150650D01*
X18860658Y-12083984D02*
X18860658Y-12255412D01*
X18860658Y-12255412D02*
X18870182Y-12274460D01*
X18870182Y-12274460D02*
X18889230Y-12283984D01*
X18889230Y-12283984D02*
X18908277Y-12283984D01*
X19127325Y-12150650D02*
X19127325Y-12350650D01*
X19127325Y-12160174D02*
X19146373Y-12150650D01*
X19146373Y-12150650D02*
X19184468Y-12150650D01*
X19184468Y-12150650D02*
X19203515Y-12160174D01*
X19203515Y-12160174D02*
X19213039Y-12169698D01*
X19213039Y-12169698D02*
X19222563Y-12188746D01*
X19222563Y-12188746D02*
X19222563Y-12245888D01*
X19222563Y-12245888D02*
X19213039Y-12264936D01*
X19213039Y-12264936D02*
X19203515Y-12274460D01*
X19203515Y-12274460D02*
X19184468Y-12283984D01*
X19184468Y-12283984D02*
X19146373Y-12283984D01*
X19146373Y-12283984D02*
X19127325Y-12274460D01*
X19336849Y-12283984D02*
X19317801Y-12274460D01*
X19317801Y-12274460D02*
X19308277Y-12255412D01*
X19308277Y-12255412D02*
X19308277Y-12083984D01*
X19498754Y-12283984D02*
X19498754Y-12179222D01*
X19498754Y-12179222D02*
X19489230Y-12160174D01*
X19489230Y-12160174D02*
X19470182Y-12150650D01*
X19470182Y-12150650D02*
X19432087Y-12150650D01*
X19432087Y-12150650D02*
X19413039Y-12160174D01*
X19498754Y-12274460D02*
X19479706Y-12283984D01*
X19479706Y-12283984D02*
X19432087Y-12283984D01*
X19432087Y-12283984D02*
X19413039Y-12274460D01*
X19413039Y-12274460D02*
X19403515Y-12255412D01*
X19403515Y-12255412D02*
X19403515Y-12236365D01*
X19403515Y-12236365D02*
X19413039Y-12217317D01*
X19413039Y-12217317D02*
X19432087Y-12207793D01*
X19432087Y-12207793D02*
X19479706Y-12207793D01*
X19479706Y-12207793D02*
X19498754Y-12198269D01*
X19565420Y-12150650D02*
X19641611Y-12150650D01*
X19593992Y-12083984D02*
X19593992Y-12255412D01*
X19593992Y-12255412D02*
X19603515Y-12274460D01*
X19603515Y-12274460D02*
X19622563Y-12283984D01*
X19622563Y-12283984D02*
X19641611Y-12283984D01*
X19784468Y-12274460D02*
X19765420Y-12283984D01*
X19765420Y-12283984D02*
X19727325Y-12283984D01*
X19727325Y-12283984D02*
X19708277Y-12274460D01*
X19708277Y-12274460D02*
X19698754Y-12255412D01*
X19698754Y-12255412D02*
X19698754Y-12179222D01*
X19698754Y-12179222D02*
X19708277Y-12160174D01*
X19708277Y-12160174D02*
X19727325Y-12150650D01*
X19727325Y-12150650D02*
X19765420Y-12150650D01*
X19765420Y-12150650D02*
X19784468Y-12160174D01*
X19784468Y-12160174D02*
X19793992Y-12179222D01*
X19793992Y-12179222D02*
X19793992Y-12198269D01*
X19793992Y-12198269D02*
X19698754Y-12217317D01*
X19965420Y-12283984D02*
X19965420Y-12083984D01*
X19965420Y-12274460D02*
X19946373Y-12283984D01*
X19946373Y-12283984D02*
X19908277Y-12283984D01*
X19908277Y-12283984D02*
X19889230Y-12274460D01*
X19889230Y-12274460D02*
X19879706Y-12264936D01*
X19879706Y-12264936D02*
X19870182Y-12245888D01*
X19870182Y-12245888D02*
X19870182Y-12188746D01*
X19870182Y-12188746D02*
X19879706Y-12169698D01*
X19879706Y-12169698D02*
X19889230Y-12160174D01*
X19889230Y-12160174D02*
X19908277Y-12150650D01*
X19908277Y-12150650D02*
X19946373Y-12150650D01*
X19946373Y-12150650D02*
X19965420Y-12160174D01*
X20041611Y-12360174D02*
X20051135Y-12350650D01*
X20051135Y-12350650D02*
X20070182Y-12322079D01*
X20070182Y-12322079D02*
X20079706Y-12303031D01*
X20079706Y-12303031D02*
X20089230Y-12274460D01*
X20089230Y-12274460D02*
X20098754Y-12226841D01*
X20098754Y-12226841D02*
X20098754Y-12188746D01*
X20098754Y-12188746D02*
X20089230Y-12141127D01*
X20089230Y-12141127D02*
X20079706Y-12112555D01*
X20079706Y-12112555D02*
X20070182Y-12093508D01*
X20070182Y-12093508D02*
X20051135Y-12064936D01*
X20051135Y-12064936D02*
X20041611Y-12055412D01*
D13*
X13447500Y-12456500D02*
G75*
G03*
X13447500Y-12456500I-30480J0D01*
G01*
D11*
X13746372Y-12347984D02*
X13765420Y-12347984D01*
X13765420Y-12347984D02*
X13784467Y-12357508D01*
X13784467Y-12357508D02*
X13793991Y-12367031D01*
X13793991Y-12367031D02*
X13803515Y-12386079D01*
X13803515Y-12386079D02*
X13813039Y-12424174D01*
X13813039Y-12424174D02*
X13813039Y-12471793D01*
X13813039Y-12471793D02*
X13803515Y-12509888D01*
X13803515Y-12509888D02*
X13793991Y-12528936D01*
X13793991Y-12528936D02*
X13784467Y-12538460D01*
X13784467Y-12538460D02*
X13765420Y-12547984D01*
X13765420Y-12547984D02*
X13746372Y-12547984D01*
X13746372Y-12547984D02*
X13727324Y-12538460D01*
X13727324Y-12538460D02*
X13717801Y-12528936D01*
X13717801Y-12528936D02*
X13708277Y-12509888D01*
X13708277Y-12509888D02*
X13698753Y-12471793D01*
X13698753Y-12471793D02*
X13698753Y-12424174D01*
X13698753Y-12424174D02*
X13708277Y-12386079D01*
X13708277Y-12386079D02*
X13717801Y-12367031D01*
X13717801Y-12367031D02*
X13727324Y-12357508D01*
X13727324Y-12357508D02*
X13746372Y-12347984D01*
X13898753Y-12528936D02*
X13908277Y-12538460D01*
X13908277Y-12538460D02*
X13898753Y-12547984D01*
X13898753Y-12547984D02*
X13889229Y-12538460D01*
X13889229Y-12538460D02*
X13898753Y-12528936D01*
X13898753Y-12528936D02*
X13898753Y-12547984D01*
X14079705Y-12347984D02*
X14041610Y-12347984D01*
X14041610Y-12347984D02*
X14022562Y-12357508D01*
X14022562Y-12357508D02*
X14013039Y-12367031D01*
X14013039Y-12367031D02*
X13993991Y-12395603D01*
X13993991Y-12395603D02*
X13984467Y-12433698D01*
X13984467Y-12433698D02*
X13984467Y-12509888D01*
X13984467Y-12509888D02*
X13993991Y-12528936D01*
X13993991Y-12528936D02*
X14003515Y-12538460D01*
X14003515Y-12538460D02*
X14022562Y-12547984D01*
X14022562Y-12547984D02*
X14060658Y-12547984D01*
X14060658Y-12547984D02*
X14079705Y-12538460D01*
X14079705Y-12538460D02*
X14089229Y-12528936D01*
X14089229Y-12528936D02*
X14098753Y-12509888D01*
X14098753Y-12509888D02*
X14098753Y-12462269D01*
X14098753Y-12462269D02*
X14089229Y-12443222D01*
X14089229Y-12443222D02*
X14079705Y-12433698D01*
X14079705Y-12433698D02*
X14060658Y-12424174D01*
X14060658Y-12424174D02*
X14022562Y-12424174D01*
X14022562Y-12424174D02*
X14003515Y-12433698D01*
X14003515Y-12433698D02*
X13993991Y-12443222D01*
X13993991Y-12443222D02*
X13984467Y-12462269D01*
X14289229Y-12547984D02*
X14174943Y-12547984D01*
X14232086Y-12547984D02*
X14232086Y-12347984D01*
X14232086Y-12347984D02*
X14213039Y-12376555D01*
X14213039Y-12376555D02*
X14193991Y-12395603D01*
X14193991Y-12395603D02*
X14174943Y-12405127D01*
X14413039Y-12347984D02*
X14432086Y-12347984D01*
X14432086Y-12347984D02*
X14451134Y-12357508D01*
X14451134Y-12357508D02*
X14460658Y-12367031D01*
X14460658Y-12367031D02*
X14470182Y-12386079D01*
X14470182Y-12386079D02*
X14479705Y-12424174D01*
X14479705Y-12424174D02*
X14479705Y-12471793D01*
X14479705Y-12471793D02*
X14470182Y-12509888D01*
X14470182Y-12509888D02*
X14460658Y-12528936D01*
X14460658Y-12528936D02*
X14451134Y-12538460D01*
X14451134Y-12538460D02*
X14432086Y-12547984D01*
X14432086Y-12547984D02*
X14413039Y-12547984D01*
X14413039Y-12547984D02*
X14393991Y-12538460D01*
X14393991Y-12538460D02*
X14384467Y-12528936D01*
X14384467Y-12528936D02*
X14374943Y-12509888D01*
X14374943Y-12509888D02*
X14365420Y-12471793D01*
X14365420Y-12471793D02*
X14365420Y-12424174D01*
X14365420Y-12424174D02*
X14374943Y-12386079D01*
X14374943Y-12386079D02*
X14384467Y-12367031D01*
X14384467Y-12367031D02*
X14393991Y-12357508D01*
X14393991Y-12357508D02*
X14413039Y-12347984D01*
X14565420Y-12547984D02*
X14565420Y-12414650D01*
X14565420Y-12433698D02*
X14574943Y-12424174D01*
X14574943Y-12424174D02*
X14593991Y-12414650D01*
X14593991Y-12414650D02*
X14622563Y-12414650D01*
X14622563Y-12414650D02*
X14641610Y-12424174D01*
X14641610Y-12424174D02*
X14651134Y-12443222D01*
X14651134Y-12443222D02*
X14651134Y-12547984D01*
X14651134Y-12443222D02*
X14660658Y-12424174D01*
X14660658Y-12424174D02*
X14679705Y-12414650D01*
X14679705Y-12414650D02*
X14708277Y-12414650D01*
X14708277Y-12414650D02*
X14727324Y-12424174D01*
X14727324Y-12424174D02*
X14736848Y-12443222D01*
X14736848Y-12443222D02*
X14736848Y-12547984D01*
X14832086Y-12547984D02*
X14832086Y-12414650D01*
X14832086Y-12433698D02*
X14841610Y-12424174D01*
X14841610Y-12424174D02*
X14860658Y-12414650D01*
X14860658Y-12414650D02*
X14889229Y-12414650D01*
X14889229Y-12414650D02*
X14908277Y-12424174D01*
X14908277Y-12424174D02*
X14917801Y-12443222D01*
X14917801Y-12443222D02*
X14917801Y-12547984D01*
X14917801Y-12443222D02*
X14927324Y-12424174D01*
X14927324Y-12424174D02*
X14946372Y-12414650D01*
X14946372Y-12414650D02*
X14974943Y-12414650D01*
X14974943Y-12414650D02*
X14993991Y-12424174D01*
X14993991Y-12424174D02*
X15003515Y-12443222D01*
X15003515Y-12443222D02*
X15003515Y-12547984D01*
X15393991Y-12338460D02*
X15222563Y-12595603D01*
X15651134Y-12347984D02*
X15670182Y-12347984D01*
X15670182Y-12347984D02*
X15689229Y-12357508D01*
X15689229Y-12357508D02*
X15698753Y-12367031D01*
X15698753Y-12367031D02*
X15708277Y-12386079D01*
X15708277Y-12386079D02*
X15717801Y-12424174D01*
X15717801Y-12424174D02*
X15717801Y-12471793D01*
X15717801Y-12471793D02*
X15708277Y-12509888D01*
X15708277Y-12509888D02*
X15698753Y-12528936D01*
X15698753Y-12528936D02*
X15689229Y-12538460D01*
X15689229Y-12538460D02*
X15670182Y-12547984D01*
X15670182Y-12547984D02*
X15651134Y-12547984D01*
X15651134Y-12547984D02*
X15632086Y-12538460D01*
X15632086Y-12538460D02*
X15622563Y-12528936D01*
X15622563Y-12528936D02*
X15613039Y-12509888D01*
X15613039Y-12509888D02*
X15603515Y-12471793D01*
X15603515Y-12471793D02*
X15603515Y-12424174D01*
X15603515Y-12424174D02*
X15613039Y-12386079D01*
X15613039Y-12386079D02*
X15622563Y-12367031D01*
X15622563Y-12367031D02*
X15632086Y-12357508D01*
X15632086Y-12357508D02*
X15651134Y-12347984D01*
X15803515Y-12528936D02*
X15813039Y-12538460D01*
X15813039Y-12538460D02*
X15803515Y-12547984D01*
X15803515Y-12547984D02*
X15793991Y-12538460D01*
X15793991Y-12538460D02*
X15803515Y-12528936D01*
X15803515Y-12528936D02*
X15803515Y-12547984D01*
X15936848Y-12347984D02*
X15955896Y-12347984D01*
X15955896Y-12347984D02*
X15974944Y-12357508D01*
X15974944Y-12357508D02*
X15984467Y-12367031D01*
X15984467Y-12367031D02*
X15993991Y-12386079D01*
X15993991Y-12386079D02*
X16003515Y-12424174D01*
X16003515Y-12424174D02*
X16003515Y-12471793D01*
X16003515Y-12471793D02*
X15993991Y-12509888D01*
X15993991Y-12509888D02*
X15984467Y-12528936D01*
X15984467Y-12528936D02*
X15974944Y-12538460D01*
X15974944Y-12538460D02*
X15955896Y-12547984D01*
X15955896Y-12547984D02*
X15936848Y-12547984D01*
X15936848Y-12547984D02*
X15917801Y-12538460D01*
X15917801Y-12538460D02*
X15908277Y-12528936D01*
X15908277Y-12528936D02*
X15898753Y-12509888D01*
X15898753Y-12509888D02*
X15889229Y-12471793D01*
X15889229Y-12471793D02*
X15889229Y-12424174D01*
X15889229Y-12424174D02*
X15898753Y-12386079D01*
X15898753Y-12386079D02*
X15908277Y-12367031D01*
X15908277Y-12367031D02*
X15917801Y-12357508D01*
X15917801Y-12357508D02*
X15936848Y-12347984D01*
X16079706Y-12367031D02*
X16089229Y-12357508D01*
X16089229Y-12357508D02*
X16108277Y-12347984D01*
X16108277Y-12347984D02*
X16155896Y-12347984D01*
X16155896Y-12347984D02*
X16174944Y-12357508D01*
X16174944Y-12357508D02*
X16184467Y-12367031D01*
X16184467Y-12367031D02*
X16193991Y-12386079D01*
X16193991Y-12386079D02*
X16193991Y-12405127D01*
X16193991Y-12405127D02*
X16184467Y-12433698D01*
X16184467Y-12433698D02*
X16070182Y-12547984D01*
X16070182Y-12547984D02*
X16193991Y-12547984D01*
X16365420Y-12414650D02*
X16365420Y-12547984D01*
X16317801Y-12338460D02*
X16270182Y-12481317D01*
X16270182Y-12481317D02*
X16393991Y-12481317D01*
X16508277Y-12347984D02*
X16527325Y-12347984D01*
X16527325Y-12347984D02*
X16546372Y-12357508D01*
X16546372Y-12357508D02*
X16555896Y-12367031D01*
X16555896Y-12367031D02*
X16565420Y-12386079D01*
X16565420Y-12386079D02*
X16574944Y-12424174D01*
X16574944Y-12424174D02*
X16574944Y-12471793D01*
X16574944Y-12471793D02*
X16565420Y-12509888D01*
X16565420Y-12509888D02*
X16555896Y-12528936D01*
X16555896Y-12528936D02*
X16546372Y-12538460D01*
X16546372Y-12538460D02*
X16527325Y-12547984D01*
X16527325Y-12547984D02*
X16508277Y-12547984D01*
X16508277Y-12547984D02*
X16489229Y-12538460D01*
X16489229Y-12538460D02*
X16479706Y-12528936D01*
X16479706Y-12528936D02*
X16470182Y-12509888D01*
X16470182Y-12509888D02*
X16460658Y-12471793D01*
X16460658Y-12471793D02*
X16460658Y-12424174D01*
X16460658Y-12424174D02*
X16470182Y-12386079D01*
X16470182Y-12386079D02*
X16479706Y-12367031D01*
X16479706Y-12367031D02*
X16489229Y-12357508D01*
X16489229Y-12357508D02*
X16508277Y-12347984D01*
X16651134Y-12347984D02*
X16651134Y-12386079D01*
X16727325Y-12347984D02*
X16727325Y-12386079D01*
X17022563Y-12624174D02*
X17013039Y-12614650D01*
X17013039Y-12614650D02*
X16993991Y-12586079D01*
X16993991Y-12586079D02*
X16984468Y-12567031D01*
X16984468Y-12567031D02*
X16974944Y-12538460D01*
X16974944Y-12538460D02*
X16965420Y-12490841D01*
X16965420Y-12490841D02*
X16965420Y-12452746D01*
X16965420Y-12452746D02*
X16974944Y-12405127D01*
X16974944Y-12405127D02*
X16984468Y-12376555D01*
X16984468Y-12376555D02*
X16993991Y-12357508D01*
X16993991Y-12357508D02*
X17013039Y-12328936D01*
X17013039Y-12328936D02*
X17022563Y-12319412D01*
X17136849Y-12347984D02*
X17155896Y-12347984D01*
X17155896Y-12347984D02*
X17174944Y-12357508D01*
X17174944Y-12357508D02*
X17184468Y-12367031D01*
X17184468Y-12367031D02*
X17193991Y-12386079D01*
X17193991Y-12386079D02*
X17203515Y-12424174D01*
X17203515Y-12424174D02*
X17203515Y-12471793D01*
X17203515Y-12471793D02*
X17193991Y-12509888D01*
X17193991Y-12509888D02*
X17184468Y-12528936D01*
X17184468Y-12528936D02*
X17174944Y-12538460D01*
X17174944Y-12538460D02*
X17155896Y-12547984D01*
X17155896Y-12547984D02*
X17136849Y-12547984D01*
X17136849Y-12547984D02*
X17117801Y-12538460D01*
X17117801Y-12538460D02*
X17108277Y-12528936D01*
X17108277Y-12528936D02*
X17098753Y-12509888D01*
X17098753Y-12509888D02*
X17089230Y-12471793D01*
X17089230Y-12471793D02*
X17089230Y-12424174D01*
X17089230Y-12424174D02*
X17098753Y-12386079D01*
X17098753Y-12386079D02*
X17108277Y-12367031D01*
X17108277Y-12367031D02*
X17117801Y-12357508D01*
X17117801Y-12357508D02*
X17136849Y-12347984D01*
X17441611Y-12547984D02*
X17441611Y-12347984D01*
X17527325Y-12547984D02*
X17527325Y-12443222D01*
X17527325Y-12443222D02*
X17517801Y-12424174D01*
X17517801Y-12424174D02*
X17498753Y-12414650D01*
X17498753Y-12414650D02*
X17470182Y-12414650D01*
X17470182Y-12414650D02*
X17451134Y-12424174D01*
X17451134Y-12424174D02*
X17441611Y-12433698D01*
X17651134Y-12547984D02*
X17632087Y-12538460D01*
X17632087Y-12538460D02*
X17622563Y-12528936D01*
X17622563Y-12528936D02*
X17613039Y-12509888D01*
X17613039Y-12509888D02*
X17613039Y-12452746D01*
X17613039Y-12452746D02*
X17622563Y-12433698D01*
X17622563Y-12433698D02*
X17632087Y-12424174D01*
X17632087Y-12424174D02*
X17651134Y-12414650D01*
X17651134Y-12414650D02*
X17679706Y-12414650D01*
X17679706Y-12414650D02*
X17698753Y-12424174D01*
X17698753Y-12424174D02*
X17708277Y-12433698D01*
X17708277Y-12433698D02*
X17717801Y-12452746D01*
X17717801Y-12452746D02*
X17717801Y-12509888D01*
X17717801Y-12509888D02*
X17708277Y-12528936D01*
X17708277Y-12528936D02*
X17698753Y-12538460D01*
X17698753Y-12538460D02*
X17679706Y-12547984D01*
X17679706Y-12547984D02*
X17651134Y-12547984D01*
X17832087Y-12547984D02*
X17813039Y-12538460D01*
X17813039Y-12538460D02*
X17803515Y-12519412D01*
X17803515Y-12519412D02*
X17803515Y-12347984D01*
X17984468Y-12538460D02*
X17965420Y-12547984D01*
X17965420Y-12547984D02*
X17927325Y-12547984D01*
X17927325Y-12547984D02*
X17908277Y-12538460D01*
X17908277Y-12538460D02*
X17898753Y-12519412D01*
X17898753Y-12519412D02*
X17898753Y-12443222D01*
X17898753Y-12443222D02*
X17908277Y-12424174D01*
X17908277Y-12424174D02*
X17927325Y-12414650D01*
X17927325Y-12414650D02*
X17965420Y-12414650D01*
X17965420Y-12414650D02*
X17984468Y-12424174D01*
X17984468Y-12424174D02*
X17993992Y-12443222D01*
X17993992Y-12443222D02*
X17993992Y-12462269D01*
X17993992Y-12462269D02*
X17898753Y-12481317D01*
X18070182Y-12538460D02*
X18089230Y-12547984D01*
X18089230Y-12547984D02*
X18127325Y-12547984D01*
X18127325Y-12547984D02*
X18146373Y-12538460D01*
X18146373Y-12538460D02*
X18155896Y-12519412D01*
X18155896Y-12519412D02*
X18155896Y-12509888D01*
X18155896Y-12509888D02*
X18146373Y-12490841D01*
X18146373Y-12490841D02*
X18127325Y-12481317D01*
X18127325Y-12481317D02*
X18098753Y-12481317D01*
X18098753Y-12481317D02*
X18079706Y-12471793D01*
X18079706Y-12471793D02*
X18070182Y-12452746D01*
X18070182Y-12452746D02*
X18070182Y-12443222D01*
X18070182Y-12443222D02*
X18079706Y-12424174D01*
X18079706Y-12424174D02*
X18098753Y-12414650D01*
X18098753Y-12414650D02*
X18127325Y-12414650D01*
X18127325Y-12414650D02*
X18146373Y-12424174D01*
X18393992Y-12471793D02*
X18546373Y-12471793D01*
X18470182Y-12547984D02*
X18470182Y-12395603D01*
X18889230Y-12347984D02*
X18793992Y-12347984D01*
X18793992Y-12347984D02*
X18784468Y-12443222D01*
X18784468Y-12443222D02*
X18793992Y-12433698D01*
X18793992Y-12433698D02*
X18813039Y-12424174D01*
X18813039Y-12424174D02*
X18860658Y-12424174D01*
X18860658Y-12424174D02*
X18879706Y-12433698D01*
X18879706Y-12433698D02*
X18889230Y-12443222D01*
X18889230Y-12443222D02*
X18898754Y-12462269D01*
X18898754Y-12462269D02*
X18898754Y-12509888D01*
X18898754Y-12509888D02*
X18889230Y-12528936D01*
X18889230Y-12528936D02*
X18879706Y-12538460D01*
X18879706Y-12538460D02*
X18860658Y-12547984D01*
X18860658Y-12547984D02*
X18813039Y-12547984D01*
X18813039Y-12547984D02*
X18793992Y-12538460D01*
X18793992Y-12538460D02*
X18784468Y-12528936D01*
X19127325Y-12538460D02*
X19146373Y-12547984D01*
X19146373Y-12547984D02*
X19184468Y-12547984D01*
X19184468Y-12547984D02*
X19203516Y-12538460D01*
X19203516Y-12538460D02*
X19213039Y-12519412D01*
X19213039Y-12519412D02*
X19213039Y-12509888D01*
X19213039Y-12509888D02*
X19203516Y-12490841D01*
X19203516Y-12490841D02*
X19184468Y-12481317D01*
X19184468Y-12481317D02*
X19155896Y-12481317D01*
X19155896Y-12481317D02*
X19136849Y-12471793D01*
X19136849Y-12471793D02*
X19127325Y-12452746D01*
X19127325Y-12452746D02*
X19127325Y-12443222D01*
X19127325Y-12443222D02*
X19136849Y-12424174D01*
X19136849Y-12424174D02*
X19155896Y-12414650D01*
X19155896Y-12414650D02*
X19184468Y-12414650D01*
X19184468Y-12414650D02*
X19203516Y-12424174D01*
X19327325Y-12547984D02*
X19308277Y-12538460D01*
X19308277Y-12538460D02*
X19298754Y-12519412D01*
X19298754Y-12519412D02*
X19298754Y-12347984D01*
X19432087Y-12547984D02*
X19413039Y-12538460D01*
X19413039Y-12538460D02*
X19403516Y-12528936D01*
X19403516Y-12528936D02*
X19393992Y-12509888D01*
X19393992Y-12509888D02*
X19393992Y-12452746D01*
X19393992Y-12452746D02*
X19403516Y-12433698D01*
X19403516Y-12433698D02*
X19413039Y-12424174D01*
X19413039Y-12424174D02*
X19432087Y-12414650D01*
X19432087Y-12414650D02*
X19460658Y-12414650D01*
X19460658Y-12414650D02*
X19479706Y-12424174D01*
X19479706Y-12424174D02*
X19489230Y-12433698D01*
X19489230Y-12433698D02*
X19498754Y-12452746D01*
X19498754Y-12452746D02*
X19498754Y-12509888D01*
X19498754Y-12509888D02*
X19489230Y-12528936D01*
X19489230Y-12528936D02*
X19479706Y-12538460D01*
X19479706Y-12538460D02*
X19460658Y-12547984D01*
X19460658Y-12547984D02*
X19432087Y-12547984D01*
X19555897Y-12414650D02*
X19632087Y-12414650D01*
X19584468Y-12347984D02*
X19584468Y-12519412D01*
X19584468Y-12519412D02*
X19593992Y-12538460D01*
X19593992Y-12538460D02*
X19613039Y-12547984D01*
X19613039Y-12547984D02*
X19632087Y-12547984D01*
X19689230Y-12538460D02*
X19708277Y-12547984D01*
X19708277Y-12547984D02*
X19746373Y-12547984D01*
X19746373Y-12547984D02*
X19765420Y-12538460D01*
X19765420Y-12538460D02*
X19774944Y-12519412D01*
X19774944Y-12519412D02*
X19774944Y-12509888D01*
X19774944Y-12509888D02*
X19765420Y-12490841D01*
X19765420Y-12490841D02*
X19746373Y-12481317D01*
X19746373Y-12481317D02*
X19717801Y-12481317D01*
X19717801Y-12481317D02*
X19698754Y-12471793D01*
X19698754Y-12471793D02*
X19689230Y-12452746D01*
X19689230Y-12452746D02*
X19689230Y-12443222D01*
X19689230Y-12443222D02*
X19698754Y-12424174D01*
X19698754Y-12424174D02*
X19717801Y-12414650D01*
X19717801Y-12414650D02*
X19746373Y-12414650D01*
X19746373Y-12414650D02*
X19765420Y-12424174D01*
X19841611Y-12624174D02*
X19851135Y-12614650D01*
X19851135Y-12614650D02*
X19870182Y-12586079D01*
X19870182Y-12586079D02*
X19879706Y-12567031D01*
X19879706Y-12567031D02*
X19889230Y-12538460D01*
X19889230Y-12538460D02*
X19898754Y-12490841D01*
X19898754Y-12490841D02*
X19898754Y-12452746D01*
X19898754Y-12452746D02*
X19889230Y-12405127D01*
X19889230Y-12405127D02*
X19879706Y-12376555D01*
X19879706Y-12376555D02*
X19870182Y-12357508D01*
X19870182Y-12357508D02*
X19851135Y-12328936D01*
X19851135Y-12328936D02*
X19841611Y-12319412D01*
X20203516Y-12624174D02*
X20193992Y-12614650D01*
X20193992Y-12614650D02*
X20174944Y-12586079D01*
X20174944Y-12586079D02*
X20165420Y-12567031D01*
X20165420Y-12567031D02*
X20155897Y-12538460D01*
X20155897Y-12538460D02*
X20146373Y-12490841D01*
X20146373Y-12490841D02*
X20146373Y-12452746D01*
X20146373Y-12452746D02*
X20155897Y-12405127D01*
X20155897Y-12405127D02*
X20165420Y-12376555D01*
X20165420Y-12376555D02*
X20174944Y-12357508D01*
X20174944Y-12357508D02*
X20193992Y-12328936D01*
X20193992Y-12328936D02*
X20203516Y-12319412D01*
X20279706Y-12414650D02*
X20279706Y-12547984D01*
X20279706Y-12433698D02*
X20289230Y-12424174D01*
X20289230Y-12424174D02*
X20308277Y-12414650D01*
X20308277Y-12414650D02*
X20336849Y-12414650D01*
X20336849Y-12414650D02*
X20355897Y-12424174D01*
X20355897Y-12424174D02*
X20365420Y-12443222D01*
X20365420Y-12443222D02*
X20365420Y-12547984D01*
X20489230Y-12547984D02*
X20470182Y-12538460D01*
X20470182Y-12538460D02*
X20460658Y-12528936D01*
X20460658Y-12528936D02*
X20451135Y-12509888D01*
X20451135Y-12509888D02*
X20451135Y-12452746D01*
X20451135Y-12452746D02*
X20460658Y-12433698D01*
X20460658Y-12433698D02*
X20470182Y-12424174D01*
X20470182Y-12424174D02*
X20489230Y-12414650D01*
X20489230Y-12414650D02*
X20517801Y-12414650D01*
X20517801Y-12414650D02*
X20536849Y-12424174D01*
X20536849Y-12424174D02*
X20546373Y-12433698D01*
X20546373Y-12433698D02*
X20555897Y-12452746D01*
X20555897Y-12452746D02*
X20555897Y-12509888D01*
X20555897Y-12509888D02*
X20546373Y-12528936D01*
X20546373Y-12528936D02*
X20536849Y-12538460D01*
X20536849Y-12538460D02*
X20517801Y-12547984D01*
X20517801Y-12547984D02*
X20489230Y-12547984D01*
X20613039Y-12414650D02*
X20689230Y-12414650D01*
X20641611Y-12347984D02*
X20641611Y-12519412D01*
X20641611Y-12519412D02*
X20651135Y-12538460D01*
X20651135Y-12538460D02*
X20670182Y-12547984D01*
X20670182Y-12547984D02*
X20689230Y-12547984D01*
X20908278Y-12414650D02*
X20908278Y-12614650D01*
X20908278Y-12424174D02*
X20927325Y-12414650D01*
X20927325Y-12414650D02*
X20965420Y-12414650D01*
X20965420Y-12414650D02*
X20984468Y-12424174D01*
X20984468Y-12424174D02*
X20993992Y-12433698D01*
X20993992Y-12433698D02*
X21003516Y-12452746D01*
X21003516Y-12452746D02*
X21003516Y-12509888D01*
X21003516Y-12509888D02*
X20993992Y-12528936D01*
X20993992Y-12528936D02*
X20984468Y-12538460D01*
X20984468Y-12538460D02*
X20965420Y-12547984D01*
X20965420Y-12547984D02*
X20927325Y-12547984D01*
X20927325Y-12547984D02*
X20908278Y-12538460D01*
X21117801Y-12547984D02*
X21098754Y-12538460D01*
X21098754Y-12538460D02*
X21089230Y-12519412D01*
X21089230Y-12519412D02*
X21089230Y-12347984D01*
X21279706Y-12547984D02*
X21279706Y-12443222D01*
X21279706Y-12443222D02*
X21270182Y-12424174D01*
X21270182Y-12424174D02*
X21251135Y-12414650D01*
X21251135Y-12414650D02*
X21213039Y-12414650D01*
X21213039Y-12414650D02*
X21193992Y-12424174D01*
X21279706Y-12538460D02*
X21260659Y-12547984D01*
X21260659Y-12547984D02*
X21213039Y-12547984D01*
X21213039Y-12547984D02*
X21193992Y-12538460D01*
X21193992Y-12538460D02*
X21184468Y-12519412D01*
X21184468Y-12519412D02*
X21184468Y-12500365D01*
X21184468Y-12500365D02*
X21193992Y-12481317D01*
X21193992Y-12481317D02*
X21213039Y-12471793D01*
X21213039Y-12471793D02*
X21260659Y-12471793D01*
X21260659Y-12471793D02*
X21279706Y-12462269D01*
X21346373Y-12414650D02*
X21422563Y-12414650D01*
X21374944Y-12347984D02*
X21374944Y-12519412D01*
X21374944Y-12519412D02*
X21384468Y-12538460D01*
X21384468Y-12538460D02*
X21403516Y-12547984D01*
X21403516Y-12547984D02*
X21422563Y-12547984D01*
X21565420Y-12538460D02*
X21546373Y-12547984D01*
X21546373Y-12547984D02*
X21508278Y-12547984D01*
X21508278Y-12547984D02*
X21489230Y-12538460D01*
X21489230Y-12538460D02*
X21479706Y-12519412D01*
X21479706Y-12519412D02*
X21479706Y-12443222D01*
X21479706Y-12443222D02*
X21489230Y-12424174D01*
X21489230Y-12424174D02*
X21508278Y-12414650D01*
X21508278Y-12414650D02*
X21546373Y-12414650D01*
X21546373Y-12414650D02*
X21565420Y-12424174D01*
X21565420Y-12424174D02*
X21574944Y-12443222D01*
X21574944Y-12443222D02*
X21574944Y-12462269D01*
X21574944Y-12462269D02*
X21479706Y-12481317D01*
X21746373Y-12547984D02*
X21746373Y-12347984D01*
X21746373Y-12538460D02*
X21727325Y-12547984D01*
X21727325Y-12547984D02*
X21689230Y-12547984D01*
X21689230Y-12547984D02*
X21670182Y-12538460D01*
X21670182Y-12538460D02*
X21660659Y-12528936D01*
X21660659Y-12528936D02*
X21651135Y-12509888D01*
X21651135Y-12509888D02*
X21651135Y-12452746D01*
X21651135Y-12452746D02*
X21660659Y-12433698D01*
X21660659Y-12433698D02*
X21670182Y-12424174D01*
X21670182Y-12424174D02*
X21689230Y-12414650D01*
X21689230Y-12414650D02*
X21727325Y-12414650D01*
X21727325Y-12414650D02*
X21746373Y-12424174D01*
X21822563Y-12624174D02*
X21832087Y-12614650D01*
X21832087Y-12614650D02*
X21851135Y-12586079D01*
X21851135Y-12586079D02*
X21860659Y-12567031D01*
X21860659Y-12567031D02*
X21870182Y-12538460D01*
X21870182Y-12538460D02*
X21879706Y-12490841D01*
X21879706Y-12490841D02*
X21879706Y-12452746D01*
X21879706Y-12452746D02*
X21870182Y-12405127D01*
X21870182Y-12405127D02*
X21860659Y-12376555D01*
X21860659Y-12376555D02*
X21851135Y-12357508D01*
X21851135Y-12357508D02*
X21832087Y-12328936D01*
X21832087Y-12328936D02*
X21822563Y-12319412D01*
X13347500Y-12620500D02*
X13347500Y-12820500D01*
X13247500Y-12720500D02*
X13447500Y-12720500D01*
X13698753Y-12631031D02*
X13708277Y-12621508D01*
X13708277Y-12621508D02*
X13727324Y-12611984D01*
X13727324Y-12611984D02*
X13774943Y-12611984D01*
X13774943Y-12611984D02*
X13793991Y-12621508D01*
X13793991Y-12621508D02*
X13803515Y-12631031D01*
X13803515Y-12631031D02*
X13813039Y-12650079D01*
X13813039Y-12650079D02*
X13813039Y-12669127D01*
X13813039Y-12669127D02*
X13803515Y-12697698D01*
X13803515Y-12697698D02*
X13689229Y-12811984D01*
X13689229Y-12811984D02*
X13813039Y-12811984D01*
X13898753Y-12792936D02*
X13908277Y-12802460D01*
X13908277Y-12802460D02*
X13898753Y-12811984D01*
X13898753Y-12811984D02*
X13889229Y-12802460D01*
X13889229Y-12802460D02*
X13898753Y-12792936D01*
X13898753Y-12792936D02*
X13898753Y-12811984D01*
X13984467Y-12631031D02*
X13993991Y-12621508D01*
X13993991Y-12621508D02*
X14013039Y-12611984D01*
X14013039Y-12611984D02*
X14060658Y-12611984D01*
X14060658Y-12611984D02*
X14079705Y-12621508D01*
X14079705Y-12621508D02*
X14089229Y-12631031D01*
X14089229Y-12631031D02*
X14098753Y-12650079D01*
X14098753Y-12650079D02*
X14098753Y-12669127D01*
X14098753Y-12669127D02*
X14089229Y-12697698D01*
X14089229Y-12697698D02*
X13974943Y-12811984D01*
X13974943Y-12811984D02*
X14098753Y-12811984D01*
X14222562Y-12611984D02*
X14241610Y-12611984D01*
X14241610Y-12611984D02*
X14260658Y-12621508D01*
X14260658Y-12621508D02*
X14270182Y-12631031D01*
X14270182Y-12631031D02*
X14279705Y-12650079D01*
X14279705Y-12650079D02*
X14289229Y-12688174D01*
X14289229Y-12688174D02*
X14289229Y-12735793D01*
X14289229Y-12735793D02*
X14279705Y-12773888D01*
X14279705Y-12773888D02*
X14270182Y-12792936D01*
X14270182Y-12792936D02*
X14260658Y-12802460D01*
X14260658Y-12802460D02*
X14241610Y-12811984D01*
X14241610Y-12811984D02*
X14222562Y-12811984D01*
X14222562Y-12811984D02*
X14203515Y-12802460D01*
X14203515Y-12802460D02*
X14193991Y-12792936D01*
X14193991Y-12792936D02*
X14184467Y-12773888D01*
X14184467Y-12773888D02*
X14174943Y-12735793D01*
X14174943Y-12735793D02*
X14174943Y-12688174D01*
X14174943Y-12688174D02*
X14184467Y-12650079D01*
X14184467Y-12650079D02*
X14193991Y-12631031D01*
X14193991Y-12631031D02*
X14203515Y-12621508D01*
X14203515Y-12621508D02*
X14222562Y-12611984D01*
X14413039Y-12611984D02*
X14432086Y-12611984D01*
X14432086Y-12611984D02*
X14451134Y-12621508D01*
X14451134Y-12621508D02*
X14460658Y-12631031D01*
X14460658Y-12631031D02*
X14470182Y-12650079D01*
X14470182Y-12650079D02*
X14479705Y-12688174D01*
X14479705Y-12688174D02*
X14479705Y-12735793D01*
X14479705Y-12735793D02*
X14470182Y-12773888D01*
X14470182Y-12773888D02*
X14460658Y-12792936D01*
X14460658Y-12792936D02*
X14451134Y-12802460D01*
X14451134Y-12802460D02*
X14432086Y-12811984D01*
X14432086Y-12811984D02*
X14413039Y-12811984D01*
X14413039Y-12811984D02*
X14393991Y-12802460D01*
X14393991Y-12802460D02*
X14384467Y-12792936D01*
X14384467Y-12792936D02*
X14374943Y-12773888D01*
X14374943Y-12773888D02*
X14365420Y-12735793D01*
X14365420Y-12735793D02*
X14365420Y-12688174D01*
X14365420Y-12688174D02*
X14374943Y-12650079D01*
X14374943Y-12650079D02*
X14384467Y-12631031D01*
X14384467Y-12631031D02*
X14393991Y-12621508D01*
X14393991Y-12621508D02*
X14413039Y-12611984D01*
X14565420Y-12811984D02*
X14565420Y-12678650D01*
X14565420Y-12697698D02*
X14574943Y-12688174D01*
X14574943Y-12688174D02*
X14593991Y-12678650D01*
X14593991Y-12678650D02*
X14622563Y-12678650D01*
X14622563Y-12678650D02*
X14641610Y-12688174D01*
X14641610Y-12688174D02*
X14651134Y-12707222D01*
X14651134Y-12707222D02*
X14651134Y-12811984D01*
X14651134Y-12707222D02*
X14660658Y-12688174D01*
X14660658Y-12688174D02*
X14679705Y-12678650D01*
X14679705Y-12678650D02*
X14708277Y-12678650D01*
X14708277Y-12678650D02*
X14727324Y-12688174D01*
X14727324Y-12688174D02*
X14736848Y-12707222D01*
X14736848Y-12707222D02*
X14736848Y-12811984D01*
X14832086Y-12811984D02*
X14832086Y-12678650D01*
X14832086Y-12697698D02*
X14841610Y-12688174D01*
X14841610Y-12688174D02*
X14860658Y-12678650D01*
X14860658Y-12678650D02*
X14889229Y-12678650D01*
X14889229Y-12678650D02*
X14908277Y-12688174D01*
X14908277Y-12688174D02*
X14917801Y-12707222D01*
X14917801Y-12707222D02*
X14917801Y-12811984D01*
X14917801Y-12707222D02*
X14927324Y-12688174D01*
X14927324Y-12688174D02*
X14946372Y-12678650D01*
X14946372Y-12678650D02*
X14974943Y-12678650D01*
X14974943Y-12678650D02*
X14993991Y-12688174D01*
X14993991Y-12688174D02*
X15003515Y-12707222D01*
X15003515Y-12707222D02*
X15003515Y-12811984D01*
X15393991Y-12602460D02*
X15222563Y-12859603D01*
X15651134Y-12611984D02*
X15670182Y-12611984D01*
X15670182Y-12611984D02*
X15689229Y-12621508D01*
X15689229Y-12621508D02*
X15698753Y-12631031D01*
X15698753Y-12631031D02*
X15708277Y-12650079D01*
X15708277Y-12650079D02*
X15717801Y-12688174D01*
X15717801Y-12688174D02*
X15717801Y-12735793D01*
X15717801Y-12735793D02*
X15708277Y-12773888D01*
X15708277Y-12773888D02*
X15698753Y-12792936D01*
X15698753Y-12792936D02*
X15689229Y-12802460D01*
X15689229Y-12802460D02*
X15670182Y-12811984D01*
X15670182Y-12811984D02*
X15651134Y-12811984D01*
X15651134Y-12811984D02*
X15632086Y-12802460D01*
X15632086Y-12802460D02*
X15622563Y-12792936D01*
X15622563Y-12792936D02*
X15613039Y-12773888D01*
X15613039Y-12773888D02*
X15603515Y-12735793D01*
X15603515Y-12735793D02*
X15603515Y-12688174D01*
X15603515Y-12688174D02*
X15613039Y-12650079D01*
X15613039Y-12650079D02*
X15622563Y-12631031D01*
X15622563Y-12631031D02*
X15632086Y-12621508D01*
X15632086Y-12621508D02*
X15651134Y-12611984D01*
X15803515Y-12792936D02*
X15813039Y-12802460D01*
X15813039Y-12802460D02*
X15803515Y-12811984D01*
X15803515Y-12811984D02*
X15793991Y-12802460D01*
X15793991Y-12802460D02*
X15803515Y-12792936D01*
X15803515Y-12792936D02*
X15803515Y-12811984D01*
X15936848Y-12611984D02*
X15955896Y-12611984D01*
X15955896Y-12611984D02*
X15974944Y-12621508D01*
X15974944Y-12621508D02*
X15984467Y-12631031D01*
X15984467Y-12631031D02*
X15993991Y-12650079D01*
X15993991Y-12650079D02*
X16003515Y-12688174D01*
X16003515Y-12688174D02*
X16003515Y-12735793D01*
X16003515Y-12735793D02*
X15993991Y-12773888D01*
X15993991Y-12773888D02*
X15984467Y-12792936D01*
X15984467Y-12792936D02*
X15974944Y-12802460D01*
X15974944Y-12802460D02*
X15955896Y-12811984D01*
X15955896Y-12811984D02*
X15936848Y-12811984D01*
X15936848Y-12811984D02*
X15917801Y-12802460D01*
X15917801Y-12802460D02*
X15908277Y-12792936D01*
X15908277Y-12792936D02*
X15898753Y-12773888D01*
X15898753Y-12773888D02*
X15889229Y-12735793D01*
X15889229Y-12735793D02*
X15889229Y-12688174D01*
X15889229Y-12688174D02*
X15898753Y-12650079D01*
X15898753Y-12650079D02*
X15908277Y-12631031D01*
X15908277Y-12631031D02*
X15917801Y-12621508D01*
X15917801Y-12621508D02*
X15936848Y-12611984D01*
X16117801Y-12697698D02*
X16098753Y-12688174D01*
X16098753Y-12688174D02*
X16089229Y-12678650D01*
X16089229Y-12678650D02*
X16079706Y-12659603D01*
X16079706Y-12659603D02*
X16079706Y-12650079D01*
X16079706Y-12650079D02*
X16089229Y-12631031D01*
X16089229Y-12631031D02*
X16098753Y-12621508D01*
X16098753Y-12621508D02*
X16117801Y-12611984D01*
X16117801Y-12611984D02*
X16155896Y-12611984D01*
X16155896Y-12611984D02*
X16174944Y-12621508D01*
X16174944Y-12621508D02*
X16184467Y-12631031D01*
X16184467Y-12631031D02*
X16193991Y-12650079D01*
X16193991Y-12650079D02*
X16193991Y-12659603D01*
X16193991Y-12659603D02*
X16184467Y-12678650D01*
X16184467Y-12678650D02*
X16174944Y-12688174D01*
X16174944Y-12688174D02*
X16155896Y-12697698D01*
X16155896Y-12697698D02*
X16117801Y-12697698D01*
X16117801Y-12697698D02*
X16098753Y-12707222D01*
X16098753Y-12707222D02*
X16089229Y-12716746D01*
X16089229Y-12716746D02*
X16079706Y-12735793D01*
X16079706Y-12735793D02*
X16079706Y-12773888D01*
X16079706Y-12773888D02*
X16089229Y-12792936D01*
X16089229Y-12792936D02*
X16098753Y-12802460D01*
X16098753Y-12802460D02*
X16117801Y-12811984D01*
X16117801Y-12811984D02*
X16155896Y-12811984D01*
X16155896Y-12811984D02*
X16174944Y-12802460D01*
X16174944Y-12802460D02*
X16184467Y-12792936D01*
X16184467Y-12792936D02*
X16193991Y-12773888D01*
X16193991Y-12773888D02*
X16193991Y-12735793D01*
X16193991Y-12735793D02*
X16184467Y-12716746D01*
X16184467Y-12716746D02*
X16174944Y-12707222D01*
X16174944Y-12707222D02*
X16155896Y-12697698D01*
X16365420Y-12611984D02*
X16327325Y-12611984D01*
X16327325Y-12611984D02*
X16308277Y-12621508D01*
X16308277Y-12621508D02*
X16298753Y-12631031D01*
X16298753Y-12631031D02*
X16279706Y-12659603D01*
X16279706Y-12659603D02*
X16270182Y-12697698D01*
X16270182Y-12697698D02*
X16270182Y-12773888D01*
X16270182Y-12773888D02*
X16279706Y-12792936D01*
X16279706Y-12792936D02*
X16289229Y-12802460D01*
X16289229Y-12802460D02*
X16308277Y-12811984D01*
X16308277Y-12811984D02*
X16346372Y-12811984D01*
X16346372Y-12811984D02*
X16365420Y-12802460D01*
X16365420Y-12802460D02*
X16374944Y-12792936D01*
X16374944Y-12792936D02*
X16384467Y-12773888D01*
X16384467Y-12773888D02*
X16384467Y-12726269D01*
X16384467Y-12726269D02*
X16374944Y-12707222D01*
X16374944Y-12707222D02*
X16365420Y-12697698D01*
X16365420Y-12697698D02*
X16346372Y-12688174D01*
X16346372Y-12688174D02*
X16308277Y-12688174D01*
X16308277Y-12688174D02*
X16289229Y-12697698D01*
X16289229Y-12697698D02*
X16279706Y-12707222D01*
X16279706Y-12707222D02*
X16270182Y-12726269D01*
X16555896Y-12611984D02*
X16517801Y-12611984D01*
X16517801Y-12611984D02*
X16498753Y-12621508D01*
X16498753Y-12621508D02*
X16489229Y-12631031D01*
X16489229Y-12631031D02*
X16470182Y-12659603D01*
X16470182Y-12659603D02*
X16460658Y-12697698D01*
X16460658Y-12697698D02*
X16460658Y-12773888D01*
X16460658Y-12773888D02*
X16470182Y-12792936D01*
X16470182Y-12792936D02*
X16479706Y-12802460D01*
X16479706Y-12802460D02*
X16498753Y-12811984D01*
X16498753Y-12811984D02*
X16536848Y-12811984D01*
X16536848Y-12811984D02*
X16555896Y-12802460D01*
X16555896Y-12802460D02*
X16565420Y-12792936D01*
X16565420Y-12792936D02*
X16574944Y-12773888D01*
X16574944Y-12773888D02*
X16574944Y-12726269D01*
X16574944Y-12726269D02*
X16565420Y-12707222D01*
X16565420Y-12707222D02*
X16555896Y-12697698D01*
X16555896Y-12697698D02*
X16536848Y-12688174D01*
X16536848Y-12688174D02*
X16498753Y-12688174D01*
X16498753Y-12688174D02*
X16479706Y-12697698D01*
X16479706Y-12697698D02*
X16470182Y-12707222D01*
X16470182Y-12707222D02*
X16460658Y-12726269D01*
X16651134Y-12611984D02*
X16651134Y-12650079D01*
X16727325Y-12611984D02*
X16727325Y-12650079D01*
X17022563Y-12888174D02*
X17013039Y-12878650D01*
X17013039Y-12878650D02*
X16993991Y-12850079D01*
X16993991Y-12850079D02*
X16984468Y-12831031D01*
X16984468Y-12831031D02*
X16974944Y-12802460D01*
X16974944Y-12802460D02*
X16965420Y-12754841D01*
X16965420Y-12754841D02*
X16965420Y-12716746D01*
X16965420Y-12716746D02*
X16974944Y-12669127D01*
X16974944Y-12669127D02*
X16984468Y-12640555D01*
X16984468Y-12640555D02*
X16993991Y-12621508D01*
X16993991Y-12621508D02*
X17013039Y-12592936D01*
X17013039Y-12592936D02*
X17022563Y-12583412D01*
X17193991Y-12611984D02*
X17098753Y-12611984D01*
X17098753Y-12611984D02*
X17089230Y-12707222D01*
X17089230Y-12707222D02*
X17098753Y-12697698D01*
X17098753Y-12697698D02*
X17117801Y-12688174D01*
X17117801Y-12688174D02*
X17165420Y-12688174D01*
X17165420Y-12688174D02*
X17184468Y-12697698D01*
X17184468Y-12697698D02*
X17193991Y-12707222D01*
X17193991Y-12707222D02*
X17203515Y-12726269D01*
X17203515Y-12726269D02*
X17203515Y-12773888D01*
X17203515Y-12773888D02*
X17193991Y-12792936D01*
X17193991Y-12792936D02*
X17184468Y-12802460D01*
X17184468Y-12802460D02*
X17165420Y-12811984D01*
X17165420Y-12811984D02*
X17117801Y-12811984D01*
X17117801Y-12811984D02*
X17098753Y-12802460D01*
X17098753Y-12802460D02*
X17089230Y-12792936D01*
X17441611Y-12811984D02*
X17441611Y-12611984D01*
X17527325Y-12811984D02*
X17527325Y-12707222D01*
X17527325Y-12707222D02*
X17517801Y-12688174D01*
X17517801Y-12688174D02*
X17498753Y-12678650D01*
X17498753Y-12678650D02*
X17470182Y-12678650D01*
X17470182Y-12678650D02*
X17451134Y-12688174D01*
X17451134Y-12688174D02*
X17441611Y-12697698D01*
X17651134Y-12811984D02*
X17632087Y-12802460D01*
X17632087Y-12802460D02*
X17622563Y-12792936D01*
X17622563Y-12792936D02*
X17613039Y-12773888D01*
X17613039Y-12773888D02*
X17613039Y-12716746D01*
X17613039Y-12716746D02*
X17622563Y-12697698D01*
X17622563Y-12697698D02*
X17632087Y-12688174D01*
X17632087Y-12688174D02*
X17651134Y-12678650D01*
X17651134Y-12678650D02*
X17679706Y-12678650D01*
X17679706Y-12678650D02*
X17698753Y-12688174D01*
X17698753Y-12688174D02*
X17708277Y-12697698D01*
X17708277Y-12697698D02*
X17717801Y-12716746D01*
X17717801Y-12716746D02*
X17717801Y-12773888D01*
X17717801Y-12773888D02*
X17708277Y-12792936D01*
X17708277Y-12792936D02*
X17698753Y-12802460D01*
X17698753Y-12802460D02*
X17679706Y-12811984D01*
X17679706Y-12811984D02*
X17651134Y-12811984D01*
X17832087Y-12811984D02*
X17813039Y-12802460D01*
X17813039Y-12802460D02*
X17803515Y-12783412D01*
X17803515Y-12783412D02*
X17803515Y-12611984D01*
X17984468Y-12802460D02*
X17965420Y-12811984D01*
X17965420Y-12811984D02*
X17927325Y-12811984D01*
X17927325Y-12811984D02*
X17908277Y-12802460D01*
X17908277Y-12802460D02*
X17898753Y-12783412D01*
X17898753Y-12783412D02*
X17898753Y-12707222D01*
X17898753Y-12707222D02*
X17908277Y-12688174D01*
X17908277Y-12688174D02*
X17927325Y-12678650D01*
X17927325Y-12678650D02*
X17965420Y-12678650D01*
X17965420Y-12678650D02*
X17984468Y-12688174D01*
X17984468Y-12688174D02*
X17993992Y-12707222D01*
X17993992Y-12707222D02*
X17993992Y-12726269D01*
X17993992Y-12726269D02*
X17898753Y-12745317D01*
X18070182Y-12802460D02*
X18089230Y-12811984D01*
X18089230Y-12811984D02*
X18127325Y-12811984D01*
X18127325Y-12811984D02*
X18146373Y-12802460D01*
X18146373Y-12802460D02*
X18155896Y-12783412D01*
X18155896Y-12783412D02*
X18155896Y-12773888D01*
X18155896Y-12773888D02*
X18146373Y-12754841D01*
X18146373Y-12754841D02*
X18127325Y-12745317D01*
X18127325Y-12745317D02*
X18098753Y-12745317D01*
X18098753Y-12745317D02*
X18079706Y-12735793D01*
X18079706Y-12735793D02*
X18070182Y-12716746D01*
X18070182Y-12716746D02*
X18070182Y-12707222D01*
X18070182Y-12707222D02*
X18079706Y-12688174D01*
X18079706Y-12688174D02*
X18098753Y-12678650D01*
X18098753Y-12678650D02*
X18127325Y-12678650D01*
X18127325Y-12678650D02*
X18146373Y-12688174D01*
X18222563Y-12888174D02*
X18232087Y-12878650D01*
X18232087Y-12878650D02*
X18251134Y-12850079D01*
X18251134Y-12850079D02*
X18260658Y-12831031D01*
X18260658Y-12831031D02*
X18270182Y-12802460D01*
X18270182Y-12802460D02*
X18279706Y-12754841D01*
X18279706Y-12754841D02*
X18279706Y-12716746D01*
X18279706Y-12716746D02*
X18270182Y-12669127D01*
X18270182Y-12669127D02*
X18260658Y-12640555D01*
X18260658Y-12640555D02*
X18251134Y-12621508D01*
X18251134Y-12621508D02*
X18232087Y-12592936D01*
X18232087Y-12592936D02*
X18222563Y-12583412D01*
X18584468Y-12888174D02*
X18574944Y-12878650D01*
X18574944Y-12878650D02*
X18555896Y-12850079D01*
X18555896Y-12850079D02*
X18546373Y-12831031D01*
X18546373Y-12831031D02*
X18536849Y-12802460D01*
X18536849Y-12802460D02*
X18527325Y-12754841D01*
X18527325Y-12754841D02*
X18527325Y-12716746D01*
X18527325Y-12716746D02*
X18536849Y-12669127D01*
X18536849Y-12669127D02*
X18546373Y-12640555D01*
X18546373Y-12640555D02*
X18555896Y-12621508D01*
X18555896Y-12621508D02*
X18574944Y-12592936D01*
X18574944Y-12592936D02*
X18584468Y-12583412D01*
X18660658Y-12678650D02*
X18660658Y-12811984D01*
X18660658Y-12697698D02*
X18670182Y-12688174D01*
X18670182Y-12688174D02*
X18689230Y-12678650D01*
X18689230Y-12678650D02*
X18717801Y-12678650D01*
X18717801Y-12678650D02*
X18736849Y-12688174D01*
X18736849Y-12688174D02*
X18746373Y-12707222D01*
X18746373Y-12707222D02*
X18746373Y-12811984D01*
X18870182Y-12811984D02*
X18851134Y-12802460D01*
X18851134Y-12802460D02*
X18841611Y-12792936D01*
X18841611Y-12792936D02*
X18832087Y-12773888D01*
X18832087Y-12773888D02*
X18832087Y-12716746D01*
X18832087Y-12716746D02*
X18841611Y-12697698D01*
X18841611Y-12697698D02*
X18851134Y-12688174D01*
X18851134Y-12688174D02*
X18870182Y-12678650D01*
X18870182Y-12678650D02*
X18898754Y-12678650D01*
X18898754Y-12678650D02*
X18917801Y-12688174D01*
X18917801Y-12688174D02*
X18927325Y-12697698D01*
X18927325Y-12697698D02*
X18936849Y-12716746D01*
X18936849Y-12716746D02*
X18936849Y-12773888D01*
X18936849Y-12773888D02*
X18927325Y-12792936D01*
X18927325Y-12792936D02*
X18917801Y-12802460D01*
X18917801Y-12802460D02*
X18898754Y-12811984D01*
X18898754Y-12811984D02*
X18870182Y-12811984D01*
X18993992Y-12678650D02*
X19070182Y-12678650D01*
X19022563Y-12611984D02*
X19022563Y-12783412D01*
X19022563Y-12783412D02*
X19032087Y-12802460D01*
X19032087Y-12802460D02*
X19051134Y-12811984D01*
X19051134Y-12811984D02*
X19070182Y-12811984D01*
X19289230Y-12678650D02*
X19289230Y-12878650D01*
X19289230Y-12688174D02*
X19308277Y-12678650D01*
X19308277Y-12678650D02*
X19346373Y-12678650D01*
X19346373Y-12678650D02*
X19365420Y-12688174D01*
X19365420Y-12688174D02*
X19374944Y-12697698D01*
X19374944Y-12697698D02*
X19384468Y-12716746D01*
X19384468Y-12716746D02*
X19384468Y-12773888D01*
X19384468Y-12773888D02*
X19374944Y-12792936D01*
X19374944Y-12792936D02*
X19365420Y-12802460D01*
X19365420Y-12802460D02*
X19346373Y-12811984D01*
X19346373Y-12811984D02*
X19308277Y-12811984D01*
X19308277Y-12811984D02*
X19289230Y-12802460D01*
X19498754Y-12811984D02*
X19479706Y-12802460D01*
X19479706Y-12802460D02*
X19470182Y-12783412D01*
X19470182Y-12783412D02*
X19470182Y-12611984D01*
X19660658Y-12811984D02*
X19660658Y-12707222D01*
X19660658Y-12707222D02*
X19651135Y-12688174D01*
X19651135Y-12688174D02*
X19632087Y-12678650D01*
X19632087Y-12678650D02*
X19593992Y-12678650D01*
X19593992Y-12678650D02*
X19574944Y-12688174D01*
X19660658Y-12802460D02*
X19641611Y-12811984D01*
X19641611Y-12811984D02*
X19593992Y-12811984D01*
X19593992Y-12811984D02*
X19574944Y-12802460D01*
X19574944Y-12802460D02*
X19565420Y-12783412D01*
X19565420Y-12783412D02*
X19565420Y-12764365D01*
X19565420Y-12764365D02*
X19574944Y-12745317D01*
X19574944Y-12745317D02*
X19593992Y-12735793D01*
X19593992Y-12735793D02*
X19641611Y-12735793D01*
X19641611Y-12735793D02*
X19660658Y-12726269D01*
X19727325Y-12678650D02*
X19803515Y-12678650D01*
X19755896Y-12611984D02*
X19755896Y-12783412D01*
X19755896Y-12783412D02*
X19765420Y-12802460D01*
X19765420Y-12802460D02*
X19784468Y-12811984D01*
X19784468Y-12811984D02*
X19803515Y-12811984D01*
X19946373Y-12802460D02*
X19927325Y-12811984D01*
X19927325Y-12811984D02*
X19889230Y-12811984D01*
X19889230Y-12811984D02*
X19870182Y-12802460D01*
X19870182Y-12802460D02*
X19860658Y-12783412D01*
X19860658Y-12783412D02*
X19860658Y-12707222D01*
X19860658Y-12707222D02*
X19870182Y-12688174D01*
X19870182Y-12688174D02*
X19889230Y-12678650D01*
X19889230Y-12678650D02*
X19927325Y-12678650D01*
X19927325Y-12678650D02*
X19946373Y-12688174D01*
X19946373Y-12688174D02*
X19955896Y-12707222D01*
X19955896Y-12707222D02*
X19955896Y-12726269D01*
X19955896Y-12726269D02*
X19860658Y-12745317D01*
X20127325Y-12811984D02*
X20127325Y-12611984D01*
X20127325Y-12802460D02*
X20108277Y-12811984D01*
X20108277Y-12811984D02*
X20070182Y-12811984D01*
X20070182Y-12811984D02*
X20051135Y-12802460D01*
X20051135Y-12802460D02*
X20041611Y-12792936D01*
X20041611Y-12792936D02*
X20032087Y-12773888D01*
X20032087Y-12773888D02*
X20032087Y-12716746D01*
X20032087Y-12716746D02*
X20041611Y-12697698D01*
X20041611Y-12697698D02*
X20051135Y-12688174D01*
X20051135Y-12688174D02*
X20070182Y-12678650D01*
X20070182Y-12678650D02*
X20108277Y-12678650D01*
X20108277Y-12678650D02*
X20127325Y-12688174D01*
X20203516Y-12888174D02*
X20213039Y-12878650D01*
X20213039Y-12878650D02*
X20232087Y-12850079D01*
X20232087Y-12850079D02*
X20241611Y-12831031D01*
X20241611Y-12831031D02*
X20251135Y-12802460D01*
X20251135Y-12802460D02*
X20260658Y-12754841D01*
X20260658Y-12754841D02*
X20260658Y-12716746D01*
X20260658Y-12716746D02*
X20251135Y-12669127D01*
X20251135Y-12669127D02*
X20241611Y-12640555D01*
X20241611Y-12640555D02*
X20232087Y-12621508D01*
X20232087Y-12621508D02*
X20213039Y-12592936D01*
X20213039Y-12592936D02*
X20203516Y-12583412D01*
M02*
