%TF.GenerationSoftware,KiCad,Pcbnew,7.0.6*%
%TF.CreationDate,2024-03-18T22:30:34-04:00*%
%TF.ProjectId,Transmitter,5472616e-736d-4697-9474-65722e6b6963,rev?*%
%TF.SameCoordinates,Original*%
%TF.FileFunction,Drillmap*%
%TF.FilePolarity,Positive*%
%FSLAX45Y45*%
G04 Gerber Fmt 4.5, Leading zero omitted, Abs format (unit mm)*
G04 Created by KiCad (PCBNEW 7.0.6) date 2024-03-18 22:30:34*
%MOMM*%
%LPD*%
G01*
G04 APERTURE LIST*
%ADD10C,0.050000*%
%ADD11C,0.200000*%
%ADD12C,0.020000*%
%ADD13C,0.040000*%
%ADD14C,0.065000*%
%ADD15C,0.075000*%
%ADD16C,0.100000*%
%ADD17C,0.110000*%
G04 APERTURE END LIST*
D10*
X13750000Y-5700000D02*
G75*
G03*
X13450000Y-6000000I2132J-302132D01*
G01*
X13450000Y-6000000D02*
X13450000Y-11250000D01*
X19300000Y-11250000D02*
X19300000Y-6000000D01*
X19300000Y-6000000D02*
G75*
G03*
X19000000Y-5700000I-300000J0D01*
G01*
X13750000Y-11550000D02*
X19000000Y-11550000D01*
X19000000Y-5700000D02*
X13750000Y-5700000D01*
X13450000Y-11250000D02*
G75*
G03*
X13750000Y-11550000I300000J0D01*
G01*
X19000000Y-11550000D02*
G75*
G03*
X19300000Y-11250000I0J300000D01*
G01*
D11*
D12*
X17150000Y-10430000D02*
X17170000Y-10450000D01*
X17170000Y-10430000D02*
X17150000Y-10450000D01*
X17220000Y-10280000D02*
X17240000Y-10300000D01*
X17240000Y-10280000D02*
X17220000Y-10300000D01*
X17380000Y-10240000D02*
X17400000Y-10260000D01*
X17400000Y-10240000D02*
X17380000Y-10260000D01*
X17380000Y-10290000D02*
X17400000Y-10310000D01*
X17400000Y-10290000D02*
X17380000Y-10310000D01*
X17430000Y-10240000D02*
X17450000Y-10260000D01*
X17450000Y-10240000D02*
X17430000Y-10260000D01*
X17430000Y-10290000D02*
X17450000Y-10310000D01*
X17450000Y-10290000D02*
X17430000Y-10310000D01*
X17430000Y-10290000D02*
X17450000Y-10310000D01*
X17450000Y-10290000D02*
X17430000Y-10310000D01*
X17530000Y-10240000D02*
X17550000Y-10260000D01*
X17550000Y-10240000D02*
X17530000Y-10260000D01*
X17530000Y-10290000D02*
X17550000Y-10310000D01*
X17550000Y-10290000D02*
X17530000Y-10310000D01*
X17540000Y-5940000D02*
X17560000Y-5960000D01*
X17560000Y-5940000D02*
X17540000Y-5960000D01*
X17580000Y-10240000D02*
X17600000Y-10260000D01*
X17600000Y-10240000D02*
X17580000Y-10260000D01*
X17580000Y-10290000D02*
X17600000Y-10310000D01*
X17600000Y-10290000D02*
X17580000Y-10310000D01*
X17760378Y-10378424D02*
X17780378Y-10398424D01*
X17780378Y-10378424D02*
X17760378Y-10398424D01*
X17770000Y-10120000D02*
X17790000Y-10140000D01*
X17790000Y-10120000D02*
X17770000Y-10140000D01*
X17790000Y-7015150D02*
X17810000Y-7035150D01*
X17810000Y-7015150D02*
X17790000Y-7035150D01*
X18010000Y-10260000D02*
X18030000Y-10280000D01*
X18030000Y-10260000D02*
X18010000Y-10280000D01*
X18020000Y-6810000D02*
X18040000Y-6830000D01*
X18040000Y-6810000D02*
X18020000Y-6830000D01*
X18032240Y-7260150D02*
X18052240Y-7280150D01*
X18052240Y-7260150D02*
X18032240Y-7280150D01*
X18040000Y-5900000D02*
X18060000Y-5920000D01*
X18060000Y-5900000D02*
X18040000Y-5920000D01*
X18060000Y-10570000D02*
X18080000Y-10590000D01*
X18080000Y-10570000D02*
X18060000Y-10590000D01*
X18130000Y-6590000D02*
X18150000Y-6610000D01*
X18150000Y-6590000D02*
X18130000Y-6610000D01*
X18340000Y-10170000D02*
X18360000Y-10190000D01*
X18360000Y-10170000D02*
X18340000Y-10190000D01*
D13*
X14150000Y-10370000D02*
G75*
G03*
X14150000Y-10370000I-20000J0D01*
G01*
X14210000Y-9550000D02*
G75*
G03*
X14210000Y-9550000I-20000J0D01*
G01*
X14780000Y-6010000D02*
G75*
G03*
X14780000Y-6010000I-20000J0D01*
G01*
X14980000Y-6410000D02*
G75*
G03*
X14980000Y-6410000I-20000J0D01*
G01*
X14980000Y-6590000D02*
G75*
G03*
X14980000Y-6590000I-20000J0D01*
G01*
X15050000Y-6600000D02*
G75*
G03*
X15050000Y-6600000I-20000J0D01*
G01*
X15060000Y-6410000D02*
G75*
G03*
X15060000Y-6410000I-20000J0D01*
G01*
X15130000Y-6600000D02*
G75*
G03*
X15130000Y-6600000I-20000J0D01*
G01*
X15140000Y-6410000D02*
G75*
G03*
X15140000Y-6410000I-20000J0D01*
G01*
X15220000Y-6600000D02*
G75*
G03*
X15220000Y-6600000I-20000J0D01*
G01*
X15230000Y-6410000D02*
G75*
G03*
X15230000Y-6410000I-20000J0D01*
G01*
X15230000Y-6950000D02*
G75*
G03*
X15230000Y-6950000I-20000J0D01*
G01*
X15265000Y-5965000D02*
G75*
G03*
X15265000Y-5965000I-20000J0D01*
G01*
X15420000Y-7010000D02*
G75*
G03*
X15420000Y-7010000I-20000J0D01*
G01*
X15530000Y-6240000D02*
G75*
G03*
X15530000Y-6240000I-20000J0D01*
G01*
X15570000Y-7410000D02*
G75*
G03*
X15570000Y-7410000I-20000J0D01*
G01*
X15690000Y-7950000D02*
G75*
G03*
X15690000Y-7950000I-20000J0D01*
G01*
X15950000Y-6930000D02*
G75*
G03*
X15950000Y-6930000I-20000J0D01*
G01*
X16280000Y-6640000D02*
G75*
G03*
X16280000Y-6640000I-20000J0D01*
G01*
X16280000Y-7720000D02*
G75*
G03*
X16280000Y-7720000I-20000J0D01*
G01*
X16460000Y-7320000D02*
G75*
G03*
X16460000Y-7320000I-20000J0D01*
G01*
X16740000Y-9660000D02*
G75*
G03*
X16740000Y-9660000I-20000J0D01*
G01*
X16830000Y-6550000D02*
G75*
G03*
X16830000Y-6550000I-20000J0D01*
G01*
X16840000Y-9660000D02*
G75*
G03*
X16840000Y-9660000I-20000J0D01*
G01*
X16940000Y-9660000D02*
G75*
G03*
X16940000Y-9660000I-20000J0D01*
G01*
X16980000Y-7990000D02*
G75*
G03*
X16980000Y-7990000I-20000J0D01*
G01*
X17050000Y-9660000D02*
G75*
G03*
X17050000Y-9660000I-20000J0D01*
G01*
X17060000Y-7580000D02*
G75*
G03*
X17060000Y-7580000I-20000J0D01*
G01*
X17140000Y-6400000D02*
G75*
G03*
X17140000Y-6400000I-20000J0D01*
G01*
X17160000Y-9660000D02*
G75*
G03*
X17160000Y-9660000I-20000J0D01*
G01*
X17180000Y-6940000D02*
G75*
G03*
X17180000Y-6940000I-20000J0D01*
G01*
X17210000Y-10980000D02*
G75*
G03*
X17210000Y-10980000I-20000J0D01*
G01*
X17220000Y-10140000D02*
G75*
G03*
X17220000Y-10140000I-20000J0D01*
G01*
X17350000Y-10770000D02*
G75*
G03*
X17350000Y-10770000I-20000J0D01*
G01*
X17410000Y-9660000D02*
G75*
G03*
X17410000Y-9660000I-20000J0D01*
G01*
X17410000Y-9730000D02*
G75*
G03*
X17410000Y-9730000I-20000J0D01*
G01*
X17410000Y-9800000D02*
G75*
G03*
X17410000Y-9800000I-20000J0D01*
G01*
X17450000Y-10370000D02*
G75*
G03*
X17450000Y-10370000I-20000J0D01*
G01*
X17510000Y-9660000D02*
G75*
G03*
X17510000Y-9660000I-20000J0D01*
G01*
X17510000Y-10420000D02*
G75*
G03*
X17510000Y-10420000I-20000J0D01*
G01*
X17570000Y-10370000D02*
G75*
G03*
X17570000Y-10370000I-20000J0D01*
G01*
X17610000Y-9660000D02*
G75*
G03*
X17610000Y-9660000I-20000J0D01*
G01*
X17610000Y-9730000D02*
G75*
G03*
X17610000Y-9730000I-20000J0D01*
G01*
X17610000Y-9800000D02*
G75*
G03*
X17610000Y-9800000I-20000J0D01*
G01*
X17670000Y-6860000D02*
G75*
G03*
X17670000Y-6860000I-20000J0D01*
G01*
X17680000Y-7160000D02*
G75*
G03*
X17680000Y-7160000I-20000J0D01*
G01*
X17700000Y-10800000D02*
G75*
G03*
X17700000Y-10800000I-20000J0D01*
G01*
X17930000Y-6790000D02*
G75*
G03*
X17930000Y-6790000I-20000J0D01*
G01*
X17930000Y-7220000D02*
G75*
G03*
X17930000Y-7220000I-20000J0D01*
G01*
X17940000Y-9660000D02*
G75*
G03*
X17940000Y-9660000I-20000J0D01*
G01*
X18025000Y-6380000D02*
G75*
G03*
X18025000Y-6380000I-20000J0D01*
G01*
X18050000Y-9660000D02*
G75*
G03*
X18050000Y-9660000I-20000J0D01*
G01*
X18140000Y-7650000D02*
G75*
G03*
X18140000Y-7650000I-20000J0D01*
G01*
X18140000Y-10310000D02*
G75*
G03*
X18140000Y-10310000I-20000J0D01*
G01*
X18160000Y-9660000D02*
G75*
G03*
X18160000Y-9660000I-20000J0D01*
G01*
X18220000Y-7010000D02*
G75*
G03*
X18220000Y-7010000I-20000J0D01*
G01*
X18220000Y-10290000D02*
G75*
G03*
X18220000Y-10290000I-20000J0D01*
G01*
X18220000Y-10510000D02*
G75*
G03*
X18220000Y-10510000I-20000J0D01*
G01*
X18250000Y-10930000D02*
G75*
G03*
X18250000Y-10930000I-20000J0D01*
G01*
X18260000Y-9660000D02*
G75*
G03*
X18260000Y-9660000I-20000J0D01*
G01*
X18350000Y-6870000D02*
G75*
G03*
X18350000Y-6870000I-20000J0D01*
G01*
X18360000Y-7160000D02*
G75*
G03*
X18360000Y-7160000I-20000J0D01*
G01*
X18360050Y-9660000D02*
G75*
G03*
X18360050Y-9660000I-20000J0D01*
G01*
X18390000Y-8490000D02*
G75*
G03*
X18390000Y-8490000I-20000J0D01*
G01*
X18390000Y-8570000D02*
G75*
G03*
X18390000Y-8570000I-20000J0D01*
G01*
X18470000Y-8490000D02*
G75*
G03*
X18470000Y-8490000I-20000J0D01*
G01*
X18470000Y-8570000D02*
G75*
G03*
X18470000Y-8570000I-20000J0D01*
G01*
X18470350Y-9660000D02*
G75*
G03*
X18470350Y-9660000I-20000J0D01*
G01*
X18500000Y-6830000D02*
G75*
G03*
X18500000Y-6830000I-20000J0D01*
G01*
X18540000Y-8730000D02*
G75*
G03*
X18540000Y-8730000I-20000J0D01*
G01*
X18560000Y-7590000D02*
G75*
G03*
X18560000Y-7590000I-20000J0D01*
G01*
X18580000Y-8660000D02*
G75*
G03*
X18580000Y-8660000I-20000J0D01*
G01*
X18590000Y-9660000D02*
G75*
G03*
X18590000Y-9660000I-20000J0D01*
G01*
X18620000Y-8590000D02*
G75*
G03*
X18620000Y-8590000I-20000J0D01*
G01*
X18620000Y-8730000D02*
G75*
G03*
X18620000Y-8730000I-20000J0D01*
G01*
X18640000Y-7590000D02*
G75*
G03*
X18640000Y-7590000I-20000J0D01*
G01*
X18660000Y-8660000D02*
G75*
G03*
X18660000Y-8660000I-20000J0D01*
G01*
X18700000Y-8590000D02*
G75*
G03*
X18700000Y-8590000I-20000J0D01*
G01*
X18700000Y-8730000D02*
G75*
G03*
X18700000Y-8730000I-20000J0D01*
G01*
X18720000Y-7590000D02*
G75*
G03*
X18720000Y-7590000I-20000J0D01*
G01*
X18730000Y-6550000D02*
G75*
G03*
X18730000Y-6550000I-20000J0D01*
G01*
X18740000Y-8660000D02*
G75*
G03*
X18740000Y-8660000I-20000J0D01*
G01*
D14*
X17453000Y-6027500D02*
X17453000Y-6092500D01*
X17420500Y-6060000D02*
X17485500Y-6060000D01*
X17453000Y-6154500D02*
X17453000Y-6219500D01*
X17420500Y-6187000D02*
X17485500Y-6187000D01*
X17580000Y-6027500D02*
X17580000Y-6092500D01*
X17547500Y-6060000D02*
X17612500Y-6060000D01*
X17580000Y-6154500D02*
X17580000Y-6219500D01*
X17547500Y-6187000D02*
X17612500Y-6187000D01*
X17707000Y-6027500D02*
X17707000Y-6092500D01*
X17674500Y-6060000D02*
X17739500Y-6060000D01*
X17707000Y-6154500D02*
X17707000Y-6219500D01*
X17674500Y-6187000D02*
X17739500Y-6187000D01*
D15*
X14831517Y-11046517D02*
X14831517Y-10993483D01*
X14778483Y-10993483D01*
X14778483Y-11046517D01*
X14831517Y-11046517D01*
X14831517Y-11246517D02*
X14831517Y-11193483D01*
X14778483Y-11193483D01*
X14778483Y-11246517D01*
X14831517Y-11246517D01*
X15431517Y-11046517D02*
X15431517Y-10993483D01*
X15378483Y-10993483D01*
X15378483Y-11046517D01*
X15431517Y-11046517D01*
X15431517Y-11246517D02*
X15431517Y-11193483D01*
X15378483Y-11193483D01*
X15378483Y-11246517D01*
X15431517Y-11246517D01*
X18556517Y-9531517D02*
X18556517Y-9478483D01*
X18503483Y-9478483D01*
X18503483Y-9531517D01*
X18556517Y-9531517D01*
X18706517Y-10726517D02*
X18706517Y-10673483D01*
X18653483Y-10673483D01*
X18653483Y-10726517D01*
X18706517Y-10726517D01*
X18756517Y-9531517D02*
X18756517Y-9478483D01*
X18703483Y-9478483D01*
X18703483Y-9531517D01*
X18756517Y-9531517D01*
X18906517Y-10726517D02*
X18906517Y-10673483D01*
X18853483Y-10673483D01*
X18853483Y-10726517D01*
X18906517Y-10726517D01*
X19106517Y-10726517D02*
X19106517Y-10673483D01*
X19053483Y-10673483D01*
X19053483Y-10726517D01*
X19106517Y-10726517D01*
D16*
X14252000Y-9800000D02*
X14302000Y-9750000D01*
X14252000Y-9700000D01*
X14202000Y-9750000D01*
X14252000Y-9800000D01*
X14252000Y-10050000D02*
X14302000Y-10000000D01*
X14252000Y-9950000D01*
X14202000Y-10000000D01*
X14252000Y-10050000D01*
X14252000Y-10300000D02*
X14302000Y-10250000D01*
X14252000Y-10200000D01*
X14202000Y-10250000D01*
X14252000Y-10300000D01*
D17*
X14947000Y-9470000D02*
X15057000Y-9580000D01*
X15057000Y-9470000D02*
X14947000Y-9580000D01*
X15057000Y-9525000D02*
G75*
G03*
X15057000Y-9525000I-55000J0D01*
G01*
D11*
X14947000Y-9490000D02*
X14947000Y-9560000D01*
X14947000Y-9560000D02*
G75*
G03*
X15057000Y-9560000I55000J0D01*
G01*
X15057000Y-9560000D02*
X15057000Y-9490000D01*
X15057000Y-9490000D02*
G75*
G03*
X14947000Y-9490000I-55000J0D01*
G01*
D17*
X14947000Y-10420000D02*
X15057000Y-10530000D01*
X15057000Y-10420000D02*
X14947000Y-10530000D01*
X15057000Y-10475000D02*
G75*
G03*
X15057000Y-10475000I-55000J0D01*
G01*
D11*
X14947000Y-10440000D02*
X14947000Y-10510000D01*
X14947000Y-10510000D02*
G75*
G03*
X15057000Y-10510000I55000J0D01*
G01*
X15057000Y-10510000D02*
X15057000Y-10440000D01*
X15057000Y-10440000D02*
G75*
G03*
X14947000Y-10440000I-55000J0D01*
G01*
X13708277Y-11863984D02*
X13708277Y-11663984D01*
X13708277Y-11663984D02*
X13755896Y-11663984D01*
X13755896Y-11663984D02*
X13784467Y-11673508D01*
X13784467Y-11673508D02*
X13803515Y-11692555D01*
X13803515Y-11692555D02*
X13813039Y-11711603D01*
X13813039Y-11711603D02*
X13822562Y-11749698D01*
X13822562Y-11749698D02*
X13822562Y-11778269D01*
X13822562Y-11778269D02*
X13813039Y-11816365D01*
X13813039Y-11816365D02*
X13803515Y-11835412D01*
X13803515Y-11835412D02*
X13784467Y-11854460D01*
X13784467Y-11854460D02*
X13755896Y-11863984D01*
X13755896Y-11863984D02*
X13708277Y-11863984D01*
X13908277Y-11863984D02*
X13908277Y-11730650D01*
X13908277Y-11768746D02*
X13917801Y-11749698D01*
X13917801Y-11749698D02*
X13927324Y-11740174D01*
X13927324Y-11740174D02*
X13946372Y-11730650D01*
X13946372Y-11730650D02*
X13965420Y-11730650D01*
X14032086Y-11863984D02*
X14032086Y-11730650D01*
X14032086Y-11663984D02*
X14022562Y-11673508D01*
X14022562Y-11673508D02*
X14032086Y-11683031D01*
X14032086Y-11683031D02*
X14041610Y-11673508D01*
X14041610Y-11673508D02*
X14032086Y-11663984D01*
X14032086Y-11663984D02*
X14032086Y-11683031D01*
X14155896Y-11863984D02*
X14136848Y-11854460D01*
X14136848Y-11854460D02*
X14127324Y-11835412D01*
X14127324Y-11835412D02*
X14127324Y-11663984D01*
X14260658Y-11863984D02*
X14241610Y-11854460D01*
X14241610Y-11854460D02*
X14232086Y-11835412D01*
X14232086Y-11835412D02*
X14232086Y-11663984D01*
X14489229Y-11863984D02*
X14489229Y-11663984D01*
X14489229Y-11663984D02*
X14555896Y-11806841D01*
X14555896Y-11806841D02*
X14622562Y-11663984D01*
X14622562Y-11663984D02*
X14622562Y-11863984D01*
X14803515Y-11863984D02*
X14803515Y-11759222D01*
X14803515Y-11759222D02*
X14793991Y-11740174D01*
X14793991Y-11740174D02*
X14774943Y-11730650D01*
X14774943Y-11730650D02*
X14736848Y-11730650D01*
X14736848Y-11730650D02*
X14717801Y-11740174D01*
X14803515Y-11854460D02*
X14784467Y-11863984D01*
X14784467Y-11863984D02*
X14736848Y-11863984D01*
X14736848Y-11863984D02*
X14717801Y-11854460D01*
X14717801Y-11854460D02*
X14708277Y-11835412D01*
X14708277Y-11835412D02*
X14708277Y-11816365D01*
X14708277Y-11816365D02*
X14717801Y-11797317D01*
X14717801Y-11797317D02*
X14736848Y-11787793D01*
X14736848Y-11787793D02*
X14784467Y-11787793D01*
X14784467Y-11787793D02*
X14803515Y-11778269D01*
X14898753Y-11730650D02*
X14898753Y-11930650D01*
X14898753Y-11740174D02*
X14917801Y-11730650D01*
X14917801Y-11730650D02*
X14955896Y-11730650D01*
X14955896Y-11730650D02*
X14974943Y-11740174D01*
X14974943Y-11740174D02*
X14984467Y-11749698D01*
X14984467Y-11749698D02*
X14993991Y-11768746D01*
X14993991Y-11768746D02*
X14993991Y-11825888D01*
X14993991Y-11825888D02*
X14984467Y-11844936D01*
X14984467Y-11844936D02*
X14974943Y-11854460D01*
X14974943Y-11854460D02*
X14955896Y-11863984D01*
X14955896Y-11863984D02*
X14917801Y-11863984D01*
X14917801Y-11863984D02*
X14898753Y-11854460D01*
X15079705Y-11844936D02*
X15089229Y-11854460D01*
X15089229Y-11854460D02*
X15079705Y-11863984D01*
X15079705Y-11863984D02*
X15070182Y-11854460D01*
X15070182Y-11854460D02*
X15079705Y-11844936D01*
X15079705Y-11844936D02*
X15079705Y-11863984D01*
X15079705Y-11740174D02*
X15089229Y-11749698D01*
X15089229Y-11749698D02*
X15079705Y-11759222D01*
X15079705Y-11759222D02*
X15070182Y-11749698D01*
X15070182Y-11749698D02*
X15079705Y-11740174D01*
X15079705Y-11740174D02*
X15079705Y-11759222D01*
D12*
X13427500Y-12182500D02*
X13447500Y-12202500D01*
X13447500Y-12182500D02*
X13427500Y-12202500D01*
D11*
X13746372Y-12083984D02*
X13765420Y-12083984D01*
X13765420Y-12083984D02*
X13784467Y-12093508D01*
X13784467Y-12093508D02*
X13793991Y-12103031D01*
X13793991Y-12103031D02*
X13803515Y-12122079D01*
X13803515Y-12122079D02*
X13813039Y-12160174D01*
X13813039Y-12160174D02*
X13813039Y-12207793D01*
X13813039Y-12207793D02*
X13803515Y-12245888D01*
X13803515Y-12245888D02*
X13793991Y-12264936D01*
X13793991Y-12264936D02*
X13784467Y-12274460D01*
X13784467Y-12274460D02*
X13765420Y-12283984D01*
X13765420Y-12283984D02*
X13746372Y-12283984D01*
X13746372Y-12283984D02*
X13727324Y-12274460D01*
X13727324Y-12274460D02*
X13717801Y-12264936D01*
X13717801Y-12264936D02*
X13708277Y-12245888D01*
X13708277Y-12245888D02*
X13698753Y-12207793D01*
X13698753Y-12207793D02*
X13698753Y-12160174D01*
X13698753Y-12160174D02*
X13708277Y-12122079D01*
X13708277Y-12122079D02*
X13717801Y-12103031D01*
X13717801Y-12103031D02*
X13727324Y-12093508D01*
X13727324Y-12093508D02*
X13746372Y-12083984D01*
X13898753Y-12264936D02*
X13908277Y-12274460D01*
X13908277Y-12274460D02*
X13898753Y-12283984D01*
X13898753Y-12283984D02*
X13889229Y-12274460D01*
X13889229Y-12274460D02*
X13898753Y-12264936D01*
X13898753Y-12264936D02*
X13898753Y-12283984D01*
X13984467Y-12103031D02*
X13993991Y-12093508D01*
X13993991Y-12093508D02*
X14013039Y-12083984D01*
X14013039Y-12083984D02*
X14060658Y-12083984D01*
X14060658Y-12083984D02*
X14079705Y-12093508D01*
X14079705Y-12093508D02*
X14089229Y-12103031D01*
X14089229Y-12103031D02*
X14098753Y-12122079D01*
X14098753Y-12122079D02*
X14098753Y-12141127D01*
X14098753Y-12141127D02*
X14089229Y-12169698D01*
X14089229Y-12169698D02*
X13974943Y-12283984D01*
X13974943Y-12283984D02*
X14098753Y-12283984D01*
X14222562Y-12083984D02*
X14241610Y-12083984D01*
X14241610Y-12083984D02*
X14260658Y-12093508D01*
X14260658Y-12093508D02*
X14270182Y-12103031D01*
X14270182Y-12103031D02*
X14279705Y-12122079D01*
X14279705Y-12122079D02*
X14289229Y-12160174D01*
X14289229Y-12160174D02*
X14289229Y-12207793D01*
X14289229Y-12207793D02*
X14279705Y-12245888D01*
X14279705Y-12245888D02*
X14270182Y-12264936D01*
X14270182Y-12264936D02*
X14260658Y-12274460D01*
X14260658Y-12274460D02*
X14241610Y-12283984D01*
X14241610Y-12283984D02*
X14222562Y-12283984D01*
X14222562Y-12283984D02*
X14203515Y-12274460D01*
X14203515Y-12274460D02*
X14193991Y-12264936D01*
X14193991Y-12264936D02*
X14184467Y-12245888D01*
X14184467Y-12245888D02*
X14174943Y-12207793D01*
X14174943Y-12207793D02*
X14174943Y-12160174D01*
X14174943Y-12160174D02*
X14184467Y-12122079D01*
X14184467Y-12122079D02*
X14193991Y-12103031D01*
X14193991Y-12103031D02*
X14203515Y-12093508D01*
X14203515Y-12093508D02*
X14222562Y-12083984D01*
X14413039Y-12083984D02*
X14432086Y-12083984D01*
X14432086Y-12083984D02*
X14451134Y-12093508D01*
X14451134Y-12093508D02*
X14460658Y-12103031D01*
X14460658Y-12103031D02*
X14470182Y-12122079D01*
X14470182Y-12122079D02*
X14479705Y-12160174D01*
X14479705Y-12160174D02*
X14479705Y-12207793D01*
X14479705Y-12207793D02*
X14470182Y-12245888D01*
X14470182Y-12245888D02*
X14460658Y-12264936D01*
X14460658Y-12264936D02*
X14451134Y-12274460D01*
X14451134Y-12274460D02*
X14432086Y-12283984D01*
X14432086Y-12283984D02*
X14413039Y-12283984D01*
X14413039Y-12283984D02*
X14393991Y-12274460D01*
X14393991Y-12274460D02*
X14384467Y-12264936D01*
X14384467Y-12264936D02*
X14374943Y-12245888D01*
X14374943Y-12245888D02*
X14365420Y-12207793D01*
X14365420Y-12207793D02*
X14365420Y-12160174D01*
X14365420Y-12160174D02*
X14374943Y-12122079D01*
X14374943Y-12122079D02*
X14384467Y-12103031D01*
X14384467Y-12103031D02*
X14393991Y-12093508D01*
X14393991Y-12093508D02*
X14413039Y-12083984D01*
X14565420Y-12283984D02*
X14565420Y-12150650D01*
X14565420Y-12169698D02*
X14574943Y-12160174D01*
X14574943Y-12160174D02*
X14593991Y-12150650D01*
X14593991Y-12150650D02*
X14622563Y-12150650D01*
X14622563Y-12150650D02*
X14641610Y-12160174D01*
X14641610Y-12160174D02*
X14651134Y-12179222D01*
X14651134Y-12179222D02*
X14651134Y-12283984D01*
X14651134Y-12179222D02*
X14660658Y-12160174D01*
X14660658Y-12160174D02*
X14679705Y-12150650D01*
X14679705Y-12150650D02*
X14708277Y-12150650D01*
X14708277Y-12150650D02*
X14727324Y-12160174D01*
X14727324Y-12160174D02*
X14736848Y-12179222D01*
X14736848Y-12179222D02*
X14736848Y-12283984D01*
X14832086Y-12283984D02*
X14832086Y-12150650D01*
X14832086Y-12169698D02*
X14841610Y-12160174D01*
X14841610Y-12160174D02*
X14860658Y-12150650D01*
X14860658Y-12150650D02*
X14889229Y-12150650D01*
X14889229Y-12150650D02*
X14908277Y-12160174D01*
X14908277Y-12160174D02*
X14917801Y-12179222D01*
X14917801Y-12179222D02*
X14917801Y-12283984D01*
X14917801Y-12179222D02*
X14927324Y-12160174D01*
X14927324Y-12160174D02*
X14946372Y-12150650D01*
X14946372Y-12150650D02*
X14974943Y-12150650D01*
X14974943Y-12150650D02*
X14993991Y-12160174D01*
X14993991Y-12160174D02*
X15003515Y-12179222D01*
X15003515Y-12179222D02*
X15003515Y-12283984D01*
X15393991Y-12074460D02*
X15222563Y-12331603D01*
X15651134Y-12083984D02*
X15670182Y-12083984D01*
X15670182Y-12083984D02*
X15689229Y-12093508D01*
X15689229Y-12093508D02*
X15698753Y-12103031D01*
X15698753Y-12103031D02*
X15708277Y-12122079D01*
X15708277Y-12122079D02*
X15717801Y-12160174D01*
X15717801Y-12160174D02*
X15717801Y-12207793D01*
X15717801Y-12207793D02*
X15708277Y-12245888D01*
X15708277Y-12245888D02*
X15698753Y-12264936D01*
X15698753Y-12264936D02*
X15689229Y-12274460D01*
X15689229Y-12274460D02*
X15670182Y-12283984D01*
X15670182Y-12283984D02*
X15651134Y-12283984D01*
X15651134Y-12283984D02*
X15632086Y-12274460D01*
X15632086Y-12274460D02*
X15622563Y-12264936D01*
X15622563Y-12264936D02*
X15613039Y-12245888D01*
X15613039Y-12245888D02*
X15603515Y-12207793D01*
X15603515Y-12207793D02*
X15603515Y-12160174D01*
X15603515Y-12160174D02*
X15613039Y-12122079D01*
X15613039Y-12122079D02*
X15622563Y-12103031D01*
X15622563Y-12103031D02*
X15632086Y-12093508D01*
X15632086Y-12093508D02*
X15651134Y-12083984D01*
X15803515Y-12264936D02*
X15813039Y-12274460D01*
X15813039Y-12274460D02*
X15803515Y-12283984D01*
X15803515Y-12283984D02*
X15793991Y-12274460D01*
X15793991Y-12274460D02*
X15803515Y-12264936D01*
X15803515Y-12264936D02*
X15803515Y-12283984D01*
X15936848Y-12083984D02*
X15955896Y-12083984D01*
X15955896Y-12083984D02*
X15974944Y-12093508D01*
X15974944Y-12093508D02*
X15984467Y-12103031D01*
X15984467Y-12103031D02*
X15993991Y-12122079D01*
X15993991Y-12122079D02*
X16003515Y-12160174D01*
X16003515Y-12160174D02*
X16003515Y-12207793D01*
X16003515Y-12207793D02*
X15993991Y-12245888D01*
X15993991Y-12245888D02*
X15984467Y-12264936D01*
X15984467Y-12264936D02*
X15974944Y-12274460D01*
X15974944Y-12274460D02*
X15955896Y-12283984D01*
X15955896Y-12283984D02*
X15936848Y-12283984D01*
X15936848Y-12283984D02*
X15917801Y-12274460D01*
X15917801Y-12274460D02*
X15908277Y-12264936D01*
X15908277Y-12264936D02*
X15898753Y-12245888D01*
X15898753Y-12245888D02*
X15889229Y-12207793D01*
X15889229Y-12207793D02*
X15889229Y-12160174D01*
X15889229Y-12160174D02*
X15898753Y-12122079D01*
X15898753Y-12122079D02*
X15908277Y-12103031D01*
X15908277Y-12103031D02*
X15917801Y-12093508D01*
X15917801Y-12093508D02*
X15936848Y-12083984D01*
X16127325Y-12083984D02*
X16146372Y-12083984D01*
X16146372Y-12083984D02*
X16165420Y-12093508D01*
X16165420Y-12093508D02*
X16174944Y-12103031D01*
X16174944Y-12103031D02*
X16184467Y-12122079D01*
X16184467Y-12122079D02*
X16193991Y-12160174D01*
X16193991Y-12160174D02*
X16193991Y-12207793D01*
X16193991Y-12207793D02*
X16184467Y-12245888D01*
X16184467Y-12245888D02*
X16174944Y-12264936D01*
X16174944Y-12264936D02*
X16165420Y-12274460D01*
X16165420Y-12274460D02*
X16146372Y-12283984D01*
X16146372Y-12283984D02*
X16127325Y-12283984D01*
X16127325Y-12283984D02*
X16108277Y-12274460D01*
X16108277Y-12274460D02*
X16098753Y-12264936D01*
X16098753Y-12264936D02*
X16089229Y-12245888D01*
X16089229Y-12245888D02*
X16079706Y-12207793D01*
X16079706Y-12207793D02*
X16079706Y-12160174D01*
X16079706Y-12160174D02*
X16089229Y-12122079D01*
X16089229Y-12122079D02*
X16098753Y-12103031D01*
X16098753Y-12103031D02*
X16108277Y-12093508D01*
X16108277Y-12093508D02*
X16127325Y-12083984D01*
X16260658Y-12083984D02*
X16393991Y-12083984D01*
X16393991Y-12083984D02*
X16308277Y-12283984D01*
X16479706Y-12283984D02*
X16517801Y-12283984D01*
X16517801Y-12283984D02*
X16536848Y-12274460D01*
X16536848Y-12274460D02*
X16546372Y-12264936D01*
X16546372Y-12264936D02*
X16565420Y-12236365D01*
X16565420Y-12236365D02*
X16574944Y-12198269D01*
X16574944Y-12198269D02*
X16574944Y-12122079D01*
X16574944Y-12122079D02*
X16565420Y-12103031D01*
X16565420Y-12103031D02*
X16555896Y-12093508D01*
X16555896Y-12093508D02*
X16536848Y-12083984D01*
X16536848Y-12083984D02*
X16498753Y-12083984D01*
X16498753Y-12083984D02*
X16479706Y-12093508D01*
X16479706Y-12093508D02*
X16470182Y-12103031D01*
X16470182Y-12103031D02*
X16460658Y-12122079D01*
X16460658Y-12122079D02*
X16460658Y-12169698D01*
X16460658Y-12169698D02*
X16470182Y-12188746D01*
X16470182Y-12188746D02*
X16479706Y-12198269D01*
X16479706Y-12198269D02*
X16498753Y-12207793D01*
X16498753Y-12207793D02*
X16536848Y-12207793D01*
X16536848Y-12207793D02*
X16555896Y-12198269D01*
X16555896Y-12198269D02*
X16565420Y-12188746D01*
X16565420Y-12188746D02*
X16574944Y-12169698D01*
X16651134Y-12083984D02*
X16651134Y-12122079D01*
X16727325Y-12083984D02*
X16727325Y-12122079D01*
X17022563Y-12360174D02*
X17013039Y-12350650D01*
X17013039Y-12350650D02*
X16993991Y-12322079D01*
X16993991Y-12322079D02*
X16984468Y-12303031D01*
X16984468Y-12303031D02*
X16974944Y-12274460D01*
X16974944Y-12274460D02*
X16965420Y-12226841D01*
X16965420Y-12226841D02*
X16965420Y-12188746D01*
X16965420Y-12188746D02*
X16974944Y-12141127D01*
X16974944Y-12141127D02*
X16984468Y-12112555D01*
X16984468Y-12112555D02*
X16993991Y-12093508D01*
X16993991Y-12093508D02*
X17013039Y-12064936D01*
X17013039Y-12064936D02*
X17022563Y-12055412D01*
X17089230Y-12103031D02*
X17098753Y-12093508D01*
X17098753Y-12093508D02*
X17117801Y-12083984D01*
X17117801Y-12083984D02*
X17165420Y-12083984D01*
X17165420Y-12083984D02*
X17184468Y-12093508D01*
X17184468Y-12093508D02*
X17193991Y-12103031D01*
X17193991Y-12103031D02*
X17203515Y-12122079D01*
X17203515Y-12122079D02*
X17203515Y-12141127D01*
X17203515Y-12141127D02*
X17193991Y-12169698D01*
X17193991Y-12169698D02*
X17079706Y-12283984D01*
X17079706Y-12283984D02*
X17203515Y-12283984D01*
X17279706Y-12103031D02*
X17289230Y-12093508D01*
X17289230Y-12093508D02*
X17308277Y-12083984D01*
X17308277Y-12083984D02*
X17355896Y-12083984D01*
X17355896Y-12083984D02*
X17374944Y-12093508D01*
X17374944Y-12093508D02*
X17384468Y-12103031D01*
X17384468Y-12103031D02*
X17393991Y-12122079D01*
X17393991Y-12122079D02*
X17393991Y-12141127D01*
X17393991Y-12141127D02*
X17384468Y-12169698D01*
X17384468Y-12169698D02*
X17270182Y-12283984D01*
X17270182Y-12283984D02*
X17393991Y-12283984D01*
X17632087Y-12283984D02*
X17632087Y-12083984D01*
X17717801Y-12283984D02*
X17717801Y-12179222D01*
X17717801Y-12179222D02*
X17708277Y-12160174D01*
X17708277Y-12160174D02*
X17689230Y-12150650D01*
X17689230Y-12150650D02*
X17660658Y-12150650D01*
X17660658Y-12150650D02*
X17641611Y-12160174D01*
X17641611Y-12160174D02*
X17632087Y-12169698D01*
X17841611Y-12283984D02*
X17822563Y-12274460D01*
X17822563Y-12274460D02*
X17813039Y-12264936D01*
X17813039Y-12264936D02*
X17803515Y-12245888D01*
X17803515Y-12245888D02*
X17803515Y-12188746D01*
X17803515Y-12188746D02*
X17813039Y-12169698D01*
X17813039Y-12169698D02*
X17822563Y-12160174D01*
X17822563Y-12160174D02*
X17841611Y-12150650D01*
X17841611Y-12150650D02*
X17870182Y-12150650D01*
X17870182Y-12150650D02*
X17889230Y-12160174D01*
X17889230Y-12160174D02*
X17898753Y-12169698D01*
X17898753Y-12169698D02*
X17908277Y-12188746D01*
X17908277Y-12188746D02*
X17908277Y-12245888D01*
X17908277Y-12245888D02*
X17898753Y-12264936D01*
X17898753Y-12264936D02*
X17889230Y-12274460D01*
X17889230Y-12274460D02*
X17870182Y-12283984D01*
X17870182Y-12283984D02*
X17841611Y-12283984D01*
X18022563Y-12283984D02*
X18003515Y-12274460D01*
X18003515Y-12274460D02*
X17993992Y-12255412D01*
X17993992Y-12255412D02*
X17993992Y-12083984D01*
X18174944Y-12274460D02*
X18155896Y-12283984D01*
X18155896Y-12283984D02*
X18117801Y-12283984D01*
X18117801Y-12283984D02*
X18098753Y-12274460D01*
X18098753Y-12274460D02*
X18089230Y-12255412D01*
X18089230Y-12255412D02*
X18089230Y-12179222D01*
X18089230Y-12179222D02*
X18098753Y-12160174D01*
X18098753Y-12160174D02*
X18117801Y-12150650D01*
X18117801Y-12150650D02*
X18155896Y-12150650D01*
X18155896Y-12150650D02*
X18174944Y-12160174D01*
X18174944Y-12160174D02*
X18184468Y-12179222D01*
X18184468Y-12179222D02*
X18184468Y-12198269D01*
X18184468Y-12198269D02*
X18089230Y-12217317D01*
X18260658Y-12274460D02*
X18279706Y-12283984D01*
X18279706Y-12283984D02*
X18317801Y-12283984D01*
X18317801Y-12283984D02*
X18336849Y-12274460D01*
X18336849Y-12274460D02*
X18346373Y-12255412D01*
X18346373Y-12255412D02*
X18346373Y-12245888D01*
X18346373Y-12245888D02*
X18336849Y-12226841D01*
X18336849Y-12226841D02*
X18317801Y-12217317D01*
X18317801Y-12217317D02*
X18289230Y-12217317D01*
X18289230Y-12217317D02*
X18270182Y-12207793D01*
X18270182Y-12207793D02*
X18260658Y-12188746D01*
X18260658Y-12188746D02*
X18260658Y-12179222D01*
X18260658Y-12179222D02*
X18270182Y-12160174D01*
X18270182Y-12160174D02*
X18289230Y-12150650D01*
X18289230Y-12150650D02*
X18317801Y-12150650D01*
X18317801Y-12150650D02*
X18336849Y-12160174D01*
X18413039Y-12360174D02*
X18422563Y-12350650D01*
X18422563Y-12350650D02*
X18441611Y-12322079D01*
X18441611Y-12322079D02*
X18451134Y-12303031D01*
X18451134Y-12303031D02*
X18460658Y-12274460D01*
X18460658Y-12274460D02*
X18470182Y-12226841D01*
X18470182Y-12226841D02*
X18470182Y-12188746D01*
X18470182Y-12188746D02*
X18460658Y-12141127D01*
X18460658Y-12141127D02*
X18451134Y-12112555D01*
X18451134Y-12112555D02*
X18441611Y-12093508D01*
X18441611Y-12093508D02*
X18422563Y-12064936D01*
X18422563Y-12064936D02*
X18413039Y-12055412D01*
D13*
X13447500Y-12456500D02*
G75*
G03*
X13447500Y-12456500I-20000J0D01*
G01*
D11*
X13746372Y-12347984D02*
X13765420Y-12347984D01*
X13765420Y-12347984D02*
X13784467Y-12357508D01*
X13784467Y-12357508D02*
X13793991Y-12367031D01*
X13793991Y-12367031D02*
X13803515Y-12386079D01*
X13803515Y-12386079D02*
X13813039Y-12424174D01*
X13813039Y-12424174D02*
X13813039Y-12471793D01*
X13813039Y-12471793D02*
X13803515Y-12509888D01*
X13803515Y-12509888D02*
X13793991Y-12528936D01*
X13793991Y-12528936D02*
X13784467Y-12538460D01*
X13784467Y-12538460D02*
X13765420Y-12547984D01*
X13765420Y-12547984D02*
X13746372Y-12547984D01*
X13746372Y-12547984D02*
X13727324Y-12538460D01*
X13727324Y-12538460D02*
X13717801Y-12528936D01*
X13717801Y-12528936D02*
X13708277Y-12509888D01*
X13708277Y-12509888D02*
X13698753Y-12471793D01*
X13698753Y-12471793D02*
X13698753Y-12424174D01*
X13698753Y-12424174D02*
X13708277Y-12386079D01*
X13708277Y-12386079D02*
X13717801Y-12367031D01*
X13717801Y-12367031D02*
X13727324Y-12357508D01*
X13727324Y-12357508D02*
X13746372Y-12347984D01*
X13898753Y-12528936D02*
X13908277Y-12538460D01*
X13908277Y-12538460D02*
X13898753Y-12547984D01*
X13898753Y-12547984D02*
X13889229Y-12538460D01*
X13889229Y-12538460D02*
X13898753Y-12528936D01*
X13898753Y-12528936D02*
X13898753Y-12547984D01*
X14079705Y-12414650D02*
X14079705Y-12547984D01*
X14032086Y-12338460D02*
X13984467Y-12481317D01*
X13984467Y-12481317D02*
X14108277Y-12481317D01*
X14222562Y-12347984D02*
X14241610Y-12347984D01*
X14241610Y-12347984D02*
X14260658Y-12357508D01*
X14260658Y-12357508D02*
X14270182Y-12367031D01*
X14270182Y-12367031D02*
X14279705Y-12386079D01*
X14279705Y-12386079D02*
X14289229Y-12424174D01*
X14289229Y-12424174D02*
X14289229Y-12471793D01*
X14289229Y-12471793D02*
X14279705Y-12509888D01*
X14279705Y-12509888D02*
X14270182Y-12528936D01*
X14270182Y-12528936D02*
X14260658Y-12538460D01*
X14260658Y-12538460D02*
X14241610Y-12547984D01*
X14241610Y-12547984D02*
X14222562Y-12547984D01*
X14222562Y-12547984D02*
X14203515Y-12538460D01*
X14203515Y-12538460D02*
X14193991Y-12528936D01*
X14193991Y-12528936D02*
X14184467Y-12509888D01*
X14184467Y-12509888D02*
X14174943Y-12471793D01*
X14174943Y-12471793D02*
X14174943Y-12424174D01*
X14174943Y-12424174D02*
X14184467Y-12386079D01*
X14184467Y-12386079D02*
X14193991Y-12367031D01*
X14193991Y-12367031D02*
X14203515Y-12357508D01*
X14203515Y-12357508D02*
X14222562Y-12347984D01*
X14413039Y-12347984D02*
X14432086Y-12347984D01*
X14432086Y-12347984D02*
X14451134Y-12357508D01*
X14451134Y-12357508D02*
X14460658Y-12367031D01*
X14460658Y-12367031D02*
X14470182Y-12386079D01*
X14470182Y-12386079D02*
X14479705Y-12424174D01*
X14479705Y-12424174D02*
X14479705Y-12471793D01*
X14479705Y-12471793D02*
X14470182Y-12509888D01*
X14470182Y-12509888D02*
X14460658Y-12528936D01*
X14460658Y-12528936D02*
X14451134Y-12538460D01*
X14451134Y-12538460D02*
X14432086Y-12547984D01*
X14432086Y-12547984D02*
X14413039Y-12547984D01*
X14413039Y-12547984D02*
X14393991Y-12538460D01*
X14393991Y-12538460D02*
X14384467Y-12528936D01*
X14384467Y-12528936D02*
X14374943Y-12509888D01*
X14374943Y-12509888D02*
X14365420Y-12471793D01*
X14365420Y-12471793D02*
X14365420Y-12424174D01*
X14365420Y-12424174D02*
X14374943Y-12386079D01*
X14374943Y-12386079D02*
X14384467Y-12367031D01*
X14384467Y-12367031D02*
X14393991Y-12357508D01*
X14393991Y-12357508D02*
X14413039Y-12347984D01*
X14565420Y-12547984D02*
X14565420Y-12414650D01*
X14565420Y-12433698D02*
X14574943Y-12424174D01*
X14574943Y-12424174D02*
X14593991Y-12414650D01*
X14593991Y-12414650D02*
X14622563Y-12414650D01*
X14622563Y-12414650D02*
X14641610Y-12424174D01*
X14641610Y-12424174D02*
X14651134Y-12443222D01*
X14651134Y-12443222D02*
X14651134Y-12547984D01*
X14651134Y-12443222D02*
X14660658Y-12424174D01*
X14660658Y-12424174D02*
X14679705Y-12414650D01*
X14679705Y-12414650D02*
X14708277Y-12414650D01*
X14708277Y-12414650D02*
X14727324Y-12424174D01*
X14727324Y-12424174D02*
X14736848Y-12443222D01*
X14736848Y-12443222D02*
X14736848Y-12547984D01*
X14832086Y-12547984D02*
X14832086Y-12414650D01*
X14832086Y-12433698D02*
X14841610Y-12424174D01*
X14841610Y-12424174D02*
X14860658Y-12414650D01*
X14860658Y-12414650D02*
X14889229Y-12414650D01*
X14889229Y-12414650D02*
X14908277Y-12424174D01*
X14908277Y-12424174D02*
X14917801Y-12443222D01*
X14917801Y-12443222D02*
X14917801Y-12547984D01*
X14917801Y-12443222D02*
X14927324Y-12424174D01*
X14927324Y-12424174D02*
X14946372Y-12414650D01*
X14946372Y-12414650D02*
X14974943Y-12414650D01*
X14974943Y-12414650D02*
X14993991Y-12424174D01*
X14993991Y-12424174D02*
X15003515Y-12443222D01*
X15003515Y-12443222D02*
X15003515Y-12547984D01*
X15393991Y-12338460D02*
X15222563Y-12595603D01*
X15651134Y-12347984D02*
X15670182Y-12347984D01*
X15670182Y-12347984D02*
X15689229Y-12357508D01*
X15689229Y-12357508D02*
X15698753Y-12367031D01*
X15698753Y-12367031D02*
X15708277Y-12386079D01*
X15708277Y-12386079D02*
X15717801Y-12424174D01*
X15717801Y-12424174D02*
X15717801Y-12471793D01*
X15717801Y-12471793D02*
X15708277Y-12509888D01*
X15708277Y-12509888D02*
X15698753Y-12528936D01*
X15698753Y-12528936D02*
X15689229Y-12538460D01*
X15689229Y-12538460D02*
X15670182Y-12547984D01*
X15670182Y-12547984D02*
X15651134Y-12547984D01*
X15651134Y-12547984D02*
X15632086Y-12538460D01*
X15632086Y-12538460D02*
X15622563Y-12528936D01*
X15622563Y-12528936D02*
X15613039Y-12509888D01*
X15613039Y-12509888D02*
X15603515Y-12471793D01*
X15603515Y-12471793D02*
X15603515Y-12424174D01*
X15603515Y-12424174D02*
X15613039Y-12386079D01*
X15613039Y-12386079D02*
X15622563Y-12367031D01*
X15622563Y-12367031D02*
X15632086Y-12357508D01*
X15632086Y-12357508D02*
X15651134Y-12347984D01*
X15803515Y-12528936D02*
X15813039Y-12538460D01*
X15813039Y-12538460D02*
X15803515Y-12547984D01*
X15803515Y-12547984D02*
X15793991Y-12538460D01*
X15793991Y-12538460D02*
X15803515Y-12528936D01*
X15803515Y-12528936D02*
X15803515Y-12547984D01*
X15936848Y-12347984D02*
X15955896Y-12347984D01*
X15955896Y-12347984D02*
X15974944Y-12357508D01*
X15974944Y-12357508D02*
X15984467Y-12367031D01*
X15984467Y-12367031D02*
X15993991Y-12386079D01*
X15993991Y-12386079D02*
X16003515Y-12424174D01*
X16003515Y-12424174D02*
X16003515Y-12471793D01*
X16003515Y-12471793D02*
X15993991Y-12509888D01*
X15993991Y-12509888D02*
X15984467Y-12528936D01*
X15984467Y-12528936D02*
X15974944Y-12538460D01*
X15974944Y-12538460D02*
X15955896Y-12547984D01*
X15955896Y-12547984D02*
X15936848Y-12547984D01*
X15936848Y-12547984D02*
X15917801Y-12538460D01*
X15917801Y-12538460D02*
X15908277Y-12528936D01*
X15908277Y-12528936D02*
X15898753Y-12509888D01*
X15898753Y-12509888D02*
X15889229Y-12471793D01*
X15889229Y-12471793D02*
X15889229Y-12424174D01*
X15889229Y-12424174D02*
X15898753Y-12386079D01*
X15898753Y-12386079D02*
X15908277Y-12367031D01*
X15908277Y-12367031D02*
X15917801Y-12357508D01*
X15917801Y-12357508D02*
X15936848Y-12347984D01*
X16193991Y-12547984D02*
X16079706Y-12547984D01*
X16136848Y-12547984D02*
X16136848Y-12347984D01*
X16136848Y-12347984D02*
X16117801Y-12376555D01*
X16117801Y-12376555D02*
X16098753Y-12395603D01*
X16098753Y-12395603D02*
X16079706Y-12405127D01*
X16374944Y-12347984D02*
X16279706Y-12347984D01*
X16279706Y-12347984D02*
X16270182Y-12443222D01*
X16270182Y-12443222D02*
X16279706Y-12433698D01*
X16279706Y-12433698D02*
X16298753Y-12424174D01*
X16298753Y-12424174D02*
X16346372Y-12424174D01*
X16346372Y-12424174D02*
X16365420Y-12433698D01*
X16365420Y-12433698D02*
X16374944Y-12443222D01*
X16374944Y-12443222D02*
X16384467Y-12462269D01*
X16384467Y-12462269D02*
X16384467Y-12509888D01*
X16384467Y-12509888D02*
X16374944Y-12528936D01*
X16374944Y-12528936D02*
X16365420Y-12538460D01*
X16365420Y-12538460D02*
X16346372Y-12547984D01*
X16346372Y-12547984D02*
X16298753Y-12547984D01*
X16298753Y-12547984D02*
X16279706Y-12538460D01*
X16279706Y-12538460D02*
X16270182Y-12528936D01*
X16451134Y-12347984D02*
X16584467Y-12347984D01*
X16584467Y-12347984D02*
X16498753Y-12547984D01*
X16651134Y-12347984D02*
X16651134Y-12386079D01*
X16727325Y-12347984D02*
X16727325Y-12386079D01*
X17022563Y-12624174D02*
X17013039Y-12614650D01*
X17013039Y-12614650D02*
X16993991Y-12586079D01*
X16993991Y-12586079D02*
X16984468Y-12567031D01*
X16984468Y-12567031D02*
X16974944Y-12538460D01*
X16974944Y-12538460D02*
X16965420Y-12490841D01*
X16965420Y-12490841D02*
X16965420Y-12452746D01*
X16965420Y-12452746D02*
X16974944Y-12405127D01*
X16974944Y-12405127D02*
X16984468Y-12376555D01*
X16984468Y-12376555D02*
X16993991Y-12357508D01*
X16993991Y-12357508D02*
X17013039Y-12328936D01*
X17013039Y-12328936D02*
X17022563Y-12319412D01*
X17127325Y-12433698D02*
X17108277Y-12424174D01*
X17108277Y-12424174D02*
X17098753Y-12414650D01*
X17098753Y-12414650D02*
X17089230Y-12395603D01*
X17089230Y-12395603D02*
X17089230Y-12386079D01*
X17089230Y-12386079D02*
X17098753Y-12367031D01*
X17098753Y-12367031D02*
X17108277Y-12357508D01*
X17108277Y-12357508D02*
X17127325Y-12347984D01*
X17127325Y-12347984D02*
X17165420Y-12347984D01*
X17165420Y-12347984D02*
X17184468Y-12357508D01*
X17184468Y-12357508D02*
X17193991Y-12367031D01*
X17193991Y-12367031D02*
X17203515Y-12386079D01*
X17203515Y-12386079D02*
X17203515Y-12395603D01*
X17203515Y-12395603D02*
X17193991Y-12414650D01*
X17193991Y-12414650D02*
X17184468Y-12424174D01*
X17184468Y-12424174D02*
X17165420Y-12433698D01*
X17165420Y-12433698D02*
X17127325Y-12433698D01*
X17127325Y-12433698D02*
X17108277Y-12443222D01*
X17108277Y-12443222D02*
X17098753Y-12452746D01*
X17098753Y-12452746D02*
X17089230Y-12471793D01*
X17089230Y-12471793D02*
X17089230Y-12509888D01*
X17089230Y-12509888D02*
X17098753Y-12528936D01*
X17098753Y-12528936D02*
X17108277Y-12538460D01*
X17108277Y-12538460D02*
X17127325Y-12547984D01*
X17127325Y-12547984D02*
X17165420Y-12547984D01*
X17165420Y-12547984D02*
X17184468Y-12538460D01*
X17184468Y-12538460D02*
X17193991Y-12528936D01*
X17193991Y-12528936D02*
X17203515Y-12509888D01*
X17203515Y-12509888D02*
X17203515Y-12471793D01*
X17203515Y-12471793D02*
X17193991Y-12452746D01*
X17193991Y-12452746D02*
X17184468Y-12443222D01*
X17184468Y-12443222D02*
X17165420Y-12433698D01*
X17279706Y-12367031D02*
X17289230Y-12357508D01*
X17289230Y-12357508D02*
X17308277Y-12347984D01*
X17308277Y-12347984D02*
X17355896Y-12347984D01*
X17355896Y-12347984D02*
X17374944Y-12357508D01*
X17374944Y-12357508D02*
X17384468Y-12367031D01*
X17384468Y-12367031D02*
X17393991Y-12386079D01*
X17393991Y-12386079D02*
X17393991Y-12405127D01*
X17393991Y-12405127D02*
X17384468Y-12433698D01*
X17384468Y-12433698D02*
X17270182Y-12547984D01*
X17270182Y-12547984D02*
X17393991Y-12547984D01*
X17632087Y-12547984D02*
X17632087Y-12347984D01*
X17717801Y-12547984D02*
X17717801Y-12443222D01*
X17717801Y-12443222D02*
X17708277Y-12424174D01*
X17708277Y-12424174D02*
X17689230Y-12414650D01*
X17689230Y-12414650D02*
X17660658Y-12414650D01*
X17660658Y-12414650D02*
X17641611Y-12424174D01*
X17641611Y-12424174D02*
X17632087Y-12433698D01*
X17841611Y-12547984D02*
X17822563Y-12538460D01*
X17822563Y-12538460D02*
X17813039Y-12528936D01*
X17813039Y-12528936D02*
X17803515Y-12509888D01*
X17803515Y-12509888D02*
X17803515Y-12452746D01*
X17803515Y-12452746D02*
X17813039Y-12433698D01*
X17813039Y-12433698D02*
X17822563Y-12424174D01*
X17822563Y-12424174D02*
X17841611Y-12414650D01*
X17841611Y-12414650D02*
X17870182Y-12414650D01*
X17870182Y-12414650D02*
X17889230Y-12424174D01*
X17889230Y-12424174D02*
X17898753Y-12433698D01*
X17898753Y-12433698D02*
X17908277Y-12452746D01*
X17908277Y-12452746D02*
X17908277Y-12509888D01*
X17908277Y-12509888D02*
X17898753Y-12528936D01*
X17898753Y-12528936D02*
X17889230Y-12538460D01*
X17889230Y-12538460D02*
X17870182Y-12547984D01*
X17870182Y-12547984D02*
X17841611Y-12547984D01*
X18022563Y-12547984D02*
X18003515Y-12538460D01*
X18003515Y-12538460D02*
X17993992Y-12519412D01*
X17993992Y-12519412D02*
X17993992Y-12347984D01*
X18174944Y-12538460D02*
X18155896Y-12547984D01*
X18155896Y-12547984D02*
X18117801Y-12547984D01*
X18117801Y-12547984D02*
X18098753Y-12538460D01*
X18098753Y-12538460D02*
X18089230Y-12519412D01*
X18089230Y-12519412D02*
X18089230Y-12443222D01*
X18089230Y-12443222D02*
X18098753Y-12424174D01*
X18098753Y-12424174D02*
X18117801Y-12414650D01*
X18117801Y-12414650D02*
X18155896Y-12414650D01*
X18155896Y-12414650D02*
X18174944Y-12424174D01*
X18174944Y-12424174D02*
X18184468Y-12443222D01*
X18184468Y-12443222D02*
X18184468Y-12462269D01*
X18184468Y-12462269D02*
X18089230Y-12481317D01*
X18260658Y-12538460D02*
X18279706Y-12547984D01*
X18279706Y-12547984D02*
X18317801Y-12547984D01*
X18317801Y-12547984D02*
X18336849Y-12538460D01*
X18336849Y-12538460D02*
X18346373Y-12519412D01*
X18346373Y-12519412D02*
X18346373Y-12509888D01*
X18346373Y-12509888D02*
X18336849Y-12490841D01*
X18336849Y-12490841D02*
X18317801Y-12481317D01*
X18317801Y-12481317D02*
X18289230Y-12481317D01*
X18289230Y-12481317D02*
X18270182Y-12471793D01*
X18270182Y-12471793D02*
X18260658Y-12452746D01*
X18260658Y-12452746D02*
X18260658Y-12443222D01*
X18260658Y-12443222D02*
X18270182Y-12424174D01*
X18270182Y-12424174D02*
X18289230Y-12414650D01*
X18289230Y-12414650D02*
X18317801Y-12414650D01*
X18317801Y-12414650D02*
X18336849Y-12424174D01*
X18413039Y-12624174D02*
X18422563Y-12614650D01*
X18422563Y-12614650D02*
X18441611Y-12586079D01*
X18441611Y-12586079D02*
X18451134Y-12567031D01*
X18451134Y-12567031D02*
X18460658Y-12538460D01*
X18460658Y-12538460D02*
X18470182Y-12490841D01*
X18470182Y-12490841D02*
X18470182Y-12452746D01*
X18470182Y-12452746D02*
X18460658Y-12405127D01*
X18460658Y-12405127D02*
X18451134Y-12376555D01*
X18451134Y-12376555D02*
X18441611Y-12357508D01*
X18441611Y-12357508D02*
X18422563Y-12328936D01*
X18422563Y-12328936D02*
X18413039Y-12319412D01*
D14*
X13415000Y-12688000D02*
X13415000Y-12753000D01*
X13382500Y-12720500D02*
X13447500Y-12720500D01*
D11*
X13746372Y-12611984D02*
X13765420Y-12611984D01*
X13765420Y-12611984D02*
X13784467Y-12621508D01*
X13784467Y-12621508D02*
X13793991Y-12631031D01*
X13793991Y-12631031D02*
X13803515Y-12650079D01*
X13803515Y-12650079D02*
X13813039Y-12688174D01*
X13813039Y-12688174D02*
X13813039Y-12735793D01*
X13813039Y-12735793D02*
X13803515Y-12773888D01*
X13803515Y-12773888D02*
X13793991Y-12792936D01*
X13793991Y-12792936D02*
X13784467Y-12802460D01*
X13784467Y-12802460D02*
X13765420Y-12811984D01*
X13765420Y-12811984D02*
X13746372Y-12811984D01*
X13746372Y-12811984D02*
X13727324Y-12802460D01*
X13727324Y-12802460D02*
X13717801Y-12792936D01*
X13717801Y-12792936D02*
X13708277Y-12773888D01*
X13708277Y-12773888D02*
X13698753Y-12735793D01*
X13698753Y-12735793D02*
X13698753Y-12688174D01*
X13698753Y-12688174D02*
X13708277Y-12650079D01*
X13708277Y-12650079D02*
X13717801Y-12631031D01*
X13717801Y-12631031D02*
X13727324Y-12621508D01*
X13727324Y-12621508D02*
X13746372Y-12611984D01*
X13898753Y-12792936D02*
X13908277Y-12802460D01*
X13908277Y-12802460D02*
X13898753Y-12811984D01*
X13898753Y-12811984D02*
X13889229Y-12802460D01*
X13889229Y-12802460D02*
X13898753Y-12792936D01*
X13898753Y-12792936D02*
X13898753Y-12811984D01*
X14079705Y-12611984D02*
X14041610Y-12611984D01*
X14041610Y-12611984D02*
X14022562Y-12621508D01*
X14022562Y-12621508D02*
X14013039Y-12631031D01*
X14013039Y-12631031D02*
X13993991Y-12659603D01*
X13993991Y-12659603D02*
X13984467Y-12697698D01*
X13984467Y-12697698D02*
X13984467Y-12773888D01*
X13984467Y-12773888D02*
X13993991Y-12792936D01*
X13993991Y-12792936D02*
X14003515Y-12802460D01*
X14003515Y-12802460D02*
X14022562Y-12811984D01*
X14022562Y-12811984D02*
X14060658Y-12811984D01*
X14060658Y-12811984D02*
X14079705Y-12802460D01*
X14079705Y-12802460D02*
X14089229Y-12792936D01*
X14089229Y-12792936D02*
X14098753Y-12773888D01*
X14098753Y-12773888D02*
X14098753Y-12726269D01*
X14098753Y-12726269D02*
X14089229Y-12707222D01*
X14089229Y-12707222D02*
X14079705Y-12697698D01*
X14079705Y-12697698D02*
X14060658Y-12688174D01*
X14060658Y-12688174D02*
X14022562Y-12688174D01*
X14022562Y-12688174D02*
X14003515Y-12697698D01*
X14003515Y-12697698D02*
X13993991Y-12707222D01*
X13993991Y-12707222D02*
X13984467Y-12726269D01*
X14279705Y-12611984D02*
X14184467Y-12611984D01*
X14184467Y-12611984D02*
X14174943Y-12707222D01*
X14174943Y-12707222D02*
X14184467Y-12697698D01*
X14184467Y-12697698D02*
X14203515Y-12688174D01*
X14203515Y-12688174D02*
X14251134Y-12688174D01*
X14251134Y-12688174D02*
X14270182Y-12697698D01*
X14270182Y-12697698D02*
X14279705Y-12707222D01*
X14279705Y-12707222D02*
X14289229Y-12726269D01*
X14289229Y-12726269D02*
X14289229Y-12773888D01*
X14289229Y-12773888D02*
X14279705Y-12792936D01*
X14279705Y-12792936D02*
X14270182Y-12802460D01*
X14270182Y-12802460D02*
X14251134Y-12811984D01*
X14251134Y-12811984D02*
X14203515Y-12811984D01*
X14203515Y-12811984D02*
X14184467Y-12802460D01*
X14184467Y-12802460D02*
X14174943Y-12792936D01*
X14413039Y-12611984D02*
X14432086Y-12611984D01*
X14432086Y-12611984D02*
X14451134Y-12621508D01*
X14451134Y-12621508D02*
X14460658Y-12631031D01*
X14460658Y-12631031D02*
X14470182Y-12650079D01*
X14470182Y-12650079D02*
X14479705Y-12688174D01*
X14479705Y-12688174D02*
X14479705Y-12735793D01*
X14479705Y-12735793D02*
X14470182Y-12773888D01*
X14470182Y-12773888D02*
X14460658Y-12792936D01*
X14460658Y-12792936D02*
X14451134Y-12802460D01*
X14451134Y-12802460D02*
X14432086Y-12811984D01*
X14432086Y-12811984D02*
X14413039Y-12811984D01*
X14413039Y-12811984D02*
X14393991Y-12802460D01*
X14393991Y-12802460D02*
X14384467Y-12792936D01*
X14384467Y-12792936D02*
X14374943Y-12773888D01*
X14374943Y-12773888D02*
X14365420Y-12735793D01*
X14365420Y-12735793D02*
X14365420Y-12688174D01*
X14365420Y-12688174D02*
X14374943Y-12650079D01*
X14374943Y-12650079D02*
X14384467Y-12631031D01*
X14384467Y-12631031D02*
X14393991Y-12621508D01*
X14393991Y-12621508D02*
X14413039Y-12611984D01*
X14565420Y-12811984D02*
X14565420Y-12678650D01*
X14565420Y-12697698D02*
X14574943Y-12688174D01*
X14574943Y-12688174D02*
X14593991Y-12678650D01*
X14593991Y-12678650D02*
X14622563Y-12678650D01*
X14622563Y-12678650D02*
X14641610Y-12688174D01*
X14641610Y-12688174D02*
X14651134Y-12707222D01*
X14651134Y-12707222D02*
X14651134Y-12811984D01*
X14651134Y-12707222D02*
X14660658Y-12688174D01*
X14660658Y-12688174D02*
X14679705Y-12678650D01*
X14679705Y-12678650D02*
X14708277Y-12678650D01*
X14708277Y-12678650D02*
X14727324Y-12688174D01*
X14727324Y-12688174D02*
X14736848Y-12707222D01*
X14736848Y-12707222D02*
X14736848Y-12811984D01*
X14832086Y-12811984D02*
X14832086Y-12678650D01*
X14832086Y-12697698D02*
X14841610Y-12688174D01*
X14841610Y-12688174D02*
X14860658Y-12678650D01*
X14860658Y-12678650D02*
X14889229Y-12678650D01*
X14889229Y-12678650D02*
X14908277Y-12688174D01*
X14908277Y-12688174D02*
X14917801Y-12707222D01*
X14917801Y-12707222D02*
X14917801Y-12811984D01*
X14917801Y-12707222D02*
X14927324Y-12688174D01*
X14927324Y-12688174D02*
X14946372Y-12678650D01*
X14946372Y-12678650D02*
X14974943Y-12678650D01*
X14974943Y-12678650D02*
X14993991Y-12688174D01*
X14993991Y-12688174D02*
X15003515Y-12707222D01*
X15003515Y-12707222D02*
X15003515Y-12811984D01*
X15393991Y-12602460D02*
X15222563Y-12859603D01*
X15651134Y-12611984D02*
X15670182Y-12611984D01*
X15670182Y-12611984D02*
X15689229Y-12621508D01*
X15689229Y-12621508D02*
X15698753Y-12631031D01*
X15698753Y-12631031D02*
X15708277Y-12650079D01*
X15708277Y-12650079D02*
X15717801Y-12688174D01*
X15717801Y-12688174D02*
X15717801Y-12735793D01*
X15717801Y-12735793D02*
X15708277Y-12773888D01*
X15708277Y-12773888D02*
X15698753Y-12792936D01*
X15698753Y-12792936D02*
X15689229Y-12802460D01*
X15689229Y-12802460D02*
X15670182Y-12811984D01*
X15670182Y-12811984D02*
X15651134Y-12811984D01*
X15651134Y-12811984D02*
X15632086Y-12802460D01*
X15632086Y-12802460D02*
X15622563Y-12792936D01*
X15622563Y-12792936D02*
X15613039Y-12773888D01*
X15613039Y-12773888D02*
X15603515Y-12735793D01*
X15603515Y-12735793D02*
X15603515Y-12688174D01*
X15603515Y-12688174D02*
X15613039Y-12650079D01*
X15613039Y-12650079D02*
X15622563Y-12631031D01*
X15622563Y-12631031D02*
X15632086Y-12621508D01*
X15632086Y-12621508D02*
X15651134Y-12611984D01*
X15803515Y-12792936D02*
X15813039Y-12802460D01*
X15813039Y-12802460D02*
X15803515Y-12811984D01*
X15803515Y-12811984D02*
X15793991Y-12802460D01*
X15793991Y-12802460D02*
X15803515Y-12792936D01*
X15803515Y-12792936D02*
X15803515Y-12811984D01*
X15936848Y-12611984D02*
X15955896Y-12611984D01*
X15955896Y-12611984D02*
X15974944Y-12621508D01*
X15974944Y-12621508D02*
X15984467Y-12631031D01*
X15984467Y-12631031D02*
X15993991Y-12650079D01*
X15993991Y-12650079D02*
X16003515Y-12688174D01*
X16003515Y-12688174D02*
X16003515Y-12735793D01*
X16003515Y-12735793D02*
X15993991Y-12773888D01*
X15993991Y-12773888D02*
X15984467Y-12792936D01*
X15984467Y-12792936D02*
X15974944Y-12802460D01*
X15974944Y-12802460D02*
X15955896Y-12811984D01*
X15955896Y-12811984D02*
X15936848Y-12811984D01*
X15936848Y-12811984D02*
X15917801Y-12802460D01*
X15917801Y-12802460D02*
X15908277Y-12792936D01*
X15908277Y-12792936D02*
X15898753Y-12773888D01*
X15898753Y-12773888D02*
X15889229Y-12735793D01*
X15889229Y-12735793D02*
X15889229Y-12688174D01*
X15889229Y-12688174D02*
X15898753Y-12650079D01*
X15898753Y-12650079D02*
X15908277Y-12631031D01*
X15908277Y-12631031D02*
X15917801Y-12621508D01*
X15917801Y-12621508D02*
X15936848Y-12611984D01*
X16079706Y-12631031D02*
X16089229Y-12621508D01*
X16089229Y-12621508D02*
X16108277Y-12611984D01*
X16108277Y-12611984D02*
X16155896Y-12611984D01*
X16155896Y-12611984D02*
X16174944Y-12621508D01*
X16174944Y-12621508D02*
X16184467Y-12631031D01*
X16184467Y-12631031D02*
X16193991Y-12650079D01*
X16193991Y-12650079D02*
X16193991Y-12669127D01*
X16193991Y-12669127D02*
X16184467Y-12697698D01*
X16184467Y-12697698D02*
X16070182Y-12811984D01*
X16070182Y-12811984D02*
X16193991Y-12811984D01*
X16374944Y-12611984D02*
X16279706Y-12611984D01*
X16279706Y-12611984D02*
X16270182Y-12707222D01*
X16270182Y-12707222D02*
X16279706Y-12697698D01*
X16279706Y-12697698D02*
X16298753Y-12688174D01*
X16298753Y-12688174D02*
X16346372Y-12688174D01*
X16346372Y-12688174D02*
X16365420Y-12697698D01*
X16365420Y-12697698D02*
X16374944Y-12707222D01*
X16374944Y-12707222D02*
X16384467Y-12726269D01*
X16384467Y-12726269D02*
X16384467Y-12773888D01*
X16384467Y-12773888D02*
X16374944Y-12792936D01*
X16374944Y-12792936D02*
X16365420Y-12802460D01*
X16365420Y-12802460D02*
X16346372Y-12811984D01*
X16346372Y-12811984D02*
X16298753Y-12811984D01*
X16298753Y-12811984D02*
X16279706Y-12802460D01*
X16279706Y-12802460D02*
X16270182Y-12792936D01*
X16555896Y-12611984D02*
X16517801Y-12611984D01*
X16517801Y-12611984D02*
X16498753Y-12621508D01*
X16498753Y-12621508D02*
X16489229Y-12631031D01*
X16489229Y-12631031D02*
X16470182Y-12659603D01*
X16470182Y-12659603D02*
X16460658Y-12697698D01*
X16460658Y-12697698D02*
X16460658Y-12773888D01*
X16460658Y-12773888D02*
X16470182Y-12792936D01*
X16470182Y-12792936D02*
X16479706Y-12802460D01*
X16479706Y-12802460D02*
X16498753Y-12811984D01*
X16498753Y-12811984D02*
X16536848Y-12811984D01*
X16536848Y-12811984D02*
X16555896Y-12802460D01*
X16555896Y-12802460D02*
X16565420Y-12792936D01*
X16565420Y-12792936D02*
X16574944Y-12773888D01*
X16574944Y-12773888D02*
X16574944Y-12726269D01*
X16574944Y-12726269D02*
X16565420Y-12707222D01*
X16565420Y-12707222D02*
X16555896Y-12697698D01*
X16555896Y-12697698D02*
X16536848Y-12688174D01*
X16536848Y-12688174D02*
X16498753Y-12688174D01*
X16498753Y-12688174D02*
X16479706Y-12697698D01*
X16479706Y-12697698D02*
X16470182Y-12707222D01*
X16470182Y-12707222D02*
X16460658Y-12726269D01*
X16651134Y-12611984D02*
X16651134Y-12650079D01*
X16727325Y-12611984D02*
X16727325Y-12650079D01*
X17022563Y-12888174D02*
X17013039Y-12878650D01*
X17013039Y-12878650D02*
X16993991Y-12850079D01*
X16993991Y-12850079D02*
X16984468Y-12831031D01*
X16984468Y-12831031D02*
X16974944Y-12802460D01*
X16974944Y-12802460D02*
X16965420Y-12754841D01*
X16965420Y-12754841D02*
X16965420Y-12716746D01*
X16965420Y-12716746D02*
X16974944Y-12669127D01*
X16974944Y-12669127D02*
X16984468Y-12640555D01*
X16984468Y-12640555D02*
X16993991Y-12621508D01*
X16993991Y-12621508D02*
X17013039Y-12592936D01*
X17013039Y-12592936D02*
X17022563Y-12583412D01*
X17184468Y-12611984D02*
X17146372Y-12611984D01*
X17146372Y-12611984D02*
X17127325Y-12621508D01*
X17127325Y-12621508D02*
X17117801Y-12631031D01*
X17117801Y-12631031D02*
X17098753Y-12659603D01*
X17098753Y-12659603D02*
X17089230Y-12697698D01*
X17089230Y-12697698D02*
X17089230Y-12773888D01*
X17089230Y-12773888D02*
X17098753Y-12792936D01*
X17098753Y-12792936D02*
X17108277Y-12802460D01*
X17108277Y-12802460D02*
X17127325Y-12811984D01*
X17127325Y-12811984D02*
X17165420Y-12811984D01*
X17165420Y-12811984D02*
X17184468Y-12802460D01*
X17184468Y-12802460D02*
X17193991Y-12792936D01*
X17193991Y-12792936D02*
X17203515Y-12773888D01*
X17203515Y-12773888D02*
X17203515Y-12726269D01*
X17203515Y-12726269D02*
X17193991Y-12707222D01*
X17193991Y-12707222D02*
X17184468Y-12697698D01*
X17184468Y-12697698D02*
X17165420Y-12688174D01*
X17165420Y-12688174D02*
X17127325Y-12688174D01*
X17127325Y-12688174D02*
X17108277Y-12697698D01*
X17108277Y-12697698D02*
X17098753Y-12707222D01*
X17098753Y-12707222D02*
X17089230Y-12726269D01*
X17441611Y-12811984D02*
X17441611Y-12611984D01*
X17527325Y-12811984D02*
X17527325Y-12707222D01*
X17527325Y-12707222D02*
X17517801Y-12688174D01*
X17517801Y-12688174D02*
X17498753Y-12678650D01*
X17498753Y-12678650D02*
X17470182Y-12678650D01*
X17470182Y-12678650D02*
X17451134Y-12688174D01*
X17451134Y-12688174D02*
X17441611Y-12697698D01*
X17651134Y-12811984D02*
X17632087Y-12802460D01*
X17632087Y-12802460D02*
X17622563Y-12792936D01*
X17622563Y-12792936D02*
X17613039Y-12773888D01*
X17613039Y-12773888D02*
X17613039Y-12716746D01*
X17613039Y-12716746D02*
X17622563Y-12697698D01*
X17622563Y-12697698D02*
X17632087Y-12688174D01*
X17632087Y-12688174D02*
X17651134Y-12678650D01*
X17651134Y-12678650D02*
X17679706Y-12678650D01*
X17679706Y-12678650D02*
X17698753Y-12688174D01*
X17698753Y-12688174D02*
X17708277Y-12697698D01*
X17708277Y-12697698D02*
X17717801Y-12716746D01*
X17717801Y-12716746D02*
X17717801Y-12773888D01*
X17717801Y-12773888D02*
X17708277Y-12792936D01*
X17708277Y-12792936D02*
X17698753Y-12802460D01*
X17698753Y-12802460D02*
X17679706Y-12811984D01*
X17679706Y-12811984D02*
X17651134Y-12811984D01*
X17832087Y-12811984D02*
X17813039Y-12802460D01*
X17813039Y-12802460D02*
X17803515Y-12783412D01*
X17803515Y-12783412D02*
X17803515Y-12611984D01*
X17984468Y-12802460D02*
X17965420Y-12811984D01*
X17965420Y-12811984D02*
X17927325Y-12811984D01*
X17927325Y-12811984D02*
X17908277Y-12802460D01*
X17908277Y-12802460D02*
X17898753Y-12783412D01*
X17898753Y-12783412D02*
X17898753Y-12707222D01*
X17898753Y-12707222D02*
X17908277Y-12688174D01*
X17908277Y-12688174D02*
X17927325Y-12678650D01*
X17927325Y-12678650D02*
X17965420Y-12678650D01*
X17965420Y-12678650D02*
X17984468Y-12688174D01*
X17984468Y-12688174D02*
X17993992Y-12707222D01*
X17993992Y-12707222D02*
X17993992Y-12726269D01*
X17993992Y-12726269D02*
X17898753Y-12745317D01*
X18070182Y-12802460D02*
X18089230Y-12811984D01*
X18089230Y-12811984D02*
X18127325Y-12811984D01*
X18127325Y-12811984D02*
X18146373Y-12802460D01*
X18146373Y-12802460D02*
X18155896Y-12783412D01*
X18155896Y-12783412D02*
X18155896Y-12773888D01*
X18155896Y-12773888D02*
X18146373Y-12754841D01*
X18146373Y-12754841D02*
X18127325Y-12745317D01*
X18127325Y-12745317D02*
X18098753Y-12745317D01*
X18098753Y-12745317D02*
X18079706Y-12735793D01*
X18079706Y-12735793D02*
X18070182Y-12716746D01*
X18070182Y-12716746D02*
X18070182Y-12707222D01*
X18070182Y-12707222D02*
X18079706Y-12688174D01*
X18079706Y-12688174D02*
X18098753Y-12678650D01*
X18098753Y-12678650D02*
X18127325Y-12678650D01*
X18127325Y-12678650D02*
X18146373Y-12688174D01*
X18222563Y-12888174D02*
X18232087Y-12878650D01*
X18232087Y-12878650D02*
X18251134Y-12850079D01*
X18251134Y-12850079D02*
X18260658Y-12831031D01*
X18260658Y-12831031D02*
X18270182Y-12802460D01*
X18270182Y-12802460D02*
X18279706Y-12754841D01*
X18279706Y-12754841D02*
X18279706Y-12716746D01*
X18279706Y-12716746D02*
X18270182Y-12669127D01*
X18270182Y-12669127D02*
X18260658Y-12640555D01*
X18260658Y-12640555D02*
X18251134Y-12621508D01*
X18251134Y-12621508D02*
X18232087Y-12592936D01*
X18232087Y-12592936D02*
X18222563Y-12583412D01*
D15*
X13436517Y-13011017D02*
X13436517Y-12957983D01*
X13383483Y-12957983D01*
X13383483Y-13011017D01*
X13436517Y-13011017D01*
D11*
X13746372Y-12875984D02*
X13765420Y-12875984D01*
X13765420Y-12875984D02*
X13784467Y-12885508D01*
X13784467Y-12885508D02*
X13793991Y-12895031D01*
X13793991Y-12895031D02*
X13803515Y-12914079D01*
X13803515Y-12914079D02*
X13813039Y-12952174D01*
X13813039Y-12952174D02*
X13813039Y-12999793D01*
X13813039Y-12999793D02*
X13803515Y-13037888D01*
X13803515Y-13037888D02*
X13793991Y-13056936D01*
X13793991Y-13056936D02*
X13784467Y-13066460D01*
X13784467Y-13066460D02*
X13765420Y-13075984D01*
X13765420Y-13075984D02*
X13746372Y-13075984D01*
X13746372Y-13075984D02*
X13727324Y-13066460D01*
X13727324Y-13066460D02*
X13717801Y-13056936D01*
X13717801Y-13056936D02*
X13708277Y-13037888D01*
X13708277Y-13037888D02*
X13698753Y-12999793D01*
X13698753Y-12999793D02*
X13698753Y-12952174D01*
X13698753Y-12952174D02*
X13708277Y-12914079D01*
X13708277Y-12914079D02*
X13717801Y-12895031D01*
X13717801Y-12895031D02*
X13727324Y-12885508D01*
X13727324Y-12885508D02*
X13746372Y-12875984D01*
X13898753Y-13056936D02*
X13908277Y-13066460D01*
X13908277Y-13066460D02*
X13898753Y-13075984D01*
X13898753Y-13075984D02*
X13889229Y-13066460D01*
X13889229Y-13066460D02*
X13898753Y-13056936D01*
X13898753Y-13056936D02*
X13898753Y-13075984D01*
X13974943Y-12875984D02*
X14108277Y-12875984D01*
X14108277Y-12875984D02*
X14022562Y-13075984D01*
X14279705Y-12875984D02*
X14184467Y-12875984D01*
X14184467Y-12875984D02*
X14174943Y-12971222D01*
X14174943Y-12971222D02*
X14184467Y-12961698D01*
X14184467Y-12961698D02*
X14203515Y-12952174D01*
X14203515Y-12952174D02*
X14251134Y-12952174D01*
X14251134Y-12952174D02*
X14270182Y-12961698D01*
X14270182Y-12961698D02*
X14279705Y-12971222D01*
X14279705Y-12971222D02*
X14289229Y-12990269D01*
X14289229Y-12990269D02*
X14289229Y-13037888D01*
X14289229Y-13037888D02*
X14279705Y-13056936D01*
X14279705Y-13056936D02*
X14270182Y-13066460D01*
X14270182Y-13066460D02*
X14251134Y-13075984D01*
X14251134Y-13075984D02*
X14203515Y-13075984D01*
X14203515Y-13075984D02*
X14184467Y-13066460D01*
X14184467Y-13066460D02*
X14174943Y-13056936D01*
X14413039Y-12875984D02*
X14432086Y-12875984D01*
X14432086Y-12875984D02*
X14451134Y-12885508D01*
X14451134Y-12885508D02*
X14460658Y-12895031D01*
X14460658Y-12895031D02*
X14470182Y-12914079D01*
X14470182Y-12914079D02*
X14479705Y-12952174D01*
X14479705Y-12952174D02*
X14479705Y-12999793D01*
X14479705Y-12999793D02*
X14470182Y-13037888D01*
X14470182Y-13037888D02*
X14460658Y-13056936D01*
X14460658Y-13056936D02*
X14451134Y-13066460D01*
X14451134Y-13066460D02*
X14432086Y-13075984D01*
X14432086Y-13075984D02*
X14413039Y-13075984D01*
X14413039Y-13075984D02*
X14393991Y-13066460D01*
X14393991Y-13066460D02*
X14384467Y-13056936D01*
X14384467Y-13056936D02*
X14374943Y-13037888D01*
X14374943Y-13037888D02*
X14365420Y-12999793D01*
X14365420Y-12999793D02*
X14365420Y-12952174D01*
X14365420Y-12952174D02*
X14374943Y-12914079D01*
X14374943Y-12914079D02*
X14384467Y-12895031D01*
X14384467Y-12895031D02*
X14393991Y-12885508D01*
X14393991Y-12885508D02*
X14413039Y-12875984D01*
X14565420Y-13075984D02*
X14565420Y-12942650D01*
X14565420Y-12961698D02*
X14574943Y-12952174D01*
X14574943Y-12952174D02*
X14593991Y-12942650D01*
X14593991Y-12942650D02*
X14622563Y-12942650D01*
X14622563Y-12942650D02*
X14641610Y-12952174D01*
X14641610Y-12952174D02*
X14651134Y-12971222D01*
X14651134Y-12971222D02*
X14651134Y-13075984D01*
X14651134Y-12971222D02*
X14660658Y-12952174D01*
X14660658Y-12952174D02*
X14679705Y-12942650D01*
X14679705Y-12942650D02*
X14708277Y-12942650D01*
X14708277Y-12942650D02*
X14727324Y-12952174D01*
X14727324Y-12952174D02*
X14736848Y-12971222D01*
X14736848Y-12971222D02*
X14736848Y-13075984D01*
X14832086Y-13075984D02*
X14832086Y-12942650D01*
X14832086Y-12961698D02*
X14841610Y-12952174D01*
X14841610Y-12952174D02*
X14860658Y-12942650D01*
X14860658Y-12942650D02*
X14889229Y-12942650D01*
X14889229Y-12942650D02*
X14908277Y-12952174D01*
X14908277Y-12952174D02*
X14917801Y-12971222D01*
X14917801Y-12971222D02*
X14917801Y-13075984D01*
X14917801Y-12971222D02*
X14927324Y-12952174D01*
X14927324Y-12952174D02*
X14946372Y-12942650D01*
X14946372Y-12942650D02*
X14974943Y-12942650D01*
X14974943Y-12942650D02*
X14993991Y-12952174D01*
X14993991Y-12952174D02*
X15003515Y-12971222D01*
X15003515Y-12971222D02*
X15003515Y-13075984D01*
X15393991Y-12866460D02*
X15222563Y-13123603D01*
X15651134Y-12875984D02*
X15670182Y-12875984D01*
X15670182Y-12875984D02*
X15689229Y-12885508D01*
X15689229Y-12885508D02*
X15698753Y-12895031D01*
X15698753Y-12895031D02*
X15708277Y-12914079D01*
X15708277Y-12914079D02*
X15717801Y-12952174D01*
X15717801Y-12952174D02*
X15717801Y-12999793D01*
X15717801Y-12999793D02*
X15708277Y-13037888D01*
X15708277Y-13037888D02*
X15698753Y-13056936D01*
X15698753Y-13056936D02*
X15689229Y-13066460D01*
X15689229Y-13066460D02*
X15670182Y-13075984D01*
X15670182Y-13075984D02*
X15651134Y-13075984D01*
X15651134Y-13075984D02*
X15632086Y-13066460D01*
X15632086Y-13066460D02*
X15622563Y-13056936D01*
X15622563Y-13056936D02*
X15613039Y-13037888D01*
X15613039Y-13037888D02*
X15603515Y-12999793D01*
X15603515Y-12999793D02*
X15603515Y-12952174D01*
X15603515Y-12952174D02*
X15613039Y-12914079D01*
X15613039Y-12914079D02*
X15622563Y-12895031D01*
X15622563Y-12895031D02*
X15632086Y-12885508D01*
X15632086Y-12885508D02*
X15651134Y-12875984D01*
X15803515Y-13056936D02*
X15813039Y-13066460D01*
X15813039Y-13066460D02*
X15803515Y-13075984D01*
X15803515Y-13075984D02*
X15793991Y-13066460D01*
X15793991Y-13066460D02*
X15803515Y-13056936D01*
X15803515Y-13056936D02*
X15803515Y-13075984D01*
X15936848Y-12875984D02*
X15955896Y-12875984D01*
X15955896Y-12875984D02*
X15974944Y-12885508D01*
X15974944Y-12885508D02*
X15984467Y-12895031D01*
X15984467Y-12895031D02*
X15993991Y-12914079D01*
X15993991Y-12914079D02*
X16003515Y-12952174D01*
X16003515Y-12952174D02*
X16003515Y-12999793D01*
X16003515Y-12999793D02*
X15993991Y-13037888D01*
X15993991Y-13037888D02*
X15984467Y-13056936D01*
X15984467Y-13056936D02*
X15974944Y-13066460D01*
X15974944Y-13066460D02*
X15955896Y-13075984D01*
X15955896Y-13075984D02*
X15936848Y-13075984D01*
X15936848Y-13075984D02*
X15917801Y-13066460D01*
X15917801Y-13066460D02*
X15908277Y-13056936D01*
X15908277Y-13056936D02*
X15898753Y-13037888D01*
X15898753Y-13037888D02*
X15889229Y-12999793D01*
X15889229Y-12999793D02*
X15889229Y-12952174D01*
X15889229Y-12952174D02*
X15898753Y-12914079D01*
X15898753Y-12914079D02*
X15908277Y-12895031D01*
X15908277Y-12895031D02*
X15917801Y-12885508D01*
X15917801Y-12885508D02*
X15936848Y-12875984D01*
X16079706Y-12895031D02*
X16089229Y-12885508D01*
X16089229Y-12885508D02*
X16108277Y-12875984D01*
X16108277Y-12875984D02*
X16155896Y-12875984D01*
X16155896Y-12875984D02*
X16174944Y-12885508D01*
X16174944Y-12885508D02*
X16184467Y-12895031D01*
X16184467Y-12895031D02*
X16193991Y-12914079D01*
X16193991Y-12914079D02*
X16193991Y-12933127D01*
X16193991Y-12933127D02*
X16184467Y-12961698D01*
X16184467Y-12961698D02*
X16070182Y-13075984D01*
X16070182Y-13075984D02*
X16193991Y-13075984D01*
X16289229Y-13075984D02*
X16327325Y-13075984D01*
X16327325Y-13075984D02*
X16346372Y-13066460D01*
X16346372Y-13066460D02*
X16355896Y-13056936D01*
X16355896Y-13056936D02*
X16374944Y-13028365D01*
X16374944Y-13028365D02*
X16384467Y-12990269D01*
X16384467Y-12990269D02*
X16384467Y-12914079D01*
X16384467Y-12914079D02*
X16374944Y-12895031D01*
X16374944Y-12895031D02*
X16365420Y-12885508D01*
X16365420Y-12885508D02*
X16346372Y-12875984D01*
X16346372Y-12875984D02*
X16308277Y-12875984D01*
X16308277Y-12875984D02*
X16289229Y-12885508D01*
X16289229Y-12885508D02*
X16279706Y-12895031D01*
X16279706Y-12895031D02*
X16270182Y-12914079D01*
X16270182Y-12914079D02*
X16270182Y-12961698D01*
X16270182Y-12961698D02*
X16279706Y-12980746D01*
X16279706Y-12980746D02*
X16289229Y-12990269D01*
X16289229Y-12990269D02*
X16308277Y-12999793D01*
X16308277Y-12999793D02*
X16346372Y-12999793D01*
X16346372Y-12999793D02*
X16365420Y-12990269D01*
X16365420Y-12990269D02*
X16374944Y-12980746D01*
X16374944Y-12980746D02*
X16384467Y-12961698D01*
X16565420Y-12875984D02*
X16470182Y-12875984D01*
X16470182Y-12875984D02*
X16460658Y-12971222D01*
X16460658Y-12971222D02*
X16470182Y-12961698D01*
X16470182Y-12961698D02*
X16489229Y-12952174D01*
X16489229Y-12952174D02*
X16536848Y-12952174D01*
X16536848Y-12952174D02*
X16555896Y-12961698D01*
X16555896Y-12961698D02*
X16565420Y-12971222D01*
X16565420Y-12971222D02*
X16574944Y-12990269D01*
X16574944Y-12990269D02*
X16574944Y-13037888D01*
X16574944Y-13037888D02*
X16565420Y-13056936D01*
X16565420Y-13056936D02*
X16555896Y-13066460D01*
X16555896Y-13066460D02*
X16536848Y-13075984D01*
X16536848Y-13075984D02*
X16489229Y-13075984D01*
X16489229Y-13075984D02*
X16470182Y-13066460D01*
X16470182Y-13066460D02*
X16460658Y-13056936D01*
X16651134Y-12875984D02*
X16651134Y-12914079D01*
X16727325Y-12875984D02*
X16727325Y-12914079D01*
X17022563Y-13152174D02*
X17013039Y-13142650D01*
X17013039Y-13142650D02*
X16993991Y-13114079D01*
X16993991Y-13114079D02*
X16984468Y-13095031D01*
X16984468Y-13095031D02*
X16974944Y-13066460D01*
X16974944Y-13066460D02*
X16965420Y-13018841D01*
X16965420Y-13018841D02*
X16965420Y-12980746D01*
X16965420Y-12980746D02*
X16974944Y-12933127D01*
X16974944Y-12933127D02*
X16984468Y-12904555D01*
X16984468Y-12904555D02*
X16993991Y-12885508D01*
X16993991Y-12885508D02*
X17013039Y-12856936D01*
X17013039Y-12856936D02*
X17022563Y-12847412D01*
X17108277Y-13075984D02*
X17146372Y-13075984D01*
X17146372Y-13075984D02*
X17165420Y-13066460D01*
X17165420Y-13066460D02*
X17174944Y-13056936D01*
X17174944Y-13056936D02*
X17193991Y-13028365D01*
X17193991Y-13028365D02*
X17203515Y-12990269D01*
X17203515Y-12990269D02*
X17203515Y-12914079D01*
X17203515Y-12914079D02*
X17193991Y-12895031D01*
X17193991Y-12895031D02*
X17184468Y-12885508D01*
X17184468Y-12885508D02*
X17165420Y-12875984D01*
X17165420Y-12875984D02*
X17127325Y-12875984D01*
X17127325Y-12875984D02*
X17108277Y-12885508D01*
X17108277Y-12885508D02*
X17098753Y-12895031D01*
X17098753Y-12895031D02*
X17089230Y-12914079D01*
X17089230Y-12914079D02*
X17089230Y-12961698D01*
X17089230Y-12961698D02*
X17098753Y-12980746D01*
X17098753Y-12980746D02*
X17108277Y-12990269D01*
X17108277Y-12990269D02*
X17127325Y-12999793D01*
X17127325Y-12999793D02*
X17165420Y-12999793D01*
X17165420Y-12999793D02*
X17184468Y-12990269D01*
X17184468Y-12990269D02*
X17193991Y-12980746D01*
X17193991Y-12980746D02*
X17203515Y-12961698D01*
X17441611Y-13075984D02*
X17441611Y-12875984D01*
X17527325Y-13075984D02*
X17527325Y-12971222D01*
X17527325Y-12971222D02*
X17517801Y-12952174D01*
X17517801Y-12952174D02*
X17498753Y-12942650D01*
X17498753Y-12942650D02*
X17470182Y-12942650D01*
X17470182Y-12942650D02*
X17451134Y-12952174D01*
X17451134Y-12952174D02*
X17441611Y-12961698D01*
X17651134Y-13075984D02*
X17632087Y-13066460D01*
X17632087Y-13066460D02*
X17622563Y-13056936D01*
X17622563Y-13056936D02*
X17613039Y-13037888D01*
X17613039Y-13037888D02*
X17613039Y-12980746D01*
X17613039Y-12980746D02*
X17622563Y-12961698D01*
X17622563Y-12961698D02*
X17632087Y-12952174D01*
X17632087Y-12952174D02*
X17651134Y-12942650D01*
X17651134Y-12942650D02*
X17679706Y-12942650D01*
X17679706Y-12942650D02*
X17698753Y-12952174D01*
X17698753Y-12952174D02*
X17708277Y-12961698D01*
X17708277Y-12961698D02*
X17717801Y-12980746D01*
X17717801Y-12980746D02*
X17717801Y-13037888D01*
X17717801Y-13037888D02*
X17708277Y-13056936D01*
X17708277Y-13056936D02*
X17698753Y-13066460D01*
X17698753Y-13066460D02*
X17679706Y-13075984D01*
X17679706Y-13075984D02*
X17651134Y-13075984D01*
X17832087Y-13075984D02*
X17813039Y-13066460D01*
X17813039Y-13066460D02*
X17803515Y-13047412D01*
X17803515Y-13047412D02*
X17803515Y-12875984D01*
X17984468Y-13066460D02*
X17965420Y-13075984D01*
X17965420Y-13075984D02*
X17927325Y-13075984D01*
X17927325Y-13075984D02*
X17908277Y-13066460D01*
X17908277Y-13066460D02*
X17898753Y-13047412D01*
X17898753Y-13047412D02*
X17898753Y-12971222D01*
X17898753Y-12971222D02*
X17908277Y-12952174D01*
X17908277Y-12952174D02*
X17927325Y-12942650D01*
X17927325Y-12942650D02*
X17965420Y-12942650D01*
X17965420Y-12942650D02*
X17984468Y-12952174D01*
X17984468Y-12952174D02*
X17993992Y-12971222D01*
X17993992Y-12971222D02*
X17993992Y-12990269D01*
X17993992Y-12990269D02*
X17898753Y-13009317D01*
X18070182Y-13066460D02*
X18089230Y-13075984D01*
X18089230Y-13075984D02*
X18127325Y-13075984D01*
X18127325Y-13075984D02*
X18146373Y-13066460D01*
X18146373Y-13066460D02*
X18155896Y-13047412D01*
X18155896Y-13047412D02*
X18155896Y-13037888D01*
X18155896Y-13037888D02*
X18146373Y-13018841D01*
X18146373Y-13018841D02*
X18127325Y-13009317D01*
X18127325Y-13009317D02*
X18098753Y-13009317D01*
X18098753Y-13009317D02*
X18079706Y-12999793D01*
X18079706Y-12999793D02*
X18070182Y-12980746D01*
X18070182Y-12980746D02*
X18070182Y-12971222D01*
X18070182Y-12971222D02*
X18079706Y-12952174D01*
X18079706Y-12952174D02*
X18098753Y-12942650D01*
X18098753Y-12942650D02*
X18127325Y-12942650D01*
X18127325Y-12942650D02*
X18146373Y-12952174D01*
X18222563Y-13152174D02*
X18232087Y-13142650D01*
X18232087Y-13142650D02*
X18251134Y-13114079D01*
X18251134Y-13114079D02*
X18260658Y-13095031D01*
X18260658Y-13095031D02*
X18270182Y-13066460D01*
X18270182Y-13066460D02*
X18279706Y-13018841D01*
X18279706Y-13018841D02*
X18279706Y-12980746D01*
X18279706Y-12980746D02*
X18270182Y-12933127D01*
X18270182Y-12933127D02*
X18260658Y-12904555D01*
X18260658Y-12904555D02*
X18251134Y-12885508D01*
X18251134Y-12885508D02*
X18232087Y-12856936D01*
X18232087Y-12856936D02*
X18222563Y-12847412D01*
D16*
X13397500Y-13298500D02*
X13447500Y-13248500D01*
X13397500Y-13198500D01*
X13347500Y-13248500D01*
X13397500Y-13298500D01*
D11*
X13813039Y-13339984D02*
X13698753Y-13339984D01*
X13755896Y-13339984D02*
X13755896Y-13139984D01*
X13755896Y-13139984D02*
X13736848Y-13168555D01*
X13736848Y-13168555D02*
X13717801Y-13187603D01*
X13717801Y-13187603D02*
X13698753Y-13197127D01*
X13898753Y-13320936D02*
X13908277Y-13330460D01*
X13908277Y-13330460D02*
X13898753Y-13339984D01*
X13898753Y-13339984D02*
X13889229Y-13330460D01*
X13889229Y-13330460D02*
X13898753Y-13320936D01*
X13898753Y-13320936D02*
X13898753Y-13339984D01*
X14032086Y-13139984D02*
X14051134Y-13139984D01*
X14051134Y-13139984D02*
X14070182Y-13149508D01*
X14070182Y-13149508D02*
X14079705Y-13159031D01*
X14079705Y-13159031D02*
X14089229Y-13178079D01*
X14089229Y-13178079D02*
X14098753Y-13216174D01*
X14098753Y-13216174D02*
X14098753Y-13263793D01*
X14098753Y-13263793D02*
X14089229Y-13301888D01*
X14089229Y-13301888D02*
X14079705Y-13320936D01*
X14079705Y-13320936D02*
X14070182Y-13330460D01*
X14070182Y-13330460D02*
X14051134Y-13339984D01*
X14051134Y-13339984D02*
X14032086Y-13339984D01*
X14032086Y-13339984D02*
X14013039Y-13330460D01*
X14013039Y-13330460D02*
X14003515Y-13320936D01*
X14003515Y-13320936D02*
X13993991Y-13301888D01*
X13993991Y-13301888D02*
X13984467Y-13263793D01*
X13984467Y-13263793D02*
X13984467Y-13216174D01*
X13984467Y-13216174D02*
X13993991Y-13178079D01*
X13993991Y-13178079D02*
X14003515Y-13159031D01*
X14003515Y-13159031D02*
X14013039Y-13149508D01*
X14013039Y-13149508D02*
X14032086Y-13139984D01*
X14222562Y-13139984D02*
X14241610Y-13139984D01*
X14241610Y-13139984D02*
X14260658Y-13149508D01*
X14260658Y-13149508D02*
X14270182Y-13159031D01*
X14270182Y-13159031D02*
X14279705Y-13178079D01*
X14279705Y-13178079D02*
X14289229Y-13216174D01*
X14289229Y-13216174D02*
X14289229Y-13263793D01*
X14289229Y-13263793D02*
X14279705Y-13301888D01*
X14279705Y-13301888D02*
X14270182Y-13320936D01*
X14270182Y-13320936D02*
X14260658Y-13330460D01*
X14260658Y-13330460D02*
X14241610Y-13339984D01*
X14241610Y-13339984D02*
X14222562Y-13339984D01*
X14222562Y-13339984D02*
X14203515Y-13330460D01*
X14203515Y-13330460D02*
X14193991Y-13320936D01*
X14193991Y-13320936D02*
X14184467Y-13301888D01*
X14184467Y-13301888D02*
X14174943Y-13263793D01*
X14174943Y-13263793D02*
X14174943Y-13216174D01*
X14174943Y-13216174D02*
X14184467Y-13178079D01*
X14184467Y-13178079D02*
X14193991Y-13159031D01*
X14193991Y-13159031D02*
X14203515Y-13149508D01*
X14203515Y-13149508D02*
X14222562Y-13139984D01*
X14413039Y-13139984D02*
X14432086Y-13139984D01*
X14432086Y-13139984D02*
X14451134Y-13149508D01*
X14451134Y-13149508D02*
X14460658Y-13159031D01*
X14460658Y-13159031D02*
X14470182Y-13178079D01*
X14470182Y-13178079D02*
X14479705Y-13216174D01*
X14479705Y-13216174D02*
X14479705Y-13263793D01*
X14479705Y-13263793D02*
X14470182Y-13301888D01*
X14470182Y-13301888D02*
X14460658Y-13320936D01*
X14460658Y-13320936D02*
X14451134Y-13330460D01*
X14451134Y-13330460D02*
X14432086Y-13339984D01*
X14432086Y-13339984D02*
X14413039Y-13339984D01*
X14413039Y-13339984D02*
X14393991Y-13330460D01*
X14393991Y-13330460D02*
X14384467Y-13320936D01*
X14384467Y-13320936D02*
X14374943Y-13301888D01*
X14374943Y-13301888D02*
X14365420Y-13263793D01*
X14365420Y-13263793D02*
X14365420Y-13216174D01*
X14365420Y-13216174D02*
X14374943Y-13178079D01*
X14374943Y-13178079D02*
X14384467Y-13159031D01*
X14384467Y-13159031D02*
X14393991Y-13149508D01*
X14393991Y-13149508D02*
X14413039Y-13139984D01*
X14565420Y-13339984D02*
X14565420Y-13206650D01*
X14565420Y-13225698D02*
X14574943Y-13216174D01*
X14574943Y-13216174D02*
X14593991Y-13206650D01*
X14593991Y-13206650D02*
X14622563Y-13206650D01*
X14622563Y-13206650D02*
X14641610Y-13216174D01*
X14641610Y-13216174D02*
X14651134Y-13235222D01*
X14651134Y-13235222D02*
X14651134Y-13339984D01*
X14651134Y-13235222D02*
X14660658Y-13216174D01*
X14660658Y-13216174D02*
X14679705Y-13206650D01*
X14679705Y-13206650D02*
X14708277Y-13206650D01*
X14708277Y-13206650D02*
X14727324Y-13216174D01*
X14727324Y-13216174D02*
X14736848Y-13235222D01*
X14736848Y-13235222D02*
X14736848Y-13339984D01*
X14832086Y-13339984D02*
X14832086Y-13206650D01*
X14832086Y-13225698D02*
X14841610Y-13216174D01*
X14841610Y-13216174D02*
X14860658Y-13206650D01*
X14860658Y-13206650D02*
X14889229Y-13206650D01*
X14889229Y-13206650D02*
X14908277Y-13216174D01*
X14908277Y-13216174D02*
X14917801Y-13235222D01*
X14917801Y-13235222D02*
X14917801Y-13339984D01*
X14917801Y-13235222D02*
X14927324Y-13216174D01*
X14927324Y-13216174D02*
X14946372Y-13206650D01*
X14946372Y-13206650D02*
X14974943Y-13206650D01*
X14974943Y-13206650D02*
X14993991Y-13216174D01*
X14993991Y-13216174D02*
X15003515Y-13235222D01*
X15003515Y-13235222D02*
X15003515Y-13339984D01*
X15393991Y-13130460D02*
X15222563Y-13387603D01*
X15651134Y-13139984D02*
X15670182Y-13139984D01*
X15670182Y-13139984D02*
X15689229Y-13149508D01*
X15689229Y-13149508D02*
X15698753Y-13159031D01*
X15698753Y-13159031D02*
X15708277Y-13178079D01*
X15708277Y-13178079D02*
X15717801Y-13216174D01*
X15717801Y-13216174D02*
X15717801Y-13263793D01*
X15717801Y-13263793D02*
X15708277Y-13301888D01*
X15708277Y-13301888D02*
X15698753Y-13320936D01*
X15698753Y-13320936D02*
X15689229Y-13330460D01*
X15689229Y-13330460D02*
X15670182Y-13339984D01*
X15670182Y-13339984D02*
X15651134Y-13339984D01*
X15651134Y-13339984D02*
X15632086Y-13330460D01*
X15632086Y-13330460D02*
X15622563Y-13320936D01*
X15622563Y-13320936D02*
X15613039Y-13301888D01*
X15613039Y-13301888D02*
X15603515Y-13263793D01*
X15603515Y-13263793D02*
X15603515Y-13216174D01*
X15603515Y-13216174D02*
X15613039Y-13178079D01*
X15613039Y-13178079D02*
X15622563Y-13159031D01*
X15622563Y-13159031D02*
X15632086Y-13149508D01*
X15632086Y-13149508D02*
X15651134Y-13139984D01*
X15803515Y-13320936D02*
X15813039Y-13330460D01*
X15813039Y-13330460D02*
X15803515Y-13339984D01*
X15803515Y-13339984D02*
X15793991Y-13330460D01*
X15793991Y-13330460D02*
X15803515Y-13320936D01*
X15803515Y-13320936D02*
X15803515Y-13339984D01*
X15936848Y-13139984D02*
X15955896Y-13139984D01*
X15955896Y-13139984D02*
X15974944Y-13149508D01*
X15974944Y-13149508D02*
X15984467Y-13159031D01*
X15984467Y-13159031D02*
X15993991Y-13178079D01*
X15993991Y-13178079D02*
X16003515Y-13216174D01*
X16003515Y-13216174D02*
X16003515Y-13263793D01*
X16003515Y-13263793D02*
X15993991Y-13301888D01*
X15993991Y-13301888D02*
X15984467Y-13320936D01*
X15984467Y-13320936D02*
X15974944Y-13330460D01*
X15974944Y-13330460D02*
X15955896Y-13339984D01*
X15955896Y-13339984D02*
X15936848Y-13339984D01*
X15936848Y-13339984D02*
X15917801Y-13330460D01*
X15917801Y-13330460D02*
X15908277Y-13320936D01*
X15908277Y-13320936D02*
X15898753Y-13301888D01*
X15898753Y-13301888D02*
X15889229Y-13263793D01*
X15889229Y-13263793D02*
X15889229Y-13216174D01*
X15889229Y-13216174D02*
X15898753Y-13178079D01*
X15898753Y-13178079D02*
X15908277Y-13159031D01*
X15908277Y-13159031D02*
X15917801Y-13149508D01*
X15917801Y-13149508D02*
X15936848Y-13139984D01*
X16070182Y-13139984D02*
X16193991Y-13139984D01*
X16193991Y-13139984D02*
X16127325Y-13216174D01*
X16127325Y-13216174D02*
X16155896Y-13216174D01*
X16155896Y-13216174D02*
X16174944Y-13225698D01*
X16174944Y-13225698D02*
X16184467Y-13235222D01*
X16184467Y-13235222D02*
X16193991Y-13254269D01*
X16193991Y-13254269D02*
X16193991Y-13301888D01*
X16193991Y-13301888D02*
X16184467Y-13320936D01*
X16184467Y-13320936D02*
X16174944Y-13330460D01*
X16174944Y-13330460D02*
X16155896Y-13339984D01*
X16155896Y-13339984D02*
X16098753Y-13339984D01*
X16098753Y-13339984D02*
X16079706Y-13330460D01*
X16079706Y-13330460D02*
X16070182Y-13320936D01*
X16289229Y-13339984D02*
X16327325Y-13339984D01*
X16327325Y-13339984D02*
X16346372Y-13330460D01*
X16346372Y-13330460D02*
X16355896Y-13320936D01*
X16355896Y-13320936D02*
X16374944Y-13292365D01*
X16374944Y-13292365D02*
X16384467Y-13254269D01*
X16384467Y-13254269D02*
X16384467Y-13178079D01*
X16384467Y-13178079D02*
X16374944Y-13159031D01*
X16374944Y-13159031D02*
X16365420Y-13149508D01*
X16365420Y-13149508D02*
X16346372Y-13139984D01*
X16346372Y-13139984D02*
X16308277Y-13139984D01*
X16308277Y-13139984D02*
X16289229Y-13149508D01*
X16289229Y-13149508D02*
X16279706Y-13159031D01*
X16279706Y-13159031D02*
X16270182Y-13178079D01*
X16270182Y-13178079D02*
X16270182Y-13225698D01*
X16270182Y-13225698D02*
X16279706Y-13244746D01*
X16279706Y-13244746D02*
X16289229Y-13254269D01*
X16289229Y-13254269D02*
X16308277Y-13263793D01*
X16308277Y-13263793D02*
X16346372Y-13263793D01*
X16346372Y-13263793D02*
X16365420Y-13254269D01*
X16365420Y-13254269D02*
X16374944Y-13244746D01*
X16374944Y-13244746D02*
X16384467Y-13225698D01*
X16555896Y-13206650D02*
X16555896Y-13339984D01*
X16508277Y-13130460D02*
X16460658Y-13273317D01*
X16460658Y-13273317D02*
X16584467Y-13273317D01*
X16651134Y-13139984D02*
X16651134Y-13178079D01*
X16727325Y-13139984D02*
X16727325Y-13178079D01*
X17022563Y-13416174D02*
X17013039Y-13406650D01*
X17013039Y-13406650D02*
X16993991Y-13378079D01*
X16993991Y-13378079D02*
X16984468Y-13359031D01*
X16984468Y-13359031D02*
X16974944Y-13330460D01*
X16974944Y-13330460D02*
X16965420Y-13282841D01*
X16965420Y-13282841D02*
X16965420Y-13244746D01*
X16965420Y-13244746D02*
X16974944Y-13197127D01*
X16974944Y-13197127D02*
X16984468Y-13168555D01*
X16984468Y-13168555D02*
X16993991Y-13149508D01*
X16993991Y-13149508D02*
X17013039Y-13120936D01*
X17013039Y-13120936D02*
X17022563Y-13111412D01*
X17079706Y-13139984D02*
X17203515Y-13139984D01*
X17203515Y-13139984D02*
X17136849Y-13216174D01*
X17136849Y-13216174D02*
X17165420Y-13216174D01*
X17165420Y-13216174D02*
X17184468Y-13225698D01*
X17184468Y-13225698D02*
X17193991Y-13235222D01*
X17193991Y-13235222D02*
X17203515Y-13254269D01*
X17203515Y-13254269D02*
X17203515Y-13301888D01*
X17203515Y-13301888D02*
X17193991Y-13320936D01*
X17193991Y-13320936D02*
X17184468Y-13330460D01*
X17184468Y-13330460D02*
X17165420Y-13339984D01*
X17165420Y-13339984D02*
X17108277Y-13339984D01*
X17108277Y-13339984D02*
X17089230Y-13330460D01*
X17089230Y-13330460D02*
X17079706Y-13320936D01*
X17441611Y-13339984D02*
X17441611Y-13139984D01*
X17527325Y-13339984D02*
X17527325Y-13235222D01*
X17527325Y-13235222D02*
X17517801Y-13216174D01*
X17517801Y-13216174D02*
X17498753Y-13206650D01*
X17498753Y-13206650D02*
X17470182Y-13206650D01*
X17470182Y-13206650D02*
X17451134Y-13216174D01*
X17451134Y-13216174D02*
X17441611Y-13225698D01*
X17651134Y-13339984D02*
X17632087Y-13330460D01*
X17632087Y-13330460D02*
X17622563Y-13320936D01*
X17622563Y-13320936D02*
X17613039Y-13301888D01*
X17613039Y-13301888D02*
X17613039Y-13244746D01*
X17613039Y-13244746D02*
X17622563Y-13225698D01*
X17622563Y-13225698D02*
X17632087Y-13216174D01*
X17632087Y-13216174D02*
X17651134Y-13206650D01*
X17651134Y-13206650D02*
X17679706Y-13206650D01*
X17679706Y-13206650D02*
X17698753Y-13216174D01*
X17698753Y-13216174D02*
X17708277Y-13225698D01*
X17708277Y-13225698D02*
X17717801Y-13244746D01*
X17717801Y-13244746D02*
X17717801Y-13301888D01*
X17717801Y-13301888D02*
X17708277Y-13320936D01*
X17708277Y-13320936D02*
X17698753Y-13330460D01*
X17698753Y-13330460D02*
X17679706Y-13339984D01*
X17679706Y-13339984D02*
X17651134Y-13339984D01*
X17832087Y-13339984D02*
X17813039Y-13330460D01*
X17813039Y-13330460D02*
X17803515Y-13311412D01*
X17803515Y-13311412D02*
X17803515Y-13139984D01*
X17984468Y-13330460D02*
X17965420Y-13339984D01*
X17965420Y-13339984D02*
X17927325Y-13339984D01*
X17927325Y-13339984D02*
X17908277Y-13330460D01*
X17908277Y-13330460D02*
X17898753Y-13311412D01*
X17898753Y-13311412D02*
X17898753Y-13235222D01*
X17898753Y-13235222D02*
X17908277Y-13216174D01*
X17908277Y-13216174D02*
X17927325Y-13206650D01*
X17927325Y-13206650D02*
X17965420Y-13206650D01*
X17965420Y-13206650D02*
X17984468Y-13216174D01*
X17984468Y-13216174D02*
X17993992Y-13235222D01*
X17993992Y-13235222D02*
X17993992Y-13254269D01*
X17993992Y-13254269D02*
X17898753Y-13273317D01*
X18070182Y-13330460D02*
X18089230Y-13339984D01*
X18089230Y-13339984D02*
X18127325Y-13339984D01*
X18127325Y-13339984D02*
X18146373Y-13330460D01*
X18146373Y-13330460D02*
X18155896Y-13311412D01*
X18155896Y-13311412D02*
X18155896Y-13301888D01*
X18155896Y-13301888D02*
X18146373Y-13282841D01*
X18146373Y-13282841D02*
X18127325Y-13273317D01*
X18127325Y-13273317D02*
X18098753Y-13273317D01*
X18098753Y-13273317D02*
X18079706Y-13263793D01*
X18079706Y-13263793D02*
X18070182Y-13244746D01*
X18070182Y-13244746D02*
X18070182Y-13235222D01*
X18070182Y-13235222D02*
X18079706Y-13216174D01*
X18079706Y-13216174D02*
X18098753Y-13206650D01*
X18098753Y-13206650D02*
X18127325Y-13206650D01*
X18127325Y-13206650D02*
X18146373Y-13216174D01*
X18222563Y-13416174D02*
X18232087Y-13406650D01*
X18232087Y-13406650D02*
X18251134Y-13378079D01*
X18251134Y-13378079D02*
X18260658Y-13359031D01*
X18260658Y-13359031D02*
X18270182Y-13330460D01*
X18270182Y-13330460D02*
X18279706Y-13282841D01*
X18279706Y-13282841D02*
X18279706Y-13244746D01*
X18279706Y-13244746D02*
X18270182Y-13197127D01*
X18270182Y-13197127D02*
X18260658Y-13168555D01*
X18260658Y-13168555D02*
X18251134Y-13149508D01*
X18251134Y-13149508D02*
X18232087Y-13120936D01*
X18232087Y-13120936D02*
X18222563Y-13111412D01*
D17*
X13337500Y-13457500D02*
X13447500Y-13567500D01*
X13447500Y-13457500D02*
X13337500Y-13567500D01*
X13447500Y-13512500D02*
G75*
G03*
X13447500Y-13512500I-55000J0D01*
G01*
D11*
X13813039Y-13603984D02*
X13698753Y-13603984D01*
X13755896Y-13603984D02*
X13755896Y-13403984D01*
X13755896Y-13403984D02*
X13736848Y-13432555D01*
X13736848Y-13432555D02*
X13717801Y-13451603D01*
X13717801Y-13451603D02*
X13698753Y-13461127D01*
X13898753Y-13584936D02*
X13908277Y-13594460D01*
X13908277Y-13594460D02*
X13898753Y-13603984D01*
X13898753Y-13603984D02*
X13889229Y-13594460D01*
X13889229Y-13594460D02*
X13898753Y-13584936D01*
X13898753Y-13584936D02*
X13898753Y-13603984D01*
X14098753Y-13603984D02*
X13984467Y-13603984D01*
X14041610Y-13603984D02*
X14041610Y-13403984D01*
X14041610Y-13403984D02*
X14022562Y-13432555D01*
X14022562Y-13432555D02*
X14003515Y-13451603D01*
X14003515Y-13451603D02*
X13984467Y-13461127D01*
X14222562Y-13403984D02*
X14241610Y-13403984D01*
X14241610Y-13403984D02*
X14260658Y-13413508D01*
X14260658Y-13413508D02*
X14270182Y-13423031D01*
X14270182Y-13423031D02*
X14279705Y-13442079D01*
X14279705Y-13442079D02*
X14289229Y-13480174D01*
X14289229Y-13480174D02*
X14289229Y-13527793D01*
X14289229Y-13527793D02*
X14279705Y-13565888D01*
X14279705Y-13565888D02*
X14270182Y-13584936D01*
X14270182Y-13584936D02*
X14260658Y-13594460D01*
X14260658Y-13594460D02*
X14241610Y-13603984D01*
X14241610Y-13603984D02*
X14222562Y-13603984D01*
X14222562Y-13603984D02*
X14203515Y-13594460D01*
X14203515Y-13594460D02*
X14193991Y-13584936D01*
X14193991Y-13584936D02*
X14184467Y-13565888D01*
X14184467Y-13565888D02*
X14174943Y-13527793D01*
X14174943Y-13527793D02*
X14174943Y-13480174D01*
X14174943Y-13480174D02*
X14184467Y-13442079D01*
X14184467Y-13442079D02*
X14193991Y-13423031D01*
X14193991Y-13423031D02*
X14203515Y-13413508D01*
X14203515Y-13413508D02*
X14222562Y-13403984D01*
X14413039Y-13403984D02*
X14432086Y-13403984D01*
X14432086Y-13403984D02*
X14451134Y-13413508D01*
X14451134Y-13413508D02*
X14460658Y-13423031D01*
X14460658Y-13423031D02*
X14470182Y-13442079D01*
X14470182Y-13442079D02*
X14479705Y-13480174D01*
X14479705Y-13480174D02*
X14479705Y-13527793D01*
X14479705Y-13527793D02*
X14470182Y-13565888D01*
X14470182Y-13565888D02*
X14460658Y-13584936D01*
X14460658Y-13584936D02*
X14451134Y-13594460D01*
X14451134Y-13594460D02*
X14432086Y-13603984D01*
X14432086Y-13603984D02*
X14413039Y-13603984D01*
X14413039Y-13603984D02*
X14393991Y-13594460D01*
X14393991Y-13594460D02*
X14384467Y-13584936D01*
X14384467Y-13584936D02*
X14374943Y-13565888D01*
X14374943Y-13565888D02*
X14365420Y-13527793D01*
X14365420Y-13527793D02*
X14365420Y-13480174D01*
X14365420Y-13480174D02*
X14374943Y-13442079D01*
X14374943Y-13442079D02*
X14384467Y-13423031D01*
X14384467Y-13423031D02*
X14393991Y-13413508D01*
X14393991Y-13413508D02*
X14413039Y-13403984D01*
X14565420Y-13603984D02*
X14565420Y-13470650D01*
X14565420Y-13489698D02*
X14574943Y-13480174D01*
X14574943Y-13480174D02*
X14593991Y-13470650D01*
X14593991Y-13470650D02*
X14622563Y-13470650D01*
X14622563Y-13470650D02*
X14641610Y-13480174D01*
X14641610Y-13480174D02*
X14651134Y-13499222D01*
X14651134Y-13499222D02*
X14651134Y-13603984D01*
X14651134Y-13499222D02*
X14660658Y-13480174D01*
X14660658Y-13480174D02*
X14679705Y-13470650D01*
X14679705Y-13470650D02*
X14708277Y-13470650D01*
X14708277Y-13470650D02*
X14727324Y-13480174D01*
X14727324Y-13480174D02*
X14736848Y-13499222D01*
X14736848Y-13499222D02*
X14736848Y-13603984D01*
X14832086Y-13603984D02*
X14832086Y-13470650D01*
X14832086Y-13489698D02*
X14841610Y-13480174D01*
X14841610Y-13480174D02*
X14860658Y-13470650D01*
X14860658Y-13470650D02*
X14889229Y-13470650D01*
X14889229Y-13470650D02*
X14908277Y-13480174D01*
X14908277Y-13480174D02*
X14917801Y-13499222D01*
X14917801Y-13499222D02*
X14917801Y-13603984D01*
X14917801Y-13499222D02*
X14927324Y-13480174D01*
X14927324Y-13480174D02*
X14946372Y-13470650D01*
X14946372Y-13470650D02*
X14974943Y-13470650D01*
X14974943Y-13470650D02*
X14993991Y-13480174D01*
X14993991Y-13480174D02*
X15003515Y-13499222D01*
X15003515Y-13499222D02*
X15003515Y-13603984D01*
X15393991Y-13394460D02*
X15222563Y-13651603D01*
X15651134Y-13403984D02*
X15670182Y-13403984D01*
X15670182Y-13403984D02*
X15689229Y-13413508D01*
X15689229Y-13413508D02*
X15698753Y-13423031D01*
X15698753Y-13423031D02*
X15708277Y-13442079D01*
X15708277Y-13442079D02*
X15717801Y-13480174D01*
X15717801Y-13480174D02*
X15717801Y-13527793D01*
X15717801Y-13527793D02*
X15708277Y-13565888D01*
X15708277Y-13565888D02*
X15698753Y-13584936D01*
X15698753Y-13584936D02*
X15689229Y-13594460D01*
X15689229Y-13594460D02*
X15670182Y-13603984D01*
X15670182Y-13603984D02*
X15651134Y-13603984D01*
X15651134Y-13603984D02*
X15632086Y-13594460D01*
X15632086Y-13594460D02*
X15622563Y-13584936D01*
X15622563Y-13584936D02*
X15613039Y-13565888D01*
X15613039Y-13565888D02*
X15603515Y-13527793D01*
X15603515Y-13527793D02*
X15603515Y-13480174D01*
X15603515Y-13480174D02*
X15613039Y-13442079D01*
X15613039Y-13442079D02*
X15622563Y-13423031D01*
X15622563Y-13423031D02*
X15632086Y-13413508D01*
X15632086Y-13413508D02*
X15651134Y-13403984D01*
X15803515Y-13584936D02*
X15813039Y-13594460D01*
X15813039Y-13594460D02*
X15803515Y-13603984D01*
X15803515Y-13603984D02*
X15793991Y-13594460D01*
X15793991Y-13594460D02*
X15803515Y-13584936D01*
X15803515Y-13584936D02*
X15803515Y-13603984D01*
X15936848Y-13403984D02*
X15955896Y-13403984D01*
X15955896Y-13403984D02*
X15974944Y-13413508D01*
X15974944Y-13413508D02*
X15984467Y-13423031D01*
X15984467Y-13423031D02*
X15993991Y-13442079D01*
X15993991Y-13442079D02*
X16003515Y-13480174D01*
X16003515Y-13480174D02*
X16003515Y-13527793D01*
X16003515Y-13527793D02*
X15993991Y-13565888D01*
X15993991Y-13565888D02*
X15984467Y-13584936D01*
X15984467Y-13584936D02*
X15974944Y-13594460D01*
X15974944Y-13594460D02*
X15955896Y-13603984D01*
X15955896Y-13603984D02*
X15936848Y-13603984D01*
X15936848Y-13603984D02*
X15917801Y-13594460D01*
X15917801Y-13594460D02*
X15908277Y-13584936D01*
X15908277Y-13584936D02*
X15898753Y-13565888D01*
X15898753Y-13565888D02*
X15889229Y-13527793D01*
X15889229Y-13527793D02*
X15889229Y-13480174D01*
X15889229Y-13480174D02*
X15898753Y-13442079D01*
X15898753Y-13442079D02*
X15908277Y-13423031D01*
X15908277Y-13423031D02*
X15917801Y-13413508D01*
X15917801Y-13413508D02*
X15936848Y-13403984D01*
X16174944Y-13470650D02*
X16174944Y-13603984D01*
X16127325Y-13394460D02*
X16079706Y-13537317D01*
X16079706Y-13537317D02*
X16203515Y-13537317D01*
X16260658Y-13403984D02*
X16384467Y-13403984D01*
X16384467Y-13403984D02*
X16317801Y-13480174D01*
X16317801Y-13480174D02*
X16346372Y-13480174D01*
X16346372Y-13480174D02*
X16365420Y-13489698D01*
X16365420Y-13489698D02*
X16374944Y-13499222D01*
X16374944Y-13499222D02*
X16384467Y-13518269D01*
X16384467Y-13518269D02*
X16384467Y-13565888D01*
X16384467Y-13565888D02*
X16374944Y-13584936D01*
X16374944Y-13584936D02*
X16365420Y-13594460D01*
X16365420Y-13594460D02*
X16346372Y-13603984D01*
X16346372Y-13603984D02*
X16289229Y-13603984D01*
X16289229Y-13603984D02*
X16270182Y-13594460D01*
X16270182Y-13594460D02*
X16260658Y-13584936D01*
X16451134Y-13403984D02*
X16574944Y-13403984D01*
X16574944Y-13403984D02*
X16508277Y-13480174D01*
X16508277Y-13480174D02*
X16536848Y-13480174D01*
X16536848Y-13480174D02*
X16555896Y-13489698D01*
X16555896Y-13489698D02*
X16565420Y-13499222D01*
X16565420Y-13499222D02*
X16574944Y-13518269D01*
X16574944Y-13518269D02*
X16574944Y-13565888D01*
X16574944Y-13565888D02*
X16565420Y-13584936D01*
X16565420Y-13584936D02*
X16555896Y-13594460D01*
X16555896Y-13594460D02*
X16536848Y-13603984D01*
X16536848Y-13603984D02*
X16479706Y-13603984D01*
X16479706Y-13603984D02*
X16460658Y-13594460D01*
X16460658Y-13594460D02*
X16451134Y-13584936D01*
X16651134Y-13403984D02*
X16651134Y-13442079D01*
X16727325Y-13403984D02*
X16727325Y-13442079D01*
X17022563Y-13680174D02*
X17013039Y-13670650D01*
X17013039Y-13670650D02*
X16993991Y-13642079D01*
X16993991Y-13642079D02*
X16984468Y-13623031D01*
X16984468Y-13623031D02*
X16974944Y-13594460D01*
X16974944Y-13594460D02*
X16965420Y-13546841D01*
X16965420Y-13546841D02*
X16965420Y-13508746D01*
X16965420Y-13508746D02*
X16974944Y-13461127D01*
X16974944Y-13461127D02*
X16984468Y-13432555D01*
X16984468Y-13432555D02*
X16993991Y-13413508D01*
X16993991Y-13413508D02*
X17013039Y-13384936D01*
X17013039Y-13384936D02*
X17022563Y-13375412D01*
X17136849Y-13403984D02*
X17155896Y-13403984D01*
X17155896Y-13403984D02*
X17174944Y-13413508D01*
X17174944Y-13413508D02*
X17184468Y-13423031D01*
X17184468Y-13423031D02*
X17193991Y-13442079D01*
X17193991Y-13442079D02*
X17203515Y-13480174D01*
X17203515Y-13480174D02*
X17203515Y-13527793D01*
X17203515Y-13527793D02*
X17193991Y-13565888D01*
X17193991Y-13565888D02*
X17184468Y-13584936D01*
X17184468Y-13584936D02*
X17174944Y-13594460D01*
X17174944Y-13594460D02*
X17155896Y-13603984D01*
X17155896Y-13603984D02*
X17136849Y-13603984D01*
X17136849Y-13603984D02*
X17117801Y-13594460D01*
X17117801Y-13594460D02*
X17108277Y-13584936D01*
X17108277Y-13584936D02*
X17098753Y-13565888D01*
X17098753Y-13565888D02*
X17089230Y-13527793D01*
X17089230Y-13527793D02*
X17089230Y-13480174D01*
X17089230Y-13480174D02*
X17098753Y-13442079D01*
X17098753Y-13442079D02*
X17108277Y-13423031D01*
X17108277Y-13423031D02*
X17117801Y-13413508D01*
X17117801Y-13413508D02*
X17136849Y-13403984D01*
X17441611Y-13603984D02*
X17441611Y-13403984D01*
X17527325Y-13603984D02*
X17527325Y-13499222D01*
X17527325Y-13499222D02*
X17517801Y-13480174D01*
X17517801Y-13480174D02*
X17498753Y-13470650D01*
X17498753Y-13470650D02*
X17470182Y-13470650D01*
X17470182Y-13470650D02*
X17451134Y-13480174D01*
X17451134Y-13480174D02*
X17441611Y-13489698D01*
X17651134Y-13603984D02*
X17632087Y-13594460D01*
X17632087Y-13594460D02*
X17622563Y-13584936D01*
X17622563Y-13584936D02*
X17613039Y-13565888D01*
X17613039Y-13565888D02*
X17613039Y-13508746D01*
X17613039Y-13508746D02*
X17622563Y-13489698D01*
X17622563Y-13489698D02*
X17632087Y-13480174D01*
X17632087Y-13480174D02*
X17651134Y-13470650D01*
X17651134Y-13470650D02*
X17679706Y-13470650D01*
X17679706Y-13470650D02*
X17698753Y-13480174D01*
X17698753Y-13480174D02*
X17708277Y-13489698D01*
X17708277Y-13489698D02*
X17717801Y-13508746D01*
X17717801Y-13508746D02*
X17717801Y-13565888D01*
X17717801Y-13565888D02*
X17708277Y-13584936D01*
X17708277Y-13584936D02*
X17698753Y-13594460D01*
X17698753Y-13594460D02*
X17679706Y-13603984D01*
X17679706Y-13603984D02*
X17651134Y-13603984D01*
X17832087Y-13603984D02*
X17813039Y-13594460D01*
X17813039Y-13594460D02*
X17803515Y-13575412D01*
X17803515Y-13575412D02*
X17803515Y-13403984D01*
X17984468Y-13594460D02*
X17965420Y-13603984D01*
X17965420Y-13603984D02*
X17927325Y-13603984D01*
X17927325Y-13603984D02*
X17908277Y-13594460D01*
X17908277Y-13594460D02*
X17898753Y-13575412D01*
X17898753Y-13575412D02*
X17898753Y-13499222D01*
X17898753Y-13499222D02*
X17908277Y-13480174D01*
X17908277Y-13480174D02*
X17927325Y-13470650D01*
X17927325Y-13470650D02*
X17965420Y-13470650D01*
X17965420Y-13470650D02*
X17984468Y-13480174D01*
X17984468Y-13480174D02*
X17993992Y-13499222D01*
X17993992Y-13499222D02*
X17993992Y-13518269D01*
X17993992Y-13518269D02*
X17898753Y-13537317D01*
X18070182Y-13594460D02*
X18089230Y-13603984D01*
X18089230Y-13603984D02*
X18127325Y-13603984D01*
X18127325Y-13603984D02*
X18146373Y-13594460D01*
X18146373Y-13594460D02*
X18155896Y-13575412D01*
X18155896Y-13575412D02*
X18155896Y-13565888D01*
X18155896Y-13565888D02*
X18146373Y-13546841D01*
X18146373Y-13546841D02*
X18127325Y-13537317D01*
X18127325Y-13537317D02*
X18098753Y-13537317D01*
X18098753Y-13537317D02*
X18079706Y-13527793D01*
X18079706Y-13527793D02*
X18070182Y-13508746D01*
X18070182Y-13508746D02*
X18070182Y-13499222D01*
X18070182Y-13499222D02*
X18079706Y-13480174D01*
X18079706Y-13480174D02*
X18098753Y-13470650D01*
X18098753Y-13470650D02*
X18127325Y-13470650D01*
X18127325Y-13470650D02*
X18146373Y-13480174D01*
X18393992Y-13527793D02*
X18546373Y-13527793D01*
X18470182Y-13603984D02*
X18470182Y-13451603D01*
X18784468Y-13423031D02*
X18793992Y-13413508D01*
X18793992Y-13413508D02*
X18813039Y-13403984D01*
X18813039Y-13403984D02*
X18860658Y-13403984D01*
X18860658Y-13403984D02*
X18879706Y-13413508D01*
X18879706Y-13413508D02*
X18889230Y-13423031D01*
X18889230Y-13423031D02*
X18898754Y-13442079D01*
X18898754Y-13442079D02*
X18898754Y-13461127D01*
X18898754Y-13461127D02*
X18889230Y-13489698D01*
X18889230Y-13489698D02*
X18774944Y-13603984D01*
X18774944Y-13603984D02*
X18898754Y-13603984D01*
X19127325Y-13594460D02*
X19146373Y-13603984D01*
X19146373Y-13603984D02*
X19184468Y-13603984D01*
X19184468Y-13603984D02*
X19203516Y-13594460D01*
X19203516Y-13594460D02*
X19213039Y-13575412D01*
X19213039Y-13575412D02*
X19213039Y-13565888D01*
X19213039Y-13565888D02*
X19203516Y-13546841D01*
X19203516Y-13546841D02*
X19184468Y-13537317D01*
X19184468Y-13537317D02*
X19155896Y-13537317D01*
X19155896Y-13537317D02*
X19136849Y-13527793D01*
X19136849Y-13527793D02*
X19127325Y-13508746D01*
X19127325Y-13508746D02*
X19127325Y-13499222D01*
X19127325Y-13499222D02*
X19136849Y-13480174D01*
X19136849Y-13480174D02*
X19155896Y-13470650D01*
X19155896Y-13470650D02*
X19184468Y-13470650D01*
X19184468Y-13470650D02*
X19203516Y-13480174D01*
X19327325Y-13603984D02*
X19308277Y-13594460D01*
X19308277Y-13594460D02*
X19298754Y-13575412D01*
X19298754Y-13575412D02*
X19298754Y-13403984D01*
X19432087Y-13603984D02*
X19413039Y-13594460D01*
X19413039Y-13594460D02*
X19403516Y-13584936D01*
X19403516Y-13584936D02*
X19393992Y-13565888D01*
X19393992Y-13565888D02*
X19393992Y-13508746D01*
X19393992Y-13508746D02*
X19403516Y-13489698D01*
X19403516Y-13489698D02*
X19413039Y-13480174D01*
X19413039Y-13480174D02*
X19432087Y-13470650D01*
X19432087Y-13470650D02*
X19460658Y-13470650D01*
X19460658Y-13470650D02*
X19479706Y-13480174D01*
X19479706Y-13480174D02*
X19489230Y-13489698D01*
X19489230Y-13489698D02*
X19498754Y-13508746D01*
X19498754Y-13508746D02*
X19498754Y-13565888D01*
X19498754Y-13565888D02*
X19489230Y-13584936D01*
X19489230Y-13584936D02*
X19479706Y-13594460D01*
X19479706Y-13594460D02*
X19460658Y-13603984D01*
X19460658Y-13603984D02*
X19432087Y-13603984D01*
X19555897Y-13470650D02*
X19632087Y-13470650D01*
X19584468Y-13403984D02*
X19584468Y-13575412D01*
X19584468Y-13575412D02*
X19593992Y-13594460D01*
X19593992Y-13594460D02*
X19613039Y-13603984D01*
X19613039Y-13603984D02*
X19632087Y-13603984D01*
X19689230Y-13594460D02*
X19708277Y-13603984D01*
X19708277Y-13603984D02*
X19746373Y-13603984D01*
X19746373Y-13603984D02*
X19765420Y-13594460D01*
X19765420Y-13594460D02*
X19774944Y-13575412D01*
X19774944Y-13575412D02*
X19774944Y-13565888D01*
X19774944Y-13565888D02*
X19765420Y-13546841D01*
X19765420Y-13546841D02*
X19746373Y-13537317D01*
X19746373Y-13537317D02*
X19717801Y-13537317D01*
X19717801Y-13537317D02*
X19698754Y-13527793D01*
X19698754Y-13527793D02*
X19689230Y-13508746D01*
X19689230Y-13508746D02*
X19689230Y-13499222D01*
X19689230Y-13499222D02*
X19698754Y-13480174D01*
X19698754Y-13480174D02*
X19717801Y-13470650D01*
X19717801Y-13470650D02*
X19746373Y-13470650D01*
X19746373Y-13470650D02*
X19765420Y-13480174D01*
X19841611Y-13680174D02*
X19851135Y-13670650D01*
X19851135Y-13670650D02*
X19870182Y-13642079D01*
X19870182Y-13642079D02*
X19879706Y-13623031D01*
X19879706Y-13623031D02*
X19889230Y-13594460D01*
X19889230Y-13594460D02*
X19898754Y-13546841D01*
X19898754Y-13546841D02*
X19898754Y-13508746D01*
X19898754Y-13508746D02*
X19889230Y-13461127D01*
X19889230Y-13461127D02*
X19879706Y-13432555D01*
X19879706Y-13432555D02*
X19870182Y-13413508D01*
X19870182Y-13413508D02*
X19851135Y-13384936D01*
X19851135Y-13384936D02*
X19841611Y-13375412D01*
M02*
