%TF.GenerationSoftware,KiCad,Pcbnew,7.0.6*%
%TF.CreationDate,2024-03-18T22:30:39-04:00*%
%TF.ProjectId,Transmitter,5472616e-736d-4697-9474-65722e6b6963,rev?*%
%TF.SameCoordinates,Original*%
%TF.FileFunction,Legend,Bot*%
%TF.FilePolarity,Positive*%
%FSLAX46Y46*%
G04 Gerber Fmt 4.6, Leading zero omitted, Abs format (unit mm)*
G04 Created by KiCad (PCBNEW 7.0.6) date 2024-03-18 22:30:39*
%MOMM*%
%LPD*%
G01*
G04 APERTURE LIST*
%ADD10C,0.150000*%
%ADD11C,0.508000*%
%ADD12C,0.120000*%
G04 APERTURE END LIST*
D10*
X150738094Y-56954819D02*
X150738094Y-55954819D01*
X150738094Y-55954819D02*
X150499999Y-55954819D01*
X150499999Y-55954819D02*
X150357142Y-56002438D01*
X150357142Y-56002438D02*
X150261904Y-56097676D01*
X150261904Y-56097676D02*
X150214285Y-56192914D01*
X150214285Y-56192914D02*
X150166666Y-56383390D01*
X150166666Y-56383390D02*
X150166666Y-56526247D01*
X150166666Y-56526247D02*
X150214285Y-56716723D01*
X150214285Y-56716723D02*
X150261904Y-56811961D01*
X150261904Y-56811961D02*
X150357142Y-56907200D01*
X150357142Y-56907200D02*
X150499999Y-56954819D01*
X150499999Y-56954819D02*
X150738094Y-56954819D01*
X149261904Y-55954819D02*
X149738094Y-55954819D01*
X149738094Y-55954819D02*
X149785713Y-56431009D01*
X149785713Y-56431009D02*
X149738094Y-56383390D01*
X149738094Y-56383390D02*
X149642856Y-56335771D01*
X149642856Y-56335771D02*
X149404761Y-56335771D01*
X149404761Y-56335771D02*
X149309523Y-56383390D01*
X149309523Y-56383390D02*
X149261904Y-56431009D01*
X149261904Y-56431009D02*
X149214285Y-56526247D01*
X149214285Y-56526247D02*
X149214285Y-56764342D01*
X149214285Y-56764342D02*
X149261904Y-56859580D01*
X149261904Y-56859580D02*
X149309523Y-56907200D01*
X149309523Y-56907200D02*
X149404761Y-56954819D01*
X149404761Y-56954819D02*
X149642856Y-56954819D01*
X149642856Y-56954819D02*
X149738094Y-56907200D01*
X149738094Y-56907200D02*
X149785713Y-56859580D01*
D11*
%TO.C,J1*%
X174005600Y-69285001D02*
G75*
G03*
X174005600Y-69285001I-381000J0D01*
G01*
D12*
%TO.C,C5*%
X177160000Y-102192164D02*
X177160000Y-102407836D01*
X176440000Y-102192164D02*
X176440000Y-102407836D01*
%TO.C,C4*%
X172640000Y-102407836D02*
X172640000Y-102192164D01*
X173360000Y-102407836D02*
X173360000Y-102192164D01*
%TO.C,D5*%
X153650000Y-62750000D02*
X146350000Y-62750000D01*
X153650000Y-57250000D02*
X146350000Y-57250000D01*
X146350000Y-62750000D02*
X146350000Y-61600000D01*
%TD*%
M02*
