M48
; DRILL file {KiCad 7.0.6} date Mon Mar 18 22:30:36 2024
; FORMAT={-:-/ absolute / metric / decimal}
; #@! TF.CreationDate,2024-03-18T22:30:36-04:00
; #@! TF.GenerationSoftware,Kicad,Pcbnew,7.0.6
; #@! TF.FileFunction,Plated,1,4,PTH
FMAT,2
METRIC
; #@! TA.AperFunction,Plated,PTH,ViaDrill
T1C0.200
; #@! TA.AperFunction,Plated,PTH,ViaDrill
T2C0.400
; #@! TA.AperFunction,Plated,PTH,ComponentDrill
T3C0.650
; #@! TA.AperFunction,Plated,PTH,ComponentDrill
T4C0.750
; #@! TA.AperFunction,Plated,PTH,ComponentDrill
T5C1.000
; #@! TA.AperFunction,Plated,PTH,ComponentDrill
T6C1.100
%
G90
G05
T1
X171.6Y-104.4
X172.3Y-102.9
X173.9Y-102.5
X173.9Y-103.0
X174.4Y-102.5
X174.4Y-103.0
X174.4Y-103.0
X175.4Y-102.5
X175.4Y-103.0
X175.5Y-59.5
X175.9Y-102.5
X175.9Y-103.0
X177.704Y-103.884
X177.8Y-101.3
X178.0Y-70.251
X180.2Y-102.7
X180.3Y-68.2
X180.422Y-72.701
X180.5Y-59.1
X180.7Y-105.8
X181.4Y-66.0
X183.5Y-101.8
T2
X141.3Y-103.7
X141.9Y-95.5
X147.6Y-60.1
X149.6Y-64.1
X149.6Y-65.9
X150.3Y-66.0
X150.4Y-64.1
X151.1Y-66.0
X151.2Y-64.1
X152.0Y-66.0
X152.1Y-64.1
X152.1Y-69.5
X152.45Y-59.65
X154.0Y-70.1
X155.1Y-62.4
X155.5Y-74.1
X156.7Y-79.5
X159.3Y-69.3
X162.6Y-66.4
X162.6Y-77.2
X164.4Y-73.2
X167.2Y-96.6
X168.1Y-65.5
X168.2Y-96.6
X169.2Y-96.6
X169.6Y-79.9
X170.3Y-96.6
X170.4Y-75.8
X171.2Y-64.0
X171.4Y-96.6
X171.6Y-69.4
X171.9Y-109.8
X172.0Y-101.4
X173.3Y-107.7
X173.9Y-96.6
X173.9Y-97.3
X173.9Y-98.0
X174.3Y-103.7
X174.9Y-96.6
X174.9Y-104.2
X175.5Y-103.7
X175.9Y-96.6
X175.9Y-97.3
X175.9Y-98.0
X176.5Y-68.6
X176.6Y-71.6
X176.8Y-108.0
X179.1Y-67.9
X179.1Y-72.2
X179.2Y-96.6
X180.05Y-63.8
X180.3Y-96.6
X181.2Y-76.5
X181.2Y-103.1
X181.4Y-96.6
X182.0Y-70.1
X182.0Y-102.9
X182.0Y-105.1
X182.3Y-109.3
X182.4Y-96.6
X183.3Y-68.7
X183.4Y-71.6
X183.4Y-96.6
X183.7Y-84.9
X183.7Y-85.7
X184.5Y-84.9
X184.5Y-85.7
X184.504Y-96.6
X184.8Y-68.3
X185.2Y-87.3
X185.4Y-75.9
X185.6Y-86.6
X185.7Y-96.6
X186.0Y-85.9
X186.0Y-87.3
X186.2Y-75.9
X186.4Y-86.6
X186.8Y-85.9
X186.8Y-87.3
X187.0Y-75.9
X187.1Y-65.5
X187.2Y-86.6
T3
X174.53Y-60.6
X174.53Y-61.87
X175.8Y-60.6
X175.8Y-61.87
X177.07Y-60.6
X177.07Y-61.87
T4
X148.05Y-110.2
X148.05Y-112.2
X154.05Y-110.2
X154.05Y-112.2
X185.3Y-95.05
X186.8Y-107.0
X187.3Y-95.05
X188.8Y-107.0
X190.8Y-107.0
T5
X142.52Y-97.5
X142.52Y-100.0
X142.52Y-102.5
T6
G00X150.02Y-94.9
M15
G01X150.02Y-95.6
M16
G05
G00X150.02Y-104.4
M15
G01X150.02Y-105.1
M16
G05
T0
M30
