%TF.GenerationSoftware,KiCad,Pcbnew,7.0.6*%
%TF.CreationDate,2023-09-28T21:06:30-04:00*%
%TF.ProjectId,Welder_Knob,57656c64-6572-45f4-9b6e-6f622e6b6963,rev?*%
%TF.SameCoordinates,Original*%
%TF.FileFunction,Drillmap*%
%TF.FilePolarity,Positive*%
%FSLAX45Y45*%
G04 Gerber Fmt 4.5, Leading zero omitted, Abs format (unit mm)*
G04 Created by KiCad (PCBNEW 7.0.6) date 2023-09-28 21:06:30*
%MOMM*%
%LPD*%
G01*
G04 APERTURE LIST*
%ADD10C,0.100000*%
%ADD11C,0.200000*%
%ADD12C,0.040000*%
%ADD13C,0.080000*%
G04 APERTURE END LIST*
D10*
X16200000Y-6300000D02*
G75*
G03*
X15900000Y-6000000I-300000J0D01*
G01*
X12450000Y-6300000D02*
G75*
G03*
X12450000Y-6300000I-150000J0D01*
G01*
X16050000Y-9900000D02*
G75*
G03*
X16050000Y-9900000I-150000J0D01*
G01*
X12000000Y-6300000D02*
X12000000Y-9900000D01*
X12300000Y-6000000D02*
G75*
G03*
X12000000Y-6300000I0J-300000D01*
G01*
X15900000Y-10200000D02*
G75*
G03*
X16200000Y-9900000I0J300000D01*
G01*
X16200000Y-9900000D02*
X16200000Y-6300000D01*
X12300000Y-10200000D02*
X15900000Y-10200000D01*
X12450000Y-9900000D02*
G75*
G03*
X12450000Y-9900000I-150000J0D01*
G01*
X16050000Y-6300000D02*
G75*
G03*
X16050000Y-6300000I-150000J0D01*
G01*
X15900000Y-6000000D02*
X12300000Y-6000000D01*
X12000000Y-9900000D02*
G75*
G03*
X12300000Y-10200000I300000J0D01*
G01*
D11*
D12*
X12480000Y-8980000D02*
X12520000Y-9020000D01*
X12520000Y-8980000D02*
X12480000Y-9020000D01*
X12855000Y-8755000D02*
X12895000Y-8795000D01*
X12895000Y-8755000D02*
X12855000Y-8795000D01*
X13500000Y-9550000D02*
X13540000Y-9590000D01*
X13540000Y-9550000D02*
X13500000Y-9590000D01*
X13755000Y-7880000D02*
X13795000Y-7920000D01*
X13795000Y-7880000D02*
X13755000Y-7920000D01*
X13790000Y-9310000D02*
X13830000Y-9350000D01*
X13830000Y-9310000D02*
X13790000Y-9350000D01*
X13810000Y-9230000D02*
X13850000Y-9270000D01*
X13850000Y-9230000D02*
X13810000Y-9270000D01*
X13850000Y-9370000D02*
X13890000Y-9410000D01*
X13890000Y-9370000D02*
X13850000Y-9410000D01*
X13870000Y-9290000D02*
X13910000Y-9330000D01*
X13910000Y-9290000D02*
X13870000Y-9330000D01*
X13910000Y-9430000D02*
X13950000Y-9470000D01*
X13950000Y-9430000D02*
X13910000Y-9470000D01*
X13930000Y-9350000D02*
X13970000Y-9390000D01*
X13970000Y-9350000D02*
X13930000Y-9390000D01*
X13990000Y-9410000D02*
X14030000Y-9450000D01*
X14030000Y-9410000D02*
X13990000Y-9450000D01*
X14098372Y-7659448D02*
X14138372Y-7699448D01*
X14138372Y-7659448D02*
X14098372Y-7699448D01*
X14105000Y-6580000D02*
X14145000Y-6620000D01*
X14145000Y-6580000D02*
X14105000Y-6620000D01*
X14240000Y-8865000D02*
X14280000Y-8905000D01*
X14280000Y-8865000D02*
X14240000Y-8905000D01*
X14260000Y-8785000D02*
X14300000Y-8825000D01*
X14300000Y-8785000D02*
X14260000Y-8825000D01*
X14300000Y-8925000D02*
X14340000Y-8965000D01*
X14340000Y-8925000D02*
X14300000Y-8965000D01*
X14320000Y-8845000D02*
X14360000Y-8885000D01*
X14360000Y-8845000D02*
X14320000Y-8885000D01*
X14360000Y-8985000D02*
X14400000Y-9025000D01*
X14400000Y-8985000D02*
X14360000Y-9025000D01*
X14380000Y-7705000D02*
X14420000Y-7745000D01*
X14420000Y-7705000D02*
X14380000Y-7745000D01*
X14380000Y-8905000D02*
X14420000Y-8945000D01*
X14420000Y-8905000D02*
X14380000Y-8945000D01*
X14440000Y-8965000D02*
X14480000Y-9005000D01*
X14480000Y-8965000D02*
X14440000Y-9005000D01*
X14500000Y-8040000D02*
X14540000Y-8080000D01*
X14540000Y-8040000D02*
X14500000Y-8080000D01*
X14500000Y-8180000D02*
X14540000Y-8220000D01*
X14540000Y-8180000D02*
X14500000Y-8220000D01*
X14505000Y-7580000D02*
X14545000Y-7620000D01*
X14545000Y-7580000D02*
X14505000Y-7620000D01*
X14680000Y-8880000D02*
X14720000Y-8920000D01*
X14720000Y-8880000D02*
X14680000Y-8920000D01*
X14730000Y-8480000D02*
X14770000Y-8520000D01*
X14770000Y-8480000D02*
X14730000Y-8520000D01*
X14880000Y-8140000D02*
X14920000Y-8180000D01*
X14920000Y-8140000D02*
X14880000Y-8180000D01*
X14930000Y-9105000D02*
X14970000Y-9145000D01*
X14970000Y-9105000D02*
X14930000Y-9145000D01*
X14955000Y-7130000D02*
X14995000Y-7170000D01*
X14995000Y-7130000D02*
X14955000Y-7170000D01*
X14955000Y-7405000D02*
X14995000Y-7445000D01*
X14995000Y-7405000D02*
X14955000Y-7445000D01*
X15055000Y-9480000D02*
X15095000Y-9520000D01*
X15095000Y-9480000D02*
X15055000Y-9520000D01*
X15060000Y-8360000D02*
X15100000Y-8400000D01*
X15100000Y-8360000D02*
X15060000Y-8400000D01*
X15080000Y-8630000D02*
X15120000Y-8670000D01*
X15120000Y-8630000D02*
X15080000Y-8670000D01*
X15630000Y-7530000D02*
X15670000Y-7570000D01*
X15670000Y-7530000D02*
X15630000Y-7570000D01*
X15630000Y-9155000D02*
X15670000Y-9195000D01*
X15670000Y-9155000D02*
X15630000Y-9195000D01*
X15730000Y-7430000D02*
X15770000Y-7470000D01*
X15770000Y-7430000D02*
X15730000Y-7470000D01*
X15780000Y-8105000D02*
X15820000Y-8145000D01*
X15820000Y-8105000D02*
X15780000Y-8145000D01*
X15805000Y-7655000D02*
X15845000Y-7695000D01*
X15845000Y-7655000D02*
X15805000Y-7695000D01*
X15805000Y-7755000D02*
X15845000Y-7795000D01*
X15845000Y-7755000D02*
X15805000Y-7795000D01*
X15830000Y-8280000D02*
X15870000Y-8320000D01*
X15870000Y-8280000D02*
X15830000Y-8320000D01*
X15840000Y-7960000D02*
X15880000Y-8000000D01*
X15880000Y-7960000D02*
X15840000Y-8000000D01*
X15980000Y-9005000D02*
X16020000Y-9045000D01*
X16020000Y-9005000D02*
X15980000Y-9045000D01*
X16055000Y-9205000D02*
X16095000Y-9245000D01*
X16095000Y-9205000D02*
X16055000Y-9245000D01*
D13*
X12706000Y-6230000D02*
G75*
G03*
X12706000Y-6230000I-40000J0D01*
G01*
X12706000Y-6484000D02*
G75*
G03*
X12706000Y-6484000I-40000J0D01*
G01*
X12706000Y-6738000D02*
G75*
G03*
X12706000Y-6738000I-40000J0D01*
G01*
X12706000Y-6992000D02*
G75*
G03*
X12706000Y-6992000I-40000J0D01*
G01*
X12706000Y-7246000D02*
G75*
G03*
X12706000Y-7246000I-40000J0D01*
G01*
X12706000Y-7500000D02*
G75*
G03*
X12706000Y-7500000I-40000J0D01*
G01*
X12706000Y-7754000D02*
G75*
G03*
X12706000Y-7754000I-40000J0D01*
G01*
X12706000Y-8008000D02*
G75*
G03*
X12706000Y-8008000I-40000J0D01*
G01*
X13976000Y-6230000D02*
G75*
G03*
X13976000Y-6230000I-40000J0D01*
G01*
X13976000Y-6484000D02*
G75*
G03*
X13976000Y-6484000I-40000J0D01*
G01*
X13976000Y-6738000D02*
G75*
G03*
X13976000Y-6738000I-40000J0D01*
G01*
X13976000Y-6992000D02*
G75*
G03*
X13976000Y-6992000I-40000J0D01*
G01*
X13976000Y-7246000D02*
G75*
G03*
X13976000Y-7246000I-40000J0D01*
G01*
X13976000Y-7500000D02*
G75*
G03*
X13976000Y-7500000I-40000J0D01*
G01*
X13976000Y-7754000D02*
G75*
G03*
X13976000Y-7754000I-40000J0D01*
G01*
X13976000Y-8008000D02*
G75*
G03*
X13976000Y-8008000I-40000J0D01*
G01*
D10*
X12250000Y-6696000D02*
X12250000Y-6796000D01*
X12200000Y-6746000D02*
X12300000Y-6746000D01*
X12250000Y-6950000D02*
X12250000Y-7050000D01*
X12200000Y-7000000D02*
X12300000Y-7000000D01*
X12250000Y-7204000D02*
X12250000Y-7304000D01*
X12200000Y-7254000D02*
X12300000Y-7254000D01*
X12250000Y-7458000D02*
X12250000Y-7558000D01*
X12200000Y-7508000D02*
X12300000Y-7508000D01*
X14095000Y-9582500D02*
X14095000Y-9682500D01*
X14045000Y-9632500D02*
X14145000Y-9632500D01*
X14349000Y-9582500D02*
X14349000Y-9682500D01*
X14299000Y-9632500D02*
X14399000Y-9632500D01*
D11*
X12255777Y-10516484D02*
X12255777Y-10316484D01*
X12255777Y-10316484D02*
X12303396Y-10316484D01*
X12303396Y-10316484D02*
X12331967Y-10326008D01*
X12331967Y-10326008D02*
X12351015Y-10345055D01*
X12351015Y-10345055D02*
X12360539Y-10364103D01*
X12360539Y-10364103D02*
X12370062Y-10402198D01*
X12370062Y-10402198D02*
X12370062Y-10430770D01*
X12370062Y-10430770D02*
X12360539Y-10468865D01*
X12360539Y-10468865D02*
X12351015Y-10487912D01*
X12351015Y-10487912D02*
X12331967Y-10506960D01*
X12331967Y-10506960D02*
X12303396Y-10516484D01*
X12303396Y-10516484D02*
X12255777Y-10516484D01*
X12455777Y-10516484D02*
X12455777Y-10383150D01*
X12455777Y-10421246D02*
X12465301Y-10402198D01*
X12465301Y-10402198D02*
X12474824Y-10392674D01*
X12474824Y-10392674D02*
X12493872Y-10383150D01*
X12493872Y-10383150D02*
X12512920Y-10383150D01*
X12579586Y-10516484D02*
X12579586Y-10383150D01*
X12579586Y-10316484D02*
X12570062Y-10326008D01*
X12570062Y-10326008D02*
X12579586Y-10335531D01*
X12579586Y-10335531D02*
X12589110Y-10326008D01*
X12589110Y-10326008D02*
X12579586Y-10316484D01*
X12579586Y-10316484D02*
X12579586Y-10335531D01*
X12703396Y-10516484D02*
X12684348Y-10506960D01*
X12684348Y-10506960D02*
X12674824Y-10487912D01*
X12674824Y-10487912D02*
X12674824Y-10316484D01*
X12808158Y-10516484D02*
X12789110Y-10506960D01*
X12789110Y-10506960D02*
X12779586Y-10487912D01*
X12779586Y-10487912D02*
X12779586Y-10316484D01*
X13036729Y-10516484D02*
X13036729Y-10316484D01*
X13036729Y-10316484D02*
X13103396Y-10459341D01*
X13103396Y-10459341D02*
X13170062Y-10316484D01*
X13170062Y-10316484D02*
X13170062Y-10516484D01*
X13351015Y-10516484D02*
X13351015Y-10411722D01*
X13351015Y-10411722D02*
X13341491Y-10392674D01*
X13341491Y-10392674D02*
X13322443Y-10383150D01*
X13322443Y-10383150D02*
X13284348Y-10383150D01*
X13284348Y-10383150D02*
X13265301Y-10392674D01*
X13351015Y-10506960D02*
X13331967Y-10516484D01*
X13331967Y-10516484D02*
X13284348Y-10516484D01*
X13284348Y-10516484D02*
X13265301Y-10506960D01*
X13265301Y-10506960D02*
X13255777Y-10487912D01*
X13255777Y-10487912D02*
X13255777Y-10468865D01*
X13255777Y-10468865D02*
X13265301Y-10449817D01*
X13265301Y-10449817D02*
X13284348Y-10440293D01*
X13284348Y-10440293D02*
X13331967Y-10440293D01*
X13331967Y-10440293D02*
X13351015Y-10430770D01*
X13446253Y-10383150D02*
X13446253Y-10583150D01*
X13446253Y-10392674D02*
X13465301Y-10383150D01*
X13465301Y-10383150D02*
X13503396Y-10383150D01*
X13503396Y-10383150D02*
X13522443Y-10392674D01*
X13522443Y-10392674D02*
X13531967Y-10402198D01*
X13531967Y-10402198D02*
X13541491Y-10421246D01*
X13541491Y-10421246D02*
X13541491Y-10478389D01*
X13541491Y-10478389D02*
X13531967Y-10497436D01*
X13531967Y-10497436D02*
X13522443Y-10506960D01*
X13522443Y-10506960D02*
X13503396Y-10516484D01*
X13503396Y-10516484D02*
X13465301Y-10516484D01*
X13465301Y-10516484D02*
X13446253Y-10506960D01*
X13627205Y-10497436D02*
X13636729Y-10506960D01*
X13636729Y-10506960D02*
X13627205Y-10516484D01*
X13627205Y-10516484D02*
X13617682Y-10506960D01*
X13617682Y-10506960D02*
X13627205Y-10497436D01*
X13627205Y-10497436D02*
X13627205Y-10516484D01*
X13627205Y-10392674D02*
X13636729Y-10402198D01*
X13636729Y-10402198D02*
X13627205Y-10411722D01*
X13627205Y-10411722D02*
X13617682Y-10402198D01*
X13617682Y-10402198D02*
X13627205Y-10392674D01*
X13627205Y-10392674D02*
X13627205Y-10411722D01*
D12*
X11955000Y-10825000D02*
X11995000Y-10865000D01*
X11995000Y-10825000D02*
X11955000Y-10865000D01*
D11*
X12293872Y-10736484D02*
X12312920Y-10736484D01*
X12312920Y-10736484D02*
X12331967Y-10746008D01*
X12331967Y-10746008D02*
X12341491Y-10755531D01*
X12341491Y-10755531D02*
X12351015Y-10774579D01*
X12351015Y-10774579D02*
X12360539Y-10812674D01*
X12360539Y-10812674D02*
X12360539Y-10860293D01*
X12360539Y-10860293D02*
X12351015Y-10898389D01*
X12351015Y-10898389D02*
X12341491Y-10917436D01*
X12341491Y-10917436D02*
X12331967Y-10926960D01*
X12331967Y-10926960D02*
X12312920Y-10936484D01*
X12312920Y-10936484D02*
X12293872Y-10936484D01*
X12293872Y-10936484D02*
X12274824Y-10926960D01*
X12274824Y-10926960D02*
X12265301Y-10917436D01*
X12265301Y-10917436D02*
X12255777Y-10898389D01*
X12255777Y-10898389D02*
X12246253Y-10860293D01*
X12246253Y-10860293D02*
X12246253Y-10812674D01*
X12246253Y-10812674D02*
X12255777Y-10774579D01*
X12255777Y-10774579D02*
X12265301Y-10755531D01*
X12265301Y-10755531D02*
X12274824Y-10746008D01*
X12274824Y-10746008D02*
X12293872Y-10736484D01*
X12446253Y-10917436D02*
X12455777Y-10926960D01*
X12455777Y-10926960D02*
X12446253Y-10936484D01*
X12446253Y-10936484D02*
X12436729Y-10926960D01*
X12436729Y-10926960D02*
X12446253Y-10917436D01*
X12446253Y-10917436D02*
X12446253Y-10936484D01*
X12627205Y-10803150D02*
X12627205Y-10936484D01*
X12579586Y-10726960D02*
X12531967Y-10869817D01*
X12531967Y-10869817D02*
X12655777Y-10869817D01*
X12770062Y-10736484D02*
X12789110Y-10736484D01*
X12789110Y-10736484D02*
X12808158Y-10746008D01*
X12808158Y-10746008D02*
X12817682Y-10755531D01*
X12817682Y-10755531D02*
X12827205Y-10774579D01*
X12827205Y-10774579D02*
X12836729Y-10812674D01*
X12836729Y-10812674D02*
X12836729Y-10860293D01*
X12836729Y-10860293D02*
X12827205Y-10898389D01*
X12827205Y-10898389D02*
X12817682Y-10917436D01*
X12817682Y-10917436D02*
X12808158Y-10926960D01*
X12808158Y-10926960D02*
X12789110Y-10936484D01*
X12789110Y-10936484D02*
X12770062Y-10936484D01*
X12770062Y-10936484D02*
X12751015Y-10926960D01*
X12751015Y-10926960D02*
X12741491Y-10917436D01*
X12741491Y-10917436D02*
X12731967Y-10898389D01*
X12731967Y-10898389D02*
X12722443Y-10860293D01*
X12722443Y-10860293D02*
X12722443Y-10812674D01*
X12722443Y-10812674D02*
X12731967Y-10774579D01*
X12731967Y-10774579D02*
X12741491Y-10755531D01*
X12741491Y-10755531D02*
X12751015Y-10746008D01*
X12751015Y-10746008D02*
X12770062Y-10736484D01*
X12960539Y-10736484D02*
X12979586Y-10736484D01*
X12979586Y-10736484D02*
X12998634Y-10746008D01*
X12998634Y-10746008D02*
X13008158Y-10755531D01*
X13008158Y-10755531D02*
X13017682Y-10774579D01*
X13017682Y-10774579D02*
X13027205Y-10812674D01*
X13027205Y-10812674D02*
X13027205Y-10860293D01*
X13027205Y-10860293D02*
X13017682Y-10898389D01*
X13017682Y-10898389D02*
X13008158Y-10917436D01*
X13008158Y-10917436D02*
X12998634Y-10926960D01*
X12998634Y-10926960D02*
X12979586Y-10936484D01*
X12979586Y-10936484D02*
X12960539Y-10936484D01*
X12960539Y-10936484D02*
X12941491Y-10926960D01*
X12941491Y-10926960D02*
X12931967Y-10917436D01*
X12931967Y-10917436D02*
X12922443Y-10898389D01*
X12922443Y-10898389D02*
X12912920Y-10860293D01*
X12912920Y-10860293D02*
X12912920Y-10812674D01*
X12912920Y-10812674D02*
X12922443Y-10774579D01*
X12922443Y-10774579D02*
X12931967Y-10755531D01*
X12931967Y-10755531D02*
X12941491Y-10746008D01*
X12941491Y-10746008D02*
X12960539Y-10736484D01*
X13112920Y-10936484D02*
X13112920Y-10803150D01*
X13112920Y-10822198D02*
X13122443Y-10812674D01*
X13122443Y-10812674D02*
X13141491Y-10803150D01*
X13141491Y-10803150D02*
X13170063Y-10803150D01*
X13170063Y-10803150D02*
X13189110Y-10812674D01*
X13189110Y-10812674D02*
X13198634Y-10831722D01*
X13198634Y-10831722D02*
X13198634Y-10936484D01*
X13198634Y-10831722D02*
X13208158Y-10812674D01*
X13208158Y-10812674D02*
X13227205Y-10803150D01*
X13227205Y-10803150D02*
X13255777Y-10803150D01*
X13255777Y-10803150D02*
X13274824Y-10812674D01*
X13274824Y-10812674D02*
X13284348Y-10831722D01*
X13284348Y-10831722D02*
X13284348Y-10936484D01*
X13379586Y-10936484D02*
X13379586Y-10803150D01*
X13379586Y-10822198D02*
X13389110Y-10812674D01*
X13389110Y-10812674D02*
X13408158Y-10803150D01*
X13408158Y-10803150D02*
X13436729Y-10803150D01*
X13436729Y-10803150D02*
X13455777Y-10812674D01*
X13455777Y-10812674D02*
X13465301Y-10831722D01*
X13465301Y-10831722D02*
X13465301Y-10936484D01*
X13465301Y-10831722D02*
X13474824Y-10812674D01*
X13474824Y-10812674D02*
X13493872Y-10803150D01*
X13493872Y-10803150D02*
X13522443Y-10803150D01*
X13522443Y-10803150D02*
X13541491Y-10812674D01*
X13541491Y-10812674D02*
X13551015Y-10831722D01*
X13551015Y-10831722D02*
X13551015Y-10936484D01*
X13941491Y-10726960D02*
X13770063Y-10984103D01*
X14198634Y-10736484D02*
X14217682Y-10736484D01*
X14217682Y-10736484D02*
X14236729Y-10746008D01*
X14236729Y-10746008D02*
X14246253Y-10755531D01*
X14246253Y-10755531D02*
X14255777Y-10774579D01*
X14255777Y-10774579D02*
X14265301Y-10812674D01*
X14265301Y-10812674D02*
X14265301Y-10860293D01*
X14265301Y-10860293D02*
X14255777Y-10898389D01*
X14255777Y-10898389D02*
X14246253Y-10917436D01*
X14246253Y-10917436D02*
X14236729Y-10926960D01*
X14236729Y-10926960D02*
X14217682Y-10936484D01*
X14217682Y-10936484D02*
X14198634Y-10936484D01*
X14198634Y-10936484D02*
X14179586Y-10926960D01*
X14179586Y-10926960D02*
X14170063Y-10917436D01*
X14170063Y-10917436D02*
X14160539Y-10898389D01*
X14160539Y-10898389D02*
X14151015Y-10860293D01*
X14151015Y-10860293D02*
X14151015Y-10812674D01*
X14151015Y-10812674D02*
X14160539Y-10774579D01*
X14160539Y-10774579D02*
X14170063Y-10755531D01*
X14170063Y-10755531D02*
X14179586Y-10746008D01*
X14179586Y-10746008D02*
X14198634Y-10736484D01*
X14351015Y-10917436D02*
X14360539Y-10926960D01*
X14360539Y-10926960D02*
X14351015Y-10936484D01*
X14351015Y-10936484D02*
X14341491Y-10926960D01*
X14341491Y-10926960D02*
X14351015Y-10917436D01*
X14351015Y-10917436D02*
X14351015Y-10936484D01*
X14484348Y-10736484D02*
X14503396Y-10736484D01*
X14503396Y-10736484D02*
X14522444Y-10746008D01*
X14522444Y-10746008D02*
X14531967Y-10755531D01*
X14531967Y-10755531D02*
X14541491Y-10774579D01*
X14541491Y-10774579D02*
X14551015Y-10812674D01*
X14551015Y-10812674D02*
X14551015Y-10860293D01*
X14551015Y-10860293D02*
X14541491Y-10898389D01*
X14541491Y-10898389D02*
X14531967Y-10917436D01*
X14531967Y-10917436D02*
X14522444Y-10926960D01*
X14522444Y-10926960D02*
X14503396Y-10936484D01*
X14503396Y-10936484D02*
X14484348Y-10936484D01*
X14484348Y-10936484D02*
X14465301Y-10926960D01*
X14465301Y-10926960D02*
X14455777Y-10917436D01*
X14455777Y-10917436D02*
X14446253Y-10898389D01*
X14446253Y-10898389D02*
X14436729Y-10860293D01*
X14436729Y-10860293D02*
X14436729Y-10812674D01*
X14436729Y-10812674D02*
X14446253Y-10774579D01*
X14446253Y-10774579D02*
X14455777Y-10755531D01*
X14455777Y-10755531D02*
X14465301Y-10746008D01*
X14465301Y-10746008D02*
X14484348Y-10736484D01*
X14741491Y-10936484D02*
X14627206Y-10936484D01*
X14684348Y-10936484D02*
X14684348Y-10736484D01*
X14684348Y-10736484D02*
X14665301Y-10765055D01*
X14665301Y-10765055D02*
X14646253Y-10784103D01*
X14646253Y-10784103D02*
X14627206Y-10793627D01*
X14922444Y-10736484D02*
X14827206Y-10736484D01*
X14827206Y-10736484D02*
X14817682Y-10831722D01*
X14817682Y-10831722D02*
X14827206Y-10822198D01*
X14827206Y-10822198D02*
X14846253Y-10812674D01*
X14846253Y-10812674D02*
X14893872Y-10812674D01*
X14893872Y-10812674D02*
X14912920Y-10822198D01*
X14912920Y-10822198D02*
X14922444Y-10831722D01*
X14922444Y-10831722D02*
X14931967Y-10850770D01*
X14931967Y-10850770D02*
X14931967Y-10898389D01*
X14931967Y-10898389D02*
X14922444Y-10917436D01*
X14922444Y-10917436D02*
X14912920Y-10926960D01*
X14912920Y-10926960D02*
X14893872Y-10936484D01*
X14893872Y-10936484D02*
X14846253Y-10936484D01*
X14846253Y-10936484D02*
X14827206Y-10926960D01*
X14827206Y-10926960D02*
X14817682Y-10917436D01*
X14998634Y-10736484D02*
X15131967Y-10736484D01*
X15131967Y-10736484D02*
X15046253Y-10936484D01*
X15198634Y-10736484D02*
X15198634Y-10774579D01*
X15274825Y-10736484D02*
X15274825Y-10774579D01*
X15570063Y-11012674D02*
X15560539Y-11003150D01*
X15560539Y-11003150D02*
X15541491Y-10974579D01*
X15541491Y-10974579D02*
X15531968Y-10955531D01*
X15531968Y-10955531D02*
X15522444Y-10926960D01*
X15522444Y-10926960D02*
X15512920Y-10879341D01*
X15512920Y-10879341D02*
X15512920Y-10841246D01*
X15512920Y-10841246D02*
X15522444Y-10793627D01*
X15522444Y-10793627D02*
X15531968Y-10765055D01*
X15531968Y-10765055D02*
X15541491Y-10746008D01*
X15541491Y-10746008D02*
X15560539Y-10717436D01*
X15560539Y-10717436D02*
X15570063Y-10707912D01*
X15731968Y-10803150D02*
X15731968Y-10936484D01*
X15684348Y-10726960D02*
X15636729Y-10869817D01*
X15636729Y-10869817D02*
X15760539Y-10869817D01*
X15817682Y-10736484D02*
X15941491Y-10736484D01*
X15941491Y-10736484D02*
X15874825Y-10812674D01*
X15874825Y-10812674D02*
X15903396Y-10812674D01*
X15903396Y-10812674D02*
X15922444Y-10822198D01*
X15922444Y-10822198D02*
X15931968Y-10831722D01*
X15931968Y-10831722D02*
X15941491Y-10850770D01*
X15941491Y-10850770D02*
X15941491Y-10898389D01*
X15941491Y-10898389D02*
X15931968Y-10917436D01*
X15931968Y-10917436D02*
X15922444Y-10926960D01*
X15922444Y-10926960D02*
X15903396Y-10936484D01*
X15903396Y-10936484D02*
X15846253Y-10936484D01*
X15846253Y-10936484D02*
X15827206Y-10926960D01*
X15827206Y-10926960D02*
X15817682Y-10917436D01*
X16179587Y-10936484D02*
X16179587Y-10736484D01*
X16265301Y-10936484D02*
X16265301Y-10831722D01*
X16265301Y-10831722D02*
X16255777Y-10812674D01*
X16255777Y-10812674D02*
X16236730Y-10803150D01*
X16236730Y-10803150D02*
X16208158Y-10803150D01*
X16208158Y-10803150D02*
X16189110Y-10812674D01*
X16189110Y-10812674D02*
X16179587Y-10822198D01*
X16389110Y-10936484D02*
X16370063Y-10926960D01*
X16370063Y-10926960D02*
X16360539Y-10917436D01*
X16360539Y-10917436D02*
X16351015Y-10898389D01*
X16351015Y-10898389D02*
X16351015Y-10841246D01*
X16351015Y-10841246D02*
X16360539Y-10822198D01*
X16360539Y-10822198D02*
X16370063Y-10812674D01*
X16370063Y-10812674D02*
X16389110Y-10803150D01*
X16389110Y-10803150D02*
X16417682Y-10803150D01*
X16417682Y-10803150D02*
X16436730Y-10812674D01*
X16436730Y-10812674D02*
X16446253Y-10822198D01*
X16446253Y-10822198D02*
X16455777Y-10841246D01*
X16455777Y-10841246D02*
X16455777Y-10898389D01*
X16455777Y-10898389D02*
X16446253Y-10917436D01*
X16446253Y-10917436D02*
X16436730Y-10926960D01*
X16436730Y-10926960D02*
X16417682Y-10936484D01*
X16417682Y-10936484D02*
X16389110Y-10936484D01*
X16570063Y-10936484D02*
X16551015Y-10926960D01*
X16551015Y-10926960D02*
X16541491Y-10907912D01*
X16541491Y-10907912D02*
X16541491Y-10736484D01*
X16722444Y-10926960D02*
X16703396Y-10936484D01*
X16703396Y-10936484D02*
X16665301Y-10936484D01*
X16665301Y-10936484D02*
X16646253Y-10926960D01*
X16646253Y-10926960D02*
X16636730Y-10907912D01*
X16636730Y-10907912D02*
X16636730Y-10831722D01*
X16636730Y-10831722D02*
X16646253Y-10812674D01*
X16646253Y-10812674D02*
X16665301Y-10803150D01*
X16665301Y-10803150D02*
X16703396Y-10803150D01*
X16703396Y-10803150D02*
X16722444Y-10812674D01*
X16722444Y-10812674D02*
X16731968Y-10831722D01*
X16731968Y-10831722D02*
X16731968Y-10850770D01*
X16731968Y-10850770D02*
X16636730Y-10869817D01*
X16808158Y-10926960D02*
X16827206Y-10936484D01*
X16827206Y-10936484D02*
X16865301Y-10936484D01*
X16865301Y-10936484D02*
X16884349Y-10926960D01*
X16884349Y-10926960D02*
X16893873Y-10907912D01*
X16893873Y-10907912D02*
X16893873Y-10898389D01*
X16893873Y-10898389D02*
X16884349Y-10879341D01*
X16884349Y-10879341D02*
X16865301Y-10869817D01*
X16865301Y-10869817D02*
X16836730Y-10869817D01*
X16836730Y-10869817D02*
X16817682Y-10860293D01*
X16817682Y-10860293D02*
X16808158Y-10841246D01*
X16808158Y-10841246D02*
X16808158Y-10831722D01*
X16808158Y-10831722D02*
X16817682Y-10812674D01*
X16817682Y-10812674D02*
X16836730Y-10803150D01*
X16836730Y-10803150D02*
X16865301Y-10803150D01*
X16865301Y-10803150D02*
X16884349Y-10812674D01*
X16960539Y-11012674D02*
X16970063Y-11003150D01*
X16970063Y-11003150D02*
X16989111Y-10974579D01*
X16989111Y-10974579D02*
X16998634Y-10955531D01*
X16998634Y-10955531D02*
X17008158Y-10926960D01*
X17008158Y-10926960D02*
X17017682Y-10879341D01*
X17017682Y-10879341D02*
X17017682Y-10841246D01*
X17017682Y-10841246D02*
X17008158Y-10793627D01*
X17008158Y-10793627D02*
X16998634Y-10765055D01*
X16998634Y-10765055D02*
X16989111Y-10746008D01*
X16989111Y-10746008D02*
X16970063Y-10717436D01*
X16970063Y-10717436D02*
X16960539Y-10707912D01*
D13*
X11995000Y-11109000D02*
G75*
G03*
X11995000Y-11109000I-40000J0D01*
G01*
D11*
X12293872Y-11000484D02*
X12312920Y-11000484D01*
X12312920Y-11000484D02*
X12331967Y-11010008D01*
X12331967Y-11010008D02*
X12341491Y-11019531D01*
X12341491Y-11019531D02*
X12351015Y-11038579D01*
X12351015Y-11038579D02*
X12360539Y-11076674D01*
X12360539Y-11076674D02*
X12360539Y-11124293D01*
X12360539Y-11124293D02*
X12351015Y-11162389D01*
X12351015Y-11162389D02*
X12341491Y-11181436D01*
X12341491Y-11181436D02*
X12331967Y-11190960D01*
X12331967Y-11190960D02*
X12312920Y-11200484D01*
X12312920Y-11200484D02*
X12293872Y-11200484D01*
X12293872Y-11200484D02*
X12274824Y-11190960D01*
X12274824Y-11190960D02*
X12265301Y-11181436D01*
X12265301Y-11181436D02*
X12255777Y-11162389D01*
X12255777Y-11162389D02*
X12246253Y-11124293D01*
X12246253Y-11124293D02*
X12246253Y-11076674D01*
X12246253Y-11076674D02*
X12255777Y-11038579D01*
X12255777Y-11038579D02*
X12265301Y-11019531D01*
X12265301Y-11019531D02*
X12274824Y-11010008D01*
X12274824Y-11010008D02*
X12293872Y-11000484D01*
X12446253Y-11181436D02*
X12455777Y-11190960D01*
X12455777Y-11190960D02*
X12446253Y-11200484D01*
X12446253Y-11200484D02*
X12436729Y-11190960D01*
X12436729Y-11190960D02*
X12446253Y-11181436D01*
X12446253Y-11181436D02*
X12446253Y-11200484D01*
X12570062Y-11086198D02*
X12551015Y-11076674D01*
X12551015Y-11076674D02*
X12541491Y-11067150D01*
X12541491Y-11067150D02*
X12531967Y-11048103D01*
X12531967Y-11048103D02*
X12531967Y-11038579D01*
X12531967Y-11038579D02*
X12541491Y-11019531D01*
X12541491Y-11019531D02*
X12551015Y-11010008D01*
X12551015Y-11010008D02*
X12570062Y-11000484D01*
X12570062Y-11000484D02*
X12608158Y-11000484D01*
X12608158Y-11000484D02*
X12627205Y-11010008D01*
X12627205Y-11010008D02*
X12636729Y-11019531D01*
X12636729Y-11019531D02*
X12646253Y-11038579D01*
X12646253Y-11038579D02*
X12646253Y-11048103D01*
X12646253Y-11048103D02*
X12636729Y-11067150D01*
X12636729Y-11067150D02*
X12627205Y-11076674D01*
X12627205Y-11076674D02*
X12608158Y-11086198D01*
X12608158Y-11086198D02*
X12570062Y-11086198D01*
X12570062Y-11086198D02*
X12551015Y-11095722D01*
X12551015Y-11095722D02*
X12541491Y-11105246D01*
X12541491Y-11105246D02*
X12531967Y-11124293D01*
X12531967Y-11124293D02*
X12531967Y-11162389D01*
X12531967Y-11162389D02*
X12541491Y-11181436D01*
X12541491Y-11181436D02*
X12551015Y-11190960D01*
X12551015Y-11190960D02*
X12570062Y-11200484D01*
X12570062Y-11200484D02*
X12608158Y-11200484D01*
X12608158Y-11200484D02*
X12627205Y-11190960D01*
X12627205Y-11190960D02*
X12636729Y-11181436D01*
X12636729Y-11181436D02*
X12646253Y-11162389D01*
X12646253Y-11162389D02*
X12646253Y-11124293D01*
X12646253Y-11124293D02*
X12636729Y-11105246D01*
X12636729Y-11105246D02*
X12627205Y-11095722D01*
X12627205Y-11095722D02*
X12608158Y-11086198D01*
X12770062Y-11000484D02*
X12789110Y-11000484D01*
X12789110Y-11000484D02*
X12808158Y-11010008D01*
X12808158Y-11010008D02*
X12817682Y-11019531D01*
X12817682Y-11019531D02*
X12827205Y-11038579D01*
X12827205Y-11038579D02*
X12836729Y-11076674D01*
X12836729Y-11076674D02*
X12836729Y-11124293D01*
X12836729Y-11124293D02*
X12827205Y-11162389D01*
X12827205Y-11162389D02*
X12817682Y-11181436D01*
X12817682Y-11181436D02*
X12808158Y-11190960D01*
X12808158Y-11190960D02*
X12789110Y-11200484D01*
X12789110Y-11200484D02*
X12770062Y-11200484D01*
X12770062Y-11200484D02*
X12751015Y-11190960D01*
X12751015Y-11190960D02*
X12741491Y-11181436D01*
X12741491Y-11181436D02*
X12731967Y-11162389D01*
X12731967Y-11162389D02*
X12722443Y-11124293D01*
X12722443Y-11124293D02*
X12722443Y-11076674D01*
X12722443Y-11076674D02*
X12731967Y-11038579D01*
X12731967Y-11038579D02*
X12741491Y-11019531D01*
X12741491Y-11019531D02*
X12751015Y-11010008D01*
X12751015Y-11010008D02*
X12770062Y-11000484D01*
X12960539Y-11000484D02*
X12979586Y-11000484D01*
X12979586Y-11000484D02*
X12998634Y-11010008D01*
X12998634Y-11010008D02*
X13008158Y-11019531D01*
X13008158Y-11019531D02*
X13017682Y-11038579D01*
X13017682Y-11038579D02*
X13027205Y-11076674D01*
X13027205Y-11076674D02*
X13027205Y-11124293D01*
X13027205Y-11124293D02*
X13017682Y-11162389D01*
X13017682Y-11162389D02*
X13008158Y-11181436D01*
X13008158Y-11181436D02*
X12998634Y-11190960D01*
X12998634Y-11190960D02*
X12979586Y-11200484D01*
X12979586Y-11200484D02*
X12960539Y-11200484D01*
X12960539Y-11200484D02*
X12941491Y-11190960D01*
X12941491Y-11190960D02*
X12931967Y-11181436D01*
X12931967Y-11181436D02*
X12922443Y-11162389D01*
X12922443Y-11162389D02*
X12912920Y-11124293D01*
X12912920Y-11124293D02*
X12912920Y-11076674D01*
X12912920Y-11076674D02*
X12922443Y-11038579D01*
X12922443Y-11038579D02*
X12931967Y-11019531D01*
X12931967Y-11019531D02*
X12941491Y-11010008D01*
X12941491Y-11010008D02*
X12960539Y-11000484D01*
X13112920Y-11200484D02*
X13112920Y-11067150D01*
X13112920Y-11086198D02*
X13122443Y-11076674D01*
X13122443Y-11076674D02*
X13141491Y-11067150D01*
X13141491Y-11067150D02*
X13170063Y-11067150D01*
X13170063Y-11067150D02*
X13189110Y-11076674D01*
X13189110Y-11076674D02*
X13198634Y-11095722D01*
X13198634Y-11095722D02*
X13198634Y-11200484D01*
X13198634Y-11095722D02*
X13208158Y-11076674D01*
X13208158Y-11076674D02*
X13227205Y-11067150D01*
X13227205Y-11067150D02*
X13255777Y-11067150D01*
X13255777Y-11067150D02*
X13274824Y-11076674D01*
X13274824Y-11076674D02*
X13284348Y-11095722D01*
X13284348Y-11095722D02*
X13284348Y-11200484D01*
X13379586Y-11200484D02*
X13379586Y-11067150D01*
X13379586Y-11086198D02*
X13389110Y-11076674D01*
X13389110Y-11076674D02*
X13408158Y-11067150D01*
X13408158Y-11067150D02*
X13436729Y-11067150D01*
X13436729Y-11067150D02*
X13455777Y-11076674D01*
X13455777Y-11076674D02*
X13465301Y-11095722D01*
X13465301Y-11095722D02*
X13465301Y-11200484D01*
X13465301Y-11095722D02*
X13474824Y-11076674D01*
X13474824Y-11076674D02*
X13493872Y-11067150D01*
X13493872Y-11067150D02*
X13522443Y-11067150D01*
X13522443Y-11067150D02*
X13541491Y-11076674D01*
X13541491Y-11076674D02*
X13551015Y-11095722D01*
X13551015Y-11095722D02*
X13551015Y-11200484D01*
X13941491Y-10990960D02*
X13770063Y-11248103D01*
X14198634Y-11000484D02*
X14217682Y-11000484D01*
X14217682Y-11000484D02*
X14236729Y-11010008D01*
X14236729Y-11010008D02*
X14246253Y-11019531D01*
X14246253Y-11019531D02*
X14255777Y-11038579D01*
X14255777Y-11038579D02*
X14265301Y-11076674D01*
X14265301Y-11076674D02*
X14265301Y-11124293D01*
X14265301Y-11124293D02*
X14255777Y-11162389D01*
X14255777Y-11162389D02*
X14246253Y-11181436D01*
X14246253Y-11181436D02*
X14236729Y-11190960D01*
X14236729Y-11190960D02*
X14217682Y-11200484D01*
X14217682Y-11200484D02*
X14198634Y-11200484D01*
X14198634Y-11200484D02*
X14179586Y-11190960D01*
X14179586Y-11190960D02*
X14170063Y-11181436D01*
X14170063Y-11181436D02*
X14160539Y-11162389D01*
X14160539Y-11162389D02*
X14151015Y-11124293D01*
X14151015Y-11124293D02*
X14151015Y-11076674D01*
X14151015Y-11076674D02*
X14160539Y-11038579D01*
X14160539Y-11038579D02*
X14170063Y-11019531D01*
X14170063Y-11019531D02*
X14179586Y-11010008D01*
X14179586Y-11010008D02*
X14198634Y-11000484D01*
X14351015Y-11181436D02*
X14360539Y-11190960D01*
X14360539Y-11190960D02*
X14351015Y-11200484D01*
X14351015Y-11200484D02*
X14341491Y-11190960D01*
X14341491Y-11190960D02*
X14351015Y-11181436D01*
X14351015Y-11181436D02*
X14351015Y-11200484D01*
X14484348Y-11000484D02*
X14503396Y-11000484D01*
X14503396Y-11000484D02*
X14522444Y-11010008D01*
X14522444Y-11010008D02*
X14531967Y-11019531D01*
X14531967Y-11019531D02*
X14541491Y-11038579D01*
X14541491Y-11038579D02*
X14551015Y-11076674D01*
X14551015Y-11076674D02*
X14551015Y-11124293D01*
X14551015Y-11124293D02*
X14541491Y-11162389D01*
X14541491Y-11162389D02*
X14531967Y-11181436D01*
X14531967Y-11181436D02*
X14522444Y-11190960D01*
X14522444Y-11190960D02*
X14503396Y-11200484D01*
X14503396Y-11200484D02*
X14484348Y-11200484D01*
X14484348Y-11200484D02*
X14465301Y-11190960D01*
X14465301Y-11190960D02*
X14455777Y-11181436D01*
X14455777Y-11181436D02*
X14446253Y-11162389D01*
X14446253Y-11162389D02*
X14436729Y-11124293D01*
X14436729Y-11124293D02*
X14436729Y-11076674D01*
X14436729Y-11076674D02*
X14446253Y-11038579D01*
X14446253Y-11038579D02*
X14455777Y-11019531D01*
X14455777Y-11019531D02*
X14465301Y-11010008D01*
X14465301Y-11010008D02*
X14484348Y-11000484D01*
X14617682Y-11000484D02*
X14741491Y-11000484D01*
X14741491Y-11000484D02*
X14674825Y-11076674D01*
X14674825Y-11076674D02*
X14703396Y-11076674D01*
X14703396Y-11076674D02*
X14722444Y-11086198D01*
X14722444Y-11086198D02*
X14731967Y-11095722D01*
X14731967Y-11095722D02*
X14741491Y-11114770D01*
X14741491Y-11114770D02*
X14741491Y-11162389D01*
X14741491Y-11162389D02*
X14731967Y-11181436D01*
X14731967Y-11181436D02*
X14722444Y-11190960D01*
X14722444Y-11190960D02*
X14703396Y-11200484D01*
X14703396Y-11200484D02*
X14646253Y-11200484D01*
X14646253Y-11200484D02*
X14627206Y-11190960D01*
X14627206Y-11190960D02*
X14617682Y-11181436D01*
X14931967Y-11200484D02*
X14817682Y-11200484D01*
X14874825Y-11200484D02*
X14874825Y-11000484D01*
X14874825Y-11000484D02*
X14855777Y-11029055D01*
X14855777Y-11029055D02*
X14836729Y-11048103D01*
X14836729Y-11048103D02*
X14817682Y-11057627D01*
X15112920Y-11000484D02*
X15017682Y-11000484D01*
X15017682Y-11000484D02*
X15008158Y-11095722D01*
X15008158Y-11095722D02*
X15017682Y-11086198D01*
X15017682Y-11086198D02*
X15036729Y-11076674D01*
X15036729Y-11076674D02*
X15084348Y-11076674D01*
X15084348Y-11076674D02*
X15103396Y-11086198D01*
X15103396Y-11086198D02*
X15112920Y-11095722D01*
X15112920Y-11095722D02*
X15122444Y-11114770D01*
X15122444Y-11114770D02*
X15122444Y-11162389D01*
X15122444Y-11162389D02*
X15112920Y-11181436D01*
X15112920Y-11181436D02*
X15103396Y-11190960D01*
X15103396Y-11190960D02*
X15084348Y-11200484D01*
X15084348Y-11200484D02*
X15036729Y-11200484D01*
X15036729Y-11200484D02*
X15017682Y-11190960D01*
X15017682Y-11190960D02*
X15008158Y-11181436D01*
X15198634Y-11000484D02*
X15198634Y-11038579D01*
X15274825Y-11000484D02*
X15274825Y-11038579D01*
X15570063Y-11276674D02*
X15560539Y-11267150D01*
X15560539Y-11267150D02*
X15541491Y-11238579D01*
X15541491Y-11238579D02*
X15531968Y-11219531D01*
X15531968Y-11219531D02*
X15522444Y-11190960D01*
X15522444Y-11190960D02*
X15512920Y-11143341D01*
X15512920Y-11143341D02*
X15512920Y-11105246D01*
X15512920Y-11105246D02*
X15522444Y-11057627D01*
X15522444Y-11057627D02*
X15531968Y-11029055D01*
X15531968Y-11029055D02*
X15541491Y-11010008D01*
X15541491Y-11010008D02*
X15560539Y-10981436D01*
X15560539Y-10981436D02*
X15570063Y-10971912D01*
X15751015Y-11200484D02*
X15636729Y-11200484D01*
X15693872Y-11200484D02*
X15693872Y-11000484D01*
X15693872Y-11000484D02*
X15674825Y-11029055D01*
X15674825Y-11029055D02*
X15655777Y-11048103D01*
X15655777Y-11048103D02*
X15636729Y-11057627D01*
X15922444Y-11000484D02*
X15884348Y-11000484D01*
X15884348Y-11000484D02*
X15865301Y-11010008D01*
X15865301Y-11010008D02*
X15855777Y-11019531D01*
X15855777Y-11019531D02*
X15836729Y-11048103D01*
X15836729Y-11048103D02*
X15827206Y-11086198D01*
X15827206Y-11086198D02*
X15827206Y-11162389D01*
X15827206Y-11162389D02*
X15836729Y-11181436D01*
X15836729Y-11181436D02*
X15846253Y-11190960D01*
X15846253Y-11190960D02*
X15865301Y-11200484D01*
X15865301Y-11200484D02*
X15903396Y-11200484D01*
X15903396Y-11200484D02*
X15922444Y-11190960D01*
X15922444Y-11190960D02*
X15931968Y-11181436D01*
X15931968Y-11181436D02*
X15941491Y-11162389D01*
X15941491Y-11162389D02*
X15941491Y-11114770D01*
X15941491Y-11114770D02*
X15931968Y-11095722D01*
X15931968Y-11095722D02*
X15922444Y-11086198D01*
X15922444Y-11086198D02*
X15903396Y-11076674D01*
X15903396Y-11076674D02*
X15865301Y-11076674D01*
X15865301Y-11076674D02*
X15846253Y-11086198D01*
X15846253Y-11086198D02*
X15836729Y-11095722D01*
X15836729Y-11095722D02*
X15827206Y-11114770D01*
X16179587Y-11200484D02*
X16179587Y-11000484D01*
X16265301Y-11200484D02*
X16265301Y-11095722D01*
X16265301Y-11095722D02*
X16255777Y-11076674D01*
X16255777Y-11076674D02*
X16236730Y-11067150D01*
X16236730Y-11067150D02*
X16208158Y-11067150D01*
X16208158Y-11067150D02*
X16189110Y-11076674D01*
X16189110Y-11076674D02*
X16179587Y-11086198D01*
X16389110Y-11200484D02*
X16370063Y-11190960D01*
X16370063Y-11190960D02*
X16360539Y-11181436D01*
X16360539Y-11181436D02*
X16351015Y-11162389D01*
X16351015Y-11162389D02*
X16351015Y-11105246D01*
X16351015Y-11105246D02*
X16360539Y-11086198D01*
X16360539Y-11086198D02*
X16370063Y-11076674D01*
X16370063Y-11076674D02*
X16389110Y-11067150D01*
X16389110Y-11067150D02*
X16417682Y-11067150D01*
X16417682Y-11067150D02*
X16436730Y-11076674D01*
X16436730Y-11076674D02*
X16446253Y-11086198D01*
X16446253Y-11086198D02*
X16455777Y-11105246D01*
X16455777Y-11105246D02*
X16455777Y-11162389D01*
X16455777Y-11162389D02*
X16446253Y-11181436D01*
X16446253Y-11181436D02*
X16436730Y-11190960D01*
X16436730Y-11190960D02*
X16417682Y-11200484D01*
X16417682Y-11200484D02*
X16389110Y-11200484D01*
X16570063Y-11200484D02*
X16551015Y-11190960D01*
X16551015Y-11190960D02*
X16541491Y-11171912D01*
X16541491Y-11171912D02*
X16541491Y-11000484D01*
X16722444Y-11190960D02*
X16703396Y-11200484D01*
X16703396Y-11200484D02*
X16665301Y-11200484D01*
X16665301Y-11200484D02*
X16646253Y-11190960D01*
X16646253Y-11190960D02*
X16636730Y-11171912D01*
X16636730Y-11171912D02*
X16636730Y-11095722D01*
X16636730Y-11095722D02*
X16646253Y-11076674D01*
X16646253Y-11076674D02*
X16665301Y-11067150D01*
X16665301Y-11067150D02*
X16703396Y-11067150D01*
X16703396Y-11067150D02*
X16722444Y-11076674D01*
X16722444Y-11076674D02*
X16731968Y-11095722D01*
X16731968Y-11095722D02*
X16731968Y-11114770D01*
X16731968Y-11114770D02*
X16636730Y-11133817D01*
X16808158Y-11190960D02*
X16827206Y-11200484D01*
X16827206Y-11200484D02*
X16865301Y-11200484D01*
X16865301Y-11200484D02*
X16884349Y-11190960D01*
X16884349Y-11190960D02*
X16893873Y-11171912D01*
X16893873Y-11171912D02*
X16893873Y-11162389D01*
X16893873Y-11162389D02*
X16884349Y-11143341D01*
X16884349Y-11143341D02*
X16865301Y-11133817D01*
X16865301Y-11133817D02*
X16836730Y-11133817D01*
X16836730Y-11133817D02*
X16817682Y-11124293D01*
X16817682Y-11124293D02*
X16808158Y-11105246D01*
X16808158Y-11105246D02*
X16808158Y-11095722D01*
X16808158Y-11095722D02*
X16817682Y-11076674D01*
X16817682Y-11076674D02*
X16836730Y-11067150D01*
X16836730Y-11067150D02*
X16865301Y-11067150D01*
X16865301Y-11067150D02*
X16884349Y-11076674D01*
X16960539Y-11276674D02*
X16970063Y-11267150D01*
X16970063Y-11267150D02*
X16989111Y-11238579D01*
X16989111Y-11238579D02*
X16998634Y-11219531D01*
X16998634Y-11219531D02*
X17008158Y-11190960D01*
X17008158Y-11190960D02*
X17017682Y-11143341D01*
X17017682Y-11143341D02*
X17017682Y-11105246D01*
X17017682Y-11105246D02*
X17008158Y-11057627D01*
X17008158Y-11057627D02*
X16998634Y-11029055D01*
X16998634Y-11029055D02*
X16989111Y-11010008D01*
X16989111Y-11010008D02*
X16970063Y-10981436D01*
X16970063Y-10981436D02*
X16960539Y-10971912D01*
D10*
X11945000Y-11323000D02*
X11945000Y-11423000D01*
X11895000Y-11373000D02*
X11995000Y-11373000D01*
D11*
X12360539Y-11464484D02*
X12246253Y-11464484D01*
X12303396Y-11464484D02*
X12303396Y-11264484D01*
X12303396Y-11264484D02*
X12284348Y-11293055D01*
X12284348Y-11293055D02*
X12265301Y-11312103D01*
X12265301Y-11312103D02*
X12246253Y-11321627D01*
X12446253Y-11445436D02*
X12455777Y-11454960D01*
X12455777Y-11454960D02*
X12446253Y-11464484D01*
X12446253Y-11464484D02*
X12436729Y-11454960D01*
X12436729Y-11454960D02*
X12446253Y-11445436D01*
X12446253Y-11445436D02*
X12446253Y-11464484D01*
X12579586Y-11264484D02*
X12598634Y-11264484D01*
X12598634Y-11264484D02*
X12617682Y-11274008D01*
X12617682Y-11274008D02*
X12627205Y-11283531D01*
X12627205Y-11283531D02*
X12636729Y-11302579D01*
X12636729Y-11302579D02*
X12646253Y-11340674D01*
X12646253Y-11340674D02*
X12646253Y-11388293D01*
X12646253Y-11388293D02*
X12636729Y-11426388D01*
X12636729Y-11426388D02*
X12627205Y-11445436D01*
X12627205Y-11445436D02*
X12617682Y-11454960D01*
X12617682Y-11454960D02*
X12598634Y-11464484D01*
X12598634Y-11464484D02*
X12579586Y-11464484D01*
X12579586Y-11464484D02*
X12560539Y-11454960D01*
X12560539Y-11454960D02*
X12551015Y-11445436D01*
X12551015Y-11445436D02*
X12541491Y-11426388D01*
X12541491Y-11426388D02*
X12531967Y-11388293D01*
X12531967Y-11388293D02*
X12531967Y-11340674D01*
X12531967Y-11340674D02*
X12541491Y-11302579D01*
X12541491Y-11302579D02*
X12551015Y-11283531D01*
X12551015Y-11283531D02*
X12560539Y-11274008D01*
X12560539Y-11274008D02*
X12579586Y-11264484D01*
X12770062Y-11264484D02*
X12789110Y-11264484D01*
X12789110Y-11264484D02*
X12808158Y-11274008D01*
X12808158Y-11274008D02*
X12817682Y-11283531D01*
X12817682Y-11283531D02*
X12827205Y-11302579D01*
X12827205Y-11302579D02*
X12836729Y-11340674D01*
X12836729Y-11340674D02*
X12836729Y-11388293D01*
X12836729Y-11388293D02*
X12827205Y-11426388D01*
X12827205Y-11426388D02*
X12817682Y-11445436D01*
X12817682Y-11445436D02*
X12808158Y-11454960D01*
X12808158Y-11454960D02*
X12789110Y-11464484D01*
X12789110Y-11464484D02*
X12770062Y-11464484D01*
X12770062Y-11464484D02*
X12751015Y-11454960D01*
X12751015Y-11454960D02*
X12741491Y-11445436D01*
X12741491Y-11445436D02*
X12731967Y-11426388D01*
X12731967Y-11426388D02*
X12722443Y-11388293D01*
X12722443Y-11388293D02*
X12722443Y-11340674D01*
X12722443Y-11340674D02*
X12731967Y-11302579D01*
X12731967Y-11302579D02*
X12741491Y-11283531D01*
X12741491Y-11283531D02*
X12751015Y-11274008D01*
X12751015Y-11274008D02*
X12770062Y-11264484D01*
X12960539Y-11264484D02*
X12979586Y-11264484D01*
X12979586Y-11264484D02*
X12998634Y-11274008D01*
X12998634Y-11274008D02*
X13008158Y-11283531D01*
X13008158Y-11283531D02*
X13017682Y-11302579D01*
X13017682Y-11302579D02*
X13027205Y-11340674D01*
X13027205Y-11340674D02*
X13027205Y-11388293D01*
X13027205Y-11388293D02*
X13017682Y-11426388D01*
X13017682Y-11426388D02*
X13008158Y-11445436D01*
X13008158Y-11445436D02*
X12998634Y-11454960D01*
X12998634Y-11454960D02*
X12979586Y-11464484D01*
X12979586Y-11464484D02*
X12960539Y-11464484D01*
X12960539Y-11464484D02*
X12941491Y-11454960D01*
X12941491Y-11454960D02*
X12931967Y-11445436D01*
X12931967Y-11445436D02*
X12922443Y-11426388D01*
X12922443Y-11426388D02*
X12912920Y-11388293D01*
X12912920Y-11388293D02*
X12912920Y-11340674D01*
X12912920Y-11340674D02*
X12922443Y-11302579D01*
X12922443Y-11302579D02*
X12931967Y-11283531D01*
X12931967Y-11283531D02*
X12941491Y-11274008D01*
X12941491Y-11274008D02*
X12960539Y-11264484D01*
X13112920Y-11464484D02*
X13112920Y-11331150D01*
X13112920Y-11350198D02*
X13122443Y-11340674D01*
X13122443Y-11340674D02*
X13141491Y-11331150D01*
X13141491Y-11331150D02*
X13170063Y-11331150D01*
X13170063Y-11331150D02*
X13189110Y-11340674D01*
X13189110Y-11340674D02*
X13198634Y-11359722D01*
X13198634Y-11359722D02*
X13198634Y-11464484D01*
X13198634Y-11359722D02*
X13208158Y-11340674D01*
X13208158Y-11340674D02*
X13227205Y-11331150D01*
X13227205Y-11331150D02*
X13255777Y-11331150D01*
X13255777Y-11331150D02*
X13274824Y-11340674D01*
X13274824Y-11340674D02*
X13284348Y-11359722D01*
X13284348Y-11359722D02*
X13284348Y-11464484D01*
X13379586Y-11464484D02*
X13379586Y-11331150D01*
X13379586Y-11350198D02*
X13389110Y-11340674D01*
X13389110Y-11340674D02*
X13408158Y-11331150D01*
X13408158Y-11331150D02*
X13436729Y-11331150D01*
X13436729Y-11331150D02*
X13455777Y-11340674D01*
X13455777Y-11340674D02*
X13465301Y-11359722D01*
X13465301Y-11359722D02*
X13465301Y-11464484D01*
X13465301Y-11359722D02*
X13474824Y-11340674D01*
X13474824Y-11340674D02*
X13493872Y-11331150D01*
X13493872Y-11331150D02*
X13522443Y-11331150D01*
X13522443Y-11331150D02*
X13541491Y-11340674D01*
X13541491Y-11340674D02*
X13551015Y-11359722D01*
X13551015Y-11359722D02*
X13551015Y-11464484D01*
X13941491Y-11254960D02*
X13770063Y-11512103D01*
X14198634Y-11264484D02*
X14217682Y-11264484D01*
X14217682Y-11264484D02*
X14236729Y-11274008D01*
X14236729Y-11274008D02*
X14246253Y-11283531D01*
X14246253Y-11283531D02*
X14255777Y-11302579D01*
X14255777Y-11302579D02*
X14265301Y-11340674D01*
X14265301Y-11340674D02*
X14265301Y-11388293D01*
X14265301Y-11388293D02*
X14255777Y-11426388D01*
X14255777Y-11426388D02*
X14246253Y-11445436D01*
X14246253Y-11445436D02*
X14236729Y-11454960D01*
X14236729Y-11454960D02*
X14217682Y-11464484D01*
X14217682Y-11464484D02*
X14198634Y-11464484D01*
X14198634Y-11464484D02*
X14179586Y-11454960D01*
X14179586Y-11454960D02*
X14170063Y-11445436D01*
X14170063Y-11445436D02*
X14160539Y-11426388D01*
X14160539Y-11426388D02*
X14151015Y-11388293D01*
X14151015Y-11388293D02*
X14151015Y-11340674D01*
X14151015Y-11340674D02*
X14160539Y-11302579D01*
X14160539Y-11302579D02*
X14170063Y-11283531D01*
X14170063Y-11283531D02*
X14179586Y-11274008D01*
X14179586Y-11274008D02*
X14198634Y-11264484D01*
X14351015Y-11445436D02*
X14360539Y-11454960D01*
X14360539Y-11454960D02*
X14351015Y-11464484D01*
X14351015Y-11464484D02*
X14341491Y-11454960D01*
X14341491Y-11454960D02*
X14351015Y-11445436D01*
X14351015Y-11445436D02*
X14351015Y-11464484D01*
X14484348Y-11264484D02*
X14503396Y-11264484D01*
X14503396Y-11264484D02*
X14522444Y-11274008D01*
X14522444Y-11274008D02*
X14531967Y-11283531D01*
X14531967Y-11283531D02*
X14541491Y-11302579D01*
X14541491Y-11302579D02*
X14551015Y-11340674D01*
X14551015Y-11340674D02*
X14551015Y-11388293D01*
X14551015Y-11388293D02*
X14541491Y-11426388D01*
X14541491Y-11426388D02*
X14531967Y-11445436D01*
X14531967Y-11445436D02*
X14522444Y-11454960D01*
X14522444Y-11454960D02*
X14503396Y-11464484D01*
X14503396Y-11464484D02*
X14484348Y-11464484D01*
X14484348Y-11464484D02*
X14465301Y-11454960D01*
X14465301Y-11454960D02*
X14455777Y-11445436D01*
X14455777Y-11445436D02*
X14446253Y-11426388D01*
X14446253Y-11426388D02*
X14436729Y-11388293D01*
X14436729Y-11388293D02*
X14436729Y-11340674D01*
X14436729Y-11340674D02*
X14446253Y-11302579D01*
X14446253Y-11302579D02*
X14455777Y-11283531D01*
X14455777Y-11283531D02*
X14465301Y-11274008D01*
X14465301Y-11274008D02*
X14484348Y-11264484D01*
X14617682Y-11264484D02*
X14741491Y-11264484D01*
X14741491Y-11264484D02*
X14674825Y-11340674D01*
X14674825Y-11340674D02*
X14703396Y-11340674D01*
X14703396Y-11340674D02*
X14722444Y-11350198D01*
X14722444Y-11350198D02*
X14731967Y-11359722D01*
X14731967Y-11359722D02*
X14741491Y-11378769D01*
X14741491Y-11378769D02*
X14741491Y-11426388D01*
X14741491Y-11426388D02*
X14731967Y-11445436D01*
X14731967Y-11445436D02*
X14722444Y-11454960D01*
X14722444Y-11454960D02*
X14703396Y-11464484D01*
X14703396Y-11464484D02*
X14646253Y-11464484D01*
X14646253Y-11464484D02*
X14627206Y-11454960D01*
X14627206Y-11454960D02*
X14617682Y-11445436D01*
X14836729Y-11464484D02*
X14874825Y-11464484D01*
X14874825Y-11464484D02*
X14893872Y-11454960D01*
X14893872Y-11454960D02*
X14903396Y-11445436D01*
X14903396Y-11445436D02*
X14922444Y-11416865D01*
X14922444Y-11416865D02*
X14931967Y-11378769D01*
X14931967Y-11378769D02*
X14931967Y-11302579D01*
X14931967Y-11302579D02*
X14922444Y-11283531D01*
X14922444Y-11283531D02*
X14912920Y-11274008D01*
X14912920Y-11274008D02*
X14893872Y-11264484D01*
X14893872Y-11264484D02*
X14855777Y-11264484D01*
X14855777Y-11264484D02*
X14836729Y-11274008D01*
X14836729Y-11274008D02*
X14827206Y-11283531D01*
X14827206Y-11283531D02*
X14817682Y-11302579D01*
X14817682Y-11302579D02*
X14817682Y-11350198D01*
X14817682Y-11350198D02*
X14827206Y-11369246D01*
X14827206Y-11369246D02*
X14836729Y-11378769D01*
X14836729Y-11378769D02*
X14855777Y-11388293D01*
X14855777Y-11388293D02*
X14893872Y-11388293D01*
X14893872Y-11388293D02*
X14912920Y-11378769D01*
X14912920Y-11378769D02*
X14922444Y-11369246D01*
X14922444Y-11369246D02*
X14931967Y-11350198D01*
X15103396Y-11331150D02*
X15103396Y-11464484D01*
X15055777Y-11254960D02*
X15008158Y-11397817D01*
X15008158Y-11397817D02*
X15131967Y-11397817D01*
X15198634Y-11264484D02*
X15198634Y-11302579D01*
X15274825Y-11264484D02*
X15274825Y-11302579D01*
X15570063Y-11540674D02*
X15560539Y-11531150D01*
X15560539Y-11531150D02*
X15541491Y-11502579D01*
X15541491Y-11502579D02*
X15531968Y-11483531D01*
X15531968Y-11483531D02*
X15522444Y-11454960D01*
X15522444Y-11454960D02*
X15512920Y-11407341D01*
X15512920Y-11407341D02*
X15512920Y-11369246D01*
X15512920Y-11369246D02*
X15522444Y-11321627D01*
X15522444Y-11321627D02*
X15531968Y-11293055D01*
X15531968Y-11293055D02*
X15541491Y-11274008D01*
X15541491Y-11274008D02*
X15560539Y-11245436D01*
X15560539Y-11245436D02*
X15570063Y-11235912D01*
X15731968Y-11264484D02*
X15693872Y-11264484D01*
X15693872Y-11264484D02*
X15674825Y-11274008D01*
X15674825Y-11274008D02*
X15665301Y-11283531D01*
X15665301Y-11283531D02*
X15646253Y-11312103D01*
X15646253Y-11312103D02*
X15636729Y-11350198D01*
X15636729Y-11350198D02*
X15636729Y-11426388D01*
X15636729Y-11426388D02*
X15646253Y-11445436D01*
X15646253Y-11445436D02*
X15655777Y-11454960D01*
X15655777Y-11454960D02*
X15674825Y-11464484D01*
X15674825Y-11464484D02*
X15712920Y-11464484D01*
X15712920Y-11464484D02*
X15731968Y-11454960D01*
X15731968Y-11454960D02*
X15741491Y-11445436D01*
X15741491Y-11445436D02*
X15751015Y-11426388D01*
X15751015Y-11426388D02*
X15751015Y-11378769D01*
X15751015Y-11378769D02*
X15741491Y-11359722D01*
X15741491Y-11359722D02*
X15731968Y-11350198D01*
X15731968Y-11350198D02*
X15712920Y-11340674D01*
X15712920Y-11340674D02*
X15674825Y-11340674D01*
X15674825Y-11340674D02*
X15655777Y-11350198D01*
X15655777Y-11350198D02*
X15646253Y-11359722D01*
X15646253Y-11359722D02*
X15636729Y-11378769D01*
X15989110Y-11464484D02*
X15989110Y-11264484D01*
X16074825Y-11464484D02*
X16074825Y-11359722D01*
X16074825Y-11359722D02*
X16065301Y-11340674D01*
X16065301Y-11340674D02*
X16046253Y-11331150D01*
X16046253Y-11331150D02*
X16017682Y-11331150D01*
X16017682Y-11331150D02*
X15998634Y-11340674D01*
X15998634Y-11340674D02*
X15989110Y-11350198D01*
X16198634Y-11464484D02*
X16179587Y-11454960D01*
X16179587Y-11454960D02*
X16170063Y-11445436D01*
X16170063Y-11445436D02*
X16160539Y-11426388D01*
X16160539Y-11426388D02*
X16160539Y-11369246D01*
X16160539Y-11369246D02*
X16170063Y-11350198D01*
X16170063Y-11350198D02*
X16179587Y-11340674D01*
X16179587Y-11340674D02*
X16198634Y-11331150D01*
X16198634Y-11331150D02*
X16227206Y-11331150D01*
X16227206Y-11331150D02*
X16246253Y-11340674D01*
X16246253Y-11340674D02*
X16255777Y-11350198D01*
X16255777Y-11350198D02*
X16265301Y-11369246D01*
X16265301Y-11369246D02*
X16265301Y-11426388D01*
X16265301Y-11426388D02*
X16255777Y-11445436D01*
X16255777Y-11445436D02*
X16246253Y-11454960D01*
X16246253Y-11454960D02*
X16227206Y-11464484D01*
X16227206Y-11464484D02*
X16198634Y-11464484D01*
X16379587Y-11464484D02*
X16360539Y-11454960D01*
X16360539Y-11454960D02*
X16351015Y-11435912D01*
X16351015Y-11435912D02*
X16351015Y-11264484D01*
X16531968Y-11454960D02*
X16512920Y-11464484D01*
X16512920Y-11464484D02*
X16474825Y-11464484D01*
X16474825Y-11464484D02*
X16455777Y-11454960D01*
X16455777Y-11454960D02*
X16446253Y-11435912D01*
X16446253Y-11435912D02*
X16446253Y-11359722D01*
X16446253Y-11359722D02*
X16455777Y-11340674D01*
X16455777Y-11340674D02*
X16474825Y-11331150D01*
X16474825Y-11331150D02*
X16512920Y-11331150D01*
X16512920Y-11331150D02*
X16531968Y-11340674D01*
X16531968Y-11340674D02*
X16541491Y-11359722D01*
X16541491Y-11359722D02*
X16541491Y-11378769D01*
X16541491Y-11378769D02*
X16446253Y-11397817D01*
X16617682Y-11454960D02*
X16636730Y-11464484D01*
X16636730Y-11464484D02*
X16674825Y-11464484D01*
X16674825Y-11464484D02*
X16693872Y-11454960D01*
X16693872Y-11454960D02*
X16703396Y-11435912D01*
X16703396Y-11435912D02*
X16703396Y-11426388D01*
X16703396Y-11426388D02*
X16693872Y-11407341D01*
X16693872Y-11407341D02*
X16674825Y-11397817D01*
X16674825Y-11397817D02*
X16646253Y-11397817D01*
X16646253Y-11397817D02*
X16627206Y-11388293D01*
X16627206Y-11388293D02*
X16617682Y-11369246D01*
X16617682Y-11369246D02*
X16617682Y-11359722D01*
X16617682Y-11359722D02*
X16627206Y-11340674D01*
X16627206Y-11340674D02*
X16646253Y-11331150D01*
X16646253Y-11331150D02*
X16674825Y-11331150D01*
X16674825Y-11331150D02*
X16693872Y-11340674D01*
X16770063Y-11540674D02*
X16779587Y-11531150D01*
X16779587Y-11531150D02*
X16798634Y-11502579D01*
X16798634Y-11502579D02*
X16808158Y-11483531D01*
X16808158Y-11483531D02*
X16817682Y-11454960D01*
X16817682Y-11454960D02*
X16827206Y-11407341D01*
X16827206Y-11407341D02*
X16827206Y-11369246D01*
X16827206Y-11369246D02*
X16817682Y-11321627D01*
X16817682Y-11321627D02*
X16808158Y-11293055D01*
X16808158Y-11293055D02*
X16798634Y-11274008D01*
X16798634Y-11274008D02*
X16779587Y-11245436D01*
X16779587Y-11245436D02*
X16770063Y-11235912D01*
M02*
