%TF.GenerationSoftware,KiCad,Pcbnew,7.0.6*%
%TF.CreationDate,2023-09-28T21:06:28-04:00*%
%TF.ProjectId,Welder_Knob,57656c64-6572-45f4-9b6e-6f622e6b6963,rev?*%
%TF.SameCoordinates,Original*%
%TF.FileFunction,Soldermask,Top*%
%TF.FilePolarity,Negative*%
%FSLAX46Y46*%
G04 Gerber Fmt 4.6, Leading zero omitted, Abs format (unit mm)*
G04 Created by KiCad (PCBNEW 7.0.6) date 2023-09-28 21:06:28*
%MOMM*%
%LPD*%
G01*
G04 APERTURE LIST*
G04 Aperture macros list*
%AMRoundRect*
0 Rectangle with rounded corners*
0 $1 Rounding radius*
0 $2 $3 $4 $5 $6 $7 $8 $9 X,Y pos of 4 corners*
0 Add a 4 corners polygon primitive as box body*
4,1,4,$2,$3,$4,$5,$6,$7,$8,$9,$2,$3,0*
0 Add four circle primitives for the rounded corners*
1,1,$1+$1,$2,$3*
1,1,$1+$1,$4,$5*
1,1,$1+$1,$6,$7*
1,1,$1+$1,$8,$9*
0 Add four rect primitives between the rounded corners*
20,1,$1+$1,$2,$3,$4,$5,0*
20,1,$1+$1,$4,$5,$6,$7,0*
20,1,$1+$1,$6,$7,$8,$9,0*
20,1,$1+$1,$8,$9,$2,$3,0*%
G04 Aperture macros list end*
%ADD10R,2.400000X0.740000*%
%ADD11R,1.600000X1.600000*%
%ADD12O,1.600000X1.600000*%
%ADD13RoundRect,0.250000X0.475000X-0.250000X0.475000X0.250000X-0.475000X0.250000X-0.475000X-0.250000X0*%
%ADD14R,0.750000X0.700000*%
%ADD15RoundRect,0.135000X0.135000X0.185000X-0.135000X0.185000X-0.135000X-0.185000X0.135000X-0.185000X0*%
%ADD16RoundRect,0.140000X0.170000X-0.140000X0.170000X0.140000X-0.170000X0.140000X-0.170000X-0.140000X0*%
%ADD17RoundRect,0.250000X-0.250000X-0.475000X0.250000X-0.475000X0.250000X0.475000X-0.250000X0.475000X0*%
%ADD18RoundRect,0.140000X-0.170000X0.140000X-0.170000X-0.140000X0.170000X-0.140000X0.170000X0.140000X0*%
%ADD19R,0.800000X0.400000*%
%ADD20R,0.400000X0.800000*%
%ADD21R,4.000000X4.000000*%
%ADD22RoundRect,0.225000X-0.250000X0.225000X-0.250000X-0.225000X0.250000X-0.225000X0.250000X0.225000X0*%
%ADD23RoundRect,0.135000X-0.135000X-0.185000X0.135000X-0.185000X0.135000X0.185000X-0.135000X0.185000X0*%
%ADD24RoundRect,0.135000X-0.185000X0.135000X-0.185000X-0.135000X0.185000X-0.135000X0.185000X0.135000X0*%
%ADD25R,1.700000X1.700000*%
%ADD26O,1.700000X1.700000*%
%ADD27R,2.350000X3.500000*%
%ADD28RoundRect,0.250000X1.500000X0.550000X-1.500000X0.550000X-1.500000X-0.550000X1.500000X-0.550000X0*%
%ADD29RoundRect,0.150000X0.512500X0.150000X-0.512500X0.150000X-0.512500X-0.150000X0.512500X-0.150000X0*%
%ADD30RoundRect,0.135000X0.185000X-0.135000X0.185000X0.135000X-0.185000X0.135000X-0.185000X-0.135000X0*%
G04 APERTURE END LIST*
D10*
%TO.C,J8*%
X158450000Y-94270000D03*
X154550000Y-94270000D03*
X158450000Y-93000000D03*
X154550000Y-93000000D03*
X158450000Y-91730000D03*
X154550000Y-91730000D03*
%TD*%
D11*
%TO.C,A7*%
X126660000Y-62300000D03*
D12*
X126660000Y-64840000D03*
X126660000Y-67380000D03*
X126660000Y-69920000D03*
X126660000Y-72460000D03*
X126660000Y-75000000D03*
X126660000Y-77540000D03*
X126660000Y-80080000D03*
X139360000Y-80080000D03*
X139360000Y-77540000D03*
X139360000Y-75000000D03*
X139360000Y-72460000D03*
X139360000Y-69920000D03*
X139360000Y-67380000D03*
X139360000Y-64840000D03*
X139360000Y-62300000D03*
%TD*%
D13*
%TO.C,C11*%
X142500000Y-76430000D03*
X142500000Y-74530000D03*
%TD*%
%TO.C,C10*%
X136750000Y-94450000D03*
X136750000Y-92550000D03*
%TD*%
%TO.C,C9*%
X134800000Y-94450000D03*
X134800000Y-92550000D03*
%TD*%
D14*
%TO.C,SW7*%
X147125000Y-92500000D03*
X147125000Y-88000000D03*
X149275000Y-92500000D03*
X149275000Y-88000000D03*
%TD*%
D15*
%TO.C,R11*%
X144010000Y-70000000D03*
X142990000Y-70000000D03*
%TD*%
D16*
%TO.C,C13*%
X145000000Y-79450000D03*
X145000000Y-78490000D03*
%TD*%
D17*
%TO.C,D7*%
X142650000Y-65540000D03*
X144550000Y-65540000D03*
%TD*%
D16*
%TO.C,C12*%
X143940000Y-75960000D03*
X143940000Y-75000000D03*
%TD*%
D18*
%TO.C,C14*%
X150500000Y-91520000D03*
X150500000Y-92480000D03*
%TD*%
D19*
%TO.C,IC7*%
X147700000Y-74150000D03*
X147700000Y-74950000D03*
X147700000Y-75750000D03*
X147700000Y-76550000D03*
X147700000Y-77350000D03*
X147700000Y-78150000D03*
X147700000Y-78950000D03*
X147700000Y-79750000D03*
X147700000Y-80550000D03*
X147700000Y-81350000D03*
X147700000Y-82150000D03*
X147700000Y-82950000D03*
X147700000Y-83750000D03*
D20*
X148400000Y-85000000D03*
X149200000Y-85000000D03*
X150000000Y-85000000D03*
X150800000Y-85000000D03*
X151600000Y-85000000D03*
X152400000Y-85000000D03*
X153200000Y-85000000D03*
X154000000Y-85000000D03*
X154800000Y-85000000D03*
X155600000Y-85000000D03*
X156400000Y-85000000D03*
X157200000Y-85000000D03*
X158000000Y-85000000D03*
X158800000Y-85000000D03*
D19*
X159500000Y-83750000D03*
X159500000Y-82950000D03*
X159500000Y-82150000D03*
X159500000Y-81350000D03*
X159500000Y-80550000D03*
X159500000Y-79750000D03*
X159500000Y-78950000D03*
X159500000Y-78150000D03*
X159500000Y-77350000D03*
X159500000Y-76550000D03*
X159500000Y-75750000D03*
X159500000Y-74950000D03*
X159500000Y-74150000D03*
D20*
X158800000Y-72900000D03*
X158000000Y-72900000D03*
X157200000Y-72900000D03*
X156400000Y-72900000D03*
X155600000Y-72900000D03*
X154800000Y-72900000D03*
X154000000Y-72900000D03*
X153200000Y-72900000D03*
X152400000Y-72900000D03*
X151600000Y-72900000D03*
X150800000Y-72900000D03*
X150000000Y-72900000D03*
X149200000Y-72900000D03*
X148400000Y-72900000D03*
D21*
X153600000Y-78950000D03*
%TD*%
D22*
%TO.C,C7*%
X133600000Y-89525000D03*
X133600000Y-91075000D03*
%TD*%
D23*
%TO.C,R7*%
X125990000Y-90000000D03*
X127010000Y-90000000D03*
%TD*%
D24*
%TO.C,R10*%
X143500000Y-78490000D03*
X143500000Y-79510000D03*
%TD*%
D25*
%TO.C,J9*%
X122500000Y-67460000D03*
D26*
X122500000Y-70000000D03*
X122500000Y-72540000D03*
X122500000Y-75080000D03*
%TD*%
D18*
%TO.C,C8*%
X127000000Y-92520000D03*
X127000000Y-93480000D03*
%TD*%
D17*
%TO.C,D8*%
X142650000Y-67950000D03*
X144550000Y-67950000D03*
%TD*%
D27*
%TO.C,L7*%
X126887500Y-97500000D03*
X132937500Y-97500000D03*
%TD*%
D28*
%TO.C,C16*%
X142800000Y-86500000D03*
X137200000Y-86500000D03*
%TD*%
D25*
%TO.C,J7*%
X143490000Y-96325000D03*
D26*
X140950000Y-96325000D03*
%TD*%
D29*
%TO.C,U7*%
X131637500Y-92450000D03*
X131637500Y-91500000D03*
X131637500Y-90550000D03*
X129362500Y-90550000D03*
X129362500Y-91500000D03*
X129362500Y-92450000D03*
%TD*%
D14*
%TO.C,SW8*%
X147075000Y-100150000D03*
X147075000Y-95650000D03*
X149225000Y-100150000D03*
X149225000Y-95650000D03*
%TD*%
D30*
%TO.C,R8*%
X127500000Y-89010000D03*
X127500000Y-87990000D03*
%TD*%
D23*
%TO.C,R9*%
X143000000Y-63500000D03*
X144020000Y-63500000D03*
%TD*%
M02*
