%TF.GenerationSoftware,KiCad,Pcbnew,7.0.6*%
%TF.CreationDate,2023-09-28T21:06:28-04:00*%
%TF.ProjectId,Welder_Knob,57656c64-6572-45f4-9b6e-6f622e6b6963,rev?*%
%TF.SameCoordinates,Original*%
%TF.FileFunction,Copper,L2,Bot*%
%TF.FilePolarity,Positive*%
%FSLAX46Y46*%
G04 Gerber Fmt 4.6, Leading zero omitted, Abs format (unit mm)*
G04 Created by KiCad (PCBNEW 7.0.6) date 2023-09-28 21:06:28*
%MOMM*%
%LPD*%
G01*
G04 APERTURE LIST*
%TA.AperFunction,ComponentPad*%
%ADD10R,1.600000X1.600000*%
%TD*%
%TA.AperFunction,ComponentPad*%
%ADD11O,1.600000X1.600000*%
%TD*%
%TA.AperFunction,ComponentPad*%
%ADD12R,1.700000X1.700000*%
%TD*%
%TA.AperFunction,ComponentPad*%
%ADD13O,1.700000X1.700000*%
%TD*%
%TA.AperFunction,ViaPad*%
%ADD14C,0.800000*%
%TD*%
%TA.AperFunction,Conductor*%
%ADD15C,0.400000*%
%TD*%
%TA.AperFunction,Conductor*%
%ADD16C,1.500000*%
%TD*%
%TA.AperFunction,Conductor*%
%ADD17C,0.200000*%
%TD*%
G04 APERTURE END LIST*
D10*
%TO.P,A7,1,GND*%
%TO.N,GND*%
X126660000Y-62300000D03*
D11*
%TO.P,A7,2,VDD*%
%TO.N,+3.3V*%
X126660000Y-64840000D03*
%TO.P,A7,3,1B*%
%TO.N,M_1B*%
X126660000Y-67380000D03*
%TO.P,A7,4,1A*%
%TO.N,M_1A*%
X126660000Y-69920000D03*
%TO.P,A7,5,2A*%
%TO.N,M_2A*%
X126660000Y-72460000D03*
%TO.P,A7,6,2B*%
%TO.N,M_2B*%
X126660000Y-75000000D03*
%TO.P,A7,7,GND*%
%TO.N,GND*%
X126660000Y-77540000D03*
%TO.P,A7,8,VMOT*%
%TO.N,+12V*%
X126660000Y-80080000D03*
%TO.P,A7,9,~{ENABLE}*%
%TO.N,MOT_EN*%
X139360000Y-80080000D03*
%TO.P,A7,10,MS1*%
%TO.N,MS1*%
X139360000Y-77540000D03*
%TO.P,A7,11,MS2*%
%TO.N,MS2*%
X139360000Y-75000000D03*
%TO.P,A7,12,MS3*%
%TO.N,MS3*%
X139360000Y-72460000D03*
%TO.P,A7,13,~{RESET}*%
%TO.N,MOT_RST*%
X139360000Y-69920000D03*
%TO.P,A7,14,~{SLEEP}*%
%TO.N,MOT_SLEEP*%
X139360000Y-67380000D03*
%TO.P,A7,15,STEP*%
%TO.N,MOT_STEP*%
X139360000Y-64840000D03*
%TO.P,A7,16,DIR*%
%TO.N,MOT_DIR*%
X139360000Y-62300000D03*
%TD*%
D12*
%TO.P,J9,1,Pin_1*%
%TO.N,M_1B*%
X122500000Y-67460000D03*
D13*
%TO.P,J9,2,Pin_2*%
%TO.N,M_1A*%
X122500000Y-70000000D03*
%TO.P,J9,3,Pin_3*%
%TO.N,M_2A*%
X122500000Y-72540000D03*
%TO.P,J9,4,Pin_4*%
%TO.N,M_2B*%
X122500000Y-75080000D03*
%TD*%
D12*
%TO.P,J7,1,Pin_1*%
%TO.N,+12V*%
X143490000Y-96325000D03*
D13*
%TO.P,J7,2,Pin_2*%
%TO.N,GND*%
X140950000Y-96325000D03*
%TD*%
D14*
%TO.N,GND*%
X143800000Y-90050000D03*
X140100000Y-94300000D03*
X139300000Y-94500000D03*
X139500000Y-93700000D03*
X147000000Y-89000000D03*
X138900000Y-93100000D03*
X141183724Y-76794480D03*
X144000000Y-77250000D03*
X143400000Y-88650000D03*
X144000000Y-89250000D03*
X142600000Y-88850000D03*
X138300000Y-92500000D03*
X128750000Y-87750000D03*
X138700000Y-93900000D03*
X144600000Y-89850000D03*
X138100000Y-93300000D03*
X142800000Y-88050000D03*
X143200000Y-89450000D03*
%TO.N,+3.3V*%
X135200000Y-95700000D03*
X141250000Y-66000000D03*
X125000000Y-90000000D03*
X145250000Y-76000000D03*
%TO.N,MOT_EN*%
X158000000Y-81250000D03*
%TO.N,MOT_RST*%
X147500000Y-85000000D03*
%TO.N,MOT_SLEEP*%
X158600000Y-79800000D03*
X137750000Y-79000000D03*
%TO.N,MOT_STEP*%
X156500000Y-75500000D03*
%TO.N,MOT_DIR*%
X157500000Y-74500000D03*
%TO.N,ESP_EN*%
X156500000Y-91750000D03*
X151000000Y-86500000D03*
X150800000Y-83800000D03*
X149500000Y-91250000D03*
%TO.N,Button*%
X150750000Y-95000000D03*
X158500000Y-83000000D03*
%TO.N,S_LED*%
X149750000Y-74250000D03*
X149750000Y-71500000D03*
%TO.N,ESP_RXD*%
X158250000Y-77750000D03*
X160000000Y-90250000D03*
%TO.N,ESP_TXD*%
X160750000Y-92250000D03*
X158250000Y-76750000D03*
%TO.N,MS1*%
X149000000Y-81600000D03*
%TO.N,MS2*%
X145200000Y-82000000D03*
%TO.N,MS3*%
X145200000Y-80600000D03*
%TD*%
D15*
%TO.N,GND*%
X141639244Y-77250000D02*
X144000000Y-77250000D01*
X141183724Y-76794480D02*
X141639244Y-77250000D01*
X144850000Y-89000000D02*
X143800000Y-90050000D01*
X135500000Y-87750000D02*
X139750000Y-92000000D01*
X128750000Y-87750000D02*
X135500000Y-87750000D01*
X147000000Y-89000000D02*
X144850000Y-89000000D01*
%TO.N,+3.3V*%
X135200000Y-95700000D02*
X135200000Y-91100000D01*
X145250000Y-76000000D02*
X145250000Y-75500000D01*
X134100000Y-90000000D02*
X125000000Y-90000000D01*
X141250000Y-71500000D02*
X141250000Y-66000000D01*
X145250000Y-75500000D02*
X141250000Y-71500000D01*
X135200000Y-91100000D02*
X134100000Y-90000000D01*
D16*
%TO.N,M_1B*%
X122500000Y-67460000D02*
X126580000Y-67460000D01*
D15*
X126580000Y-67460000D02*
X126660000Y-67380000D01*
D16*
%TO.N,M_1A*%
X126660000Y-69920000D02*
X122580000Y-69920000D01*
D15*
X122580000Y-69920000D02*
X122500000Y-70000000D01*
D16*
%TO.N,M_2A*%
X122500000Y-72540000D02*
X126580000Y-72540000D01*
D15*
X126580000Y-72540000D02*
X126660000Y-72460000D01*
D16*
%TO.N,M_2B*%
X126660000Y-75000000D02*
X122580000Y-75000000D01*
D15*
X122580000Y-75000000D02*
X122500000Y-75080000D01*
D17*
%TO.N,MOT_EN*%
X149000000Y-83800000D02*
X150400000Y-82400000D01*
X139360000Y-80080000D02*
X139360000Y-80960000D01*
X156850000Y-82400000D02*
X158000000Y-81250000D01*
X150400000Y-82400000D02*
X156850000Y-82400000D01*
X139360000Y-80960000D02*
X142200000Y-83800000D01*
X142200000Y-83800000D02*
X149000000Y-83800000D01*
%TO.N,MOT_RST*%
X137050000Y-77950000D02*
X137050000Y-72230000D01*
X142158679Y-85000000D02*
X137000000Y-79841321D01*
X137000000Y-79841321D02*
X137000000Y-78000000D01*
X137050000Y-72230000D02*
X139360000Y-69920000D01*
X147500000Y-85000000D02*
X142158679Y-85000000D01*
X137000000Y-78000000D02*
X137050000Y-77950000D01*
%TO.N,MOT_SLEEP*%
X150810050Y-82800000D02*
X157710050Y-82800000D01*
X158800000Y-79800000D02*
X158600000Y-79800000D01*
X137750000Y-80025635D02*
X141924365Y-84200000D01*
X159000000Y-80000000D02*
X158800000Y-79800000D01*
X157710050Y-82800000D02*
X159000000Y-81510050D01*
X141924365Y-84200000D02*
X149410050Y-84200000D01*
X149410050Y-84200000D02*
X150810050Y-82800000D01*
X159000000Y-81510050D02*
X159000000Y-80000000D01*
X137750000Y-79000000D02*
X137750000Y-80025635D01*
%TO.N,MOT_STEP*%
X154840000Y-64840000D02*
X156500000Y-66500000D01*
X139360000Y-64840000D02*
X154840000Y-64840000D01*
X156500000Y-66500000D02*
X156500000Y-75500000D01*
%TO.N,MOT_DIR*%
X157500000Y-65750000D02*
X153250001Y-61500001D01*
X157500000Y-74500000D02*
X157500000Y-65750000D01*
X140159999Y-61500001D02*
X139360000Y-62300000D01*
X153250001Y-61500001D02*
X140159999Y-61500001D01*
%TO.N,ESP_EN*%
X156500000Y-91750000D02*
X150000000Y-91750000D01*
X150800000Y-86300000D02*
X150800000Y-83800000D01*
X150000000Y-91750000D02*
X149500000Y-91250000D01*
X151000000Y-86500000D02*
X150800000Y-86300000D01*
%TO.N,Button*%
X151250000Y-94500000D02*
X157250000Y-94500000D01*
X159250000Y-92500000D02*
X159250000Y-83750000D01*
X150750000Y-95000000D02*
X151250000Y-94500000D01*
X159250000Y-83750000D02*
X158500000Y-83000000D01*
X157250000Y-94500000D02*
X159250000Y-92500000D01*
%TO.N,S_LED*%
X149750000Y-71500000D02*
X149750000Y-74250000D01*
%TO.N,ESP_RXD*%
X160250000Y-79750000D02*
X158250000Y-77750000D01*
X160250000Y-90000000D02*
X160250000Y-79750000D01*
X160000000Y-90250000D02*
X160250000Y-90000000D01*
%TO.N,ESP_TXD*%
X158250000Y-76750000D02*
X160750000Y-79250000D01*
X160750000Y-79250000D02*
X160750000Y-92250000D01*
%TO.N,MS1*%
X144820000Y-83000000D02*
X147600000Y-83000000D01*
X139360000Y-77540000D02*
X144820000Y-83000000D01*
X147600000Y-83000000D02*
X149000000Y-81600000D01*
%TO.N,MS2*%
X145200000Y-81800000D02*
X145200000Y-82000000D01*
X140200000Y-76800000D02*
X145200000Y-81800000D01*
X139360000Y-75000000D02*
X140200000Y-75840000D01*
X140200000Y-75840000D02*
X140200000Y-76800000D01*
%TO.N,MS3*%
X144030025Y-76230025D02*
X144000000Y-76260050D01*
X139360000Y-72460000D02*
X140260000Y-72460000D01*
X144700000Y-76960050D02*
X144700000Y-80300000D01*
X140260000Y-72460000D02*
X144030025Y-76230025D01*
X144000000Y-76260050D02*
X144700000Y-76960050D01*
X144700000Y-80300000D02*
X145000000Y-80600000D01*
%TD*%
%TA.AperFunction,Conductor*%
%TO.N,GND*%
G36*
X145250000Y-89750000D02*
G01*
X145250000Y-90250000D01*
X140500000Y-95000000D01*
X139000000Y-95000000D01*
X137500000Y-93500000D01*
X137500000Y-92250000D01*
X142250000Y-87500000D01*
X143000000Y-87500000D01*
X145250000Y-89750000D01*
G37*
%TD.AperFunction*%
%TD*%
%TA.AperFunction,Conductor*%
%TO.N,GND*%
G36*
X145943039Y-60020185D02*
G01*
X145988794Y-60072989D01*
X146000000Y-60124500D01*
X146000000Y-61075501D01*
X145980315Y-61142540D01*
X145927511Y-61188295D01*
X145876000Y-61199501D01*
X140222840Y-61199501D01*
X140214266Y-61198906D01*
X140202237Y-61197228D01*
X140202234Y-61197228D01*
X140177218Y-61198384D01*
X140154489Y-61199435D01*
X140151626Y-61199501D01*
X140132155Y-61199501D01*
X140132150Y-61199501D01*
X140132148Y-61199502D01*
X140129514Y-61199994D01*
X140120984Y-61200983D01*
X140090005Y-61202416D01*
X140090003Y-61202416D01*
X140083657Y-61205218D01*
X140056384Y-61213664D01*
X140049569Y-61214938D01*
X140049565Y-61214940D01*
X140023203Y-61231262D01*
X140015602Y-61235268D01*
X139987234Y-61247794D01*
X139982331Y-61252697D01*
X139959935Y-61270436D01*
X139954049Y-61274080D01*
X139954044Y-61274085D01*
X139935361Y-61298825D01*
X139929719Y-61305308D01*
X139887380Y-61347647D01*
X139826057Y-61381132D01*
X139756365Y-61376148D01*
X139750386Y-61373451D01*
X139750359Y-61373518D01*
X139744739Y-61371190D01*
X139744728Y-61371186D01*
X139744727Y-61371186D01*
X139593851Y-61325418D01*
X139556129Y-61313975D01*
X139360000Y-61294659D01*
X139163870Y-61313975D01*
X138975266Y-61371188D01*
X138801467Y-61464086D01*
X138801460Y-61464090D01*
X138649116Y-61589116D01*
X138524090Y-61741460D01*
X138524086Y-61741467D01*
X138431188Y-61915266D01*
X138373975Y-62103870D01*
X138354659Y-62300000D01*
X138373975Y-62496129D01*
X138373976Y-62496132D01*
X138430652Y-62682968D01*
X138431188Y-62684733D01*
X138524086Y-62858532D01*
X138524090Y-62858539D01*
X138649116Y-63010883D01*
X138801460Y-63135909D01*
X138801467Y-63135913D01*
X138975266Y-63228811D01*
X138975269Y-63228811D01*
X138975273Y-63228814D01*
X139163868Y-63286024D01*
X139360000Y-63305341D01*
X139556132Y-63286024D01*
X139744727Y-63228814D01*
X139918538Y-63135910D01*
X140070883Y-63010883D01*
X140195910Y-62858538D01*
X140288814Y-62684727D01*
X140346024Y-62496132D01*
X140365341Y-62300000D01*
X140346024Y-62103868D01*
X140302531Y-61960494D01*
X140301909Y-61890630D01*
X140339157Y-61831517D01*
X140402451Y-61801926D01*
X140421193Y-61800501D01*
X145876000Y-61800501D01*
X145943039Y-61820186D01*
X145988794Y-61872990D01*
X146000000Y-61924501D01*
X146000000Y-64415500D01*
X145980315Y-64482539D01*
X145927511Y-64528294D01*
X145876000Y-64539500D01*
X140406328Y-64539500D01*
X140339289Y-64519815D01*
X140293534Y-64467011D01*
X140291212Y-64460868D01*
X140291144Y-64460897D01*
X140288814Y-64455273D01*
X140195913Y-64281467D01*
X140195909Y-64281460D01*
X140070883Y-64129116D01*
X139918539Y-64004090D01*
X139918532Y-64004086D01*
X139744733Y-63911188D01*
X139744727Y-63911186D01*
X139556132Y-63853976D01*
X139556129Y-63853975D01*
X139360000Y-63834659D01*
X139163870Y-63853975D01*
X138975266Y-63911188D01*
X138801467Y-64004086D01*
X138801460Y-64004090D01*
X138649116Y-64129116D01*
X138524090Y-64281460D01*
X138524086Y-64281467D01*
X138431188Y-64455266D01*
X138373975Y-64643870D01*
X138354659Y-64840000D01*
X138373975Y-65036129D01*
X138373976Y-65036132D01*
X138405973Y-65141613D01*
X138431188Y-65224733D01*
X138524086Y-65398532D01*
X138524090Y-65398539D01*
X138649116Y-65550883D01*
X138801460Y-65675909D01*
X138801467Y-65675913D01*
X138975266Y-65768811D01*
X138975269Y-65768811D01*
X138975273Y-65768814D01*
X139163868Y-65826024D01*
X139360000Y-65845341D01*
X139556132Y-65826024D01*
X139744727Y-65768814D01*
X139918538Y-65675910D01*
X140070883Y-65550883D01*
X140195910Y-65398538D01*
X140288814Y-65224727D01*
X140288815Y-65224723D01*
X140291144Y-65219103D01*
X140293260Y-65219979D01*
X140325945Y-65170083D01*
X140389751Y-65141613D01*
X140406328Y-65140500D01*
X145876000Y-65140500D01*
X145943039Y-65160185D01*
X145988794Y-65212989D01*
X146000000Y-65264500D01*
X146000000Y-72000000D01*
X149325500Y-72000000D01*
X149392539Y-72019685D01*
X149438294Y-72072489D01*
X149449500Y-72124000D01*
X149449500Y-73662518D01*
X149429815Y-73729557D01*
X149400986Y-73760894D01*
X149321719Y-73821716D01*
X149225463Y-73947160D01*
X149164956Y-74093237D01*
X149164955Y-74093239D01*
X149144318Y-74249998D01*
X149144318Y-74250001D01*
X149164955Y-74406760D01*
X149164956Y-74406762D01*
X149203576Y-74500000D01*
X149225464Y-74552841D01*
X149321718Y-74678282D01*
X149447159Y-74774536D01*
X149593238Y-74835044D01*
X149671619Y-74845363D01*
X149749999Y-74855682D01*
X149750000Y-74855682D01*
X149750001Y-74855682D01*
X149802254Y-74848802D01*
X149906762Y-74835044D01*
X150052841Y-74774536D01*
X150178282Y-74678282D01*
X150274536Y-74552841D01*
X150335044Y-74406762D01*
X150355682Y-74250000D01*
X150349404Y-74202317D01*
X150335044Y-74093239D01*
X150335044Y-74093238D01*
X150274536Y-73947159D01*
X150178282Y-73821718D01*
X150178280Y-73821717D01*
X150178280Y-73821716D01*
X150099014Y-73760894D01*
X150057811Y-73704466D01*
X150050500Y-73662518D01*
X150050500Y-72124000D01*
X150070185Y-72056961D01*
X150122989Y-72011206D01*
X150174500Y-72000000D01*
X156075500Y-72000000D01*
X156142539Y-72019685D01*
X156188294Y-72072489D01*
X156199500Y-72124000D01*
X156199500Y-74912518D01*
X156179815Y-74979557D01*
X156150986Y-75010894D01*
X156071719Y-75071716D01*
X155975463Y-75197160D01*
X155914956Y-75343237D01*
X155914955Y-75343239D01*
X155894318Y-75499998D01*
X155894318Y-75500001D01*
X155914955Y-75656760D01*
X155914956Y-75656762D01*
X155975464Y-75802841D01*
X156071718Y-75928282D01*
X156197159Y-76024536D01*
X156343238Y-76085044D01*
X156406040Y-76093312D01*
X156499999Y-76105682D01*
X156500000Y-76105682D01*
X156500001Y-76105682D01*
X156554986Y-76098443D01*
X156656762Y-76085044D01*
X156802841Y-76024536D01*
X156928282Y-75928282D01*
X157024536Y-75802841D01*
X157085044Y-75656762D01*
X157105682Y-75500000D01*
X157101532Y-75468481D01*
X157090506Y-75384727D01*
X157085044Y-75343238D01*
X157024536Y-75197159D01*
X157024534Y-75197156D01*
X157020472Y-75190119D01*
X157023228Y-75188527D01*
X157003429Y-75137320D01*
X157017465Y-75068875D01*
X157066278Y-75018884D01*
X157134369Y-75003218D01*
X157188787Y-75022778D01*
X157190119Y-75020472D01*
X157197157Y-75024534D01*
X157197159Y-75024536D01*
X157343238Y-75085044D01*
X157421619Y-75095363D01*
X157499999Y-75105682D01*
X157500000Y-75105682D01*
X157500001Y-75105682D01*
X157552254Y-75098802D01*
X157656762Y-75085044D01*
X157802841Y-75024536D01*
X157928282Y-74928282D01*
X158024536Y-74802841D01*
X158085044Y-74656762D01*
X158105682Y-74500000D01*
X158104832Y-74493547D01*
X158085044Y-74343239D01*
X158085044Y-74343238D01*
X158024536Y-74197159D01*
X157928282Y-74071718D01*
X157928280Y-74071717D01*
X157928280Y-74071716D01*
X157853031Y-74013976D01*
X157849013Y-74010893D01*
X157807811Y-73954466D01*
X157800500Y-73912518D01*
X157800500Y-72124000D01*
X157820185Y-72056961D01*
X157872989Y-72011206D01*
X157924500Y-72000000D01*
X161875500Y-72000000D01*
X161942539Y-72019685D01*
X161988294Y-72072489D01*
X161999500Y-72124000D01*
X161999500Y-98998376D01*
X161999415Y-99001622D01*
X161992509Y-99133382D01*
X161982196Y-99317013D01*
X161981530Y-99323240D01*
X161957394Y-99475630D01*
X161929778Y-99638163D01*
X161928541Y-99643827D01*
X161887579Y-99796702D01*
X161842916Y-99951725D01*
X161841221Y-99956781D01*
X161783877Y-100106170D01*
X161722643Y-100254001D01*
X161720604Y-100258423D01*
X161647488Y-100401921D01*
X161570364Y-100541467D01*
X161568097Y-100545246D01*
X161480019Y-100680872D01*
X161387862Y-100810755D01*
X161385480Y-100813896D01*
X161284385Y-100938738D01*
X161282431Y-100941034D01*
X161177260Y-101058721D01*
X161174870Y-101061248D01*
X161061248Y-101174870D01*
X161058721Y-101177260D01*
X160941034Y-101282431D01*
X160938738Y-101284385D01*
X160813896Y-101385480D01*
X160810755Y-101387862D01*
X160680872Y-101480019D01*
X160545246Y-101568097D01*
X160541467Y-101570364D01*
X160401921Y-101647488D01*
X160258423Y-101720604D01*
X160254001Y-101722643D01*
X160106170Y-101783877D01*
X159956781Y-101841221D01*
X159951725Y-101842916D01*
X159796702Y-101887579D01*
X159643827Y-101928541D01*
X159638163Y-101929778D01*
X159475630Y-101957394D01*
X159323240Y-101981530D01*
X159317013Y-101982196D01*
X159133382Y-101992509D01*
X159001622Y-101999415D01*
X158998376Y-101999500D01*
X123001624Y-101999500D01*
X122998378Y-101999415D01*
X122866617Y-101992509D01*
X122682985Y-101982196D01*
X122676758Y-101981530D01*
X122524369Y-101957394D01*
X122361835Y-101929778D01*
X122356171Y-101928541D01*
X122203297Y-101887579D01*
X122048273Y-101842916D01*
X122043217Y-101841221D01*
X121893829Y-101783877D01*
X121745997Y-101722643D01*
X121741575Y-101720604D01*
X121598078Y-101647488D01*
X121458531Y-101570364D01*
X121454767Y-101568106D01*
X121401875Y-101533758D01*
X121319127Y-101480019D01*
X121189243Y-101387862D01*
X121186102Y-101385480D01*
X121061260Y-101284385D01*
X121058964Y-101282431D01*
X120941277Y-101177260D01*
X120938750Y-101174870D01*
X120825128Y-101061248D01*
X120822738Y-101058721D01*
X120717567Y-100941034D01*
X120715613Y-100938738D01*
X120676848Y-100890867D01*
X120614510Y-100813886D01*
X120612136Y-100810755D01*
X120519980Y-100680872D01*
X120487406Y-100630715D01*
X120431882Y-100545215D01*
X120429641Y-100541480D01*
X120393757Y-100476552D01*
X120352511Y-100401921D01*
X120303904Y-100306526D01*
X120279388Y-100258412D01*
X120277358Y-100254007D01*
X120216122Y-100106170D01*
X120158769Y-99956759D01*
X120157082Y-99951724D01*
X120125979Y-99843765D01*
X120112414Y-99796679D01*
X120107316Y-99777652D01*
X120071453Y-99643811D01*
X120070226Y-99638194D01*
X120042601Y-99475606D01*
X120018465Y-99323212D01*
X120017803Y-99317027D01*
X120007490Y-99133382D01*
X120000584Y-99001620D01*
X120000542Y-99000003D01*
X121494358Y-99000003D01*
X121502351Y-99096455D01*
X121502563Y-99101578D01*
X121502563Y-99114455D01*
X121501275Y-99118838D01*
X121501941Y-99126870D01*
X121504144Y-99133569D01*
X121506265Y-99146278D01*
X121506900Y-99151366D01*
X121514892Y-99247815D01*
X121514892Y-99247817D01*
X121538655Y-99341658D01*
X121539708Y-99346678D01*
X121541826Y-99359373D01*
X121541278Y-99363901D01*
X121543257Y-99371714D01*
X121546533Y-99377961D01*
X121550715Y-99390144D01*
X121552178Y-99395057D01*
X121575433Y-99486886D01*
X121575938Y-99488880D01*
X121602566Y-99549587D01*
X121614811Y-99577502D01*
X121616676Y-99582282D01*
X121620865Y-99594487D01*
X121621070Y-99599039D01*
X121624305Y-99606414D01*
X121628568Y-99612042D01*
X121634701Y-99623376D01*
X121636950Y-99627977D01*
X121675827Y-99716604D01*
X121728765Y-99797633D01*
X121731390Y-99802038D01*
X121737522Y-99813370D01*
X121738474Y-99817830D01*
X121742880Y-99824574D01*
X121748010Y-99829421D01*
X121755928Y-99839595D01*
X121758904Y-99843765D01*
X121809372Y-99921011D01*
X121811837Y-99924784D01*
X121836307Y-99951365D01*
X121877392Y-99995997D01*
X121880707Y-99999910D01*
X121888613Y-100010069D01*
X121890285Y-100014307D01*
X121895753Y-100020248D01*
X121901600Y-100024177D01*
X121911080Y-100032903D01*
X121914704Y-100036528D01*
X121951740Y-100076759D01*
X121978814Y-100106170D01*
X121980258Y-100107738D01*
X122056625Y-100167177D01*
X122060540Y-100170492D01*
X122070027Y-100179226D01*
X122072374Y-100183132D01*
X122078731Y-100188080D01*
X122085151Y-100190997D01*
X122095936Y-100198042D01*
X122100092Y-100201008D01*
X122176492Y-100260473D01*
X122261635Y-100306550D01*
X122266011Y-100309158D01*
X122276812Y-100316215D01*
X122279773Y-100319685D01*
X122286845Y-100323513D01*
X122293665Y-100325335D01*
X122305484Y-100330520D01*
X122310058Y-100332755D01*
X122395191Y-100378827D01*
X122486768Y-100410265D01*
X122491481Y-100412104D01*
X122503301Y-100417289D01*
X122506792Y-100420223D01*
X122514422Y-100422842D01*
X122521433Y-100423516D01*
X122529379Y-100425527D01*
X122533936Y-100426681D01*
X122538824Y-100428136D01*
X122604308Y-100450617D01*
X122630386Y-100459570D01*
X122725858Y-100475501D01*
X122730862Y-100476549D01*
X122743360Y-100479714D01*
X122747286Y-100482033D01*
X122755241Y-100483361D01*
X122762275Y-100482870D01*
X122775123Y-100483935D01*
X122780188Y-100484566D01*
X122875666Y-100500499D01*
X122875667Y-100500499D01*
X122972437Y-100500499D01*
X122977557Y-100500711D01*
X122989552Y-100501704D01*
X122990420Y-100501776D01*
X122994681Y-100503420D01*
X123002716Y-100503420D01*
X123009580Y-100501777D01*
X123022454Y-100500711D01*
X123027575Y-100500499D01*
X123124331Y-100500499D01*
X123124336Y-100500499D01*
X123219855Y-100484559D01*
X123224851Y-100483937D01*
X123237731Y-100482870D01*
X123242194Y-100483788D01*
X123250142Y-100482462D01*
X123256624Y-100479718D01*
X123269159Y-100476544D01*
X123274106Y-100475507D01*
X123369615Y-100459570D01*
X123461199Y-100428128D01*
X123466056Y-100426683D01*
X123478569Y-100423515D01*
X123483121Y-100423686D01*
X123490742Y-100421070D01*
X123496692Y-100417292D01*
X123508502Y-100412112D01*
X123513252Y-100410259D01*
X123604811Y-100378827D01*
X123689971Y-100332740D01*
X123694523Y-100330516D01*
X123706341Y-100325333D01*
X123710866Y-100324751D01*
X123717936Y-100320925D01*
X123723191Y-100316214D01*
X123734000Y-100309152D01*
X123738362Y-100306552D01*
X123823510Y-100260473D01*
X123899938Y-100200985D01*
X123904026Y-100198067D01*
X123914857Y-100190992D01*
X123919222Y-100189675D01*
X123925569Y-100184734D01*
X123929973Y-100179227D01*
X123939463Y-100170491D01*
X123943350Y-100167197D01*
X124019745Y-100107737D01*
X124085314Y-100036509D01*
X124088910Y-100032913D01*
X124098406Y-100024171D01*
X124102490Y-100022156D01*
X124107950Y-100016225D01*
X124111385Y-100010072D01*
X124119316Y-99999882D01*
X124122586Y-99996021D01*
X124188165Y-99924784D01*
X124241125Y-99843722D01*
X124244056Y-99839617D01*
X124252005Y-99829404D01*
X124255700Y-99826745D01*
X124260105Y-99820003D01*
X124262482Y-99813364D01*
X124268622Y-99802019D01*
X124271225Y-99797649D01*
X124324174Y-99716606D01*
X124363069Y-99627932D01*
X124365299Y-99623376D01*
X124371422Y-99612061D01*
X124374642Y-99608815D01*
X124377883Y-99601426D01*
X124379136Y-99594482D01*
X124383330Y-99582265D01*
X124385171Y-99577545D01*
X124424064Y-99488880D01*
X124447833Y-99395018D01*
X124449281Y-99390155D01*
X124453468Y-99377959D01*
X124456104Y-99374237D01*
X124458082Y-99366427D01*
X124458175Y-99359372D01*
X124460300Y-99346637D01*
X124461345Y-99341658D01*
X124485109Y-99247820D01*
X124493104Y-99151332D01*
X124493735Y-99146277D01*
X124498509Y-99117668D01*
X124497689Y-99111927D01*
X124498089Y-99092584D01*
X124498284Y-99088813D01*
X124504866Y-99009378D01*
X124505644Y-99000003D01*
X157494356Y-99000003D01*
X157502349Y-99096455D01*
X157502561Y-99101578D01*
X157502561Y-99114455D01*
X157501273Y-99118839D01*
X157501939Y-99126868D01*
X157504142Y-99133569D01*
X157506263Y-99146278D01*
X157506898Y-99151366D01*
X157514890Y-99247815D01*
X157514890Y-99247817D01*
X157538653Y-99341658D01*
X157539706Y-99346678D01*
X157541824Y-99359373D01*
X157541276Y-99363901D01*
X157543255Y-99371714D01*
X157546531Y-99377961D01*
X157550713Y-99390144D01*
X157552176Y-99395057D01*
X157575431Y-99486886D01*
X157575936Y-99488880D01*
X157602564Y-99549587D01*
X157614809Y-99577502D01*
X157616674Y-99582282D01*
X157620863Y-99594487D01*
X157621068Y-99599039D01*
X157624303Y-99606414D01*
X157628566Y-99612042D01*
X157634699Y-99623376D01*
X157636948Y-99627977D01*
X157675825Y-99716604D01*
X157728763Y-99797633D01*
X157731388Y-99802038D01*
X157737520Y-99813370D01*
X157738472Y-99817830D01*
X157742878Y-99824574D01*
X157748008Y-99829421D01*
X157755926Y-99839595D01*
X157758902Y-99843765D01*
X157809370Y-99921011D01*
X157811835Y-99924784D01*
X157836305Y-99951365D01*
X157877390Y-99995997D01*
X157880705Y-99999910D01*
X157888611Y-100010069D01*
X157890283Y-100014307D01*
X157895751Y-100020248D01*
X157901598Y-100024177D01*
X157911078Y-100032903D01*
X157914702Y-100036528D01*
X157951738Y-100076759D01*
X157978812Y-100106170D01*
X157980256Y-100107738D01*
X158056623Y-100167177D01*
X158060538Y-100170492D01*
X158070025Y-100179226D01*
X158072372Y-100183132D01*
X158078729Y-100188080D01*
X158085149Y-100190997D01*
X158095934Y-100198042D01*
X158100090Y-100201008D01*
X158176490Y-100260473D01*
X158261633Y-100306550D01*
X158266009Y-100309158D01*
X158276810Y-100316215D01*
X158279771Y-100319685D01*
X158286843Y-100323513D01*
X158293663Y-100325335D01*
X158305482Y-100330520D01*
X158310056Y-100332755D01*
X158395189Y-100378827D01*
X158486766Y-100410265D01*
X158491479Y-100412104D01*
X158503299Y-100417289D01*
X158506790Y-100420223D01*
X158514420Y-100422842D01*
X158521431Y-100423516D01*
X158529377Y-100425527D01*
X158533934Y-100426681D01*
X158538822Y-100428136D01*
X158604306Y-100450617D01*
X158630384Y-100459570D01*
X158725856Y-100475501D01*
X158730860Y-100476549D01*
X158743358Y-100479714D01*
X158747284Y-100482033D01*
X158755239Y-100483361D01*
X158762273Y-100482870D01*
X158775121Y-100483935D01*
X158780186Y-100484566D01*
X158875664Y-100500499D01*
X158875665Y-100500499D01*
X158972435Y-100500499D01*
X158977555Y-100500711D01*
X158989550Y-100501704D01*
X158990418Y-100501776D01*
X158994679Y-100503420D01*
X159002714Y-100503420D01*
X159009578Y-100501777D01*
X159022452Y-100500711D01*
X159027573Y-100500499D01*
X159124329Y-100500499D01*
X159124334Y-100500499D01*
X159219853Y-100484559D01*
X159224849Y-100483937D01*
X159237729Y-100482870D01*
X159242192Y-100483788D01*
X159250140Y-100482462D01*
X159256622Y-100479718D01*
X159269157Y-100476544D01*
X159274104Y-100475507D01*
X159369613Y-100459570D01*
X159461197Y-100428128D01*
X159466054Y-100426683D01*
X159478567Y-100423515D01*
X159483119Y-100423686D01*
X159490740Y-100421070D01*
X159496690Y-100417292D01*
X159508500Y-100412112D01*
X159513250Y-100410259D01*
X159604809Y-100378827D01*
X159689969Y-100332740D01*
X159694521Y-100330516D01*
X159706339Y-100325333D01*
X159710864Y-100324751D01*
X159717934Y-100320925D01*
X159723189Y-100316214D01*
X159733998Y-100309152D01*
X159738360Y-100306552D01*
X159823508Y-100260473D01*
X159899936Y-100200985D01*
X159904024Y-100198067D01*
X159914855Y-100190992D01*
X159919220Y-100189675D01*
X159925567Y-100184734D01*
X159929971Y-100179227D01*
X159939461Y-100170491D01*
X159943348Y-100167197D01*
X160019743Y-100107737D01*
X160085312Y-100036509D01*
X160088908Y-100032913D01*
X160098404Y-100024171D01*
X160102488Y-100022156D01*
X160107948Y-100016225D01*
X160111383Y-100010072D01*
X160119314Y-99999882D01*
X160122584Y-99996021D01*
X160188163Y-99924784D01*
X160241123Y-99843722D01*
X160244054Y-99839617D01*
X160252003Y-99829404D01*
X160255698Y-99826745D01*
X160260103Y-99820003D01*
X160262480Y-99813364D01*
X160268620Y-99802019D01*
X160271223Y-99797649D01*
X160324172Y-99716606D01*
X160363067Y-99627932D01*
X160365297Y-99623376D01*
X160371420Y-99612061D01*
X160374640Y-99608815D01*
X160377881Y-99601426D01*
X160379134Y-99594482D01*
X160383328Y-99582265D01*
X160385169Y-99577545D01*
X160424062Y-99488880D01*
X160447831Y-99395018D01*
X160449279Y-99390155D01*
X160453466Y-99377959D01*
X160456102Y-99374237D01*
X160458080Y-99366427D01*
X160458173Y-99359372D01*
X160460298Y-99346637D01*
X160461343Y-99341658D01*
X160485107Y-99247820D01*
X160493102Y-99151332D01*
X160493733Y-99146277D01*
X160498507Y-99117668D01*
X160497687Y-99111927D01*
X160498087Y-99092584D01*
X160498282Y-99088813D01*
X160504864Y-99009378D01*
X160505642Y-99000001D01*
X160505642Y-98999996D01*
X160504411Y-98985144D01*
X160498282Y-98911188D01*
X160498087Y-98907409D01*
X160497687Y-98888071D01*
X160498788Y-98884015D01*
X160496538Y-98870531D01*
X160493730Y-98853703D01*
X160493101Y-98848659D01*
X160485107Y-98752178D01*
X160461340Y-98658326D01*
X160460294Y-98653333D01*
X160460291Y-98653318D01*
X160458174Y-98640626D01*
X160458720Y-98636101D01*
X160456742Y-98628286D01*
X160453465Y-98622036D01*
X160449282Y-98609850D01*
X160447829Y-98604975D01*
X160424062Y-98511118D01*
X160385179Y-98422474D01*
X160383325Y-98417724D01*
X160379132Y-98405508D01*
X160378926Y-98400952D01*
X160375698Y-98393591D01*
X160371434Y-98387961D01*
X160365297Y-98376620D01*
X160363051Y-98372028D01*
X160324172Y-98283392D01*
X160324172Y-98283391D01*
X160271230Y-98202357D01*
X160268617Y-98197972D01*
X160262476Y-98186625D01*
X160261523Y-98182166D01*
X160257121Y-98175427D01*
X160251993Y-98170580D01*
X160244080Y-98160414D01*
X160241101Y-98156242D01*
X160188163Y-98075214D01*
X160182883Y-98069478D01*
X160122605Y-98003998D01*
X160119290Y-98000084D01*
X160111383Y-97989925D01*
X160109710Y-97985684D01*
X160104252Y-97979756D01*
X160098397Y-97975819D01*
X160088917Y-97967091D01*
X160085293Y-97963467D01*
X160071862Y-97948878D01*
X160019743Y-97892261D01*
X159998869Y-97876014D01*
X159943377Y-97832822D01*
X159939461Y-97829506D01*
X159929969Y-97820766D01*
X159927623Y-97816862D01*
X159921278Y-97811923D01*
X159914844Y-97808999D01*
X159904054Y-97801949D01*
X159899892Y-97798977D01*
X159892500Y-97793224D01*
X159823508Y-97739525D01*
X159823503Y-97739522D01*
X159823502Y-97739521D01*
X159774905Y-97713222D01*
X159738379Y-97693455D01*
X159733984Y-97690836D01*
X159723189Y-97683783D01*
X159720226Y-97680312D01*
X159713155Y-97676485D01*
X159706331Y-97674660D01*
X159694527Y-97669482D01*
X159689924Y-97667232D01*
X159604815Y-97621174D01*
X159604812Y-97621173D01*
X159604809Y-97621171D01*
X159604803Y-97621169D01*
X159604801Y-97621168D01*
X159513257Y-97589741D01*
X159508479Y-97587876D01*
X159496689Y-97582704D01*
X159493198Y-97579770D01*
X159485583Y-97577155D01*
X159478561Y-97576480D01*
X159474749Y-97575515D01*
X159466079Y-97573319D01*
X159461167Y-97571857D01*
X159369613Y-97540428D01*
X159274140Y-97524495D01*
X159269127Y-97523444D01*
X159256647Y-97520285D01*
X159252714Y-97517961D01*
X159244767Y-97516635D01*
X159237718Y-97517126D01*
X159224887Y-97516062D01*
X159219803Y-97515429D01*
X159124335Y-97499499D01*
X159124334Y-97499499D01*
X159027540Y-97499499D01*
X159022427Y-97499287D01*
X159011121Y-97498350D01*
X159009582Y-97498223D01*
X159005327Y-97496581D01*
X158997278Y-97496581D01*
X158990413Y-97498223D01*
X158980434Y-97499050D01*
X158980290Y-97499062D01*
X158977605Y-97499284D01*
X158972494Y-97499499D01*
X158875664Y-97499499D01*
X158780193Y-97515429D01*
X158775108Y-97516063D01*
X158762276Y-97517126D01*
X158757805Y-97516206D01*
X158749861Y-97517531D01*
X158743354Y-97520284D01*
X158730871Y-97523444D01*
X158725856Y-97524496D01*
X158630382Y-97540428D01*
X158538834Y-97571855D01*
X158533928Y-97573316D01*
X158521449Y-97576477D01*
X158516889Y-97576306D01*
X158509260Y-97578924D01*
X158503303Y-97582706D01*
X158491514Y-97587878D01*
X158486739Y-97589741D01*
X158395193Y-97621169D01*
X158395182Y-97621174D01*
X158310083Y-97667227D01*
X158305478Y-97669478D01*
X158293661Y-97674662D01*
X158289134Y-97675243D01*
X158282060Y-97679071D01*
X158276803Y-97683785D01*
X158266008Y-97690838D01*
X158261606Y-97693460D01*
X158176492Y-97739523D01*
X158176488Y-97739525D01*
X158100107Y-97798975D01*
X158095943Y-97801949D01*
X158088966Y-97806508D01*
X158085137Y-97809009D01*
X158080770Y-97810326D01*
X158074427Y-97815263D01*
X158070024Y-97820770D01*
X158060531Y-97829509D01*
X158056619Y-97832823D01*
X157980254Y-97892261D01*
X157914695Y-97963476D01*
X157911070Y-97967101D01*
X157901595Y-97975823D01*
X157897508Y-97977839D01*
X157892042Y-97983777D01*
X157888603Y-97989939D01*
X157880698Y-98000094D01*
X157877389Y-98004000D01*
X157811835Y-98075214D01*
X157758902Y-98156232D01*
X157755930Y-98160396D01*
X157749307Y-98168907D01*
X157747989Y-98170600D01*
X157744293Y-98173258D01*
X157739899Y-98179983D01*
X157737519Y-98186630D01*
X157731386Y-98197961D01*
X157728763Y-98202363D01*
X157675827Y-98283389D01*
X157636951Y-98372014D01*
X157634702Y-98376615D01*
X157631672Y-98382215D01*
X157628565Y-98387957D01*
X157625349Y-98391197D01*
X157622115Y-98398570D01*
X157620862Y-98405516D01*
X157616673Y-98417716D01*
X157614810Y-98422492D01*
X157585178Y-98490046D01*
X157575938Y-98511115D01*
X157575935Y-98511121D01*
X157552176Y-98604939D01*
X157550714Y-98609850D01*
X157546532Y-98622032D01*
X157543895Y-98625754D01*
X157541916Y-98633569D01*
X157541824Y-98640621D01*
X157539706Y-98653318D01*
X157538653Y-98658338D01*
X157514890Y-98752177D01*
X157514890Y-98752182D01*
X157506898Y-98848630D01*
X157506263Y-98853718D01*
X157504142Y-98866427D01*
X157502154Y-98870531D01*
X157501489Y-98878560D01*
X157502561Y-98885541D01*
X157502561Y-98898418D01*
X157502349Y-98903541D01*
X157494356Y-98999993D01*
X157494356Y-99000003D01*
X124505644Y-99000003D01*
X124505644Y-99000001D01*
X124505644Y-98999996D01*
X124504413Y-98985144D01*
X124498284Y-98911188D01*
X124498089Y-98907409D01*
X124497689Y-98888071D01*
X124498790Y-98884015D01*
X124496540Y-98870531D01*
X124493732Y-98853703D01*
X124493103Y-98848659D01*
X124485109Y-98752178D01*
X124461342Y-98658326D01*
X124460296Y-98653333D01*
X124460293Y-98653318D01*
X124458176Y-98640626D01*
X124458722Y-98636101D01*
X124456744Y-98628286D01*
X124453467Y-98622036D01*
X124449284Y-98609850D01*
X124447831Y-98604975D01*
X124424064Y-98511118D01*
X124385181Y-98422474D01*
X124383327Y-98417724D01*
X124379134Y-98405508D01*
X124378928Y-98400952D01*
X124375700Y-98393591D01*
X124371436Y-98387961D01*
X124365299Y-98376620D01*
X124363053Y-98372028D01*
X124324174Y-98283392D01*
X124324174Y-98283391D01*
X124271232Y-98202357D01*
X124268619Y-98197972D01*
X124262478Y-98186625D01*
X124261525Y-98182166D01*
X124257123Y-98175427D01*
X124251995Y-98170580D01*
X124244082Y-98160414D01*
X124241103Y-98156242D01*
X124188165Y-98075214D01*
X124182885Y-98069478D01*
X124122607Y-98003998D01*
X124119292Y-98000084D01*
X124111385Y-97989925D01*
X124109712Y-97985684D01*
X124104254Y-97979756D01*
X124098399Y-97975819D01*
X124088919Y-97967091D01*
X124085295Y-97963467D01*
X124071864Y-97948878D01*
X124019745Y-97892261D01*
X123998871Y-97876014D01*
X123943379Y-97832822D01*
X123939463Y-97829506D01*
X123929971Y-97820766D01*
X123927625Y-97816862D01*
X123921280Y-97811923D01*
X123914846Y-97808999D01*
X123904056Y-97801949D01*
X123899894Y-97798977D01*
X123892502Y-97793224D01*
X123823510Y-97739525D01*
X123823505Y-97739522D01*
X123823504Y-97739521D01*
X123774907Y-97713222D01*
X123738381Y-97693455D01*
X123733986Y-97690836D01*
X123723191Y-97683783D01*
X123720228Y-97680312D01*
X123713157Y-97676485D01*
X123706333Y-97674660D01*
X123694529Y-97669482D01*
X123689926Y-97667232D01*
X123604817Y-97621174D01*
X123604814Y-97621173D01*
X123604811Y-97621171D01*
X123604805Y-97621169D01*
X123604803Y-97621168D01*
X123513259Y-97589741D01*
X123508481Y-97587876D01*
X123496691Y-97582704D01*
X123493200Y-97579770D01*
X123485585Y-97577155D01*
X123478563Y-97576480D01*
X123474751Y-97575515D01*
X123466081Y-97573319D01*
X123461169Y-97571857D01*
X123369615Y-97540428D01*
X123274142Y-97524495D01*
X123269129Y-97523444D01*
X123256649Y-97520285D01*
X123252716Y-97517961D01*
X123244769Y-97516635D01*
X123237720Y-97517126D01*
X123224889Y-97516062D01*
X123219805Y-97515429D01*
X123124337Y-97499499D01*
X123124336Y-97499499D01*
X123027542Y-97499499D01*
X123022429Y-97499287D01*
X123011123Y-97498350D01*
X123009584Y-97498223D01*
X123005329Y-97496581D01*
X122997280Y-97496581D01*
X122990415Y-97498223D01*
X122980436Y-97499050D01*
X122980292Y-97499062D01*
X122977607Y-97499284D01*
X122972496Y-97499499D01*
X122875666Y-97499499D01*
X122780195Y-97515429D01*
X122775110Y-97516063D01*
X122762278Y-97517126D01*
X122757807Y-97516206D01*
X122749863Y-97517531D01*
X122743356Y-97520284D01*
X122730873Y-97523444D01*
X122725858Y-97524496D01*
X122630384Y-97540428D01*
X122538836Y-97571855D01*
X122533930Y-97573316D01*
X122521451Y-97576477D01*
X122516891Y-97576306D01*
X122509262Y-97578924D01*
X122503305Y-97582706D01*
X122491516Y-97587878D01*
X122486741Y-97589741D01*
X122395195Y-97621169D01*
X122395184Y-97621174D01*
X122310085Y-97667227D01*
X122305480Y-97669478D01*
X122293663Y-97674662D01*
X122289136Y-97675243D01*
X122282062Y-97679071D01*
X122276805Y-97683785D01*
X122266010Y-97690838D01*
X122261608Y-97693460D01*
X122176494Y-97739523D01*
X122176490Y-97739525D01*
X122100109Y-97798975D01*
X122095945Y-97801949D01*
X122088968Y-97806508D01*
X122085139Y-97809009D01*
X122080772Y-97810326D01*
X122074429Y-97815263D01*
X122070026Y-97820770D01*
X122060533Y-97829509D01*
X122056621Y-97832823D01*
X121980256Y-97892261D01*
X121914697Y-97963476D01*
X121911072Y-97967101D01*
X121901597Y-97975823D01*
X121897510Y-97977839D01*
X121892044Y-97983777D01*
X121888605Y-97989939D01*
X121880700Y-98000094D01*
X121877391Y-98004000D01*
X121811837Y-98075214D01*
X121758904Y-98156232D01*
X121755932Y-98160396D01*
X121749309Y-98168907D01*
X121747991Y-98170600D01*
X121744295Y-98173258D01*
X121739901Y-98179983D01*
X121737521Y-98186630D01*
X121731388Y-98197961D01*
X121728765Y-98202363D01*
X121675829Y-98283389D01*
X121636953Y-98372014D01*
X121634704Y-98376615D01*
X121631674Y-98382215D01*
X121628567Y-98387957D01*
X121625351Y-98391197D01*
X121622117Y-98398570D01*
X121620864Y-98405516D01*
X121616675Y-98417716D01*
X121614812Y-98422492D01*
X121585180Y-98490046D01*
X121575940Y-98511115D01*
X121575937Y-98511121D01*
X121552178Y-98604939D01*
X121550716Y-98609850D01*
X121546534Y-98622032D01*
X121543897Y-98625754D01*
X121541918Y-98633569D01*
X121541826Y-98640621D01*
X121539708Y-98653318D01*
X121538655Y-98658338D01*
X121514892Y-98752177D01*
X121514892Y-98752182D01*
X121506900Y-98848630D01*
X121506265Y-98853718D01*
X121504144Y-98866427D01*
X121502157Y-98870529D01*
X121501491Y-98878562D01*
X121502563Y-98885541D01*
X121502563Y-98898418D01*
X121502351Y-98903541D01*
X121494358Y-98999993D01*
X121494358Y-99000003D01*
X120000542Y-99000003D01*
X120000500Y-98998377D01*
X120000500Y-97194752D01*
X142439500Y-97194752D01*
X142451131Y-97253229D01*
X142451132Y-97253230D01*
X142495447Y-97319552D01*
X142561769Y-97363867D01*
X142561770Y-97363868D01*
X142620247Y-97375499D01*
X142620250Y-97375500D01*
X142620252Y-97375500D01*
X144359750Y-97375500D01*
X144359751Y-97375499D01*
X144374568Y-97372552D01*
X144418229Y-97363868D01*
X144418229Y-97363867D01*
X144418231Y-97363867D01*
X144484552Y-97319552D01*
X144528867Y-97253231D01*
X144528867Y-97253229D01*
X144528868Y-97253229D01*
X144540499Y-97194752D01*
X144540500Y-97194750D01*
X144540500Y-95455249D01*
X144540499Y-95455247D01*
X144528868Y-95396770D01*
X144528867Y-95396769D01*
X144484552Y-95330447D01*
X144418230Y-95286132D01*
X144418229Y-95286131D01*
X144359752Y-95274500D01*
X144359748Y-95274500D01*
X142620252Y-95274500D01*
X142620247Y-95274500D01*
X142561770Y-95286131D01*
X142561769Y-95286132D01*
X142495447Y-95330447D01*
X142451132Y-95396769D01*
X142451131Y-95396770D01*
X142439500Y-95455247D01*
X142439500Y-97194752D01*
X120000500Y-97194752D01*
X120000500Y-90000001D01*
X124394318Y-90000001D01*
X124414955Y-90156760D01*
X124414956Y-90156762D01*
X124475464Y-90302841D01*
X124571718Y-90428282D01*
X124697159Y-90524536D01*
X124843238Y-90585044D01*
X124921619Y-90595363D01*
X124999999Y-90605682D01*
X125000000Y-90605682D01*
X125000001Y-90605682D01*
X125052253Y-90598802D01*
X125156762Y-90585044D01*
X125302841Y-90524536D01*
X125428282Y-90428282D01*
X125428283Y-90428279D01*
X125431093Y-90426124D01*
X125496263Y-90400930D01*
X125506580Y-90400500D01*
X133882745Y-90400500D01*
X133949784Y-90420185D01*
X133970426Y-90436819D01*
X134763181Y-91229573D01*
X134796666Y-91290896D01*
X134799500Y-91317254D01*
X134799500Y-95193419D01*
X134779815Y-95260458D01*
X134773876Y-95268905D01*
X134675464Y-95397157D01*
X134614956Y-95543237D01*
X134614955Y-95543239D01*
X134594318Y-95699998D01*
X134594318Y-95700001D01*
X134614955Y-95856760D01*
X134614956Y-95856762D01*
X134675464Y-96002841D01*
X134771718Y-96128282D01*
X134897159Y-96224536D01*
X135043238Y-96285044D01*
X135121619Y-96295363D01*
X135199999Y-96305682D01*
X135200000Y-96305682D01*
X135200001Y-96305682D01*
X135252254Y-96298802D01*
X135356762Y-96285044D01*
X135502841Y-96224536D01*
X135628282Y-96128282D01*
X135724536Y-96002841D01*
X135785044Y-95856762D01*
X135805682Y-95700000D01*
X135785044Y-95543238D01*
X135724536Y-95397159D01*
X135724535Y-95397158D01*
X135724535Y-95397157D01*
X135626124Y-95268905D01*
X135600930Y-95203736D01*
X135600500Y-95193419D01*
X135600500Y-93500000D01*
X137500000Y-93500000D01*
X139000000Y-95000000D01*
X140500000Y-95000000D01*
X144249999Y-91250001D01*
X148894318Y-91250001D01*
X148914955Y-91406760D01*
X148914956Y-91406762D01*
X148975464Y-91552841D01*
X149071718Y-91678282D01*
X149197159Y-91774536D01*
X149343238Y-91835044D01*
X149400936Y-91842640D01*
X149499999Y-91855682D01*
X149500000Y-91855682D01*
X149599061Y-91842640D01*
X149668096Y-91853405D01*
X149702927Y-91877898D01*
X149743078Y-91918049D01*
X149748721Y-91924533D01*
X149756041Y-91934226D01*
X149756042Y-91934228D01*
X149770227Y-91947159D01*
X149791375Y-91966439D01*
X149793423Y-91968394D01*
X149807203Y-91982174D01*
X149809413Y-91983688D01*
X149816143Y-91989018D01*
X149839067Y-92009916D01*
X149844868Y-92012163D01*
X149845528Y-92012419D01*
X149870809Y-92025745D01*
X149876520Y-92029657D01*
X149906703Y-92036756D01*
X149914911Y-92039298D01*
X149943825Y-92050500D01*
X149943827Y-92050500D01*
X149950752Y-92050500D01*
X149979140Y-92053793D01*
X149985881Y-92055379D01*
X150016591Y-92051094D01*
X150025166Y-92050500D01*
X155912518Y-92050500D01*
X155979557Y-92070185D01*
X156010892Y-92099013D01*
X156071718Y-92178282D01*
X156197159Y-92274536D01*
X156343238Y-92335044D01*
X156421619Y-92345363D01*
X156499999Y-92355682D01*
X156500000Y-92355682D01*
X156500001Y-92355682D01*
X156552253Y-92348802D01*
X156656762Y-92335044D01*
X156802841Y-92274536D01*
X156928282Y-92178282D01*
X157024536Y-92052841D01*
X157085044Y-91906762D01*
X157105682Y-91750000D01*
X157099687Y-91704466D01*
X157085044Y-91593239D01*
X157085044Y-91593238D01*
X157024536Y-91447159D01*
X156928282Y-91321718D01*
X156802841Y-91225464D01*
X156656762Y-91164956D01*
X156656760Y-91164955D01*
X156500001Y-91144318D01*
X156499999Y-91144318D01*
X156343239Y-91164955D01*
X156343237Y-91164956D01*
X156197160Y-91225463D01*
X156071716Y-91321719D01*
X156010894Y-91400986D01*
X155954466Y-91442189D01*
X155912518Y-91449500D01*
X150220812Y-91449500D01*
X150153773Y-91429815D01*
X150108018Y-91377011D01*
X150097873Y-91309314D01*
X150105682Y-91249999D01*
X150105682Y-91249998D01*
X150085044Y-91093239D01*
X150085044Y-91093238D01*
X150024536Y-90947159D01*
X149928282Y-90821718D01*
X149802841Y-90725464D01*
X149656762Y-90664956D01*
X149656760Y-90664955D01*
X149500001Y-90644318D01*
X149499999Y-90644318D01*
X149343239Y-90664955D01*
X149343237Y-90664956D01*
X149197160Y-90725463D01*
X149071718Y-90821718D01*
X148975463Y-90947160D01*
X148914956Y-91093237D01*
X148914955Y-91093239D01*
X148894318Y-91249998D01*
X148894318Y-91250001D01*
X144249999Y-91250001D01*
X145250000Y-90250000D01*
X145250000Y-89750000D01*
X143000000Y-87500000D01*
X142250000Y-87500000D01*
X137500000Y-92250000D01*
X137500000Y-93500000D01*
X135600500Y-93500000D01*
X135600500Y-91036568D01*
X135600500Y-91036567D01*
X135593652Y-91015491D01*
X135589111Y-90996578D01*
X135585646Y-90974696D01*
X135575588Y-90954958D01*
X135568140Y-90936976D01*
X135561296Y-90915910D01*
X135548271Y-90897982D01*
X135538106Y-90881394D01*
X135528050Y-90861658D01*
X135507398Y-90841006D01*
X135507380Y-90840986D01*
X134359287Y-89692893D01*
X134359256Y-89692864D01*
X134338342Y-89671950D01*
X134338341Y-89671949D01*
X134318600Y-89661890D01*
X134302014Y-89651726D01*
X134284090Y-89638704D01*
X134284091Y-89638704D01*
X134263018Y-89631857D01*
X134245045Y-89624412D01*
X134225307Y-89614355D01*
X134225304Y-89614354D01*
X134203418Y-89610887D01*
X134184507Y-89606346D01*
X134163439Y-89599501D01*
X134163434Y-89599500D01*
X134163433Y-89599500D01*
X134163429Y-89599500D01*
X125506580Y-89599500D01*
X125439541Y-89579815D01*
X125431093Y-89573876D01*
X125428283Y-89571720D01*
X125428282Y-89571718D01*
X125302841Y-89475464D01*
X125156762Y-89414956D01*
X125156760Y-89414955D01*
X125000001Y-89394318D01*
X124999999Y-89394318D01*
X124843239Y-89414955D01*
X124843237Y-89414956D01*
X124697160Y-89475463D01*
X124571718Y-89571718D01*
X124475463Y-89697160D01*
X124414956Y-89843237D01*
X124414955Y-89843239D01*
X124394318Y-89999998D01*
X124394318Y-90000001D01*
X120000500Y-90000001D01*
X120000500Y-80080000D01*
X125654659Y-80080000D01*
X125673975Y-80276129D01*
X125731188Y-80464733D01*
X125824086Y-80638532D01*
X125824090Y-80638539D01*
X125949116Y-80790883D01*
X126101460Y-80915909D01*
X126101467Y-80915913D01*
X126275266Y-81008811D01*
X126275269Y-81008811D01*
X126275273Y-81008814D01*
X126463868Y-81066024D01*
X126660000Y-81085341D01*
X126856132Y-81066024D01*
X127044727Y-81008814D01*
X127218538Y-80915910D01*
X127370883Y-80790883D01*
X127495910Y-80638538D01*
X127588814Y-80464727D01*
X127646024Y-80276132D01*
X127665341Y-80080000D01*
X127646024Y-79883868D01*
X127588814Y-79695273D01*
X127588811Y-79695269D01*
X127588811Y-79695266D01*
X127495913Y-79521467D01*
X127495909Y-79521460D01*
X127370883Y-79369116D01*
X127218539Y-79244090D01*
X127218532Y-79244086D01*
X127044733Y-79151188D01*
X127044727Y-79151186D01*
X126856132Y-79093976D01*
X126856129Y-79093975D01*
X126660000Y-79074659D01*
X126463870Y-79093975D01*
X126275266Y-79151188D01*
X126101467Y-79244086D01*
X126101460Y-79244090D01*
X125949116Y-79369116D01*
X125824090Y-79521460D01*
X125824086Y-79521467D01*
X125731188Y-79695266D01*
X125673975Y-79883870D01*
X125654659Y-80080000D01*
X120000500Y-80080000D01*
X120000500Y-77985881D01*
X136694621Y-77985881D01*
X136698905Y-78016590D01*
X136699500Y-78025166D01*
X136699500Y-79778479D01*
X136698905Y-79787053D01*
X136697227Y-79799084D01*
X136699434Y-79846830D01*
X136699500Y-79849693D01*
X136699500Y-79869166D01*
X136699993Y-79871803D01*
X136700982Y-79880336D01*
X136702415Y-79911312D01*
X136702416Y-79911318D01*
X136705214Y-79917655D01*
X136713664Y-79944941D01*
X136714937Y-79951750D01*
X136714937Y-79951751D01*
X136731260Y-79978114D01*
X136735263Y-79985707D01*
X136747794Y-80014086D01*
X136747795Y-80014087D01*
X136747796Y-80014089D01*
X136752689Y-80018982D01*
X136770435Y-80041386D01*
X136774077Y-80047269D01*
X136774080Y-80047272D01*
X136774081Y-80047273D01*
X136780427Y-80052065D01*
X136798826Y-80065960D01*
X136805311Y-80071603D01*
X141901757Y-85168049D01*
X141907400Y-85174533D01*
X141914720Y-85184226D01*
X141914721Y-85184228D01*
X141939338Y-85206669D01*
X141950054Y-85216439D01*
X141952102Y-85218394D01*
X141965882Y-85232174D01*
X141968092Y-85233688D01*
X141974822Y-85239018D01*
X141985049Y-85248341D01*
X141997744Y-85259915D01*
X141997745Y-85259915D01*
X141997746Y-85259916D01*
X142004200Y-85262416D01*
X142029485Y-85275744D01*
X142033298Y-85278355D01*
X142035198Y-85279657D01*
X142065389Y-85286757D01*
X142073584Y-85289295D01*
X142102506Y-85300500D01*
X142109431Y-85300500D01*
X142137819Y-85303793D01*
X142144560Y-85305379D01*
X142175270Y-85301094D01*
X142183845Y-85300500D01*
X146912518Y-85300500D01*
X146979557Y-85320185D01*
X147010892Y-85349013D01*
X147071718Y-85428282D01*
X147197159Y-85524536D01*
X147343238Y-85585044D01*
X147421619Y-85595363D01*
X147499999Y-85605682D01*
X147500000Y-85605682D01*
X147500001Y-85605682D01*
X147552253Y-85598802D01*
X147656762Y-85585044D01*
X147802841Y-85524536D01*
X147928282Y-85428282D01*
X148024536Y-85302841D01*
X148085044Y-85156762D01*
X148105682Y-85000000D01*
X148085044Y-84843238D01*
X148024536Y-84697159D01*
X148024534Y-84697156D01*
X148020472Y-84690119D01*
X148022448Y-84688977D01*
X148001511Y-84634807D01*
X148015555Y-84566363D01*
X148064373Y-84516377D01*
X148125082Y-84500500D01*
X149347209Y-84500500D01*
X149355783Y-84501095D01*
X149367811Y-84502772D01*
X149367811Y-84502771D01*
X149367815Y-84502773D01*
X149410970Y-84500778D01*
X149415560Y-84500566D01*
X149418423Y-84500500D01*
X149437893Y-84500500D01*
X149437894Y-84500500D01*
X149440518Y-84500009D01*
X149449071Y-84499016D01*
X149450295Y-84498959D01*
X149480042Y-84497585D01*
X149486372Y-84494789D01*
X149513679Y-84486332D01*
X149520483Y-84485061D01*
X149546847Y-84468736D01*
X149554442Y-84464733D01*
X149582815Y-84452206D01*
X149587711Y-84447309D01*
X149610119Y-84429561D01*
X149616002Y-84425919D01*
X149634699Y-84401158D01*
X149640316Y-84394703D01*
X150043696Y-83991323D01*
X150105017Y-83957840D01*
X150174709Y-83962824D01*
X150230642Y-84004696D01*
X150245936Y-84031554D01*
X150275462Y-84102838D01*
X150275463Y-84102839D01*
X150275464Y-84102841D01*
X150371718Y-84228282D01*
X150450985Y-84289106D01*
X150492188Y-84345533D01*
X150499499Y-84387481D01*
X150499499Y-86123743D01*
X150479814Y-86190782D01*
X150476077Y-86196097D01*
X150475463Y-86197160D01*
X150414956Y-86343237D01*
X150414955Y-86343239D01*
X150394318Y-86499998D01*
X150394318Y-86500001D01*
X150414955Y-86656760D01*
X150414956Y-86656762D01*
X150475464Y-86802841D01*
X150571718Y-86928282D01*
X150697159Y-87024536D01*
X150843238Y-87085044D01*
X150921619Y-87095363D01*
X150999999Y-87105682D01*
X151000000Y-87105682D01*
X151000001Y-87105682D01*
X151052253Y-87098802D01*
X151156762Y-87085044D01*
X151302841Y-87024536D01*
X151428282Y-86928282D01*
X151524536Y-86802841D01*
X151585044Y-86656762D01*
X151605682Y-86500000D01*
X151585044Y-86343238D01*
X151524536Y-86197159D01*
X151428282Y-86071718D01*
X151302841Y-85975464D01*
X151302839Y-85975463D01*
X151177047Y-85923358D01*
X151122644Y-85879517D01*
X151100579Y-85813222D01*
X151100500Y-85808797D01*
X151100500Y-84387482D01*
X151120185Y-84320443D01*
X151149014Y-84289106D01*
X151228282Y-84228282D01*
X151324536Y-84102841D01*
X151385044Y-83956762D01*
X151405682Y-83800000D01*
X151405552Y-83799016D01*
X151387318Y-83660511D01*
X151385044Y-83643238D01*
X151324536Y-83497159D01*
X151228282Y-83371718D01*
X151164628Y-83322874D01*
X151123427Y-83266448D01*
X151119272Y-83196702D01*
X151153485Y-83135781D01*
X151215202Y-83103029D01*
X151240116Y-83100500D01*
X157647209Y-83100500D01*
X157655783Y-83101095D01*
X157667811Y-83102772D01*
X157667811Y-83102771D01*
X157667815Y-83102773D01*
X157710970Y-83100778D01*
X157715560Y-83100566D01*
X157718423Y-83100500D01*
X157737893Y-83100500D01*
X157737894Y-83100500D01*
X157740518Y-83100009D01*
X157749071Y-83099016D01*
X157751769Y-83098891D01*
X157780042Y-83097585D01*
X157780043Y-83097584D01*
X157791521Y-83097054D01*
X157791601Y-83098800D01*
X157847787Y-83101866D01*
X157904419Y-83142787D01*
X157920982Y-83171310D01*
X157960389Y-83266448D01*
X157975464Y-83302841D01*
X158071718Y-83428282D01*
X158197159Y-83524536D01*
X158343238Y-83585044D01*
X158400936Y-83592640D01*
X158499999Y-83605682D01*
X158500000Y-83605682D01*
X158599061Y-83592640D01*
X158668096Y-83603405D01*
X158702927Y-83627898D01*
X158913181Y-83838152D01*
X158946666Y-83899475D01*
X158949500Y-83925833D01*
X158949500Y-92324167D01*
X158929815Y-92391206D01*
X158913181Y-92411848D01*
X157161848Y-94163181D01*
X157100525Y-94196666D01*
X157074167Y-94199500D01*
X151312842Y-94199500D01*
X151304268Y-94198905D01*
X151292239Y-94197227D01*
X151292236Y-94197227D01*
X151267220Y-94198383D01*
X151244491Y-94199434D01*
X151241628Y-94199500D01*
X151222156Y-94199500D01*
X151222151Y-94199500D01*
X151222149Y-94199501D01*
X151219515Y-94199993D01*
X151210985Y-94200982D01*
X151180008Y-94202415D01*
X151180006Y-94202415D01*
X151173665Y-94205215D01*
X151146379Y-94213664D01*
X151139572Y-94214936D01*
X151139566Y-94214939D01*
X151113202Y-94231261D01*
X151105603Y-94235266D01*
X151077237Y-94247792D01*
X151072336Y-94252693D01*
X151049942Y-94270431D01*
X151044048Y-94274080D01*
X151025359Y-94298827D01*
X151019718Y-94305310D01*
X150952926Y-94372101D01*
X150891603Y-94405586D01*
X150849060Y-94407359D01*
X150750001Y-94394318D01*
X150749999Y-94394318D01*
X150593239Y-94414955D01*
X150593237Y-94414956D01*
X150447160Y-94475463D01*
X150321718Y-94571718D01*
X150225463Y-94697160D01*
X150164956Y-94843237D01*
X150164955Y-94843239D01*
X150144318Y-94999998D01*
X150144318Y-95000001D01*
X150164955Y-95156760D01*
X150164956Y-95156762D01*
X150225464Y-95302841D01*
X150321718Y-95428282D01*
X150447159Y-95524536D01*
X150593238Y-95585044D01*
X150671619Y-95595363D01*
X150749999Y-95605682D01*
X150750000Y-95605682D01*
X150750001Y-95605682D01*
X150802253Y-95598802D01*
X150906762Y-95585044D01*
X151052841Y-95524536D01*
X151178282Y-95428282D01*
X151274536Y-95302841D01*
X151335044Y-95156762D01*
X151355682Y-95000000D01*
X151347873Y-94940685D01*
X151358638Y-94871650D01*
X151405018Y-94819394D01*
X151470812Y-94800500D01*
X157187159Y-94800500D01*
X157195733Y-94801095D01*
X157207761Y-94802772D01*
X157207761Y-94802771D01*
X157207765Y-94802773D01*
X157250920Y-94800778D01*
X157255510Y-94800566D01*
X157258373Y-94800500D01*
X157277843Y-94800500D01*
X157277844Y-94800500D01*
X157280468Y-94800009D01*
X157289021Y-94799016D01*
X157290245Y-94798959D01*
X157319992Y-94797585D01*
X157326322Y-94794789D01*
X157353629Y-94786332D01*
X157360433Y-94785061D01*
X157386797Y-94768736D01*
X157394392Y-94764733D01*
X157422765Y-94752206D01*
X157427661Y-94747309D01*
X157450069Y-94729561D01*
X157455952Y-94725919D01*
X157474649Y-94701158D01*
X157480266Y-94694703D01*
X159418059Y-92756910D01*
X159424532Y-92751279D01*
X159434224Y-92743959D01*
X159434228Y-92743958D01*
X159466459Y-92708600D01*
X159468367Y-92706602D01*
X159482174Y-92692797D01*
X159483684Y-92690592D01*
X159489023Y-92683851D01*
X159494101Y-92678281D01*
X159509916Y-92660933D01*
X159512416Y-92654478D01*
X159525749Y-92629182D01*
X159529656Y-92623481D01*
X159536757Y-92593285D01*
X159539292Y-92585101D01*
X159550500Y-92556173D01*
X159550500Y-92549248D01*
X159553795Y-92520855D01*
X159555378Y-92514123D01*
X159555379Y-92514119D01*
X159551095Y-92483408D01*
X159550500Y-92474833D01*
X159550500Y-90899366D01*
X159570185Y-90832327D01*
X159622989Y-90786572D01*
X159692147Y-90776628D01*
X159721945Y-90784802D01*
X159843238Y-90835044D01*
X159921619Y-90845363D01*
X159999999Y-90855682D01*
X160000000Y-90855682D01*
X160000001Y-90855682D01*
X160052253Y-90848802D01*
X160156762Y-90835044D01*
X160278050Y-90784804D01*
X160347516Y-90777336D01*
X160409995Y-90808611D01*
X160445648Y-90868699D01*
X160449500Y-90899366D01*
X160449500Y-91662518D01*
X160429815Y-91729557D01*
X160400986Y-91760894D01*
X160321719Y-91821716D01*
X160225463Y-91947160D01*
X160164956Y-92093237D01*
X160164955Y-92093239D01*
X160144318Y-92249998D01*
X160144318Y-92250001D01*
X160164955Y-92406760D01*
X160164956Y-92406762D01*
X160225464Y-92552841D01*
X160321718Y-92678282D01*
X160447159Y-92774536D01*
X160593238Y-92835044D01*
X160671619Y-92845363D01*
X160749999Y-92855682D01*
X160750000Y-92855682D01*
X160750001Y-92855682D01*
X160802254Y-92848802D01*
X160906762Y-92835044D01*
X161052841Y-92774536D01*
X161178282Y-92678282D01*
X161274536Y-92552841D01*
X161335044Y-92406762D01*
X161355682Y-92250000D01*
X161335044Y-92093238D01*
X161274536Y-91947159D01*
X161178282Y-91821718D01*
X161178280Y-91821717D01*
X161178280Y-91821716D01*
X161099014Y-91760894D01*
X161057811Y-91704466D01*
X161050500Y-91662518D01*
X161050500Y-79312839D01*
X161051095Y-79304263D01*
X161052771Y-79292240D01*
X161052773Y-79292236D01*
X161050566Y-79244491D01*
X161050500Y-79241628D01*
X161050500Y-79222159D01*
X161050499Y-79222153D01*
X161050009Y-79219533D01*
X161049016Y-79210980D01*
X161048246Y-79194318D01*
X161047585Y-79180009D01*
X161044788Y-79173676D01*
X161036332Y-79146370D01*
X161035061Y-79139567D01*
X161018738Y-79113205D01*
X161014731Y-79105602D01*
X161002207Y-79077237D01*
X161002206Y-79077236D01*
X161002206Y-79077235D01*
X160997308Y-79072338D01*
X160979563Y-79049934D01*
X160975918Y-79044047D01*
X160951172Y-79025360D01*
X160944694Y-79019723D01*
X158877898Y-76952927D01*
X158844413Y-76891604D01*
X158842640Y-76849063D01*
X158855682Y-76750000D01*
X158851968Y-76721793D01*
X158835044Y-76593239D01*
X158835044Y-76593238D01*
X158774536Y-76447159D01*
X158678282Y-76321718D01*
X158552841Y-76225464D01*
X158406762Y-76164956D01*
X158406760Y-76164955D01*
X158250001Y-76144318D01*
X158249999Y-76144318D01*
X158093239Y-76164955D01*
X158093237Y-76164956D01*
X157947160Y-76225463D01*
X157821718Y-76321718D01*
X157725463Y-76447160D01*
X157664956Y-76593237D01*
X157664955Y-76593239D01*
X157644318Y-76749998D01*
X157644318Y-76750001D01*
X157664955Y-76906760D01*
X157664956Y-76906762D01*
X157725464Y-77052842D01*
X157818826Y-77174514D01*
X157844020Y-77239683D01*
X157829981Y-77308128D01*
X157818826Y-77325486D01*
X157725464Y-77447157D01*
X157664956Y-77593237D01*
X157664955Y-77593239D01*
X157644318Y-77749998D01*
X157644318Y-77750001D01*
X157664955Y-77906760D01*
X157664956Y-77906762D01*
X157721511Y-78043299D01*
X157725464Y-78052841D01*
X157821718Y-78178282D01*
X157947159Y-78274536D01*
X158093238Y-78335044D01*
X158150936Y-78342640D01*
X158249999Y-78355682D01*
X158250000Y-78355682D01*
X158349061Y-78342640D01*
X158418096Y-78353405D01*
X158452927Y-78377898D01*
X159913182Y-79838153D01*
X159946666Y-79899474D01*
X159949500Y-79925832D01*
X159949500Y-89542221D01*
X159929815Y-89609260D01*
X159877011Y-89655015D01*
X159850990Y-89662489D01*
X159851088Y-89662853D01*
X159843237Y-89664956D01*
X159721953Y-89715194D01*
X159652483Y-89722663D01*
X159590004Y-89691388D01*
X159554352Y-89631299D01*
X159550500Y-89600633D01*
X159550500Y-83812838D01*
X159551095Y-83804262D01*
X159552771Y-83792239D01*
X159552773Y-83792235D01*
X159550566Y-83744490D01*
X159550500Y-83741627D01*
X159550500Y-83722159D01*
X159550499Y-83722153D01*
X159550009Y-83719533D01*
X159549016Y-83710980D01*
X159547585Y-83680008D01*
X159544788Y-83673675D01*
X159536332Y-83646368D01*
X159535061Y-83639567D01*
X159518736Y-83613202D01*
X159514735Y-83605612D01*
X159502206Y-83577235D01*
X159497308Y-83572338D01*
X159479563Y-83549934D01*
X159475918Y-83544047D01*
X159451172Y-83525360D01*
X159444694Y-83519723D01*
X159127898Y-83202927D01*
X159094413Y-83141604D01*
X159092640Y-83099063D01*
X159105682Y-83000000D01*
X159085044Y-82843238D01*
X159024536Y-82697159D01*
X158928282Y-82571718D01*
X158802841Y-82475464D01*
X158802840Y-82475463D01*
X158802838Y-82475462D01*
X158731554Y-82445936D01*
X158677150Y-82402095D01*
X158655085Y-82335801D01*
X158672364Y-82268102D01*
X158691321Y-82243698D01*
X159168059Y-81766960D01*
X159174532Y-81761329D01*
X159184224Y-81754009D01*
X159184228Y-81754008D01*
X159216459Y-81718650D01*
X159218367Y-81716652D01*
X159232174Y-81702847D01*
X159233684Y-81700642D01*
X159239023Y-81693901D01*
X159240489Y-81692292D01*
X159259916Y-81670983D01*
X159262416Y-81664528D01*
X159275750Y-81639233D01*
X159279656Y-81633531D01*
X159279655Y-81633531D01*
X159279657Y-81633530D01*
X159286757Y-81603341D01*
X159289291Y-81595156D01*
X159300500Y-81566223D01*
X159300500Y-81559297D01*
X159303795Y-81530905D01*
X159305378Y-81524173D01*
X159305379Y-81524169D01*
X159301095Y-81493458D01*
X159300500Y-81484883D01*
X159300500Y-80062839D01*
X159301095Y-80054263D01*
X159302771Y-80042240D01*
X159302773Y-80042236D01*
X159300566Y-79994491D01*
X159300500Y-79991628D01*
X159300500Y-79972159D01*
X159300499Y-79972153D01*
X159300009Y-79969533D01*
X159299016Y-79960980D01*
X159298821Y-79956760D01*
X159297585Y-79930009D01*
X159294788Y-79923676D01*
X159286332Y-79896370D01*
X159285061Y-79889567D01*
X159268738Y-79863205D01*
X159264731Y-79855602D01*
X159252207Y-79827237D01*
X159252206Y-79827236D01*
X159252206Y-79827235D01*
X159247308Y-79822338D01*
X159229563Y-79799934D01*
X159219870Y-79784279D01*
X159221447Y-79783302D01*
X159196953Y-79733050D01*
X159196269Y-79728506D01*
X159185044Y-79643240D01*
X159185044Y-79643239D01*
X159185044Y-79643238D01*
X159124536Y-79497159D01*
X159028282Y-79371718D01*
X158902841Y-79275464D01*
X158824625Y-79243066D01*
X158756762Y-79214956D01*
X158756760Y-79214955D01*
X158600001Y-79194318D01*
X158599999Y-79194318D01*
X158443239Y-79214955D01*
X158443237Y-79214956D01*
X158297160Y-79275463D01*
X158171718Y-79371718D01*
X158075463Y-79497160D01*
X158014956Y-79643237D01*
X158014955Y-79643239D01*
X157994318Y-79799998D01*
X157994318Y-79800001D01*
X158014955Y-79956760D01*
X158014956Y-79956762D01*
X158058894Y-80062839D01*
X158075464Y-80102841D01*
X158171718Y-80228282D01*
X158297159Y-80324536D01*
X158443238Y-80385044D01*
X158591686Y-80404587D01*
X158655582Y-80432853D01*
X158694053Y-80491178D01*
X158699500Y-80527526D01*
X158699500Y-80809884D01*
X158679815Y-80876923D01*
X158627011Y-80922678D01*
X158557853Y-80932622D01*
X158494297Y-80903597D01*
X158477126Y-80885374D01*
X158428282Y-80821718D01*
X158302841Y-80725464D01*
X158156762Y-80664956D01*
X158156760Y-80664955D01*
X158000001Y-80644318D01*
X157999999Y-80644318D01*
X157843239Y-80664955D01*
X157843237Y-80664956D01*
X157697160Y-80725463D01*
X157571718Y-80821718D01*
X157475463Y-80947160D01*
X157414956Y-81093237D01*
X157414955Y-81093239D01*
X157394318Y-81249998D01*
X157394318Y-81250001D01*
X157407359Y-81349060D01*
X157396593Y-81418095D01*
X157372101Y-81452926D01*
X156761848Y-82063181D01*
X156700525Y-82096666D01*
X156674167Y-82099500D01*
X150462841Y-82099500D01*
X150454267Y-82098905D01*
X150442238Y-82097227D01*
X150442235Y-82097227D01*
X150417219Y-82098383D01*
X150394490Y-82099434D01*
X150391627Y-82099500D01*
X150372155Y-82099500D01*
X150371207Y-82099677D01*
X150369515Y-82099993D01*
X150360987Y-82100982D01*
X150331797Y-82102332D01*
X150330008Y-82102415D01*
X150323663Y-82105215D01*
X150296380Y-82113665D01*
X150289568Y-82114938D01*
X150289567Y-82114939D01*
X150263206Y-82131260D01*
X150255607Y-82135265D01*
X150227235Y-82147793D01*
X150222336Y-82152693D01*
X150199942Y-82170431D01*
X150194048Y-82174080D01*
X150175359Y-82198827D01*
X150169717Y-82205310D01*
X149531790Y-82843239D01*
X148911848Y-83463181D01*
X148850525Y-83496666D01*
X148824167Y-83499500D01*
X147800521Y-83499500D01*
X147733482Y-83479815D01*
X147687727Y-83427011D01*
X147677783Y-83357853D01*
X147706808Y-83294297D01*
X147750433Y-83262066D01*
X147772765Y-83252206D01*
X147777661Y-83247309D01*
X147800069Y-83229561D01*
X147805952Y-83225919D01*
X147824649Y-83201158D01*
X147830266Y-83194703D01*
X148797073Y-82227896D01*
X148858394Y-82194413D01*
X148900936Y-82192640D01*
X149000000Y-82205682D01*
X149000001Y-82205682D01*
X149052253Y-82198802D01*
X149156762Y-82185044D01*
X149302841Y-82124536D01*
X149428282Y-82028282D01*
X149524536Y-81902841D01*
X149585044Y-81756762D01*
X149605682Y-81600000D01*
X149605041Y-81595134D01*
X149585044Y-81443239D01*
X149585044Y-81443238D01*
X149524536Y-81297159D01*
X149428282Y-81171718D01*
X149302841Y-81075464D01*
X149156762Y-81014956D01*
X149156760Y-81014955D01*
X149000001Y-80994318D01*
X148999999Y-80994318D01*
X148843239Y-81014955D01*
X148843237Y-81014956D01*
X148697160Y-81075463D01*
X148571718Y-81171718D01*
X148475463Y-81297160D01*
X148414956Y-81443237D01*
X148414955Y-81443239D01*
X148394318Y-81599998D01*
X148394318Y-81600001D01*
X148407359Y-81699060D01*
X148396593Y-81768095D01*
X148372101Y-81802926D01*
X147511848Y-82663181D01*
X147450525Y-82696666D01*
X147424167Y-82699500D01*
X145640116Y-82699500D01*
X145573077Y-82679815D01*
X145527322Y-82627011D01*
X145517378Y-82557853D01*
X145546403Y-82494297D01*
X145564625Y-82477126D01*
X145628282Y-82428282D01*
X145724536Y-82302841D01*
X145785044Y-82156762D01*
X145805682Y-82000000D01*
X145797274Y-81936138D01*
X145785044Y-81843239D01*
X145785044Y-81843238D01*
X145724536Y-81697159D01*
X145628282Y-81571718D01*
X145502841Y-81475464D01*
X145502840Y-81475463D01*
X145502838Y-81475462D01*
X145355808Y-81414561D01*
X145301404Y-81370720D01*
X145279339Y-81304426D01*
X145296618Y-81236727D01*
X145347755Y-81189116D01*
X145355808Y-81185439D01*
X145356762Y-81185044D01*
X145502841Y-81124536D01*
X145628282Y-81028282D01*
X145724536Y-80902841D01*
X145785044Y-80756762D01*
X145805682Y-80600000D01*
X145785044Y-80443238D01*
X145724536Y-80297159D01*
X145628282Y-80171718D01*
X145502841Y-80075464D01*
X145479896Y-80065960D01*
X145356762Y-80014956D01*
X145356760Y-80014955D01*
X145200001Y-79994318D01*
X145199997Y-79994318D01*
X145140684Y-80002126D01*
X145071649Y-79991360D01*
X145019393Y-79944979D01*
X145000500Y-79879187D01*
X145000500Y-77022888D01*
X145001095Y-77014312D01*
X145002771Y-77002289D01*
X145002773Y-77002285D01*
X145000566Y-76954540D01*
X145000500Y-76951677D01*
X145000500Y-76932209D01*
X145000499Y-76932203D01*
X145000009Y-76929583D01*
X144999016Y-76921030D01*
X144998465Y-76909103D01*
X144997585Y-76890058D01*
X144994786Y-76883720D01*
X144986333Y-76856423D01*
X144985061Y-76849617D01*
X144968740Y-76823257D01*
X144964734Y-76815658D01*
X144952206Y-76787284D01*
X144948038Y-76783116D01*
X144914553Y-76721793D01*
X144919537Y-76652101D01*
X144961409Y-76596168D01*
X145026873Y-76571751D01*
X145083169Y-76580873D01*
X145093238Y-76585044D01*
X145155478Y-76593238D01*
X145249999Y-76605682D01*
X145250000Y-76605682D01*
X145250001Y-76605682D01*
X145344514Y-76593239D01*
X145406762Y-76585044D01*
X145552841Y-76524536D01*
X145678282Y-76428282D01*
X145774536Y-76302841D01*
X145835044Y-76156762D01*
X145855682Y-76000000D01*
X145851340Y-75967022D01*
X145835044Y-75843239D01*
X145835044Y-75843238D01*
X145774536Y-75697159D01*
X145774535Y-75697158D01*
X145774535Y-75697157D01*
X145676124Y-75568905D01*
X145650930Y-75503736D01*
X145650500Y-75493419D01*
X145650500Y-75466159D01*
X145650499Y-75466129D01*
X145650499Y-75436568D01*
X145650499Y-75436567D01*
X145643653Y-75415501D01*
X145639111Y-75396580D01*
X145638130Y-75390383D01*
X145635646Y-75374696D01*
X145625586Y-75354952D01*
X145618140Y-75336974D01*
X145611297Y-75315913D01*
X145611296Y-75315912D01*
X145611296Y-75315910D01*
X145598269Y-75297981D01*
X145588104Y-75281392D01*
X145578050Y-75261658D01*
X145488342Y-75171950D01*
X141686819Y-71370426D01*
X141653334Y-71309103D01*
X141650500Y-71282745D01*
X141650500Y-66506580D01*
X141670185Y-66439541D01*
X141676124Y-66431093D01*
X141678279Y-66428283D01*
X141678282Y-66428282D01*
X141774536Y-66302841D01*
X141835044Y-66156762D01*
X141855682Y-66000000D01*
X141835044Y-65843238D01*
X141774536Y-65697159D01*
X141678282Y-65571718D01*
X141552841Y-65475464D01*
X141406762Y-65414956D01*
X141406760Y-65414955D01*
X141250001Y-65394318D01*
X141249999Y-65394318D01*
X141093239Y-65414955D01*
X141093237Y-65414956D01*
X140947160Y-65475463D01*
X140821718Y-65571718D01*
X140725463Y-65697160D01*
X140664956Y-65843237D01*
X140664955Y-65843239D01*
X140644318Y-65999998D01*
X140644318Y-66000001D01*
X140664955Y-66156760D01*
X140664956Y-66156762D01*
X140725464Y-66302841D01*
X140821718Y-66428282D01*
X140821720Y-66428283D01*
X140823876Y-66431093D01*
X140849070Y-66496263D01*
X140849500Y-66506580D01*
X140849500Y-71563429D01*
X140849501Y-71563439D01*
X140856346Y-71584507D01*
X140860887Y-71603418D01*
X140864354Y-71625304D01*
X140864355Y-71625307D01*
X140874412Y-71645045D01*
X140881857Y-71663018D01*
X140888704Y-71684090D01*
X140901726Y-71702014D01*
X140911890Y-71718600D01*
X140921950Y-71738342D01*
X140942864Y-71759256D01*
X140942893Y-71759287D01*
X144715997Y-75532389D01*
X144749482Y-75593712D01*
X144744498Y-75663404D01*
X144726702Y-75695543D01*
X144725467Y-75697152D01*
X144725465Y-75697156D01*
X144664956Y-75843237D01*
X144664955Y-75843239D01*
X144644318Y-75999998D01*
X144644318Y-76000001D01*
X144664955Y-76156759D01*
X144664955Y-76156761D01*
X144664956Y-76156762D01*
X144669127Y-76166832D01*
X144676595Y-76236300D01*
X144645319Y-76298779D01*
X144585230Y-76334431D01*
X144515405Y-76331936D01*
X144466884Y-76301963D01*
X144351639Y-76186718D01*
X144321747Y-76138440D01*
X144319882Y-76132879D01*
X144319882Y-76132874D01*
X144300688Y-76098414D01*
X144298158Y-76093330D01*
X144282231Y-76057259D01*
X144282227Y-76057255D01*
X144277071Y-76049727D01*
X144271038Y-76041739D01*
X144265216Y-76034728D01*
X144265215Y-76034726D01*
X144234879Y-76009535D01*
X144230669Y-76005697D01*
X140516921Y-72291950D01*
X140511278Y-72285465D01*
X140503956Y-72275770D01*
X140468624Y-72243560D01*
X140466573Y-72241602D01*
X140452797Y-72227826D01*
X140450586Y-72226311D01*
X140443853Y-72220978D01*
X140420933Y-72200084D01*
X140414470Y-72197580D01*
X140389192Y-72184256D01*
X140383481Y-72180344D01*
X140383478Y-72180343D01*
X140372972Y-72175704D01*
X140373666Y-72174132D01*
X140324639Y-72146277D01*
X140295127Y-72096085D01*
X140288814Y-72075273D01*
X140195910Y-71901462D01*
X140195909Y-71901460D01*
X140070883Y-71749116D01*
X139918539Y-71624090D01*
X139918532Y-71624086D01*
X139744733Y-71531188D01*
X139744727Y-71531186D01*
X139556132Y-71473976D01*
X139556129Y-71473975D01*
X139360000Y-71454659D01*
X139163870Y-71473975D01*
X138975266Y-71531188D01*
X138801467Y-71624086D01*
X138801460Y-71624090D01*
X138649116Y-71749116D01*
X138524090Y-71901460D01*
X138524086Y-71901467D01*
X138431188Y-72075266D01*
X138373975Y-72263870D01*
X138354659Y-72460000D01*
X138373975Y-72656129D01*
X138431188Y-72844733D01*
X138524086Y-73018532D01*
X138524090Y-73018539D01*
X138649116Y-73170883D01*
X138801460Y-73295909D01*
X138801467Y-73295913D01*
X138975266Y-73388811D01*
X138975269Y-73388811D01*
X138975273Y-73388814D01*
X139163868Y-73446024D01*
X139360000Y-73465341D01*
X139556132Y-73446024D01*
X139744727Y-73388814D01*
X139918538Y-73295910D01*
X140070883Y-73170883D01*
X140195910Y-73018538D01*
X140195910Y-73018537D01*
X140198212Y-73015733D01*
X140255958Y-72976399D01*
X140325802Y-72974528D01*
X140381746Y-73006717D01*
X143678385Y-76303356D01*
X143708275Y-76351628D01*
X143710143Y-76357201D01*
X143729318Y-76391628D01*
X143731871Y-76396755D01*
X143747792Y-76432813D01*
X143752940Y-76440328D01*
X143758993Y-76448341D01*
X143764809Y-76455347D01*
X143764811Y-76455349D01*
X143764812Y-76455350D01*
X143764814Y-76455352D01*
X143795132Y-76480527D01*
X143799367Y-76484388D01*
X144363181Y-77048202D01*
X144396666Y-77109525D01*
X144399500Y-77135883D01*
X144399500Y-80237158D01*
X144398905Y-80245732D01*
X144397227Y-80257766D01*
X144397689Y-80267766D01*
X144381119Y-80335642D01*
X144330483Y-80383785D01*
X144261857Y-80396909D01*
X144197029Y-80370848D01*
X144186140Y-80361169D01*
X140536819Y-76711848D01*
X140503334Y-76650525D01*
X140500500Y-76624167D01*
X140500500Y-75902838D01*
X140501095Y-75894262D01*
X140502771Y-75882239D01*
X140502773Y-75882235D01*
X140500632Y-75835910D01*
X140500566Y-75834490D01*
X140500500Y-75831627D01*
X140500500Y-75812159D01*
X140500499Y-75812153D01*
X140500009Y-75809533D01*
X140499016Y-75800980D01*
X140497585Y-75770008D01*
X140494786Y-75763670D01*
X140486333Y-75736373D01*
X140485061Y-75729567D01*
X140468740Y-75703207D01*
X140464734Y-75695608D01*
X140452206Y-75667234D01*
X140447309Y-75662337D01*
X140429561Y-75639931D01*
X140425919Y-75634048D01*
X140401180Y-75615366D01*
X140394696Y-75609724D01*
X140353877Y-75568905D01*
X140312350Y-75527379D01*
X140278866Y-75466057D01*
X140283850Y-75396365D01*
X140286551Y-75390383D01*
X140286483Y-75390355D01*
X140288810Y-75384736D01*
X140288811Y-75384732D01*
X140288814Y-75384727D01*
X140346024Y-75196132D01*
X140365341Y-75000000D01*
X140346024Y-74803868D01*
X140288814Y-74615273D01*
X140288811Y-74615269D01*
X140288811Y-74615266D01*
X140195913Y-74441467D01*
X140195909Y-74441460D01*
X140070883Y-74289116D01*
X139918539Y-74164090D01*
X139918532Y-74164086D01*
X139744733Y-74071188D01*
X139744727Y-74071186D01*
X139556132Y-74013976D01*
X139556129Y-74013975D01*
X139360000Y-73994659D01*
X139163870Y-74013975D01*
X138975266Y-74071188D01*
X138801467Y-74164086D01*
X138801460Y-74164090D01*
X138649116Y-74289116D01*
X138524090Y-74441460D01*
X138524086Y-74441467D01*
X138431188Y-74615266D01*
X138373975Y-74803870D01*
X138354659Y-75000000D01*
X138373975Y-75196129D01*
X138374288Y-75197160D01*
X138410310Y-75315910D01*
X138431188Y-75384733D01*
X138524086Y-75558532D01*
X138524090Y-75558539D01*
X138649116Y-75710883D01*
X138801460Y-75835909D01*
X138801467Y-75835913D01*
X138975266Y-75928811D01*
X138975269Y-75928811D01*
X138975273Y-75928814D01*
X139163868Y-75986024D01*
X139360000Y-76005341D01*
X139556132Y-75986024D01*
X139739505Y-75930397D01*
X139809371Y-75929774D01*
X139868484Y-75967022D01*
X139898075Y-76030316D01*
X139899500Y-76049058D01*
X139899500Y-76490941D01*
X139879815Y-76557980D01*
X139827011Y-76603735D01*
X139757853Y-76613679D01*
X139739505Y-76609602D01*
X139556130Y-76553975D01*
X139360000Y-76534659D01*
X139163870Y-76553975D01*
X138975266Y-76611188D01*
X138801467Y-76704086D01*
X138801460Y-76704090D01*
X138649116Y-76829116D01*
X138524090Y-76981460D01*
X138524086Y-76981467D01*
X138431188Y-77155266D01*
X138373975Y-77343870D01*
X138354659Y-77540000D01*
X138373975Y-77736129D01*
X138373976Y-77736132D01*
X138426446Y-77909103D01*
X138431188Y-77924733D01*
X138524086Y-78098532D01*
X138524090Y-78098539D01*
X138649116Y-78250883D01*
X138801460Y-78375909D01*
X138801467Y-78375913D01*
X138975266Y-78468811D01*
X138975269Y-78468811D01*
X138975273Y-78468814D01*
X139163868Y-78526024D01*
X139360000Y-78545341D01*
X139556132Y-78526024D01*
X139744727Y-78468814D01*
X139744732Y-78468811D01*
X139744736Y-78468810D01*
X139750355Y-78466483D01*
X139751232Y-78468602D01*
X139809609Y-78456429D01*
X139874861Y-78481408D01*
X139887380Y-78492351D01*
X144563078Y-83168049D01*
X144568721Y-83174533D01*
X144576041Y-83184226D01*
X144576042Y-83184228D01*
X144594632Y-83201175D01*
X144611375Y-83216439D01*
X144613423Y-83218394D01*
X144627203Y-83232174D01*
X144629413Y-83233688D01*
X144636143Y-83239018D01*
X144645245Y-83247316D01*
X144659065Y-83259915D01*
X144668834Y-83265963D01*
X144668205Y-83266978D01*
X144714359Y-83302446D01*
X144737950Y-83368213D01*
X144722239Y-83436293D01*
X144672215Y-83485072D01*
X144614164Y-83499500D01*
X142375833Y-83499500D01*
X142308794Y-83479815D01*
X142288152Y-83463181D01*
X139917702Y-81092731D01*
X139884217Y-81031408D01*
X139889201Y-80961716D01*
X139926718Y-80909197D01*
X140070883Y-80790883D01*
X140195910Y-80638538D01*
X140288814Y-80464727D01*
X140346024Y-80276132D01*
X140365341Y-80080000D01*
X140346024Y-79883868D01*
X140288814Y-79695273D01*
X140288811Y-79695269D01*
X140288811Y-79695266D01*
X140195913Y-79521467D01*
X140195909Y-79521460D01*
X140070883Y-79369116D01*
X139918539Y-79244090D01*
X139918532Y-79244086D01*
X139744733Y-79151188D01*
X139744727Y-79151186D01*
X139556132Y-79093976D01*
X139556129Y-79093975D01*
X139360000Y-79074659D01*
X139163870Y-79093975D01*
X138975266Y-79151188D01*
X138801467Y-79244086D01*
X138801460Y-79244090D01*
X138649116Y-79369116D01*
X138524090Y-79521460D01*
X138524086Y-79521467D01*
X138431188Y-79695266D01*
X138373975Y-79883870D01*
X138369119Y-79933174D01*
X138342957Y-79997961D01*
X138285922Y-80038319D01*
X138216122Y-80041435D01*
X138158035Y-80008699D01*
X138086819Y-79937483D01*
X138053334Y-79876160D01*
X138050500Y-79849802D01*
X138050500Y-79587482D01*
X138070185Y-79520443D01*
X138099014Y-79489106D01*
X138178282Y-79428282D01*
X138274536Y-79302841D01*
X138335044Y-79156762D01*
X138355682Y-79000000D01*
X138335044Y-78843238D01*
X138274536Y-78697159D01*
X138178282Y-78571718D01*
X138052841Y-78475464D01*
X138036779Y-78468811D01*
X137906762Y-78414956D01*
X137906760Y-78414955D01*
X137750001Y-78394318D01*
X137749999Y-78394318D01*
X137593239Y-78414955D01*
X137593237Y-78414956D01*
X137471953Y-78465194D01*
X137402483Y-78472663D01*
X137340004Y-78441388D01*
X137304352Y-78381299D01*
X137300500Y-78350633D01*
X137300500Y-78158419D01*
X137308870Y-78113635D01*
X137312415Y-78104482D01*
X137325750Y-78079183D01*
X137329656Y-78073481D01*
X137329655Y-78073481D01*
X137329657Y-78073480D01*
X137336757Y-78043291D01*
X137339291Y-78035106D01*
X137350500Y-78006173D01*
X137350500Y-77999248D01*
X137353795Y-77970855D01*
X137355378Y-77964123D01*
X137355379Y-77964119D01*
X137351095Y-77933408D01*
X137350500Y-77924833D01*
X137350500Y-72405832D01*
X137370185Y-72338793D01*
X137386814Y-72318156D01*
X138832620Y-70872349D01*
X138893941Y-70838866D01*
X138963633Y-70843850D01*
X138969613Y-70846549D01*
X138969641Y-70846482D01*
X138975260Y-70848809D01*
X138975268Y-70848811D01*
X138975273Y-70848814D01*
X139163868Y-70906024D01*
X139360000Y-70925341D01*
X139556132Y-70906024D01*
X139744727Y-70848814D01*
X139744737Y-70848809D01*
X139918532Y-70755913D01*
X139918538Y-70755910D01*
X140070883Y-70630883D01*
X140195910Y-70478538D01*
X140288814Y-70304727D01*
X140346024Y-70116132D01*
X140365341Y-69920000D01*
X140346024Y-69723868D01*
X140288814Y-69535273D01*
X140288811Y-69535269D01*
X140288811Y-69535266D01*
X140195913Y-69361467D01*
X140195909Y-69361460D01*
X140070883Y-69209116D01*
X139918539Y-69084090D01*
X139918532Y-69084086D01*
X139744733Y-68991188D01*
X139744727Y-68991186D01*
X139556132Y-68933976D01*
X139556129Y-68933975D01*
X139360000Y-68914659D01*
X139163870Y-68933975D01*
X138975266Y-68991188D01*
X138801467Y-69084086D01*
X138801460Y-69084090D01*
X138649116Y-69209116D01*
X138524090Y-69361460D01*
X138524086Y-69361467D01*
X138431188Y-69535266D01*
X138373975Y-69723870D01*
X138354659Y-69920000D01*
X138373975Y-70116129D01*
X138431190Y-70304739D01*
X138433518Y-70310359D01*
X138431411Y-70311231D01*
X138443563Y-70369687D01*
X138418542Y-70434923D01*
X138407647Y-70447380D01*
X136881948Y-71973080D01*
X136875464Y-71978722D01*
X136865768Y-71986044D01*
X136833559Y-72021374D01*
X136831585Y-72023442D01*
X136817827Y-72037200D01*
X136817822Y-72037206D01*
X136816306Y-72039420D01*
X136810976Y-72046148D01*
X136790083Y-72069066D01*
X136790083Y-72069067D01*
X136787578Y-72075533D01*
X136774259Y-72100802D01*
X136770345Y-72106515D01*
X136770343Y-72106521D01*
X136763244Y-72136699D01*
X136760702Y-72144907D01*
X136749500Y-72173826D01*
X136749500Y-72180751D01*
X136746206Y-72209141D01*
X136744621Y-72215877D01*
X136744621Y-72215881D01*
X136748905Y-72246590D01*
X136749500Y-72255166D01*
X136749500Y-77791582D01*
X136741123Y-77836386D01*
X136737577Y-77845537D01*
X136724259Y-77870802D01*
X136720345Y-77876515D01*
X136720343Y-77876521D01*
X136713244Y-77906699D01*
X136710702Y-77914907D01*
X136699500Y-77943826D01*
X136699500Y-77950751D01*
X136696206Y-77979141D01*
X136694621Y-77985877D01*
X136694621Y-77985881D01*
X120000500Y-77985881D01*
X120000500Y-75079999D01*
X121444417Y-75079999D01*
X121464699Y-75285932D01*
X121482082Y-75343237D01*
X121524768Y-75483954D01*
X121622315Y-75666450D01*
X121647517Y-75697159D01*
X121753589Y-75826410D01*
X121827812Y-75887322D01*
X121913550Y-75957685D01*
X122096046Y-76055232D01*
X122294066Y-76115300D01*
X122294065Y-76115300D01*
X122312529Y-76117118D01*
X122500000Y-76135583D01*
X122705934Y-76115300D01*
X122903954Y-76055232D01*
X123072499Y-75965141D01*
X123130952Y-75950500D01*
X126328366Y-75950500D01*
X126364361Y-75955839D01*
X126401227Y-75967022D01*
X126463868Y-75986024D01*
X126660000Y-76005341D01*
X126856132Y-75986024D01*
X127044727Y-75928814D01*
X127045723Y-75928282D01*
X127218532Y-75835913D01*
X127218538Y-75835910D01*
X127370883Y-75710883D01*
X127495910Y-75558538D01*
X127561105Y-75436567D01*
X127588811Y-75384733D01*
X127588811Y-75384732D01*
X127588814Y-75384727D01*
X127646024Y-75196132D01*
X127665341Y-75000000D01*
X127646024Y-74803868D01*
X127588814Y-74615273D01*
X127588811Y-74615269D01*
X127588811Y-74615266D01*
X127495913Y-74441467D01*
X127495909Y-74441460D01*
X127370883Y-74289116D01*
X127218539Y-74164090D01*
X127218532Y-74164086D01*
X127044733Y-74071188D01*
X127044727Y-74071186D01*
X126856132Y-74013976D01*
X126856129Y-74013975D01*
X126660000Y-73994659D01*
X126463869Y-74013975D01*
X126364361Y-74044161D01*
X126328366Y-74049500D01*
X122740151Y-74049500D01*
X122712017Y-74045327D01*
X122711906Y-74045888D01*
X122705933Y-74044699D01*
X122520282Y-74026414D01*
X122500000Y-74024417D01*
X122499999Y-74024417D01*
X122294067Y-74044699D01*
X122096043Y-74104769D01*
X121985897Y-74163643D01*
X121913550Y-74202315D01*
X121913548Y-74202316D01*
X121913547Y-74202317D01*
X121753589Y-74333589D01*
X121622317Y-74493547D01*
X121622315Y-74493550D01*
X121618867Y-74500001D01*
X121524769Y-74676043D01*
X121464699Y-74874067D01*
X121444417Y-75079999D01*
X120000500Y-75079999D01*
X120000500Y-72539999D01*
X121444417Y-72539999D01*
X121464699Y-72745932D01*
X121464700Y-72745934D01*
X121524768Y-72943954D01*
X121622315Y-73126450D01*
X121622317Y-73126452D01*
X121753589Y-73286410D01*
X121850209Y-73365702D01*
X121913550Y-73417685D01*
X122096046Y-73515232D01*
X122294066Y-73575300D01*
X122294065Y-73575300D01*
X122314347Y-73577297D01*
X122500000Y-73595583D01*
X122705934Y-73575300D01*
X122903954Y-73515232D01*
X122922830Y-73505142D01*
X122981285Y-73490500D01*
X126628207Y-73490500D01*
X126772322Y-73475845D01*
X126867367Y-73446024D01*
X126956768Y-73417974D01*
X126956771Y-73417972D01*
X126962547Y-73415494D01*
X126962640Y-73415711D01*
X126979255Y-73408674D01*
X126990398Y-73405293D01*
X127044727Y-73388814D01*
X127218538Y-73295910D01*
X127370883Y-73170883D01*
X127495910Y-73018538D01*
X127588814Y-72844727D01*
X127646024Y-72656132D01*
X127665341Y-72460000D01*
X127646024Y-72263868D01*
X127588814Y-72075273D01*
X127588811Y-72075269D01*
X127588811Y-72075266D01*
X127495913Y-71901467D01*
X127495909Y-71901460D01*
X127370883Y-71749116D01*
X127218539Y-71624090D01*
X127218532Y-71624086D01*
X127044733Y-71531188D01*
X127044727Y-71531186D01*
X126856132Y-71473976D01*
X126856129Y-71473975D01*
X126660000Y-71454659D01*
X126463870Y-71473975D01*
X126275269Y-71531187D01*
X126214950Y-71563429D01*
X126193567Y-71574858D01*
X126135115Y-71589500D01*
X122981285Y-71589500D01*
X122922831Y-71574858D01*
X122903956Y-71564769D01*
X122903955Y-71564768D01*
X122903954Y-71564768D01*
X122705934Y-71504700D01*
X122705932Y-71504699D01*
X122705934Y-71504699D01*
X122500000Y-71484417D01*
X122294067Y-71504699D01*
X122096043Y-71564769D01*
X121985898Y-71623643D01*
X121913550Y-71662315D01*
X121913548Y-71662316D01*
X121913547Y-71662317D01*
X121753589Y-71793589D01*
X121622317Y-71953547D01*
X121622315Y-71953550D01*
X121597487Y-72000000D01*
X121524769Y-72136043D01*
X121524768Y-72136045D01*
X121524768Y-72136046D01*
X121517898Y-72158692D01*
X121464699Y-72334067D01*
X121444417Y-72539999D01*
X120000500Y-72539999D01*
X120000500Y-70000000D01*
X121444417Y-70000000D01*
X121464699Y-70205932D01*
X121464700Y-70205934D01*
X121524768Y-70403954D01*
X121622315Y-70586450D01*
X121622317Y-70586452D01*
X121753589Y-70746410D01*
X121827812Y-70807322D01*
X121913550Y-70877685D01*
X122096046Y-70975232D01*
X122294066Y-71035300D01*
X122294065Y-71035300D01*
X122312529Y-71037118D01*
X122500000Y-71055583D01*
X122705934Y-71035300D01*
X122903954Y-70975232D01*
X123072499Y-70885141D01*
X123130952Y-70870500D01*
X126328366Y-70870500D01*
X126364361Y-70875839D01*
X126418305Y-70892202D01*
X126463868Y-70906024D01*
X126660000Y-70925341D01*
X126856132Y-70906024D01*
X127044727Y-70848814D01*
X127044737Y-70848809D01*
X127218532Y-70755913D01*
X127218538Y-70755910D01*
X127370883Y-70630883D01*
X127495910Y-70478538D01*
X127588814Y-70304727D01*
X127646024Y-70116132D01*
X127665341Y-69920000D01*
X127646024Y-69723868D01*
X127588814Y-69535273D01*
X127588811Y-69535269D01*
X127588811Y-69535266D01*
X127495913Y-69361467D01*
X127495909Y-69361460D01*
X127370883Y-69209116D01*
X127218539Y-69084090D01*
X127218532Y-69084086D01*
X127044733Y-68991188D01*
X127044727Y-68991186D01*
X126856132Y-68933976D01*
X126856129Y-68933975D01*
X126660000Y-68914659D01*
X126463869Y-68933975D01*
X126364361Y-68964161D01*
X126328366Y-68969500D01*
X122740151Y-68969500D01*
X122712017Y-68965327D01*
X122711906Y-68965888D01*
X122705933Y-68964699D01*
X122520282Y-68946414D01*
X122500000Y-68944417D01*
X122499999Y-68944417D01*
X122294067Y-68964699D01*
X122096043Y-69024769D01*
X121985898Y-69083643D01*
X121913550Y-69122315D01*
X121913548Y-69122316D01*
X121913547Y-69122317D01*
X121753589Y-69253589D01*
X121622317Y-69413547D01*
X121524769Y-69596043D01*
X121464699Y-69794067D01*
X121444417Y-70000000D01*
X120000500Y-70000000D01*
X120000500Y-68329752D01*
X121449500Y-68329752D01*
X121461131Y-68388229D01*
X121461132Y-68388230D01*
X121505447Y-68454552D01*
X121571769Y-68498867D01*
X121571770Y-68498868D01*
X121630247Y-68510499D01*
X121630250Y-68510500D01*
X121630252Y-68510500D01*
X123369750Y-68510500D01*
X123369751Y-68510499D01*
X123384568Y-68507552D01*
X123428229Y-68498868D01*
X123428229Y-68498867D01*
X123428231Y-68498867D01*
X123494552Y-68454552D01*
X123494552Y-68454551D01*
X123502286Y-68446819D01*
X123563609Y-68413334D01*
X123589967Y-68410500D01*
X126628207Y-68410500D01*
X126772322Y-68395845D01*
X126867367Y-68366024D01*
X126956768Y-68337974D01*
X126956771Y-68337972D01*
X126962547Y-68335494D01*
X126962640Y-68335711D01*
X126979255Y-68328674D01*
X126990398Y-68325293D01*
X127044727Y-68308814D01*
X127218538Y-68215910D01*
X127370883Y-68090883D01*
X127495910Y-67938538D01*
X127588814Y-67764727D01*
X127646024Y-67576132D01*
X127665341Y-67380000D01*
X138354659Y-67380000D01*
X138373975Y-67576129D01*
X138431188Y-67764733D01*
X138524086Y-67938532D01*
X138524090Y-67938539D01*
X138649116Y-68090883D01*
X138801460Y-68215909D01*
X138801467Y-68215913D01*
X138975266Y-68308811D01*
X138975269Y-68308811D01*
X138975273Y-68308814D01*
X139163868Y-68366024D01*
X139360000Y-68385341D01*
X139556132Y-68366024D01*
X139744727Y-68308814D01*
X139918538Y-68215910D01*
X140070883Y-68090883D01*
X140195910Y-67938538D01*
X140288814Y-67764727D01*
X140346024Y-67576132D01*
X140365341Y-67380000D01*
X140346024Y-67183868D01*
X140288814Y-66995273D01*
X140288811Y-66995269D01*
X140288811Y-66995266D01*
X140195913Y-66821467D01*
X140195909Y-66821460D01*
X140070883Y-66669116D01*
X139918539Y-66544090D01*
X139918532Y-66544086D01*
X139744733Y-66451188D01*
X139744727Y-66451186D01*
X139618997Y-66413045D01*
X139556129Y-66393975D01*
X139360000Y-66374659D01*
X139163870Y-66393975D01*
X138975266Y-66451188D01*
X138801467Y-66544086D01*
X138801460Y-66544090D01*
X138649116Y-66669116D01*
X138524090Y-66821460D01*
X138524086Y-66821467D01*
X138431188Y-66995266D01*
X138373975Y-67183870D01*
X138354659Y-67380000D01*
X127665341Y-67380000D01*
X127646024Y-67183868D01*
X127588814Y-66995273D01*
X127588811Y-66995269D01*
X127588811Y-66995266D01*
X127495913Y-66821467D01*
X127495909Y-66821460D01*
X127370883Y-66669116D01*
X127218539Y-66544090D01*
X127218532Y-66544086D01*
X127044733Y-66451188D01*
X127044727Y-66451186D01*
X126918996Y-66413046D01*
X126856129Y-66393975D01*
X126660000Y-66374659D01*
X126463870Y-66393975D01*
X126275269Y-66451187D01*
X126213776Y-66484056D01*
X126193567Y-66494858D01*
X126135115Y-66509500D01*
X123589967Y-66509500D01*
X123522928Y-66489815D01*
X123502286Y-66473181D01*
X123494553Y-66465448D01*
X123428230Y-66421132D01*
X123428229Y-66421131D01*
X123369752Y-66409500D01*
X123369748Y-66409500D01*
X121630252Y-66409500D01*
X121630247Y-66409500D01*
X121571770Y-66421131D01*
X121571769Y-66421132D01*
X121505447Y-66465447D01*
X121461132Y-66531769D01*
X121461131Y-66531770D01*
X121449500Y-66590247D01*
X121449500Y-68329752D01*
X120000500Y-68329752D01*
X120000500Y-64840000D01*
X125654659Y-64840000D01*
X125673975Y-65036129D01*
X125673976Y-65036132D01*
X125705973Y-65141613D01*
X125731188Y-65224733D01*
X125824086Y-65398532D01*
X125824090Y-65398539D01*
X125949116Y-65550883D01*
X126101460Y-65675909D01*
X126101467Y-65675913D01*
X126275266Y-65768811D01*
X126275269Y-65768811D01*
X126275273Y-65768814D01*
X126463868Y-65826024D01*
X126660000Y-65845341D01*
X126856132Y-65826024D01*
X127044727Y-65768814D01*
X127218538Y-65675910D01*
X127370883Y-65550883D01*
X127495910Y-65398538D01*
X127588814Y-65224727D01*
X127646024Y-65036132D01*
X127665341Y-64840000D01*
X127646024Y-64643868D01*
X127588814Y-64455273D01*
X127588811Y-64455269D01*
X127588811Y-64455266D01*
X127495913Y-64281467D01*
X127495909Y-64281460D01*
X127370883Y-64129116D01*
X127218539Y-64004090D01*
X127218532Y-64004086D01*
X127044733Y-63911188D01*
X127044727Y-63911186D01*
X126856132Y-63853976D01*
X126856129Y-63853975D01*
X126660000Y-63834659D01*
X126463870Y-63853975D01*
X126275266Y-63911188D01*
X126101467Y-64004086D01*
X126101460Y-64004090D01*
X125949116Y-64129116D01*
X125824090Y-64281460D01*
X125824086Y-64281467D01*
X125731188Y-64455266D01*
X125673975Y-64643870D01*
X125654659Y-64840000D01*
X120000500Y-64840000D01*
X120000500Y-63001622D01*
X120000542Y-63000004D01*
X121494357Y-63000004D01*
X121502350Y-63096456D01*
X121502562Y-63101579D01*
X121502562Y-63114456D01*
X121501274Y-63118839D01*
X121501940Y-63126871D01*
X121504143Y-63133570D01*
X121506264Y-63146279D01*
X121506899Y-63151367D01*
X121514891Y-63247816D01*
X121514891Y-63247818D01*
X121538654Y-63341659D01*
X121539707Y-63346679D01*
X121541825Y-63359374D01*
X121541277Y-63363902D01*
X121543256Y-63371715D01*
X121546532Y-63377962D01*
X121550714Y-63390145D01*
X121552177Y-63395058D01*
X121575432Y-63486887D01*
X121575937Y-63488881D01*
X121602565Y-63549588D01*
X121614810Y-63577503D01*
X121616675Y-63582283D01*
X121620864Y-63594488D01*
X121621069Y-63599040D01*
X121624304Y-63606415D01*
X121628567Y-63612043D01*
X121634700Y-63623377D01*
X121636949Y-63627978D01*
X121675826Y-63716605D01*
X121728764Y-63797634D01*
X121731389Y-63802039D01*
X121737521Y-63813371D01*
X121738473Y-63817831D01*
X121742879Y-63824575D01*
X121748009Y-63829422D01*
X121755927Y-63839596D01*
X121758903Y-63843766D01*
X121809371Y-63921012D01*
X121811836Y-63924785D01*
X121836306Y-63951366D01*
X121877391Y-63995998D01*
X121880706Y-63999911D01*
X121888612Y-64010070D01*
X121890284Y-64014308D01*
X121895752Y-64020249D01*
X121901599Y-64024178D01*
X121911079Y-64032904D01*
X121914703Y-64036529D01*
X121980257Y-64107739D01*
X122056624Y-64167178D01*
X122060539Y-64170493D01*
X122070026Y-64179227D01*
X122072373Y-64183133D01*
X122078730Y-64188081D01*
X122085150Y-64190998D01*
X122095935Y-64198043D01*
X122100091Y-64201009D01*
X122176491Y-64260474D01*
X122261634Y-64306551D01*
X122266010Y-64309159D01*
X122276811Y-64316216D01*
X122279772Y-64319686D01*
X122286844Y-64323514D01*
X122293664Y-64325336D01*
X122305483Y-64330521D01*
X122310057Y-64332756D01*
X122395190Y-64378828D01*
X122486767Y-64410266D01*
X122491480Y-64412105D01*
X122503300Y-64417290D01*
X122506791Y-64420224D01*
X122514421Y-64422843D01*
X122521432Y-64423517D01*
X122529378Y-64425528D01*
X122533935Y-64426682D01*
X122538823Y-64428137D01*
X122604307Y-64450618D01*
X122630385Y-64459571D01*
X122725857Y-64475502D01*
X122730861Y-64476550D01*
X122743359Y-64479715D01*
X122747285Y-64482034D01*
X122755240Y-64483362D01*
X122762274Y-64482871D01*
X122775122Y-64483936D01*
X122780187Y-64484567D01*
X122875665Y-64500500D01*
X122875666Y-64500500D01*
X122972436Y-64500500D01*
X122977556Y-64500712D01*
X122989551Y-64501705D01*
X122990419Y-64501777D01*
X122994680Y-64503421D01*
X123002715Y-64503421D01*
X123009579Y-64501778D01*
X123022453Y-64500712D01*
X123027574Y-64500500D01*
X123124330Y-64500500D01*
X123124335Y-64500500D01*
X123219854Y-64484560D01*
X123224850Y-64483938D01*
X123237730Y-64482871D01*
X123242193Y-64483789D01*
X123250141Y-64482463D01*
X123256623Y-64479719D01*
X123269158Y-64476545D01*
X123274105Y-64475508D01*
X123369614Y-64459571D01*
X123461198Y-64428129D01*
X123466055Y-64426684D01*
X123478568Y-64423516D01*
X123483120Y-64423687D01*
X123490741Y-64421071D01*
X123496691Y-64417293D01*
X123508501Y-64412113D01*
X123513251Y-64410260D01*
X123604810Y-64378828D01*
X123689970Y-64332741D01*
X123694522Y-64330517D01*
X123706340Y-64325334D01*
X123710865Y-64324752D01*
X123717935Y-64320926D01*
X123723190Y-64316215D01*
X123733999Y-64309153D01*
X123738361Y-64306553D01*
X123823509Y-64260474D01*
X123899937Y-64200986D01*
X123904025Y-64198068D01*
X123914856Y-64190993D01*
X123919221Y-64189676D01*
X123925568Y-64184735D01*
X123929972Y-64179228D01*
X123939462Y-64170492D01*
X123943349Y-64167198D01*
X124019744Y-64107738D01*
X124085313Y-64036510D01*
X124088909Y-64032914D01*
X124098405Y-64024172D01*
X124102489Y-64022157D01*
X124107949Y-64016226D01*
X124111384Y-64010073D01*
X124119315Y-63999883D01*
X124122585Y-63996022D01*
X124188164Y-63924785D01*
X124241124Y-63843723D01*
X124244055Y-63839618D01*
X124252004Y-63829405D01*
X124255699Y-63826746D01*
X124260104Y-63820004D01*
X124262481Y-63813365D01*
X124268621Y-63802020D01*
X124271224Y-63797650D01*
X124324173Y-63716607D01*
X124363068Y-63627933D01*
X124365298Y-63623377D01*
X124371421Y-63612062D01*
X124374641Y-63608816D01*
X124377882Y-63601427D01*
X124379135Y-63594483D01*
X124383329Y-63582266D01*
X124385170Y-63577546D01*
X124424063Y-63488881D01*
X124447832Y-63395019D01*
X124449280Y-63390156D01*
X124453467Y-63377960D01*
X124456103Y-63374238D01*
X124458081Y-63366428D01*
X124458174Y-63359373D01*
X124460299Y-63346638D01*
X124461344Y-63341659D01*
X124485108Y-63247821D01*
X124493103Y-63151333D01*
X124493734Y-63146278D01*
X124498508Y-63117669D01*
X124497688Y-63111928D01*
X124498088Y-63092585D01*
X124498283Y-63088814D01*
X124505643Y-63000000D01*
X124505508Y-62998376D01*
X124504412Y-62985145D01*
X124498283Y-62911189D01*
X124498088Y-62907410D01*
X124497688Y-62888072D01*
X124498789Y-62884016D01*
X124497438Y-62875919D01*
X124493731Y-62853704D01*
X124493102Y-62848660D01*
X124485108Y-62752179D01*
X124461341Y-62658327D01*
X124460295Y-62653334D01*
X124460292Y-62653319D01*
X124458175Y-62640627D01*
X124458721Y-62636102D01*
X124456743Y-62628287D01*
X124453466Y-62622037D01*
X124449283Y-62609851D01*
X124447830Y-62604976D01*
X124424063Y-62511119D01*
X124385180Y-62422475D01*
X124383326Y-62417725D01*
X124379133Y-62405509D01*
X124378927Y-62400953D01*
X124375699Y-62393592D01*
X124371435Y-62387962D01*
X124365298Y-62376621D01*
X124363052Y-62372029D01*
X124324173Y-62283393D01*
X124324173Y-62283392D01*
X124271231Y-62202358D01*
X124268618Y-62197973D01*
X124262477Y-62186626D01*
X124261524Y-62182167D01*
X124257122Y-62175428D01*
X124251994Y-62170581D01*
X124244081Y-62160415D01*
X124241102Y-62156243D01*
X124188164Y-62075215D01*
X124158707Y-62043216D01*
X124122606Y-62003999D01*
X124119291Y-62000085D01*
X124111384Y-61989926D01*
X124109711Y-61985685D01*
X124104253Y-61979757D01*
X124098398Y-61975820D01*
X124088918Y-61967092D01*
X124085294Y-61963468D01*
X124048262Y-61923241D01*
X124019744Y-61892262D01*
X123994983Y-61872990D01*
X123943378Y-61832823D01*
X123939462Y-61829507D01*
X123929970Y-61820767D01*
X123927624Y-61816863D01*
X123921279Y-61811924D01*
X123914845Y-61809000D01*
X123904055Y-61801950D01*
X123899893Y-61798978D01*
X123875501Y-61779993D01*
X123823509Y-61739526D01*
X123823504Y-61739523D01*
X123823503Y-61739522D01*
X123774906Y-61713223D01*
X123738380Y-61693456D01*
X123733985Y-61690837D01*
X123723190Y-61683784D01*
X123720227Y-61680313D01*
X123713156Y-61676486D01*
X123706332Y-61674661D01*
X123694528Y-61669483D01*
X123689925Y-61667233D01*
X123604816Y-61621175D01*
X123604813Y-61621174D01*
X123604810Y-61621172D01*
X123604804Y-61621170D01*
X123604802Y-61621169D01*
X123513258Y-61589742D01*
X123508480Y-61587877D01*
X123496690Y-61582705D01*
X123493199Y-61579771D01*
X123485584Y-61577156D01*
X123478562Y-61576481D01*
X123474750Y-61575516D01*
X123466080Y-61573320D01*
X123461168Y-61571858D01*
X123369614Y-61540429D01*
X123274141Y-61524496D01*
X123269128Y-61523445D01*
X123256648Y-61520286D01*
X123252715Y-61517962D01*
X123244768Y-61516636D01*
X123237719Y-61517127D01*
X123224888Y-61516063D01*
X123219804Y-61515430D01*
X123124336Y-61499500D01*
X123124335Y-61499500D01*
X123027541Y-61499500D01*
X123022428Y-61499288D01*
X123011122Y-61498351D01*
X123009583Y-61498224D01*
X123005328Y-61496582D01*
X122997279Y-61496582D01*
X122990414Y-61498224D01*
X122980435Y-61499051D01*
X122980291Y-61499063D01*
X122977606Y-61499285D01*
X122972495Y-61499500D01*
X122875665Y-61499500D01*
X122780194Y-61515430D01*
X122775109Y-61516064D01*
X122762277Y-61517127D01*
X122757806Y-61516207D01*
X122749862Y-61517532D01*
X122743355Y-61520285D01*
X122730872Y-61523445D01*
X122725857Y-61524497D01*
X122630383Y-61540429D01*
X122538835Y-61571856D01*
X122533929Y-61573317D01*
X122521450Y-61576478D01*
X122516890Y-61576307D01*
X122509261Y-61578925D01*
X122503304Y-61582707D01*
X122491515Y-61587879D01*
X122486740Y-61589742D01*
X122395194Y-61621170D01*
X122395183Y-61621175D01*
X122310084Y-61667228D01*
X122305479Y-61669479D01*
X122293662Y-61674663D01*
X122289135Y-61675244D01*
X122282061Y-61679072D01*
X122276804Y-61683786D01*
X122266009Y-61690839D01*
X122261607Y-61693461D01*
X122176493Y-61739524D01*
X122176489Y-61739526D01*
X122100108Y-61798976D01*
X122095944Y-61801950D01*
X122088967Y-61806509D01*
X122085138Y-61809010D01*
X122080771Y-61810327D01*
X122074428Y-61815264D01*
X122070025Y-61820771D01*
X122060532Y-61829510D01*
X122056620Y-61832824D01*
X121980255Y-61892262D01*
X121914696Y-61963477D01*
X121911071Y-61967102D01*
X121901596Y-61975824D01*
X121897509Y-61977840D01*
X121892043Y-61983778D01*
X121888604Y-61989940D01*
X121880699Y-62000095D01*
X121877390Y-62004001D01*
X121811836Y-62075215D01*
X121758903Y-62156233D01*
X121755931Y-62160397D01*
X121749308Y-62168908D01*
X121747990Y-62170601D01*
X121744294Y-62173259D01*
X121739900Y-62179984D01*
X121737520Y-62186631D01*
X121731387Y-62197962D01*
X121728764Y-62202364D01*
X121675828Y-62283390D01*
X121636952Y-62372015D01*
X121634703Y-62376616D01*
X121631673Y-62382216D01*
X121628566Y-62387958D01*
X121625350Y-62391198D01*
X121622116Y-62398571D01*
X121620863Y-62405517D01*
X121616674Y-62417717D01*
X121614811Y-62422493D01*
X121585179Y-62490047D01*
X121575939Y-62511116D01*
X121575936Y-62511122D01*
X121552177Y-62604940D01*
X121550715Y-62609851D01*
X121546533Y-62622033D01*
X121543896Y-62625755D01*
X121541917Y-62633570D01*
X121541825Y-62640622D01*
X121539707Y-62653319D01*
X121538654Y-62658339D01*
X121514891Y-62752178D01*
X121514891Y-62752183D01*
X121506899Y-62848631D01*
X121506264Y-62853719D01*
X121504143Y-62866428D01*
X121502156Y-62870530D01*
X121501490Y-62878563D01*
X121502562Y-62885542D01*
X121502562Y-62898419D01*
X121502350Y-62903542D01*
X121494357Y-62999994D01*
X121494357Y-63000004D01*
X120000542Y-63000004D01*
X120000585Y-62998376D01*
X120005152Y-62911229D01*
X120007497Y-62866487D01*
X120007944Y-62858539D01*
X120017803Y-62682968D01*
X120018464Y-62676791D01*
X120042611Y-62524331D01*
X120044857Y-62511116D01*
X120070227Y-62361796D01*
X120071451Y-62356196D01*
X120112425Y-62203279D01*
X120157083Y-62048268D01*
X120158764Y-62043254D01*
X120216127Y-61893815D01*
X120277366Y-61745972D01*
X120279379Y-61741606D01*
X120352511Y-61598078D01*
X120384372Y-61540429D01*
X120429655Y-61458494D01*
X120431867Y-61454808D01*
X120519980Y-61319127D01*
X120551939Y-61274085D01*
X120612154Y-61189220D01*
X120614486Y-61186143D01*
X120715655Y-61061209D01*
X120717537Y-61058998D01*
X120822773Y-60941239D01*
X120825092Y-60938787D01*
X120938787Y-60825092D01*
X120941239Y-60822773D01*
X121058998Y-60717537D01*
X121061209Y-60715655D01*
X121186143Y-60614486D01*
X121189220Y-60612154D01*
X121319127Y-60519980D01*
X121329046Y-60513537D01*
X121454808Y-60431867D01*
X121458494Y-60429655D01*
X121598078Y-60352511D01*
X121610063Y-60346403D01*
X121741606Y-60279379D01*
X121745972Y-60277366D01*
X121893815Y-60216127D01*
X122043254Y-60158764D01*
X122048268Y-60157083D01*
X122203279Y-60112425D01*
X122356196Y-60071451D01*
X122361796Y-60070227D01*
X122524284Y-60042618D01*
X122676791Y-60018464D01*
X122682968Y-60017803D01*
X122866566Y-60007493D01*
X122998380Y-60000584D01*
X123001622Y-60000500D01*
X145876000Y-60000500D01*
X145943039Y-60020185D01*
G37*
%TD.AperFunction*%
%TD*%
M02*
