%TF.GenerationSoftware,KiCad,Pcbnew,7.0.6*%
%TF.CreationDate,2023-09-28T21:06:30-04:00*%
%TF.ProjectId,Welder_Knob,57656c64-6572-45f4-9b6e-6f622e6b6963,rev?*%
%TF.SameCoordinates,Original*%
%TF.FileFunction,Drillmap*%
%TF.FilePolarity,Positive*%
%FSLAX45Y45*%
G04 Gerber Fmt 4.5, Leading zero omitted, Abs format (unit mm)*
G04 Created by KiCad (PCBNEW 7.0.6) date 2023-09-28 21:06:30*
%MOMM*%
%LPD*%
G01*
G04 APERTURE LIST*
%ADD10C,0.100000*%
%ADD11C,0.200000*%
G04 APERTURE END LIST*
D10*
X16200000Y-6300000D02*
G75*
G03*
X15900000Y-6000000I-300000J0D01*
G01*
X12450000Y-6300000D02*
G75*
G03*
X12450000Y-6300000I-150000J0D01*
G01*
X16050000Y-9900000D02*
G75*
G03*
X16050000Y-9900000I-150000J0D01*
G01*
X12000000Y-6300000D02*
X12000000Y-9900000D01*
X12300000Y-6000000D02*
G75*
G03*
X12000000Y-6300000I0J-300000D01*
G01*
X15900000Y-10200000D02*
G75*
G03*
X16200000Y-9900000I0J300000D01*
G01*
X16200000Y-9900000D02*
X16200000Y-6300000D01*
X12300000Y-10200000D02*
X15900000Y-10200000D01*
X12450000Y-9900000D02*
G75*
G03*
X12450000Y-9900000I-150000J0D01*
G01*
X16050000Y-6300000D02*
G75*
G03*
X16050000Y-6300000I-150000J0D01*
G01*
X15900000Y-6000000D02*
X12300000Y-6000000D01*
X12000000Y-9900000D02*
G75*
G03*
X12300000Y-10200000I300000J0D01*
G01*
D11*
X12255777Y-10516484D02*
X12255777Y-10316484D01*
X12255777Y-10316484D02*
X12303396Y-10316484D01*
X12303396Y-10316484D02*
X12331967Y-10326008D01*
X12331967Y-10326008D02*
X12351015Y-10345055D01*
X12351015Y-10345055D02*
X12360539Y-10364103D01*
X12360539Y-10364103D02*
X12370062Y-10402198D01*
X12370062Y-10402198D02*
X12370062Y-10430770D01*
X12370062Y-10430770D02*
X12360539Y-10468865D01*
X12360539Y-10468865D02*
X12351015Y-10487912D01*
X12351015Y-10487912D02*
X12331967Y-10506960D01*
X12331967Y-10506960D02*
X12303396Y-10516484D01*
X12303396Y-10516484D02*
X12255777Y-10516484D01*
X12455777Y-10516484D02*
X12455777Y-10383150D01*
X12455777Y-10421246D02*
X12465301Y-10402198D01*
X12465301Y-10402198D02*
X12474824Y-10392674D01*
X12474824Y-10392674D02*
X12493872Y-10383150D01*
X12493872Y-10383150D02*
X12512920Y-10383150D01*
X12579586Y-10516484D02*
X12579586Y-10383150D01*
X12579586Y-10316484D02*
X12570062Y-10326008D01*
X12570062Y-10326008D02*
X12579586Y-10335531D01*
X12579586Y-10335531D02*
X12589110Y-10326008D01*
X12589110Y-10326008D02*
X12579586Y-10316484D01*
X12579586Y-10316484D02*
X12579586Y-10335531D01*
X12703396Y-10516484D02*
X12684348Y-10506960D01*
X12684348Y-10506960D02*
X12674824Y-10487912D01*
X12674824Y-10487912D02*
X12674824Y-10316484D01*
X12808158Y-10516484D02*
X12789110Y-10506960D01*
X12789110Y-10506960D02*
X12779586Y-10487912D01*
X12779586Y-10487912D02*
X12779586Y-10316484D01*
X13036729Y-10516484D02*
X13036729Y-10316484D01*
X13036729Y-10316484D02*
X13103396Y-10459341D01*
X13103396Y-10459341D02*
X13170062Y-10316484D01*
X13170062Y-10316484D02*
X13170062Y-10516484D01*
X13351015Y-10516484D02*
X13351015Y-10411722D01*
X13351015Y-10411722D02*
X13341491Y-10392674D01*
X13341491Y-10392674D02*
X13322443Y-10383150D01*
X13322443Y-10383150D02*
X13284348Y-10383150D01*
X13284348Y-10383150D02*
X13265301Y-10392674D01*
X13351015Y-10506960D02*
X13331967Y-10516484D01*
X13331967Y-10516484D02*
X13284348Y-10516484D01*
X13284348Y-10516484D02*
X13265301Y-10506960D01*
X13265301Y-10506960D02*
X13255777Y-10487912D01*
X13255777Y-10487912D02*
X13255777Y-10468865D01*
X13255777Y-10468865D02*
X13265301Y-10449817D01*
X13265301Y-10449817D02*
X13284348Y-10440293D01*
X13284348Y-10440293D02*
X13331967Y-10440293D01*
X13331967Y-10440293D02*
X13351015Y-10430770D01*
X13446253Y-10383150D02*
X13446253Y-10583150D01*
X13446253Y-10392674D02*
X13465301Y-10383150D01*
X13465301Y-10383150D02*
X13503396Y-10383150D01*
X13503396Y-10383150D02*
X13522443Y-10392674D01*
X13522443Y-10392674D02*
X13531967Y-10402198D01*
X13531967Y-10402198D02*
X13541491Y-10421246D01*
X13541491Y-10421246D02*
X13541491Y-10478389D01*
X13541491Y-10478389D02*
X13531967Y-10497436D01*
X13531967Y-10497436D02*
X13522443Y-10506960D01*
X13522443Y-10506960D02*
X13503396Y-10516484D01*
X13503396Y-10516484D02*
X13465301Y-10516484D01*
X13465301Y-10516484D02*
X13446253Y-10506960D01*
X13627205Y-10497436D02*
X13636729Y-10506960D01*
X13636729Y-10506960D02*
X13627205Y-10516484D01*
X13627205Y-10516484D02*
X13617682Y-10506960D01*
X13617682Y-10506960D02*
X13627205Y-10497436D01*
X13627205Y-10497436D02*
X13627205Y-10516484D01*
X13627205Y-10392674D02*
X13636729Y-10402198D01*
X13636729Y-10402198D02*
X13627205Y-10411722D01*
X13627205Y-10411722D02*
X13617682Y-10402198D01*
X13617682Y-10402198D02*
X13627205Y-10392674D01*
X13627205Y-10392674D02*
X13627205Y-10411722D01*
M02*
