M48
; DRILL file {KiCad 7.0.6} date Thu Sep 28 21:06:30 2023
; FORMAT={-:-/ absolute / metric / decimal}
; #@! TF.CreationDate,2023-09-28T21:06:30-04:00
; #@! TF.GenerationSoftware,Kicad,Pcbnew,7.0.6
; #@! TF.FileFunction,Plated,1,2,PTH
FMAT,2
METRIC
; #@! TA.AperFunction,Plated,PTH,ViaDrill
T1C0.400
; #@! TA.AperFunction,Plated,PTH,ComponentDrill
T2C0.800
; #@! TA.AperFunction,Plated,PTH,ComponentDrill
T3C1.000
%
G90
G05
T1
X125.0Y-90.0
X128.75Y-87.75
X135.2Y-95.7
X137.75Y-79.0
X138.1Y-93.3
X138.3Y-92.5
X138.7Y-93.9
X138.9Y-93.1
X139.3Y-94.5
X139.5Y-93.7
X140.1Y-94.3
X141.184Y-76.794
X141.25Y-66.0
X142.6Y-88.85
X142.8Y-88.05
X143.2Y-89.45
X143.4Y-88.65
X143.8Y-90.05
X144.0Y-77.25
X144.0Y-89.25
X144.6Y-89.85
X145.2Y-80.6
X145.2Y-82.0
X145.25Y-76.0
X147.0Y-89.0
X147.5Y-85.0
X149.0Y-81.6
X149.5Y-91.25
X149.75Y-71.5
X149.75Y-74.25
X150.75Y-95.0
X150.8Y-83.8
X151.0Y-86.5
X156.5Y-75.5
X156.5Y-91.75
X157.5Y-74.5
X158.0Y-81.25
X158.25Y-76.75
X158.25Y-77.75
X158.5Y-83.0
X158.6Y-79.8
X160.0Y-90.25
X160.75Y-92.25
T2
X126.66Y-62.3
X126.66Y-64.84
X126.66Y-67.38
X126.66Y-69.92
X126.66Y-72.46
X126.66Y-75.0
X126.66Y-77.54
X126.66Y-80.08
X139.36Y-62.3
X139.36Y-64.84
X139.36Y-67.38
X139.36Y-69.92
X139.36Y-72.46
X139.36Y-75.0
X139.36Y-77.54
X139.36Y-80.08
T3
X122.5Y-67.46
X122.5Y-70.0
X122.5Y-72.54
X122.5Y-75.08
X140.95Y-96.325
X143.49Y-96.325
T0
M30
