%TF.GenerationSoftware,KiCad,Pcbnew,7.0.6*%
%TF.CreationDate,2023-09-28T21:06:28-04:00*%
%TF.ProjectId,Welder_Knob,57656c64-6572-45f4-9b6e-6f622e6b6963,rev?*%
%TF.SameCoordinates,Original*%
%TF.FileFunction,Legend,Top*%
%TF.FilePolarity,Positive*%
%FSLAX46Y46*%
G04 Gerber Fmt 4.6, Leading zero omitted, Abs format (unit mm)*
G04 Created by KiCad (PCBNEW 7.0.6) date 2023-09-28 21:06:28*
%MOMM*%
%LPD*%
G01*
G04 APERTURE LIST*
%ADD10C,0.400000*%
%ADD11C,0.300000*%
%ADD12C,0.120000*%
%ADD13C,0.100000*%
%ADD14C,0.200000*%
G04 APERTURE END LIST*
D10*
X127700000Y-64800000D02*
X128500000Y-64800000D01*
X127600000Y-62300000D02*
X128400000Y-62300000D01*
X137600000Y-64900000D02*
X138400000Y-64900000D01*
D11*
G36*
X132956542Y-66065114D02*
G01*
X128378984Y-66065114D01*
X128378984Y-64170756D01*
X128593270Y-64170756D01*
X128597923Y-64248262D01*
X129097923Y-65748262D01*
X129114521Y-65773402D01*
X129127995Y-65800349D01*
X129135648Y-65805402D01*
X129140704Y-65813059D01*
X129167655Y-65826534D01*
X129192791Y-65843130D01*
X129201946Y-65843679D01*
X129210153Y-65847783D01*
X129240228Y-65845977D01*
X129270297Y-65847783D01*
X129278501Y-65843680D01*
X129287659Y-65843131D01*
X129312803Y-65826529D01*
X129339746Y-65813058D01*
X129344799Y-65805404D01*
X129352456Y-65800349D01*
X129365931Y-65773397D01*
X129382527Y-65748262D01*
X129612624Y-65057971D01*
X130018796Y-65057971D01*
X130023586Y-65075848D01*
X130023275Y-65094351D01*
X130094703Y-65380065D01*
X130102739Y-65394542D01*
X130106060Y-65410767D01*
X130177489Y-65553624D01*
X130193511Y-65571693D01*
X130205587Y-65592608D01*
X130348444Y-65735466D01*
X130378303Y-65752705D01*
X130407076Y-65771703D01*
X130621362Y-65843131D01*
X130645470Y-65844578D01*
X130668796Y-65850828D01*
X130811653Y-65850828D01*
X130834978Y-65844578D01*
X130859087Y-65843131D01*
X131073373Y-65771703D01*
X131102148Y-65752703D01*
X131132006Y-65735465D01*
X131203434Y-65664036D01*
X131242256Y-65596793D01*
X131242256Y-65519147D01*
X131203432Y-65451904D01*
X131136189Y-65413082D01*
X131058543Y-65413082D01*
X130991300Y-65451906D01*
X130944912Y-65498294D01*
X130787310Y-65550828D01*
X130693139Y-65550828D01*
X130535536Y-65498294D01*
X130434931Y-65397688D01*
X130381750Y-65291328D01*
X130323412Y-65057971D01*
X131518796Y-65057971D01*
X131523586Y-65075848D01*
X131523275Y-65094351D01*
X131594703Y-65380065D01*
X131602739Y-65394542D01*
X131606060Y-65410767D01*
X131677489Y-65553624D01*
X131693511Y-65571693D01*
X131705587Y-65592608D01*
X131848444Y-65735466D01*
X131878303Y-65752705D01*
X131907076Y-65771703D01*
X132121362Y-65843131D01*
X132145470Y-65844578D01*
X132168796Y-65850828D01*
X132311653Y-65850828D01*
X132334978Y-65844578D01*
X132359087Y-65843131D01*
X132573373Y-65771703D01*
X132602148Y-65752703D01*
X132632006Y-65735465D01*
X132703434Y-65664036D01*
X132742256Y-65596793D01*
X132742256Y-65519147D01*
X132703432Y-65451904D01*
X132636189Y-65413082D01*
X132558543Y-65413082D01*
X132491300Y-65451906D01*
X132444912Y-65498294D01*
X132287310Y-65550828D01*
X132193139Y-65550828D01*
X132035536Y-65498294D01*
X131934931Y-65397688D01*
X131881750Y-65291328D01*
X131818796Y-65039507D01*
X131818796Y-64862148D01*
X131881750Y-64610327D01*
X131934931Y-64503967D01*
X132035537Y-64403361D01*
X132193139Y-64350828D01*
X132287313Y-64350828D01*
X132444911Y-64403361D01*
X132491301Y-64449751D01*
X132558544Y-64488574D01*
X132636190Y-64488574D01*
X132703433Y-64449751D01*
X132742256Y-64382508D01*
X132742256Y-64304862D01*
X132703433Y-64237619D01*
X132632005Y-64166191D01*
X132602148Y-64148953D01*
X132573373Y-64129954D01*
X132359087Y-64058526D01*
X132334981Y-64057078D01*
X132311653Y-64050828D01*
X132168796Y-64050828D01*
X132145467Y-64057078D01*
X132121361Y-64058526D01*
X131907076Y-64129955D01*
X131878303Y-64148951D01*
X131848444Y-64166191D01*
X131705587Y-64309048D01*
X131693511Y-64329963D01*
X131677489Y-64348032D01*
X131606060Y-64490889D01*
X131602739Y-64507113D01*
X131594703Y-64521591D01*
X131523275Y-64807305D01*
X131523586Y-64825807D01*
X131518796Y-64843685D01*
X131518796Y-65057971D01*
X130323412Y-65057971D01*
X130318796Y-65039507D01*
X130318796Y-64862148D01*
X130381750Y-64610327D01*
X130434931Y-64503967D01*
X130535537Y-64403361D01*
X130693139Y-64350828D01*
X130787313Y-64350828D01*
X130944911Y-64403361D01*
X130991301Y-64449751D01*
X131058544Y-64488574D01*
X131136190Y-64488574D01*
X131203433Y-64449751D01*
X131242256Y-64382508D01*
X131242256Y-64304862D01*
X131203433Y-64237619D01*
X131132005Y-64166191D01*
X131102148Y-64148953D01*
X131073373Y-64129954D01*
X130859087Y-64058526D01*
X130834981Y-64057078D01*
X130811653Y-64050828D01*
X130668796Y-64050828D01*
X130645467Y-64057078D01*
X130621361Y-64058526D01*
X130407076Y-64129955D01*
X130378303Y-64148951D01*
X130348444Y-64166191D01*
X130205587Y-64309048D01*
X130193511Y-64329963D01*
X130177489Y-64348032D01*
X130106060Y-64490889D01*
X130102739Y-64507113D01*
X130094703Y-64521591D01*
X130023275Y-64807305D01*
X130023586Y-64825807D01*
X130018796Y-64843685D01*
X130018796Y-65057971D01*
X129612624Y-65057971D01*
X129882528Y-64248262D01*
X129887180Y-64170756D01*
X129852456Y-64101307D01*
X129787659Y-64058525D01*
X129710153Y-64053873D01*
X129640704Y-64088597D01*
X129597923Y-64153394D01*
X129240225Y-65226486D01*
X128882527Y-64153394D01*
X128839746Y-64088598D01*
X128770297Y-64053873D01*
X128692791Y-64058526D01*
X128627995Y-64101307D01*
X128593270Y-64170756D01*
X128378984Y-64170756D01*
X128378984Y-63836542D01*
X132956542Y-63836542D01*
X132956542Y-66065114D01*
G37*
G36*
X134379943Y-64395535D02*
G01*
X134416947Y-64432539D01*
X134461653Y-64521951D01*
X134461653Y-64665418D01*
X134416946Y-64754831D01*
X134379941Y-64791836D01*
X134290529Y-64836542D01*
X133904510Y-64836542D01*
X133904510Y-64350828D01*
X134290529Y-64350828D01*
X134379943Y-64395535D01*
G37*
G36*
X135879942Y-64395535D02*
G01*
X135976208Y-64491801D01*
X136033082Y-64719292D01*
X136033082Y-65182363D01*
X135976208Y-65409854D01*
X135879941Y-65506122D01*
X135790529Y-65550828D01*
X135575635Y-65550828D01*
X135486221Y-65506121D01*
X135389954Y-65409854D01*
X135333082Y-65182364D01*
X135333082Y-64719291D01*
X135389954Y-64491802D01*
X135486221Y-64395534D01*
X135575635Y-64350828D01*
X135790529Y-64350828D01*
X135879942Y-64395535D01*
G37*
G36*
X137833083Y-66065114D02*
G01*
X133390224Y-66065114D01*
X133390224Y-65700828D01*
X133604510Y-65700828D01*
X133624606Y-65775828D01*
X133679510Y-65830732D01*
X133754510Y-65850828D01*
X133829510Y-65830732D01*
X133884414Y-65775828D01*
X133904510Y-65700828D01*
X133904510Y-65200828D01*
X135033082Y-65200828D01*
X135037872Y-65218705D01*
X135037561Y-65237208D01*
X135108989Y-65522922D01*
X135109621Y-65524060D01*
X135109621Y-65525365D01*
X135128433Y-65557948D01*
X135146675Y-65590809D01*
X135147792Y-65591479D01*
X135148444Y-65592608D01*
X135291302Y-65735466D01*
X135312216Y-65747540D01*
X135330286Y-65763564D01*
X135473144Y-65834992D01*
X135506919Y-65841903D01*
X135540225Y-65850828D01*
X135825939Y-65850828D01*
X135859242Y-65841904D01*
X135893021Y-65834992D01*
X136035878Y-65763564D01*
X136053947Y-65747540D01*
X136074862Y-65735466D01*
X136217719Y-65592608D01*
X136218370Y-65591479D01*
X136219488Y-65590809D01*
X136237744Y-65557922D01*
X136256542Y-65525364D01*
X136256542Y-65524061D01*
X136257174Y-65522923D01*
X136328603Y-65237209D01*
X136328291Y-65218704D01*
X136333082Y-65200828D01*
X136333082Y-64700828D01*
X136328291Y-64682951D01*
X136328603Y-64664447D01*
X136257174Y-64378733D01*
X136256542Y-64377594D01*
X136256542Y-64376291D01*
X136237736Y-64343719D01*
X136219488Y-64310847D01*
X136218370Y-64310176D01*
X136217719Y-64309048D01*
X136109499Y-64200828D01*
X136461654Y-64200828D01*
X136481750Y-64275828D01*
X136536654Y-64330732D01*
X136611654Y-64350828D01*
X136890225Y-64350828D01*
X136890225Y-65700828D01*
X136910321Y-65775828D01*
X136965225Y-65830732D01*
X137040225Y-65850828D01*
X137115225Y-65830732D01*
X137170129Y-65775828D01*
X137190225Y-65700828D01*
X137190225Y-64350828D01*
X137468797Y-64350828D01*
X137543797Y-64330732D01*
X137598701Y-64275828D01*
X137618797Y-64200828D01*
X137598701Y-64125828D01*
X137543797Y-64070924D01*
X137468797Y-64050828D01*
X136611654Y-64050828D01*
X136536654Y-64070924D01*
X136481750Y-64125828D01*
X136461654Y-64200828D01*
X136109499Y-64200828D01*
X136074862Y-64166191D01*
X136053946Y-64154115D01*
X136035878Y-64138093D01*
X135893021Y-64066664D01*
X135859240Y-64059751D01*
X135825939Y-64050828D01*
X135540225Y-64050828D01*
X135506924Y-64059750D01*
X135473142Y-64066664D01*
X135330286Y-64138093D01*
X135312216Y-64154115D01*
X135291302Y-64166191D01*
X135148444Y-64309048D01*
X135147792Y-64310176D01*
X135146675Y-64310847D01*
X135128433Y-64343707D01*
X135109621Y-64376291D01*
X135109621Y-64377595D01*
X135108989Y-64378734D01*
X135037561Y-64664448D01*
X135037872Y-64682950D01*
X135033082Y-64700828D01*
X135033082Y-65200828D01*
X133904510Y-65200828D01*
X133904510Y-65136542D01*
X134325939Y-65136542D01*
X134359242Y-65127618D01*
X134393021Y-65120706D01*
X134535878Y-65049278D01*
X134553947Y-65033254D01*
X134574862Y-65021180D01*
X134646291Y-64949751D01*
X134658365Y-64928836D01*
X134674389Y-64910767D01*
X134745817Y-64767909D01*
X134752728Y-64734133D01*
X134761653Y-64700828D01*
X134761653Y-64486542D01*
X134752728Y-64453236D01*
X134745817Y-64419461D01*
X134674389Y-64276603D01*
X134658365Y-64258533D01*
X134646290Y-64237618D01*
X134574861Y-64166190D01*
X134553946Y-64154115D01*
X134535878Y-64138093D01*
X134393021Y-64066664D01*
X134359240Y-64059751D01*
X134325939Y-64050828D01*
X133754510Y-64050828D01*
X133679510Y-64070924D01*
X133624606Y-64125828D01*
X133604510Y-64200828D01*
X133604510Y-65700828D01*
X133390224Y-65700828D01*
X133390224Y-63836542D01*
X137833083Y-63836542D01*
X137833083Y-66065114D01*
G37*
G36*
X132416340Y-61703361D02*
G01*
X132516947Y-61803968D01*
X132570126Y-61910327D01*
X132633082Y-62162148D01*
X132633082Y-62339507D01*
X132570126Y-62591328D01*
X132516947Y-62697688D01*
X132416341Y-62798294D01*
X132258739Y-62850828D01*
X132075939Y-62850828D01*
X132075939Y-61650828D01*
X132258742Y-61650828D01*
X132416340Y-61703361D01*
G37*
G36*
X133147368Y-63365114D02*
G01*
X128418796Y-63365114D01*
X128418796Y-62357971D01*
X128633082Y-62357971D01*
X128637872Y-62375848D01*
X128637561Y-62394351D01*
X128708989Y-62680065D01*
X128717025Y-62694542D01*
X128720346Y-62710767D01*
X128791775Y-62853624D01*
X128807797Y-62871693D01*
X128819873Y-62892608D01*
X128962730Y-63035466D01*
X128992589Y-63052705D01*
X129021362Y-63071703D01*
X129235648Y-63143131D01*
X129259756Y-63144578D01*
X129283082Y-63150828D01*
X129425939Y-63150828D01*
X129449264Y-63144578D01*
X129473373Y-63143131D01*
X129687659Y-63071703D01*
X129716434Y-63052703D01*
X129746292Y-63035465D01*
X129780929Y-63000828D01*
X130204510Y-63000828D01*
X130224606Y-63075828D01*
X130279510Y-63130732D01*
X130354510Y-63150828D01*
X130429510Y-63130732D01*
X130484414Y-63075828D01*
X130504510Y-63000828D01*
X130504510Y-62065661D01*
X131081417Y-63075249D01*
X131081659Y-63075493D01*
X131081749Y-63075828D01*
X131108969Y-63103048D01*
X131136075Y-63130397D01*
X131136409Y-63130488D01*
X131136653Y-63130732D01*
X131173753Y-63140672D01*
X131210985Y-63150827D01*
X131211320Y-63150738D01*
X131211653Y-63150828D01*
X131248752Y-63140887D01*
X131286074Y-63131065D01*
X131286319Y-63130821D01*
X131286653Y-63130732D01*
X131313817Y-63103567D01*
X131341222Y-63076406D01*
X131341313Y-63076071D01*
X131341557Y-63075828D01*
X131351497Y-63038727D01*
X131361652Y-63001496D01*
X131361563Y-63001160D01*
X131361653Y-63000828D01*
X131775939Y-63000828D01*
X131796035Y-63075828D01*
X131850939Y-63130732D01*
X131925939Y-63150828D01*
X132283082Y-63150828D01*
X132306407Y-63144578D01*
X132330516Y-63143131D01*
X132544802Y-63071703D01*
X132573577Y-63052703D01*
X132603434Y-63035466D01*
X132746291Y-62892608D01*
X132758366Y-62871693D01*
X132774389Y-62853624D01*
X132845818Y-62710768D01*
X132849138Y-62694541D01*
X132857175Y-62680065D01*
X132928603Y-62394351D01*
X132928291Y-62375848D01*
X132933082Y-62357971D01*
X132933082Y-62143685D01*
X132928291Y-62125807D01*
X132928603Y-62107305D01*
X132857175Y-61821591D01*
X132849138Y-61807114D01*
X132845818Y-61790888D01*
X132774389Y-61648032D01*
X132758366Y-61629963D01*
X132746291Y-61609048D01*
X132603434Y-61466191D01*
X132573577Y-61448953D01*
X132544802Y-61429954D01*
X132330516Y-61358526D01*
X132306410Y-61357078D01*
X132283082Y-61350828D01*
X131925939Y-61350828D01*
X131850939Y-61370924D01*
X131796035Y-61425828D01*
X131775939Y-61500828D01*
X131775939Y-63000828D01*
X131361653Y-63000828D01*
X131361653Y-61500828D01*
X131341557Y-61425828D01*
X131286653Y-61370924D01*
X131211653Y-61350828D01*
X131136653Y-61370924D01*
X131081749Y-61425828D01*
X131061653Y-61500828D01*
X131061653Y-62435992D01*
X130484746Y-61426407D01*
X130484503Y-61426162D01*
X130484414Y-61425828D01*
X130457193Y-61398607D01*
X130430088Y-61371259D01*
X130429753Y-61371167D01*
X130429510Y-61370924D01*
X130392409Y-61360983D01*
X130355178Y-61350829D01*
X130354842Y-61350917D01*
X130354510Y-61350828D01*
X130317304Y-61360797D01*
X130280089Y-61370592D01*
X130279844Y-61370834D01*
X130279510Y-61370924D01*
X130252289Y-61398144D01*
X130224941Y-61425250D01*
X130224849Y-61425584D01*
X130224606Y-61425828D01*
X130214665Y-61462928D01*
X130204511Y-61500160D01*
X130204599Y-61500495D01*
X130204510Y-61500828D01*
X130204510Y-63000828D01*
X129780929Y-63000828D01*
X129817720Y-62964036D01*
X129827593Y-62946934D01*
X129841557Y-62932971D01*
X129846668Y-62913894D01*
X129856542Y-62896793D01*
X129856542Y-62877045D01*
X129861653Y-62857971D01*
X129861653Y-62357971D01*
X129841557Y-62282971D01*
X129786653Y-62228067D01*
X129711653Y-62207971D01*
X129425939Y-62207971D01*
X129350939Y-62228067D01*
X129296035Y-62282971D01*
X129275939Y-62357971D01*
X129296035Y-62432971D01*
X129350939Y-62487875D01*
X129425939Y-62507971D01*
X129561653Y-62507971D01*
X129561653Y-62795839D01*
X129559198Y-62798294D01*
X129401596Y-62850828D01*
X129307425Y-62850828D01*
X129149822Y-62798294D01*
X129049217Y-62697688D01*
X128996036Y-62591328D01*
X128933082Y-62339507D01*
X128933082Y-62162148D01*
X128996036Y-61910327D01*
X129049217Y-61803967D01*
X129149823Y-61703361D01*
X129307425Y-61650828D01*
X129461958Y-61650828D01*
X129573142Y-61706421D01*
X129649212Y-61721988D01*
X129722873Y-61697434D01*
X129774389Y-61639339D01*
X129789956Y-61563270D01*
X129765402Y-61489609D01*
X129707307Y-61438093D01*
X129564450Y-61366664D01*
X129530669Y-61359751D01*
X129497368Y-61350828D01*
X129283082Y-61350828D01*
X129259753Y-61357078D01*
X129235647Y-61358526D01*
X129021362Y-61429955D01*
X128992589Y-61448951D01*
X128962730Y-61466191D01*
X128819873Y-61609048D01*
X128807797Y-61629963D01*
X128791775Y-61648032D01*
X128720346Y-61790889D01*
X128717025Y-61807113D01*
X128708989Y-61821591D01*
X128637561Y-62107305D01*
X128637872Y-62125807D01*
X128633082Y-62143685D01*
X128633082Y-62357971D01*
X128418796Y-62357971D01*
X128418796Y-61136542D01*
X133147368Y-61136542D01*
X133147368Y-63365114D01*
G37*
D10*
%TO.C,J8*%
X159662500Y-96000000D02*
X158337500Y-96000000D01*
D12*
X158265000Y-94965000D02*
X158265000Y-94900000D01*
X158265000Y-94965000D02*
X154735000Y-94965000D01*
X158265000Y-91100000D02*
X158265000Y-91035000D01*
X158265000Y-91035000D02*
X154735000Y-91035000D01*
X154735000Y-94965000D02*
X154735000Y-94900000D01*
X154735000Y-91100000D02*
X154735000Y-91035000D01*
%TO.C,A7*%
X125260000Y-60900000D02*
X125260000Y-62300000D01*
X125260000Y-63570000D02*
X125260000Y-81480000D01*
X125260000Y-81480000D02*
X140760000Y-81480000D01*
X126660000Y-60900000D02*
X125260000Y-60900000D01*
X140760000Y-60900000D02*
X127930000Y-60900000D01*
X140760000Y-81480000D02*
X140760000Y-60900000D01*
%TO.C,C11*%
X143235000Y-75741252D02*
X143235000Y-75218748D01*
X141765000Y-75741252D02*
X141765000Y-75218748D01*
%TO.C,C10*%
X137485000Y-93761252D02*
X137485000Y-93238748D01*
X136015000Y-93761252D02*
X136015000Y-93238748D01*
%TO.C,C9*%
X135535000Y-93761252D02*
X135535000Y-93238748D01*
X134065000Y-93761252D02*
X134065000Y-93238748D01*
D13*
%TO.C,SW7*%
X147750000Y-91500000D02*
X148650000Y-91500000D01*
X148650000Y-91500000D02*
X148650000Y-89000000D01*
X148650000Y-89000000D02*
X147750000Y-89000000D01*
X147750000Y-89000000D02*
X147750000Y-91500000D01*
D12*
%TO.C,R11*%
X143653641Y-70380000D02*
X143346359Y-70380000D01*
X143653641Y-69620000D02*
X143346359Y-69620000D01*
%TO.C,C13*%
X144640000Y-79077836D02*
X144640000Y-78862164D01*
X145360000Y-79077836D02*
X145360000Y-78862164D01*
%TO.C,D7*%
X143338748Y-64805000D02*
X143861252Y-64805000D01*
X143338748Y-66275000D02*
X143861252Y-66275000D01*
%TO.C,C12*%
X143580000Y-75587836D02*
X143580000Y-75372164D01*
X144300000Y-75587836D02*
X144300000Y-75372164D01*
%TO.C,C14*%
X150860000Y-91892164D02*
X150860000Y-92107836D01*
X150140000Y-91892164D02*
X150140000Y-92107836D01*
D14*
%TO.C,IC7*%
X146300000Y-74150000D02*
X146300000Y-74150000D01*
X146300000Y-74150000D02*
X146300000Y-74150000D01*
X146400000Y-74150000D02*
X146400000Y-74150000D01*
X147000000Y-66750000D02*
X147000000Y-66750000D01*
X147000000Y-66750000D02*
X147000000Y-66750000D01*
X147000000Y-66750000D02*
X147000000Y-73500000D01*
X147000000Y-66750000D02*
X160200000Y-66750000D01*
X147000000Y-73500000D02*
X147000000Y-66750000D01*
X147000000Y-73500000D02*
X147000000Y-73500000D01*
X147000000Y-84250000D02*
X147000000Y-84250000D01*
X147000000Y-84250000D02*
X147000000Y-85750000D01*
X147000000Y-85750000D02*
X147000000Y-84250000D01*
X147000000Y-85750000D02*
X147000000Y-85750000D01*
X147000000Y-85750000D02*
X147000000Y-85750000D01*
X147000000Y-85750000D02*
X147850000Y-85750000D01*
X147850000Y-85750000D02*
X147000000Y-85750000D01*
X147850000Y-85750000D02*
X147850000Y-85750000D01*
X159100000Y-85750000D02*
X159100000Y-85750000D01*
X159100000Y-85750000D02*
X160200000Y-85750000D01*
X160200000Y-66750000D02*
X147000000Y-66750000D01*
X160200000Y-66750000D02*
X160200000Y-66750000D01*
X160200000Y-66750000D02*
X160200000Y-66750000D01*
X160200000Y-66750000D02*
X160200000Y-73500000D01*
X160200000Y-73500000D02*
X160200000Y-66750000D01*
X160200000Y-73500000D02*
X160200000Y-73500000D01*
X160200000Y-84250000D02*
X160200000Y-84250000D01*
X160200000Y-84250000D02*
X160200000Y-85750000D01*
X160200000Y-85750000D02*
X159100000Y-85750000D01*
X160200000Y-85750000D02*
X160200000Y-84250000D01*
X160200000Y-85750000D02*
X160200000Y-85750000D01*
X160200000Y-85750000D02*
X160200000Y-85750000D01*
X146400000Y-74150000D02*
G75*
G03*
X146300000Y-74150000I-50000J0D01*
G01*
X146300000Y-74150000D02*
G75*
G03*
X146400000Y-74150000I50000J0D01*
G01*
X146300000Y-74150000D02*
G75*
G03*
X146400000Y-74150000I50000J0D01*
G01*
D12*
%TO.C,C7*%
X134110000Y-90159420D02*
X134110000Y-90440580D01*
X133090000Y-90159420D02*
X133090000Y-90440580D01*
%TO.C,R7*%
X126346359Y-89620000D02*
X126653641Y-89620000D01*
X126346359Y-90380000D02*
X126653641Y-90380000D01*
%TO.C,R10*%
X143880000Y-78846359D02*
X143880000Y-79153641D01*
X143120000Y-78846359D02*
X143120000Y-79153641D01*
%TO.C,J9*%
X121170000Y-66130000D02*
X122500000Y-66130000D01*
X121170000Y-67460000D02*
X121170000Y-66130000D01*
X121170000Y-68730000D02*
X121170000Y-76410000D01*
X121170000Y-68730000D02*
X123830000Y-68730000D01*
X121170000Y-76410000D02*
X123830000Y-76410000D01*
X123830000Y-68730000D02*
X123830000Y-76410000D01*
%TO.C,C8*%
X127360000Y-92892164D02*
X127360000Y-93107836D01*
X126640000Y-92892164D02*
X126640000Y-93107836D01*
%TO.C,D8*%
X143338748Y-67215000D02*
X143861252Y-67215000D01*
X143338748Y-68685000D02*
X143861252Y-68685000D01*
%TO.C,L7*%
X126152500Y-93940000D02*
X126152500Y-95490000D01*
X126152500Y-93940000D02*
X133672500Y-93940000D01*
X126152500Y-101060000D02*
X126152500Y-99510000D01*
X126152500Y-101060000D02*
X133672500Y-101060000D01*
X133672500Y-93940000D02*
X133672500Y-95490000D01*
X133672500Y-101060000D02*
X133672500Y-99510000D01*
%TO.C,C16*%
X144437500Y-88347500D02*
X143650000Y-88347500D01*
X144043750Y-88741250D02*
X144043750Y-87953750D01*
X143410000Y-88845563D02*
X143410000Y-87560000D01*
X143410000Y-88845563D02*
X142345563Y-89910000D01*
X143410000Y-84154437D02*
X143410000Y-85440000D01*
X143410000Y-84154437D02*
X142345563Y-83090000D01*
X142345563Y-89910000D02*
X136590000Y-89910000D01*
X142345563Y-83090000D02*
X136590000Y-83090000D01*
X136590000Y-89910000D02*
X136590000Y-87560000D01*
X136590000Y-83090000D02*
X136590000Y-85440000D01*
%TO.C,J7*%
X139620000Y-94995000D02*
X139620000Y-97655000D01*
X139620000Y-94995000D02*
X142220000Y-94995000D01*
X139620000Y-97655000D02*
X144820000Y-97655000D01*
X142220000Y-94995000D02*
X142220000Y-97595000D01*
X142220000Y-97595000D02*
X144820000Y-97595000D01*
X143490000Y-94995000D02*
X144820000Y-94995000D01*
X144820000Y-94995000D02*
X144820000Y-96325000D01*
X144820000Y-97595000D02*
X144820000Y-97655000D01*
%TO.C,U7*%
X130500000Y-93060000D02*
X132300000Y-93060000D01*
X130500000Y-93060000D02*
X129700000Y-93060000D01*
X130500000Y-89940000D02*
X131300000Y-89940000D01*
X130500000Y-89940000D02*
X129700000Y-89940000D01*
D13*
%TO.C,SW8*%
X147700000Y-99150000D02*
X148600000Y-99150000D01*
X148600000Y-99150000D02*
X148600000Y-96650000D01*
X148600000Y-96650000D02*
X147700000Y-96650000D01*
X147700000Y-96650000D02*
X147700000Y-99150000D01*
D12*
%TO.C,R8*%
X127120000Y-88653641D02*
X127120000Y-88346359D01*
X127880000Y-88653641D02*
X127880000Y-88346359D01*
%TO.C,R9*%
X143356359Y-63120000D02*
X143663641Y-63120000D01*
X143356359Y-63880000D02*
X143663641Y-63880000D01*
%TD*%
M02*
