0
SECTION
2
HEADER
9
$INSUNITS
70
4
9
$ACADVER
1
AC1014
9
$HANDSEED
5
FFFF
0
ENDSEC
0
SECTION
2
TABLES
0
TABLE
2
VPORT
5
8
100
AcDbSymbolTable
0
ENDTAB
0
TABLE
2
LTYPE
5
5
100
AcDbSymbolTable
0
LTYPE
5
14
100
AcDbSymbolTableRecord
100
AcDbLinetypeTableRecord
2
BYBLOCK
70
0
0
LTYPE
5
15
100
AcDbSymbolTableRecord
100
AcDbLinetypeTableRecord
2
BYLAYER
70
0
0
ENDTAB
0
TABLE
2
LAYER
5
2
100
AcDbSymbolTable
70
2
0
LAYER
5
50
100
AcDbSymbolTableRecord
100
AcDbLayerTableRecord
2
0
70
0
6
CONTINUOUS
0
ENDTAB
0
TABLE
2
STYLE
5
3
100
AcDbSymbolTable
70
1
0
STYLE
5
11
100
AcDbSymbolTableRecord
100
AcDbTextStyleTableRecord
2
STANDARD
70
0
0
ENDTAB
0
TABLE
2
VIEW
5
6
100
AcDbSymbolTable
70
0
0
ENDTAB
0
TABLE
2
UCS
5
7
100
AcDbSymbolTable
70
0
0
ENDTAB
0
TABLE
2
APPID
5
9
100
AcDbSymbolTable
70
2
0
APPID
5
12
100
AcDbSymbolTableRecord
100
AcDbRegAppTableRecord
2
ACAD
70
0
0
ENDTAB
0
TABLE
2
DIMSTYLE
5
A
100
AcDbSymbolTable
70
1
0
ENDTAB
0
TABLE
2
BLOCK_RECORD
5
1
100
AcDbSymbolTable
70
1
0
BLOCK_RECORD
5
1F
100
AcDbSymbolTableRecord
100
AcDbBlockTableRecord
2
*MODEL_SPACE
0
BLOCK_RECORD
5
1B
100
AcDbSymbolTableRecord
100
AcDbBlockTableRecord
2
*PAPER_SPACE
0
ENDTAB
0
ENDSEC
0
SECTION
2
BLOCKS
0
BLOCK
5
20
100
AcDbEntity
100
AcDbBlockBegin
2
*MODEL_SPACE
0
ENDBLK
5
21
100
AcDbEntity
100
AcDbBlockEnd
0
BLOCK
5
1C
100
AcDbEntity
100
AcDbBlockBegin
2
*PAPER_SPACE
0
ENDBLK
5
1D
100
AcDbEntity
100
AcDbBlockEnd
0
ENDSEC
0
SECTION
2
ENTITIES
0
SPLINE
5
100
100
AcDbEntity
8
OUTER_PROFILES
100
AcDbSpline
70
0
71
3
72
8
73
4
74
0
42
0.000000001
43
0.0000000001
44
0.0000000001
40
-2.2109027034466504e-15
40
-2.2109027034466504e-15
40
-2.2109027034466504e-15
40
-2.2109027034466504e-15
40
1.2096594386172541
40
1.2096594386172541
40
1.2096594386172541
40
1.2096594386172541
10
107.5160077581028
20
-8.8817841970012523e-15
30
0
10
108.67728081917535
20
-9.6173596559388524e-15
30
0
10
109.83855388024791
20
0.037637825275383466
30
0
10
110.99982694132049
20
0.09032773641033387
30
0
0
SPLINE
5
101
100
AcDbEntity
8
OUTER_PROFILES
100
AcDbSpline
70
0
71
3
72
8
73
4
74
0
42
0.000000001
43
0.0000000001
44
0.0000000001
40
1.2096594386172541
40
1.2096594386172541
40
1.2096594386172541
40
1.2096594386172541
40
1.5707963267949032
40
1.5707963267949032
40
1.5707963267949032
40
1.5707963267949032
10
110.99982694132049
20
0.09032773641033387
30
0
10
111.34651835397102
20
0.10605800721067069
30
0
10
111.69320976662158
20
0.12286817393097664
30
0
10
112.03990117927212
20
0.1396830779670033
30
0
0
LINE
5
102
100
AcDbEntity
8
OUTER_PROFILES
100
AcDbLine
10
112.03990117927212
20
0.1396830779670033
30
0
11
159.44000378954638
21
1.7949311351057418
31
0
0
ARC
5
103
100
AcDbEntity
8
OUTER_PROFILES
100
AcDbCircle
10
159.31590117927226
20
5.3487649159856421
30
0
40
3.5559999999999969
210
-0
220
0
230
1
100
AcDbArc
50
-87.999999999999559
51
0
0
LINE
5
104
100
AcDbEntity
8
OUTER_PROFILES
100
AcDbLine
10
162.87190117927227
20
5.3487649159856669
30
0
11
162.87190117927184
21
119.76093061689134
31
0
0
ARC
5
105
100
AcDbEntity
8
OUTER_PROFILES
100
AcDbCircle
10
159.31590117927183
20
119.7609306168913
30
0
40
3.556000000000008
210
0
220
-0
230
1
100
AcDbArc
50
0
51
88.000000000000014
0
LINE
5
106
100
AcDbEntity
8
OUTER_PROFILES
100
AcDbLine
10
159.44000378954593
20
123.3147643977712
30
0
11
112.03990117927194
21
124.97001245490962
31
0
0
SPLINE
5
107
100
AcDbEntity
8
OUTER_PROFILES
100
AcDbSpline
70
0
71
3
72
8
73
4
74
0
42
0.000000001
43
0.0000000001
44
0.0000000001
40
-1.5707963267949034
40
-1.5707963267949034
40
-1.5707963267949034
40
-1.5707963267949034
40
-1.2096594386172543
40
-1.2096594386172543
40
-1.2096594386172543
40
-1.2096594386172543
10
112.03990117927194
20
124.97001245490962
30
0
10
111.69320976662141
20
124.98682735894563
30
0
10
111.34651835397086
20
125.00363752566597
30
0
10
110.99982694132032
20
125.01936779646628
30
0
0
SPLINE
5
108
100
AcDbEntity
8
OUTER_PROFILES
100
AcDbSpline
70
0
71
3
72
8
73
4
74
0
42
0.000000001
43
0.0000000001
44
0.0000000001
40
-1.2096594386172543
40
-1.2096594386172543
40
-1.2096594386172543
40
-1.2096594386172543
40
2.2299893950539718e-15
40
2.2299893950539718e-15
40
2.2299893950539718e-15
40
2.2299893950539718e-15
10
110.99982694132032
20
125.01936779646628
30
0
10
109.83855388024776
20
125.07205770760123
30
0
10
108.67728081917518
20
125.10969553287659
30
0
10
107.51600775810262
20
125.10969553287659
30
0
0
LINE
5
109
100
AcDbEntity
8
OUTER_PROFILES
100
AcDbLine
10
107.51600775810262
20
125.10969553287659
30
0
11
3.5527136788005009e-14
21
125.10969553287664
31
0
0
ELLIPSE
5
110
100
AcDbEntity
8
OUTER_PROFILES
100
AcDbEllipse
10
0.0043337586467373512
20
121.55152799335002
30
0
11
2.5175361445948545
21
-2.5175361445945859
31
0.0
40
0.99878276595871796
41
2.3568034777779014
42
3.9263818294015818
0
LINE
5
111
100
AcDbEntity
8
OUTER_PROFILES
100
AcDbLine
10
-3.5538337808798715
20
121.55586175199672
30
0
11
-3.5538337808798959
21
3.5538337808798914
31
0
0
ELLIPSE
5
112
100
AcDbEntity
8
OUTER_PROFILES
100
AcDbEllipse
10
0.0043337586467195877
20
3.5581675395265933
30
0
11
-2.5175361445946343
21
-2.5175361445948159
31
0.0
40
0.99878276595871796
41
5.4983961313677128
42
7.0679744829913815
0
LINE
5
113
100
AcDbEntity
8
OUTER_PROFILES
100
AcDbLine
10
-1.6653345369377348e-15
20
-2.2204460492503131e-14
30
0
11
107.5160077581028
21
-8.8817841970012523e-15
31
0
0
CIRCLE
5
114
100
AcDbEntity
8
INTERIOR_PROFILES
100
AcDbCircle
10
-50.357455889260038
20
62.554847766438471
30
0
40
3.75
210
0
220
0
230
-1
0
CIRCLE
5
115
100
AcDbEntity
8
INTERIOR_PROFILES
100
AcDbCircle
10
-37.857455889260052
20
50.054847766438463
30
0
40
1.5000000000000036
210
0
220
0
230
-1
0
CIRCLE
5
116
100
AcDbEntity
8
INTERIOR_PROFILES
100
AcDbCircle
10
-37.857455889260038
20
75.054847766438471
30
0
40
1.5000000000000036
210
0
220
0
230
-1
0
CIRCLE
5
117
100
AcDbEntity
8
INTERIOR_PROFILES
100
AcDbCircle
10
-20.357455889260045
20
92.554847766438456
30
0
40
10
210
0
220
0
230
-1
0
CIRCLE
5
118
100
AcDbEntity
8
INTERIOR_PROFILES
100
AcDbCircle
10
-80.357455889260038
20
92.554847766438485
30
0
40
10
210
0
220
0
230
-1
0
CIRCLE
5
119
100
AcDbEntity
8
INTERIOR_PROFILES
100
AcDbCircle
10
-20.35745588926007
20
32.554847766438463
30
0
40
5.9999999999999964
210
0
220
0
230
-1
0
CIRCLE
5
120
100
AcDbEntity
8
INTERIOR_PROFILES
100
AcDbCircle
10
-62.857455889260052
20
50.054847766438478
30
0
40
1.4999999999999947
210
0
220
0
230
-1
0
CIRCLE
5
121
100
AcDbEntity
8
INTERIOR_PROFILES
100
AcDbCircle
10
-80.357455889260066
20
32.554847766438485
30
0
40
5.9999999999999964
210
0
220
0
230
-1
0
CIRCLE
5
122
100
AcDbEntity
8
INTERIOR_PROFILES
100
AcDbCircle
10
-50.357455889260038
20
102.55484776643847
30
0
40
6.0000000000000053
210
0
220
0
230
-1
0
CIRCLE
5
123
100
AcDbEntity
8
INTERIOR_PROFILES
100
AcDbCircle
10
-62.857455889260038
20
75.054847766438471
30
0
40
1.5000000000000036
210
0
220
0
230
-1
0
LINE
5
124
100
AcDbEntity
8
BEND
100
AcDbLine
10
109.77795446868747
20
0.040912226319518297
30
2.1133532303869147e-15
11
109.77795448136945
21
125.06878330655707
31
2.7323761564366118e-13
0
LINE
5
125
100
AcDbEntity
8
BEND_EXTENT
100
AcDbLine
10
112.03990117927196
20
124.97001245490964
30
0
11
112.03990117927212
21
0.13968307796698554
31
0
0
LINE
5
126
100
AcDbEntity
8
BEND_EXTENT
100
AcDbLine
10
107.51600775810282
20
0
30
0
11
107.51600775810263
21
125.1096955328766
31
0
0
ENDSEC
0
SECTION
2
OBJECTS
0
DICTIONARY
5
C
100
AcDbDictionary
3
ACAD_GROUP
350
D
3
ACAD_MLINESTYLE
350
17
0
DICTIONARY
5
D
100
AcDbDictionary
0
DICTIONARY
5
1A
330
C
100
AcDbDictionary
0
DICTIONARY
5
17
100
AcDbDictionary
0
ENDSEC
0
EOF
